G04 #@! TF.FileFunction,Soldermask,Bot*
%FSLAX46Y46*%
G04 Gerber Fmt 4.6, Leading zero omitted, Abs format (unit mm)*
G04 Created by KiCad (PCBNEW 4.0.2+dfsg1-stable) date Mon 11 Jun 2018 12:13:27 PM EDT*
%MOMM*%
G01*
G04 APERTURE LIST*
%ADD10C,0.100000*%
%ADD11C,1.700000*%
%ADD12R,1.700000X1.700000*%
%ADD13C,2.200000*%
%ADD14R,1.598880X1.598880*%
%ADD15C,2.300000*%
%ADD16C,3.900000*%
%ADD17C,3.651200*%
%ADD18C,1.924000*%
G04 APERTURE END LIST*
D10*
D11*
X74734929Y-116538373D03*
D12*
X77234929Y-116538373D03*
D13*
X122174000Y-53594000D03*
X119634000Y-53594000D03*
X117094000Y-53594000D03*
X114554000Y-53594000D03*
X112014000Y-53594000D03*
X109474000Y-53594000D03*
X106934000Y-53594000D03*
X104394000Y-53594000D03*
X101854000Y-53594000D03*
X99314000Y-53594000D03*
X96774000Y-53594000D03*
X94234000Y-53594000D03*
X91694000Y-53594000D03*
X89154000Y-53594000D03*
X86614000Y-53594000D03*
X84074000Y-53594000D03*
X81534000Y-53594000D03*
X78994000Y-53594000D03*
X76454000Y-53594000D03*
X73914000Y-53594000D03*
D14*
X87884000Y-133570980D03*
X87884000Y-135669020D03*
X96994980Y-144780000D03*
X99093020Y-144780000D03*
X108204000Y-133570980D03*
X108204000Y-135669020D03*
X99126040Y-124460000D03*
X97028000Y-124460000D03*
D15*
X105044000Y-132120000D03*
X105044000Y-137120000D03*
X90544000Y-132120000D03*
X90544000Y-134620000D03*
X90544000Y-137120000D03*
D16*
X98044000Y-140170000D03*
X98044000Y-129070000D03*
D17*
X62992000Y-141732000D03*
X75692000Y-141732000D03*
D18*
X66802000Y-139192000D03*
X68834000Y-139192000D03*
X70866000Y-139192000D03*
X72898000Y-139192000D03*
X65786000Y-137414000D03*
X67818000Y-137414000D03*
X69850000Y-137414000D03*
X71882000Y-137414000D03*
M02*
