G04 #@! TF.GenerationSoftware,KiCad,Pcbnew,5.0.0-fee4fd1~66~ubuntu16.04.1*
G04 #@! TF.CreationDate,2018-09-28T16:25:47-04:00*
G04 #@! TF.ProjectId,hydroponics_shield_rev4,687964726F706F6E6963735F73686965,rev?*
G04 #@! TF.SameCoordinates,Original*
G04 #@! TF.FileFunction,Copper,L2,Bot,Signal*
G04 #@! TF.FilePolarity,Positive*
%FSLAX46Y46*%
G04 Gerber Fmt 4.6, Leading zero omitted, Abs format (unit mm)*
G04 Created by KiCad (PCBNEW 5.0.0-fee4fd1~66~ubuntu16.04.1) date Fri Sep 28 16:25:47 2018*
%MOMM*%
%LPD*%
G01*
G04 APERTURE LIST*
G04 #@! TA.AperFunction,ComponentPad*
%ADD10O,2.540000X1.524000*%
G04 #@! TD*
G04 #@! TA.AperFunction,ComponentPad*
%ADD11C,3.251200*%
G04 #@! TD*
G04 #@! TA.AperFunction,ComponentPad*
%ADD12C,1.524000*%
G04 #@! TD*
G04 #@! TA.AperFunction,ComponentPad*
%ADD13C,1.750000*%
G04 #@! TD*
G04 #@! TA.AperFunction,ComponentPad*
%ADD14C,2.900000*%
G04 #@! TD*
G04 #@! TA.AperFunction,ComponentPad*
%ADD15C,1.520000*%
G04 #@! TD*
G04 #@! TA.AperFunction,ComponentPad*
%ADD16R,1.520000X1.520000*%
G04 #@! TD*
G04 #@! TA.AperFunction,ComponentPad*
%ADD17O,1.600000X1.600000*%
G04 #@! TD*
G04 #@! TA.AperFunction,ComponentPad*
%ADD18R,3.500120X3.500120*%
G04 #@! TD*
G04 #@! TA.AperFunction,ComponentPad*
%ADD19C,2.100000*%
G04 #@! TD*
G04 #@! TA.AperFunction,ComponentPad*
%ADD20C,1.300000*%
G04 #@! TD*
G04 #@! TA.AperFunction,ComponentPad*
%ADD21R,1.300000X1.300000*%
G04 #@! TD*
G04 #@! TA.AperFunction,ComponentPad*
%ADD22O,1.699260X3.500120*%
G04 #@! TD*
G04 #@! TA.AperFunction,ComponentPad*
%ADD23C,1.000760*%
G04 #@! TD*
G04 #@! TA.AperFunction,ComponentPad*
%ADD24R,2.032000X2.032000*%
G04 #@! TD*
G04 #@! TA.AperFunction,ComponentPad*
%ADD25O,2.032000X2.032000*%
G04 #@! TD*
G04 #@! TA.AperFunction,ComponentPad*
%ADD26C,2.170000*%
G04 #@! TD*
G04 #@! TA.AperFunction,Conductor*
%ADD27C,0.100000*%
G04 #@! TD*
G04 #@! TA.AperFunction,ComponentPad*
%ADD28C,2.500000*%
G04 #@! TD*
G04 #@! TA.AperFunction,ComponentPad*
%ADD29C,1.270000*%
G04 #@! TD*
G04 #@! TA.AperFunction,ViaPad*
%ADD30C,0.762000*%
G04 #@! TD*
G04 #@! TA.AperFunction,Conductor*
%ADD31C,0.635000*%
G04 #@! TD*
G04 #@! TA.AperFunction,Conductor*
%ADD32C,1.016000*%
G04 #@! TD*
G04 #@! TA.AperFunction,Conductor*
%ADD33C,0.381000*%
G04 #@! TD*
G04 #@! TA.AperFunction,Conductor*
%ADD34C,1.524000*%
G04 #@! TD*
G04 #@! TA.AperFunction,Conductor*
%ADD35C,0.254000*%
G04 #@! TD*
G04 APERTURE END LIST*
D10*
G04 #@! TO.P,SHIELD1,AD5*
G04 #@! TO.N,SCL*
X31496000Y-119888000D03*
G04 #@! TO.P,SHIELD1,AD4*
G04 #@! TO.N,SDA*
X31496000Y-117348000D03*
G04 #@! TO.P,SHIELD1,AD3*
G04 #@! TO.N,WIFI_DATA_RECEIVE*
X31496000Y-114808000D03*
G04 #@! TO.P,SHIELD1,AD0*
G04 #@! TO.N,PH_VOUT*
X31496000Y-107188000D03*
G04 #@! TO.P,SHIELD1,AD1*
G04 #@! TO.N,TEMP_SENSE_IN*
X31496000Y-109728000D03*
G04 #@! TO.P,SHIELD1,AD2*
G04 #@! TO.N,WIFI_DATA_TRANSMIT*
X31496000Y-112268000D03*
G04 #@! TO.P,SHIELD1,V_IN*
G04 #@! TO.N,+12V*
X31496000Y-102108000D03*
G04 #@! TO.P,SHIELD1,GND2*
G04 #@! TO.N,GND*
X31496000Y-99568000D03*
G04 #@! TO.P,SHIELD1,GND1*
X31496000Y-97028000D03*
G04 #@! TO.P,SHIELD1,3V3*
G04 #@! TO.N,N/C*
X31496000Y-91948000D03*
G04 #@! TO.P,SHIELD1,RST*
X31496000Y-89408000D03*
G04 #@! TO.P,SHIELD1,0*
G04 #@! TO.N,Net-(R1-Pad2)*
X79756000Y-119888000D03*
G04 #@! TO.P,SHIELD1,1*
G04 #@! TO.N,Net-(R2-Pad2)*
X79756000Y-117348000D03*
G04 #@! TO.P,SHIELD1,2*
G04 #@! TO.N,N/C*
X79756000Y-114808000D03*
G04 #@! TO.P,SHIELD1,3*
G04 #@! TO.N,ENCODER_A*
X79756000Y-112268000D03*
G04 #@! TO.P,SHIELD1,4*
G04 #@! TO.N,ENCODER_B*
X79756000Y-109728000D03*
G04 #@! TO.P,SHIELD1,5*
G04 #@! TO.N,ENCODER_SW*
X79756000Y-107188000D03*
G04 #@! TO.P,SHIELD1,6*
G04 #@! TO.N,N/C*
X79756000Y-104648000D03*
G04 #@! TO.P,SHIELD1,7*
G04 #@! TO.N,FLOAT_SWITCH_IN*
X79756000Y-102108000D03*
G04 #@! TO.P,SHIELD1,8*
G04 #@! TO.N,TOPUP_PUMP*
X79756000Y-98044000D03*
G04 #@! TO.P,SHIELD1,9*
G04 #@! TO.N,LED_STRIP_OUT*
X79756000Y-95504000D03*
G04 #@! TO.P,SHIELD1,10*
G04 #@! TO.N,DOSING_PUMP_1*
X79756000Y-92964000D03*
G04 #@! TO.P,SHIELD1,11*
G04 #@! TO.N,DOSING_PUMP_2*
X79756000Y-90424000D03*
G04 #@! TO.P,SHIELD1,12*
G04 #@! TO.N,MAIN_PUMP*
X79756000Y-87884000D03*
G04 #@! TO.P,SHIELD1,13*
G04 #@! TO.N,DISPLAY_RESET*
X79756000Y-85344000D03*
G04 #@! TO.P,SHIELD1,GND3*
G04 #@! TO.N,GND*
X79756000Y-82804000D03*
G04 #@! TO.P,SHIELD1,AREF*
G04 #@! TO.N,N/C*
X79756000Y-80264000D03*
G04 #@! TO.P,SHIELD1,5V*
X31496000Y-94488000D03*
G04 #@! TO.P,SHIELD1,SDA*
G04 #@! TO.N,SDA*
X79756000Y-77724000D03*
G04 #@! TO.P,SHIELD1,SCL*
G04 #@! TO.N,SCL*
X79756000Y-75184000D03*
G04 #@! TO.P,SHIELD1,IORE*
G04 #@! TO.N,N/C*
X31496000Y-86868000D03*
G04 #@! TD*
D11*
G04 #@! TO.P,J3,~*
G04 #@! TO.N,N/C*
X51943000Y-51943000D03*
X39243000Y-51943000D03*
D12*
G04 #@! TO.P,J3,7*
G04 #@! TO.N,SCL*
X48133000Y-54483000D03*
G04 #@! TO.P,J3,5*
G04 #@! TO.N,DISPLAY_RESET*
X46101000Y-54483000D03*
G04 #@! TO.P,J3,3*
G04 #@! TO.N,GND*
X44069000Y-54483000D03*
G04 #@! TO.P,J3,1*
G04 #@! TO.N,+5V*
X42037000Y-54483000D03*
G04 #@! TO.P,J3,8*
G04 #@! TO.N,SDA*
X49149000Y-56261000D03*
G04 #@! TO.P,J3,6*
G04 #@! TO.N,ENCODER_SW*
X47117000Y-56261000D03*
G04 #@! TO.P,J3,4*
G04 #@! TO.N,ENCODER_B*
X45085000Y-56261000D03*
G04 #@! TO.P,J3,2*
G04 #@! TO.N,ENCODER_A*
X43053000Y-56261000D03*
G04 #@! TD*
D13*
G04 #@! TO.P,P9,1*
G04 #@! TO.N,Net-(JP1-Pad1)*
X26822400Y-59946200D03*
D14*
G04 #@! TO.P,P9,2*
G04 #@! TO.N,Vguard*
X30622400Y-52146200D03*
G04 #@! TO.P,P9,3*
X23022400Y-52146200D03*
G04 #@! TD*
D15*
G04 #@! TO.P,REF1,2*
G04 #@! TO.N,Net-(C1-Pad1)*
X41402000Y-65278000D03*
G04 #@! TO.P,REF1,3*
G04 #@! TO.N,GND*
X38862000Y-65278000D03*
D16*
G04 #@! TO.P,REF1,1*
G04 #@! TO.N,N/C*
X43942000Y-65278000D03*
G04 #@! TD*
D17*
G04 #@! TO.P,U1,1*
G04 #@! TO.N,Vguard*
X34366200Y-71374000D03*
G04 #@! TO.P,U1,2*
X34366200Y-68834000D03*
G04 #@! TO.P,U1,3*
G04 #@! TO.N,Net-(C18-Pad1)*
X34366200Y-66294000D03*
G04 #@! TO.P,U1,4*
G04 #@! TO.N,GND*
X34366200Y-63754000D03*
G04 #@! TO.P,U1,5*
G04 #@! TO.N,Net-(JP1-Pad1)*
X26746200Y-63754000D03*
G04 #@! TO.P,U1,6*
G04 #@! TO.N,Net-(R12-Pad1)*
X26746200Y-66294000D03*
G04 #@! TO.P,U1,7*
G04 #@! TO.N,Net-(R12-Pad2)*
X26746200Y-68834000D03*
G04 #@! TO.P,U1,8*
G04 #@! TO.N,+5V*
X26746200Y-71374000D03*
G04 #@! TD*
D18*
G04 #@! TO.P,CON1,1*
G04 #@! TO.N,+12V*
X86868000Y-60609480D03*
G04 #@! TO.P,CON1,2*
G04 #@! TO.N,GND*
X86868000Y-54610000D03*
G04 #@! TO.P,CON1,3*
X82169000Y-57609740D03*
G04 #@! TD*
D19*
G04 #@! TO.P,J1,1*
G04 #@! TO.N,+12V*
X157033000Y-54737000D03*
G04 #@! TO.P,J1,2*
X152033000Y-54737000D03*
G04 #@! TO.P,J1,3*
G04 #@! TO.N,/LEDDRV*
X147033000Y-54737000D03*
G04 #@! TO.P,J1,4*
X142033000Y-54737000D03*
G04 #@! TO.P,J1,5*
G04 #@! TO.N,/TPDRV*
X137033000Y-54737000D03*
G04 #@! TO.P,J1,6*
G04 #@! TO.N,+12V*
X132033000Y-54737000D03*
G04 #@! TD*
G04 #@! TO.P,J2,1*
G04 #@! TO.N,+12V*
X125330000Y-54735000D03*
G04 #@! TO.P,J2,2*
G04 #@! TO.N,/D1DRV*
X120330000Y-54735000D03*
G04 #@! TO.P,J2,3*
G04 #@! TO.N,+12V*
X115330000Y-54735000D03*
G04 #@! TO.P,J2,4*
G04 #@! TO.N,/D2DRV*
X110330000Y-54735000D03*
G04 #@! TO.P,J2,5*
G04 #@! TO.N,+12V*
X105330000Y-54735000D03*
G04 #@! TO.P,J2,6*
G04 #@! TO.N,/MPDRV*
X100330000Y-54735000D03*
G04 #@! TD*
D20*
G04 #@! TO.P,C3,2*
G04 #@! TO.N,GND*
X120142000Y-83058000D03*
D21*
G04 #@! TO.P,C3,1*
G04 #@! TO.N,+12V*
X120142000Y-85558000D03*
G04 #@! TD*
D20*
G04 #@! TO.P,C4,2*
G04 #@! TO.N,GND*
X104902000Y-83058000D03*
D21*
G04 #@! TO.P,C4,1*
G04 #@! TO.N,+12V*
X104902000Y-85558000D03*
G04 #@! TD*
D20*
G04 #@! TO.P,C5,2*
G04 #@! TO.N,GND*
X90170000Y-83058000D03*
D21*
G04 #@! TO.P,C5,1*
G04 #@! TO.N,+12V*
X90170000Y-85558000D03*
G04 #@! TD*
D22*
G04 #@! TO.P,Q5,2*
G04 #@! TO.N,/LEDDRV*
X153416000Y-94742000D03*
G04 #@! TO.P,Q5,1*
G04 #@! TO.N,LED_STRIP_OUT*
X155956000Y-94742000D03*
G04 #@! TO.P,Q5,3*
G04 #@! TO.N,GND*
X150876000Y-94742000D03*
G04 #@! TD*
G04 #@! TO.P,Q6,2*
G04 #@! TO.N,/D1DRV*
X122936000Y-94742000D03*
G04 #@! TO.P,Q6,1*
G04 #@! TO.N,DOSING_PUMP_1*
X125476000Y-94742000D03*
G04 #@! TO.P,Q6,3*
G04 #@! TO.N,GND*
X120396000Y-94742000D03*
G04 #@! TD*
G04 #@! TO.P,Q7,2*
G04 #@! TO.N,/D2DRV*
X107696000Y-94742000D03*
G04 #@! TO.P,Q7,1*
G04 #@! TO.N,DOSING_PUMP_2*
X110236000Y-94742000D03*
G04 #@! TO.P,Q7,3*
G04 #@! TO.N,GND*
X105156000Y-94742000D03*
G04 #@! TD*
G04 #@! TO.P,Q8,2*
G04 #@! TO.N,/MPDRV*
X92456000Y-94742000D03*
G04 #@! TO.P,Q8,1*
G04 #@! TO.N,MAIN_PUMP*
X94996000Y-94742000D03*
G04 #@! TO.P,Q8,3*
G04 #@! TO.N,GND*
X89916000Y-94742000D03*
G04 #@! TD*
D20*
G04 #@! TO.P,C6,2*
G04 #@! TO.N,GND*
X135636000Y-83058000D03*
D21*
G04 #@! TO.P,C6,1*
G04 #@! TO.N,+12V*
X135636000Y-85558000D03*
G04 #@! TD*
D22*
G04 #@! TO.P,Q9,2*
G04 #@! TO.N,/TPDRV*
X138176000Y-94742000D03*
G04 #@! TO.P,Q9,1*
G04 #@! TO.N,TOPUP_PUMP*
X140716000Y-94742000D03*
G04 #@! TO.P,Q9,3*
G04 #@! TO.N,GND*
X135636000Y-94742000D03*
G04 #@! TD*
D23*
G04 #@! TO.P,Y1,1*
G04 #@! TO.N,Net-(C7-Pad1)*
X59588400Y-87477600D03*
G04 #@! TO.P,Y1,2*
G04 #@! TO.N,Net-(U2-Pad2)*
X61087000Y-87477600D03*
G04 #@! TD*
D24*
G04 #@! TO.P,JP1,1*
G04 #@! TO.N,Net-(JP1-Pad1)*
X23622000Y-62738000D03*
D25*
G04 #@! TO.P,JP1,2*
G04 #@! TO.N,Vguard*
X23622000Y-60198000D03*
G04 #@! TD*
D26*
G04 #@! TO.P,BAT1,1*
G04 #@! TO.N,GND*
X115316000Y-104648000D03*
D27*
G04 #@! TD*
G04 #@! TO.N,GND*
G04 #@! TO.C,BAT1*
G36*
X115316000Y-103113578D02*
X116850422Y-104648000D01*
X115316000Y-106182422D01*
X113781578Y-104648000D01*
X115316000Y-103113578D01*
X115316000Y-103113578D01*
G37*
D28*
G04 #@! TO.P,BAT1,2*
G04 #@! TO.N,BATT_BACKUP*
X101173864Y-118790136D03*
G04 #@! TD*
D29*
G04 #@! TO.P,U5,3v3*
G04 #@! TO.N,N/C*
X67183000Y-124206000D03*
G04 #@! TO.P,U5,EN*
X67183000Y-121666000D03*
G04 #@! TO.P,U5,VP*
X67183000Y-119126000D03*
G04 #@! TO.P,U5,VN*
X67183000Y-116586000D03*
G04 #@! TO.P,U5,34*
X67183000Y-114046000D03*
G04 #@! TO.P,U5,35*
X67183000Y-111506000D03*
G04 #@! TO.P,U5,32*
X67183000Y-108966000D03*
G04 #@! TO.P,U5,33*
X67183000Y-106426000D03*
G04 #@! TO.P,U5,25*
X67183000Y-103886000D03*
G04 #@! TO.P,U5,26*
X67183000Y-101346000D03*
G04 #@! TO.P,U5,27*
X67183000Y-98806000D03*
G04 #@! TO.P,U5,14*
X67183000Y-96266000D03*
G04 #@! TO.P,U5,12*
X67183000Y-93726000D03*
G04 #@! TO.P,U5,GND1*
G04 #@! TO.N,GND*
X67183000Y-91186000D03*
G04 #@! TO.P,U5,13*
G04 #@! TO.N,N/C*
X67183000Y-88646000D03*
G04 #@! TO.P,U5,D2*
X67183000Y-86106000D03*
G04 #@! TO.P,U5,CMD*
X67183000Y-81026000D03*
G04 #@! TO.P,U5,D3*
X67183000Y-83566000D03*
G04 #@! TO.P,U5,5V*
G04 #@! TO.N,+5V*
X67183000Y-78486000D03*
G04 #@! TO.P,U5,18*
G04 #@! TO.N,N/C*
X41783000Y-103886000D03*
G04 #@! TO.P,U5,17*
G04 #@! TO.N,Net-(D14-Pad2)*
X41783000Y-98806000D03*
G04 #@! TO.P,U5,19*
G04 #@! TO.N,N/C*
X41783000Y-106426000D03*
G04 #@! TO.P,U5,4*
X41783000Y-93726000D03*
G04 #@! TO.P,U5,5*
X41783000Y-101346000D03*
G04 #@! TO.P,U5,16*
G04 #@! TO.N,Net-(R10-Pad2)*
X41783000Y-96266000D03*
G04 #@! TO.P,U5,2*
G04 #@! TO.N,N/C*
X41783000Y-88646000D03*
G04 #@! TO.P,U5,D0*
X41783000Y-81026000D03*
G04 #@! TO.P,U5,0*
X41783000Y-91186000D03*
G04 #@! TO.P,U5,15*
X41783000Y-86106000D03*
G04 #@! TO.P,U5,CLK*
X41783000Y-78486000D03*
G04 #@! TO.P,U5,D1*
X41783000Y-83566000D03*
G04 #@! TO.P,U5,TX*
X41783000Y-116586000D03*
G04 #@! TO.P,U5,RX*
X41783000Y-114046000D03*
G04 #@! TO.P,U5,22*
X41783000Y-119126000D03*
G04 #@! TO.P,U5,23*
X41783000Y-121666000D03*
G04 #@! TO.P,U5,GND3*
G04 #@! TO.N,GND*
X41783000Y-124206000D03*
G04 #@! TO.P,U5,GND2*
X41783000Y-108966000D03*
G04 #@! TO.P,U5,21*
G04 #@! TO.N,N/C*
X41783000Y-111506000D03*
G04 #@! TD*
D30*
G04 #@! TO.N,GND*
X74168000Y-86106000D03*
X35052000Y-96012000D03*
X39370000Y-106553000D03*
X55397400Y-88138000D03*
X59029600Y-83794600D03*
X57658000Y-107950000D03*
X64541400Y-112318800D03*
X95656400Y-67183000D03*
X86639400Y-77089000D03*
X94843600Y-71653400D03*
X91668600Y-73914000D03*
X81229200Y-64922400D03*
X83210400Y-62865000D03*
X22555200Y-70383400D03*
X37084000Y-73558400D03*
X41148000Y-72542400D03*
X32461200Y-78765400D03*
X73685400Y-69494400D03*
G04 #@! TO.N,+5V*
X47447200Y-68630800D03*
X50723800Y-69697600D03*
X71882000Y-73914000D03*
X32893000Y-75412600D03*
X71323200Y-65278000D03*
X71323200Y-62661800D03*
G04 #@! TO.N,FLOAT_SWITCH_IN*
X73126600Y-81965800D03*
X72694800Y-76327000D03*
X74015600Y-100177600D03*
X62458600Y-65735200D03*
X62890400Y-62788800D03*
G04 #@! TO.N,TEMP_SENSE_IN*
X63677800Y-65201800D03*
X64262000Y-62738000D03*
G04 #@! TO.N,+3V3*
X74676000Y-73660000D03*
X65405000Y-83896200D03*
X40055800Y-109880400D03*
X45694600Y-110236000D03*
X46177200Y-101981000D03*
X49784000Y-101879400D03*
G04 #@! TO.N,LED_STRIP_OUT*
X83791410Y-94567277D03*
G04 #@! TO.N,DOSING_PUMP_1*
X84289340Y-93603342D03*
G04 #@! TO.N,DOSING_PUMP_2*
X84308330Y-92641517D03*
G04 #@! TO.N,MAIN_PUMP*
X84407218Y-91684601D03*
G04 #@! TO.N,TOPUP_PUMP*
X84751977Y-94514583D03*
G04 #@! TO.N,WIFI_DATA_RECEIVE*
X62484000Y-120396000D03*
X58166000Y-120396000D03*
X39116000Y-117856000D03*
G04 #@! TO.N,WIFI_DATA_TRANSMIT*
X58216800Y-119100600D03*
X62458600Y-119100600D03*
X39979601Y-116814601D03*
G04 #@! TO.N,SCL*
X69488666Y-82335840D03*
X55575200Y-65608200D03*
X52677165Y-62678698D03*
G04 #@! TO.N,ENCODER_SW*
X53211540Y-67108262D03*
X51128059Y-65033576D03*
G04 #@! TO.N,ENCODER_A*
X51866800Y-68580000D03*
X49740254Y-66364796D03*
G04 #@! TO.N,ENCODER_B*
X52552258Y-67808844D03*
X50413048Y-65677180D03*
G04 #@! TO.N,SDA*
X69529795Y-81203617D03*
X54584600Y-65760600D03*
X51971460Y-63361078D03*
G04 #@! TO.N,DISPLAY_RESET*
X53891266Y-66427499D03*
X51765200Y-64312800D03*
G04 #@! TD*
D31*
G04 #@! TO.N,+5V*
X50723800Y-69697600D02*
X48514000Y-69697600D01*
X48514000Y-69697600D02*
X47447200Y-68630800D01*
D32*
X67310000Y-78486000D02*
X71882000Y-73914000D01*
X67183000Y-78486000D02*
X67310000Y-78486000D01*
D33*
X26746200Y-71374000D02*
X26746200Y-73710800D01*
X28448000Y-75412600D02*
X32893000Y-75412600D01*
X26746200Y-73710800D02*
X28448000Y-75412600D01*
X71323200Y-65278000D02*
X71323200Y-62661800D01*
D34*
G04 #@! TO.N,+12V*
X90170000Y-85558000D02*
X90170000Y-87732000D01*
X90170000Y-87732000D02*
X87376000Y-90526000D01*
X87376000Y-90526000D02*
X87376000Y-98628793D01*
X87376000Y-98628793D02*
X89331207Y-100584000D01*
X89331207Y-100584000D02*
X103124000Y-100584000D01*
X120142000Y-85558000D02*
X120142000Y-87732000D01*
X120142000Y-87732000D02*
X118304945Y-89569055D01*
X118304945Y-89569055D02*
X118304945Y-100270945D01*
X118304945Y-100270945D02*
X118618000Y-100584000D01*
X103124000Y-100584000D02*
X118618000Y-100584000D01*
X104902000Y-85558000D02*
X104902000Y-87732000D01*
X104902000Y-87732000D02*
X103124000Y-89510000D01*
X103124000Y-89510000D02*
X103124000Y-100584000D01*
X118618000Y-100584000D02*
X132398856Y-100584000D01*
X132398856Y-100584000D02*
X133632855Y-99350001D01*
X133632855Y-99350001D02*
X133632855Y-89735145D01*
X133632855Y-89735145D02*
X135636000Y-87732000D01*
X135636000Y-87732000D02*
X135636000Y-85558000D01*
D33*
G04 #@! TO.N,FLOAT_SWITCH_IN*
X79756000Y-102108000D02*
X75946000Y-102108000D01*
X75946000Y-102108000D02*
X74015600Y-100177600D01*
X69945522Y-83210400D02*
X71190122Y-81965800D01*
X69113400Y-83210400D02*
X69945522Y-83210400D01*
X71190122Y-81965800D02*
X73126600Y-81965800D01*
X72694800Y-76327000D02*
X72694800Y-76865815D01*
X68580000Y-80980615D02*
X68580000Y-82677000D01*
X72694800Y-76865815D02*
X68580000Y-80980615D01*
X68580000Y-82677000D02*
X69113400Y-83210400D01*
X62458600Y-63220600D02*
X62890400Y-62788800D01*
X62458600Y-65735200D02*
X62458600Y-63220600D01*
G04 #@! TO.N,TEMP_SENSE_IN*
X63677800Y-63322200D02*
X64262000Y-62738000D01*
X63677800Y-65201800D02*
X63677800Y-63322200D01*
G04 #@! TO.N,+3V3*
X74295001Y-74040999D02*
X73888601Y-74040999D01*
X74676000Y-73660000D02*
X74295001Y-74040999D01*
X73888601Y-74040999D02*
X68148200Y-79781400D01*
X68148200Y-79781400D02*
X66395600Y-79781400D01*
X65405000Y-80772000D02*
X65405000Y-83896200D01*
X66395600Y-79781400D02*
X65405000Y-80772000D01*
X40436799Y-110261399D02*
X45669201Y-110261399D01*
X40055800Y-109880400D02*
X40436799Y-110261399D01*
X45669201Y-110261399D02*
X45694600Y-110236000D01*
X49682400Y-101981000D02*
X49784000Y-101879400D01*
X46177200Y-101981000D02*
X49682400Y-101981000D01*
G04 #@! TO.N,LED_STRIP_OUT*
X83410411Y-94948276D02*
X83791410Y-94567277D01*
X82854687Y-95504000D02*
X83410411Y-94948276D01*
X79756000Y-95504000D02*
X82854687Y-95504000D01*
G04 #@! TO.N,DOSING_PUMP_1*
X81407000Y-92964000D02*
X82046342Y-93603342D01*
X82046342Y-93603342D02*
X83750525Y-93603342D01*
X83750525Y-93603342D02*
X84289340Y-93603342D01*
X79756000Y-92964000D02*
X81407000Y-92964000D01*
G04 #@! TO.N,DOSING_PUMP_2*
X82481517Y-92641517D02*
X83769515Y-92641517D01*
X80264000Y-90424000D02*
X82481517Y-92641517D01*
X79756000Y-90424000D02*
X80264000Y-90424000D01*
X83769515Y-92641517D02*
X84308330Y-92641517D01*
G04 #@! TO.N,MAIN_PUMP*
X79756000Y-87884000D02*
X79756000Y-88088536D01*
X79756000Y-88088536D02*
X83352065Y-91684601D01*
X83352065Y-91684601D02*
X84407218Y-91684601D01*
G04 #@! TO.N,TOPUP_PUMP*
X81407000Y-98044000D02*
X84751977Y-94699023D01*
X84751977Y-94699023D02*
X84751977Y-94514583D01*
X79756000Y-98044000D02*
X81407000Y-98044000D01*
G04 #@! TO.N,WIFI_DATA_RECEIVE*
X62484000Y-120396000D02*
X58166000Y-120396000D01*
X33147000Y-114808000D02*
X36195000Y-117856000D01*
X31496000Y-114808000D02*
X33147000Y-114808000D01*
X36195000Y-117856000D02*
X39116000Y-117856000D01*
G04 #@! TO.N,WIFI_DATA_TRANSMIT*
X32004000Y-112268000D02*
X31496000Y-112268000D01*
X58216800Y-119100600D02*
X62458600Y-119100600D01*
X31496000Y-112268000D02*
X35433000Y-112268000D01*
X39598602Y-116433602D02*
X39979601Y-116814601D01*
X35433000Y-112268000D02*
X39598602Y-116433602D01*
G04 #@! TO.N,SCL*
X80924400Y-79019400D02*
X81416510Y-78527290D01*
X81416510Y-76336510D02*
X80264000Y-75184000D01*
X77901800Y-79019400D02*
X80924400Y-79019400D01*
X69488666Y-82335840D02*
X73428713Y-78395793D01*
X73428713Y-78395793D02*
X77278193Y-78395793D01*
X77278193Y-78395793D02*
X77901800Y-79019400D01*
X81416510Y-78527290D02*
X81416510Y-76336510D01*
X80264000Y-75184000D02*
X79756000Y-75184000D01*
X52677165Y-62678698D02*
X55575200Y-65576733D01*
X55575200Y-65576733D02*
X55575200Y-65608200D01*
G04 #@! TO.N,ENCODER_SW*
X53202745Y-67108262D02*
X53211540Y-67108262D01*
X51128059Y-65033576D02*
X53202745Y-67108262D01*
G04 #@! TO.N,ENCODER_A*
X51866800Y-68580000D02*
X49740254Y-66453454D01*
X49740254Y-66453454D02*
X49740254Y-66364796D01*
G04 #@! TO.N,ENCODER_B*
X50413048Y-65677180D02*
X52544712Y-67808844D01*
X52544712Y-67808844D02*
X52552258Y-67808844D01*
G04 #@! TO.N,SDA*
X69910794Y-80822618D02*
X69529795Y-81203617D01*
X73009412Y-77724000D02*
X69910794Y-80822618D01*
X79756000Y-77724000D02*
X73009412Y-77724000D01*
X79756000Y-77724000D02*
X78280353Y-77724000D01*
X52185078Y-63361078D02*
X54584600Y-65760600D01*
X51971460Y-63361078D02*
X52185078Y-63361078D01*
G04 #@! TO.N,DISPLAY_RESET*
X53879899Y-66427499D02*
X53891266Y-66427499D01*
X51765200Y-64312800D02*
X53879899Y-66427499D01*
G04 #@! TD*
D35*
G04 #@! TO.N,Vguard*
G36*
X29144549Y-50847957D02*
X28830976Y-51001635D01*
X28529334Y-51774308D01*
X28546342Y-52603598D01*
X28830976Y-53290765D01*
X29144551Y-53444444D01*
X30442795Y-52146200D01*
X30428653Y-52132058D01*
X30608258Y-51952453D01*
X30622400Y-51966595D01*
X30636543Y-51952453D01*
X30816148Y-52132058D01*
X30802005Y-52146200D01*
X32100249Y-53444444D01*
X32385000Y-53304891D01*
X32385000Y-65278000D01*
X32394667Y-65326601D01*
X32422197Y-65367803D01*
X32976968Y-65922574D01*
X32903087Y-66294000D01*
X33014460Y-66853909D01*
X33331623Y-67328577D01*
X33715308Y-67584947D01*
X33511066Y-67681611D01*
X33135159Y-68096577D01*
X32974296Y-68484961D01*
X33096285Y-68707000D01*
X34239200Y-68707000D01*
X34239200Y-68687000D01*
X34493200Y-68687000D01*
X34493200Y-68707000D01*
X34513200Y-68707000D01*
X34513200Y-68961000D01*
X34493200Y-68961000D01*
X34493200Y-71247000D01*
X34513200Y-71247000D01*
X34513200Y-71501000D01*
X34493200Y-71501000D01*
X34493200Y-71521000D01*
X34239200Y-71521000D01*
X34239200Y-71501000D01*
X34219200Y-71501000D01*
X34219200Y-71247000D01*
X34239200Y-71247000D01*
X34239200Y-68961000D01*
X33096285Y-68961000D01*
X33042856Y-69058250D01*
X29045803Y-65061197D01*
X29004601Y-65033667D01*
X28956000Y-65024000D01*
X27428442Y-65024000D01*
X27780777Y-64788577D01*
X28097940Y-64313909D01*
X28209313Y-63754000D01*
X28097940Y-63194091D01*
X27780777Y-62719423D01*
X27306109Y-62402260D01*
X26887533Y-62319000D01*
X26604867Y-62319000D01*
X26186291Y-62402260D01*
X25711623Y-62719423D01*
X25394460Y-63194091D01*
X25285440Y-63742171D01*
X25285440Y-61722000D01*
X25236157Y-61474235D01*
X25095809Y-61264191D01*
X24938887Y-61159338D01*
X25028385Y-61062818D01*
X25227975Y-60580944D01*
X25108836Y-60325000D01*
X23749000Y-60325000D01*
X23749000Y-60345000D01*
X23495000Y-60345000D01*
X23495000Y-60325000D01*
X22135164Y-60325000D01*
X22016025Y-60580944D01*
X22215615Y-61062818D01*
X22305113Y-61159338D01*
X22148191Y-61264191D01*
X22007843Y-61474235D01*
X21958560Y-61722000D01*
X21958560Y-63754000D01*
X22007843Y-64001765D01*
X22148191Y-64211809D01*
X22358235Y-64352157D01*
X22606000Y-64401440D01*
X24638000Y-64401440D01*
X24885765Y-64352157D01*
X25095809Y-64211809D01*
X25236157Y-64001765D01*
X25284264Y-63759915D01*
X25394460Y-64313909D01*
X25711623Y-64788577D01*
X26063958Y-65024000D01*
X21792000Y-65024000D01*
X21792000Y-59815056D01*
X22016025Y-59815056D01*
X22135164Y-60071000D01*
X23495000Y-60071000D01*
X23495000Y-58710633D01*
X23749000Y-58710633D01*
X23749000Y-60071000D01*
X25108836Y-60071000D01*
X25227975Y-59815056D01*
X25157888Y-59645842D01*
X25312400Y-59645842D01*
X25312400Y-60246558D01*
X25542284Y-60801546D01*
X25967054Y-61226316D01*
X26522042Y-61456200D01*
X27122758Y-61456200D01*
X27677746Y-61226316D01*
X28102516Y-60801546D01*
X28332400Y-60246558D01*
X28332400Y-59645842D01*
X28102516Y-59090854D01*
X27677746Y-58666084D01*
X27122758Y-58436200D01*
X26522042Y-58436200D01*
X25967054Y-58666084D01*
X25542284Y-59090854D01*
X25312400Y-59645842D01*
X25157888Y-59645842D01*
X25028385Y-59333182D01*
X24590379Y-58860812D01*
X24004946Y-58592017D01*
X23749000Y-58710633D01*
X23495000Y-58710633D01*
X23239054Y-58592017D01*
X22653621Y-58860812D01*
X22215615Y-59333182D01*
X22016025Y-59815056D01*
X21792000Y-59815056D01*
X21792000Y-53762482D01*
X21877835Y-53937624D01*
X22650508Y-54239266D01*
X23479798Y-54222258D01*
X24166965Y-53937624D01*
X24320644Y-53624049D01*
X29324156Y-53624049D01*
X29477835Y-53937624D01*
X30250508Y-54239266D01*
X31079798Y-54222258D01*
X31766965Y-53937624D01*
X31920644Y-53624049D01*
X30622400Y-52325805D01*
X29324156Y-53624049D01*
X24320644Y-53624049D01*
X23022400Y-52325805D01*
X23008258Y-52339948D01*
X22828653Y-52160343D01*
X22842795Y-52146200D01*
X22828653Y-52132058D01*
X23008258Y-51952453D01*
X23022400Y-51966595D01*
X23036543Y-51952453D01*
X23216148Y-52132058D01*
X23202005Y-52146200D01*
X24500249Y-53444444D01*
X24813824Y-53290765D01*
X25115466Y-52518092D01*
X25098458Y-51688802D01*
X24813824Y-51001635D01*
X24500251Y-50847957D01*
X24600208Y-50748000D01*
X29044592Y-50748000D01*
X29144549Y-50847957D01*
X29144549Y-50847957D01*
G37*
X29144549Y-50847957D02*
X28830976Y-51001635D01*
X28529334Y-51774308D01*
X28546342Y-52603598D01*
X28830976Y-53290765D01*
X29144551Y-53444444D01*
X30442795Y-52146200D01*
X30428653Y-52132058D01*
X30608258Y-51952453D01*
X30622400Y-51966595D01*
X30636543Y-51952453D01*
X30816148Y-52132058D01*
X30802005Y-52146200D01*
X32100249Y-53444444D01*
X32385000Y-53304891D01*
X32385000Y-65278000D01*
X32394667Y-65326601D01*
X32422197Y-65367803D01*
X32976968Y-65922574D01*
X32903087Y-66294000D01*
X33014460Y-66853909D01*
X33331623Y-67328577D01*
X33715308Y-67584947D01*
X33511066Y-67681611D01*
X33135159Y-68096577D01*
X32974296Y-68484961D01*
X33096285Y-68707000D01*
X34239200Y-68707000D01*
X34239200Y-68687000D01*
X34493200Y-68687000D01*
X34493200Y-68707000D01*
X34513200Y-68707000D01*
X34513200Y-68961000D01*
X34493200Y-68961000D01*
X34493200Y-71247000D01*
X34513200Y-71247000D01*
X34513200Y-71501000D01*
X34493200Y-71501000D01*
X34493200Y-71521000D01*
X34239200Y-71521000D01*
X34239200Y-71501000D01*
X34219200Y-71501000D01*
X34219200Y-71247000D01*
X34239200Y-71247000D01*
X34239200Y-68961000D01*
X33096285Y-68961000D01*
X33042856Y-69058250D01*
X29045803Y-65061197D01*
X29004601Y-65033667D01*
X28956000Y-65024000D01*
X27428442Y-65024000D01*
X27780777Y-64788577D01*
X28097940Y-64313909D01*
X28209313Y-63754000D01*
X28097940Y-63194091D01*
X27780777Y-62719423D01*
X27306109Y-62402260D01*
X26887533Y-62319000D01*
X26604867Y-62319000D01*
X26186291Y-62402260D01*
X25711623Y-62719423D01*
X25394460Y-63194091D01*
X25285440Y-63742171D01*
X25285440Y-61722000D01*
X25236157Y-61474235D01*
X25095809Y-61264191D01*
X24938887Y-61159338D01*
X25028385Y-61062818D01*
X25227975Y-60580944D01*
X25108836Y-60325000D01*
X23749000Y-60325000D01*
X23749000Y-60345000D01*
X23495000Y-60345000D01*
X23495000Y-60325000D01*
X22135164Y-60325000D01*
X22016025Y-60580944D01*
X22215615Y-61062818D01*
X22305113Y-61159338D01*
X22148191Y-61264191D01*
X22007843Y-61474235D01*
X21958560Y-61722000D01*
X21958560Y-63754000D01*
X22007843Y-64001765D01*
X22148191Y-64211809D01*
X22358235Y-64352157D01*
X22606000Y-64401440D01*
X24638000Y-64401440D01*
X24885765Y-64352157D01*
X25095809Y-64211809D01*
X25236157Y-64001765D01*
X25284264Y-63759915D01*
X25394460Y-64313909D01*
X25711623Y-64788577D01*
X26063958Y-65024000D01*
X21792000Y-65024000D01*
X21792000Y-59815056D01*
X22016025Y-59815056D01*
X22135164Y-60071000D01*
X23495000Y-60071000D01*
X23495000Y-58710633D01*
X23749000Y-58710633D01*
X23749000Y-60071000D01*
X25108836Y-60071000D01*
X25227975Y-59815056D01*
X25157888Y-59645842D01*
X25312400Y-59645842D01*
X25312400Y-60246558D01*
X25542284Y-60801546D01*
X25967054Y-61226316D01*
X26522042Y-61456200D01*
X27122758Y-61456200D01*
X27677746Y-61226316D01*
X28102516Y-60801546D01*
X28332400Y-60246558D01*
X28332400Y-59645842D01*
X28102516Y-59090854D01*
X27677746Y-58666084D01*
X27122758Y-58436200D01*
X26522042Y-58436200D01*
X25967054Y-58666084D01*
X25542284Y-59090854D01*
X25312400Y-59645842D01*
X25157888Y-59645842D01*
X25028385Y-59333182D01*
X24590379Y-58860812D01*
X24004946Y-58592017D01*
X23749000Y-58710633D01*
X23495000Y-58710633D01*
X23239054Y-58592017D01*
X22653621Y-58860812D01*
X22215615Y-59333182D01*
X22016025Y-59815056D01*
X21792000Y-59815056D01*
X21792000Y-53762482D01*
X21877835Y-53937624D01*
X22650508Y-54239266D01*
X23479798Y-54222258D01*
X24166965Y-53937624D01*
X24320644Y-53624049D01*
X29324156Y-53624049D01*
X29477835Y-53937624D01*
X30250508Y-54239266D01*
X31079798Y-54222258D01*
X31766965Y-53937624D01*
X31920644Y-53624049D01*
X30622400Y-52325805D01*
X29324156Y-53624049D01*
X24320644Y-53624049D01*
X23022400Y-52325805D01*
X23008258Y-52339948D01*
X22828653Y-52160343D01*
X22842795Y-52146200D01*
X22828653Y-52132058D01*
X23008258Y-51952453D01*
X23022400Y-51966595D01*
X23036543Y-51952453D01*
X23216148Y-52132058D01*
X23202005Y-52146200D01*
X24500249Y-53444444D01*
X24813824Y-53290765D01*
X25115466Y-52518092D01*
X25098458Y-51688802D01*
X24813824Y-51001635D01*
X24500251Y-50847957D01*
X24600208Y-50748000D01*
X29044592Y-50748000D01*
X29144549Y-50847957D01*
G04 #@! TO.N,+12V*
G36*
X99325405Y-50763751D02*
X99145000Y-51199289D01*
X99145000Y-51670711D01*
X99325405Y-52106249D01*
X99658751Y-52439595D01*
X100094289Y-52620000D01*
X100565711Y-52620000D01*
X101001249Y-52439595D01*
X101334595Y-52106249D01*
X101515000Y-51670711D01*
X101515000Y-51199289D01*
X101334595Y-50763751D01*
X101318844Y-50748000D01*
X104341156Y-50748000D01*
X104325405Y-50763751D01*
X104145000Y-51199289D01*
X104145000Y-51670711D01*
X104325405Y-52106249D01*
X104658751Y-52439595D01*
X105094289Y-52620000D01*
X105565711Y-52620000D01*
X106001249Y-52439595D01*
X106334595Y-52106249D01*
X106515000Y-51670711D01*
X106515000Y-51199289D01*
X106334595Y-50763751D01*
X106318844Y-50748000D01*
X109341156Y-50748000D01*
X109325405Y-50763751D01*
X109145000Y-51199289D01*
X109145000Y-51670711D01*
X109325405Y-52106249D01*
X109658751Y-52439595D01*
X110094289Y-52620000D01*
X110565711Y-52620000D01*
X111001249Y-52439595D01*
X111334595Y-52106249D01*
X111515000Y-51670711D01*
X111515000Y-51199289D01*
X111334595Y-50763751D01*
X111318844Y-50748000D01*
X114341156Y-50748000D01*
X114325405Y-50763751D01*
X114145000Y-51199289D01*
X114145000Y-51670711D01*
X114325405Y-52106249D01*
X114658751Y-52439595D01*
X115094289Y-52620000D01*
X115565711Y-52620000D01*
X116001249Y-52439595D01*
X116334595Y-52106249D01*
X116515000Y-51670711D01*
X116515000Y-51199289D01*
X116334595Y-50763751D01*
X116318844Y-50748000D01*
X119341156Y-50748000D01*
X119325405Y-50763751D01*
X119145000Y-51199289D01*
X119145000Y-51670711D01*
X119325405Y-52106249D01*
X119658751Y-52439595D01*
X120094289Y-52620000D01*
X120565711Y-52620000D01*
X121001249Y-52439595D01*
X121334595Y-52106249D01*
X121515000Y-51670711D01*
X121515000Y-51199289D01*
X121334595Y-50763751D01*
X121318844Y-50748000D01*
X124341156Y-50748000D01*
X124325405Y-50763751D01*
X124145000Y-51199289D01*
X124145000Y-51670711D01*
X124325405Y-52106249D01*
X124658751Y-52439595D01*
X125094289Y-52620000D01*
X125565711Y-52620000D01*
X126001249Y-52439595D01*
X126334595Y-52106249D01*
X126515000Y-51670711D01*
X126515000Y-51199289D01*
X126334595Y-50763751D01*
X126318844Y-50748000D01*
X131046156Y-50748000D01*
X131028405Y-50765751D01*
X130848000Y-51201289D01*
X130848000Y-51672711D01*
X131028405Y-52108249D01*
X131361751Y-52441595D01*
X131797289Y-52622000D01*
X132268711Y-52622000D01*
X132704249Y-52441595D01*
X133037595Y-52108249D01*
X133218000Y-51672711D01*
X133218000Y-51201289D01*
X133037595Y-50765751D01*
X133019844Y-50748000D01*
X136046156Y-50748000D01*
X136028405Y-50765751D01*
X135848000Y-51201289D01*
X135848000Y-51672711D01*
X136028405Y-52108249D01*
X136361751Y-52441595D01*
X136797289Y-52622000D01*
X137268711Y-52622000D01*
X137704249Y-52441595D01*
X138037595Y-52108249D01*
X138218000Y-51672711D01*
X138218000Y-51201289D01*
X138037595Y-50765751D01*
X138019844Y-50748000D01*
X141046156Y-50748000D01*
X141028405Y-50765751D01*
X140848000Y-51201289D01*
X140848000Y-51672711D01*
X141028405Y-52108249D01*
X141361751Y-52441595D01*
X141797289Y-52622000D01*
X142268711Y-52622000D01*
X142704249Y-52441595D01*
X143037595Y-52108249D01*
X143218000Y-51672711D01*
X143218000Y-51201289D01*
X143037595Y-50765751D01*
X143019844Y-50748000D01*
X146046156Y-50748000D01*
X146028405Y-50765751D01*
X145848000Y-51201289D01*
X145848000Y-51672711D01*
X146028405Y-52108249D01*
X146361751Y-52441595D01*
X146797289Y-52622000D01*
X147268711Y-52622000D01*
X147704249Y-52441595D01*
X148037595Y-52108249D01*
X148218000Y-51672711D01*
X148218000Y-51201289D01*
X148037595Y-50765751D01*
X148019844Y-50748000D01*
X151046156Y-50748000D01*
X151028405Y-50765751D01*
X150848000Y-51201289D01*
X150848000Y-51672711D01*
X151028405Y-52108249D01*
X151361751Y-52441595D01*
X151797289Y-52622000D01*
X152268711Y-52622000D01*
X152704249Y-52441595D01*
X153037595Y-52108249D01*
X153218000Y-51672711D01*
X153218000Y-51201289D01*
X153037595Y-50765751D01*
X153019844Y-50748000D01*
X156046156Y-50748000D01*
X156028405Y-50765751D01*
X155848000Y-51201289D01*
X155848000Y-51672711D01*
X156028405Y-52108249D01*
X156361751Y-52441595D01*
X156797289Y-52622000D01*
X157268711Y-52622000D01*
X157704249Y-52441595D01*
X158037595Y-52108249D01*
X158218000Y-51672711D01*
X158218000Y-51201289D01*
X158037595Y-50765751D01*
X158019844Y-50748000D01*
X159893000Y-50748000D01*
X159893000Y-58801000D01*
X104267000Y-58801000D01*
X104218399Y-58810667D01*
X104177197Y-58838197D01*
X99769394Y-63246000D01*
X85344000Y-63246000D01*
X85344000Y-62994540D01*
X86582250Y-62994540D01*
X86741000Y-62835790D01*
X86741000Y-60736480D01*
X86995000Y-60736480D01*
X86995000Y-62835790D01*
X87153750Y-62994540D01*
X88744370Y-62994540D01*
X88977759Y-62897867D01*
X89156387Y-62719238D01*
X89253060Y-62485849D01*
X89253060Y-60895230D01*
X89094310Y-60736480D01*
X86995000Y-60736480D01*
X86741000Y-60736480D01*
X86721000Y-60736480D01*
X86721000Y-60482480D01*
X86741000Y-60482480D01*
X86741000Y-58383170D01*
X86995000Y-58383170D01*
X86995000Y-60482480D01*
X89094310Y-60482480D01*
X89253060Y-60323730D01*
X89253060Y-58733111D01*
X89156387Y-58499722D01*
X88977759Y-58321093D01*
X88744370Y-58224420D01*
X87153750Y-58224420D01*
X86995000Y-58383170D01*
X86741000Y-58383170D01*
X86582250Y-58224420D01*
X85344000Y-58224420D01*
X85344000Y-57912000D01*
X95631000Y-57912000D01*
X95679601Y-57902333D01*
X95720803Y-57874803D01*
X98006803Y-55588803D01*
X98034333Y-55547601D01*
X98044000Y-55499000D01*
X98044000Y-54399833D01*
X98645000Y-54399833D01*
X98645000Y-55070167D01*
X98901526Y-55689476D01*
X99375524Y-56163474D01*
X99994833Y-56420000D01*
X100665167Y-56420000D01*
X101284476Y-56163474D01*
X101524247Y-55923703D01*
X104320902Y-55923703D01*
X104425687Y-56195745D01*
X105053526Y-56430619D01*
X105723456Y-56407349D01*
X106234313Y-56195745D01*
X106339098Y-55923703D01*
X105330000Y-54914605D01*
X104320902Y-55923703D01*
X101524247Y-55923703D01*
X101758474Y-55689476D01*
X102015000Y-55070167D01*
X102015000Y-54458526D01*
X103634381Y-54458526D01*
X103657651Y-55128456D01*
X103869255Y-55639313D01*
X104141297Y-55744098D01*
X105150395Y-54735000D01*
X105509605Y-54735000D01*
X106518703Y-55744098D01*
X106790745Y-55639313D01*
X107025619Y-55011474D01*
X107004374Y-54399833D01*
X108645000Y-54399833D01*
X108645000Y-55070167D01*
X108901526Y-55689476D01*
X109375524Y-56163474D01*
X109994833Y-56420000D01*
X110665167Y-56420000D01*
X111284476Y-56163474D01*
X111524247Y-55923703D01*
X114320902Y-55923703D01*
X114425687Y-56195745D01*
X115053526Y-56430619D01*
X115723456Y-56407349D01*
X116234313Y-56195745D01*
X116339098Y-55923703D01*
X115330000Y-54914605D01*
X114320902Y-55923703D01*
X111524247Y-55923703D01*
X111758474Y-55689476D01*
X112015000Y-55070167D01*
X112015000Y-54458526D01*
X113634381Y-54458526D01*
X113657651Y-55128456D01*
X113869255Y-55639313D01*
X114141297Y-55744098D01*
X115150395Y-54735000D01*
X115509605Y-54735000D01*
X116518703Y-55744098D01*
X116790745Y-55639313D01*
X117025619Y-55011474D01*
X117004374Y-54399833D01*
X118645000Y-54399833D01*
X118645000Y-55070167D01*
X118901526Y-55689476D01*
X119375524Y-56163474D01*
X119994833Y-56420000D01*
X120665167Y-56420000D01*
X121284476Y-56163474D01*
X121524247Y-55923703D01*
X124320902Y-55923703D01*
X124425687Y-56195745D01*
X125053526Y-56430619D01*
X125723456Y-56407349D01*
X126234313Y-56195745D01*
X126338327Y-55925703D01*
X131023902Y-55925703D01*
X131128687Y-56197745D01*
X131756526Y-56432619D01*
X132426456Y-56409349D01*
X132937313Y-56197745D01*
X133042098Y-55925703D01*
X132033000Y-54916605D01*
X131023902Y-55925703D01*
X126338327Y-55925703D01*
X126339098Y-55923703D01*
X125330000Y-54914605D01*
X124320902Y-55923703D01*
X121524247Y-55923703D01*
X121758474Y-55689476D01*
X122015000Y-55070167D01*
X122015000Y-54458526D01*
X123634381Y-54458526D01*
X123657651Y-55128456D01*
X123869255Y-55639313D01*
X124141297Y-55744098D01*
X125150395Y-54735000D01*
X125509605Y-54735000D01*
X126518703Y-55744098D01*
X126790745Y-55639313D01*
X127025619Y-55011474D01*
X127006482Y-54460526D01*
X130337381Y-54460526D01*
X130360651Y-55130456D01*
X130572255Y-55641313D01*
X130844297Y-55746098D01*
X131853395Y-54737000D01*
X132212605Y-54737000D01*
X133221703Y-55746098D01*
X133493745Y-55641313D01*
X133728619Y-55013474D01*
X133707374Y-54401833D01*
X135348000Y-54401833D01*
X135348000Y-55072167D01*
X135604526Y-55691476D01*
X136078524Y-56165474D01*
X136697833Y-56422000D01*
X137368167Y-56422000D01*
X137987476Y-56165474D01*
X138461474Y-55691476D01*
X138718000Y-55072167D01*
X138718000Y-54401833D01*
X140348000Y-54401833D01*
X140348000Y-55072167D01*
X140604526Y-55691476D01*
X141078524Y-56165474D01*
X141697833Y-56422000D01*
X142368167Y-56422000D01*
X142987476Y-56165474D01*
X143461474Y-55691476D01*
X143718000Y-55072167D01*
X143718000Y-54401833D01*
X145348000Y-54401833D01*
X145348000Y-55072167D01*
X145604526Y-55691476D01*
X146078524Y-56165474D01*
X146697833Y-56422000D01*
X147368167Y-56422000D01*
X147987476Y-56165474D01*
X148227247Y-55925703D01*
X151023902Y-55925703D01*
X151128687Y-56197745D01*
X151756526Y-56432619D01*
X152426456Y-56409349D01*
X152937313Y-56197745D01*
X153042098Y-55925703D01*
X156023902Y-55925703D01*
X156128687Y-56197745D01*
X156756526Y-56432619D01*
X157426456Y-56409349D01*
X157937313Y-56197745D01*
X158042098Y-55925703D01*
X157033000Y-54916605D01*
X156023902Y-55925703D01*
X153042098Y-55925703D01*
X152033000Y-54916605D01*
X151023902Y-55925703D01*
X148227247Y-55925703D01*
X148461474Y-55691476D01*
X148718000Y-55072167D01*
X148718000Y-54460526D01*
X150337381Y-54460526D01*
X150360651Y-55130456D01*
X150572255Y-55641313D01*
X150844297Y-55746098D01*
X151853395Y-54737000D01*
X152212605Y-54737000D01*
X153221703Y-55746098D01*
X153493745Y-55641313D01*
X153728619Y-55013474D01*
X153709413Y-54460526D01*
X155337381Y-54460526D01*
X155360651Y-55130456D01*
X155572255Y-55641313D01*
X155844297Y-55746098D01*
X156853395Y-54737000D01*
X157212605Y-54737000D01*
X158221703Y-55746098D01*
X158493745Y-55641313D01*
X158728619Y-55013474D01*
X158705349Y-54343544D01*
X158493745Y-53832687D01*
X158221703Y-53727902D01*
X157212605Y-54737000D01*
X156853395Y-54737000D01*
X155844297Y-53727902D01*
X155572255Y-53832687D01*
X155337381Y-54460526D01*
X153709413Y-54460526D01*
X153705349Y-54343544D01*
X153493745Y-53832687D01*
X153221703Y-53727902D01*
X152212605Y-54737000D01*
X151853395Y-54737000D01*
X150844297Y-53727902D01*
X150572255Y-53832687D01*
X150337381Y-54460526D01*
X148718000Y-54460526D01*
X148718000Y-54401833D01*
X148461474Y-53782524D01*
X148227247Y-53548297D01*
X151023902Y-53548297D01*
X152033000Y-54557395D01*
X153042098Y-53548297D01*
X156023902Y-53548297D01*
X157033000Y-54557395D01*
X158042098Y-53548297D01*
X157937313Y-53276255D01*
X157309474Y-53041381D01*
X156639544Y-53064651D01*
X156128687Y-53276255D01*
X156023902Y-53548297D01*
X153042098Y-53548297D01*
X152937313Y-53276255D01*
X152309474Y-53041381D01*
X151639544Y-53064651D01*
X151128687Y-53276255D01*
X151023902Y-53548297D01*
X148227247Y-53548297D01*
X147987476Y-53308526D01*
X147368167Y-53052000D01*
X146697833Y-53052000D01*
X146078524Y-53308526D01*
X145604526Y-53782524D01*
X145348000Y-54401833D01*
X143718000Y-54401833D01*
X143461474Y-53782524D01*
X142987476Y-53308526D01*
X142368167Y-53052000D01*
X141697833Y-53052000D01*
X141078524Y-53308526D01*
X140604526Y-53782524D01*
X140348000Y-54401833D01*
X138718000Y-54401833D01*
X138461474Y-53782524D01*
X137987476Y-53308526D01*
X137368167Y-53052000D01*
X136697833Y-53052000D01*
X136078524Y-53308526D01*
X135604526Y-53782524D01*
X135348000Y-54401833D01*
X133707374Y-54401833D01*
X133705349Y-54343544D01*
X133493745Y-53832687D01*
X133221703Y-53727902D01*
X132212605Y-54737000D01*
X131853395Y-54737000D01*
X130844297Y-53727902D01*
X130572255Y-53832687D01*
X130337381Y-54460526D01*
X127006482Y-54460526D01*
X127002349Y-54341544D01*
X126790745Y-53830687D01*
X126518703Y-53725902D01*
X125509605Y-54735000D01*
X125150395Y-54735000D01*
X124141297Y-53725902D01*
X123869255Y-53830687D01*
X123634381Y-54458526D01*
X122015000Y-54458526D01*
X122015000Y-54399833D01*
X121758474Y-53780524D01*
X121524247Y-53546297D01*
X124320902Y-53546297D01*
X125330000Y-54555395D01*
X126337098Y-53548297D01*
X131023902Y-53548297D01*
X132033000Y-54557395D01*
X133042098Y-53548297D01*
X132937313Y-53276255D01*
X132309474Y-53041381D01*
X131639544Y-53064651D01*
X131128687Y-53276255D01*
X131023902Y-53548297D01*
X126337098Y-53548297D01*
X126339098Y-53546297D01*
X126234313Y-53274255D01*
X125606474Y-53039381D01*
X124936544Y-53062651D01*
X124425687Y-53274255D01*
X124320902Y-53546297D01*
X121524247Y-53546297D01*
X121284476Y-53306526D01*
X120665167Y-53050000D01*
X119994833Y-53050000D01*
X119375524Y-53306526D01*
X118901526Y-53780524D01*
X118645000Y-54399833D01*
X117004374Y-54399833D01*
X117002349Y-54341544D01*
X116790745Y-53830687D01*
X116518703Y-53725902D01*
X115509605Y-54735000D01*
X115150395Y-54735000D01*
X114141297Y-53725902D01*
X113869255Y-53830687D01*
X113634381Y-54458526D01*
X112015000Y-54458526D01*
X112015000Y-54399833D01*
X111758474Y-53780524D01*
X111524247Y-53546297D01*
X114320902Y-53546297D01*
X115330000Y-54555395D01*
X116339098Y-53546297D01*
X116234313Y-53274255D01*
X115606474Y-53039381D01*
X114936544Y-53062651D01*
X114425687Y-53274255D01*
X114320902Y-53546297D01*
X111524247Y-53546297D01*
X111284476Y-53306526D01*
X110665167Y-53050000D01*
X109994833Y-53050000D01*
X109375524Y-53306526D01*
X108901526Y-53780524D01*
X108645000Y-54399833D01*
X107004374Y-54399833D01*
X107002349Y-54341544D01*
X106790745Y-53830687D01*
X106518703Y-53725902D01*
X105509605Y-54735000D01*
X105150395Y-54735000D01*
X104141297Y-53725902D01*
X103869255Y-53830687D01*
X103634381Y-54458526D01*
X102015000Y-54458526D01*
X102015000Y-54399833D01*
X101758474Y-53780524D01*
X101524247Y-53546297D01*
X104320902Y-53546297D01*
X105330000Y-54555395D01*
X106339098Y-53546297D01*
X106234313Y-53274255D01*
X105606474Y-53039381D01*
X104936544Y-53062651D01*
X104425687Y-53274255D01*
X104320902Y-53546297D01*
X101524247Y-53546297D01*
X101284476Y-53306526D01*
X100665167Y-53050000D01*
X99994833Y-53050000D01*
X99375524Y-53306526D01*
X98901526Y-53780524D01*
X98645000Y-54399833D01*
X98044000Y-54399833D01*
X98044000Y-50748000D01*
X99341156Y-50748000D01*
X99325405Y-50763751D01*
X99325405Y-50763751D01*
G37*
X99325405Y-50763751D02*
X99145000Y-51199289D01*
X99145000Y-51670711D01*
X99325405Y-52106249D01*
X99658751Y-52439595D01*
X100094289Y-52620000D01*
X100565711Y-52620000D01*
X101001249Y-52439595D01*
X101334595Y-52106249D01*
X101515000Y-51670711D01*
X101515000Y-51199289D01*
X101334595Y-50763751D01*
X101318844Y-50748000D01*
X104341156Y-50748000D01*
X104325405Y-50763751D01*
X104145000Y-51199289D01*
X104145000Y-51670711D01*
X104325405Y-52106249D01*
X104658751Y-52439595D01*
X105094289Y-52620000D01*
X105565711Y-52620000D01*
X106001249Y-52439595D01*
X106334595Y-52106249D01*
X106515000Y-51670711D01*
X106515000Y-51199289D01*
X106334595Y-50763751D01*
X106318844Y-50748000D01*
X109341156Y-50748000D01*
X109325405Y-50763751D01*
X109145000Y-51199289D01*
X109145000Y-51670711D01*
X109325405Y-52106249D01*
X109658751Y-52439595D01*
X110094289Y-52620000D01*
X110565711Y-52620000D01*
X111001249Y-52439595D01*
X111334595Y-52106249D01*
X111515000Y-51670711D01*
X111515000Y-51199289D01*
X111334595Y-50763751D01*
X111318844Y-50748000D01*
X114341156Y-50748000D01*
X114325405Y-50763751D01*
X114145000Y-51199289D01*
X114145000Y-51670711D01*
X114325405Y-52106249D01*
X114658751Y-52439595D01*
X115094289Y-52620000D01*
X115565711Y-52620000D01*
X116001249Y-52439595D01*
X116334595Y-52106249D01*
X116515000Y-51670711D01*
X116515000Y-51199289D01*
X116334595Y-50763751D01*
X116318844Y-50748000D01*
X119341156Y-50748000D01*
X119325405Y-50763751D01*
X119145000Y-51199289D01*
X119145000Y-51670711D01*
X119325405Y-52106249D01*
X119658751Y-52439595D01*
X120094289Y-52620000D01*
X120565711Y-52620000D01*
X121001249Y-52439595D01*
X121334595Y-52106249D01*
X121515000Y-51670711D01*
X121515000Y-51199289D01*
X121334595Y-50763751D01*
X121318844Y-50748000D01*
X124341156Y-50748000D01*
X124325405Y-50763751D01*
X124145000Y-51199289D01*
X124145000Y-51670711D01*
X124325405Y-52106249D01*
X124658751Y-52439595D01*
X125094289Y-52620000D01*
X125565711Y-52620000D01*
X126001249Y-52439595D01*
X126334595Y-52106249D01*
X126515000Y-51670711D01*
X126515000Y-51199289D01*
X126334595Y-50763751D01*
X126318844Y-50748000D01*
X131046156Y-50748000D01*
X131028405Y-50765751D01*
X130848000Y-51201289D01*
X130848000Y-51672711D01*
X131028405Y-52108249D01*
X131361751Y-52441595D01*
X131797289Y-52622000D01*
X132268711Y-52622000D01*
X132704249Y-52441595D01*
X133037595Y-52108249D01*
X133218000Y-51672711D01*
X133218000Y-51201289D01*
X133037595Y-50765751D01*
X133019844Y-50748000D01*
X136046156Y-50748000D01*
X136028405Y-50765751D01*
X135848000Y-51201289D01*
X135848000Y-51672711D01*
X136028405Y-52108249D01*
X136361751Y-52441595D01*
X136797289Y-52622000D01*
X137268711Y-52622000D01*
X137704249Y-52441595D01*
X138037595Y-52108249D01*
X138218000Y-51672711D01*
X138218000Y-51201289D01*
X138037595Y-50765751D01*
X138019844Y-50748000D01*
X141046156Y-50748000D01*
X141028405Y-50765751D01*
X140848000Y-51201289D01*
X140848000Y-51672711D01*
X141028405Y-52108249D01*
X141361751Y-52441595D01*
X141797289Y-52622000D01*
X142268711Y-52622000D01*
X142704249Y-52441595D01*
X143037595Y-52108249D01*
X143218000Y-51672711D01*
X143218000Y-51201289D01*
X143037595Y-50765751D01*
X143019844Y-50748000D01*
X146046156Y-50748000D01*
X146028405Y-50765751D01*
X145848000Y-51201289D01*
X145848000Y-51672711D01*
X146028405Y-52108249D01*
X146361751Y-52441595D01*
X146797289Y-52622000D01*
X147268711Y-52622000D01*
X147704249Y-52441595D01*
X148037595Y-52108249D01*
X148218000Y-51672711D01*
X148218000Y-51201289D01*
X148037595Y-50765751D01*
X148019844Y-50748000D01*
X151046156Y-50748000D01*
X151028405Y-50765751D01*
X150848000Y-51201289D01*
X150848000Y-51672711D01*
X151028405Y-52108249D01*
X151361751Y-52441595D01*
X151797289Y-52622000D01*
X152268711Y-52622000D01*
X152704249Y-52441595D01*
X153037595Y-52108249D01*
X153218000Y-51672711D01*
X153218000Y-51201289D01*
X153037595Y-50765751D01*
X153019844Y-50748000D01*
X156046156Y-50748000D01*
X156028405Y-50765751D01*
X155848000Y-51201289D01*
X155848000Y-51672711D01*
X156028405Y-52108249D01*
X156361751Y-52441595D01*
X156797289Y-52622000D01*
X157268711Y-52622000D01*
X157704249Y-52441595D01*
X158037595Y-52108249D01*
X158218000Y-51672711D01*
X158218000Y-51201289D01*
X158037595Y-50765751D01*
X158019844Y-50748000D01*
X159893000Y-50748000D01*
X159893000Y-58801000D01*
X104267000Y-58801000D01*
X104218399Y-58810667D01*
X104177197Y-58838197D01*
X99769394Y-63246000D01*
X85344000Y-63246000D01*
X85344000Y-62994540D01*
X86582250Y-62994540D01*
X86741000Y-62835790D01*
X86741000Y-60736480D01*
X86995000Y-60736480D01*
X86995000Y-62835790D01*
X87153750Y-62994540D01*
X88744370Y-62994540D01*
X88977759Y-62897867D01*
X89156387Y-62719238D01*
X89253060Y-62485849D01*
X89253060Y-60895230D01*
X89094310Y-60736480D01*
X86995000Y-60736480D01*
X86741000Y-60736480D01*
X86721000Y-60736480D01*
X86721000Y-60482480D01*
X86741000Y-60482480D01*
X86741000Y-58383170D01*
X86995000Y-58383170D01*
X86995000Y-60482480D01*
X89094310Y-60482480D01*
X89253060Y-60323730D01*
X89253060Y-58733111D01*
X89156387Y-58499722D01*
X88977759Y-58321093D01*
X88744370Y-58224420D01*
X87153750Y-58224420D01*
X86995000Y-58383170D01*
X86741000Y-58383170D01*
X86582250Y-58224420D01*
X85344000Y-58224420D01*
X85344000Y-57912000D01*
X95631000Y-57912000D01*
X95679601Y-57902333D01*
X95720803Y-57874803D01*
X98006803Y-55588803D01*
X98034333Y-55547601D01*
X98044000Y-55499000D01*
X98044000Y-54399833D01*
X98645000Y-54399833D01*
X98645000Y-55070167D01*
X98901526Y-55689476D01*
X99375524Y-56163474D01*
X99994833Y-56420000D01*
X100665167Y-56420000D01*
X101284476Y-56163474D01*
X101524247Y-55923703D01*
X104320902Y-55923703D01*
X104425687Y-56195745D01*
X105053526Y-56430619D01*
X105723456Y-56407349D01*
X106234313Y-56195745D01*
X106339098Y-55923703D01*
X105330000Y-54914605D01*
X104320902Y-55923703D01*
X101524247Y-55923703D01*
X101758474Y-55689476D01*
X102015000Y-55070167D01*
X102015000Y-54458526D01*
X103634381Y-54458526D01*
X103657651Y-55128456D01*
X103869255Y-55639313D01*
X104141297Y-55744098D01*
X105150395Y-54735000D01*
X105509605Y-54735000D01*
X106518703Y-55744098D01*
X106790745Y-55639313D01*
X107025619Y-55011474D01*
X107004374Y-54399833D01*
X108645000Y-54399833D01*
X108645000Y-55070167D01*
X108901526Y-55689476D01*
X109375524Y-56163474D01*
X109994833Y-56420000D01*
X110665167Y-56420000D01*
X111284476Y-56163474D01*
X111524247Y-55923703D01*
X114320902Y-55923703D01*
X114425687Y-56195745D01*
X115053526Y-56430619D01*
X115723456Y-56407349D01*
X116234313Y-56195745D01*
X116339098Y-55923703D01*
X115330000Y-54914605D01*
X114320902Y-55923703D01*
X111524247Y-55923703D01*
X111758474Y-55689476D01*
X112015000Y-55070167D01*
X112015000Y-54458526D01*
X113634381Y-54458526D01*
X113657651Y-55128456D01*
X113869255Y-55639313D01*
X114141297Y-55744098D01*
X115150395Y-54735000D01*
X115509605Y-54735000D01*
X116518703Y-55744098D01*
X116790745Y-55639313D01*
X117025619Y-55011474D01*
X117004374Y-54399833D01*
X118645000Y-54399833D01*
X118645000Y-55070167D01*
X118901526Y-55689476D01*
X119375524Y-56163474D01*
X119994833Y-56420000D01*
X120665167Y-56420000D01*
X121284476Y-56163474D01*
X121524247Y-55923703D01*
X124320902Y-55923703D01*
X124425687Y-56195745D01*
X125053526Y-56430619D01*
X125723456Y-56407349D01*
X126234313Y-56195745D01*
X126338327Y-55925703D01*
X131023902Y-55925703D01*
X131128687Y-56197745D01*
X131756526Y-56432619D01*
X132426456Y-56409349D01*
X132937313Y-56197745D01*
X133042098Y-55925703D01*
X132033000Y-54916605D01*
X131023902Y-55925703D01*
X126338327Y-55925703D01*
X126339098Y-55923703D01*
X125330000Y-54914605D01*
X124320902Y-55923703D01*
X121524247Y-55923703D01*
X121758474Y-55689476D01*
X122015000Y-55070167D01*
X122015000Y-54458526D01*
X123634381Y-54458526D01*
X123657651Y-55128456D01*
X123869255Y-55639313D01*
X124141297Y-55744098D01*
X125150395Y-54735000D01*
X125509605Y-54735000D01*
X126518703Y-55744098D01*
X126790745Y-55639313D01*
X127025619Y-55011474D01*
X127006482Y-54460526D01*
X130337381Y-54460526D01*
X130360651Y-55130456D01*
X130572255Y-55641313D01*
X130844297Y-55746098D01*
X131853395Y-54737000D01*
X132212605Y-54737000D01*
X133221703Y-55746098D01*
X133493745Y-55641313D01*
X133728619Y-55013474D01*
X133707374Y-54401833D01*
X135348000Y-54401833D01*
X135348000Y-55072167D01*
X135604526Y-55691476D01*
X136078524Y-56165474D01*
X136697833Y-56422000D01*
X137368167Y-56422000D01*
X137987476Y-56165474D01*
X138461474Y-55691476D01*
X138718000Y-55072167D01*
X138718000Y-54401833D01*
X140348000Y-54401833D01*
X140348000Y-55072167D01*
X140604526Y-55691476D01*
X141078524Y-56165474D01*
X141697833Y-56422000D01*
X142368167Y-56422000D01*
X142987476Y-56165474D01*
X143461474Y-55691476D01*
X143718000Y-55072167D01*
X143718000Y-54401833D01*
X145348000Y-54401833D01*
X145348000Y-55072167D01*
X145604526Y-55691476D01*
X146078524Y-56165474D01*
X146697833Y-56422000D01*
X147368167Y-56422000D01*
X147987476Y-56165474D01*
X148227247Y-55925703D01*
X151023902Y-55925703D01*
X151128687Y-56197745D01*
X151756526Y-56432619D01*
X152426456Y-56409349D01*
X152937313Y-56197745D01*
X153042098Y-55925703D01*
X156023902Y-55925703D01*
X156128687Y-56197745D01*
X156756526Y-56432619D01*
X157426456Y-56409349D01*
X157937313Y-56197745D01*
X158042098Y-55925703D01*
X157033000Y-54916605D01*
X156023902Y-55925703D01*
X153042098Y-55925703D01*
X152033000Y-54916605D01*
X151023902Y-55925703D01*
X148227247Y-55925703D01*
X148461474Y-55691476D01*
X148718000Y-55072167D01*
X148718000Y-54460526D01*
X150337381Y-54460526D01*
X150360651Y-55130456D01*
X150572255Y-55641313D01*
X150844297Y-55746098D01*
X151853395Y-54737000D01*
X152212605Y-54737000D01*
X153221703Y-55746098D01*
X153493745Y-55641313D01*
X153728619Y-55013474D01*
X153709413Y-54460526D01*
X155337381Y-54460526D01*
X155360651Y-55130456D01*
X155572255Y-55641313D01*
X155844297Y-55746098D01*
X156853395Y-54737000D01*
X157212605Y-54737000D01*
X158221703Y-55746098D01*
X158493745Y-55641313D01*
X158728619Y-55013474D01*
X158705349Y-54343544D01*
X158493745Y-53832687D01*
X158221703Y-53727902D01*
X157212605Y-54737000D01*
X156853395Y-54737000D01*
X155844297Y-53727902D01*
X155572255Y-53832687D01*
X155337381Y-54460526D01*
X153709413Y-54460526D01*
X153705349Y-54343544D01*
X153493745Y-53832687D01*
X153221703Y-53727902D01*
X152212605Y-54737000D01*
X151853395Y-54737000D01*
X150844297Y-53727902D01*
X150572255Y-53832687D01*
X150337381Y-54460526D01*
X148718000Y-54460526D01*
X148718000Y-54401833D01*
X148461474Y-53782524D01*
X148227247Y-53548297D01*
X151023902Y-53548297D01*
X152033000Y-54557395D01*
X153042098Y-53548297D01*
X156023902Y-53548297D01*
X157033000Y-54557395D01*
X158042098Y-53548297D01*
X157937313Y-53276255D01*
X157309474Y-53041381D01*
X156639544Y-53064651D01*
X156128687Y-53276255D01*
X156023902Y-53548297D01*
X153042098Y-53548297D01*
X152937313Y-53276255D01*
X152309474Y-53041381D01*
X151639544Y-53064651D01*
X151128687Y-53276255D01*
X151023902Y-53548297D01*
X148227247Y-53548297D01*
X147987476Y-53308526D01*
X147368167Y-53052000D01*
X146697833Y-53052000D01*
X146078524Y-53308526D01*
X145604526Y-53782524D01*
X145348000Y-54401833D01*
X143718000Y-54401833D01*
X143461474Y-53782524D01*
X142987476Y-53308526D01*
X142368167Y-53052000D01*
X141697833Y-53052000D01*
X141078524Y-53308526D01*
X140604526Y-53782524D01*
X140348000Y-54401833D01*
X138718000Y-54401833D01*
X138461474Y-53782524D01*
X137987476Y-53308526D01*
X137368167Y-53052000D01*
X136697833Y-53052000D01*
X136078524Y-53308526D01*
X135604526Y-53782524D01*
X135348000Y-54401833D01*
X133707374Y-54401833D01*
X133705349Y-54343544D01*
X133493745Y-53832687D01*
X133221703Y-53727902D01*
X132212605Y-54737000D01*
X131853395Y-54737000D01*
X130844297Y-53727902D01*
X130572255Y-53832687D01*
X130337381Y-54460526D01*
X127006482Y-54460526D01*
X127002349Y-54341544D01*
X126790745Y-53830687D01*
X126518703Y-53725902D01*
X125509605Y-54735000D01*
X125150395Y-54735000D01*
X124141297Y-53725902D01*
X123869255Y-53830687D01*
X123634381Y-54458526D01*
X122015000Y-54458526D01*
X122015000Y-54399833D01*
X121758474Y-53780524D01*
X121524247Y-53546297D01*
X124320902Y-53546297D01*
X125330000Y-54555395D01*
X126337098Y-53548297D01*
X131023902Y-53548297D01*
X132033000Y-54557395D01*
X133042098Y-53548297D01*
X132937313Y-53276255D01*
X132309474Y-53041381D01*
X131639544Y-53064651D01*
X131128687Y-53276255D01*
X131023902Y-53548297D01*
X126337098Y-53548297D01*
X126339098Y-53546297D01*
X126234313Y-53274255D01*
X125606474Y-53039381D01*
X124936544Y-53062651D01*
X124425687Y-53274255D01*
X124320902Y-53546297D01*
X121524247Y-53546297D01*
X121284476Y-53306526D01*
X120665167Y-53050000D01*
X119994833Y-53050000D01*
X119375524Y-53306526D01*
X118901526Y-53780524D01*
X118645000Y-54399833D01*
X117004374Y-54399833D01*
X117002349Y-54341544D01*
X116790745Y-53830687D01*
X116518703Y-53725902D01*
X115509605Y-54735000D01*
X115150395Y-54735000D01*
X114141297Y-53725902D01*
X113869255Y-53830687D01*
X113634381Y-54458526D01*
X112015000Y-54458526D01*
X112015000Y-54399833D01*
X111758474Y-53780524D01*
X111524247Y-53546297D01*
X114320902Y-53546297D01*
X115330000Y-54555395D01*
X116339098Y-53546297D01*
X116234313Y-53274255D01*
X115606474Y-53039381D01*
X114936544Y-53062651D01*
X114425687Y-53274255D01*
X114320902Y-53546297D01*
X111524247Y-53546297D01*
X111284476Y-53306526D01*
X110665167Y-53050000D01*
X109994833Y-53050000D01*
X109375524Y-53306526D01*
X108901526Y-53780524D01*
X108645000Y-54399833D01*
X107004374Y-54399833D01*
X107002349Y-54341544D01*
X106790745Y-53830687D01*
X106518703Y-53725902D01*
X105509605Y-54735000D01*
X105150395Y-54735000D01*
X104141297Y-53725902D01*
X103869255Y-53830687D01*
X103634381Y-54458526D01*
X102015000Y-54458526D01*
X102015000Y-54399833D01*
X101758474Y-53780524D01*
X101524247Y-53546297D01*
X104320902Y-53546297D01*
X105330000Y-54555395D01*
X106339098Y-53546297D01*
X106234313Y-53274255D01*
X105606474Y-53039381D01*
X104936544Y-53062651D01*
X104425687Y-53274255D01*
X104320902Y-53546297D01*
X101524247Y-53546297D01*
X101284476Y-53306526D01*
X100665167Y-53050000D01*
X99994833Y-53050000D01*
X99375524Y-53306526D01*
X98901526Y-53780524D01*
X98645000Y-54399833D01*
X98044000Y-54399833D01*
X98044000Y-50748000D01*
X99341156Y-50748000D01*
X99325405Y-50763751D01*
G04 #@! TO.N,GND*
G36*
X73870508Y-50490599D02*
X73910119Y-50549881D01*
X74144972Y-50706805D01*
X74352074Y-50748000D01*
X74352078Y-50748000D01*
X74421999Y-50761908D01*
X74491920Y-50748000D01*
X96901000Y-50748000D01*
X96901000Y-54811394D01*
X94943394Y-56769000D01*
X89107145Y-56769000D01*
X89156387Y-56719758D01*
X89253060Y-56486369D01*
X89253060Y-54895750D01*
X89094310Y-54737000D01*
X86995000Y-54737000D01*
X86995000Y-54757000D01*
X86741000Y-54757000D01*
X86741000Y-54737000D01*
X84641690Y-54737000D01*
X84482940Y-54895750D01*
X84482940Y-55561672D01*
X84457387Y-55499982D01*
X84278759Y-55321353D01*
X84045370Y-55224680D01*
X82454750Y-55224680D01*
X82296000Y-55383430D01*
X82296000Y-57482740D01*
X82316000Y-57482740D01*
X82316000Y-57736740D01*
X82296000Y-57736740D01*
X82296000Y-59836050D01*
X82454750Y-59994800D01*
X83947000Y-59994800D01*
X83947000Y-64135000D01*
X83956667Y-64183601D01*
X83984197Y-64224803D01*
X84025399Y-64252333D01*
X84074000Y-64262000D01*
X100076000Y-64262000D01*
X100124601Y-64252333D01*
X100165803Y-64224803D01*
X104573606Y-59817000D01*
X160782000Y-59817000D01*
X160830601Y-59807333D01*
X160871803Y-59779803D01*
X160899333Y-59738601D01*
X160909000Y-59690000D01*
X160909000Y-50748000D01*
X162612001Y-50748000D01*
X162612000Y-127560000D01*
X21792000Y-127560000D01*
X21792000Y-125094133D01*
X41074472Y-125094133D01*
X41128303Y-125323179D01*
X41605664Y-125488681D01*
X42110023Y-125458906D01*
X42437697Y-125323179D01*
X42491528Y-125094133D01*
X41783000Y-124385605D01*
X41074472Y-125094133D01*
X21792000Y-125094133D01*
X21792000Y-122033159D01*
X22399000Y-122033159D01*
X22399000Y-122822841D01*
X22701199Y-123552412D01*
X23259588Y-124110801D01*
X23989159Y-124413000D01*
X24778841Y-124413000D01*
X25508412Y-124110801D01*
X25590549Y-124028664D01*
X40500319Y-124028664D01*
X40530094Y-124533023D01*
X40665821Y-124860697D01*
X40894867Y-124914528D01*
X41603395Y-124206000D01*
X41962605Y-124206000D01*
X42671133Y-124914528D01*
X42900179Y-124860697D01*
X43065681Y-124383336D01*
X43035906Y-123878977D01*
X42900179Y-123551303D01*
X42671133Y-123497472D01*
X41962605Y-124206000D01*
X41603395Y-124206000D01*
X40894867Y-123497472D01*
X40665821Y-123551303D01*
X40500319Y-124028664D01*
X25590549Y-124028664D01*
X26066801Y-123552412D01*
X26369000Y-122822841D01*
X26369000Y-122033159D01*
X26066801Y-121303588D01*
X25508412Y-120745199D01*
X24778841Y-120443000D01*
X23989159Y-120443000D01*
X23259588Y-120745199D01*
X22701199Y-121303588D01*
X22399000Y-122033159D01*
X21792000Y-122033159D01*
X21792000Y-107188000D01*
X29563632Y-107188000D01*
X29672056Y-107733082D01*
X29980820Y-108195180D01*
X30374158Y-108458000D01*
X29980820Y-108720820D01*
X29672056Y-109182918D01*
X29563632Y-109728000D01*
X29672056Y-110273082D01*
X29980820Y-110735180D01*
X30374158Y-110998000D01*
X29980820Y-111260820D01*
X29672056Y-111722918D01*
X29563632Y-112268000D01*
X29672056Y-112813082D01*
X29980820Y-113275180D01*
X30374158Y-113538000D01*
X29980820Y-113800820D01*
X29672056Y-114262918D01*
X29563632Y-114808000D01*
X29672056Y-115353082D01*
X29980820Y-115815180D01*
X30374158Y-116078000D01*
X29980820Y-116340820D01*
X29672056Y-116802918D01*
X29563632Y-117348000D01*
X29672056Y-117893082D01*
X29980820Y-118355180D01*
X30374158Y-118618000D01*
X29980820Y-118880820D01*
X29672056Y-119342918D01*
X29563632Y-119888000D01*
X29672056Y-120433082D01*
X29980820Y-120895180D01*
X30442918Y-121203944D01*
X30850412Y-121285000D01*
X32141588Y-121285000D01*
X32549082Y-121203944D01*
X33011180Y-120895180D01*
X33319944Y-120433082D01*
X33428368Y-119888000D01*
X33319944Y-119342918D01*
X33011180Y-118880820D01*
X32617842Y-118618000D01*
X33011180Y-118355180D01*
X33319944Y-117893082D01*
X33428368Y-117348000D01*
X33319944Y-116802918D01*
X33011180Y-116340820D01*
X32617842Y-116078000D01*
X32996534Y-115824966D01*
X35553793Y-118382226D01*
X35599848Y-118451152D01*
X35872906Y-118633604D01*
X36113697Y-118681500D01*
X36113698Y-118681500D01*
X36195000Y-118697672D01*
X36276301Y-118681500D01*
X38504658Y-118681500D01*
X38540482Y-118717324D01*
X38913905Y-118872000D01*
X39318095Y-118872000D01*
X39691518Y-118717324D01*
X39977324Y-118431518D01*
X40132000Y-118058095D01*
X40132000Y-117830601D01*
X40181696Y-117830601D01*
X40555119Y-117675925D01*
X40815997Y-117415048D01*
X41063603Y-117662654D01*
X41530381Y-117856000D01*
X41063603Y-118049346D01*
X40706346Y-118406603D01*
X40513000Y-118873381D01*
X40513000Y-119378619D01*
X40706346Y-119845397D01*
X41063603Y-120202654D01*
X41530381Y-120396000D01*
X41063603Y-120589346D01*
X40706346Y-120946603D01*
X40513000Y-121413381D01*
X40513000Y-121918619D01*
X40706346Y-122385397D01*
X41063603Y-122742654D01*
X41530381Y-122936000D01*
X41745532Y-122936000D01*
X41455977Y-122953094D01*
X41128303Y-123088821D01*
X41074472Y-123317867D01*
X41783000Y-124026395D01*
X42491528Y-123317867D01*
X42437697Y-123088821D01*
X41996912Y-122936000D01*
X42035619Y-122936000D01*
X42502397Y-122742654D01*
X42859654Y-122385397D01*
X43053000Y-121918619D01*
X43053000Y-121413381D01*
X42859654Y-120946603D01*
X42502397Y-120589346D01*
X42035619Y-120396000D01*
X42502397Y-120202654D01*
X42511146Y-120193905D01*
X57150000Y-120193905D01*
X57150000Y-120598095D01*
X57304676Y-120971518D01*
X57590482Y-121257324D01*
X57963905Y-121412000D01*
X58368095Y-121412000D01*
X58741518Y-121257324D01*
X58777342Y-121221500D01*
X61872658Y-121221500D01*
X61908482Y-121257324D01*
X62281905Y-121412000D01*
X62686095Y-121412000D01*
X63059518Y-121257324D01*
X63345324Y-120971518D01*
X63500000Y-120598095D01*
X63500000Y-120193905D01*
X63345324Y-119820482D01*
X63260442Y-119735600D01*
X63319924Y-119676118D01*
X63474600Y-119302695D01*
X63474600Y-118898505D01*
X63319924Y-118525082D01*
X63034118Y-118239276D01*
X62660695Y-118084600D01*
X62256505Y-118084600D01*
X61883082Y-118239276D01*
X61847258Y-118275100D01*
X58828142Y-118275100D01*
X58792318Y-118239276D01*
X58418895Y-118084600D01*
X58014705Y-118084600D01*
X57641282Y-118239276D01*
X57355476Y-118525082D01*
X57200800Y-118898505D01*
X57200800Y-119302695D01*
X57355476Y-119676118D01*
X57402258Y-119722900D01*
X57304676Y-119820482D01*
X57150000Y-120193905D01*
X42511146Y-120193905D01*
X42859654Y-119845397D01*
X43053000Y-119378619D01*
X43053000Y-118873381D01*
X42859654Y-118406603D01*
X42502397Y-118049346D01*
X42035619Y-117856000D01*
X42502397Y-117662654D01*
X42859654Y-117305397D01*
X43053000Y-116838619D01*
X43053000Y-116333381D01*
X42859654Y-115866603D01*
X42502397Y-115509346D01*
X42035619Y-115316000D01*
X42502397Y-115122654D01*
X42859654Y-114765397D01*
X43053000Y-114298619D01*
X43053000Y-113793381D01*
X42859654Y-113326603D01*
X42502397Y-112969346D01*
X42035619Y-112776000D01*
X42502397Y-112582654D01*
X42859654Y-112225397D01*
X43053000Y-111758619D01*
X43053000Y-111253381D01*
X42984041Y-111086899D01*
X45108657Y-111086899D01*
X45119082Y-111097324D01*
X45492505Y-111252000D01*
X45896695Y-111252000D01*
X46270118Y-111097324D01*
X46555924Y-110811518D01*
X46710600Y-110438095D01*
X46710600Y-110033905D01*
X46555924Y-109660482D01*
X46270118Y-109374676D01*
X45896695Y-109220000D01*
X45492505Y-109220000D01*
X45119082Y-109374676D01*
X45057859Y-109435899D01*
X42964249Y-109435899D01*
X43065681Y-109143336D01*
X43035906Y-108638977D01*
X42900179Y-108311303D01*
X42671133Y-108257472D01*
X41962605Y-108966000D01*
X41976748Y-108980143D01*
X41797143Y-109159748D01*
X41783000Y-109145605D01*
X41768858Y-109159748D01*
X41589253Y-108980143D01*
X41603395Y-108966000D01*
X40894867Y-108257472D01*
X40665821Y-108311303D01*
X40500319Y-108788664D01*
X40510979Y-108969230D01*
X40257895Y-108864400D01*
X39853705Y-108864400D01*
X39480282Y-109019076D01*
X39194476Y-109304882D01*
X39039800Y-109678305D01*
X39039800Y-110082495D01*
X39194476Y-110455918D01*
X39480282Y-110741724D01*
X39853705Y-110896400D01*
X39901285Y-110896400D01*
X40114705Y-111039003D01*
X40355496Y-111086899D01*
X40355497Y-111086899D01*
X40436799Y-111103071D01*
X40518100Y-111086899D01*
X40581959Y-111086899D01*
X40513000Y-111253381D01*
X40513000Y-111758619D01*
X40706346Y-112225397D01*
X41063603Y-112582654D01*
X41530381Y-112776000D01*
X41063603Y-112969346D01*
X40706346Y-113326603D01*
X40513000Y-113793381D01*
X40513000Y-114298619D01*
X40706346Y-114765397D01*
X41063603Y-115122654D01*
X41530381Y-115316000D01*
X41063603Y-115509346D01*
X40706346Y-115866603D01*
X40636666Y-116034824D01*
X40555119Y-115953277D01*
X40181696Y-115798601D01*
X40131034Y-115798601D01*
X36074209Y-111741777D01*
X36028152Y-111672848D01*
X35755094Y-111490396D01*
X35514303Y-111442500D01*
X35514301Y-111442500D01*
X35433000Y-111426328D01*
X35351699Y-111442500D01*
X33132575Y-111442500D01*
X33011180Y-111260820D01*
X32617842Y-110998000D01*
X33011180Y-110735180D01*
X33319944Y-110273082D01*
X33428368Y-109728000D01*
X33319944Y-109182918D01*
X33011180Y-108720820D01*
X32617842Y-108458000D01*
X33011180Y-108195180D01*
X33319944Y-107733082D01*
X33428368Y-107188000D01*
X33319944Y-106642918D01*
X33011180Y-106180820D01*
X32549082Y-105872056D01*
X32141588Y-105791000D01*
X30850412Y-105791000D01*
X30442918Y-105872056D01*
X29980820Y-106180820D01*
X29672056Y-106642918D01*
X29563632Y-107188000D01*
X21792000Y-107188000D01*
X21792000Y-102108000D01*
X29563632Y-102108000D01*
X29672056Y-102653082D01*
X29980820Y-103115180D01*
X30442918Y-103423944D01*
X30850412Y-103505000D01*
X32141588Y-103505000D01*
X32549082Y-103423944D01*
X33011180Y-103115180D01*
X33319944Y-102653082D01*
X33428368Y-102108000D01*
X33319944Y-101562918D01*
X33011180Y-101100820D01*
X32600511Y-100826420D01*
X32655941Y-100810059D01*
X33081630Y-100466026D01*
X33343260Y-99985277D01*
X33358220Y-99911070D01*
X33235720Y-99695000D01*
X31623000Y-99695000D01*
X31623000Y-99715000D01*
X31369000Y-99715000D01*
X31369000Y-99695000D01*
X29756280Y-99695000D01*
X29633780Y-99911070D01*
X29648740Y-99985277D01*
X29910370Y-100466026D01*
X30336059Y-100810059D01*
X30391489Y-100826420D01*
X29980820Y-101100820D01*
X29672056Y-101562918D01*
X29563632Y-102108000D01*
X21792000Y-102108000D01*
X21792000Y-97371070D01*
X29633780Y-97371070D01*
X29648740Y-97445277D01*
X29910370Y-97926026D01*
X30336059Y-98270059D01*
X30430723Y-98298000D01*
X30336059Y-98325941D01*
X29910370Y-98669974D01*
X29648740Y-99150723D01*
X29633780Y-99224930D01*
X29756280Y-99441000D01*
X31369000Y-99441000D01*
X31369000Y-97155000D01*
X31623000Y-97155000D01*
X31623000Y-99441000D01*
X33235720Y-99441000D01*
X33358220Y-99224930D01*
X33343260Y-99150723D01*
X33081630Y-98669974D01*
X32655941Y-98325941D01*
X32561277Y-98298000D01*
X32655941Y-98270059D01*
X33081630Y-97926026D01*
X33343260Y-97445277D01*
X33358220Y-97371070D01*
X33235720Y-97155000D01*
X31623000Y-97155000D01*
X31369000Y-97155000D01*
X29756280Y-97155000D01*
X29633780Y-97371070D01*
X21792000Y-97371070D01*
X21792000Y-91553159D01*
X22399000Y-91553159D01*
X22399000Y-92342841D01*
X22701199Y-93072412D01*
X23259588Y-93630801D01*
X23989159Y-93933000D01*
X24778841Y-93933000D01*
X25508412Y-93630801D01*
X26066801Y-93072412D01*
X26369000Y-92342841D01*
X26369000Y-91553159D01*
X26066801Y-90823588D01*
X25508412Y-90265199D01*
X24778841Y-89963000D01*
X23989159Y-89963000D01*
X23259588Y-90265199D01*
X22701199Y-90823588D01*
X22399000Y-91553159D01*
X21792000Y-91553159D01*
X21792000Y-86868000D01*
X29563632Y-86868000D01*
X29672056Y-87413082D01*
X29980820Y-87875180D01*
X30374158Y-88138000D01*
X29980820Y-88400820D01*
X29672056Y-88862918D01*
X29563632Y-89408000D01*
X29672056Y-89953082D01*
X29980820Y-90415180D01*
X30374158Y-90678000D01*
X29980820Y-90940820D01*
X29672056Y-91402918D01*
X29563632Y-91948000D01*
X29672056Y-92493082D01*
X29980820Y-92955180D01*
X30374158Y-93218000D01*
X29980820Y-93480820D01*
X29672056Y-93942918D01*
X29563632Y-94488000D01*
X29672056Y-95033082D01*
X29980820Y-95495180D01*
X30391489Y-95769580D01*
X30336059Y-95785941D01*
X29910370Y-96129974D01*
X29648740Y-96610723D01*
X29633780Y-96684930D01*
X29756280Y-96901000D01*
X31369000Y-96901000D01*
X31369000Y-96881000D01*
X31623000Y-96881000D01*
X31623000Y-96901000D01*
X33235720Y-96901000D01*
X33358220Y-96684930D01*
X33343260Y-96610723D01*
X33081630Y-96129974D01*
X32655941Y-95785941D01*
X32600511Y-95769580D01*
X33011180Y-95495180D01*
X33319944Y-95033082D01*
X33428368Y-94488000D01*
X33319944Y-93942918D01*
X33011180Y-93480820D01*
X32617842Y-93218000D01*
X33011180Y-92955180D01*
X33319944Y-92493082D01*
X33428368Y-91948000D01*
X33319944Y-91402918D01*
X33011180Y-90940820D01*
X32617842Y-90678000D01*
X33011180Y-90415180D01*
X33319944Y-89953082D01*
X33428368Y-89408000D01*
X33319944Y-88862918D01*
X33011180Y-88400820D01*
X32617842Y-88138000D01*
X33011180Y-87875180D01*
X33319944Y-87413082D01*
X33428368Y-86868000D01*
X33319944Y-86322918D01*
X33011180Y-85860820D01*
X32549082Y-85552056D01*
X32141588Y-85471000D01*
X30850412Y-85471000D01*
X30442918Y-85552056D01*
X29980820Y-85860820D01*
X29672056Y-86322918D01*
X29563632Y-86868000D01*
X21792000Y-86868000D01*
X21792000Y-78233381D01*
X40513000Y-78233381D01*
X40513000Y-78738619D01*
X40706346Y-79205397D01*
X41063603Y-79562654D01*
X41530381Y-79756000D01*
X41063603Y-79949346D01*
X40706346Y-80306603D01*
X40513000Y-80773381D01*
X40513000Y-81278619D01*
X40706346Y-81745397D01*
X41063603Y-82102654D01*
X41530381Y-82296000D01*
X41063603Y-82489346D01*
X40706346Y-82846603D01*
X40513000Y-83313381D01*
X40513000Y-83818619D01*
X40706346Y-84285397D01*
X41063603Y-84642654D01*
X41530381Y-84836000D01*
X41063603Y-85029346D01*
X40706346Y-85386603D01*
X40513000Y-85853381D01*
X40513000Y-86358619D01*
X40706346Y-86825397D01*
X41063603Y-87182654D01*
X41530381Y-87376000D01*
X41063603Y-87569346D01*
X40706346Y-87926603D01*
X40513000Y-88393381D01*
X40513000Y-88898619D01*
X40706346Y-89365397D01*
X41063603Y-89722654D01*
X41530381Y-89916000D01*
X41063603Y-90109346D01*
X40706346Y-90466603D01*
X40513000Y-90933381D01*
X40513000Y-91438619D01*
X40706346Y-91905397D01*
X41063603Y-92262654D01*
X41530381Y-92456000D01*
X41063603Y-92649346D01*
X40706346Y-93006603D01*
X40513000Y-93473381D01*
X40513000Y-93978619D01*
X40706346Y-94445397D01*
X41063603Y-94802654D01*
X41530381Y-94996000D01*
X41063603Y-95189346D01*
X40706346Y-95546603D01*
X40513000Y-96013381D01*
X40513000Y-96518619D01*
X40706346Y-96985397D01*
X41063603Y-97342654D01*
X41530381Y-97536000D01*
X41063603Y-97729346D01*
X40706346Y-98086603D01*
X40513000Y-98553381D01*
X40513000Y-99058619D01*
X40706346Y-99525397D01*
X41063603Y-99882654D01*
X41530381Y-100076000D01*
X41063603Y-100269346D01*
X40706346Y-100626603D01*
X40513000Y-101093381D01*
X40513000Y-101598619D01*
X40706346Y-102065397D01*
X41063603Y-102422654D01*
X41530381Y-102616000D01*
X41063603Y-102809346D01*
X40706346Y-103166603D01*
X40513000Y-103633381D01*
X40513000Y-104138619D01*
X40706346Y-104605397D01*
X41063603Y-104962654D01*
X41530381Y-105156000D01*
X41063603Y-105349346D01*
X40706346Y-105706603D01*
X40513000Y-106173381D01*
X40513000Y-106678619D01*
X40706346Y-107145397D01*
X41063603Y-107502654D01*
X41530381Y-107696000D01*
X41745532Y-107696000D01*
X41455977Y-107713094D01*
X41128303Y-107848821D01*
X41074472Y-108077867D01*
X41783000Y-108786395D01*
X42491528Y-108077867D01*
X42437697Y-107848821D01*
X41996912Y-107696000D01*
X42035619Y-107696000D01*
X42502397Y-107502654D01*
X42859654Y-107145397D01*
X43053000Y-106678619D01*
X43053000Y-106173381D01*
X42859654Y-105706603D01*
X42502397Y-105349346D01*
X42035619Y-105156000D01*
X42502397Y-104962654D01*
X42859654Y-104605397D01*
X43053000Y-104138619D01*
X43053000Y-103633381D01*
X42859654Y-103166603D01*
X42502397Y-102809346D01*
X42035619Y-102616000D01*
X42502397Y-102422654D01*
X42859654Y-102065397D01*
X42978323Y-101778905D01*
X45161200Y-101778905D01*
X45161200Y-102183095D01*
X45315876Y-102556518D01*
X45601682Y-102842324D01*
X45975105Y-102997000D01*
X46379295Y-102997000D01*
X46752718Y-102842324D01*
X46788542Y-102806500D01*
X49367280Y-102806500D01*
X49581905Y-102895400D01*
X49986095Y-102895400D01*
X50359518Y-102740724D01*
X50645324Y-102454918D01*
X50800000Y-102081495D01*
X50800000Y-101677305D01*
X50645324Y-101303882D01*
X50359518Y-101018076D01*
X49986095Y-100863400D01*
X49581905Y-100863400D01*
X49208482Y-101018076D01*
X49071058Y-101155500D01*
X46788542Y-101155500D01*
X46752718Y-101119676D01*
X46379295Y-100965000D01*
X45975105Y-100965000D01*
X45601682Y-101119676D01*
X45315876Y-101405482D01*
X45161200Y-101778905D01*
X42978323Y-101778905D01*
X43053000Y-101598619D01*
X43053000Y-101093381D01*
X42859654Y-100626603D01*
X42502397Y-100269346D01*
X42035619Y-100076000D01*
X42502397Y-99882654D01*
X42859654Y-99525397D01*
X43053000Y-99058619D01*
X43053000Y-98553381D01*
X42859654Y-98086603D01*
X42502397Y-97729346D01*
X42035619Y-97536000D01*
X42502397Y-97342654D01*
X42859654Y-96985397D01*
X43053000Y-96518619D01*
X43053000Y-96013381D01*
X42859654Y-95546603D01*
X42502397Y-95189346D01*
X42035619Y-94996000D01*
X42502397Y-94802654D01*
X42859654Y-94445397D01*
X43053000Y-93978619D01*
X43053000Y-93473381D01*
X65913000Y-93473381D01*
X65913000Y-93978619D01*
X66106346Y-94445397D01*
X66463603Y-94802654D01*
X66930381Y-94996000D01*
X66463603Y-95189346D01*
X66106346Y-95546603D01*
X65913000Y-96013381D01*
X65913000Y-96518619D01*
X66106346Y-96985397D01*
X66463603Y-97342654D01*
X66930381Y-97536000D01*
X66463603Y-97729346D01*
X66106346Y-98086603D01*
X65913000Y-98553381D01*
X65913000Y-99058619D01*
X66106346Y-99525397D01*
X66463603Y-99882654D01*
X66930381Y-100076000D01*
X66463603Y-100269346D01*
X66106346Y-100626603D01*
X65913000Y-101093381D01*
X65913000Y-101598619D01*
X66106346Y-102065397D01*
X66463603Y-102422654D01*
X66930381Y-102616000D01*
X66463603Y-102809346D01*
X66106346Y-103166603D01*
X65913000Y-103633381D01*
X65913000Y-104138619D01*
X66106346Y-104605397D01*
X66463603Y-104962654D01*
X66930381Y-105156000D01*
X66463603Y-105349346D01*
X66106346Y-105706603D01*
X65913000Y-106173381D01*
X65913000Y-106678619D01*
X66106346Y-107145397D01*
X66463603Y-107502654D01*
X66930381Y-107696000D01*
X66463603Y-107889346D01*
X66106346Y-108246603D01*
X65913000Y-108713381D01*
X65913000Y-109218619D01*
X66106346Y-109685397D01*
X66463603Y-110042654D01*
X66930381Y-110236000D01*
X66463603Y-110429346D01*
X66106346Y-110786603D01*
X65913000Y-111253381D01*
X65913000Y-111758619D01*
X66106346Y-112225397D01*
X66463603Y-112582654D01*
X66930381Y-112776000D01*
X66463603Y-112969346D01*
X66106346Y-113326603D01*
X65913000Y-113793381D01*
X65913000Y-114298619D01*
X66106346Y-114765397D01*
X66463603Y-115122654D01*
X66930381Y-115316000D01*
X66463603Y-115509346D01*
X66106346Y-115866603D01*
X65913000Y-116333381D01*
X65913000Y-116838619D01*
X66106346Y-117305397D01*
X66463603Y-117662654D01*
X66930381Y-117856000D01*
X66463603Y-118049346D01*
X66106346Y-118406603D01*
X65913000Y-118873381D01*
X65913000Y-119378619D01*
X66106346Y-119845397D01*
X66463603Y-120202654D01*
X66930381Y-120396000D01*
X66463603Y-120589346D01*
X66106346Y-120946603D01*
X65913000Y-121413381D01*
X65913000Y-121918619D01*
X66106346Y-122385397D01*
X66463603Y-122742654D01*
X66930381Y-122936000D01*
X66463603Y-123129346D01*
X66106346Y-123486603D01*
X65913000Y-123953381D01*
X65913000Y-124458619D01*
X66106346Y-124925397D01*
X66463603Y-125282654D01*
X66930381Y-125476000D01*
X67435619Y-125476000D01*
X67902397Y-125282654D01*
X68259654Y-124925397D01*
X68453000Y-124458619D01*
X68453000Y-123953381D01*
X68259654Y-123486603D01*
X67902397Y-123129346D01*
X67435619Y-122936000D01*
X67902397Y-122742654D01*
X68259654Y-122385397D01*
X68405555Y-122033159D01*
X158289000Y-122033159D01*
X158289000Y-122822841D01*
X158591199Y-123552412D01*
X159149588Y-124110801D01*
X159879159Y-124413000D01*
X160668841Y-124413000D01*
X161398412Y-124110801D01*
X161956801Y-123552412D01*
X162259000Y-122822841D01*
X162259000Y-122033159D01*
X161956801Y-121303588D01*
X161398412Y-120745199D01*
X160668841Y-120443000D01*
X159879159Y-120443000D01*
X159149588Y-120745199D01*
X158591199Y-121303588D01*
X158289000Y-122033159D01*
X68405555Y-122033159D01*
X68453000Y-121918619D01*
X68453000Y-121413381D01*
X68259654Y-120946603D01*
X67902397Y-120589346D01*
X67435619Y-120396000D01*
X67902397Y-120202654D01*
X68259654Y-119845397D01*
X68453000Y-119378619D01*
X68453000Y-118873381D01*
X68259654Y-118406603D01*
X67902397Y-118049346D01*
X67435619Y-117856000D01*
X67902397Y-117662654D01*
X68259654Y-117305397D01*
X68453000Y-116838619D01*
X68453000Y-116333381D01*
X68259654Y-115866603D01*
X67902397Y-115509346D01*
X67435619Y-115316000D01*
X67902397Y-115122654D01*
X68259654Y-114765397D01*
X68453000Y-114298619D01*
X68453000Y-113793381D01*
X68259654Y-113326603D01*
X67902397Y-112969346D01*
X67435619Y-112776000D01*
X67902397Y-112582654D01*
X68259654Y-112225397D01*
X68453000Y-111758619D01*
X68453000Y-111253381D01*
X68259654Y-110786603D01*
X67902397Y-110429346D01*
X67435619Y-110236000D01*
X67902397Y-110042654D01*
X68259654Y-109685397D01*
X68453000Y-109218619D01*
X68453000Y-108713381D01*
X68259654Y-108246603D01*
X67902397Y-107889346D01*
X67435619Y-107696000D01*
X67902397Y-107502654D01*
X68259654Y-107145397D01*
X68453000Y-106678619D01*
X68453000Y-106173381D01*
X68259654Y-105706603D01*
X67902397Y-105349346D01*
X67435619Y-105156000D01*
X67902397Y-104962654D01*
X68259654Y-104605397D01*
X68453000Y-104138619D01*
X68453000Y-103633381D01*
X68259654Y-103166603D01*
X67902397Y-102809346D01*
X67435619Y-102616000D01*
X67902397Y-102422654D01*
X68259654Y-102065397D01*
X68453000Y-101598619D01*
X68453000Y-101093381D01*
X68259654Y-100626603D01*
X67902397Y-100269346D01*
X67435619Y-100076000D01*
X67678235Y-99975505D01*
X72999600Y-99975505D01*
X72999600Y-100379695D01*
X73154276Y-100753118D01*
X73440082Y-101038924D01*
X73813505Y-101193600D01*
X73864168Y-101193600D01*
X75304793Y-102634226D01*
X75350848Y-102703152D01*
X75433836Y-102758603D01*
X75623905Y-102885604D01*
X75946000Y-102949672D01*
X76027303Y-102933500D01*
X78119425Y-102933500D01*
X78240820Y-103115180D01*
X78634158Y-103378000D01*
X78240820Y-103640820D01*
X77932056Y-104102918D01*
X77823632Y-104648000D01*
X77932056Y-105193082D01*
X78240820Y-105655180D01*
X78634158Y-105918000D01*
X78240820Y-106180820D01*
X77932056Y-106642918D01*
X77823632Y-107188000D01*
X77932056Y-107733082D01*
X78240820Y-108195180D01*
X78634158Y-108458000D01*
X78240820Y-108720820D01*
X77932056Y-109182918D01*
X77823632Y-109728000D01*
X77932056Y-110273082D01*
X78240820Y-110735180D01*
X78634158Y-110998000D01*
X78240820Y-111260820D01*
X77932056Y-111722918D01*
X77823632Y-112268000D01*
X77932056Y-112813082D01*
X78240820Y-113275180D01*
X78634158Y-113538000D01*
X78240820Y-113800820D01*
X77932056Y-114262918D01*
X77823632Y-114808000D01*
X77932056Y-115353082D01*
X78240820Y-115815180D01*
X78634158Y-116078000D01*
X78240820Y-116340820D01*
X77932056Y-116802918D01*
X77823632Y-117348000D01*
X77932056Y-117893082D01*
X78240820Y-118355180D01*
X78634158Y-118618000D01*
X78240820Y-118880820D01*
X77932056Y-119342918D01*
X77823632Y-119888000D01*
X77932056Y-120433082D01*
X78240820Y-120895180D01*
X78702918Y-121203944D01*
X79110412Y-121285000D01*
X80401588Y-121285000D01*
X80809082Y-121203944D01*
X81271180Y-120895180D01*
X81579944Y-120433082D01*
X81688368Y-119888000D01*
X81579944Y-119342918D01*
X81271180Y-118880820D01*
X80877842Y-118618000D01*
X81181374Y-118415186D01*
X99288864Y-118415186D01*
X99288864Y-119165086D01*
X99575838Y-119857903D01*
X100106097Y-120388162D01*
X100798914Y-120675136D01*
X101548814Y-120675136D01*
X102241631Y-120388162D01*
X102771890Y-119857903D01*
X103058864Y-119165086D01*
X103058864Y-118415186D01*
X102771890Y-117722369D01*
X102241631Y-117192110D01*
X101548814Y-116905136D01*
X100798914Y-116905136D01*
X100106097Y-117192110D01*
X99575838Y-117722369D01*
X99288864Y-118415186D01*
X81181374Y-118415186D01*
X81271180Y-118355180D01*
X81579944Y-117893082D01*
X81688368Y-117348000D01*
X81579944Y-116802918D01*
X81271180Y-116340820D01*
X80877842Y-116078000D01*
X81271180Y-115815180D01*
X81579944Y-115353082D01*
X81688368Y-114808000D01*
X81579944Y-114262918D01*
X81271180Y-113800820D01*
X80877842Y-113538000D01*
X81271180Y-113275180D01*
X81579944Y-112813082D01*
X81688368Y-112268000D01*
X81579944Y-111722918D01*
X81271180Y-111260820D01*
X80883489Y-111001773D01*
X89921080Y-111001773D01*
X89921080Y-112010227D01*
X90306999Y-112941917D01*
X91020083Y-113655001D01*
X91951773Y-114040920D01*
X92960227Y-114040920D01*
X93891917Y-113655001D01*
X94605001Y-112941917D01*
X94990920Y-112010227D01*
X94990920Y-111001773D01*
X105161080Y-111001773D01*
X105161080Y-112010227D01*
X105546999Y-112941917D01*
X106260083Y-113655001D01*
X107191773Y-114040920D01*
X108200227Y-114040920D01*
X109131917Y-113655001D01*
X109845001Y-112941917D01*
X110230920Y-112010227D01*
X110230920Y-111001773D01*
X120401080Y-111001773D01*
X120401080Y-112010227D01*
X120786999Y-112941917D01*
X121500083Y-113655001D01*
X122431773Y-114040920D01*
X123440227Y-114040920D01*
X124371917Y-113655001D01*
X125085001Y-112941917D01*
X125470920Y-112010227D01*
X125470920Y-111001773D01*
X135641080Y-111001773D01*
X135641080Y-112010227D01*
X136026999Y-112941917D01*
X136740083Y-113655001D01*
X137671773Y-114040920D01*
X138680227Y-114040920D01*
X139611917Y-113655001D01*
X140325001Y-112941917D01*
X140710920Y-112010227D01*
X140710920Y-111001773D01*
X150881080Y-111001773D01*
X150881080Y-112010227D01*
X151266999Y-112941917D01*
X151980083Y-113655001D01*
X152911773Y-114040920D01*
X153920227Y-114040920D01*
X154851917Y-113655001D01*
X155565001Y-112941917D01*
X155950920Y-112010227D01*
X155950920Y-111001773D01*
X155565001Y-110070083D01*
X154851917Y-109356999D01*
X153920227Y-108971080D01*
X152911773Y-108971080D01*
X151980083Y-109356999D01*
X151266999Y-110070083D01*
X150881080Y-111001773D01*
X140710920Y-111001773D01*
X140325001Y-110070083D01*
X139611917Y-109356999D01*
X138680227Y-108971080D01*
X137671773Y-108971080D01*
X136740083Y-109356999D01*
X136026999Y-110070083D01*
X135641080Y-111001773D01*
X125470920Y-111001773D01*
X125085001Y-110070083D01*
X124371917Y-109356999D01*
X123440227Y-108971080D01*
X122431773Y-108971080D01*
X121500083Y-109356999D01*
X120786999Y-110070083D01*
X120401080Y-111001773D01*
X110230920Y-111001773D01*
X109845001Y-110070083D01*
X109131917Y-109356999D01*
X108200227Y-108971080D01*
X107191773Y-108971080D01*
X106260083Y-109356999D01*
X105546999Y-110070083D01*
X105161080Y-111001773D01*
X94990920Y-111001773D01*
X94605001Y-110070083D01*
X93891917Y-109356999D01*
X92960227Y-108971080D01*
X91951773Y-108971080D01*
X91020083Y-109356999D01*
X90306999Y-110070083D01*
X89921080Y-111001773D01*
X80883489Y-111001773D01*
X80877842Y-110998000D01*
X81271180Y-110735180D01*
X81579944Y-110273082D01*
X81688368Y-109728000D01*
X81579944Y-109182918D01*
X81271180Y-108720820D01*
X80877842Y-108458000D01*
X81271180Y-108195180D01*
X81579944Y-107733082D01*
X81688368Y-107188000D01*
X81579944Y-106642918D01*
X81271180Y-106180820D01*
X80877842Y-105918000D01*
X80991923Y-105841773D01*
X114301832Y-105841773D01*
X114301832Y-106066279D01*
X114777673Y-106542121D01*
X114956302Y-106720749D01*
X115189691Y-106817422D01*
X115442310Y-106817421D01*
X115675699Y-106720748D01*
X116330168Y-106066279D01*
X116330168Y-105841773D01*
X115316000Y-104827605D01*
X114301832Y-105841773D01*
X80991923Y-105841773D01*
X81271180Y-105655180D01*
X81579944Y-105193082D01*
X81663243Y-104774309D01*
X113146578Y-104774309D01*
X113243251Y-105007698D01*
X113421879Y-105186327D01*
X113897721Y-105662168D01*
X114122227Y-105662168D01*
X115136395Y-104648000D01*
X115495605Y-104648000D01*
X116509773Y-105662168D01*
X116734279Y-105662168D01*
X117388748Y-105007699D01*
X117485421Y-104774310D01*
X117485422Y-104521691D01*
X117388749Y-104288302D01*
X117210121Y-104109673D01*
X116734279Y-103633832D01*
X116509773Y-103633832D01*
X115495605Y-104648000D01*
X115136395Y-104648000D01*
X114122227Y-103633832D01*
X113897721Y-103633832D01*
X113243252Y-104288301D01*
X113146579Y-104521690D01*
X113146578Y-104774309D01*
X81663243Y-104774309D01*
X81688368Y-104648000D01*
X81579944Y-104102918D01*
X81271180Y-103640820D01*
X80877842Y-103378000D01*
X81099757Y-103229721D01*
X114301832Y-103229721D01*
X114301832Y-103454227D01*
X115316000Y-104468395D01*
X116330168Y-103454227D01*
X116330168Y-103229721D01*
X115854327Y-102753879D01*
X115675698Y-102575251D01*
X115442309Y-102478578D01*
X115189690Y-102478579D01*
X114956301Y-102575252D01*
X114301832Y-103229721D01*
X81099757Y-103229721D01*
X81271180Y-103115180D01*
X81579944Y-102653082D01*
X81688368Y-102108000D01*
X81579944Y-101562918D01*
X81271180Y-101100820D01*
X80809082Y-100792056D01*
X80401588Y-100711000D01*
X79110412Y-100711000D01*
X78702918Y-100792056D01*
X78240820Y-101100820D01*
X78119425Y-101282500D01*
X76287933Y-101282500D01*
X75031600Y-100026168D01*
X75031600Y-99975505D01*
X74876924Y-99602082D01*
X74591118Y-99316276D01*
X74217695Y-99161600D01*
X73813505Y-99161600D01*
X73440082Y-99316276D01*
X73154276Y-99602082D01*
X72999600Y-99975505D01*
X67678235Y-99975505D01*
X67902397Y-99882654D01*
X68259654Y-99525397D01*
X68453000Y-99058619D01*
X68453000Y-98553381D01*
X68259654Y-98086603D01*
X67902397Y-97729346D01*
X67435619Y-97536000D01*
X67902397Y-97342654D01*
X68259654Y-96985397D01*
X68453000Y-96518619D01*
X68453000Y-96013381D01*
X68259654Y-95546603D01*
X67902397Y-95189346D01*
X67435619Y-94996000D01*
X67902397Y-94802654D01*
X68259654Y-94445397D01*
X68453000Y-93978619D01*
X68453000Y-93473381D01*
X68259654Y-93006603D01*
X67902397Y-92649346D01*
X67435619Y-92456000D01*
X67220468Y-92456000D01*
X67510023Y-92438906D01*
X67837697Y-92303179D01*
X67891528Y-92074133D01*
X67183000Y-91365605D01*
X66474472Y-92074133D01*
X66528303Y-92303179D01*
X66969088Y-92456000D01*
X66930381Y-92456000D01*
X66463603Y-92649346D01*
X66106346Y-93006603D01*
X65913000Y-93473381D01*
X43053000Y-93473381D01*
X42859654Y-93006603D01*
X42502397Y-92649346D01*
X42035619Y-92456000D01*
X42502397Y-92262654D01*
X42859654Y-91905397D01*
X43053000Y-91438619D01*
X43053000Y-91008664D01*
X65900319Y-91008664D01*
X65930094Y-91513023D01*
X66065821Y-91840697D01*
X66294867Y-91894528D01*
X67003395Y-91186000D01*
X67362605Y-91186000D01*
X68071133Y-91894528D01*
X68300179Y-91840697D01*
X68465681Y-91363336D01*
X68435906Y-90858977D01*
X68300179Y-90531303D01*
X68071133Y-90477472D01*
X67362605Y-91186000D01*
X67003395Y-91186000D01*
X66294867Y-90477472D01*
X66065821Y-90531303D01*
X65900319Y-91008664D01*
X43053000Y-91008664D01*
X43053000Y-90933381D01*
X42859654Y-90466603D01*
X42502397Y-90109346D01*
X42035619Y-89916000D01*
X42502397Y-89722654D01*
X42859654Y-89365397D01*
X43053000Y-88898619D01*
X43053000Y-88393381D01*
X42859654Y-87926603D01*
X42502397Y-87569346D01*
X42035619Y-87376000D01*
X42335562Y-87251759D01*
X58453020Y-87251759D01*
X58453020Y-87703441D01*
X58625872Y-88120741D01*
X58945259Y-88440128D01*
X59362559Y-88612980D01*
X59814241Y-88612980D01*
X60231541Y-88440128D01*
X60337700Y-88333969D01*
X60443859Y-88440128D01*
X60861159Y-88612980D01*
X61312841Y-88612980D01*
X61730141Y-88440128D01*
X62049528Y-88120741D01*
X62222380Y-87703441D01*
X62222380Y-87251759D01*
X62049528Y-86834459D01*
X61730141Y-86515072D01*
X61312841Y-86342220D01*
X60861159Y-86342220D01*
X60443859Y-86515072D01*
X60337700Y-86621231D01*
X60231541Y-86515072D01*
X59814241Y-86342220D01*
X59362559Y-86342220D01*
X58945259Y-86515072D01*
X58625872Y-86834459D01*
X58453020Y-87251759D01*
X42335562Y-87251759D01*
X42502397Y-87182654D01*
X42859654Y-86825397D01*
X43053000Y-86358619D01*
X43053000Y-85853381D01*
X42859654Y-85386603D01*
X42502397Y-85029346D01*
X42035619Y-84836000D01*
X42502397Y-84642654D01*
X42859654Y-84285397D01*
X43053000Y-83818619D01*
X43053000Y-83694105D01*
X64389000Y-83694105D01*
X64389000Y-84098295D01*
X64543676Y-84471718D01*
X64829482Y-84757524D01*
X65202905Y-84912200D01*
X65607095Y-84912200D01*
X65980518Y-84757524D01*
X66266324Y-84471718D01*
X66274040Y-84453091D01*
X66463603Y-84642654D01*
X66930381Y-84836000D01*
X66463603Y-85029346D01*
X66106346Y-85386603D01*
X65913000Y-85853381D01*
X65913000Y-86358619D01*
X66106346Y-86825397D01*
X66463603Y-87182654D01*
X66930381Y-87376000D01*
X66463603Y-87569346D01*
X66106346Y-87926603D01*
X65913000Y-88393381D01*
X65913000Y-88898619D01*
X66106346Y-89365397D01*
X66463603Y-89722654D01*
X66930381Y-89916000D01*
X67145532Y-89916000D01*
X66855977Y-89933094D01*
X66528303Y-90068821D01*
X66474472Y-90297867D01*
X67183000Y-91006395D01*
X67891528Y-90297867D01*
X67837697Y-90068821D01*
X67396912Y-89916000D01*
X67435619Y-89916000D01*
X67902397Y-89722654D01*
X68259654Y-89365397D01*
X68453000Y-88898619D01*
X68453000Y-88393381D01*
X68259654Y-87926603D01*
X67902397Y-87569346D01*
X67435619Y-87376000D01*
X67902397Y-87182654D01*
X68259654Y-86825397D01*
X68453000Y-86358619D01*
X68453000Y-85853381D01*
X68259654Y-85386603D01*
X68217051Y-85344000D01*
X77823632Y-85344000D01*
X77932056Y-85889082D01*
X78240820Y-86351180D01*
X78634158Y-86614000D01*
X78240820Y-86876820D01*
X77932056Y-87338918D01*
X77823632Y-87884000D01*
X77932056Y-88429082D01*
X78240820Y-88891180D01*
X78634158Y-89154000D01*
X78240820Y-89416820D01*
X77932056Y-89878918D01*
X77823632Y-90424000D01*
X77932056Y-90969082D01*
X78240820Y-91431180D01*
X78634158Y-91694000D01*
X78240820Y-91956820D01*
X77932056Y-92418918D01*
X77823632Y-92964000D01*
X77932056Y-93509082D01*
X78240820Y-93971180D01*
X78634158Y-94234000D01*
X78240820Y-94496820D01*
X77932056Y-94958918D01*
X77823632Y-95504000D01*
X77932056Y-96049082D01*
X78240820Y-96511180D01*
X78634158Y-96774000D01*
X78240820Y-97036820D01*
X77932056Y-97498918D01*
X77823632Y-98044000D01*
X77932056Y-98589082D01*
X78240820Y-99051180D01*
X78702918Y-99359944D01*
X79110412Y-99441000D01*
X80401588Y-99441000D01*
X80809082Y-99359944D01*
X81271180Y-99051180D01*
X81384729Y-98881242D01*
X81407000Y-98885672D01*
X81488301Y-98869500D01*
X81488303Y-98869500D01*
X81729094Y-98821604D01*
X82002152Y-98639152D01*
X82048209Y-98570223D01*
X85182444Y-95435989D01*
X85327495Y-95375907D01*
X85613301Y-95090101D01*
X85767977Y-94716678D01*
X85767977Y-94312488D01*
X85613301Y-93939065D01*
X85327495Y-93653259D01*
X85305340Y-93644082D01*
X85305340Y-93401247D01*
X85199346Y-93145353D01*
X85324330Y-92843612D01*
X85324330Y-92439422D01*
X85255474Y-92273187D01*
X85268542Y-92260119D01*
X85423218Y-91886696D01*
X85423218Y-91482506D01*
X85268542Y-91109083D01*
X84982736Y-90823277D01*
X84609313Y-90668601D01*
X84205123Y-90668601D01*
X83831700Y-90823277D01*
X83795876Y-90859101D01*
X83693998Y-90859101D01*
X83360897Y-90526000D01*
X85951633Y-90526000D01*
X85979000Y-90663584D01*
X85979001Y-98491204D01*
X85951633Y-98628793D01*
X86060056Y-99173874D01*
X86155206Y-99316276D01*
X86368821Y-99635973D01*
X86485462Y-99713910D01*
X88246090Y-101474539D01*
X88324027Y-101591180D01*
X88786125Y-101899944D01*
X89193619Y-101981000D01*
X89193624Y-101981000D01*
X89331206Y-102008367D01*
X89468789Y-101981000D01*
X102986413Y-101981000D01*
X103124000Y-102008368D01*
X103261588Y-101981000D01*
X118480416Y-101981000D01*
X118618000Y-102008367D01*
X118755584Y-101981000D01*
X132261272Y-101981000D01*
X132398856Y-102008367D01*
X132536440Y-101981000D01*
X132536444Y-101981000D01*
X132943938Y-101899944D01*
X133406036Y-101591180D01*
X133483975Y-101474536D01*
X134523396Y-100435116D01*
X134640034Y-100357181D01*
X134717970Y-100240542D01*
X134717972Y-100240540D01*
X134948799Y-99895083D01*
X135000339Y-99635973D01*
X135029855Y-99487589D01*
X135029855Y-99487586D01*
X135057222Y-99350002D01*
X135029855Y-99212418D01*
X135029855Y-96977039D01*
X135185190Y-97062649D01*
X135279168Y-97083540D01*
X135509000Y-96962214D01*
X135509000Y-94869000D01*
X135489000Y-94869000D01*
X135489000Y-94615000D01*
X135509000Y-94615000D01*
X135509000Y-92521786D01*
X135763000Y-92521786D01*
X135763000Y-94615000D01*
X135783000Y-94615000D01*
X135783000Y-94869000D01*
X135763000Y-94869000D01*
X135763000Y-96962214D01*
X135992832Y-97083540D01*
X136086810Y-97062649D01*
X136595989Y-96782024D01*
X136898803Y-96403230D01*
X137105642Y-96712788D01*
X137596726Y-97040920D01*
X138176000Y-97156145D01*
X138755273Y-97040920D01*
X139246358Y-96712788D01*
X139446000Y-96414002D01*
X139645642Y-96712788D01*
X140136726Y-97040920D01*
X140716000Y-97156145D01*
X141295273Y-97040920D01*
X141786358Y-96712788D01*
X142114490Y-96221704D01*
X142200630Y-95788650D01*
X142200630Y-94869000D01*
X149391370Y-94869000D01*
X149391370Y-95769430D01*
X149552982Y-96327906D01*
X149916011Y-96782024D01*
X150425190Y-97062649D01*
X150519168Y-97083540D01*
X150749000Y-96962214D01*
X150749000Y-94869000D01*
X149391370Y-94869000D01*
X142200630Y-94869000D01*
X142200630Y-93714570D01*
X149391370Y-93714570D01*
X149391370Y-94615000D01*
X150749000Y-94615000D01*
X150749000Y-92521786D01*
X151003000Y-92521786D01*
X151003000Y-94615000D01*
X151023000Y-94615000D01*
X151023000Y-94869000D01*
X151003000Y-94869000D01*
X151003000Y-96962214D01*
X151232832Y-97083540D01*
X151326810Y-97062649D01*
X151835989Y-96782024D01*
X152138803Y-96403230D01*
X152345642Y-96712788D01*
X152836726Y-97040920D01*
X153416000Y-97156145D01*
X153995273Y-97040920D01*
X154486358Y-96712788D01*
X154686000Y-96414002D01*
X154885642Y-96712788D01*
X155376726Y-97040920D01*
X155956000Y-97156145D01*
X156535273Y-97040920D01*
X157026358Y-96712788D01*
X157354490Y-96221704D01*
X157440630Y-95788650D01*
X157440630Y-93695350D01*
X157354490Y-93262296D01*
X157026358Y-92771212D01*
X156535274Y-92443080D01*
X155956000Y-92327855D01*
X155376727Y-92443080D01*
X154885643Y-92771212D01*
X154686001Y-93069998D01*
X154486358Y-92771212D01*
X153995274Y-92443080D01*
X153416000Y-92327855D01*
X152836727Y-92443080D01*
X152345643Y-92771212D01*
X152138803Y-93080770D01*
X151835989Y-92701976D01*
X151326810Y-92421351D01*
X151232832Y-92400460D01*
X151003000Y-92521786D01*
X150749000Y-92521786D01*
X150519168Y-92400460D01*
X150425190Y-92421351D01*
X149916011Y-92701976D01*
X149552982Y-93156094D01*
X149391370Y-93714570D01*
X142200630Y-93714570D01*
X142200630Y-93695350D01*
X142114490Y-93262296D01*
X141786358Y-92771212D01*
X141295274Y-92443080D01*
X140716000Y-92327855D01*
X140136727Y-92443080D01*
X139645643Y-92771212D01*
X139446001Y-93069998D01*
X139246358Y-92771212D01*
X138755274Y-92443080D01*
X138176000Y-92327855D01*
X137596727Y-92443080D01*
X137105643Y-92771212D01*
X136898803Y-93080770D01*
X136595989Y-92701976D01*
X136086810Y-92421351D01*
X135992832Y-92400460D01*
X135763000Y-92521786D01*
X135509000Y-92521786D01*
X135279168Y-92400460D01*
X135185190Y-92421351D01*
X135029855Y-92506961D01*
X135029855Y-90313800D01*
X136526541Y-88817115D01*
X136643179Y-88739180D01*
X136721115Y-88622541D01*
X136721117Y-88622539D01*
X136951944Y-88277082D01*
X137004871Y-88011000D01*
X137033000Y-87869588D01*
X137033000Y-87869584D01*
X137060367Y-87732000D01*
X137033000Y-87594416D01*
X137033000Y-85420412D01*
X136951944Y-85012918D01*
X136933440Y-84985225D01*
X136933440Y-84908000D01*
X136884157Y-84660235D01*
X136743809Y-84450191D01*
X136533765Y-84309843D01*
X136286000Y-84260560D01*
X136208775Y-84260560D01*
X136181082Y-84242056D01*
X136172438Y-84240337D01*
X136299729Y-84187611D01*
X136355410Y-83957016D01*
X135636000Y-83237605D01*
X134916590Y-83957016D01*
X134972271Y-84187611D01*
X135114976Y-84237271D01*
X135090919Y-84242056D01*
X135063226Y-84260560D01*
X134986000Y-84260560D01*
X134738235Y-84309843D01*
X134528191Y-84450191D01*
X134387843Y-84660235D01*
X134338560Y-84908000D01*
X134338560Y-84985226D01*
X134320057Y-85012918D01*
X134239001Y-85420412D01*
X134239000Y-87153344D01*
X132742317Y-88650028D01*
X132625676Y-88727965D01*
X132547739Y-88844606D01*
X132547738Y-88844607D01*
X132316911Y-89190064D01*
X132208488Y-89735145D01*
X132235856Y-89872734D01*
X132235855Y-98771345D01*
X131820201Y-99187000D01*
X119701945Y-99187000D01*
X119701945Y-96928589D01*
X119945190Y-97062649D01*
X120039168Y-97083540D01*
X120269000Y-96962214D01*
X120269000Y-94869000D01*
X120249000Y-94869000D01*
X120249000Y-94615000D01*
X120269000Y-94615000D01*
X120269000Y-92521786D01*
X120523000Y-92521786D01*
X120523000Y-94615000D01*
X120543000Y-94615000D01*
X120543000Y-94869000D01*
X120523000Y-94869000D01*
X120523000Y-96962214D01*
X120752832Y-97083540D01*
X120846810Y-97062649D01*
X121355989Y-96782024D01*
X121658803Y-96403230D01*
X121865642Y-96712788D01*
X122356726Y-97040920D01*
X122936000Y-97156145D01*
X123515273Y-97040920D01*
X124006358Y-96712788D01*
X124206000Y-96414002D01*
X124405642Y-96712788D01*
X124896726Y-97040920D01*
X125476000Y-97156145D01*
X126055273Y-97040920D01*
X126546358Y-96712788D01*
X126874490Y-96221704D01*
X126960630Y-95788650D01*
X126960630Y-93695350D01*
X126874490Y-93262296D01*
X126546358Y-92771212D01*
X126055274Y-92443080D01*
X125476000Y-92327855D01*
X124896727Y-92443080D01*
X124405643Y-92771212D01*
X124206001Y-93069998D01*
X124006358Y-92771212D01*
X123515274Y-92443080D01*
X122936000Y-92327855D01*
X122356727Y-92443080D01*
X121865643Y-92771212D01*
X121658803Y-93080770D01*
X121355989Y-92701976D01*
X120846810Y-92421351D01*
X120752832Y-92400460D01*
X120523000Y-92521786D01*
X120269000Y-92521786D01*
X120039168Y-92400460D01*
X119945190Y-92421351D01*
X119701945Y-92555411D01*
X119701945Y-90147710D01*
X121032539Y-88817117D01*
X121149180Y-88739180D01*
X121457944Y-88277082D01*
X121539000Y-87869588D01*
X121539000Y-87869585D01*
X121566367Y-87732001D01*
X121539000Y-87594417D01*
X121539000Y-85420412D01*
X121457944Y-85012918D01*
X121439440Y-84985225D01*
X121439440Y-84908000D01*
X121390157Y-84660235D01*
X121249809Y-84450191D01*
X121039765Y-84309843D01*
X120792000Y-84260560D01*
X120714774Y-84260560D01*
X120687081Y-84242056D01*
X120678438Y-84240337D01*
X120805729Y-84187611D01*
X120861410Y-83957016D01*
X120142000Y-83237605D01*
X119422590Y-83957016D01*
X119478271Y-84187611D01*
X119620976Y-84237271D01*
X119596918Y-84242056D01*
X119569225Y-84260560D01*
X119492000Y-84260560D01*
X119244235Y-84309843D01*
X119034191Y-84450191D01*
X118893843Y-84660235D01*
X118844560Y-84908000D01*
X118844560Y-84985226D01*
X118826056Y-85012919D01*
X118745000Y-85420413D01*
X118745001Y-87153344D01*
X117414407Y-88483938D01*
X117297765Y-88561876D01*
X116989001Y-89023974D01*
X116907945Y-89431468D01*
X116907945Y-89431471D01*
X116880578Y-89569055D01*
X116907945Y-89706639D01*
X116907946Y-99187000D01*
X104521000Y-99187000D01*
X104521000Y-96961136D01*
X104705190Y-97062649D01*
X104799168Y-97083540D01*
X105029000Y-96962214D01*
X105029000Y-94869000D01*
X105009000Y-94869000D01*
X105009000Y-94615000D01*
X105029000Y-94615000D01*
X105029000Y-92521786D01*
X105283000Y-92521786D01*
X105283000Y-94615000D01*
X105303000Y-94615000D01*
X105303000Y-94869000D01*
X105283000Y-94869000D01*
X105283000Y-96962214D01*
X105512832Y-97083540D01*
X105606810Y-97062649D01*
X106115989Y-96782024D01*
X106418803Y-96403230D01*
X106625642Y-96712788D01*
X107116726Y-97040920D01*
X107696000Y-97156145D01*
X108275273Y-97040920D01*
X108766358Y-96712788D01*
X108966000Y-96414002D01*
X109165642Y-96712788D01*
X109656726Y-97040920D01*
X110236000Y-97156145D01*
X110815273Y-97040920D01*
X111306358Y-96712788D01*
X111634490Y-96221704D01*
X111720630Y-95788650D01*
X111720630Y-93695350D01*
X111634490Y-93262296D01*
X111306358Y-92771212D01*
X110815274Y-92443080D01*
X110236000Y-92327855D01*
X109656727Y-92443080D01*
X109165643Y-92771212D01*
X108966001Y-93069998D01*
X108766358Y-92771212D01*
X108275274Y-92443080D01*
X107696000Y-92327855D01*
X107116727Y-92443080D01*
X106625643Y-92771212D01*
X106418803Y-93080770D01*
X106115989Y-92701976D01*
X105606810Y-92421351D01*
X105512832Y-92400460D01*
X105283000Y-92521786D01*
X105029000Y-92521786D01*
X104799168Y-92400460D01*
X104705190Y-92421351D01*
X104521000Y-92522864D01*
X104521000Y-90088655D01*
X105792539Y-88817117D01*
X105909180Y-88739180D01*
X106217944Y-88277082D01*
X106299000Y-87869588D01*
X106299000Y-87869584D01*
X106326367Y-87732000D01*
X106299000Y-87594416D01*
X106299000Y-85420412D01*
X106217944Y-85012918D01*
X106199440Y-84985225D01*
X106199440Y-84908000D01*
X106150157Y-84660235D01*
X106009809Y-84450191D01*
X105799765Y-84309843D01*
X105552000Y-84260560D01*
X105474774Y-84260560D01*
X105447081Y-84242056D01*
X105438438Y-84240337D01*
X105565729Y-84187611D01*
X105621410Y-83957016D01*
X104902000Y-83237605D01*
X104182590Y-83957016D01*
X104238271Y-84187611D01*
X104380976Y-84237271D01*
X104356918Y-84242056D01*
X104329225Y-84260560D01*
X104252000Y-84260560D01*
X104004235Y-84309843D01*
X103794191Y-84450191D01*
X103653843Y-84660235D01*
X103604560Y-84908000D01*
X103604560Y-84985226D01*
X103586056Y-85012919D01*
X103505000Y-85420413D01*
X103505001Y-87153344D01*
X102233462Y-88424883D01*
X102116820Y-88502821D01*
X101808056Y-88964919D01*
X101727000Y-89372413D01*
X101727000Y-89372416D01*
X101699633Y-89510000D01*
X101727000Y-89647584D01*
X101727001Y-99187000D01*
X89909863Y-99187000D01*
X88773000Y-98050138D01*
X88773000Y-96553093D01*
X88956011Y-96782024D01*
X89465190Y-97062649D01*
X89559168Y-97083540D01*
X89789000Y-96962214D01*
X89789000Y-94869000D01*
X89769000Y-94869000D01*
X89769000Y-94615000D01*
X89789000Y-94615000D01*
X89789000Y-92521786D01*
X90043000Y-92521786D01*
X90043000Y-94615000D01*
X90063000Y-94615000D01*
X90063000Y-94869000D01*
X90043000Y-94869000D01*
X90043000Y-96962214D01*
X90272832Y-97083540D01*
X90366810Y-97062649D01*
X90875989Y-96782024D01*
X91178803Y-96403230D01*
X91385642Y-96712788D01*
X91876726Y-97040920D01*
X92456000Y-97156145D01*
X93035273Y-97040920D01*
X93526358Y-96712788D01*
X93726000Y-96414002D01*
X93925642Y-96712788D01*
X94416726Y-97040920D01*
X94996000Y-97156145D01*
X95575273Y-97040920D01*
X96066358Y-96712788D01*
X96394490Y-96221704D01*
X96480630Y-95788650D01*
X96480630Y-93695350D01*
X96394490Y-93262296D01*
X96066358Y-92771212D01*
X95575274Y-92443080D01*
X94996000Y-92327855D01*
X94416727Y-92443080D01*
X93925643Y-92771212D01*
X93726001Y-93069998D01*
X93526358Y-92771212D01*
X93035274Y-92443080D01*
X92456000Y-92327855D01*
X91876727Y-92443080D01*
X91385643Y-92771212D01*
X91178803Y-93080770D01*
X90875989Y-92701976D01*
X90366810Y-92421351D01*
X90272832Y-92400460D01*
X90043000Y-92521786D01*
X89789000Y-92521786D01*
X89559168Y-92400460D01*
X89465190Y-92421351D01*
X88956011Y-92701976D01*
X88773000Y-92930907D01*
X88773000Y-91104655D01*
X91060539Y-88817117D01*
X91177180Y-88739180D01*
X91485944Y-88277082D01*
X91567000Y-87869588D01*
X91567000Y-87869584D01*
X91594367Y-87732000D01*
X91567000Y-87594416D01*
X91567000Y-85420412D01*
X91485944Y-85012918D01*
X91467440Y-84985225D01*
X91467440Y-84908000D01*
X91418157Y-84660235D01*
X91277809Y-84450191D01*
X91067765Y-84309843D01*
X90820000Y-84260560D01*
X90742774Y-84260560D01*
X90715081Y-84242056D01*
X90706438Y-84240337D01*
X90833729Y-84187611D01*
X90889410Y-83957016D01*
X90170000Y-83237605D01*
X89450590Y-83957016D01*
X89506271Y-84187611D01*
X89648976Y-84237271D01*
X89624918Y-84242056D01*
X89597225Y-84260560D01*
X89520000Y-84260560D01*
X89272235Y-84309843D01*
X89062191Y-84450191D01*
X88921843Y-84660235D01*
X88872560Y-84908000D01*
X88872560Y-84985226D01*
X88854056Y-85012919D01*
X88773000Y-85420413D01*
X88773001Y-87153343D01*
X86485462Y-89440883D01*
X86368820Y-89518821D01*
X86060056Y-89980919D01*
X85979000Y-90388413D01*
X85979000Y-90388416D01*
X85951633Y-90526000D01*
X83360897Y-90526000D01*
X81453386Y-88618490D01*
X81579944Y-88429082D01*
X81688368Y-87884000D01*
X81579944Y-87338918D01*
X81271180Y-86876820D01*
X80877842Y-86614000D01*
X81271180Y-86351180D01*
X81579944Y-85889082D01*
X81688368Y-85344000D01*
X81579944Y-84798918D01*
X81271180Y-84336820D01*
X80860511Y-84062420D01*
X80915941Y-84046059D01*
X81341630Y-83702026D01*
X81603260Y-83221277D01*
X81618220Y-83147070D01*
X81495720Y-82931000D01*
X79883000Y-82931000D01*
X79883000Y-82951000D01*
X79629000Y-82951000D01*
X79629000Y-82931000D01*
X78016280Y-82931000D01*
X77893780Y-83147070D01*
X77908740Y-83221277D01*
X78170370Y-83702026D01*
X78596059Y-84046059D01*
X78651489Y-84062420D01*
X78240820Y-84336820D01*
X77932056Y-84798918D01*
X77823632Y-85344000D01*
X68217051Y-85344000D01*
X67902397Y-85029346D01*
X67435619Y-84836000D01*
X67902397Y-84642654D01*
X68259654Y-84285397D01*
X68453000Y-83818619D01*
X68453000Y-83717433D01*
X68472193Y-83736625D01*
X68518248Y-83805552D01*
X68791306Y-83988004D01*
X68992663Y-84028056D01*
X69113400Y-84052072D01*
X69194703Y-84035900D01*
X69864221Y-84035900D01*
X69945522Y-84052072D01*
X70026823Y-84035900D01*
X70026825Y-84035900D01*
X70267616Y-83988004D01*
X70540674Y-83805552D01*
X70586731Y-83736623D01*
X71532055Y-82791300D01*
X72515258Y-82791300D01*
X72551082Y-82827124D01*
X72924505Y-82981800D01*
X73328695Y-82981800D01*
X73581517Y-82877078D01*
X88872378Y-82877078D01*
X88901917Y-83387428D01*
X89040389Y-83721729D01*
X89270984Y-83777410D01*
X89990395Y-83058000D01*
X90349605Y-83058000D01*
X91069016Y-83777410D01*
X91299611Y-83721729D01*
X91467622Y-83238922D01*
X91446679Y-82877078D01*
X103604378Y-82877078D01*
X103633917Y-83387428D01*
X103772389Y-83721729D01*
X104002984Y-83777410D01*
X104722395Y-83058000D01*
X105081605Y-83058000D01*
X105801016Y-83777410D01*
X106031611Y-83721729D01*
X106199622Y-83238922D01*
X106178679Y-82877078D01*
X118844378Y-82877078D01*
X118873917Y-83387428D01*
X119012389Y-83721729D01*
X119242984Y-83777410D01*
X119962395Y-83058000D01*
X120321605Y-83058000D01*
X121041016Y-83777410D01*
X121271611Y-83721729D01*
X121439622Y-83238922D01*
X121418679Y-82877078D01*
X134338378Y-82877078D01*
X134367917Y-83387428D01*
X134506389Y-83721729D01*
X134736984Y-83777410D01*
X135456395Y-83058000D01*
X135815605Y-83058000D01*
X136535016Y-83777410D01*
X136765611Y-83721729D01*
X136933622Y-83238922D01*
X136904083Y-82728572D01*
X136765611Y-82394271D01*
X136535016Y-82338590D01*
X135815605Y-83058000D01*
X135456395Y-83058000D01*
X134736984Y-82338590D01*
X134506389Y-82394271D01*
X134338378Y-82877078D01*
X121418679Y-82877078D01*
X121410083Y-82728572D01*
X121271611Y-82394271D01*
X121041016Y-82338590D01*
X120321605Y-83058000D01*
X119962395Y-83058000D01*
X119242984Y-82338590D01*
X119012389Y-82394271D01*
X118844378Y-82877078D01*
X106178679Y-82877078D01*
X106170083Y-82728572D01*
X106031611Y-82394271D01*
X105801016Y-82338590D01*
X105081605Y-83058000D01*
X104722395Y-83058000D01*
X104002984Y-82338590D01*
X103772389Y-82394271D01*
X103604378Y-82877078D01*
X91446679Y-82877078D01*
X91438083Y-82728572D01*
X91299611Y-82394271D01*
X91069016Y-82338590D01*
X90349605Y-83058000D01*
X89990395Y-83058000D01*
X89270984Y-82338590D01*
X89040389Y-82394271D01*
X88872378Y-82877078D01*
X73581517Y-82877078D01*
X73702118Y-82827124D01*
X73987924Y-82541318D01*
X74142600Y-82167895D01*
X74142600Y-81763705D01*
X73987924Y-81390282D01*
X73702118Y-81104476D01*
X73328695Y-80949800D01*
X72924505Y-80949800D01*
X72551082Y-81104476D01*
X72515258Y-81140300D01*
X71851638Y-81140300D01*
X73770646Y-79221293D01*
X76936260Y-79221293D01*
X77260594Y-79545628D01*
X77306648Y-79614552D01*
X77375571Y-79660605D01*
X77375572Y-79660606D01*
X77462842Y-79718918D01*
X77579706Y-79797004D01*
X77820497Y-79844900D01*
X77820501Y-79844900D01*
X77901799Y-79861071D01*
X77903861Y-79860661D01*
X77823632Y-80264000D01*
X77932056Y-80809082D01*
X78240820Y-81271180D01*
X78651489Y-81545580D01*
X78596059Y-81561941D01*
X78170370Y-81905974D01*
X77908740Y-82386723D01*
X77893780Y-82460930D01*
X78016280Y-82677000D01*
X79629000Y-82677000D01*
X79629000Y-82657000D01*
X79883000Y-82657000D01*
X79883000Y-82677000D01*
X81495720Y-82677000D01*
X81618220Y-82460930D01*
X81603260Y-82386723D01*
X81479322Y-82158984D01*
X89450590Y-82158984D01*
X90170000Y-82878395D01*
X90889410Y-82158984D01*
X104182590Y-82158984D01*
X104902000Y-82878395D01*
X105621410Y-82158984D01*
X119422590Y-82158984D01*
X120142000Y-82878395D01*
X120861410Y-82158984D01*
X134916590Y-82158984D01*
X135636000Y-82878395D01*
X136355410Y-82158984D01*
X136299729Y-81928389D01*
X135816922Y-81760378D01*
X135306572Y-81789917D01*
X134972271Y-81928389D01*
X134916590Y-82158984D01*
X120861410Y-82158984D01*
X120805729Y-81928389D01*
X120322922Y-81760378D01*
X119812572Y-81789917D01*
X119478271Y-81928389D01*
X119422590Y-82158984D01*
X105621410Y-82158984D01*
X105565729Y-81928389D01*
X105082922Y-81760378D01*
X104572572Y-81789917D01*
X104238271Y-81928389D01*
X104182590Y-82158984D01*
X90889410Y-82158984D01*
X90833729Y-81928389D01*
X90350922Y-81760378D01*
X89840572Y-81789917D01*
X89506271Y-81928389D01*
X89450590Y-82158984D01*
X81479322Y-82158984D01*
X81341630Y-81905974D01*
X80915941Y-81561941D01*
X80860511Y-81545580D01*
X81271180Y-81271180D01*
X81579944Y-80809082D01*
X81688368Y-80264000D01*
X81579944Y-79718918D01*
X81513093Y-79618868D01*
X81519552Y-79614552D01*
X81565609Y-79545623D01*
X81942733Y-79168499D01*
X82011662Y-79122442D01*
X82194114Y-78849384D01*
X82242010Y-78608593D01*
X82242010Y-78608592D01*
X82258182Y-78527290D01*
X82242010Y-78445987D01*
X82242010Y-76417807D01*
X82258181Y-76336509D01*
X82242010Y-76255211D01*
X82242010Y-76255207D01*
X82194114Y-76014416D01*
X82011662Y-75741358D01*
X81942736Y-75695303D01*
X81645740Y-75398307D01*
X81688368Y-75184000D01*
X81579944Y-74638918D01*
X81271180Y-74176820D01*
X80809082Y-73868056D01*
X80401588Y-73787000D01*
X79110412Y-73787000D01*
X78702918Y-73868056D01*
X78240820Y-74176820D01*
X77932056Y-74638918D01*
X77823632Y-75184000D01*
X77932056Y-75729082D01*
X78240820Y-76191180D01*
X78634158Y-76454000D01*
X78240820Y-76716820D01*
X78119425Y-76898500D01*
X73557788Y-76898500D01*
X73710800Y-76529095D01*
X73710800Y-76124905D01*
X73556124Y-75751482D01*
X73450837Y-75646195D01*
X74227741Y-74869292D01*
X74295001Y-74882671D01*
X74376302Y-74866499D01*
X74376304Y-74866499D01*
X74617095Y-74818603D01*
X74830515Y-74676000D01*
X74878095Y-74676000D01*
X75251518Y-74521324D01*
X75537324Y-74235518D01*
X75692000Y-73862095D01*
X75692000Y-73457905D01*
X75537324Y-73084482D01*
X75251518Y-72798676D01*
X74878095Y-72644000D01*
X74473905Y-72644000D01*
X74100482Y-72798676D01*
X73814676Y-73084482D01*
X73756197Y-73225664D01*
X73566507Y-73263395D01*
X73293449Y-73445847D01*
X73247394Y-73514773D01*
X73014338Y-73747829D01*
X72958681Y-73468024D01*
X72706056Y-73089944D01*
X72327976Y-72837319D01*
X71881999Y-72748608D01*
X71436023Y-72837319D01*
X71153377Y-73026177D01*
X66963555Y-77216000D01*
X66930381Y-77216000D01*
X66463603Y-77409346D01*
X66106346Y-77766603D01*
X65913000Y-78233381D01*
X65913000Y-78738619D01*
X66033823Y-79030311D01*
X65800448Y-79186248D01*
X65754393Y-79255174D01*
X64878777Y-80130791D01*
X64809848Y-80176848D01*
X64627396Y-80449907D01*
X64585900Y-80658522D01*
X64563328Y-80772000D01*
X64579500Y-80853302D01*
X64579501Y-83284857D01*
X64543676Y-83320682D01*
X64389000Y-83694105D01*
X43053000Y-83694105D01*
X43053000Y-83313381D01*
X42859654Y-82846603D01*
X42502397Y-82489346D01*
X42035619Y-82296000D01*
X42502397Y-82102654D01*
X42859654Y-81745397D01*
X43053000Y-81278619D01*
X43053000Y-80773381D01*
X42859654Y-80306603D01*
X42502397Y-79949346D01*
X42035619Y-79756000D01*
X42502397Y-79562654D01*
X42859654Y-79205397D01*
X43053000Y-78738619D01*
X43053000Y-78233381D01*
X42859654Y-77766603D01*
X42502397Y-77409346D01*
X42035619Y-77216000D01*
X41530381Y-77216000D01*
X41063603Y-77409346D01*
X40706346Y-77766603D01*
X40513000Y-78233381D01*
X21792000Y-78233381D01*
X21792000Y-66167000D01*
X25308349Y-66167000D01*
X25283087Y-66294000D01*
X25394460Y-66853909D01*
X25711623Y-67328577D01*
X26063958Y-67564000D01*
X25711623Y-67799423D01*
X25394460Y-68274091D01*
X25283087Y-68834000D01*
X25394460Y-69393909D01*
X25711623Y-69868577D01*
X26063958Y-70104000D01*
X25711623Y-70339423D01*
X25394460Y-70814091D01*
X25283087Y-71374000D01*
X25394460Y-71933909D01*
X25711623Y-72408577D01*
X25920701Y-72548278D01*
X25920701Y-73629494D01*
X25904528Y-73710800D01*
X25966512Y-74022412D01*
X25968597Y-74032894D01*
X26151049Y-74305952D01*
X26219975Y-74352007D01*
X27806793Y-75938826D01*
X27852848Y-76007752D01*
X28125906Y-76190204D01*
X28448000Y-76254272D01*
X28529303Y-76238100D01*
X32281658Y-76238100D01*
X32317482Y-76273924D01*
X32690905Y-76428600D01*
X33095095Y-76428600D01*
X33468518Y-76273924D01*
X33754324Y-75988118D01*
X33909000Y-75614695D01*
X33909000Y-75210505D01*
X33754324Y-74837082D01*
X33468518Y-74551276D01*
X33095095Y-74396600D01*
X32690905Y-74396600D01*
X32317482Y-74551276D01*
X32281658Y-74587100D01*
X28789933Y-74587100D01*
X27571700Y-73368868D01*
X27571700Y-72548278D01*
X27780777Y-72408577D01*
X28097940Y-71933909D01*
X28209313Y-71374000D01*
X28097940Y-70814091D01*
X27780777Y-70339423D01*
X27428442Y-70104000D01*
X27780777Y-69868577D01*
X28097940Y-69393909D01*
X28209313Y-68834000D01*
X28097940Y-68274091D01*
X27780777Y-67799423D01*
X27428442Y-67564000D01*
X27780777Y-67328577D01*
X28097940Y-66853909D01*
X28198044Y-66350650D01*
X32004000Y-70156606D01*
X32004000Y-73406000D01*
X32013667Y-73454601D01*
X32041197Y-73495803D01*
X32082399Y-73523333D01*
X32131000Y-73533000D01*
X36322000Y-73533000D01*
X36370601Y-73523333D01*
X36411803Y-73495803D01*
X36439333Y-73454601D01*
X36449000Y-73406000D01*
X36449000Y-72503159D01*
X158289000Y-72503159D01*
X158289000Y-73292841D01*
X158591199Y-74022412D01*
X159149588Y-74580801D01*
X159879159Y-74883000D01*
X160668841Y-74883000D01*
X161398412Y-74580801D01*
X161956801Y-74022412D01*
X162259000Y-73292841D01*
X162259000Y-72503159D01*
X161956801Y-71773588D01*
X161398412Y-71215199D01*
X160668841Y-70913000D01*
X159879159Y-70913000D01*
X159149588Y-71215199D01*
X158591199Y-71773588D01*
X158289000Y-72503159D01*
X36449000Y-72503159D01*
X36449000Y-68428705D01*
X46431200Y-68428705D01*
X46431200Y-68832895D01*
X46585876Y-69206318D01*
X46871682Y-69492124D01*
X47024988Y-69555625D01*
X47774145Y-70304783D01*
X47827286Y-70384314D01*
X48142353Y-70594835D01*
X48513999Y-70668760D01*
X48607809Y-70650100D01*
X50368402Y-70650100D01*
X50521705Y-70713600D01*
X50925895Y-70713600D01*
X51299318Y-70558924D01*
X51585124Y-70273118D01*
X51739800Y-69899695D01*
X51739800Y-69596000D01*
X52068895Y-69596000D01*
X52442318Y-69441324D01*
X52728124Y-69155518D01*
X52882800Y-68782095D01*
X52882800Y-68771640D01*
X53127776Y-68670168D01*
X53413582Y-68384362D01*
X53543620Y-68070421D01*
X53787058Y-67969586D01*
X54072864Y-67683780D01*
X54188759Y-67403984D01*
X54466784Y-67288823D01*
X54752590Y-67003017D01*
X54858734Y-66746761D01*
X55160118Y-66621924D01*
X55220891Y-66561151D01*
X55373105Y-66624200D01*
X55777295Y-66624200D01*
X56150718Y-66469524D01*
X56436524Y-66183718D01*
X56591200Y-65810295D01*
X56591200Y-65533105D01*
X61442600Y-65533105D01*
X61442600Y-65937295D01*
X61597276Y-66310718D01*
X61883082Y-66596524D01*
X62256505Y-66751200D01*
X62660695Y-66751200D01*
X63034118Y-66596524D01*
X63319924Y-66310718D01*
X63375589Y-66176331D01*
X63475705Y-66217800D01*
X63879895Y-66217800D01*
X64253318Y-66063124D01*
X64539124Y-65777318D01*
X64693800Y-65403895D01*
X64693800Y-64999705D01*
X64539124Y-64626282D01*
X64503300Y-64590458D01*
X64503300Y-63737761D01*
X64837518Y-63599324D01*
X65123324Y-63313518D01*
X65278000Y-62940095D01*
X65278000Y-62535905D01*
X65246438Y-62459705D01*
X70307200Y-62459705D01*
X70307200Y-62863895D01*
X70461876Y-63237318D01*
X70497701Y-63273143D01*
X70497700Y-64666658D01*
X70461876Y-64702482D01*
X70307200Y-65075905D01*
X70307200Y-65480095D01*
X70461876Y-65853518D01*
X70747682Y-66139324D01*
X71121105Y-66294000D01*
X71525295Y-66294000D01*
X71898718Y-66139324D01*
X72184524Y-65853518D01*
X72339200Y-65480095D01*
X72339200Y-65075905D01*
X72184524Y-64702482D01*
X72148700Y-64666658D01*
X72148700Y-63273142D01*
X72184524Y-63237318D01*
X72339200Y-62863895D01*
X72339200Y-62459705D01*
X72184524Y-62086282D01*
X71898718Y-61800476D01*
X71525295Y-61645800D01*
X71121105Y-61645800D01*
X70747682Y-61800476D01*
X70461876Y-62086282D01*
X70307200Y-62459705D01*
X65246438Y-62459705D01*
X65123324Y-62162482D01*
X64837518Y-61876676D01*
X64464095Y-61722000D01*
X64059905Y-61722000D01*
X63686482Y-61876676D01*
X63550800Y-62012358D01*
X63465918Y-61927476D01*
X63092495Y-61772800D01*
X62688305Y-61772800D01*
X62314882Y-61927476D01*
X62029076Y-62213282D01*
X61874400Y-62586705D01*
X61874400Y-62618131D01*
X61863449Y-62625448D01*
X61817394Y-62694374D01*
X61680997Y-62898506D01*
X61616928Y-63220600D01*
X61633101Y-63301906D01*
X61633100Y-65123858D01*
X61597276Y-65159682D01*
X61442600Y-65533105D01*
X56591200Y-65533105D01*
X56591200Y-65406105D01*
X56436524Y-65032682D01*
X56150718Y-64746876D01*
X55777295Y-64592200D01*
X55758101Y-64592200D01*
X53693165Y-62527266D01*
X53693165Y-62476603D01*
X53538489Y-62103180D01*
X53252683Y-61817374D01*
X52879260Y-61662698D01*
X52475070Y-61662698D01*
X52101647Y-61817374D01*
X51815841Y-62103180D01*
X51704518Y-62371938D01*
X51395942Y-62499754D01*
X51110136Y-62785560D01*
X50955460Y-63158983D01*
X50955460Y-63563173D01*
X50991347Y-63649811D01*
X50903876Y-63737282D01*
X50759156Y-64086670D01*
X50552541Y-64172252D01*
X50266735Y-64458058D01*
X50176727Y-64675357D01*
X49837530Y-64815856D01*
X49551724Y-65101662D01*
X49430967Y-65393196D01*
X49164736Y-65503472D01*
X48878930Y-65789278D01*
X48724254Y-66162701D01*
X48724254Y-66566891D01*
X48878930Y-66940314D01*
X49164736Y-67226120D01*
X49473297Y-67353930D01*
X50800967Y-68681600D01*
X50521705Y-68681600D01*
X50368402Y-68745100D01*
X48908538Y-68745100D01*
X48372025Y-68208588D01*
X48308524Y-68055282D01*
X48022718Y-67769476D01*
X47649295Y-67614800D01*
X47245105Y-67614800D01*
X46871682Y-67769476D01*
X46585876Y-68055282D01*
X46431200Y-68428705D01*
X36449000Y-68428705D01*
X36449000Y-68199000D01*
X36439333Y-68150399D01*
X36411803Y-68109197D01*
X35493065Y-67190459D01*
X35717940Y-66853909D01*
X35829313Y-66294000D01*
X35821907Y-66256764D01*
X38062841Y-66256764D01*
X38132059Y-66498742D01*
X38654780Y-66685155D01*
X39209049Y-66657341D01*
X39591941Y-66498742D01*
X39661159Y-66256764D01*
X38862000Y-65457605D01*
X38062841Y-66256764D01*
X35821907Y-66256764D01*
X35717940Y-65734091D01*
X35400777Y-65259423D01*
X35118453Y-65070780D01*
X37454845Y-65070780D01*
X37482659Y-65625049D01*
X37641258Y-66007941D01*
X37883236Y-66077159D01*
X38682395Y-65278000D01*
X39041605Y-65278000D01*
X39840764Y-66077159D01*
X40082742Y-66007941D01*
X40134406Y-65863069D01*
X40219376Y-66068204D01*
X40611796Y-66460624D01*
X41124517Y-66673000D01*
X41679483Y-66673000D01*
X42192204Y-66460624D01*
X42547877Y-66104951D01*
X42583843Y-66285765D01*
X42724191Y-66495809D01*
X42934235Y-66636157D01*
X43182000Y-66685440D01*
X44702000Y-66685440D01*
X44949765Y-66636157D01*
X45159809Y-66495809D01*
X45300157Y-66285765D01*
X45349440Y-66038000D01*
X45349440Y-64518000D01*
X45300157Y-64270235D01*
X45159809Y-64060191D01*
X44949765Y-63919843D01*
X44702000Y-63870560D01*
X43182000Y-63870560D01*
X42934235Y-63919843D01*
X42724191Y-64060191D01*
X42583843Y-64270235D01*
X42547877Y-64451049D01*
X42192204Y-64095376D01*
X41679483Y-63883000D01*
X41124517Y-63883000D01*
X40611796Y-64095376D01*
X40219376Y-64487796D01*
X40138578Y-64682859D01*
X40082742Y-64548059D01*
X39840764Y-64478841D01*
X39041605Y-65278000D01*
X38682395Y-65278000D01*
X37883236Y-64478841D01*
X37641258Y-64548059D01*
X37454845Y-65070780D01*
X35118453Y-65070780D01*
X35017092Y-65003053D01*
X35221334Y-64906389D01*
X35597241Y-64491423D01*
X35676842Y-64299236D01*
X38062841Y-64299236D01*
X38862000Y-65098395D01*
X39661159Y-64299236D01*
X39591941Y-64057258D01*
X39069220Y-63870845D01*
X38514951Y-63898659D01*
X38132059Y-64057258D01*
X38062841Y-64299236D01*
X35676842Y-64299236D01*
X35758104Y-64103039D01*
X35636115Y-63881000D01*
X34493200Y-63881000D01*
X34493200Y-63901000D01*
X34239200Y-63901000D01*
X34239200Y-63881000D01*
X34219200Y-63881000D01*
X34219200Y-63627000D01*
X34239200Y-63627000D01*
X34239200Y-62483371D01*
X34493200Y-62483371D01*
X34493200Y-63627000D01*
X35636115Y-63627000D01*
X35758104Y-63404961D01*
X35597241Y-63016577D01*
X35221334Y-62601611D01*
X34715241Y-62362086D01*
X34493200Y-62483371D01*
X34239200Y-62483371D01*
X34017159Y-62362086D01*
X33511066Y-62601611D01*
X33401000Y-62723114D01*
X33401000Y-59734615D01*
X59602000Y-59734615D01*
X59602000Y-60325385D01*
X59828078Y-60871185D01*
X60245815Y-61288922D01*
X60791615Y-61515000D01*
X61382385Y-61515000D01*
X61928185Y-61288922D01*
X62345922Y-60871185D01*
X62572000Y-60325385D01*
X62572000Y-59734615D01*
X71159000Y-59734615D01*
X71159000Y-60325385D01*
X71385078Y-60871185D01*
X71802815Y-61288922D01*
X72348615Y-61515000D01*
X72939385Y-61515000D01*
X73485185Y-61288922D01*
X73902922Y-60871185D01*
X74129000Y-60325385D01*
X74129000Y-59734615D01*
X73902922Y-59188815D01*
X73485185Y-58771078D01*
X72939385Y-58545000D01*
X72348615Y-58545000D01*
X71802815Y-58771078D01*
X71385078Y-59188815D01*
X71159000Y-59734615D01*
X62572000Y-59734615D01*
X62345922Y-59188815D01*
X61928185Y-58771078D01*
X61382385Y-58545000D01*
X60791615Y-58545000D01*
X60245815Y-58771078D01*
X59828078Y-59188815D01*
X59602000Y-59734615D01*
X33401000Y-59734615D01*
X33401000Y-57895490D01*
X79783940Y-57895490D01*
X79783940Y-59486109D01*
X79880613Y-59719498D01*
X80059241Y-59898127D01*
X80292630Y-59994800D01*
X81883250Y-59994800D01*
X82042000Y-59836050D01*
X82042000Y-57736740D01*
X79942690Y-57736740D01*
X79783940Y-57895490D01*
X33401000Y-57895490D01*
X33401000Y-54205119D01*
X40640000Y-54205119D01*
X40640000Y-54760881D01*
X40852680Y-55274337D01*
X41245663Y-55667320D01*
X41707559Y-55858643D01*
X41656000Y-55983119D01*
X41656000Y-56538881D01*
X41868680Y-57052337D01*
X42261663Y-57445320D01*
X42775119Y-57658000D01*
X43330881Y-57658000D01*
X43844337Y-57445320D01*
X44069000Y-57220657D01*
X44293663Y-57445320D01*
X44807119Y-57658000D01*
X45362881Y-57658000D01*
X45876337Y-57445320D01*
X46101000Y-57220657D01*
X46325663Y-57445320D01*
X46839119Y-57658000D01*
X47394881Y-57658000D01*
X47908337Y-57445320D01*
X48133000Y-57220657D01*
X48357663Y-57445320D01*
X48871119Y-57658000D01*
X49426881Y-57658000D01*
X49940337Y-57445320D01*
X50333320Y-57052337D01*
X50546000Y-56538881D01*
X50546000Y-55983119D01*
X50442552Y-55733371D01*
X79783940Y-55733371D01*
X79783940Y-57323990D01*
X79942690Y-57482740D01*
X82042000Y-57482740D01*
X82042000Y-55383430D01*
X81883250Y-55224680D01*
X80292630Y-55224680D01*
X80059241Y-55321353D01*
X79880613Y-55499982D01*
X79783940Y-55733371D01*
X50442552Y-55733371D01*
X50333320Y-55469663D01*
X49940337Y-55076680D01*
X49478441Y-54885357D01*
X49530000Y-54760881D01*
X49530000Y-54205119D01*
X49317320Y-53691663D01*
X48924337Y-53298680D01*
X48410881Y-53086000D01*
X47855119Y-53086000D01*
X47341663Y-53298680D01*
X47117000Y-53523343D01*
X46892337Y-53298680D01*
X46378881Y-53086000D01*
X45823119Y-53086000D01*
X45309663Y-53298680D01*
X44916680Y-53691663D01*
X44829521Y-53902084D01*
X44248605Y-54483000D01*
X44262748Y-54497143D01*
X44083143Y-54676748D01*
X44069000Y-54662605D01*
X44054858Y-54676748D01*
X43875253Y-54497143D01*
X43889395Y-54483000D01*
X43308479Y-53902084D01*
X43221320Y-53691663D01*
X43032444Y-53502787D01*
X43268392Y-53502787D01*
X44069000Y-54303395D01*
X44869608Y-53502787D01*
X44800143Y-53260603D01*
X44276698Y-53073856D01*
X43721632Y-53101638D01*
X43337857Y-53260603D01*
X43268392Y-53502787D01*
X43032444Y-53502787D01*
X42828337Y-53298680D01*
X42314881Y-53086000D01*
X41759119Y-53086000D01*
X41245663Y-53298680D01*
X40852680Y-53691663D01*
X40640000Y-54205119D01*
X33401000Y-54205119D01*
X33401000Y-51493339D01*
X36982400Y-51493339D01*
X36982400Y-52392661D01*
X37326556Y-53223527D01*
X37962473Y-53859444D01*
X38793339Y-54203600D01*
X39692661Y-54203600D01*
X40523527Y-53859444D01*
X41159444Y-53223527D01*
X41503600Y-52392661D01*
X41503600Y-51493339D01*
X49682400Y-51493339D01*
X49682400Y-52392661D01*
X50026556Y-53223527D01*
X50662473Y-53859444D01*
X51493339Y-54203600D01*
X52392661Y-54203600D01*
X53223527Y-53859444D01*
X53859444Y-53223527D01*
X54061958Y-52734615D01*
X59602000Y-52734615D01*
X59602000Y-53325385D01*
X59828078Y-53871185D01*
X60245815Y-54288922D01*
X60791615Y-54515000D01*
X61382385Y-54515000D01*
X61928185Y-54288922D01*
X62345922Y-53871185D01*
X62572000Y-53325385D01*
X62572000Y-52734615D01*
X71159000Y-52734615D01*
X71159000Y-53325385D01*
X71385078Y-53871185D01*
X71802815Y-54288922D01*
X72348615Y-54515000D01*
X72939385Y-54515000D01*
X73485185Y-54288922D01*
X73902922Y-53871185D01*
X74129000Y-53325385D01*
X74129000Y-52734615D01*
X74128593Y-52733631D01*
X84482940Y-52733631D01*
X84482940Y-54324250D01*
X84641690Y-54483000D01*
X86741000Y-54483000D01*
X86741000Y-52383690D01*
X86995000Y-52383690D01*
X86995000Y-54483000D01*
X89094310Y-54483000D01*
X89253060Y-54324250D01*
X89253060Y-52733631D01*
X89156387Y-52500242D01*
X88977759Y-52321613D01*
X88744370Y-52224940D01*
X87153750Y-52224940D01*
X86995000Y-52383690D01*
X86741000Y-52383690D01*
X86582250Y-52224940D01*
X84991630Y-52224940D01*
X84758241Y-52321613D01*
X84579613Y-52500242D01*
X84482940Y-52733631D01*
X74128593Y-52733631D01*
X73902922Y-52188815D01*
X73485185Y-51771078D01*
X72939385Y-51545000D01*
X72348615Y-51545000D01*
X71802815Y-51771078D01*
X71385078Y-52188815D01*
X71159000Y-52734615D01*
X62572000Y-52734615D01*
X62345922Y-52188815D01*
X61928185Y-51771078D01*
X61382385Y-51545000D01*
X60791615Y-51545000D01*
X60245815Y-51771078D01*
X59828078Y-52188815D01*
X59602000Y-52734615D01*
X54061958Y-52734615D01*
X54203600Y-52392661D01*
X54203600Y-51493339D01*
X53859444Y-50662473D01*
X53223527Y-50026556D01*
X52392661Y-49682400D01*
X51493339Y-49682400D01*
X50662473Y-50026556D01*
X50026556Y-50662473D01*
X49682400Y-51493339D01*
X41503600Y-51493339D01*
X41159444Y-50662473D01*
X40523527Y-50026556D01*
X39692661Y-49682400D01*
X38793339Y-49682400D01*
X37962473Y-50026556D01*
X37326556Y-50662473D01*
X36982400Y-51493339D01*
X33401000Y-51493339D01*
X33401000Y-50748000D01*
X35490076Y-50748000D01*
X35560000Y-50761909D01*
X35629924Y-50748000D01*
X35629926Y-50748000D01*
X35837028Y-50706805D01*
X36071881Y-50549881D01*
X36111494Y-50490596D01*
X37378091Y-49224000D01*
X72603910Y-49224000D01*
X73870508Y-50490599D01*
X73870508Y-50490599D01*
G37*
X73870508Y-50490599D02*
X73910119Y-50549881D01*
X74144972Y-50706805D01*
X74352074Y-50748000D01*
X74352078Y-50748000D01*
X74421999Y-50761908D01*
X74491920Y-50748000D01*
X96901000Y-50748000D01*
X96901000Y-54811394D01*
X94943394Y-56769000D01*
X89107145Y-56769000D01*
X89156387Y-56719758D01*
X89253060Y-56486369D01*
X89253060Y-54895750D01*
X89094310Y-54737000D01*
X86995000Y-54737000D01*
X86995000Y-54757000D01*
X86741000Y-54757000D01*
X86741000Y-54737000D01*
X84641690Y-54737000D01*
X84482940Y-54895750D01*
X84482940Y-55561672D01*
X84457387Y-55499982D01*
X84278759Y-55321353D01*
X84045370Y-55224680D01*
X82454750Y-55224680D01*
X82296000Y-55383430D01*
X82296000Y-57482740D01*
X82316000Y-57482740D01*
X82316000Y-57736740D01*
X82296000Y-57736740D01*
X82296000Y-59836050D01*
X82454750Y-59994800D01*
X83947000Y-59994800D01*
X83947000Y-64135000D01*
X83956667Y-64183601D01*
X83984197Y-64224803D01*
X84025399Y-64252333D01*
X84074000Y-64262000D01*
X100076000Y-64262000D01*
X100124601Y-64252333D01*
X100165803Y-64224803D01*
X104573606Y-59817000D01*
X160782000Y-59817000D01*
X160830601Y-59807333D01*
X160871803Y-59779803D01*
X160899333Y-59738601D01*
X160909000Y-59690000D01*
X160909000Y-50748000D01*
X162612001Y-50748000D01*
X162612000Y-127560000D01*
X21792000Y-127560000D01*
X21792000Y-125094133D01*
X41074472Y-125094133D01*
X41128303Y-125323179D01*
X41605664Y-125488681D01*
X42110023Y-125458906D01*
X42437697Y-125323179D01*
X42491528Y-125094133D01*
X41783000Y-124385605D01*
X41074472Y-125094133D01*
X21792000Y-125094133D01*
X21792000Y-122033159D01*
X22399000Y-122033159D01*
X22399000Y-122822841D01*
X22701199Y-123552412D01*
X23259588Y-124110801D01*
X23989159Y-124413000D01*
X24778841Y-124413000D01*
X25508412Y-124110801D01*
X25590549Y-124028664D01*
X40500319Y-124028664D01*
X40530094Y-124533023D01*
X40665821Y-124860697D01*
X40894867Y-124914528D01*
X41603395Y-124206000D01*
X41962605Y-124206000D01*
X42671133Y-124914528D01*
X42900179Y-124860697D01*
X43065681Y-124383336D01*
X43035906Y-123878977D01*
X42900179Y-123551303D01*
X42671133Y-123497472D01*
X41962605Y-124206000D01*
X41603395Y-124206000D01*
X40894867Y-123497472D01*
X40665821Y-123551303D01*
X40500319Y-124028664D01*
X25590549Y-124028664D01*
X26066801Y-123552412D01*
X26369000Y-122822841D01*
X26369000Y-122033159D01*
X26066801Y-121303588D01*
X25508412Y-120745199D01*
X24778841Y-120443000D01*
X23989159Y-120443000D01*
X23259588Y-120745199D01*
X22701199Y-121303588D01*
X22399000Y-122033159D01*
X21792000Y-122033159D01*
X21792000Y-107188000D01*
X29563632Y-107188000D01*
X29672056Y-107733082D01*
X29980820Y-108195180D01*
X30374158Y-108458000D01*
X29980820Y-108720820D01*
X29672056Y-109182918D01*
X29563632Y-109728000D01*
X29672056Y-110273082D01*
X29980820Y-110735180D01*
X30374158Y-110998000D01*
X29980820Y-111260820D01*
X29672056Y-111722918D01*
X29563632Y-112268000D01*
X29672056Y-112813082D01*
X29980820Y-113275180D01*
X30374158Y-113538000D01*
X29980820Y-113800820D01*
X29672056Y-114262918D01*
X29563632Y-114808000D01*
X29672056Y-115353082D01*
X29980820Y-115815180D01*
X30374158Y-116078000D01*
X29980820Y-116340820D01*
X29672056Y-116802918D01*
X29563632Y-117348000D01*
X29672056Y-117893082D01*
X29980820Y-118355180D01*
X30374158Y-118618000D01*
X29980820Y-118880820D01*
X29672056Y-119342918D01*
X29563632Y-119888000D01*
X29672056Y-120433082D01*
X29980820Y-120895180D01*
X30442918Y-121203944D01*
X30850412Y-121285000D01*
X32141588Y-121285000D01*
X32549082Y-121203944D01*
X33011180Y-120895180D01*
X33319944Y-120433082D01*
X33428368Y-119888000D01*
X33319944Y-119342918D01*
X33011180Y-118880820D01*
X32617842Y-118618000D01*
X33011180Y-118355180D01*
X33319944Y-117893082D01*
X33428368Y-117348000D01*
X33319944Y-116802918D01*
X33011180Y-116340820D01*
X32617842Y-116078000D01*
X32996534Y-115824966D01*
X35553793Y-118382226D01*
X35599848Y-118451152D01*
X35872906Y-118633604D01*
X36113697Y-118681500D01*
X36113698Y-118681500D01*
X36195000Y-118697672D01*
X36276301Y-118681500D01*
X38504658Y-118681500D01*
X38540482Y-118717324D01*
X38913905Y-118872000D01*
X39318095Y-118872000D01*
X39691518Y-118717324D01*
X39977324Y-118431518D01*
X40132000Y-118058095D01*
X40132000Y-117830601D01*
X40181696Y-117830601D01*
X40555119Y-117675925D01*
X40815997Y-117415048D01*
X41063603Y-117662654D01*
X41530381Y-117856000D01*
X41063603Y-118049346D01*
X40706346Y-118406603D01*
X40513000Y-118873381D01*
X40513000Y-119378619D01*
X40706346Y-119845397D01*
X41063603Y-120202654D01*
X41530381Y-120396000D01*
X41063603Y-120589346D01*
X40706346Y-120946603D01*
X40513000Y-121413381D01*
X40513000Y-121918619D01*
X40706346Y-122385397D01*
X41063603Y-122742654D01*
X41530381Y-122936000D01*
X41745532Y-122936000D01*
X41455977Y-122953094D01*
X41128303Y-123088821D01*
X41074472Y-123317867D01*
X41783000Y-124026395D01*
X42491528Y-123317867D01*
X42437697Y-123088821D01*
X41996912Y-122936000D01*
X42035619Y-122936000D01*
X42502397Y-122742654D01*
X42859654Y-122385397D01*
X43053000Y-121918619D01*
X43053000Y-121413381D01*
X42859654Y-120946603D01*
X42502397Y-120589346D01*
X42035619Y-120396000D01*
X42502397Y-120202654D01*
X42511146Y-120193905D01*
X57150000Y-120193905D01*
X57150000Y-120598095D01*
X57304676Y-120971518D01*
X57590482Y-121257324D01*
X57963905Y-121412000D01*
X58368095Y-121412000D01*
X58741518Y-121257324D01*
X58777342Y-121221500D01*
X61872658Y-121221500D01*
X61908482Y-121257324D01*
X62281905Y-121412000D01*
X62686095Y-121412000D01*
X63059518Y-121257324D01*
X63345324Y-120971518D01*
X63500000Y-120598095D01*
X63500000Y-120193905D01*
X63345324Y-119820482D01*
X63260442Y-119735600D01*
X63319924Y-119676118D01*
X63474600Y-119302695D01*
X63474600Y-118898505D01*
X63319924Y-118525082D01*
X63034118Y-118239276D01*
X62660695Y-118084600D01*
X62256505Y-118084600D01*
X61883082Y-118239276D01*
X61847258Y-118275100D01*
X58828142Y-118275100D01*
X58792318Y-118239276D01*
X58418895Y-118084600D01*
X58014705Y-118084600D01*
X57641282Y-118239276D01*
X57355476Y-118525082D01*
X57200800Y-118898505D01*
X57200800Y-119302695D01*
X57355476Y-119676118D01*
X57402258Y-119722900D01*
X57304676Y-119820482D01*
X57150000Y-120193905D01*
X42511146Y-120193905D01*
X42859654Y-119845397D01*
X43053000Y-119378619D01*
X43053000Y-118873381D01*
X42859654Y-118406603D01*
X42502397Y-118049346D01*
X42035619Y-117856000D01*
X42502397Y-117662654D01*
X42859654Y-117305397D01*
X43053000Y-116838619D01*
X43053000Y-116333381D01*
X42859654Y-115866603D01*
X42502397Y-115509346D01*
X42035619Y-115316000D01*
X42502397Y-115122654D01*
X42859654Y-114765397D01*
X43053000Y-114298619D01*
X43053000Y-113793381D01*
X42859654Y-113326603D01*
X42502397Y-112969346D01*
X42035619Y-112776000D01*
X42502397Y-112582654D01*
X42859654Y-112225397D01*
X43053000Y-111758619D01*
X43053000Y-111253381D01*
X42984041Y-111086899D01*
X45108657Y-111086899D01*
X45119082Y-111097324D01*
X45492505Y-111252000D01*
X45896695Y-111252000D01*
X46270118Y-111097324D01*
X46555924Y-110811518D01*
X46710600Y-110438095D01*
X46710600Y-110033905D01*
X46555924Y-109660482D01*
X46270118Y-109374676D01*
X45896695Y-109220000D01*
X45492505Y-109220000D01*
X45119082Y-109374676D01*
X45057859Y-109435899D01*
X42964249Y-109435899D01*
X43065681Y-109143336D01*
X43035906Y-108638977D01*
X42900179Y-108311303D01*
X42671133Y-108257472D01*
X41962605Y-108966000D01*
X41976748Y-108980143D01*
X41797143Y-109159748D01*
X41783000Y-109145605D01*
X41768858Y-109159748D01*
X41589253Y-108980143D01*
X41603395Y-108966000D01*
X40894867Y-108257472D01*
X40665821Y-108311303D01*
X40500319Y-108788664D01*
X40510979Y-108969230D01*
X40257895Y-108864400D01*
X39853705Y-108864400D01*
X39480282Y-109019076D01*
X39194476Y-109304882D01*
X39039800Y-109678305D01*
X39039800Y-110082495D01*
X39194476Y-110455918D01*
X39480282Y-110741724D01*
X39853705Y-110896400D01*
X39901285Y-110896400D01*
X40114705Y-111039003D01*
X40355496Y-111086899D01*
X40355497Y-111086899D01*
X40436799Y-111103071D01*
X40518100Y-111086899D01*
X40581959Y-111086899D01*
X40513000Y-111253381D01*
X40513000Y-111758619D01*
X40706346Y-112225397D01*
X41063603Y-112582654D01*
X41530381Y-112776000D01*
X41063603Y-112969346D01*
X40706346Y-113326603D01*
X40513000Y-113793381D01*
X40513000Y-114298619D01*
X40706346Y-114765397D01*
X41063603Y-115122654D01*
X41530381Y-115316000D01*
X41063603Y-115509346D01*
X40706346Y-115866603D01*
X40636666Y-116034824D01*
X40555119Y-115953277D01*
X40181696Y-115798601D01*
X40131034Y-115798601D01*
X36074209Y-111741777D01*
X36028152Y-111672848D01*
X35755094Y-111490396D01*
X35514303Y-111442500D01*
X35514301Y-111442500D01*
X35433000Y-111426328D01*
X35351699Y-111442500D01*
X33132575Y-111442500D01*
X33011180Y-111260820D01*
X32617842Y-110998000D01*
X33011180Y-110735180D01*
X33319944Y-110273082D01*
X33428368Y-109728000D01*
X33319944Y-109182918D01*
X33011180Y-108720820D01*
X32617842Y-108458000D01*
X33011180Y-108195180D01*
X33319944Y-107733082D01*
X33428368Y-107188000D01*
X33319944Y-106642918D01*
X33011180Y-106180820D01*
X32549082Y-105872056D01*
X32141588Y-105791000D01*
X30850412Y-105791000D01*
X30442918Y-105872056D01*
X29980820Y-106180820D01*
X29672056Y-106642918D01*
X29563632Y-107188000D01*
X21792000Y-107188000D01*
X21792000Y-102108000D01*
X29563632Y-102108000D01*
X29672056Y-102653082D01*
X29980820Y-103115180D01*
X30442918Y-103423944D01*
X30850412Y-103505000D01*
X32141588Y-103505000D01*
X32549082Y-103423944D01*
X33011180Y-103115180D01*
X33319944Y-102653082D01*
X33428368Y-102108000D01*
X33319944Y-101562918D01*
X33011180Y-101100820D01*
X32600511Y-100826420D01*
X32655941Y-100810059D01*
X33081630Y-100466026D01*
X33343260Y-99985277D01*
X33358220Y-99911070D01*
X33235720Y-99695000D01*
X31623000Y-99695000D01*
X31623000Y-99715000D01*
X31369000Y-99715000D01*
X31369000Y-99695000D01*
X29756280Y-99695000D01*
X29633780Y-99911070D01*
X29648740Y-99985277D01*
X29910370Y-100466026D01*
X30336059Y-100810059D01*
X30391489Y-100826420D01*
X29980820Y-101100820D01*
X29672056Y-101562918D01*
X29563632Y-102108000D01*
X21792000Y-102108000D01*
X21792000Y-97371070D01*
X29633780Y-97371070D01*
X29648740Y-97445277D01*
X29910370Y-97926026D01*
X30336059Y-98270059D01*
X30430723Y-98298000D01*
X30336059Y-98325941D01*
X29910370Y-98669974D01*
X29648740Y-99150723D01*
X29633780Y-99224930D01*
X29756280Y-99441000D01*
X31369000Y-99441000D01*
X31369000Y-97155000D01*
X31623000Y-97155000D01*
X31623000Y-99441000D01*
X33235720Y-99441000D01*
X33358220Y-99224930D01*
X33343260Y-99150723D01*
X33081630Y-98669974D01*
X32655941Y-98325941D01*
X32561277Y-98298000D01*
X32655941Y-98270059D01*
X33081630Y-97926026D01*
X33343260Y-97445277D01*
X33358220Y-97371070D01*
X33235720Y-97155000D01*
X31623000Y-97155000D01*
X31369000Y-97155000D01*
X29756280Y-97155000D01*
X29633780Y-97371070D01*
X21792000Y-97371070D01*
X21792000Y-91553159D01*
X22399000Y-91553159D01*
X22399000Y-92342841D01*
X22701199Y-93072412D01*
X23259588Y-93630801D01*
X23989159Y-93933000D01*
X24778841Y-93933000D01*
X25508412Y-93630801D01*
X26066801Y-93072412D01*
X26369000Y-92342841D01*
X26369000Y-91553159D01*
X26066801Y-90823588D01*
X25508412Y-90265199D01*
X24778841Y-89963000D01*
X23989159Y-89963000D01*
X23259588Y-90265199D01*
X22701199Y-90823588D01*
X22399000Y-91553159D01*
X21792000Y-91553159D01*
X21792000Y-86868000D01*
X29563632Y-86868000D01*
X29672056Y-87413082D01*
X29980820Y-87875180D01*
X30374158Y-88138000D01*
X29980820Y-88400820D01*
X29672056Y-88862918D01*
X29563632Y-89408000D01*
X29672056Y-89953082D01*
X29980820Y-90415180D01*
X30374158Y-90678000D01*
X29980820Y-90940820D01*
X29672056Y-91402918D01*
X29563632Y-91948000D01*
X29672056Y-92493082D01*
X29980820Y-92955180D01*
X30374158Y-93218000D01*
X29980820Y-93480820D01*
X29672056Y-93942918D01*
X29563632Y-94488000D01*
X29672056Y-95033082D01*
X29980820Y-95495180D01*
X30391489Y-95769580D01*
X30336059Y-95785941D01*
X29910370Y-96129974D01*
X29648740Y-96610723D01*
X29633780Y-96684930D01*
X29756280Y-96901000D01*
X31369000Y-96901000D01*
X31369000Y-96881000D01*
X31623000Y-96881000D01*
X31623000Y-96901000D01*
X33235720Y-96901000D01*
X33358220Y-96684930D01*
X33343260Y-96610723D01*
X33081630Y-96129974D01*
X32655941Y-95785941D01*
X32600511Y-95769580D01*
X33011180Y-95495180D01*
X33319944Y-95033082D01*
X33428368Y-94488000D01*
X33319944Y-93942918D01*
X33011180Y-93480820D01*
X32617842Y-93218000D01*
X33011180Y-92955180D01*
X33319944Y-92493082D01*
X33428368Y-91948000D01*
X33319944Y-91402918D01*
X33011180Y-90940820D01*
X32617842Y-90678000D01*
X33011180Y-90415180D01*
X33319944Y-89953082D01*
X33428368Y-89408000D01*
X33319944Y-88862918D01*
X33011180Y-88400820D01*
X32617842Y-88138000D01*
X33011180Y-87875180D01*
X33319944Y-87413082D01*
X33428368Y-86868000D01*
X33319944Y-86322918D01*
X33011180Y-85860820D01*
X32549082Y-85552056D01*
X32141588Y-85471000D01*
X30850412Y-85471000D01*
X30442918Y-85552056D01*
X29980820Y-85860820D01*
X29672056Y-86322918D01*
X29563632Y-86868000D01*
X21792000Y-86868000D01*
X21792000Y-78233381D01*
X40513000Y-78233381D01*
X40513000Y-78738619D01*
X40706346Y-79205397D01*
X41063603Y-79562654D01*
X41530381Y-79756000D01*
X41063603Y-79949346D01*
X40706346Y-80306603D01*
X40513000Y-80773381D01*
X40513000Y-81278619D01*
X40706346Y-81745397D01*
X41063603Y-82102654D01*
X41530381Y-82296000D01*
X41063603Y-82489346D01*
X40706346Y-82846603D01*
X40513000Y-83313381D01*
X40513000Y-83818619D01*
X40706346Y-84285397D01*
X41063603Y-84642654D01*
X41530381Y-84836000D01*
X41063603Y-85029346D01*
X40706346Y-85386603D01*
X40513000Y-85853381D01*
X40513000Y-86358619D01*
X40706346Y-86825397D01*
X41063603Y-87182654D01*
X41530381Y-87376000D01*
X41063603Y-87569346D01*
X40706346Y-87926603D01*
X40513000Y-88393381D01*
X40513000Y-88898619D01*
X40706346Y-89365397D01*
X41063603Y-89722654D01*
X41530381Y-89916000D01*
X41063603Y-90109346D01*
X40706346Y-90466603D01*
X40513000Y-90933381D01*
X40513000Y-91438619D01*
X40706346Y-91905397D01*
X41063603Y-92262654D01*
X41530381Y-92456000D01*
X41063603Y-92649346D01*
X40706346Y-93006603D01*
X40513000Y-93473381D01*
X40513000Y-93978619D01*
X40706346Y-94445397D01*
X41063603Y-94802654D01*
X41530381Y-94996000D01*
X41063603Y-95189346D01*
X40706346Y-95546603D01*
X40513000Y-96013381D01*
X40513000Y-96518619D01*
X40706346Y-96985397D01*
X41063603Y-97342654D01*
X41530381Y-97536000D01*
X41063603Y-97729346D01*
X40706346Y-98086603D01*
X40513000Y-98553381D01*
X40513000Y-99058619D01*
X40706346Y-99525397D01*
X41063603Y-99882654D01*
X41530381Y-100076000D01*
X41063603Y-100269346D01*
X40706346Y-100626603D01*
X40513000Y-101093381D01*
X40513000Y-101598619D01*
X40706346Y-102065397D01*
X41063603Y-102422654D01*
X41530381Y-102616000D01*
X41063603Y-102809346D01*
X40706346Y-103166603D01*
X40513000Y-103633381D01*
X40513000Y-104138619D01*
X40706346Y-104605397D01*
X41063603Y-104962654D01*
X41530381Y-105156000D01*
X41063603Y-105349346D01*
X40706346Y-105706603D01*
X40513000Y-106173381D01*
X40513000Y-106678619D01*
X40706346Y-107145397D01*
X41063603Y-107502654D01*
X41530381Y-107696000D01*
X41745532Y-107696000D01*
X41455977Y-107713094D01*
X41128303Y-107848821D01*
X41074472Y-108077867D01*
X41783000Y-108786395D01*
X42491528Y-108077867D01*
X42437697Y-107848821D01*
X41996912Y-107696000D01*
X42035619Y-107696000D01*
X42502397Y-107502654D01*
X42859654Y-107145397D01*
X43053000Y-106678619D01*
X43053000Y-106173381D01*
X42859654Y-105706603D01*
X42502397Y-105349346D01*
X42035619Y-105156000D01*
X42502397Y-104962654D01*
X42859654Y-104605397D01*
X43053000Y-104138619D01*
X43053000Y-103633381D01*
X42859654Y-103166603D01*
X42502397Y-102809346D01*
X42035619Y-102616000D01*
X42502397Y-102422654D01*
X42859654Y-102065397D01*
X42978323Y-101778905D01*
X45161200Y-101778905D01*
X45161200Y-102183095D01*
X45315876Y-102556518D01*
X45601682Y-102842324D01*
X45975105Y-102997000D01*
X46379295Y-102997000D01*
X46752718Y-102842324D01*
X46788542Y-102806500D01*
X49367280Y-102806500D01*
X49581905Y-102895400D01*
X49986095Y-102895400D01*
X50359518Y-102740724D01*
X50645324Y-102454918D01*
X50800000Y-102081495D01*
X50800000Y-101677305D01*
X50645324Y-101303882D01*
X50359518Y-101018076D01*
X49986095Y-100863400D01*
X49581905Y-100863400D01*
X49208482Y-101018076D01*
X49071058Y-101155500D01*
X46788542Y-101155500D01*
X46752718Y-101119676D01*
X46379295Y-100965000D01*
X45975105Y-100965000D01*
X45601682Y-101119676D01*
X45315876Y-101405482D01*
X45161200Y-101778905D01*
X42978323Y-101778905D01*
X43053000Y-101598619D01*
X43053000Y-101093381D01*
X42859654Y-100626603D01*
X42502397Y-100269346D01*
X42035619Y-100076000D01*
X42502397Y-99882654D01*
X42859654Y-99525397D01*
X43053000Y-99058619D01*
X43053000Y-98553381D01*
X42859654Y-98086603D01*
X42502397Y-97729346D01*
X42035619Y-97536000D01*
X42502397Y-97342654D01*
X42859654Y-96985397D01*
X43053000Y-96518619D01*
X43053000Y-96013381D01*
X42859654Y-95546603D01*
X42502397Y-95189346D01*
X42035619Y-94996000D01*
X42502397Y-94802654D01*
X42859654Y-94445397D01*
X43053000Y-93978619D01*
X43053000Y-93473381D01*
X65913000Y-93473381D01*
X65913000Y-93978619D01*
X66106346Y-94445397D01*
X66463603Y-94802654D01*
X66930381Y-94996000D01*
X66463603Y-95189346D01*
X66106346Y-95546603D01*
X65913000Y-96013381D01*
X65913000Y-96518619D01*
X66106346Y-96985397D01*
X66463603Y-97342654D01*
X66930381Y-97536000D01*
X66463603Y-97729346D01*
X66106346Y-98086603D01*
X65913000Y-98553381D01*
X65913000Y-99058619D01*
X66106346Y-99525397D01*
X66463603Y-99882654D01*
X66930381Y-100076000D01*
X66463603Y-100269346D01*
X66106346Y-100626603D01*
X65913000Y-101093381D01*
X65913000Y-101598619D01*
X66106346Y-102065397D01*
X66463603Y-102422654D01*
X66930381Y-102616000D01*
X66463603Y-102809346D01*
X66106346Y-103166603D01*
X65913000Y-103633381D01*
X65913000Y-104138619D01*
X66106346Y-104605397D01*
X66463603Y-104962654D01*
X66930381Y-105156000D01*
X66463603Y-105349346D01*
X66106346Y-105706603D01*
X65913000Y-106173381D01*
X65913000Y-106678619D01*
X66106346Y-107145397D01*
X66463603Y-107502654D01*
X66930381Y-107696000D01*
X66463603Y-107889346D01*
X66106346Y-108246603D01*
X65913000Y-108713381D01*
X65913000Y-109218619D01*
X66106346Y-109685397D01*
X66463603Y-110042654D01*
X66930381Y-110236000D01*
X66463603Y-110429346D01*
X66106346Y-110786603D01*
X65913000Y-111253381D01*
X65913000Y-111758619D01*
X66106346Y-112225397D01*
X66463603Y-112582654D01*
X66930381Y-112776000D01*
X66463603Y-112969346D01*
X66106346Y-113326603D01*
X65913000Y-113793381D01*
X65913000Y-114298619D01*
X66106346Y-114765397D01*
X66463603Y-115122654D01*
X66930381Y-115316000D01*
X66463603Y-115509346D01*
X66106346Y-115866603D01*
X65913000Y-116333381D01*
X65913000Y-116838619D01*
X66106346Y-117305397D01*
X66463603Y-117662654D01*
X66930381Y-117856000D01*
X66463603Y-118049346D01*
X66106346Y-118406603D01*
X65913000Y-118873381D01*
X65913000Y-119378619D01*
X66106346Y-119845397D01*
X66463603Y-120202654D01*
X66930381Y-120396000D01*
X66463603Y-120589346D01*
X66106346Y-120946603D01*
X65913000Y-121413381D01*
X65913000Y-121918619D01*
X66106346Y-122385397D01*
X66463603Y-122742654D01*
X66930381Y-122936000D01*
X66463603Y-123129346D01*
X66106346Y-123486603D01*
X65913000Y-123953381D01*
X65913000Y-124458619D01*
X66106346Y-124925397D01*
X66463603Y-125282654D01*
X66930381Y-125476000D01*
X67435619Y-125476000D01*
X67902397Y-125282654D01*
X68259654Y-124925397D01*
X68453000Y-124458619D01*
X68453000Y-123953381D01*
X68259654Y-123486603D01*
X67902397Y-123129346D01*
X67435619Y-122936000D01*
X67902397Y-122742654D01*
X68259654Y-122385397D01*
X68405555Y-122033159D01*
X158289000Y-122033159D01*
X158289000Y-122822841D01*
X158591199Y-123552412D01*
X159149588Y-124110801D01*
X159879159Y-124413000D01*
X160668841Y-124413000D01*
X161398412Y-124110801D01*
X161956801Y-123552412D01*
X162259000Y-122822841D01*
X162259000Y-122033159D01*
X161956801Y-121303588D01*
X161398412Y-120745199D01*
X160668841Y-120443000D01*
X159879159Y-120443000D01*
X159149588Y-120745199D01*
X158591199Y-121303588D01*
X158289000Y-122033159D01*
X68405555Y-122033159D01*
X68453000Y-121918619D01*
X68453000Y-121413381D01*
X68259654Y-120946603D01*
X67902397Y-120589346D01*
X67435619Y-120396000D01*
X67902397Y-120202654D01*
X68259654Y-119845397D01*
X68453000Y-119378619D01*
X68453000Y-118873381D01*
X68259654Y-118406603D01*
X67902397Y-118049346D01*
X67435619Y-117856000D01*
X67902397Y-117662654D01*
X68259654Y-117305397D01*
X68453000Y-116838619D01*
X68453000Y-116333381D01*
X68259654Y-115866603D01*
X67902397Y-115509346D01*
X67435619Y-115316000D01*
X67902397Y-115122654D01*
X68259654Y-114765397D01*
X68453000Y-114298619D01*
X68453000Y-113793381D01*
X68259654Y-113326603D01*
X67902397Y-112969346D01*
X67435619Y-112776000D01*
X67902397Y-112582654D01*
X68259654Y-112225397D01*
X68453000Y-111758619D01*
X68453000Y-111253381D01*
X68259654Y-110786603D01*
X67902397Y-110429346D01*
X67435619Y-110236000D01*
X67902397Y-110042654D01*
X68259654Y-109685397D01*
X68453000Y-109218619D01*
X68453000Y-108713381D01*
X68259654Y-108246603D01*
X67902397Y-107889346D01*
X67435619Y-107696000D01*
X67902397Y-107502654D01*
X68259654Y-107145397D01*
X68453000Y-106678619D01*
X68453000Y-106173381D01*
X68259654Y-105706603D01*
X67902397Y-105349346D01*
X67435619Y-105156000D01*
X67902397Y-104962654D01*
X68259654Y-104605397D01*
X68453000Y-104138619D01*
X68453000Y-103633381D01*
X68259654Y-103166603D01*
X67902397Y-102809346D01*
X67435619Y-102616000D01*
X67902397Y-102422654D01*
X68259654Y-102065397D01*
X68453000Y-101598619D01*
X68453000Y-101093381D01*
X68259654Y-100626603D01*
X67902397Y-100269346D01*
X67435619Y-100076000D01*
X67678235Y-99975505D01*
X72999600Y-99975505D01*
X72999600Y-100379695D01*
X73154276Y-100753118D01*
X73440082Y-101038924D01*
X73813505Y-101193600D01*
X73864168Y-101193600D01*
X75304793Y-102634226D01*
X75350848Y-102703152D01*
X75433836Y-102758603D01*
X75623905Y-102885604D01*
X75946000Y-102949672D01*
X76027303Y-102933500D01*
X78119425Y-102933500D01*
X78240820Y-103115180D01*
X78634158Y-103378000D01*
X78240820Y-103640820D01*
X77932056Y-104102918D01*
X77823632Y-104648000D01*
X77932056Y-105193082D01*
X78240820Y-105655180D01*
X78634158Y-105918000D01*
X78240820Y-106180820D01*
X77932056Y-106642918D01*
X77823632Y-107188000D01*
X77932056Y-107733082D01*
X78240820Y-108195180D01*
X78634158Y-108458000D01*
X78240820Y-108720820D01*
X77932056Y-109182918D01*
X77823632Y-109728000D01*
X77932056Y-110273082D01*
X78240820Y-110735180D01*
X78634158Y-110998000D01*
X78240820Y-111260820D01*
X77932056Y-111722918D01*
X77823632Y-112268000D01*
X77932056Y-112813082D01*
X78240820Y-113275180D01*
X78634158Y-113538000D01*
X78240820Y-113800820D01*
X77932056Y-114262918D01*
X77823632Y-114808000D01*
X77932056Y-115353082D01*
X78240820Y-115815180D01*
X78634158Y-116078000D01*
X78240820Y-116340820D01*
X77932056Y-116802918D01*
X77823632Y-117348000D01*
X77932056Y-117893082D01*
X78240820Y-118355180D01*
X78634158Y-118618000D01*
X78240820Y-118880820D01*
X77932056Y-119342918D01*
X77823632Y-119888000D01*
X77932056Y-120433082D01*
X78240820Y-120895180D01*
X78702918Y-121203944D01*
X79110412Y-121285000D01*
X80401588Y-121285000D01*
X80809082Y-121203944D01*
X81271180Y-120895180D01*
X81579944Y-120433082D01*
X81688368Y-119888000D01*
X81579944Y-119342918D01*
X81271180Y-118880820D01*
X80877842Y-118618000D01*
X81181374Y-118415186D01*
X99288864Y-118415186D01*
X99288864Y-119165086D01*
X99575838Y-119857903D01*
X100106097Y-120388162D01*
X100798914Y-120675136D01*
X101548814Y-120675136D01*
X102241631Y-120388162D01*
X102771890Y-119857903D01*
X103058864Y-119165086D01*
X103058864Y-118415186D01*
X102771890Y-117722369D01*
X102241631Y-117192110D01*
X101548814Y-116905136D01*
X100798914Y-116905136D01*
X100106097Y-117192110D01*
X99575838Y-117722369D01*
X99288864Y-118415186D01*
X81181374Y-118415186D01*
X81271180Y-118355180D01*
X81579944Y-117893082D01*
X81688368Y-117348000D01*
X81579944Y-116802918D01*
X81271180Y-116340820D01*
X80877842Y-116078000D01*
X81271180Y-115815180D01*
X81579944Y-115353082D01*
X81688368Y-114808000D01*
X81579944Y-114262918D01*
X81271180Y-113800820D01*
X80877842Y-113538000D01*
X81271180Y-113275180D01*
X81579944Y-112813082D01*
X81688368Y-112268000D01*
X81579944Y-111722918D01*
X81271180Y-111260820D01*
X80883489Y-111001773D01*
X89921080Y-111001773D01*
X89921080Y-112010227D01*
X90306999Y-112941917D01*
X91020083Y-113655001D01*
X91951773Y-114040920D01*
X92960227Y-114040920D01*
X93891917Y-113655001D01*
X94605001Y-112941917D01*
X94990920Y-112010227D01*
X94990920Y-111001773D01*
X105161080Y-111001773D01*
X105161080Y-112010227D01*
X105546999Y-112941917D01*
X106260083Y-113655001D01*
X107191773Y-114040920D01*
X108200227Y-114040920D01*
X109131917Y-113655001D01*
X109845001Y-112941917D01*
X110230920Y-112010227D01*
X110230920Y-111001773D01*
X120401080Y-111001773D01*
X120401080Y-112010227D01*
X120786999Y-112941917D01*
X121500083Y-113655001D01*
X122431773Y-114040920D01*
X123440227Y-114040920D01*
X124371917Y-113655001D01*
X125085001Y-112941917D01*
X125470920Y-112010227D01*
X125470920Y-111001773D01*
X135641080Y-111001773D01*
X135641080Y-112010227D01*
X136026999Y-112941917D01*
X136740083Y-113655001D01*
X137671773Y-114040920D01*
X138680227Y-114040920D01*
X139611917Y-113655001D01*
X140325001Y-112941917D01*
X140710920Y-112010227D01*
X140710920Y-111001773D01*
X150881080Y-111001773D01*
X150881080Y-112010227D01*
X151266999Y-112941917D01*
X151980083Y-113655001D01*
X152911773Y-114040920D01*
X153920227Y-114040920D01*
X154851917Y-113655001D01*
X155565001Y-112941917D01*
X155950920Y-112010227D01*
X155950920Y-111001773D01*
X155565001Y-110070083D01*
X154851917Y-109356999D01*
X153920227Y-108971080D01*
X152911773Y-108971080D01*
X151980083Y-109356999D01*
X151266999Y-110070083D01*
X150881080Y-111001773D01*
X140710920Y-111001773D01*
X140325001Y-110070083D01*
X139611917Y-109356999D01*
X138680227Y-108971080D01*
X137671773Y-108971080D01*
X136740083Y-109356999D01*
X136026999Y-110070083D01*
X135641080Y-111001773D01*
X125470920Y-111001773D01*
X125085001Y-110070083D01*
X124371917Y-109356999D01*
X123440227Y-108971080D01*
X122431773Y-108971080D01*
X121500083Y-109356999D01*
X120786999Y-110070083D01*
X120401080Y-111001773D01*
X110230920Y-111001773D01*
X109845001Y-110070083D01*
X109131917Y-109356999D01*
X108200227Y-108971080D01*
X107191773Y-108971080D01*
X106260083Y-109356999D01*
X105546999Y-110070083D01*
X105161080Y-111001773D01*
X94990920Y-111001773D01*
X94605001Y-110070083D01*
X93891917Y-109356999D01*
X92960227Y-108971080D01*
X91951773Y-108971080D01*
X91020083Y-109356999D01*
X90306999Y-110070083D01*
X89921080Y-111001773D01*
X80883489Y-111001773D01*
X80877842Y-110998000D01*
X81271180Y-110735180D01*
X81579944Y-110273082D01*
X81688368Y-109728000D01*
X81579944Y-109182918D01*
X81271180Y-108720820D01*
X80877842Y-108458000D01*
X81271180Y-108195180D01*
X81579944Y-107733082D01*
X81688368Y-107188000D01*
X81579944Y-106642918D01*
X81271180Y-106180820D01*
X80877842Y-105918000D01*
X80991923Y-105841773D01*
X114301832Y-105841773D01*
X114301832Y-106066279D01*
X114777673Y-106542121D01*
X114956302Y-106720749D01*
X115189691Y-106817422D01*
X115442310Y-106817421D01*
X115675699Y-106720748D01*
X116330168Y-106066279D01*
X116330168Y-105841773D01*
X115316000Y-104827605D01*
X114301832Y-105841773D01*
X80991923Y-105841773D01*
X81271180Y-105655180D01*
X81579944Y-105193082D01*
X81663243Y-104774309D01*
X113146578Y-104774309D01*
X113243251Y-105007698D01*
X113421879Y-105186327D01*
X113897721Y-105662168D01*
X114122227Y-105662168D01*
X115136395Y-104648000D01*
X115495605Y-104648000D01*
X116509773Y-105662168D01*
X116734279Y-105662168D01*
X117388748Y-105007699D01*
X117485421Y-104774310D01*
X117485422Y-104521691D01*
X117388749Y-104288302D01*
X117210121Y-104109673D01*
X116734279Y-103633832D01*
X116509773Y-103633832D01*
X115495605Y-104648000D01*
X115136395Y-104648000D01*
X114122227Y-103633832D01*
X113897721Y-103633832D01*
X113243252Y-104288301D01*
X113146579Y-104521690D01*
X113146578Y-104774309D01*
X81663243Y-104774309D01*
X81688368Y-104648000D01*
X81579944Y-104102918D01*
X81271180Y-103640820D01*
X80877842Y-103378000D01*
X81099757Y-103229721D01*
X114301832Y-103229721D01*
X114301832Y-103454227D01*
X115316000Y-104468395D01*
X116330168Y-103454227D01*
X116330168Y-103229721D01*
X115854327Y-102753879D01*
X115675698Y-102575251D01*
X115442309Y-102478578D01*
X115189690Y-102478579D01*
X114956301Y-102575252D01*
X114301832Y-103229721D01*
X81099757Y-103229721D01*
X81271180Y-103115180D01*
X81579944Y-102653082D01*
X81688368Y-102108000D01*
X81579944Y-101562918D01*
X81271180Y-101100820D01*
X80809082Y-100792056D01*
X80401588Y-100711000D01*
X79110412Y-100711000D01*
X78702918Y-100792056D01*
X78240820Y-101100820D01*
X78119425Y-101282500D01*
X76287933Y-101282500D01*
X75031600Y-100026168D01*
X75031600Y-99975505D01*
X74876924Y-99602082D01*
X74591118Y-99316276D01*
X74217695Y-99161600D01*
X73813505Y-99161600D01*
X73440082Y-99316276D01*
X73154276Y-99602082D01*
X72999600Y-99975505D01*
X67678235Y-99975505D01*
X67902397Y-99882654D01*
X68259654Y-99525397D01*
X68453000Y-99058619D01*
X68453000Y-98553381D01*
X68259654Y-98086603D01*
X67902397Y-97729346D01*
X67435619Y-97536000D01*
X67902397Y-97342654D01*
X68259654Y-96985397D01*
X68453000Y-96518619D01*
X68453000Y-96013381D01*
X68259654Y-95546603D01*
X67902397Y-95189346D01*
X67435619Y-94996000D01*
X67902397Y-94802654D01*
X68259654Y-94445397D01*
X68453000Y-93978619D01*
X68453000Y-93473381D01*
X68259654Y-93006603D01*
X67902397Y-92649346D01*
X67435619Y-92456000D01*
X67220468Y-92456000D01*
X67510023Y-92438906D01*
X67837697Y-92303179D01*
X67891528Y-92074133D01*
X67183000Y-91365605D01*
X66474472Y-92074133D01*
X66528303Y-92303179D01*
X66969088Y-92456000D01*
X66930381Y-92456000D01*
X66463603Y-92649346D01*
X66106346Y-93006603D01*
X65913000Y-93473381D01*
X43053000Y-93473381D01*
X42859654Y-93006603D01*
X42502397Y-92649346D01*
X42035619Y-92456000D01*
X42502397Y-92262654D01*
X42859654Y-91905397D01*
X43053000Y-91438619D01*
X43053000Y-91008664D01*
X65900319Y-91008664D01*
X65930094Y-91513023D01*
X66065821Y-91840697D01*
X66294867Y-91894528D01*
X67003395Y-91186000D01*
X67362605Y-91186000D01*
X68071133Y-91894528D01*
X68300179Y-91840697D01*
X68465681Y-91363336D01*
X68435906Y-90858977D01*
X68300179Y-90531303D01*
X68071133Y-90477472D01*
X67362605Y-91186000D01*
X67003395Y-91186000D01*
X66294867Y-90477472D01*
X66065821Y-90531303D01*
X65900319Y-91008664D01*
X43053000Y-91008664D01*
X43053000Y-90933381D01*
X42859654Y-90466603D01*
X42502397Y-90109346D01*
X42035619Y-89916000D01*
X42502397Y-89722654D01*
X42859654Y-89365397D01*
X43053000Y-88898619D01*
X43053000Y-88393381D01*
X42859654Y-87926603D01*
X42502397Y-87569346D01*
X42035619Y-87376000D01*
X42335562Y-87251759D01*
X58453020Y-87251759D01*
X58453020Y-87703441D01*
X58625872Y-88120741D01*
X58945259Y-88440128D01*
X59362559Y-88612980D01*
X59814241Y-88612980D01*
X60231541Y-88440128D01*
X60337700Y-88333969D01*
X60443859Y-88440128D01*
X60861159Y-88612980D01*
X61312841Y-88612980D01*
X61730141Y-88440128D01*
X62049528Y-88120741D01*
X62222380Y-87703441D01*
X62222380Y-87251759D01*
X62049528Y-86834459D01*
X61730141Y-86515072D01*
X61312841Y-86342220D01*
X60861159Y-86342220D01*
X60443859Y-86515072D01*
X60337700Y-86621231D01*
X60231541Y-86515072D01*
X59814241Y-86342220D01*
X59362559Y-86342220D01*
X58945259Y-86515072D01*
X58625872Y-86834459D01*
X58453020Y-87251759D01*
X42335562Y-87251759D01*
X42502397Y-87182654D01*
X42859654Y-86825397D01*
X43053000Y-86358619D01*
X43053000Y-85853381D01*
X42859654Y-85386603D01*
X42502397Y-85029346D01*
X42035619Y-84836000D01*
X42502397Y-84642654D01*
X42859654Y-84285397D01*
X43053000Y-83818619D01*
X43053000Y-83694105D01*
X64389000Y-83694105D01*
X64389000Y-84098295D01*
X64543676Y-84471718D01*
X64829482Y-84757524D01*
X65202905Y-84912200D01*
X65607095Y-84912200D01*
X65980518Y-84757524D01*
X66266324Y-84471718D01*
X66274040Y-84453091D01*
X66463603Y-84642654D01*
X66930381Y-84836000D01*
X66463603Y-85029346D01*
X66106346Y-85386603D01*
X65913000Y-85853381D01*
X65913000Y-86358619D01*
X66106346Y-86825397D01*
X66463603Y-87182654D01*
X66930381Y-87376000D01*
X66463603Y-87569346D01*
X66106346Y-87926603D01*
X65913000Y-88393381D01*
X65913000Y-88898619D01*
X66106346Y-89365397D01*
X66463603Y-89722654D01*
X66930381Y-89916000D01*
X67145532Y-89916000D01*
X66855977Y-89933094D01*
X66528303Y-90068821D01*
X66474472Y-90297867D01*
X67183000Y-91006395D01*
X67891528Y-90297867D01*
X67837697Y-90068821D01*
X67396912Y-89916000D01*
X67435619Y-89916000D01*
X67902397Y-89722654D01*
X68259654Y-89365397D01*
X68453000Y-88898619D01*
X68453000Y-88393381D01*
X68259654Y-87926603D01*
X67902397Y-87569346D01*
X67435619Y-87376000D01*
X67902397Y-87182654D01*
X68259654Y-86825397D01*
X68453000Y-86358619D01*
X68453000Y-85853381D01*
X68259654Y-85386603D01*
X68217051Y-85344000D01*
X77823632Y-85344000D01*
X77932056Y-85889082D01*
X78240820Y-86351180D01*
X78634158Y-86614000D01*
X78240820Y-86876820D01*
X77932056Y-87338918D01*
X77823632Y-87884000D01*
X77932056Y-88429082D01*
X78240820Y-88891180D01*
X78634158Y-89154000D01*
X78240820Y-89416820D01*
X77932056Y-89878918D01*
X77823632Y-90424000D01*
X77932056Y-90969082D01*
X78240820Y-91431180D01*
X78634158Y-91694000D01*
X78240820Y-91956820D01*
X77932056Y-92418918D01*
X77823632Y-92964000D01*
X77932056Y-93509082D01*
X78240820Y-93971180D01*
X78634158Y-94234000D01*
X78240820Y-94496820D01*
X77932056Y-94958918D01*
X77823632Y-95504000D01*
X77932056Y-96049082D01*
X78240820Y-96511180D01*
X78634158Y-96774000D01*
X78240820Y-97036820D01*
X77932056Y-97498918D01*
X77823632Y-98044000D01*
X77932056Y-98589082D01*
X78240820Y-99051180D01*
X78702918Y-99359944D01*
X79110412Y-99441000D01*
X80401588Y-99441000D01*
X80809082Y-99359944D01*
X81271180Y-99051180D01*
X81384729Y-98881242D01*
X81407000Y-98885672D01*
X81488301Y-98869500D01*
X81488303Y-98869500D01*
X81729094Y-98821604D01*
X82002152Y-98639152D01*
X82048209Y-98570223D01*
X85182444Y-95435989D01*
X85327495Y-95375907D01*
X85613301Y-95090101D01*
X85767977Y-94716678D01*
X85767977Y-94312488D01*
X85613301Y-93939065D01*
X85327495Y-93653259D01*
X85305340Y-93644082D01*
X85305340Y-93401247D01*
X85199346Y-93145353D01*
X85324330Y-92843612D01*
X85324330Y-92439422D01*
X85255474Y-92273187D01*
X85268542Y-92260119D01*
X85423218Y-91886696D01*
X85423218Y-91482506D01*
X85268542Y-91109083D01*
X84982736Y-90823277D01*
X84609313Y-90668601D01*
X84205123Y-90668601D01*
X83831700Y-90823277D01*
X83795876Y-90859101D01*
X83693998Y-90859101D01*
X83360897Y-90526000D01*
X85951633Y-90526000D01*
X85979000Y-90663584D01*
X85979001Y-98491204D01*
X85951633Y-98628793D01*
X86060056Y-99173874D01*
X86155206Y-99316276D01*
X86368821Y-99635973D01*
X86485462Y-99713910D01*
X88246090Y-101474539D01*
X88324027Y-101591180D01*
X88786125Y-101899944D01*
X89193619Y-101981000D01*
X89193624Y-101981000D01*
X89331206Y-102008367D01*
X89468789Y-101981000D01*
X102986413Y-101981000D01*
X103124000Y-102008368D01*
X103261588Y-101981000D01*
X118480416Y-101981000D01*
X118618000Y-102008367D01*
X118755584Y-101981000D01*
X132261272Y-101981000D01*
X132398856Y-102008367D01*
X132536440Y-101981000D01*
X132536444Y-101981000D01*
X132943938Y-101899944D01*
X133406036Y-101591180D01*
X133483975Y-101474536D01*
X134523396Y-100435116D01*
X134640034Y-100357181D01*
X134717970Y-100240542D01*
X134717972Y-100240540D01*
X134948799Y-99895083D01*
X135000339Y-99635973D01*
X135029855Y-99487589D01*
X135029855Y-99487586D01*
X135057222Y-99350002D01*
X135029855Y-99212418D01*
X135029855Y-96977039D01*
X135185190Y-97062649D01*
X135279168Y-97083540D01*
X135509000Y-96962214D01*
X135509000Y-94869000D01*
X135489000Y-94869000D01*
X135489000Y-94615000D01*
X135509000Y-94615000D01*
X135509000Y-92521786D01*
X135763000Y-92521786D01*
X135763000Y-94615000D01*
X135783000Y-94615000D01*
X135783000Y-94869000D01*
X135763000Y-94869000D01*
X135763000Y-96962214D01*
X135992832Y-97083540D01*
X136086810Y-97062649D01*
X136595989Y-96782024D01*
X136898803Y-96403230D01*
X137105642Y-96712788D01*
X137596726Y-97040920D01*
X138176000Y-97156145D01*
X138755273Y-97040920D01*
X139246358Y-96712788D01*
X139446000Y-96414002D01*
X139645642Y-96712788D01*
X140136726Y-97040920D01*
X140716000Y-97156145D01*
X141295273Y-97040920D01*
X141786358Y-96712788D01*
X142114490Y-96221704D01*
X142200630Y-95788650D01*
X142200630Y-94869000D01*
X149391370Y-94869000D01*
X149391370Y-95769430D01*
X149552982Y-96327906D01*
X149916011Y-96782024D01*
X150425190Y-97062649D01*
X150519168Y-97083540D01*
X150749000Y-96962214D01*
X150749000Y-94869000D01*
X149391370Y-94869000D01*
X142200630Y-94869000D01*
X142200630Y-93714570D01*
X149391370Y-93714570D01*
X149391370Y-94615000D01*
X150749000Y-94615000D01*
X150749000Y-92521786D01*
X151003000Y-92521786D01*
X151003000Y-94615000D01*
X151023000Y-94615000D01*
X151023000Y-94869000D01*
X151003000Y-94869000D01*
X151003000Y-96962214D01*
X151232832Y-97083540D01*
X151326810Y-97062649D01*
X151835989Y-96782024D01*
X152138803Y-96403230D01*
X152345642Y-96712788D01*
X152836726Y-97040920D01*
X153416000Y-97156145D01*
X153995273Y-97040920D01*
X154486358Y-96712788D01*
X154686000Y-96414002D01*
X154885642Y-96712788D01*
X155376726Y-97040920D01*
X155956000Y-97156145D01*
X156535273Y-97040920D01*
X157026358Y-96712788D01*
X157354490Y-96221704D01*
X157440630Y-95788650D01*
X157440630Y-93695350D01*
X157354490Y-93262296D01*
X157026358Y-92771212D01*
X156535274Y-92443080D01*
X155956000Y-92327855D01*
X155376727Y-92443080D01*
X154885643Y-92771212D01*
X154686001Y-93069998D01*
X154486358Y-92771212D01*
X153995274Y-92443080D01*
X153416000Y-92327855D01*
X152836727Y-92443080D01*
X152345643Y-92771212D01*
X152138803Y-93080770D01*
X151835989Y-92701976D01*
X151326810Y-92421351D01*
X151232832Y-92400460D01*
X151003000Y-92521786D01*
X150749000Y-92521786D01*
X150519168Y-92400460D01*
X150425190Y-92421351D01*
X149916011Y-92701976D01*
X149552982Y-93156094D01*
X149391370Y-93714570D01*
X142200630Y-93714570D01*
X142200630Y-93695350D01*
X142114490Y-93262296D01*
X141786358Y-92771212D01*
X141295274Y-92443080D01*
X140716000Y-92327855D01*
X140136727Y-92443080D01*
X139645643Y-92771212D01*
X139446001Y-93069998D01*
X139246358Y-92771212D01*
X138755274Y-92443080D01*
X138176000Y-92327855D01*
X137596727Y-92443080D01*
X137105643Y-92771212D01*
X136898803Y-93080770D01*
X136595989Y-92701976D01*
X136086810Y-92421351D01*
X135992832Y-92400460D01*
X135763000Y-92521786D01*
X135509000Y-92521786D01*
X135279168Y-92400460D01*
X135185190Y-92421351D01*
X135029855Y-92506961D01*
X135029855Y-90313800D01*
X136526541Y-88817115D01*
X136643179Y-88739180D01*
X136721115Y-88622541D01*
X136721117Y-88622539D01*
X136951944Y-88277082D01*
X137004871Y-88011000D01*
X137033000Y-87869588D01*
X137033000Y-87869584D01*
X137060367Y-87732000D01*
X137033000Y-87594416D01*
X137033000Y-85420412D01*
X136951944Y-85012918D01*
X136933440Y-84985225D01*
X136933440Y-84908000D01*
X136884157Y-84660235D01*
X136743809Y-84450191D01*
X136533765Y-84309843D01*
X136286000Y-84260560D01*
X136208775Y-84260560D01*
X136181082Y-84242056D01*
X136172438Y-84240337D01*
X136299729Y-84187611D01*
X136355410Y-83957016D01*
X135636000Y-83237605D01*
X134916590Y-83957016D01*
X134972271Y-84187611D01*
X135114976Y-84237271D01*
X135090919Y-84242056D01*
X135063226Y-84260560D01*
X134986000Y-84260560D01*
X134738235Y-84309843D01*
X134528191Y-84450191D01*
X134387843Y-84660235D01*
X134338560Y-84908000D01*
X134338560Y-84985226D01*
X134320057Y-85012918D01*
X134239001Y-85420412D01*
X134239000Y-87153344D01*
X132742317Y-88650028D01*
X132625676Y-88727965D01*
X132547739Y-88844606D01*
X132547738Y-88844607D01*
X132316911Y-89190064D01*
X132208488Y-89735145D01*
X132235856Y-89872734D01*
X132235855Y-98771345D01*
X131820201Y-99187000D01*
X119701945Y-99187000D01*
X119701945Y-96928589D01*
X119945190Y-97062649D01*
X120039168Y-97083540D01*
X120269000Y-96962214D01*
X120269000Y-94869000D01*
X120249000Y-94869000D01*
X120249000Y-94615000D01*
X120269000Y-94615000D01*
X120269000Y-92521786D01*
X120523000Y-92521786D01*
X120523000Y-94615000D01*
X120543000Y-94615000D01*
X120543000Y-94869000D01*
X120523000Y-94869000D01*
X120523000Y-96962214D01*
X120752832Y-97083540D01*
X120846810Y-97062649D01*
X121355989Y-96782024D01*
X121658803Y-96403230D01*
X121865642Y-96712788D01*
X122356726Y-97040920D01*
X122936000Y-97156145D01*
X123515273Y-97040920D01*
X124006358Y-96712788D01*
X124206000Y-96414002D01*
X124405642Y-96712788D01*
X124896726Y-97040920D01*
X125476000Y-97156145D01*
X126055273Y-97040920D01*
X126546358Y-96712788D01*
X126874490Y-96221704D01*
X126960630Y-95788650D01*
X126960630Y-93695350D01*
X126874490Y-93262296D01*
X126546358Y-92771212D01*
X126055274Y-92443080D01*
X125476000Y-92327855D01*
X124896727Y-92443080D01*
X124405643Y-92771212D01*
X124206001Y-93069998D01*
X124006358Y-92771212D01*
X123515274Y-92443080D01*
X122936000Y-92327855D01*
X122356727Y-92443080D01*
X121865643Y-92771212D01*
X121658803Y-93080770D01*
X121355989Y-92701976D01*
X120846810Y-92421351D01*
X120752832Y-92400460D01*
X120523000Y-92521786D01*
X120269000Y-92521786D01*
X120039168Y-92400460D01*
X119945190Y-92421351D01*
X119701945Y-92555411D01*
X119701945Y-90147710D01*
X121032539Y-88817117D01*
X121149180Y-88739180D01*
X121457944Y-88277082D01*
X121539000Y-87869588D01*
X121539000Y-87869585D01*
X121566367Y-87732001D01*
X121539000Y-87594417D01*
X121539000Y-85420412D01*
X121457944Y-85012918D01*
X121439440Y-84985225D01*
X121439440Y-84908000D01*
X121390157Y-84660235D01*
X121249809Y-84450191D01*
X121039765Y-84309843D01*
X120792000Y-84260560D01*
X120714774Y-84260560D01*
X120687081Y-84242056D01*
X120678438Y-84240337D01*
X120805729Y-84187611D01*
X120861410Y-83957016D01*
X120142000Y-83237605D01*
X119422590Y-83957016D01*
X119478271Y-84187611D01*
X119620976Y-84237271D01*
X119596918Y-84242056D01*
X119569225Y-84260560D01*
X119492000Y-84260560D01*
X119244235Y-84309843D01*
X119034191Y-84450191D01*
X118893843Y-84660235D01*
X118844560Y-84908000D01*
X118844560Y-84985226D01*
X118826056Y-85012919D01*
X118745000Y-85420413D01*
X118745001Y-87153344D01*
X117414407Y-88483938D01*
X117297765Y-88561876D01*
X116989001Y-89023974D01*
X116907945Y-89431468D01*
X116907945Y-89431471D01*
X116880578Y-89569055D01*
X116907945Y-89706639D01*
X116907946Y-99187000D01*
X104521000Y-99187000D01*
X104521000Y-96961136D01*
X104705190Y-97062649D01*
X104799168Y-97083540D01*
X105029000Y-96962214D01*
X105029000Y-94869000D01*
X105009000Y-94869000D01*
X105009000Y-94615000D01*
X105029000Y-94615000D01*
X105029000Y-92521786D01*
X105283000Y-92521786D01*
X105283000Y-94615000D01*
X105303000Y-94615000D01*
X105303000Y-94869000D01*
X105283000Y-94869000D01*
X105283000Y-96962214D01*
X105512832Y-97083540D01*
X105606810Y-97062649D01*
X106115989Y-96782024D01*
X106418803Y-96403230D01*
X106625642Y-96712788D01*
X107116726Y-97040920D01*
X107696000Y-97156145D01*
X108275273Y-97040920D01*
X108766358Y-96712788D01*
X108966000Y-96414002D01*
X109165642Y-96712788D01*
X109656726Y-97040920D01*
X110236000Y-97156145D01*
X110815273Y-97040920D01*
X111306358Y-96712788D01*
X111634490Y-96221704D01*
X111720630Y-95788650D01*
X111720630Y-93695350D01*
X111634490Y-93262296D01*
X111306358Y-92771212D01*
X110815274Y-92443080D01*
X110236000Y-92327855D01*
X109656727Y-92443080D01*
X109165643Y-92771212D01*
X108966001Y-93069998D01*
X108766358Y-92771212D01*
X108275274Y-92443080D01*
X107696000Y-92327855D01*
X107116727Y-92443080D01*
X106625643Y-92771212D01*
X106418803Y-93080770D01*
X106115989Y-92701976D01*
X105606810Y-92421351D01*
X105512832Y-92400460D01*
X105283000Y-92521786D01*
X105029000Y-92521786D01*
X104799168Y-92400460D01*
X104705190Y-92421351D01*
X104521000Y-92522864D01*
X104521000Y-90088655D01*
X105792539Y-88817117D01*
X105909180Y-88739180D01*
X106217944Y-88277082D01*
X106299000Y-87869588D01*
X106299000Y-87869584D01*
X106326367Y-87732000D01*
X106299000Y-87594416D01*
X106299000Y-85420412D01*
X106217944Y-85012918D01*
X106199440Y-84985225D01*
X106199440Y-84908000D01*
X106150157Y-84660235D01*
X106009809Y-84450191D01*
X105799765Y-84309843D01*
X105552000Y-84260560D01*
X105474774Y-84260560D01*
X105447081Y-84242056D01*
X105438438Y-84240337D01*
X105565729Y-84187611D01*
X105621410Y-83957016D01*
X104902000Y-83237605D01*
X104182590Y-83957016D01*
X104238271Y-84187611D01*
X104380976Y-84237271D01*
X104356918Y-84242056D01*
X104329225Y-84260560D01*
X104252000Y-84260560D01*
X104004235Y-84309843D01*
X103794191Y-84450191D01*
X103653843Y-84660235D01*
X103604560Y-84908000D01*
X103604560Y-84985226D01*
X103586056Y-85012919D01*
X103505000Y-85420413D01*
X103505001Y-87153344D01*
X102233462Y-88424883D01*
X102116820Y-88502821D01*
X101808056Y-88964919D01*
X101727000Y-89372413D01*
X101727000Y-89372416D01*
X101699633Y-89510000D01*
X101727000Y-89647584D01*
X101727001Y-99187000D01*
X89909863Y-99187000D01*
X88773000Y-98050138D01*
X88773000Y-96553093D01*
X88956011Y-96782024D01*
X89465190Y-97062649D01*
X89559168Y-97083540D01*
X89789000Y-96962214D01*
X89789000Y-94869000D01*
X89769000Y-94869000D01*
X89769000Y-94615000D01*
X89789000Y-94615000D01*
X89789000Y-92521786D01*
X90043000Y-92521786D01*
X90043000Y-94615000D01*
X90063000Y-94615000D01*
X90063000Y-94869000D01*
X90043000Y-94869000D01*
X90043000Y-96962214D01*
X90272832Y-97083540D01*
X90366810Y-97062649D01*
X90875989Y-96782024D01*
X91178803Y-96403230D01*
X91385642Y-96712788D01*
X91876726Y-97040920D01*
X92456000Y-97156145D01*
X93035273Y-97040920D01*
X93526358Y-96712788D01*
X93726000Y-96414002D01*
X93925642Y-96712788D01*
X94416726Y-97040920D01*
X94996000Y-97156145D01*
X95575273Y-97040920D01*
X96066358Y-96712788D01*
X96394490Y-96221704D01*
X96480630Y-95788650D01*
X96480630Y-93695350D01*
X96394490Y-93262296D01*
X96066358Y-92771212D01*
X95575274Y-92443080D01*
X94996000Y-92327855D01*
X94416727Y-92443080D01*
X93925643Y-92771212D01*
X93726001Y-93069998D01*
X93526358Y-92771212D01*
X93035274Y-92443080D01*
X92456000Y-92327855D01*
X91876727Y-92443080D01*
X91385643Y-92771212D01*
X91178803Y-93080770D01*
X90875989Y-92701976D01*
X90366810Y-92421351D01*
X90272832Y-92400460D01*
X90043000Y-92521786D01*
X89789000Y-92521786D01*
X89559168Y-92400460D01*
X89465190Y-92421351D01*
X88956011Y-92701976D01*
X88773000Y-92930907D01*
X88773000Y-91104655D01*
X91060539Y-88817117D01*
X91177180Y-88739180D01*
X91485944Y-88277082D01*
X91567000Y-87869588D01*
X91567000Y-87869584D01*
X91594367Y-87732000D01*
X91567000Y-87594416D01*
X91567000Y-85420412D01*
X91485944Y-85012918D01*
X91467440Y-84985225D01*
X91467440Y-84908000D01*
X91418157Y-84660235D01*
X91277809Y-84450191D01*
X91067765Y-84309843D01*
X90820000Y-84260560D01*
X90742774Y-84260560D01*
X90715081Y-84242056D01*
X90706438Y-84240337D01*
X90833729Y-84187611D01*
X90889410Y-83957016D01*
X90170000Y-83237605D01*
X89450590Y-83957016D01*
X89506271Y-84187611D01*
X89648976Y-84237271D01*
X89624918Y-84242056D01*
X89597225Y-84260560D01*
X89520000Y-84260560D01*
X89272235Y-84309843D01*
X89062191Y-84450191D01*
X88921843Y-84660235D01*
X88872560Y-84908000D01*
X88872560Y-84985226D01*
X88854056Y-85012919D01*
X88773000Y-85420413D01*
X88773001Y-87153343D01*
X86485462Y-89440883D01*
X86368820Y-89518821D01*
X86060056Y-89980919D01*
X85979000Y-90388413D01*
X85979000Y-90388416D01*
X85951633Y-90526000D01*
X83360897Y-90526000D01*
X81453386Y-88618490D01*
X81579944Y-88429082D01*
X81688368Y-87884000D01*
X81579944Y-87338918D01*
X81271180Y-86876820D01*
X80877842Y-86614000D01*
X81271180Y-86351180D01*
X81579944Y-85889082D01*
X81688368Y-85344000D01*
X81579944Y-84798918D01*
X81271180Y-84336820D01*
X80860511Y-84062420D01*
X80915941Y-84046059D01*
X81341630Y-83702026D01*
X81603260Y-83221277D01*
X81618220Y-83147070D01*
X81495720Y-82931000D01*
X79883000Y-82931000D01*
X79883000Y-82951000D01*
X79629000Y-82951000D01*
X79629000Y-82931000D01*
X78016280Y-82931000D01*
X77893780Y-83147070D01*
X77908740Y-83221277D01*
X78170370Y-83702026D01*
X78596059Y-84046059D01*
X78651489Y-84062420D01*
X78240820Y-84336820D01*
X77932056Y-84798918D01*
X77823632Y-85344000D01*
X68217051Y-85344000D01*
X67902397Y-85029346D01*
X67435619Y-84836000D01*
X67902397Y-84642654D01*
X68259654Y-84285397D01*
X68453000Y-83818619D01*
X68453000Y-83717433D01*
X68472193Y-83736625D01*
X68518248Y-83805552D01*
X68791306Y-83988004D01*
X68992663Y-84028056D01*
X69113400Y-84052072D01*
X69194703Y-84035900D01*
X69864221Y-84035900D01*
X69945522Y-84052072D01*
X70026823Y-84035900D01*
X70026825Y-84035900D01*
X70267616Y-83988004D01*
X70540674Y-83805552D01*
X70586731Y-83736623D01*
X71532055Y-82791300D01*
X72515258Y-82791300D01*
X72551082Y-82827124D01*
X72924505Y-82981800D01*
X73328695Y-82981800D01*
X73581517Y-82877078D01*
X88872378Y-82877078D01*
X88901917Y-83387428D01*
X89040389Y-83721729D01*
X89270984Y-83777410D01*
X89990395Y-83058000D01*
X90349605Y-83058000D01*
X91069016Y-83777410D01*
X91299611Y-83721729D01*
X91467622Y-83238922D01*
X91446679Y-82877078D01*
X103604378Y-82877078D01*
X103633917Y-83387428D01*
X103772389Y-83721729D01*
X104002984Y-83777410D01*
X104722395Y-83058000D01*
X105081605Y-83058000D01*
X105801016Y-83777410D01*
X106031611Y-83721729D01*
X106199622Y-83238922D01*
X106178679Y-82877078D01*
X118844378Y-82877078D01*
X118873917Y-83387428D01*
X119012389Y-83721729D01*
X119242984Y-83777410D01*
X119962395Y-83058000D01*
X120321605Y-83058000D01*
X121041016Y-83777410D01*
X121271611Y-83721729D01*
X121439622Y-83238922D01*
X121418679Y-82877078D01*
X134338378Y-82877078D01*
X134367917Y-83387428D01*
X134506389Y-83721729D01*
X134736984Y-83777410D01*
X135456395Y-83058000D01*
X135815605Y-83058000D01*
X136535016Y-83777410D01*
X136765611Y-83721729D01*
X136933622Y-83238922D01*
X136904083Y-82728572D01*
X136765611Y-82394271D01*
X136535016Y-82338590D01*
X135815605Y-83058000D01*
X135456395Y-83058000D01*
X134736984Y-82338590D01*
X134506389Y-82394271D01*
X134338378Y-82877078D01*
X121418679Y-82877078D01*
X121410083Y-82728572D01*
X121271611Y-82394271D01*
X121041016Y-82338590D01*
X120321605Y-83058000D01*
X119962395Y-83058000D01*
X119242984Y-82338590D01*
X119012389Y-82394271D01*
X118844378Y-82877078D01*
X106178679Y-82877078D01*
X106170083Y-82728572D01*
X106031611Y-82394271D01*
X105801016Y-82338590D01*
X105081605Y-83058000D01*
X104722395Y-83058000D01*
X104002984Y-82338590D01*
X103772389Y-82394271D01*
X103604378Y-82877078D01*
X91446679Y-82877078D01*
X91438083Y-82728572D01*
X91299611Y-82394271D01*
X91069016Y-82338590D01*
X90349605Y-83058000D01*
X89990395Y-83058000D01*
X89270984Y-82338590D01*
X89040389Y-82394271D01*
X88872378Y-82877078D01*
X73581517Y-82877078D01*
X73702118Y-82827124D01*
X73987924Y-82541318D01*
X74142600Y-82167895D01*
X74142600Y-81763705D01*
X73987924Y-81390282D01*
X73702118Y-81104476D01*
X73328695Y-80949800D01*
X72924505Y-80949800D01*
X72551082Y-81104476D01*
X72515258Y-81140300D01*
X71851638Y-81140300D01*
X73770646Y-79221293D01*
X76936260Y-79221293D01*
X77260594Y-79545628D01*
X77306648Y-79614552D01*
X77375571Y-79660605D01*
X77375572Y-79660606D01*
X77462842Y-79718918D01*
X77579706Y-79797004D01*
X77820497Y-79844900D01*
X77820501Y-79844900D01*
X77901799Y-79861071D01*
X77903861Y-79860661D01*
X77823632Y-80264000D01*
X77932056Y-80809082D01*
X78240820Y-81271180D01*
X78651489Y-81545580D01*
X78596059Y-81561941D01*
X78170370Y-81905974D01*
X77908740Y-82386723D01*
X77893780Y-82460930D01*
X78016280Y-82677000D01*
X79629000Y-82677000D01*
X79629000Y-82657000D01*
X79883000Y-82657000D01*
X79883000Y-82677000D01*
X81495720Y-82677000D01*
X81618220Y-82460930D01*
X81603260Y-82386723D01*
X81479322Y-82158984D01*
X89450590Y-82158984D01*
X90170000Y-82878395D01*
X90889410Y-82158984D01*
X104182590Y-82158984D01*
X104902000Y-82878395D01*
X105621410Y-82158984D01*
X119422590Y-82158984D01*
X120142000Y-82878395D01*
X120861410Y-82158984D01*
X134916590Y-82158984D01*
X135636000Y-82878395D01*
X136355410Y-82158984D01*
X136299729Y-81928389D01*
X135816922Y-81760378D01*
X135306572Y-81789917D01*
X134972271Y-81928389D01*
X134916590Y-82158984D01*
X120861410Y-82158984D01*
X120805729Y-81928389D01*
X120322922Y-81760378D01*
X119812572Y-81789917D01*
X119478271Y-81928389D01*
X119422590Y-82158984D01*
X105621410Y-82158984D01*
X105565729Y-81928389D01*
X105082922Y-81760378D01*
X104572572Y-81789917D01*
X104238271Y-81928389D01*
X104182590Y-82158984D01*
X90889410Y-82158984D01*
X90833729Y-81928389D01*
X90350922Y-81760378D01*
X89840572Y-81789917D01*
X89506271Y-81928389D01*
X89450590Y-82158984D01*
X81479322Y-82158984D01*
X81341630Y-81905974D01*
X80915941Y-81561941D01*
X80860511Y-81545580D01*
X81271180Y-81271180D01*
X81579944Y-80809082D01*
X81688368Y-80264000D01*
X81579944Y-79718918D01*
X81513093Y-79618868D01*
X81519552Y-79614552D01*
X81565609Y-79545623D01*
X81942733Y-79168499D01*
X82011662Y-79122442D01*
X82194114Y-78849384D01*
X82242010Y-78608593D01*
X82242010Y-78608592D01*
X82258182Y-78527290D01*
X82242010Y-78445987D01*
X82242010Y-76417807D01*
X82258181Y-76336509D01*
X82242010Y-76255211D01*
X82242010Y-76255207D01*
X82194114Y-76014416D01*
X82011662Y-75741358D01*
X81942736Y-75695303D01*
X81645740Y-75398307D01*
X81688368Y-75184000D01*
X81579944Y-74638918D01*
X81271180Y-74176820D01*
X80809082Y-73868056D01*
X80401588Y-73787000D01*
X79110412Y-73787000D01*
X78702918Y-73868056D01*
X78240820Y-74176820D01*
X77932056Y-74638918D01*
X77823632Y-75184000D01*
X77932056Y-75729082D01*
X78240820Y-76191180D01*
X78634158Y-76454000D01*
X78240820Y-76716820D01*
X78119425Y-76898500D01*
X73557788Y-76898500D01*
X73710800Y-76529095D01*
X73710800Y-76124905D01*
X73556124Y-75751482D01*
X73450837Y-75646195D01*
X74227741Y-74869292D01*
X74295001Y-74882671D01*
X74376302Y-74866499D01*
X74376304Y-74866499D01*
X74617095Y-74818603D01*
X74830515Y-74676000D01*
X74878095Y-74676000D01*
X75251518Y-74521324D01*
X75537324Y-74235518D01*
X75692000Y-73862095D01*
X75692000Y-73457905D01*
X75537324Y-73084482D01*
X75251518Y-72798676D01*
X74878095Y-72644000D01*
X74473905Y-72644000D01*
X74100482Y-72798676D01*
X73814676Y-73084482D01*
X73756197Y-73225664D01*
X73566507Y-73263395D01*
X73293449Y-73445847D01*
X73247394Y-73514773D01*
X73014338Y-73747829D01*
X72958681Y-73468024D01*
X72706056Y-73089944D01*
X72327976Y-72837319D01*
X71881999Y-72748608D01*
X71436023Y-72837319D01*
X71153377Y-73026177D01*
X66963555Y-77216000D01*
X66930381Y-77216000D01*
X66463603Y-77409346D01*
X66106346Y-77766603D01*
X65913000Y-78233381D01*
X65913000Y-78738619D01*
X66033823Y-79030311D01*
X65800448Y-79186248D01*
X65754393Y-79255174D01*
X64878777Y-80130791D01*
X64809848Y-80176848D01*
X64627396Y-80449907D01*
X64585900Y-80658522D01*
X64563328Y-80772000D01*
X64579500Y-80853302D01*
X64579501Y-83284857D01*
X64543676Y-83320682D01*
X64389000Y-83694105D01*
X43053000Y-83694105D01*
X43053000Y-83313381D01*
X42859654Y-82846603D01*
X42502397Y-82489346D01*
X42035619Y-82296000D01*
X42502397Y-82102654D01*
X42859654Y-81745397D01*
X43053000Y-81278619D01*
X43053000Y-80773381D01*
X42859654Y-80306603D01*
X42502397Y-79949346D01*
X42035619Y-79756000D01*
X42502397Y-79562654D01*
X42859654Y-79205397D01*
X43053000Y-78738619D01*
X43053000Y-78233381D01*
X42859654Y-77766603D01*
X42502397Y-77409346D01*
X42035619Y-77216000D01*
X41530381Y-77216000D01*
X41063603Y-77409346D01*
X40706346Y-77766603D01*
X40513000Y-78233381D01*
X21792000Y-78233381D01*
X21792000Y-66167000D01*
X25308349Y-66167000D01*
X25283087Y-66294000D01*
X25394460Y-66853909D01*
X25711623Y-67328577D01*
X26063958Y-67564000D01*
X25711623Y-67799423D01*
X25394460Y-68274091D01*
X25283087Y-68834000D01*
X25394460Y-69393909D01*
X25711623Y-69868577D01*
X26063958Y-70104000D01*
X25711623Y-70339423D01*
X25394460Y-70814091D01*
X25283087Y-71374000D01*
X25394460Y-71933909D01*
X25711623Y-72408577D01*
X25920701Y-72548278D01*
X25920701Y-73629494D01*
X25904528Y-73710800D01*
X25966512Y-74022412D01*
X25968597Y-74032894D01*
X26151049Y-74305952D01*
X26219975Y-74352007D01*
X27806793Y-75938826D01*
X27852848Y-76007752D01*
X28125906Y-76190204D01*
X28448000Y-76254272D01*
X28529303Y-76238100D01*
X32281658Y-76238100D01*
X32317482Y-76273924D01*
X32690905Y-76428600D01*
X33095095Y-76428600D01*
X33468518Y-76273924D01*
X33754324Y-75988118D01*
X33909000Y-75614695D01*
X33909000Y-75210505D01*
X33754324Y-74837082D01*
X33468518Y-74551276D01*
X33095095Y-74396600D01*
X32690905Y-74396600D01*
X32317482Y-74551276D01*
X32281658Y-74587100D01*
X28789933Y-74587100D01*
X27571700Y-73368868D01*
X27571700Y-72548278D01*
X27780777Y-72408577D01*
X28097940Y-71933909D01*
X28209313Y-71374000D01*
X28097940Y-70814091D01*
X27780777Y-70339423D01*
X27428442Y-70104000D01*
X27780777Y-69868577D01*
X28097940Y-69393909D01*
X28209313Y-68834000D01*
X28097940Y-68274091D01*
X27780777Y-67799423D01*
X27428442Y-67564000D01*
X27780777Y-67328577D01*
X28097940Y-66853909D01*
X28198044Y-66350650D01*
X32004000Y-70156606D01*
X32004000Y-73406000D01*
X32013667Y-73454601D01*
X32041197Y-73495803D01*
X32082399Y-73523333D01*
X32131000Y-73533000D01*
X36322000Y-73533000D01*
X36370601Y-73523333D01*
X36411803Y-73495803D01*
X36439333Y-73454601D01*
X36449000Y-73406000D01*
X36449000Y-72503159D01*
X158289000Y-72503159D01*
X158289000Y-73292841D01*
X158591199Y-74022412D01*
X159149588Y-74580801D01*
X159879159Y-74883000D01*
X160668841Y-74883000D01*
X161398412Y-74580801D01*
X161956801Y-74022412D01*
X162259000Y-73292841D01*
X162259000Y-72503159D01*
X161956801Y-71773588D01*
X161398412Y-71215199D01*
X160668841Y-70913000D01*
X159879159Y-70913000D01*
X159149588Y-71215199D01*
X158591199Y-71773588D01*
X158289000Y-72503159D01*
X36449000Y-72503159D01*
X36449000Y-68428705D01*
X46431200Y-68428705D01*
X46431200Y-68832895D01*
X46585876Y-69206318D01*
X46871682Y-69492124D01*
X47024988Y-69555625D01*
X47774145Y-70304783D01*
X47827286Y-70384314D01*
X48142353Y-70594835D01*
X48513999Y-70668760D01*
X48607809Y-70650100D01*
X50368402Y-70650100D01*
X50521705Y-70713600D01*
X50925895Y-70713600D01*
X51299318Y-70558924D01*
X51585124Y-70273118D01*
X51739800Y-69899695D01*
X51739800Y-69596000D01*
X52068895Y-69596000D01*
X52442318Y-69441324D01*
X52728124Y-69155518D01*
X52882800Y-68782095D01*
X52882800Y-68771640D01*
X53127776Y-68670168D01*
X53413582Y-68384362D01*
X53543620Y-68070421D01*
X53787058Y-67969586D01*
X54072864Y-67683780D01*
X54188759Y-67403984D01*
X54466784Y-67288823D01*
X54752590Y-67003017D01*
X54858734Y-66746761D01*
X55160118Y-66621924D01*
X55220891Y-66561151D01*
X55373105Y-66624200D01*
X55777295Y-66624200D01*
X56150718Y-66469524D01*
X56436524Y-66183718D01*
X56591200Y-65810295D01*
X56591200Y-65533105D01*
X61442600Y-65533105D01*
X61442600Y-65937295D01*
X61597276Y-66310718D01*
X61883082Y-66596524D01*
X62256505Y-66751200D01*
X62660695Y-66751200D01*
X63034118Y-66596524D01*
X63319924Y-66310718D01*
X63375589Y-66176331D01*
X63475705Y-66217800D01*
X63879895Y-66217800D01*
X64253318Y-66063124D01*
X64539124Y-65777318D01*
X64693800Y-65403895D01*
X64693800Y-64999705D01*
X64539124Y-64626282D01*
X64503300Y-64590458D01*
X64503300Y-63737761D01*
X64837518Y-63599324D01*
X65123324Y-63313518D01*
X65278000Y-62940095D01*
X65278000Y-62535905D01*
X65246438Y-62459705D01*
X70307200Y-62459705D01*
X70307200Y-62863895D01*
X70461876Y-63237318D01*
X70497701Y-63273143D01*
X70497700Y-64666658D01*
X70461876Y-64702482D01*
X70307200Y-65075905D01*
X70307200Y-65480095D01*
X70461876Y-65853518D01*
X70747682Y-66139324D01*
X71121105Y-66294000D01*
X71525295Y-66294000D01*
X71898718Y-66139324D01*
X72184524Y-65853518D01*
X72339200Y-65480095D01*
X72339200Y-65075905D01*
X72184524Y-64702482D01*
X72148700Y-64666658D01*
X72148700Y-63273142D01*
X72184524Y-63237318D01*
X72339200Y-62863895D01*
X72339200Y-62459705D01*
X72184524Y-62086282D01*
X71898718Y-61800476D01*
X71525295Y-61645800D01*
X71121105Y-61645800D01*
X70747682Y-61800476D01*
X70461876Y-62086282D01*
X70307200Y-62459705D01*
X65246438Y-62459705D01*
X65123324Y-62162482D01*
X64837518Y-61876676D01*
X64464095Y-61722000D01*
X64059905Y-61722000D01*
X63686482Y-61876676D01*
X63550800Y-62012358D01*
X63465918Y-61927476D01*
X63092495Y-61772800D01*
X62688305Y-61772800D01*
X62314882Y-61927476D01*
X62029076Y-62213282D01*
X61874400Y-62586705D01*
X61874400Y-62618131D01*
X61863449Y-62625448D01*
X61817394Y-62694374D01*
X61680997Y-62898506D01*
X61616928Y-63220600D01*
X61633101Y-63301906D01*
X61633100Y-65123858D01*
X61597276Y-65159682D01*
X61442600Y-65533105D01*
X56591200Y-65533105D01*
X56591200Y-65406105D01*
X56436524Y-65032682D01*
X56150718Y-64746876D01*
X55777295Y-64592200D01*
X55758101Y-64592200D01*
X53693165Y-62527266D01*
X53693165Y-62476603D01*
X53538489Y-62103180D01*
X53252683Y-61817374D01*
X52879260Y-61662698D01*
X52475070Y-61662698D01*
X52101647Y-61817374D01*
X51815841Y-62103180D01*
X51704518Y-62371938D01*
X51395942Y-62499754D01*
X51110136Y-62785560D01*
X50955460Y-63158983D01*
X50955460Y-63563173D01*
X50991347Y-63649811D01*
X50903876Y-63737282D01*
X50759156Y-64086670D01*
X50552541Y-64172252D01*
X50266735Y-64458058D01*
X50176727Y-64675357D01*
X49837530Y-64815856D01*
X49551724Y-65101662D01*
X49430967Y-65393196D01*
X49164736Y-65503472D01*
X48878930Y-65789278D01*
X48724254Y-66162701D01*
X48724254Y-66566891D01*
X48878930Y-66940314D01*
X49164736Y-67226120D01*
X49473297Y-67353930D01*
X50800967Y-68681600D01*
X50521705Y-68681600D01*
X50368402Y-68745100D01*
X48908538Y-68745100D01*
X48372025Y-68208588D01*
X48308524Y-68055282D01*
X48022718Y-67769476D01*
X47649295Y-67614800D01*
X47245105Y-67614800D01*
X46871682Y-67769476D01*
X46585876Y-68055282D01*
X46431200Y-68428705D01*
X36449000Y-68428705D01*
X36449000Y-68199000D01*
X36439333Y-68150399D01*
X36411803Y-68109197D01*
X35493065Y-67190459D01*
X35717940Y-66853909D01*
X35829313Y-66294000D01*
X35821907Y-66256764D01*
X38062841Y-66256764D01*
X38132059Y-66498742D01*
X38654780Y-66685155D01*
X39209049Y-66657341D01*
X39591941Y-66498742D01*
X39661159Y-66256764D01*
X38862000Y-65457605D01*
X38062841Y-66256764D01*
X35821907Y-66256764D01*
X35717940Y-65734091D01*
X35400777Y-65259423D01*
X35118453Y-65070780D01*
X37454845Y-65070780D01*
X37482659Y-65625049D01*
X37641258Y-66007941D01*
X37883236Y-66077159D01*
X38682395Y-65278000D01*
X39041605Y-65278000D01*
X39840764Y-66077159D01*
X40082742Y-66007941D01*
X40134406Y-65863069D01*
X40219376Y-66068204D01*
X40611796Y-66460624D01*
X41124517Y-66673000D01*
X41679483Y-66673000D01*
X42192204Y-66460624D01*
X42547877Y-66104951D01*
X42583843Y-66285765D01*
X42724191Y-66495809D01*
X42934235Y-66636157D01*
X43182000Y-66685440D01*
X44702000Y-66685440D01*
X44949765Y-66636157D01*
X45159809Y-66495809D01*
X45300157Y-66285765D01*
X45349440Y-66038000D01*
X45349440Y-64518000D01*
X45300157Y-64270235D01*
X45159809Y-64060191D01*
X44949765Y-63919843D01*
X44702000Y-63870560D01*
X43182000Y-63870560D01*
X42934235Y-63919843D01*
X42724191Y-64060191D01*
X42583843Y-64270235D01*
X42547877Y-64451049D01*
X42192204Y-64095376D01*
X41679483Y-63883000D01*
X41124517Y-63883000D01*
X40611796Y-64095376D01*
X40219376Y-64487796D01*
X40138578Y-64682859D01*
X40082742Y-64548059D01*
X39840764Y-64478841D01*
X39041605Y-65278000D01*
X38682395Y-65278000D01*
X37883236Y-64478841D01*
X37641258Y-64548059D01*
X37454845Y-65070780D01*
X35118453Y-65070780D01*
X35017092Y-65003053D01*
X35221334Y-64906389D01*
X35597241Y-64491423D01*
X35676842Y-64299236D01*
X38062841Y-64299236D01*
X38862000Y-65098395D01*
X39661159Y-64299236D01*
X39591941Y-64057258D01*
X39069220Y-63870845D01*
X38514951Y-63898659D01*
X38132059Y-64057258D01*
X38062841Y-64299236D01*
X35676842Y-64299236D01*
X35758104Y-64103039D01*
X35636115Y-63881000D01*
X34493200Y-63881000D01*
X34493200Y-63901000D01*
X34239200Y-63901000D01*
X34239200Y-63881000D01*
X34219200Y-63881000D01*
X34219200Y-63627000D01*
X34239200Y-63627000D01*
X34239200Y-62483371D01*
X34493200Y-62483371D01*
X34493200Y-63627000D01*
X35636115Y-63627000D01*
X35758104Y-63404961D01*
X35597241Y-63016577D01*
X35221334Y-62601611D01*
X34715241Y-62362086D01*
X34493200Y-62483371D01*
X34239200Y-62483371D01*
X34017159Y-62362086D01*
X33511066Y-62601611D01*
X33401000Y-62723114D01*
X33401000Y-59734615D01*
X59602000Y-59734615D01*
X59602000Y-60325385D01*
X59828078Y-60871185D01*
X60245815Y-61288922D01*
X60791615Y-61515000D01*
X61382385Y-61515000D01*
X61928185Y-61288922D01*
X62345922Y-60871185D01*
X62572000Y-60325385D01*
X62572000Y-59734615D01*
X71159000Y-59734615D01*
X71159000Y-60325385D01*
X71385078Y-60871185D01*
X71802815Y-61288922D01*
X72348615Y-61515000D01*
X72939385Y-61515000D01*
X73485185Y-61288922D01*
X73902922Y-60871185D01*
X74129000Y-60325385D01*
X74129000Y-59734615D01*
X73902922Y-59188815D01*
X73485185Y-58771078D01*
X72939385Y-58545000D01*
X72348615Y-58545000D01*
X71802815Y-58771078D01*
X71385078Y-59188815D01*
X71159000Y-59734615D01*
X62572000Y-59734615D01*
X62345922Y-59188815D01*
X61928185Y-58771078D01*
X61382385Y-58545000D01*
X60791615Y-58545000D01*
X60245815Y-58771078D01*
X59828078Y-59188815D01*
X59602000Y-59734615D01*
X33401000Y-59734615D01*
X33401000Y-57895490D01*
X79783940Y-57895490D01*
X79783940Y-59486109D01*
X79880613Y-59719498D01*
X80059241Y-59898127D01*
X80292630Y-59994800D01*
X81883250Y-59994800D01*
X82042000Y-59836050D01*
X82042000Y-57736740D01*
X79942690Y-57736740D01*
X79783940Y-57895490D01*
X33401000Y-57895490D01*
X33401000Y-54205119D01*
X40640000Y-54205119D01*
X40640000Y-54760881D01*
X40852680Y-55274337D01*
X41245663Y-55667320D01*
X41707559Y-55858643D01*
X41656000Y-55983119D01*
X41656000Y-56538881D01*
X41868680Y-57052337D01*
X42261663Y-57445320D01*
X42775119Y-57658000D01*
X43330881Y-57658000D01*
X43844337Y-57445320D01*
X44069000Y-57220657D01*
X44293663Y-57445320D01*
X44807119Y-57658000D01*
X45362881Y-57658000D01*
X45876337Y-57445320D01*
X46101000Y-57220657D01*
X46325663Y-57445320D01*
X46839119Y-57658000D01*
X47394881Y-57658000D01*
X47908337Y-57445320D01*
X48133000Y-57220657D01*
X48357663Y-57445320D01*
X48871119Y-57658000D01*
X49426881Y-57658000D01*
X49940337Y-57445320D01*
X50333320Y-57052337D01*
X50546000Y-56538881D01*
X50546000Y-55983119D01*
X50442552Y-55733371D01*
X79783940Y-55733371D01*
X79783940Y-57323990D01*
X79942690Y-57482740D01*
X82042000Y-57482740D01*
X82042000Y-55383430D01*
X81883250Y-55224680D01*
X80292630Y-55224680D01*
X80059241Y-55321353D01*
X79880613Y-55499982D01*
X79783940Y-55733371D01*
X50442552Y-55733371D01*
X50333320Y-55469663D01*
X49940337Y-55076680D01*
X49478441Y-54885357D01*
X49530000Y-54760881D01*
X49530000Y-54205119D01*
X49317320Y-53691663D01*
X48924337Y-53298680D01*
X48410881Y-53086000D01*
X47855119Y-53086000D01*
X47341663Y-53298680D01*
X47117000Y-53523343D01*
X46892337Y-53298680D01*
X46378881Y-53086000D01*
X45823119Y-53086000D01*
X45309663Y-53298680D01*
X44916680Y-53691663D01*
X44829521Y-53902084D01*
X44248605Y-54483000D01*
X44262748Y-54497143D01*
X44083143Y-54676748D01*
X44069000Y-54662605D01*
X44054858Y-54676748D01*
X43875253Y-54497143D01*
X43889395Y-54483000D01*
X43308479Y-53902084D01*
X43221320Y-53691663D01*
X43032444Y-53502787D01*
X43268392Y-53502787D01*
X44069000Y-54303395D01*
X44869608Y-53502787D01*
X44800143Y-53260603D01*
X44276698Y-53073856D01*
X43721632Y-53101638D01*
X43337857Y-53260603D01*
X43268392Y-53502787D01*
X43032444Y-53502787D01*
X42828337Y-53298680D01*
X42314881Y-53086000D01*
X41759119Y-53086000D01*
X41245663Y-53298680D01*
X40852680Y-53691663D01*
X40640000Y-54205119D01*
X33401000Y-54205119D01*
X33401000Y-51493339D01*
X36982400Y-51493339D01*
X36982400Y-52392661D01*
X37326556Y-53223527D01*
X37962473Y-53859444D01*
X38793339Y-54203600D01*
X39692661Y-54203600D01*
X40523527Y-53859444D01*
X41159444Y-53223527D01*
X41503600Y-52392661D01*
X41503600Y-51493339D01*
X49682400Y-51493339D01*
X49682400Y-52392661D01*
X50026556Y-53223527D01*
X50662473Y-53859444D01*
X51493339Y-54203600D01*
X52392661Y-54203600D01*
X53223527Y-53859444D01*
X53859444Y-53223527D01*
X54061958Y-52734615D01*
X59602000Y-52734615D01*
X59602000Y-53325385D01*
X59828078Y-53871185D01*
X60245815Y-54288922D01*
X60791615Y-54515000D01*
X61382385Y-54515000D01*
X61928185Y-54288922D01*
X62345922Y-53871185D01*
X62572000Y-53325385D01*
X62572000Y-52734615D01*
X71159000Y-52734615D01*
X71159000Y-53325385D01*
X71385078Y-53871185D01*
X71802815Y-54288922D01*
X72348615Y-54515000D01*
X72939385Y-54515000D01*
X73485185Y-54288922D01*
X73902922Y-53871185D01*
X74129000Y-53325385D01*
X74129000Y-52734615D01*
X74128593Y-52733631D01*
X84482940Y-52733631D01*
X84482940Y-54324250D01*
X84641690Y-54483000D01*
X86741000Y-54483000D01*
X86741000Y-52383690D01*
X86995000Y-52383690D01*
X86995000Y-54483000D01*
X89094310Y-54483000D01*
X89253060Y-54324250D01*
X89253060Y-52733631D01*
X89156387Y-52500242D01*
X88977759Y-52321613D01*
X88744370Y-52224940D01*
X87153750Y-52224940D01*
X86995000Y-52383690D01*
X86741000Y-52383690D01*
X86582250Y-52224940D01*
X84991630Y-52224940D01*
X84758241Y-52321613D01*
X84579613Y-52500242D01*
X84482940Y-52733631D01*
X74128593Y-52733631D01*
X73902922Y-52188815D01*
X73485185Y-51771078D01*
X72939385Y-51545000D01*
X72348615Y-51545000D01*
X71802815Y-51771078D01*
X71385078Y-52188815D01*
X71159000Y-52734615D01*
X62572000Y-52734615D01*
X62345922Y-52188815D01*
X61928185Y-51771078D01*
X61382385Y-51545000D01*
X60791615Y-51545000D01*
X60245815Y-51771078D01*
X59828078Y-52188815D01*
X59602000Y-52734615D01*
X54061958Y-52734615D01*
X54203600Y-52392661D01*
X54203600Y-51493339D01*
X53859444Y-50662473D01*
X53223527Y-50026556D01*
X52392661Y-49682400D01*
X51493339Y-49682400D01*
X50662473Y-50026556D01*
X50026556Y-50662473D01*
X49682400Y-51493339D01*
X41503600Y-51493339D01*
X41159444Y-50662473D01*
X40523527Y-50026556D01*
X39692661Y-49682400D01*
X38793339Y-49682400D01*
X37962473Y-50026556D01*
X37326556Y-50662473D01*
X36982400Y-51493339D01*
X33401000Y-51493339D01*
X33401000Y-50748000D01*
X35490076Y-50748000D01*
X35560000Y-50761909D01*
X35629924Y-50748000D01*
X35629926Y-50748000D01*
X35837028Y-50706805D01*
X36071881Y-50549881D01*
X36111494Y-50490596D01*
X37378091Y-49224000D01*
X72603910Y-49224000D01*
X73870508Y-50490599D01*
G04 #@! TD*
M02*
