G04 #@! TF.GenerationSoftware,KiCad,Pcbnew,5.0.0-fee4fd1~66~ubuntu16.04.1*
G04 #@! TF.CreationDate,2018-09-28T16:25:47-04:00*
G04 #@! TF.ProjectId,hydroponics_shield_rev4,687964726F706F6E6963735F73686965,rev?*
G04 #@! TF.SameCoordinates,Original*
G04 #@! TF.FileFunction,Legend,Top*
G04 #@! TF.FilePolarity,Positive*
%FSLAX46Y46*%
G04 Gerber Fmt 4.6, Leading zero omitted, Abs format (unit mm)*
G04 Created by KiCad (PCBNEW 5.0.0-fee4fd1~66~ubuntu16.04.1) date Fri Sep 28 16:25:47 2018*
%MOMM*%
%LPD*%
G01*
G04 APERTURE LIST*
%ADD10C,0.300000*%
%ADD11C,0.200000*%
%ADD12C,0.275000*%
%ADD13C,0.381000*%
%ADD14C,0.150000*%
%ADD15C,0.120000*%
%ADD16C,0.100000*%
%ADD17C,0.254000*%
G04 APERTURE END LIST*
D10*
X23626000Y-108755571D02*
X23126000Y-108041285D01*
X22768857Y-108755571D02*
X22768857Y-107255571D01*
X23340285Y-107255571D01*
X23483142Y-107327000D01*
X23554571Y-107398428D01*
X23626000Y-107541285D01*
X23626000Y-107755571D01*
X23554571Y-107898428D01*
X23483142Y-107969857D01*
X23340285Y-108041285D01*
X22768857Y-108041285D01*
X24126000Y-107255571D02*
X25126000Y-108755571D01*
X25126000Y-107255571D02*
X24126000Y-108755571D01*
X22733142Y-100905571D02*
X23590285Y-100905571D01*
X23161714Y-102405571D02*
X23161714Y-100905571D01*
X23947428Y-100905571D02*
X24947428Y-102405571D01*
X24947428Y-100905571D02*
X23947428Y-102405571D01*
X64496142Y-99647000D02*
X64496142Y-98504142D01*
X65067571Y-99075571D02*
X63924714Y-99075571D01*
X63567571Y-97932714D02*
X63567571Y-97004142D01*
X64139000Y-97504142D01*
X64139000Y-97289857D01*
X64210428Y-97147000D01*
X64281857Y-97075571D01*
X64424714Y-97004142D01*
X64781857Y-97004142D01*
X64924714Y-97075571D01*
X64996142Y-97147000D01*
X65067571Y-97289857D01*
X65067571Y-97718428D01*
X64996142Y-97861285D01*
X64924714Y-97932714D01*
X64924714Y-96361285D02*
X64996142Y-96289857D01*
X65067571Y-96361285D01*
X64996142Y-96432714D01*
X64924714Y-96361285D01*
X65067571Y-96361285D01*
X63567571Y-95789857D02*
X63567571Y-94861285D01*
X64139000Y-95361285D01*
X64139000Y-95147000D01*
X64210428Y-95004142D01*
X64281857Y-94932714D01*
X64424714Y-94861285D01*
X64781857Y-94861285D01*
X64924714Y-94932714D01*
X64996142Y-95004142D01*
X65067571Y-95147000D01*
X65067571Y-95575571D01*
X64996142Y-95718428D01*
X64924714Y-95789857D01*
X63567571Y-94432714D02*
X65067571Y-93932714D01*
X63567571Y-93432714D01*
X76684428Y-70592142D02*
X77827285Y-70592142D01*
X77255857Y-71163571D02*
X77255857Y-70020714D01*
X79255857Y-69663571D02*
X78541571Y-69663571D01*
X78470142Y-70377857D01*
X78541571Y-70306428D01*
X78684428Y-70235000D01*
X79041571Y-70235000D01*
X79184428Y-70306428D01*
X79255857Y-70377857D01*
X79327285Y-70520714D01*
X79327285Y-70877857D01*
X79255857Y-71020714D01*
X79184428Y-71092142D01*
X79041571Y-71163571D01*
X78684428Y-71163571D01*
X78541571Y-71092142D01*
X78470142Y-71020714D01*
X79755857Y-69663571D02*
X80255857Y-71163571D01*
X80755857Y-69663571D01*
D11*
X94742000Y-57277000D02*
X94742000Y-58039000D01*
X92456000Y-57277000D02*
X94742000Y-57277000D01*
X92456000Y-58039000D02*
X92456000Y-57277000D01*
X34417000Y-107188000D02*
X35179000Y-107188000D01*
X34417000Y-109220000D02*
X34417000Y-107188000D01*
X35179000Y-109220000D02*
X34417000Y-109220000D01*
X38481000Y-102870000D02*
X37592000Y-102870000D01*
X38481000Y-100838000D02*
X38481000Y-102870000D01*
X37592000Y-100838000D02*
X38481000Y-100838000D01*
X76962000Y-69088000D02*
X77724000Y-69088000D01*
X76962000Y-66929000D02*
X76962000Y-69088000D01*
X77597000Y-66929000D02*
X76962000Y-66929000D01*
X160909000Y-92710000D02*
X160909000Y-93726000D01*
X158623000Y-92710000D02*
X160909000Y-92710000D01*
X158623000Y-93726000D02*
X158623000Y-92710000D01*
X145669000Y-92710000D02*
X145669000Y-93726000D01*
X143383000Y-92710000D02*
X145669000Y-92710000D01*
X143383000Y-93726000D02*
X143383000Y-92710000D01*
X130429000Y-92710000D02*
X130429000Y-93726000D01*
X128143000Y-92710000D02*
X130429000Y-92710000D01*
X128143000Y-93726000D02*
X128143000Y-92710000D01*
X115189000Y-92710000D02*
X115189000Y-93472000D01*
X112903000Y-92710000D02*
X112903000Y-93472000D01*
X112903000Y-92710000D02*
X115189000Y-92710000D01*
X99949000Y-92710000D02*
X99949000Y-93472000D01*
X97663000Y-92710000D02*
X99949000Y-92710000D01*
X97663000Y-93472000D02*
X97663000Y-92710000D01*
D12*
X70250857Y-75615388D02*
X70250857Y-75982054D01*
X71036571Y-75982054D02*
X69536571Y-75982054D01*
X69536571Y-75458245D01*
X71036571Y-74515388D02*
X71036571Y-75039197D01*
X69536571Y-75039197D01*
X69536571Y-73939197D02*
X69536571Y-73729673D01*
X69608000Y-73624911D01*
X69750857Y-73520150D01*
X70036571Y-73467769D01*
X70536571Y-73467769D01*
X70822285Y-73520150D01*
X70965142Y-73624911D01*
X71036571Y-73729673D01*
X71036571Y-73939197D01*
X70965142Y-74043959D01*
X70822285Y-74148721D01*
X70536571Y-74201102D01*
X70036571Y-74201102D01*
X69750857Y-74148721D01*
X69608000Y-74043959D01*
X69536571Y-73939197D01*
X70608000Y-73048721D02*
X70608000Y-72524911D01*
X71036571Y-73153483D02*
X69536571Y-72786816D01*
X71036571Y-72420150D01*
X69536571Y-72210626D02*
X69536571Y-71582054D01*
X71036571Y-71896340D02*
X69536571Y-71896340D01*
X70965142Y-70429673D02*
X71036571Y-70272530D01*
X71036571Y-70010626D01*
X70965142Y-69905864D01*
X70893714Y-69853483D01*
X70750857Y-69801102D01*
X70608000Y-69801102D01*
X70465142Y-69853483D01*
X70393714Y-69905864D01*
X70322285Y-70010626D01*
X70250857Y-70220150D01*
X70179428Y-70324911D01*
X70108000Y-70377292D01*
X69965142Y-70429673D01*
X69822285Y-70429673D01*
X69679428Y-70377292D01*
X69608000Y-70324911D01*
X69536571Y-70220150D01*
X69536571Y-69958245D01*
X69608000Y-69801102D01*
X69536571Y-69434435D02*
X71036571Y-69172530D01*
X69965142Y-68963007D01*
X71036571Y-68753483D01*
X69536571Y-68491578D01*
X71036571Y-68072530D02*
X69536571Y-68072530D01*
X69536571Y-67705864D02*
X69536571Y-67077292D01*
X71036571Y-67391578D02*
X69536571Y-67391578D01*
X70893714Y-66082054D02*
X70965142Y-66134435D01*
X71036571Y-66291578D01*
X71036571Y-66396340D01*
X70965142Y-66553483D01*
X70822285Y-66658245D01*
X70679428Y-66710626D01*
X70393714Y-66763007D01*
X70179428Y-66763007D01*
X69893714Y-66710626D01*
X69750857Y-66658245D01*
X69608000Y-66553483D01*
X69536571Y-66396340D01*
X69536571Y-66291578D01*
X69608000Y-66134435D01*
X69679428Y-66082054D01*
X71036571Y-65610626D02*
X69536571Y-65610626D01*
X70250857Y-65610626D02*
X70250857Y-64982054D01*
X71036571Y-64982054D02*
X69536571Y-64982054D01*
X60316371Y-75263054D02*
X60316371Y-74634483D01*
X61816371Y-74948769D02*
X60316371Y-74948769D01*
X61030657Y-74267816D02*
X61030657Y-73901150D01*
X61816371Y-73744007D02*
X61816371Y-74267816D01*
X60316371Y-74267816D01*
X60316371Y-73744007D01*
X61816371Y-73272578D02*
X60316371Y-73272578D01*
X61387800Y-72905911D01*
X60316371Y-72539245D01*
X61816371Y-72539245D01*
X61816371Y-72015435D02*
X60316371Y-72015435D01*
X60316371Y-71596388D01*
X60387800Y-71491626D01*
X60459228Y-71439245D01*
X60602085Y-71386864D01*
X60816371Y-71386864D01*
X60959228Y-71439245D01*
X61030657Y-71491626D01*
X61102085Y-71596388D01*
X61102085Y-72015435D01*
X61744942Y-70129721D02*
X61816371Y-69972578D01*
X61816371Y-69710673D01*
X61744942Y-69605911D01*
X61673514Y-69553530D01*
X61530657Y-69501150D01*
X61387800Y-69501150D01*
X61244942Y-69553530D01*
X61173514Y-69605911D01*
X61102085Y-69710673D01*
X61030657Y-69920197D01*
X60959228Y-70024959D01*
X60887800Y-70077340D01*
X60744942Y-70129721D01*
X60602085Y-70129721D01*
X60459228Y-70077340D01*
X60387800Y-70024959D01*
X60316371Y-69920197D01*
X60316371Y-69658292D01*
X60387800Y-69501150D01*
X61030657Y-69029721D02*
X61030657Y-68663054D01*
X61816371Y-68505911D02*
X61816371Y-69029721D01*
X60316371Y-69029721D01*
X60316371Y-68505911D01*
X61816371Y-68034483D02*
X60316371Y-68034483D01*
X61816371Y-67405911D01*
X60316371Y-67405911D01*
X61744942Y-66934483D02*
X61816371Y-66777340D01*
X61816371Y-66515435D01*
X61744942Y-66410673D01*
X61673514Y-66358292D01*
X61530657Y-66305911D01*
X61387800Y-66305911D01*
X61244942Y-66358292D01*
X61173514Y-66410673D01*
X61102085Y-66515435D01*
X61030657Y-66724959D01*
X60959228Y-66829721D01*
X60887800Y-66882102D01*
X60744942Y-66934483D01*
X60602085Y-66934483D01*
X60459228Y-66882102D01*
X60387800Y-66829721D01*
X60316371Y-66724959D01*
X60316371Y-66463054D01*
X60387800Y-66305911D01*
X61030657Y-65834483D02*
X61030657Y-65467816D01*
X61816371Y-65310673D02*
X61816371Y-65834483D01*
X60316371Y-65834483D01*
X60316371Y-65310673D01*
D10*
X149110000Y-74428428D02*
X149038571Y-74557000D01*
X149038571Y-74749857D01*
X149110000Y-74942714D01*
X149252857Y-75071285D01*
X149395714Y-75135571D01*
X149681428Y-75199857D01*
X149895714Y-75199857D01*
X150181428Y-75135571D01*
X150324285Y-75071285D01*
X150467142Y-74942714D01*
X150538571Y-74749857D01*
X150538571Y-74621285D01*
X150467142Y-74428428D01*
X150395714Y-74364142D01*
X149895714Y-74364142D01*
X149895714Y-74621285D01*
X150538571Y-73014142D02*
X149824285Y-73464142D01*
X150538571Y-73785571D02*
X149038571Y-73785571D01*
X149038571Y-73271285D01*
X149110000Y-73142714D01*
X149181428Y-73078428D01*
X149324285Y-73014142D01*
X149538571Y-73014142D01*
X149681428Y-73078428D01*
X149752857Y-73142714D01*
X149824285Y-73271285D01*
X149824285Y-73785571D01*
X149038571Y-72178428D02*
X149038571Y-71921285D01*
X149110000Y-71792714D01*
X149252857Y-71664142D01*
X149538571Y-71599857D01*
X150038571Y-71599857D01*
X150324285Y-71664142D01*
X150467142Y-71792714D01*
X150538571Y-71921285D01*
X150538571Y-72178428D01*
X150467142Y-72307000D01*
X150324285Y-72435571D01*
X150038571Y-72499857D01*
X149538571Y-72499857D01*
X149252857Y-72435571D01*
X149110000Y-72307000D01*
X149038571Y-72178428D01*
X149038571Y-71149857D02*
X150538571Y-70828428D01*
X149467142Y-70571285D01*
X150538571Y-70314142D01*
X149038571Y-69992714D01*
X150538571Y-67807000D02*
X150538571Y-68449857D01*
X149038571Y-68449857D01*
X150538571Y-67357000D02*
X149038571Y-67357000D01*
X149110000Y-66007000D02*
X149038571Y-66135571D01*
X149038571Y-66328428D01*
X149110000Y-66521285D01*
X149252857Y-66649857D01*
X149395714Y-66714142D01*
X149681428Y-66778428D01*
X149895714Y-66778428D01*
X150181428Y-66714142D01*
X150324285Y-66649857D01*
X150467142Y-66521285D01*
X150538571Y-66328428D01*
X150538571Y-66199857D01*
X150467142Y-66007000D01*
X150395714Y-65942714D01*
X149895714Y-65942714D01*
X149895714Y-66199857D01*
X150538571Y-65364142D02*
X149038571Y-65364142D01*
X149752857Y-65364142D02*
X149752857Y-64592714D01*
X150538571Y-64592714D02*
X149038571Y-64592714D01*
X149038571Y-64142714D02*
X149038571Y-63371285D01*
X150538571Y-63757000D02*
X149038571Y-63757000D01*
X150467142Y-62985571D02*
X150538571Y-62792714D01*
X150538571Y-62471285D01*
X150467142Y-62342714D01*
X150395714Y-62278428D01*
X150252857Y-62214142D01*
X150110000Y-62214142D01*
X149967142Y-62278428D01*
X149895714Y-62342714D01*
X149824285Y-62471285D01*
X149752857Y-62728428D01*
X149681428Y-62857000D01*
X149610000Y-62921285D01*
X149467142Y-62985571D01*
X149324285Y-62985571D01*
X149181428Y-62921285D01*
X149110000Y-62857000D01*
X149038571Y-62728428D01*
X149038571Y-62407000D01*
X149110000Y-62214142D01*
X134052571Y-74945857D02*
X134052571Y-74174428D01*
X135552571Y-74560142D02*
X134052571Y-74560142D01*
X134052571Y-73467285D02*
X134052571Y-73210142D01*
X134124000Y-73081571D01*
X134266857Y-72953000D01*
X134552571Y-72888714D01*
X135052571Y-72888714D01*
X135338285Y-72953000D01*
X135481142Y-73081571D01*
X135552571Y-73210142D01*
X135552571Y-73467285D01*
X135481142Y-73595857D01*
X135338285Y-73724428D01*
X135052571Y-73788714D01*
X134552571Y-73788714D01*
X134266857Y-73724428D01*
X134124000Y-73595857D01*
X134052571Y-73467285D01*
X135552571Y-72310142D02*
X134052571Y-72310142D01*
X134052571Y-71795857D01*
X134124000Y-71667285D01*
X134195428Y-71603000D01*
X134338285Y-71538714D01*
X134552571Y-71538714D01*
X134695428Y-71603000D01*
X134766857Y-71667285D01*
X134838285Y-71795857D01*
X134838285Y-72310142D01*
X134052571Y-70960142D02*
X135266857Y-70960142D01*
X135409714Y-70895857D01*
X135481142Y-70831571D01*
X135552571Y-70703000D01*
X135552571Y-70445857D01*
X135481142Y-70317285D01*
X135409714Y-70253000D01*
X135266857Y-70188714D01*
X134052571Y-70188714D01*
X135552571Y-69545857D02*
X134052571Y-69545857D01*
X134052571Y-69031571D01*
X134124000Y-68903000D01*
X134195428Y-68838714D01*
X134338285Y-68774428D01*
X134552571Y-68774428D01*
X134695428Y-68838714D01*
X134766857Y-68903000D01*
X134838285Y-69031571D01*
X134838285Y-69545857D01*
X135552571Y-67167285D02*
X134052571Y-67167285D01*
X134052571Y-66653000D01*
X134124000Y-66524428D01*
X134195428Y-66460142D01*
X134338285Y-66395857D01*
X134552571Y-66395857D01*
X134695428Y-66460142D01*
X134766857Y-66524428D01*
X134838285Y-66653000D01*
X134838285Y-67167285D01*
X134052571Y-65817285D02*
X135266857Y-65817285D01*
X135409714Y-65753000D01*
X135481142Y-65688714D01*
X135552571Y-65560142D01*
X135552571Y-65303000D01*
X135481142Y-65174428D01*
X135409714Y-65110142D01*
X135266857Y-65045857D01*
X134052571Y-65045857D01*
X135552571Y-64403000D02*
X134052571Y-64403000D01*
X135124000Y-63953000D01*
X134052571Y-63503000D01*
X135552571Y-63503000D01*
X135552571Y-62860142D02*
X134052571Y-62860142D01*
X134052571Y-62345857D01*
X134124000Y-62217285D01*
X134195428Y-62153000D01*
X134338285Y-62088714D01*
X134552571Y-62088714D01*
X134695428Y-62153000D01*
X134766857Y-62217285D01*
X134838285Y-62345857D01*
X134838285Y-62860142D01*
X123614571Y-77757142D02*
X122114571Y-77757142D01*
X122114571Y-77435714D01*
X122186000Y-77242857D01*
X122328857Y-77114285D01*
X122471714Y-77050000D01*
X122757428Y-76985714D01*
X122971714Y-76985714D01*
X123257428Y-77050000D01*
X123400285Y-77114285D01*
X123543142Y-77242857D01*
X123614571Y-77435714D01*
X123614571Y-77757142D01*
X122114571Y-76150000D02*
X122114571Y-75892857D01*
X122186000Y-75764285D01*
X122328857Y-75635714D01*
X122614571Y-75571428D01*
X123114571Y-75571428D01*
X123400285Y-75635714D01*
X123543142Y-75764285D01*
X123614571Y-75892857D01*
X123614571Y-76150000D01*
X123543142Y-76278571D01*
X123400285Y-76407142D01*
X123114571Y-76471428D01*
X122614571Y-76471428D01*
X122328857Y-76407142D01*
X122186000Y-76278571D01*
X122114571Y-76150000D01*
X123543142Y-75057142D02*
X123614571Y-74864285D01*
X123614571Y-74542857D01*
X123543142Y-74414285D01*
X123471714Y-74350000D01*
X123328857Y-74285714D01*
X123186000Y-74285714D01*
X123043142Y-74350000D01*
X122971714Y-74414285D01*
X122900285Y-74542857D01*
X122828857Y-74800000D01*
X122757428Y-74928571D01*
X122686000Y-74992857D01*
X122543142Y-75057142D01*
X122400285Y-75057142D01*
X122257428Y-74992857D01*
X122186000Y-74928571D01*
X122114571Y-74800000D01*
X122114571Y-74478571D01*
X122186000Y-74285714D01*
X123614571Y-73707142D02*
X122114571Y-73707142D01*
X123614571Y-73064285D02*
X122114571Y-73064285D01*
X123614571Y-72292857D01*
X122114571Y-72292857D01*
X122186000Y-70942857D02*
X122114571Y-71071428D01*
X122114571Y-71264285D01*
X122186000Y-71457142D01*
X122328857Y-71585714D01*
X122471714Y-71650000D01*
X122757428Y-71714285D01*
X122971714Y-71714285D01*
X123257428Y-71650000D01*
X123400285Y-71585714D01*
X123543142Y-71457142D01*
X123614571Y-71264285D01*
X123614571Y-71135714D01*
X123543142Y-70942857D01*
X123471714Y-70878571D01*
X122971714Y-70878571D01*
X122971714Y-71135714D01*
X123614571Y-69271428D02*
X122114571Y-69271428D01*
X122114571Y-68757142D01*
X122186000Y-68628571D01*
X122257428Y-68564285D01*
X122400285Y-68500000D01*
X122614571Y-68500000D01*
X122757428Y-68564285D01*
X122828857Y-68628571D01*
X122900285Y-68757142D01*
X122900285Y-69271428D01*
X122114571Y-67921428D02*
X123328857Y-67921428D01*
X123471714Y-67857142D01*
X123543142Y-67792857D01*
X123614571Y-67664285D01*
X123614571Y-67407142D01*
X123543142Y-67278571D01*
X123471714Y-67214285D01*
X123328857Y-67150000D01*
X122114571Y-67150000D01*
X123614571Y-66507142D02*
X122114571Y-66507142D01*
X123186000Y-66057142D01*
X122114571Y-65607142D01*
X123614571Y-65607142D01*
X123614571Y-64964285D02*
X122114571Y-64964285D01*
X122114571Y-64450000D01*
X122186000Y-64321428D01*
X122257428Y-64257142D01*
X122400285Y-64192857D01*
X122614571Y-64192857D01*
X122757428Y-64257142D01*
X122828857Y-64321428D01*
X122900285Y-64450000D01*
X122900285Y-64964285D01*
X123614571Y-61878571D02*
X123614571Y-62650000D01*
X123614571Y-62264285D02*
X122114571Y-62264285D01*
X122328857Y-62392857D01*
X122471714Y-62521428D01*
X122543142Y-62650000D01*
X113468370Y-78009946D02*
X111968373Y-78012564D01*
X111967812Y-77691136D01*
X112038904Y-77498154D01*
X112181536Y-77369334D01*
X112324281Y-77304799D01*
X112609883Y-77240015D01*
X112824168Y-77239641D01*
X113109994Y-77303428D01*
X113252963Y-77367464D01*
X113396044Y-77495786D01*
X113467809Y-77688518D01*
X113468370Y-78009946D01*
X111965568Y-76405424D02*
X111965119Y-76148281D01*
X112036323Y-76019585D01*
X112178956Y-75890765D01*
X112464557Y-75825980D01*
X112964556Y-75825108D01*
X113250382Y-75888895D01*
X113393464Y-76017217D01*
X113465117Y-76145663D01*
X113465565Y-76402806D01*
X113394361Y-76531501D01*
X113251729Y-76660322D01*
X112966127Y-76725106D01*
X112466128Y-76725979D01*
X112180302Y-76662192D01*
X112037221Y-76533870D01*
X111965568Y-76405424D01*
X113392230Y-75310075D02*
X113463321Y-75117093D01*
X113462760Y-74795665D01*
X113391108Y-74667219D01*
X113319567Y-74603058D01*
X113176598Y-74539021D01*
X113033741Y-74539271D01*
X112890996Y-74603806D01*
X112819680Y-74668216D01*
X112748476Y-74796912D01*
X112677496Y-75054179D01*
X112606292Y-75182875D01*
X112534976Y-75247285D01*
X112392231Y-75311820D01*
X112249374Y-75312069D01*
X112106405Y-75248033D01*
X112034864Y-75183872D01*
X111963212Y-75055426D01*
X111962651Y-74733998D01*
X112033742Y-74541016D01*
X113461302Y-73959952D02*
X111961304Y-73962570D01*
X113460180Y-73317096D02*
X111960182Y-73319714D01*
X113458833Y-72545669D01*
X111958836Y-72548287D01*
X112027908Y-71198164D02*
X111956704Y-71326860D01*
X111957041Y-71519717D01*
X112028806Y-71712449D01*
X112171887Y-71840771D01*
X112314856Y-71904807D01*
X112600682Y-71968594D01*
X112814968Y-71968220D01*
X113100569Y-71903436D01*
X113243314Y-71838901D01*
X113385946Y-71710080D01*
X113457038Y-71517099D01*
X113456814Y-71388527D01*
X113385049Y-71195795D01*
X113313508Y-71131634D01*
X112813509Y-71132507D01*
X112813958Y-71389649D01*
X113453560Y-69524245D02*
X111953562Y-69526863D01*
X111952665Y-69012578D01*
X112023869Y-68883882D01*
X112095185Y-68819472D01*
X112237930Y-68754937D01*
X112452215Y-68754563D01*
X112595184Y-68818599D01*
X112666725Y-68882760D01*
X112738378Y-69011206D01*
X112739275Y-69525491D01*
X111951206Y-68176865D02*
X113165490Y-68174745D01*
X113308235Y-68110210D01*
X113379551Y-68045800D01*
X113450755Y-67917104D01*
X113450306Y-67659962D01*
X113378653Y-67531515D01*
X113307113Y-67467354D01*
X113164144Y-67403318D01*
X111949860Y-67405437D01*
X113448736Y-66759963D02*
X111948738Y-66762581D01*
X113019379Y-66310712D01*
X111947167Y-65862582D01*
X113447165Y-65859964D01*
X113446043Y-65217108D02*
X111946045Y-65219726D01*
X111945147Y-64705441D01*
X112016351Y-64576745D01*
X112087668Y-64512335D01*
X112230412Y-64447800D01*
X112444698Y-64447426D01*
X112587667Y-64511463D01*
X112659208Y-64575623D01*
X112730860Y-64704070D01*
X112731758Y-65218355D01*
X112084863Y-62905195D02*
X112013322Y-62841034D01*
X111941669Y-62712587D01*
X111941108Y-62391159D01*
X112012312Y-62262463D01*
X112083629Y-62198053D01*
X112226373Y-62133518D01*
X112369230Y-62133269D01*
X112583628Y-62197180D01*
X113442116Y-62967112D01*
X113440657Y-62131399D01*
X103675571Y-72964000D02*
X102175571Y-72964000D01*
X103247000Y-72514000D01*
X102175571Y-72064000D01*
X103675571Y-72064000D01*
X103247000Y-71485428D02*
X103247000Y-70842571D01*
X103675571Y-71614000D02*
X102175571Y-71164000D01*
X103675571Y-70714000D01*
X103675571Y-70264000D02*
X102175571Y-70264000D01*
X103675571Y-69621142D02*
X102175571Y-69621142D01*
X103675571Y-68849714D01*
X102175571Y-68849714D01*
X103675571Y-67178285D02*
X102175571Y-67178285D01*
X102175571Y-66664000D01*
X102247000Y-66535428D01*
X102318428Y-66471142D01*
X102461285Y-66406857D01*
X102675571Y-66406857D01*
X102818428Y-66471142D01*
X102889857Y-66535428D01*
X102961285Y-66664000D01*
X102961285Y-67178285D01*
X102175571Y-65828285D02*
X103389857Y-65828285D01*
X103532714Y-65764000D01*
X103604142Y-65699714D01*
X103675571Y-65571142D01*
X103675571Y-65314000D01*
X103604142Y-65185428D01*
X103532714Y-65121142D01*
X103389857Y-65056857D01*
X102175571Y-65056857D01*
X103675571Y-64414000D02*
X102175571Y-64414000D01*
X103247000Y-63964000D01*
X102175571Y-63514000D01*
X103675571Y-63514000D01*
X103675571Y-62871142D02*
X102175571Y-62871142D01*
X102175571Y-62356857D01*
X102247000Y-62228285D01*
X102318428Y-62164000D01*
X102461285Y-62099714D01*
X102675571Y-62099714D01*
X102818428Y-62164000D01*
X102889857Y-62228285D01*
X102961285Y-62356857D01*
X102961285Y-62871142D01*
X96119142Y-59293428D02*
X96119142Y-58264857D01*
X96690571Y-58779142D02*
X95547714Y-58779142D01*
X96690571Y-56914857D02*
X96690571Y-57686285D01*
X96690571Y-57300571D02*
X95190571Y-57300571D01*
X95404857Y-57429142D01*
X95547714Y-57557714D01*
X95619142Y-57686285D01*
X95333428Y-56400571D02*
X95262000Y-56336285D01*
X95190571Y-56207714D01*
X95190571Y-55886285D01*
X95262000Y-55757714D01*
X95333428Y-55693428D01*
X95476285Y-55629142D01*
X95619142Y-55629142D01*
X95833428Y-55693428D01*
X96690571Y-56464857D01*
X96690571Y-55629142D01*
X95190571Y-55243428D02*
X96690571Y-54793428D01*
X95190571Y-54343428D01*
X96690571Y-52864857D02*
X95190571Y-52864857D01*
X96690571Y-52222000D02*
X95190571Y-52222000D01*
X96690571Y-51450571D01*
X95190571Y-51450571D01*
D11*
X78232000Y-74168000D02*
X78232000Y-120904000D01*
X29972000Y-106172000D02*
X33020000Y-106172000D01*
X29972000Y-103124000D02*
X33020000Y-103124000D01*
X29972000Y-120904000D02*
X29972000Y-85852000D01*
X33020000Y-120904000D02*
X29972000Y-120904000D01*
X33020000Y-85852000D02*
X33020000Y-120904000D01*
X29972000Y-85852000D02*
X33020000Y-85852000D01*
X78232000Y-101092000D02*
X81280000Y-101092000D01*
X78232000Y-99060000D02*
X81280000Y-99060000D01*
X81280000Y-74168000D02*
X78232000Y-74168000D01*
X81280000Y-120904000D02*
X81280000Y-74168000D01*
X78232000Y-120904000D02*
X81280000Y-120904000D01*
D10*
X131508571Y-60051142D02*
X132651428Y-60051142D01*
X124904571Y-60051142D02*
X126047428Y-60051142D01*
X125476000Y-60622571D02*
X125476000Y-59479714D01*
D11*
X158750000Y-61468000D02*
X140970000Y-61468000D01*
X140970000Y-61468000D02*
X140970000Y-59944000D01*
X138430000Y-61468000D02*
X138430000Y-59944000D01*
X130810000Y-59944000D02*
X130810000Y-61468000D01*
X130810000Y-61468000D02*
X138430000Y-61468000D01*
D10*
X136588571Y-60051142D02*
X137731428Y-60051142D01*
X137160000Y-60622571D02*
X137160000Y-59479714D01*
D12*
X34968571Y-59000940D02*
X33468571Y-59000940D01*
X33468571Y-58581892D01*
X33540000Y-58477130D01*
X33611428Y-58424750D01*
X33754285Y-58372369D01*
X33968571Y-58372369D01*
X34111428Y-58424750D01*
X34182857Y-58477130D01*
X34254285Y-58581892D01*
X34254285Y-59000940D01*
X34968571Y-57900940D02*
X33468571Y-57900940D01*
X34182857Y-57900940D02*
X34182857Y-57272369D01*
X34968571Y-57272369D02*
X33468571Y-57272369D01*
X34968571Y-55910464D02*
X33468571Y-55910464D01*
X33468571Y-55491416D01*
X33540000Y-55386654D01*
X33611428Y-55334273D01*
X33754285Y-55281892D01*
X33968571Y-55281892D01*
X34111428Y-55334273D01*
X34182857Y-55386654D01*
X34254285Y-55491416D01*
X34254285Y-55910464D01*
X34968571Y-54181892D02*
X34254285Y-54548559D01*
X34968571Y-54810464D02*
X33468571Y-54810464D01*
X33468571Y-54391416D01*
X33540000Y-54286654D01*
X33611428Y-54234273D01*
X33754285Y-54181892D01*
X33968571Y-54181892D01*
X34111428Y-54234273D01*
X34182857Y-54286654D01*
X34254285Y-54391416D01*
X34254285Y-54810464D01*
X33468571Y-53500940D02*
X33468571Y-53291416D01*
X33540000Y-53186654D01*
X33682857Y-53081892D01*
X33968571Y-53029511D01*
X34468571Y-53029511D01*
X34754285Y-53081892D01*
X34897142Y-53186654D01*
X34968571Y-53291416D01*
X34968571Y-53500940D01*
X34897142Y-53605702D01*
X34754285Y-53710464D01*
X34468571Y-53762845D01*
X33968571Y-53762845D01*
X33682857Y-53710464D01*
X33540000Y-53605702D01*
X33468571Y-53500940D01*
X34182857Y-52191416D02*
X34254285Y-52034273D01*
X34325714Y-51981892D01*
X34468571Y-51929511D01*
X34682857Y-51929511D01*
X34825714Y-51981892D01*
X34897142Y-52034273D01*
X34968571Y-52139035D01*
X34968571Y-52558083D01*
X33468571Y-52558083D01*
X33468571Y-52191416D01*
X33540000Y-52086654D01*
X33611428Y-52034273D01*
X33754285Y-51981892D01*
X33897142Y-51981892D01*
X34040000Y-52034273D01*
X34111428Y-52086654D01*
X34182857Y-52191416D01*
X34182857Y-52558083D01*
X34182857Y-51458083D02*
X34182857Y-51091416D01*
X34968571Y-50934273D02*
X34968571Y-51458083D01*
X33468571Y-51458083D01*
X33468571Y-50934273D01*
D10*
X97551857Y-124745523D02*
X97551857Y-120745523D01*
X97551857Y-122650285D02*
X99180428Y-122650285D01*
X99180428Y-124745523D02*
X99180428Y-120745523D01*
X101080428Y-122840761D02*
X101080428Y-124745523D01*
X100130428Y-120745523D02*
X101080428Y-122840761D01*
X102030428Y-120745523D01*
X102980428Y-124745523D02*
X102980428Y-120745523D01*
X103659000Y-120745523D01*
X104066142Y-120936000D01*
X104337571Y-121316952D01*
X104473285Y-121697904D01*
X104609000Y-122459809D01*
X104609000Y-123031238D01*
X104473285Y-123793142D01*
X104337571Y-124174095D01*
X104066142Y-124555047D01*
X103659000Y-124745523D01*
X102980428Y-124745523D01*
X107459000Y-124745523D02*
X106509000Y-122840761D01*
X105830428Y-124745523D02*
X105830428Y-120745523D01*
X106916142Y-120745523D01*
X107187571Y-120936000D01*
X107323285Y-121126476D01*
X107459000Y-121507428D01*
X107459000Y-122078857D01*
X107323285Y-122459809D01*
X107187571Y-122650285D01*
X106916142Y-122840761D01*
X105830428Y-122840761D01*
X109223285Y-120745523D02*
X109766142Y-120745523D01*
X110037571Y-120936000D01*
X110309000Y-121316952D01*
X110444714Y-122078857D01*
X110444714Y-123412190D01*
X110309000Y-124174095D01*
X110037571Y-124555047D01*
X109766142Y-124745523D01*
X109223285Y-124745523D01*
X108951857Y-124555047D01*
X108680428Y-124174095D01*
X108544714Y-123412190D01*
X108544714Y-122078857D01*
X108680428Y-121316952D01*
X108951857Y-120936000D01*
X109223285Y-120745523D01*
X111666142Y-124745523D02*
X111666142Y-120745523D01*
X112751857Y-120745523D01*
X113023285Y-120936000D01*
X113159000Y-121126476D01*
X113294714Y-121507428D01*
X113294714Y-122078857D01*
X113159000Y-122459809D01*
X113023285Y-122650285D01*
X112751857Y-122840761D01*
X111666142Y-122840761D01*
X115059000Y-120745523D02*
X115601857Y-120745523D01*
X115873285Y-120936000D01*
X116144714Y-121316952D01*
X116280428Y-122078857D01*
X116280428Y-123412190D01*
X116144714Y-124174095D01*
X115873285Y-124555047D01*
X115601857Y-124745523D01*
X115059000Y-124745523D01*
X114787571Y-124555047D01*
X114516142Y-124174095D01*
X114380428Y-123412190D01*
X114380428Y-122078857D01*
X114516142Y-121316952D01*
X114787571Y-120936000D01*
X115059000Y-120745523D01*
X117501857Y-124745523D02*
X117501857Y-120745523D01*
X119130428Y-124745523D01*
X119130428Y-120745523D01*
X120487571Y-124745523D02*
X120487571Y-120745523D01*
X123473285Y-124364571D02*
X123337571Y-124555047D01*
X122930428Y-124745523D01*
X122659000Y-124745523D01*
X122251857Y-124555047D01*
X121980428Y-124174095D01*
X121844714Y-123793142D01*
X121709000Y-123031238D01*
X121709000Y-122459809D01*
X121844714Y-121697904D01*
X121980428Y-121316952D01*
X122251857Y-120936000D01*
X122659000Y-120745523D01*
X122930428Y-120745523D01*
X123337571Y-120936000D01*
X123473285Y-121126476D01*
X124559000Y-124555047D02*
X124966142Y-124745523D01*
X125644714Y-124745523D01*
X125916142Y-124555047D01*
X126051857Y-124364571D01*
X126187571Y-123983619D01*
X126187571Y-123602666D01*
X126051857Y-123221714D01*
X125916142Y-123031238D01*
X125644714Y-122840761D01*
X125101857Y-122650285D01*
X124830428Y-122459809D01*
X124694714Y-122269333D01*
X124559000Y-121888380D01*
X124559000Y-121507428D01*
X124694714Y-121126476D01*
X124830428Y-120936000D01*
X125101857Y-120745523D01*
X125780428Y-120745523D01*
X126187571Y-120936000D01*
X129444714Y-124555047D02*
X129851857Y-124745523D01*
X130530428Y-124745523D01*
X130801857Y-124555047D01*
X130937571Y-124364571D01*
X131073285Y-123983619D01*
X131073285Y-123602666D01*
X130937571Y-123221714D01*
X130801857Y-123031238D01*
X130530428Y-122840761D01*
X129987571Y-122650285D01*
X129716142Y-122459809D01*
X129580428Y-122269333D01*
X129444714Y-121888380D01*
X129444714Y-121507428D01*
X129580428Y-121126476D01*
X129716142Y-120936000D01*
X129987571Y-120745523D01*
X130666142Y-120745523D01*
X131073285Y-120936000D01*
X132294714Y-124745523D02*
X132294714Y-120745523D01*
X132294714Y-122650285D02*
X133923285Y-122650285D01*
X133923285Y-124745523D02*
X133923285Y-120745523D01*
X135280428Y-124745523D02*
X135280428Y-120745523D01*
X136637571Y-122650285D02*
X137587571Y-122650285D01*
X137994714Y-124745523D02*
X136637571Y-124745523D01*
X136637571Y-120745523D01*
X137994714Y-120745523D01*
X140573285Y-124745523D02*
X139216142Y-124745523D01*
X139216142Y-120745523D01*
X141523285Y-124745523D02*
X141523285Y-120745523D01*
X142201857Y-120745523D01*
X142609000Y-120936000D01*
X142880428Y-121316952D01*
X143016142Y-121697904D01*
X143151857Y-122459809D01*
X143151857Y-123031238D01*
X143016142Y-123793142D01*
X142880428Y-124174095D01*
X142609000Y-124555047D01*
X142201857Y-124745523D01*
X141523285Y-124745523D01*
X146137571Y-120745523D02*
X147087571Y-124745523D01*
X148037571Y-120745523D01*
X149530428Y-120745523D02*
X149801857Y-120745523D01*
X150073285Y-120936000D01*
X150209000Y-121126476D01*
X150344714Y-121507428D01*
X150480428Y-122269333D01*
X150480428Y-123221714D01*
X150344714Y-123983619D01*
X150209000Y-124364571D01*
X150073285Y-124555047D01*
X149801857Y-124745523D01*
X149530428Y-124745523D01*
X149259000Y-124555047D01*
X149123285Y-124364571D01*
X148987571Y-123983619D01*
X148851857Y-123221714D01*
X148851857Y-122269333D01*
X148987571Y-121507428D01*
X149123285Y-121126476D01*
X149259000Y-120936000D01*
X149530428Y-120745523D01*
X151701857Y-124364571D02*
X151837571Y-124555047D01*
X151701857Y-124745523D01*
X151566142Y-124555047D01*
X151701857Y-124364571D01*
X151701857Y-124745523D01*
X154280428Y-122078857D02*
X154280428Y-124745523D01*
X153601857Y-120555047D02*
X152923285Y-123412190D01*
X154687571Y-123412190D01*
D11*
X158750000Y-61468000D02*
X158750000Y-59944000D01*
D10*
X146748571Y-60051142D02*
X147891428Y-60051142D01*
X141668571Y-60051142D02*
X142811428Y-60051142D01*
X156400571Y-60051142D02*
X157543428Y-60051142D01*
X156972000Y-60622571D02*
X156972000Y-59479714D01*
X151574571Y-60051142D02*
X152717428Y-60051142D01*
X152146000Y-60622571D02*
X152146000Y-59479714D01*
D11*
X119126000Y-61468000D02*
X126746000Y-61468000D01*
X119126000Y-59944000D02*
X119126000Y-61468000D01*
X126746000Y-61468000D02*
X126746000Y-59944000D01*
D10*
X119824571Y-60051142D02*
X120967428Y-60051142D01*
D11*
X109220000Y-61468000D02*
X116840000Y-61468000D01*
X109220000Y-59944000D02*
X109220000Y-61468000D01*
X116840000Y-61468000D02*
X116840000Y-59944000D01*
D10*
X109918571Y-60051142D02*
X111061428Y-60051142D01*
X114998571Y-60051142D02*
X116141428Y-60051142D01*
X115570000Y-60622571D02*
X115570000Y-59479714D01*
D11*
X106680000Y-61468000D02*
X106680000Y-59944000D01*
X99060000Y-61468000D02*
X106680000Y-61468000D01*
X99060000Y-59944000D02*
X99060000Y-61468000D01*
D10*
X99758571Y-60051142D02*
X100901428Y-60051142D01*
X104838571Y-60051142D02*
X105981428Y-60051142D01*
X105410000Y-60622571D02*
X105410000Y-59479714D01*
D13*
G04 #@! TO.C,J3*
X37211000Y-62357000D02*
X53975000Y-62357000D01*
X37211000Y-46355000D02*
X37211000Y-62357000D01*
X53975000Y-46355000D02*
X37211000Y-46355000D01*
X53975000Y-62357000D02*
X53975000Y-46355000D01*
D14*
G04 #@! TO.C,P9*
X26568400Y-58242200D02*
X26568400Y-58750200D01*
X27076400Y-58242200D02*
X27076400Y-58750200D01*
X32156400Y-57226200D02*
X32156400Y-47574200D01*
X21488400Y-57226200D02*
X21488400Y-47574200D01*
X32156400Y-57226200D02*
X21488400Y-57226200D01*
X27838400Y-57226200D02*
X27838400Y-58242200D01*
X25806400Y-57226200D02*
X27838400Y-57226200D01*
X25806400Y-58242200D02*
X25806400Y-57226200D01*
X27838400Y-58242200D02*
X25806400Y-58242200D01*
G04 #@! TO.C,D8*
X38049000Y-101104000D02*
X35349000Y-101104000D01*
X38049000Y-102604000D02*
X35349000Y-102604000D01*
X36549000Y-101704000D02*
X36549000Y-101954000D01*
X36549000Y-101954000D02*
X36699000Y-101804000D01*
X36799000Y-102204000D02*
X36799000Y-101504000D01*
X36449000Y-101854000D02*
X36099000Y-101854000D01*
X36799000Y-101854000D02*
X36449000Y-102204000D01*
X36449000Y-102204000D02*
X36449000Y-101504000D01*
X36449000Y-101504000D02*
X36799000Y-101854000D01*
G04 #@! TO.C,D14*
X34849000Y-108954000D02*
X37549000Y-108954000D01*
X34849000Y-107454000D02*
X37549000Y-107454000D01*
X36349000Y-108354000D02*
X36349000Y-108104000D01*
X36349000Y-108104000D02*
X36199000Y-108254000D01*
X36099000Y-107854000D02*
X36099000Y-108554000D01*
X36449000Y-108204000D02*
X36799000Y-108204000D01*
X36099000Y-108204000D02*
X36449000Y-107854000D01*
X36449000Y-107854000D02*
X36449000Y-108554000D01*
X36449000Y-108554000D02*
X36099000Y-108204000D01*
D15*
G04 #@! TO.C,REF1*
X43202000Y-63428000D02*
X39602000Y-63428000D01*
X43726184Y-64155205D02*
G75*
G03X43202000Y-63428000I-2324184J-1122795D01*
G01*
X43758400Y-66376807D02*
G75*
G02X41402000Y-67878000I-2356400J1098807D01*
G01*
X39045600Y-66376807D02*
G75*
G03X41402000Y-67878000I2356400J1098807D01*
G01*
X39077816Y-64155205D02*
G75*
G02X39602000Y-63428000I2324184J-1122795D01*
G01*
D14*
G04 #@! TO.C,C1*
X39632000Y-62826000D02*
X40632000Y-62826000D01*
X40632000Y-61126000D02*
X39632000Y-61126000D01*
G04 #@! TO.C,U1*
X34231200Y-73669000D02*
X34231200Y-72399000D01*
X26881200Y-73669000D02*
X26881200Y-72399000D01*
X26881200Y-61459000D02*
X26881200Y-62729000D01*
X34231200Y-61459000D02*
X34231200Y-62729000D01*
X34231200Y-73669000D02*
X26881200Y-73669000D01*
X34231200Y-61459000D02*
X26881200Y-61459000D01*
X34231200Y-72399000D02*
X35166200Y-72399000D01*
G04 #@! TO.C,CON1*
X91368880Y-50408840D02*
X82367120Y-50408840D01*
X91368880Y-46908720D02*
X82367120Y-46908720D01*
X82367120Y-46908720D02*
X82367120Y-61409580D01*
X82367120Y-61409580D02*
X91368880Y-61409580D01*
X91368880Y-61409580D02*
X91368880Y-46908720D01*
G04 #@! TO.C,J1*
X130933000Y-52537000D02*
X130933000Y-50737000D01*
X133133000Y-52537000D02*
X130933000Y-52537000D01*
X133133000Y-50737000D02*
X133133000Y-52537000D01*
X135933000Y-52537000D02*
X135933000Y-50737000D01*
X138133000Y-52537000D02*
X135933000Y-52537000D01*
X138133000Y-50737000D02*
X138133000Y-52537000D01*
X140933000Y-52537000D02*
X140933000Y-50737000D01*
X143133000Y-52537000D02*
X140933000Y-52537000D01*
X143133000Y-50737000D02*
X143133000Y-52537000D01*
X145933000Y-52537000D02*
X145933000Y-50737000D01*
X148133000Y-52537000D02*
X145933000Y-52537000D01*
X148133000Y-50737000D02*
X148133000Y-52537000D01*
X150933000Y-52537000D02*
X150933000Y-50737000D01*
X153133000Y-52537000D02*
X150933000Y-52537000D01*
X153133000Y-50737000D02*
X153133000Y-52537000D01*
X155933000Y-52537000D02*
X155933000Y-50737000D01*
X158133000Y-52537000D02*
X155933000Y-52537000D01*
X158133000Y-50737000D02*
X158133000Y-52537000D01*
X129533000Y-50737000D02*
X129533000Y-58826400D01*
X159562200Y-58826400D02*
X159562200Y-50647600D01*
X159533000Y-58837000D02*
X129533000Y-58837000D01*
X159533000Y-50637000D02*
X129533000Y-50637000D01*
G04 #@! TO.C,J2*
X99230000Y-52535000D02*
X99230000Y-50735000D01*
X101430000Y-52535000D02*
X99230000Y-52535000D01*
X101430000Y-50735000D02*
X101430000Y-52535000D01*
X104230000Y-52535000D02*
X104230000Y-50735000D01*
X106430000Y-52535000D02*
X104230000Y-52535000D01*
X106430000Y-50735000D02*
X106430000Y-52535000D01*
X109230000Y-52535000D02*
X109230000Y-50735000D01*
X111430000Y-52535000D02*
X109230000Y-52535000D01*
X111430000Y-50735000D02*
X111430000Y-52535000D01*
X114230000Y-52535000D02*
X114230000Y-50735000D01*
X116430000Y-52535000D02*
X114230000Y-52535000D01*
X116430000Y-50735000D02*
X116430000Y-52535000D01*
X119230000Y-52535000D02*
X119230000Y-50735000D01*
X121430000Y-52535000D02*
X119230000Y-52535000D01*
X121430000Y-50735000D02*
X121430000Y-52535000D01*
X124230000Y-52535000D02*
X124230000Y-50735000D01*
X126430000Y-52535000D02*
X124230000Y-52535000D01*
X126430000Y-50735000D02*
X126430000Y-52535000D01*
X97830000Y-50735000D02*
X97830000Y-58824400D01*
X127859200Y-58824400D02*
X127859200Y-50645600D01*
X127830000Y-58835000D02*
X97830000Y-58835000D01*
X127830000Y-50635000D02*
X97830000Y-50635000D01*
G04 #@! TO.C,C3*
X116993000Y-84233000D02*
X123291000Y-84233000D01*
X116999000Y-84093000D02*
X123285000Y-84093000D01*
X117012000Y-83953000D02*
X119696000Y-83953000D01*
X120588000Y-83953000D02*
X123272000Y-83953000D01*
X117031000Y-83813000D02*
X119486000Y-83813000D01*
X120798000Y-83813000D02*
X123253000Y-83813000D01*
X117057000Y-83673000D02*
X119353000Y-83673000D01*
X120931000Y-83673000D02*
X123227000Y-83673000D01*
X117089000Y-83533000D02*
X119262000Y-83533000D01*
X121022000Y-83533000D02*
X123195000Y-83533000D01*
X117128000Y-83393000D02*
X119200000Y-83393000D01*
X121084000Y-83393000D02*
X123156000Y-83393000D01*
X117174000Y-83253000D02*
X119161000Y-83253000D01*
X121123000Y-83253000D02*
X123110000Y-83253000D01*
X117227000Y-83113000D02*
X119144000Y-83113000D01*
X121140000Y-83113000D02*
X123057000Y-83113000D01*
X117289000Y-82973000D02*
X119146000Y-82973000D01*
X121138000Y-82973000D02*
X122995000Y-82973000D01*
X117359000Y-82833000D02*
X119168000Y-82833000D01*
X121116000Y-82833000D02*
X122925000Y-82833000D01*
X117438000Y-82693000D02*
X119211000Y-82693000D01*
X121073000Y-82693000D02*
X122846000Y-82693000D01*
X117526000Y-82553000D02*
X119279000Y-82553000D01*
X121005000Y-82553000D02*
X122758000Y-82553000D01*
X117626000Y-82413000D02*
X119378000Y-82413000D01*
X120906000Y-82413000D02*
X122658000Y-82413000D01*
X117738000Y-82273000D02*
X119523000Y-82273000D01*
X120761000Y-82273000D02*
X122546000Y-82273000D01*
X117863000Y-82133000D02*
X119762000Y-82133000D01*
X120522000Y-82133000D02*
X122421000Y-82133000D01*
X118006000Y-81993000D02*
X122278000Y-81993000D01*
X118168000Y-81853000D02*
X122116000Y-81853000D01*
X118356000Y-81713000D02*
X121928000Y-81713000D01*
X118579000Y-81573000D02*
X121705000Y-81573000D01*
X118855000Y-81433000D02*
X121429000Y-81433000D01*
X119230000Y-81293000D02*
X121054000Y-81293000D01*
X121142000Y-83058000D02*
G75*
G03X121142000Y-83058000I-1000000J0D01*
G01*
X123329500Y-84308000D02*
G75*
G03X123329500Y-84308000I-3187500J0D01*
G01*
G04 #@! TO.C,C4*
X101753000Y-84233000D02*
X108051000Y-84233000D01*
X101759000Y-84093000D02*
X108045000Y-84093000D01*
X101772000Y-83953000D02*
X104456000Y-83953000D01*
X105348000Y-83953000D02*
X108032000Y-83953000D01*
X101791000Y-83813000D02*
X104246000Y-83813000D01*
X105558000Y-83813000D02*
X108013000Y-83813000D01*
X101817000Y-83673000D02*
X104113000Y-83673000D01*
X105691000Y-83673000D02*
X107987000Y-83673000D01*
X101849000Y-83533000D02*
X104022000Y-83533000D01*
X105782000Y-83533000D02*
X107955000Y-83533000D01*
X101888000Y-83393000D02*
X103960000Y-83393000D01*
X105844000Y-83393000D02*
X107916000Y-83393000D01*
X101934000Y-83253000D02*
X103921000Y-83253000D01*
X105883000Y-83253000D02*
X107870000Y-83253000D01*
X101987000Y-83113000D02*
X103904000Y-83113000D01*
X105900000Y-83113000D02*
X107817000Y-83113000D01*
X102049000Y-82973000D02*
X103906000Y-82973000D01*
X105898000Y-82973000D02*
X107755000Y-82973000D01*
X102119000Y-82833000D02*
X103928000Y-82833000D01*
X105876000Y-82833000D02*
X107685000Y-82833000D01*
X102198000Y-82693000D02*
X103971000Y-82693000D01*
X105833000Y-82693000D02*
X107606000Y-82693000D01*
X102286000Y-82553000D02*
X104039000Y-82553000D01*
X105765000Y-82553000D02*
X107518000Y-82553000D01*
X102386000Y-82413000D02*
X104138000Y-82413000D01*
X105666000Y-82413000D02*
X107418000Y-82413000D01*
X102498000Y-82273000D02*
X104283000Y-82273000D01*
X105521000Y-82273000D02*
X107306000Y-82273000D01*
X102623000Y-82133000D02*
X104522000Y-82133000D01*
X105282000Y-82133000D02*
X107181000Y-82133000D01*
X102766000Y-81993000D02*
X107038000Y-81993000D01*
X102928000Y-81853000D02*
X106876000Y-81853000D01*
X103116000Y-81713000D02*
X106688000Y-81713000D01*
X103339000Y-81573000D02*
X106465000Y-81573000D01*
X103615000Y-81433000D02*
X106189000Y-81433000D01*
X103990000Y-81293000D02*
X105814000Y-81293000D01*
X105902000Y-83058000D02*
G75*
G03X105902000Y-83058000I-1000000J0D01*
G01*
X108089500Y-84308000D02*
G75*
G03X108089500Y-84308000I-3187500J0D01*
G01*
G04 #@! TO.C,C5*
X87021000Y-84233000D02*
X93319000Y-84233000D01*
X87027000Y-84093000D02*
X93313000Y-84093000D01*
X87040000Y-83953000D02*
X89724000Y-83953000D01*
X90616000Y-83953000D02*
X93300000Y-83953000D01*
X87059000Y-83813000D02*
X89514000Y-83813000D01*
X90826000Y-83813000D02*
X93281000Y-83813000D01*
X87085000Y-83673000D02*
X89381000Y-83673000D01*
X90959000Y-83673000D02*
X93255000Y-83673000D01*
X87117000Y-83533000D02*
X89290000Y-83533000D01*
X91050000Y-83533000D02*
X93223000Y-83533000D01*
X87156000Y-83393000D02*
X89228000Y-83393000D01*
X91112000Y-83393000D02*
X93184000Y-83393000D01*
X87202000Y-83253000D02*
X89189000Y-83253000D01*
X91151000Y-83253000D02*
X93138000Y-83253000D01*
X87255000Y-83113000D02*
X89172000Y-83113000D01*
X91168000Y-83113000D02*
X93085000Y-83113000D01*
X87317000Y-82973000D02*
X89174000Y-82973000D01*
X91166000Y-82973000D02*
X93023000Y-82973000D01*
X87387000Y-82833000D02*
X89196000Y-82833000D01*
X91144000Y-82833000D02*
X92953000Y-82833000D01*
X87466000Y-82693000D02*
X89239000Y-82693000D01*
X91101000Y-82693000D02*
X92874000Y-82693000D01*
X87554000Y-82553000D02*
X89307000Y-82553000D01*
X91033000Y-82553000D02*
X92786000Y-82553000D01*
X87654000Y-82413000D02*
X89406000Y-82413000D01*
X90934000Y-82413000D02*
X92686000Y-82413000D01*
X87766000Y-82273000D02*
X89551000Y-82273000D01*
X90789000Y-82273000D02*
X92574000Y-82273000D01*
X87891000Y-82133000D02*
X89790000Y-82133000D01*
X90550000Y-82133000D02*
X92449000Y-82133000D01*
X88034000Y-81993000D02*
X92306000Y-81993000D01*
X88196000Y-81853000D02*
X92144000Y-81853000D01*
X88384000Y-81713000D02*
X91956000Y-81713000D01*
X88607000Y-81573000D02*
X91733000Y-81573000D01*
X88883000Y-81433000D02*
X91457000Y-81433000D01*
X89258000Y-81293000D02*
X91082000Y-81293000D01*
X91170000Y-83058000D02*
G75*
G03X91170000Y-83058000I-1000000J0D01*
G01*
X93357500Y-84308000D02*
G75*
G03X93357500Y-84308000I-3187500J0D01*
G01*
G04 #@! TO.C,Q5*
X155956000Y-98425000D02*
X155956000Y-97028000D01*
X153416000Y-98425000D02*
X153416000Y-97028000D01*
X150876000Y-98425000D02*
X150876000Y-97028000D01*
X155930472Y-111506000D02*
G75*
G03X155930472Y-111506000I-2514472J0D01*
G01*
X148082000Y-106934000D02*
X148082000Y-114935000D01*
X148082000Y-114935000D02*
X158750000Y-114935000D01*
X158750000Y-114935000D02*
X158750000Y-106934000D01*
X148082000Y-98425000D02*
X148082000Y-106934000D01*
X148082000Y-106934000D02*
X158750000Y-106934000D01*
X158750000Y-106934000D02*
X158750000Y-98425000D01*
X153416000Y-98425000D02*
X158750000Y-98425000D01*
X153416000Y-98425000D02*
X148082000Y-98425000D01*
G04 #@! TO.C,Q6*
X125476000Y-98425000D02*
X125476000Y-97028000D01*
X122936000Y-98425000D02*
X122936000Y-97028000D01*
X120396000Y-98425000D02*
X120396000Y-97028000D01*
X125450472Y-111506000D02*
G75*
G03X125450472Y-111506000I-2514472J0D01*
G01*
X117602000Y-106934000D02*
X117602000Y-114935000D01*
X117602000Y-114935000D02*
X128270000Y-114935000D01*
X128270000Y-114935000D02*
X128270000Y-106934000D01*
X117602000Y-98425000D02*
X117602000Y-106934000D01*
X117602000Y-106934000D02*
X128270000Y-106934000D01*
X128270000Y-106934000D02*
X128270000Y-98425000D01*
X122936000Y-98425000D02*
X128270000Y-98425000D01*
X122936000Y-98425000D02*
X117602000Y-98425000D01*
G04 #@! TO.C,Q7*
X110236000Y-98425000D02*
X110236000Y-97028000D01*
X107696000Y-98425000D02*
X107696000Y-97028000D01*
X105156000Y-98425000D02*
X105156000Y-97028000D01*
X110210472Y-111506000D02*
G75*
G03X110210472Y-111506000I-2514472J0D01*
G01*
X102362000Y-106934000D02*
X102362000Y-114935000D01*
X102362000Y-114935000D02*
X113030000Y-114935000D01*
X113030000Y-114935000D02*
X113030000Y-106934000D01*
X102362000Y-98425000D02*
X102362000Y-106934000D01*
X102362000Y-106934000D02*
X113030000Y-106934000D01*
X113030000Y-106934000D02*
X113030000Y-98425000D01*
X107696000Y-98425000D02*
X113030000Y-98425000D01*
X107696000Y-98425000D02*
X102362000Y-98425000D01*
G04 #@! TO.C,Q8*
X94996000Y-98425000D02*
X94996000Y-97028000D01*
X92456000Y-98425000D02*
X92456000Y-97028000D01*
X89916000Y-98425000D02*
X89916000Y-97028000D01*
X94970472Y-111506000D02*
G75*
G03X94970472Y-111506000I-2514472J0D01*
G01*
X87122000Y-106934000D02*
X87122000Y-114935000D01*
X87122000Y-114935000D02*
X97790000Y-114935000D01*
X97790000Y-114935000D02*
X97790000Y-106934000D01*
X87122000Y-98425000D02*
X87122000Y-106934000D01*
X87122000Y-106934000D02*
X97790000Y-106934000D01*
X97790000Y-106934000D02*
X97790000Y-98425000D01*
X92456000Y-98425000D02*
X97790000Y-98425000D01*
X92456000Y-98425000D02*
X87122000Y-98425000D01*
G04 #@! TO.C,C6*
X132487000Y-84233000D02*
X138785000Y-84233000D01*
X132493000Y-84093000D02*
X138779000Y-84093000D01*
X132506000Y-83953000D02*
X135190000Y-83953000D01*
X136082000Y-83953000D02*
X138766000Y-83953000D01*
X132525000Y-83813000D02*
X134980000Y-83813000D01*
X136292000Y-83813000D02*
X138747000Y-83813000D01*
X132551000Y-83673000D02*
X134847000Y-83673000D01*
X136425000Y-83673000D02*
X138721000Y-83673000D01*
X132583000Y-83533000D02*
X134756000Y-83533000D01*
X136516000Y-83533000D02*
X138689000Y-83533000D01*
X132622000Y-83393000D02*
X134694000Y-83393000D01*
X136578000Y-83393000D02*
X138650000Y-83393000D01*
X132668000Y-83253000D02*
X134655000Y-83253000D01*
X136617000Y-83253000D02*
X138604000Y-83253000D01*
X132721000Y-83113000D02*
X134638000Y-83113000D01*
X136634000Y-83113000D02*
X138551000Y-83113000D01*
X132783000Y-82973000D02*
X134640000Y-82973000D01*
X136632000Y-82973000D02*
X138489000Y-82973000D01*
X132853000Y-82833000D02*
X134662000Y-82833000D01*
X136610000Y-82833000D02*
X138419000Y-82833000D01*
X132932000Y-82693000D02*
X134705000Y-82693000D01*
X136567000Y-82693000D02*
X138340000Y-82693000D01*
X133020000Y-82553000D02*
X134773000Y-82553000D01*
X136499000Y-82553000D02*
X138252000Y-82553000D01*
X133120000Y-82413000D02*
X134872000Y-82413000D01*
X136400000Y-82413000D02*
X138152000Y-82413000D01*
X133232000Y-82273000D02*
X135017000Y-82273000D01*
X136255000Y-82273000D02*
X138040000Y-82273000D01*
X133357000Y-82133000D02*
X135256000Y-82133000D01*
X136016000Y-82133000D02*
X137915000Y-82133000D01*
X133500000Y-81993000D02*
X137772000Y-81993000D01*
X133662000Y-81853000D02*
X137610000Y-81853000D01*
X133850000Y-81713000D02*
X137422000Y-81713000D01*
X134073000Y-81573000D02*
X137199000Y-81573000D01*
X134349000Y-81433000D02*
X136923000Y-81433000D01*
X134724000Y-81293000D02*
X136548000Y-81293000D01*
X136636000Y-83058000D02*
G75*
G03X136636000Y-83058000I-1000000J0D01*
G01*
X138823500Y-84308000D02*
G75*
G03X138823500Y-84308000I-3187500J0D01*
G01*
G04 #@! TO.C,Q9*
X140716000Y-98425000D02*
X140716000Y-97028000D01*
X138176000Y-98425000D02*
X138176000Y-97028000D01*
X135636000Y-98425000D02*
X135636000Y-97028000D01*
X140690472Y-111506000D02*
G75*
G03X140690472Y-111506000I-2514472J0D01*
G01*
X132842000Y-106934000D02*
X132842000Y-114935000D01*
X132842000Y-114935000D02*
X143510000Y-114935000D01*
X143510000Y-114935000D02*
X143510000Y-106934000D01*
X132842000Y-98425000D02*
X132842000Y-106934000D01*
X132842000Y-106934000D02*
X143510000Y-106934000D01*
X143510000Y-106934000D02*
X143510000Y-98425000D01*
X138176000Y-98425000D02*
X143510000Y-98425000D01*
X138176000Y-98425000D02*
X132842000Y-98425000D01*
G04 #@! TO.C,D9*
X92858390Y-57763878D02*
X92858390Y-60463878D01*
X94358390Y-57763878D02*
X94358390Y-60463878D01*
X93458390Y-59263878D02*
X93708390Y-59263878D01*
X93708390Y-59263878D02*
X93558390Y-59113878D01*
X93958390Y-59013878D02*
X93258390Y-59013878D01*
X93608390Y-59363878D02*
X93608390Y-59713878D01*
X93608390Y-59013878D02*
X93958390Y-59363878D01*
X93958390Y-59363878D02*
X93258390Y-59363878D01*
X93258390Y-59363878D02*
X93608390Y-59013878D01*
G04 #@! TO.C,D11*
X77410778Y-68761810D02*
X80110778Y-68761810D01*
X77410778Y-67261810D02*
X80110778Y-67261810D01*
X78910778Y-68161810D02*
X78910778Y-67911810D01*
X78910778Y-67911810D02*
X78760778Y-68061810D01*
X78660778Y-67661810D02*
X78660778Y-68361810D01*
X79010778Y-68011810D02*
X79360778Y-68011810D01*
X78660778Y-68011810D02*
X79010778Y-67661810D01*
X79010778Y-67661810D02*
X79010778Y-68361810D01*
X79010778Y-68361810D02*
X78660778Y-68011810D01*
G04 #@! TO.C,D13*
X65307410Y-106586822D02*
X65307410Y-103886822D01*
X63807410Y-106586822D02*
X63807410Y-103886822D01*
X64707410Y-105086822D02*
X64457410Y-105086822D01*
X64457410Y-105086822D02*
X64607410Y-105236822D01*
X64207410Y-105336822D02*
X64907410Y-105336822D01*
X64557410Y-104986822D02*
X64557410Y-104636822D01*
X64557410Y-105336822D02*
X64207410Y-104986822D01*
X64207410Y-104986822D02*
X64907410Y-104986822D01*
X64907410Y-104986822D02*
X64557410Y-105336822D01*
G04 #@! TO.C,D17*
X159016000Y-93142000D02*
X159016000Y-95842000D01*
X160516000Y-93142000D02*
X160516000Y-95842000D01*
X159616000Y-94642000D02*
X159866000Y-94642000D01*
X159866000Y-94642000D02*
X159716000Y-94492000D01*
X160116000Y-94392000D02*
X159416000Y-94392000D01*
X159766000Y-94742000D02*
X159766000Y-95092000D01*
X159766000Y-94392000D02*
X160116000Y-94742000D01*
X160116000Y-94742000D02*
X159416000Y-94742000D01*
X159416000Y-94742000D02*
X159766000Y-94392000D01*
G04 #@! TO.C,D18*
X128536000Y-93175020D02*
X128536000Y-95875020D01*
X130036000Y-93175020D02*
X130036000Y-95875020D01*
X129136000Y-94675020D02*
X129386000Y-94675020D01*
X129386000Y-94675020D02*
X129236000Y-94525020D01*
X129636000Y-94425020D02*
X128936000Y-94425020D01*
X129286000Y-94775020D02*
X129286000Y-95125020D01*
X129286000Y-94425020D02*
X129636000Y-94775020D01*
X129636000Y-94775020D02*
X128936000Y-94775020D01*
X128936000Y-94775020D02*
X129286000Y-94425020D01*
G04 #@! TO.C,D19*
X113296000Y-93142000D02*
X113296000Y-95842000D01*
X114796000Y-93142000D02*
X114796000Y-95842000D01*
X113896000Y-94642000D02*
X114146000Y-94642000D01*
X114146000Y-94642000D02*
X113996000Y-94492000D01*
X114396000Y-94392000D02*
X113696000Y-94392000D01*
X114046000Y-94742000D02*
X114046000Y-95092000D01*
X114046000Y-94392000D02*
X114396000Y-94742000D01*
X114396000Y-94742000D02*
X113696000Y-94742000D01*
X113696000Y-94742000D02*
X114046000Y-94392000D01*
G04 #@! TO.C,D20*
X98056000Y-93175020D02*
X98056000Y-95875020D01*
X99556000Y-93175020D02*
X99556000Y-95875020D01*
X98656000Y-94675020D02*
X98906000Y-94675020D01*
X98906000Y-94675020D02*
X98756000Y-94525020D01*
X99156000Y-94425020D02*
X98456000Y-94425020D01*
X98806000Y-94775020D02*
X98806000Y-95125020D01*
X98806000Y-94425020D02*
X99156000Y-94775020D01*
X99156000Y-94775020D02*
X98456000Y-94775020D01*
X98456000Y-94775020D02*
X98806000Y-94425020D01*
G04 #@! TO.C,D21*
X143776000Y-93142000D02*
X143776000Y-95842000D01*
X145276000Y-93142000D02*
X145276000Y-95842000D01*
X144376000Y-94642000D02*
X144626000Y-94642000D01*
X144626000Y-94642000D02*
X144476000Y-94492000D01*
X144876000Y-94392000D02*
X144176000Y-94392000D01*
X144526000Y-94742000D02*
X144526000Y-95092000D01*
X144526000Y-94392000D02*
X144876000Y-94742000D01*
X144876000Y-94742000D02*
X144176000Y-94742000D01*
X144176000Y-94742000D02*
X144526000Y-94392000D01*
D16*
G04 #@! TO.C,U3*
X56669000Y-107909000D02*
X56669000Y-108384000D01*
X56669000Y-108384000D02*
X56969000Y-108709000D01*
X56969000Y-108709000D02*
X56969000Y-109509000D01*
X63219000Y-108234000D02*
X63219000Y-108709000D01*
X63219000Y-108709000D02*
X62769000Y-108709000D01*
X57169000Y-105159000D02*
X56669000Y-105159000D01*
X56669000Y-105159000D02*
X56669000Y-105559000D01*
X62844000Y-105159000D02*
X63219000Y-105159000D01*
X63219000Y-105159000D02*
X63219000Y-105459000D01*
D14*
G04 #@! TO.C,Y1*
X60037980Y-86227920D02*
X59938920Y-86527640D01*
X60637420Y-86227920D02*
X60736480Y-86527640D01*
X61236860Y-86227920D02*
X61236860Y-81178400D01*
X61236860Y-81178400D02*
X59438540Y-81178400D01*
X59438540Y-81178400D02*
X59438540Y-86227920D01*
X61236860Y-86227920D02*
X59438540Y-86227920D01*
G04 #@! TO.C,C2*
X25488000Y-73144000D02*
X25488000Y-72144000D01*
X23788000Y-72144000D02*
X23788000Y-73144000D01*
G04 #@! TO.C,Q1*
X36626800Y-114529820D02*
X35925760Y-114529820D01*
X35925760Y-114529820D02*
X35925760Y-114280900D01*
X35925760Y-111730840D02*
X35925760Y-111530180D01*
X35925760Y-111530180D02*
X36626800Y-111530180D01*
G04 #@! TO.C,D5*
X136442640Y-89916000D02*
X136992640Y-89466000D01*
X136992640Y-89466000D02*
X136992640Y-90366000D01*
X136992640Y-90366000D02*
X136442640Y-89916000D01*
X136442640Y-89366000D02*
X136442640Y-90466000D01*
X134893500Y-91666060D02*
X134893500Y-91315540D01*
X134893500Y-88165940D02*
X134893500Y-88516460D01*
X138943080Y-91666060D02*
X138943080Y-91315540D01*
X134442200Y-91666060D02*
X134442200Y-91315540D01*
X134442200Y-88165940D02*
X134442200Y-88516460D01*
X138943080Y-88165940D02*
X138943080Y-88516460D01*
X134442200Y-91666060D02*
X138943080Y-91666060D01*
X134442200Y-88165940D02*
X138943080Y-88165940D01*
G04 #@! TO.C,D2*
X120948640Y-89916000D02*
X121498640Y-89466000D01*
X121498640Y-89466000D02*
X121498640Y-90366000D01*
X121498640Y-90366000D02*
X120948640Y-89916000D01*
X120948640Y-89366000D02*
X120948640Y-90466000D01*
X119399500Y-91666060D02*
X119399500Y-91315540D01*
X119399500Y-88165940D02*
X119399500Y-88516460D01*
X123449080Y-91666060D02*
X123449080Y-91315540D01*
X118948200Y-91666060D02*
X118948200Y-91315540D01*
X118948200Y-88165940D02*
X118948200Y-88516460D01*
X123449080Y-88165940D02*
X123449080Y-88516460D01*
X118948200Y-91666060D02*
X123449080Y-91666060D01*
X118948200Y-88165940D02*
X123449080Y-88165940D01*
G04 #@! TO.C,D3*
X105708640Y-89916000D02*
X106258640Y-89466000D01*
X106258640Y-89466000D02*
X106258640Y-90366000D01*
X106258640Y-90366000D02*
X105708640Y-89916000D01*
X105708640Y-89366000D02*
X105708640Y-90466000D01*
X104159500Y-91666060D02*
X104159500Y-91315540D01*
X104159500Y-88165940D02*
X104159500Y-88516460D01*
X108209080Y-91666060D02*
X108209080Y-91315540D01*
X103708200Y-91666060D02*
X103708200Y-91315540D01*
X103708200Y-88165940D02*
X103708200Y-88516460D01*
X108209080Y-88165940D02*
X108209080Y-88516460D01*
X103708200Y-91666060D02*
X108209080Y-91666060D01*
X103708200Y-88165940D02*
X108209080Y-88165940D01*
G04 #@! TO.C,D4*
X90976640Y-89916000D02*
X91526640Y-89466000D01*
X91526640Y-89466000D02*
X91526640Y-90366000D01*
X91526640Y-90366000D02*
X90976640Y-89916000D01*
X90976640Y-89366000D02*
X90976640Y-90466000D01*
X89427500Y-91666060D02*
X89427500Y-91315540D01*
X89427500Y-88165940D02*
X89427500Y-88516460D01*
X93477080Y-91666060D02*
X93477080Y-91315540D01*
X88976200Y-91666060D02*
X88976200Y-91315540D01*
X88976200Y-88165940D02*
X88976200Y-88516460D01*
X93477080Y-88165940D02*
X93477080Y-88516460D01*
X88976200Y-91666060D02*
X93477080Y-91666060D01*
X88976200Y-88165940D02*
X93477080Y-88165940D01*
G04 #@! TO.C,JP1*
X22352000Y-61468000D02*
X22352000Y-58928000D01*
X22072000Y-64288000D02*
X22072000Y-62738000D01*
X22352000Y-61468000D02*
X24892000Y-61468000D01*
X25172000Y-62738000D02*
X25172000Y-64288000D01*
X25172000Y-64288000D02*
X22072000Y-64288000D01*
X24892000Y-61468000D02*
X24892000Y-58928000D01*
X24892000Y-58928000D02*
X22352000Y-58928000D01*
G04 #@! TO.C,D1*
X49784000Y-89471500D02*
X49784000Y-89852500D01*
X49784000Y-88455500D02*
X49784000Y-88836500D01*
X49784000Y-88836500D02*
X50165000Y-89471500D01*
X50165000Y-89471500D02*
X49403000Y-89471500D01*
X49403000Y-89471500D02*
X49784000Y-88836500D01*
X50292000Y-88836500D02*
X49276000Y-88836500D01*
X48884000Y-87154000D02*
X48884000Y-90694000D01*
X50684000Y-87154000D02*
X50684000Y-90694000D01*
G04 #@! TO.C,D6*
X47498000Y-89471500D02*
X47498000Y-89852500D01*
X47498000Y-88455500D02*
X47498000Y-88836500D01*
X47498000Y-88836500D02*
X47879000Y-89471500D01*
X47879000Y-89471500D02*
X47117000Y-89471500D01*
X47117000Y-89471500D02*
X47498000Y-88836500D01*
X48006000Y-88836500D02*
X46990000Y-88836500D01*
X46598000Y-87154000D02*
X46598000Y-90694000D01*
X48398000Y-87154000D02*
X48398000Y-90694000D01*
D17*
G04 #@! TO.C,U5*
X63627000Y-131826000D02*
X63627000Y-125730000D01*
X45339000Y-131826000D02*
X63627000Y-131826000D01*
X45339000Y-125730000D02*
X45339000Y-131826000D01*
X40259000Y-125730000D02*
X45339000Y-125730000D01*
X40259000Y-76962000D02*
X40259000Y-125730000D01*
X50419000Y-76962000D02*
X40259000Y-76962000D01*
X50419000Y-75692000D02*
X50419000Y-76962000D01*
X58547000Y-75692000D02*
X50419000Y-75692000D01*
X58547000Y-76962000D02*
X58547000Y-75692000D01*
X68707000Y-76962000D02*
X58547000Y-76962000D01*
X68707000Y-125730000D02*
X68707000Y-76962000D01*
X63627000Y-125730000D02*
X68707000Y-125730000D01*
D15*
G04 #@! TO.C,R1*
X75430748Y-120598000D02*
X75953252Y-120598000D01*
X75430748Y-119178000D02*
X75953252Y-119178000D01*
G04 #@! TO.C,R2*
X75421748Y-116638000D02*
X75944252Y-116638000D01*
X75421748Y-118058000D02*
X75944252Y-118058000D01*
D14*
G04 #@! TO.C,U2*
X57091400Y-88274600D02*
X57091400Y-88224600D01*
X52941400Y-88274600D02*
X52941400Y-88129600D01*
X52941400Y-83124600D02*
X52941400Y-83269600D01*
X57091400Y-83124600D02*
X57091400Y-83269600D01*
X57091400Y-88274600D02*
X52941400Y-88274600D01*
X57091400Y-83124600D02*
X52941400Y-83124600D01*
X57091400Y-88224600D02*
X58491400Y-88224600D01*
D15*
G04 #@! TO.C,U4*
X93050000Y-70115000D02*
X93050000Y-68315000D01*
X89830000Y-68315000D02*
X89830000Y-71265000D01*
D17*
G04 #@! TO.C,L1*
X86058000Y-66854000D02*
X84558000Y-66854000D01*
X84558000Y-73354000D02*
X86058000Y-73354000D01*
D15*
G04 #@! TO.C,D7*
X90760000Y-66547000D02*
X90760000Y-63247000D01*
X90760000Y-63247000D02*
X83860000Y-63247000D01*
X90760000Y-66547000D02*
X83860000Y-66547000D01*
G04 #@! TO.C,C9*
X92869936Y-64622000D02*
X94074064Y-64622000D01*
X92869936Y-66442000D02*
X94074064Y-66442000D01*
G04 #@! TO.C,R3*
X93651000Y-68953748D02*
X93651000Y-69476252D01*
X95071000Y-68953748D02*
X95071000Y-69476252D01*
G04 #@! TO.C,R19*
X93623200Y-73652748D02*
X93623200Y-74175252D01*
X92203200Y-73652748D02*
X92203200Y-74175252D01*
G04 #@! TO.C,C7*
X58071652Y-90219600D02*
X57549148Y-90219600D01*
X58071652Y-88799600D02*
X57549148Y-88799600D01*
G04 #@! TO.C,C8*
X53225652Y-90219600D02*
X52703148Y-90219600D01*
X53225652Y-88799600D02*
X52703148Y-88799600D01*
G04 #@! TO.C,C10*
X60546064Y-113584400D02*
X59341936Y-113584400D01*
X60546064Y-111764400D02*
X59341936Y-111764400D01*
G04 #@! TO.C,C11*
X60205252Y-115594200D02*
X59682748Y-115594200D01*
X60205252Y-114174200D02*
X59682748Y-114174200D01*
G04 #@! TO.C,C12*
X60205252Y-98350000D02*
X59682748Y-98350000D01*
X60205252Y-99770000D02*
X59682748Y-99770000D01*
G04 #@! TO.C,C13*
X89714000Y-73652748D02*
X89714000Y-74175252D01*
X91134000Y-73652748D02*
X91134000Y-74175252D01*
G04 #@! TO.C,C14*
X60546064Y-100309000D02*
X59341936Y-100309000D01*
X60546064Y-102129000D02*
X59341936Y-102129000D01*
G04 #@! TO.C,C15*
X85884936Y-73766000D02*
X87089064Y-73766000D01*
X85884936Y-75586000D02*
X87089064Y-75586000D01*
G04 #@! TO.C,C16*
X85884936Y-77999000D02*
X87089064Y-77999000D01*
X85884936Y-76179000D02*
X87089064Y-76179000D01*
G04 #@! TO.C,R4*
X75953252Y-74474000D02*
X75430748Y-74474000D01*
X75953252Y-75894000D02*
X75430748Y-75894000D01*
G04 #@! TO.C,R5*
X75953252Y-78434000D02*
X75430748Y-78434000D01*
X75953252Y-77014000D02*
X75430748Y-77014000D01*
G04 #@! TO.C,R6*
X29158000Y-108465252D02*
X29158000Y-107942748D01*
X27738000Y-108465252D02*
X27738000Y-107942748D01*
G04 #@! TO.C,R7*
X36710252Y-109526000D02*
X36187748Y-109526000D01*
X36710252Y-110946000D02*
X36187748Y-110946000D01*
G04 #@! TO.C,R8*
X36202252Y-116534000D02*
X35679748Y-116534000D01*
X36202252Y-115114000D02*
X35679748Y-115114000D01*
G04 #@! TO.C,R9*
X36757252Y-103303000D02*
X36234748Y-103303000D01*
X36757252Y-104723000D02*
X36234748Y-104723000D01*
G04 #@! TO.C,R10*
X36187748Y-96826000D02*
X36710252Y-96826000D01*
X36187748Y-98246000D02*
X36710252Y-98246000D01*
G04 #@! TO.C,R11*
X75430748Y-96214000D02*
X75953252Y-96214000D01*
X75430748Y-94794000D02*
X75953252Y-94794000D01*
G04 #@! TO.C,R12*
X25348000Y-67556748D02*
X25348000Y-68079252D01*
X23928000Y-67556748D02*
X23928000Y-68079252D01*
G04 #@! TO.C,R13*
X23265200Y-68079252D02*
X23265200Y-67556748D01*
X21845200Y-68079252D02*
X21845200Y-67556748D01*
G04 #@! TO.C,R14*
X75430748Y-93674000D02*
X75953252Y-93674000D01*
X75430748Y-92254000D02*
X75953252Y-92254000D01*
G04 #@! TO.C,R15*
X75430748Y-89714000D02*
X75953252Y-89714000D01*
X75430748Y-91134000D02*
X75953252Y-91134000D01*
G04 #@! TO.C,R16*
X75430748Y-88594000D02*
X75953252Y-88594000D01*
X75430748Y-87174000D02*
X75953252Y-87174000D01*
G04 #@! TO.C,R17*
X42470000Y-70365252D02*
X42470000Y-69842748D01*
X43890000Y-70365252D02*
X43890000Y-69842748D01*
G04 #@! TO.C,R18*
X41858000Y-69842748D02*
X41858000Y-70365252D01*
X40438000Y-69842748D02*
X40438000Y-70365252D01*
G04 #@! TO.C,R20*
X75953252Y-101398000D02*
X75430748Y-101398000D01*
X75953252Y-102818000D02*
X75430748Y-102818000D01*
G04 #@! TO.C,R21*
X95579000Y-73652748D02*
X95579000Y-74175252D01*
X94159000Y-73652748D02*
X94159000Y-74175252D01*
G04 #@! TO.C,R22*
X75430748Y-97334000D02*
X75953252Y-97334000D01*
X75430748Y-98754000D02*
X75953252Y-98754000D01*
G04 #@! TO.C,R26*
X36710252Y-100405000D02*
X36187748Y-100405000D01*
X36710252Y-98985000D02*
X36187748Y-98985000D01*
G04 #@! TO.C,R27*
X92898390Y-55307130D02*
X92898390Y-54784626D01*
X94318390Y-55307130D02*
X94318390Y-54784626D01*
G04 #@! TO.C,R29*
X74954030Y-68721810D02*
X74431526Y-68721810D01*
X74954030Y-67301810D02*
X74431526Y-67301810D01*
G04 #@! TO.C,R31*
X63847410Y-109043570D02*
X63847410Y-109566074D01*
X65267410Y-109043570D02*
X65267410Y-109566074D01*
G04 #@! TO.C,R32*
X36187748Y-106882000D02*
X36710252Y-106882000D01*
X36187748Y-105462000D02*
X36710252Y-105462000D01*
G04 #@! TO.C,R35*
X161088000Y-94988748D02*
X161088000Y-95511252D01*
X162508000Y-94988748D02*
X162508000Y-95511252D01*
G04 #@! TO.C,R36*
X132028000Y-95005248D02*
X132028000Y-95527752D01*
X130608000Y-95005248D02*
X130608000Y-95527752D01*
G04 #@! TO.C,R37*
X115368000Y-94967148D02*
X115368000Y-95489652D01*
X116788000Y-94967148D02*
X116788000Y-95489652D01*
G04 #@! TO.C,R38*
X101548000Y-95005248D02*
X101548000Y-95527752D01*
X100128000Y-95005248D02*
X100128000Y-95527752D01*
G04 #@! TO.C,R39*
X145848000Y-94988748D02*
X145848000Y-95511252D01*
X147268000Y-94988748D02*
X147268000Y-95511252D01*
G04 #@! TO.C,C17*
X30385936Y-78126000D02*
X31590064Y-78126000D01*
X30385936Y-76306000D02*
X31590064Y-76306000D01*
G04 #@! TO.C,C18*
X37740000Y-70009936D02*
X37740000Y-71214064D01*
X35920000Y-70009936D02*
X35920000Y-71214064D01*
D17*
G04 #@! TO.C,J4*
X57837000Y-64280000D02*
X64337000Y-64280000D01*
X57837000Y-49280000D02*
X57837000Y-64280000D01*
X58337000Y-49280000D02*
X57837000Y-49280000D01*
X58337000Y-46780000D02*
X58337000Y-49280000D01*
X63837000Y-46780000D02*
X58337000Y-46780000D01*
X63837000Y-49280000D02*
X63837000Y-46780000D01*
X64337000Y-49280000D02*
X63837000Y-49280000D01*
X64337000Y-64280000D02*
X64337000Y-49280000D01*
G04 #@! TO.C,J5*
X75894000Y-64280000D02*
X75894000Y-49280000D01*
X75894000Y-49280000D02*
X75394000Y-49280000D01*
X75394000Y-49280000D02*
X75394000Y-46780000D01*
X75394000Y-46780000D02*
X69894000Y-46780000D01*
X69894000Y-46780000D02*
X69894000Y-49280000D01*
X69894000Y-49280000D02*
X69394000Y-49280000D01*
X69394000Y-49280000D02*
X69394000Y-64280000D01*
X69394000Y-64280000D02*
X75894000Y-64280000D01*
D15*
G04 #@! TO.C,R23*
X30741252Y-75640000D02*
X30218748Y-75640000D01*
X30741252Y-74220000D02*
X30218748Y-74220000D01*
G04 #@! TO.C,R24*
X38406000Y-69842748D02*
X38406000Y-70365252D01*
X39826000Y-69842748D02*
X39826000Y-70365252D01*
G04 #@! TO.C,J3*
D14*
X53006666Y-63206380D02*
X53006666Y-63920666D01*
X52959047Y-64063523D01*
X52863809Y-64158761D01*
X52720952Y-64206380D01*
X52625714Y-64206380D01*
X53387619Y-63206380D02*
X54006666Y-63206380D01*
X53673333Y-63587333D01*
X53816190Y-63587333D01*
X53911428Y-63634952D01*
X53959047Y-63682571D01*
X54006666Y-63777809D01*
X54006666Y-64015904D01*
X53959047Y-64111142D01*
X53911428Y-64158761D01*
X53816190Y-64206380D01*
X53530476Y-64206380D01*
X53435238Y-64158761D01*
X53387619Y-64111142D01*
G04 #@! TO.C,P9*
X30630904Y-58669180D02*
X30630904Y-57669180D01*
X31011857Y-57669180D01*
X31107095Y-57716800D01*
X31154714Y-57764419D01*
X31202333Y-57859657D01*
X31202333Y-58002514D01*
X31154714Y-58097752D01*
X31107095Y-58145371D01*
X31011857Y-58192990D01*
X30630904Y-58192990D01*
X31678523Y-58669180D02*
X31869000Y-58669180D01*
X31964238Y-58621561D01*
X32011857Y-58573942D01*
X32107095Y-58431085D01*
X32154714Y-58240609D01*
X32154714Y-57859657D01*
X32107095Y-57764419D01*
X32059476Y-57716800D01*
X31964238Y-57669180D01*
X31773761Y-57669180D01*
X31678523Y-57716800D01*
X31630904Y-57764419D01*
X31583285Y-57859657D01*
X31583285Y-58097752D01*
X31630904Y-58192990D01*
X31678523Y-58240609D01*
X31773761Y-58288228D01*
X31964238Y-58288228D01*
X32059476Y-58240609D01*
X32107095Y-58192990D01*
X32154714Y-58097752D01*
G04 #@! TO.C,D8*
X42949904Y-102306380D02*
X42949904Y-101306380D01*
X43188000Y-101306380D01*
X43330857Y-101354000D01*
X43426095Y-101449238D01*
X43473714Y-101544476D01*
X43521333Y-101734952D01*
X43521333Y-101877809D01*
X43473714Y-102068285D01*
X43426095Y-102163523D01*
X43330857Y-102258761D01*
X43188000Y-102306380D01*
X42949904Y-102306380D01*
X44092761Y-101734952D02*
X43997523Y-101687333D01*
X43949904Y-101639714D01*
X43902285Y-101544476D01*
X43902285Y-101496857D01*
X43949904Y-101401619D01*
X43997523Y-101354000D01*
X44092761Y-101306380D01*
X44283238Y-101306380D01*
X44378476Y-101354000D01*
X44426095Y-101401619D01*
X44473714Y-101496857D01*
X44473714Y-101544476D01*
X44426095Y-101639714D01*
X44378476Y-101687333D01*
X44283238Y-101734952D01*
X44092761Y-101734952D01*
X43997523Y-101782571D01*
X43949904Y-101830190D01*
X43902285Y-101925428D01*
X43902285Y-102115904D01*
X43949904Y-102211142D01*
X43997523Y-102258761D01*
X44092761Y-102306380D01*
X44283238Y-102306380D01*
X44378476Y-102258761D01*
X44426095Y-102211142D01*
X44473714Y-102115904D01*
X44473714Y-101925428D01*
X44426095Y-101830190D01*
X44378476Y-101782571D01*
X44283238Y-101734952D01*
G04 #@! TO.C,D14*
X43235714Y-108656380D02*
X43235714Y-107656380D01*
X43473809Y-107656380D01*
X43616666Y-107704000D01*
X43711904Y-107799238D01*
X43759523Y-107894476D01*
X43807142Y-108084952D01*
X43807142Y-108227809D01*
X43759523Y-108418285D01*
X43711904Y-108513523D01*
X43616666Y-108608761D01*
X43473809Y-108656380D01*
X43235714Y-108656380D01*
X44759523Y-108656380D02*
X44188095Y-108656380D01*
X44473809Y-108656380D02*
X44473809Y-107656380D01*
X44378571Y-107799238D01*
X44283333Y-107894476D01*
X44188095Y-107942095D01*
X45616666Y-107989714D02*
X45616666Y-108656380D01*
X45378571Y-107608761D02*
X45140476Y-108323047D01*
X45759523Y-108323047D01*
G04 #@! TO.C,REF1*
X45942380Y-65730380D02*
X45609047Y-65254190D01*
X45370952Y-65730380D02*
X45370952Y-64730380D01*
X45751904Y-64730380D01*
X45847142Y-64778000D01*
X45894761Y-64825619D01*
X45942380Y-64920857D01*
X45942380Y-65063714D01*
X45894761Y-65158952D01*
X45847142Y-65206571D01*
X45751904Y-65254190D01*
X45370952Y-65254190D01*
X46370952Y-65206571D02*
X46704285Y-65206571D01*
X46847142Y-65730380D02*
X46370952Y-65730380D01*
X46370952Y-64730380D01*
X46847142Y-64730380D01*
X47609047Y-65206571D02*
X47275714Y-65206571D01*
X47275714Y-65730380D02*
X47275714Y-64730380D01*
X47751904Y-64730380D01*
X48656666Y-65730380D02*
X48085238Y-65730380D01*
X48370952Y-65730380D02*
X48370952Y-64730380D01*
X48275714Y-64873238D01*
X48180476Y-64968476D01*
X48085238Y-65016095D01*
G04 #@! TO.C,C1*
X36409333Y-63730142D02*
X36361714Y-63777761D01*
X36218857Y-63825380D01*
X36123619Y-63825380D01*
X35980761Y-63777761D01*
X35885523Y-63682523D01*
X35837904Y-63587285D01*
X35790285Y-63396809D01*
X35790285Y-63253952D01*
X35837904Y-63063476D01*
X35885523Y-62968238D01*
X35980761Y-62873000D01*
X36123619Y-62825380D01*
X36218857Y-62825380D01*
X36361714Y-62873000D01*
X36409333Y-62920619D01*
X37361714Y-63825380D02*
X36790285Y-63825380D01*
X37076000Y-63825380D02*
X37076000Y-62825380D01*
X36980761Y-62968238D01*
X36885523Y-63063476D01*
X36790285Y-63111095D01*
G04 #@! TO.C,U1*
X29718095Y-60031380D02*
X29718095Y-60840904D01*
X29765714Y-60936142D01*
X29813333Y-60983761D01*
X29908571Y-61031380D01*
X30099047Y-61031380D01*
X30194285Y-60983761D01*
X30241904Y-60936142D01*
X30289523Y-60840904D01*
X30289523Y-60031380D01*
X31289523Y-61031380D02*
X30718095Y-61031380D01*
X31003809Y-61031380D02*
X31003809Y-60031380D01*
X30908571Y-60174238D01*
X30813333Y-60269476D01*
X30718095Y-60317095D01*
G04 #@! TO.C,CON1*
X81637142Y-54457765D02*
X81684761Y-54505384D01*
X81732380Y-54648241D01*
X81732380Y-54743480D01*
X81684761Y-54886337D01*
X81589523Y-54981575D01*
X81494285Y-55029194D01*
X81303809Y-55076813D01*
X81160952Y-55076813D01*
X80970476Y-55029194D01*
X80875238Y-54981575D01*
X80780000Y-54886337D01*
X80732380Y-54743480D01*
X80732380Y-54648241D01*
X80780000Y-54505384D01*
X80827619Y-54457765D01*
X80732380Y-53838718D02*
X80732380Y-53648241D01*
X80780000Y-53553003D01*
X80875238Y-53457765D01*
X81065714Y-53410146D01*
X81399047Y-53410146D01*
X81589523Y-53457765D01*
X81684761Y-53553003D01*
X81732380Y-53648241D01*
X81732380Y-53838718D01*
X81684761Y-53933956D01*
X81589523Y-54029194D01*
X81399047Y-54076813D01*
X81065714Y-54076813D01*
X80875238Y-54029194D01*
X80780000Y-53933956D01*
X80732380Y-53838718D01*
X81732380Y-52981575D02*
X80732380Y-52981575D01*
X81732380Y-52410146D01*
X80732380Y-52410146D01*
X81732380Y-51410146D02*
X81732380Y-51981575D01*
X81732380Y-51695860D02*
X80732380Y-51695860D01*
X80875238Y-51791099D01*
X80970476Y-51886337D01*
X81018095Y-51981575D01*
G04 #@! TO.C,J1*
X159639666Y-59777380D02*
X159639666Y-60491666D01*
X159592047Y-60634523D01*
X159496809Y-60729761D01*
X159353952Y-60777380D01*
X159258714Y-60777380D01*
X160639666Y-60777380D02*
X160068238Y-60777380D01*
X160353952Y-60777380D02*
X160353952Y-59777380D01*
X160258714Y-59920238D01*
X160163476Y-60015476D01*
X160068238Y-60063095D01*
G04 #@! TO.C,J2*
X127602666Y-59775380D02*
X127602666Y-60489666D01*
X127555047Y-60632523D01*
X127459809Y-60727761D01*
X127316952Y-60775380D01*
X127221714Y-60775380D01*
X128031238Y-59870619D02*
X128078857Y-59823000D01*
X128174095Y-59775380D01*
X128412190Y-59775380D01*
X128507428Y-59823000D01*
X128555047Y-59870619D01*
X128602666Y-59965857D01*
X128602666Y-60061095D01*
X128555047Y-60203952D01*
X127983619Y-60775380D01*
X128602666Y-60775380D01*
G04 #@! TO.C,C3*
X123531333Y-87479142D02*
X123483714Y-87526761D01*
X123340857Y-87574380D01*
X123245619Y-87574380D01*
X123102761Y-87526761D01*
X123007523Y-87431523D01*
X122959904Y-87336285D01*
X122912285Y-87145809D01*
X122912285Y-87002952D01*
X122959904Y-86812476D01*
X123007523Y-86717238D01*
X123102761Y-86622000D01*
X123245619Y-86574380D01*
X123340857Y-86574380D01*
X123483714Y-86622000D01*
X123531333Y-86669619D01*
X123864666Y-86574380D02*
X124483714Y-86574380D01*
X124150380Y-86955333D01*
X124293238Y-86955333D01*
X124388476Y-87002952D01*
X124436095Y-87050571D01*
X124483714Y-87145809D01*
X124483714Y-87383904D01*
X124436095Y-87479142D01*
X124388476Y-87526761D01*
X124293238Y-87574380D01*
X124007523Y-87574380D01*
X123912285Y-87526761D01*
X123864666Y-87479142D01*
G04 #@! TO.C,C4*
X108291333Y-87479142D02*
X108243714Y-87526761D01*
X108100857Y-87574380D01*
X108005619Y-87574380D01*
X107862761Y-87526761D01*
X107767523Y-87431523D01*
X107719904Y-87336285D01*
X107672285Y-87145809D01*
X107672285Y-87002952D01*
X107719904Y-86812476D01*
X107767523Y-86717238D01*
X107862761Y-86622000D01*
X108005619Y-86574380D01*
X108100857Y-86574380D01*
X108243714Y-86622000D01*
X108291333Y-86669619D01*
X109148476Y-86907714D02*
X109148476Y-87574380D01*
X108910380Y-86526761D02*
X108672285Y-87241047D01*
X109291333Y-87241047D01*
G04 #@! TO.C,C5*
X94575333Y-85193142D02*
X94527714Y-85240761D01*
X94384857Y-85288380D01*
X94289619Y-85288380D01*
X94146761Y-85240761D01*
X94051523Y-85145523D01*
X94003904Y-85050285D01*
X93956285Y-84859809D01*
X93956285Y-84716952D01*
X94003904Y-84526476D01*
X94051523Y-84431238D01*
X94146761Y-84336000D01*
X94289619Y-84288380D01*
X94384857Y-84288380D01*
X94527714Y-84336000D01*
X94575333Y-84383619D01*
X95480095Y-84288380D02*
X95003904Y-84288380D01*
X94956285Y-84764571D01*
X95003904Y-84716952D01*
X95099142Y-84669333D01*
X95337238Y-84669333D01*
X95432476Y-84716952D01*
X95480095Y-84764571D01*
X95527714Y-84859809D01*
X95527714Y-85097904D01*
X95480095Y-85193142D01*
X95432476Y-85240761D01*
X95337238Y-85288380D01*
X95099142Y-85288380D01*
X95003904Y-85240761D01*
X94956285Y-85193142D01*
G04 #@! TO.C,Q5*
X148748761Y-95289619D02*
X148653523Y-95242000D01*
X148558285Y-95146761D01*
X148415428Y-95003904D01*
X148320190Y-94956285D01*
X148224952Y-94956285D01*
X148272571Y-95194380D02*
X148177333Y-95146761D01*
X148082095Y-95051523D01*
X148034476Y-94861047D01*
X148034476Y-94527714D01*
X148082095Y-94337238D01*
X148177333Y-94242000D01*
X148272571Y-94194380D01*
X148463047Y-94194380D01*
X148558285Y-94242000D01*
X148653523Y-94337238D01*
X148701142Y-94527714D01*
X148701142Y-94861047D01*
X148653523Y-95051523D01*
X148558285Y-95146761D01*
X148463047Y-95194380D01*
X148272571Y-95194380D01*
X149605904Y-94194380D02*
X149129714Y-94194380D01*
X149082095Y-94670571D01*
X149129714Y-94622952D01*
X149224952Y-94575333D01*
X149463047Y-94575333D01*
X149558285Y-94622952D01*
X149605904Y-94670571D01*
X149653523Y-94765809D01*
X149653523Y-95003904D01*
X149605904Y-95099142D01*
X149558285Y-95146761D01*
X149463047Y-95194380D01*
X149224952Y-95194380D01*
X149129714Y-95146761D01*
X149082095Y-95099142D01*
G04 #@! TO.C,Q6*
X118268761Y-95289619D02*
X118173523Y-95242000D01*
X118078285Y-95146761D01*
X117935428Y-95003904D01*
X117840190Y-94956285D01*
X117744952Y-94956285D01*
X117792571Y-95194380D02*
X117697333Y-95146761D01*
X117602095Y-95051523D01*
X117554476Y-94861047D01*
X117554476Y-94527714D01*
X117602095Y-94337238D01*
X117697333Y-94242000D01*
X117792571Y-94194380D01*
X117983047Y-94194380D01*
X118078285Y-94242000D01*
X118173523Y-94337238D01*
X118221142Y-94527714D01*
X118221142Y-94861047D01*
X118173523Y-95051523D01*
X118078285Y-95146761D01*
X117983047Y-95194380D01*
X117792571Y-95194380D01*
X119078285Y-94194380D02*
X118887809Y-94194380D01*
X118792571Y-94242000D01*
X118744952Y-94289619D01*
X118649714Y-94432476D01*
X118602095Y-94622952D01*
X118602095Y-95003904D01*
X118649714Y-95099142D01*
X118697333Y-95146761D01*
X118792571Y-95194380D01*
X118983047Y-95194380D01*
X119078285Y-95146761D01*
X119125904Y-95099142D01*
X119173523Y-95003904D01*
X119173523Y-94765809D01*
X119125904Y-94670571D01*
X119078285Y-94622952D01*
X118983047Y-94575333D01*
X118792571Y-94575333D01*
X118697333Y-94622952D01*
X118649714Y-94670571D01*
X118602095Y-94765809D01*
G04 #@! TO.C,Q7*
X103028761Y-95289619D02*
X102933523Y-95242000D01*
X102838285Y-95146761D01*
X102695428Y-95003904D01*
X102600190Y-94956285D01*
X102504952Y-94956285D01*
X102552571Y-95194380D02*
X102457333Y-95146761D01*
X102362095Y-95051523D01*
X102314476Y-94861047D01*
X102314476Y-94527714D01*
X102362095Y-94337238D01*
X102457333Y-94242000D01*
X102552571Y-94194380D01*
X102743047Y-94194380D01*
X102838285Y-94242000D01*
X102933523Y-94337238D01*
X102981142Y-94527714D01*
X102981142Y-94861047D01*
X102933523Y-95051523D01*
X102838285Y-95146761D01*
X102743047Y-95194380D01*
X102552571Y-95194380D01*
X103314476Y-94194380D02*
X103981142Y-94194380D01*
X103552571Y-95194380D01*
G04 #@! TO.C,Q8*
X87788761Y-95289619D02*
X87693523Y-95242000D01*
X87598285Y-95146761D01*
X87455428Y-95003904D01*
X87360190Y-94956285D01*
X87264952Y-94956285D01*
X87312571Y-95194380D02*
X87217333Y-95146761D01*
X87122095Y-95051523D01*
X87074476Y-94861047D01*
X87074476Y-94527714D01*
X87122095Y-94337238D01*
X87217333Y-94242000D01*
X87312571Y-94194380D01*
X87503047Y-94194380D01*
X87598285Y-94242000D01*
X87693523Y-94337238D01*
X87741142Y-94527714D01*
X87741142Y-94861047D01*
X87693523Y-95051523D01*
X87598285Y-95146761D01*
X87503047Y-95194380D01*
X87312571Y-95194380D01*
X88312571Y-94622952D02*
X88217333Y-94575333D01*
X88169714Y-94527714D01*
X88122095Y-94432476D01*
X88122095Y-94384857D01*
X88169714Y-94289619D01*
X88217333Y-94242000D01*
X88312571Y-94194380D01*
X88503047Y-94194380D01*
X88598285Y-94242000D01*
X88645904Y-94289619D01*
X88693523Y-94384857D01*
X88693523Y-94432476D01*
X88645904Y-94527714D01*
X88598285Y-94575333D01*
X88503047Y-94622952D01*
X88312571Y-94622952D01*
X88217333Y-94670571D01*
X88169714Y-94718190D01*
X88122095Y-94813428D01*
X88122095Y-95003904D01*
X88169714Y-95099142D01*
X88217333Y-95146761D01*
X88312571Y-95194380D01*
X88503047Y-95194380D01*
X88598285Y-95146761D01*
X88645904Y-95099142D01*
X88693523Y-95003904D01*
X88693523Y-94813428D01*
X88645904Y-94718190D01*
X88598285Y-94670571D01*
X88503047Y-94622952D01*
G04 #@! TO.C,C6*
X139279333Y-87225142D02*
X139231714Y-87272761D01*
X139088857Y-87320380D01*
X138993619Y-87320380D01*
X138850761Y-87272761D01*
X138755523Y-87177523D01*
X138707904Y-87082285D01*
X138660285Y-86891809D01*
X138660285Y-86748952D01*
X138707904Y-86558476D01*
X138755523Y-86463238D01*
X138850761Y-86368000D01*
X138993619Y-86320380D01*
X139088857Y-86320380D01*
X139231714Y-86368000D01*
X139279333Y-86415619D01*
X140136476Y-86320380D02*
X139946000Y-86320380D01*
X139850761Y-86368000D01*
X139803142Y-86415619D01*
X139707904Y-86558476D01*
X139660285Y-86748952D01*
X139660285Y-87129904D01*
X139707904Y-87225142D01*
X139755523Y-87272761D01*
X139850761Y-87320380D01*
X140041238Y-87320380D01*
X140136476Y-87272761D01*
X140184095Y-87225142D01*
X140231714Y-87129904D01*
X140231714Y-86891809D01*
X140184095Y-86796571D01*
X140136476Y-86748952D01*
X140041238Y-86701333D01*
X139850761Y-86701333D01*
X139755523Y-86748952D01*
X139707904Y-86796571D01*
X139660285Y-86891809D01*
G04 #@! TO.C,Q9*
X133508761Y-95289619D02*
X133413523Y-95242000D01*
X133318285Y-95146761D01*
X133175428Y-95003904D01*
X133080190Y-94956285D01*
X132984952Y-94956285D01*
X133032571Y-95194380D02*
X132937333Y-95146761D01*
X132842095Y-95051523D01*
X132794476Y-94861047D01*
X132794476Y-94527714D01*
X132842095Y-94337238D01*
X132937333Y-94242000D01*
X133032571Y-94194380D01*
X133223047Y-94194380D01*
X133318285Y-94242000D01*
X133413523Y-94337238D01*
X133461142Y-94527714D01*
X133461142Y-94861047D01*
X133413523Y-95051523D01*
X133318285Y-95146761D01*
X133223047Y-95194380D01*
X133032571Y-95194380D01*
X133937333Y-95194380D02*
X134127809Y-95194380D01*
X134223047Y-95146761D01*
X134270666Y-95099142D01*
X134365904Y-94956285D01*
X134413523Y-94765809D01*
X134413523Y-94384857D01*
X134365904Y-94289619D01*
X134318285Y-94242000D01*
X134223047Y-94194380D01*
X134032571Y-94194380D01*
X133937333Y-94242000D01*
X133889714Y-94289619D01*
X133842095Y-94384857D01*
X133842095Y-94622952D01*
X133889714Y-94718190D01*
X133937333Y-94765809D01*
X134032571Y-94813428D01*
X134223047Y-94813428D01*
X134318285Y-94765809D01*
X134365904Y-94718190D01*
X134413523Y-94622952D01*
G04 #@! TO.C,D9*
X92654380Y-62968095D02*
X91654380Y-62968095D01*
X91654380Y-62730000D01*
X91702000Y-62587142D01*
X91797238Y-62491904D01*
X91892476Y-62444285D01*
X92082952Y-62396666D01*
X92225809Y-62396666D01*
X92416285Y-62444285D01*
X92511523Y-62491904D01*
X92606761Y-62587142D01*
X92654380Y-62730000D01*
X92654380Y-62968095D01*
X92654380Y-61920476D02*
X92654380Y-61730000D01*
X92606761Y-61634761D01*
X92559142Y-61587142D01*
X92416285Y-61491904D01*
X92225809Y-61444285D01*
X91844857Y-61444285D01*
X91749619Y-61491904D01*
X91702000Y-61539523D01*
X91654380Y-61634761D01*
X91654380Y-61825238D01*
X91702000Y-61920476D01*
X91749619Y-61968095D01*
X91844857Y-62015714D01*
X92082952Y-62015714D01*
X92178190Y-61968095D01*
X92225809Y-61920476D01*
X92273428Y-61825238D01*
X92273428Y-61634761D01*
X92225809Y-61539523D01*
X92178190Y-61491904D01*
X92082952Y-61444285D01*
G04 #@! TO.C,D11*
X77716214Y-66746380D02*
X77716214Y-65746380D01*
X77954309Y-65746380D01*
X78097166Y-65794000D01*
X78192404Y-65889238D01*
X78240023Y-65984476D01*
X78287642Y-66174952D01*
X78287642Y-66317809D01*
X78240023Y-66508285D01*
X78192404Y-66603523D01*
X78097166Y-66698761D01*
X77954309Y-66746380D01*
X77716214Y-66746380D01*
X79240023Y-66746380D02*
X78668595Y-66746380D01*
X78954309Y-66746380D02*
X78954309Y-65746380D01*
X78859071Y-65889238D01*
X78763833Y-65984476D01*
X78668595Y-66032095D01*
X80192404Y-66746380D02*
X79620976Y-66746380D01*
X79906690Y-66746380D02*
X79906690Y-65746380D01*
X79811452Y-65889238D01*
X79716214Y-65984476D01*
X79620976Y-66032095D01*
G04 #@! TO.C,D13*
X64968380Y-102814285D02*
X63968380Y-102814285D01*
X63968380Y-102576190D01*
X64016000Y-102433333D01*
X64111238Y-102338095D01*
X64206476Y-102290476D01*
X64396952Y-102242857D01*
X64539809Y-102242857D01*
X64730285Y-102290476D01*
X64825523Y-102338095D01*
X64920761Y-102433333D01*
X64968380Y-102576190D01*
X64968380Y-102814285D01*
X64968380Y-101290476D02*
X64968380Y-101861904D01*
X64968380Y-101576190D02*
X63968380Y-101576190D01*
X64111238Y-101671428D01*
X64206476Y-101766666D01*
X64254095Y-101861904D01*
X63968380Y-100957142D02*
X63968380Y-100338095D01*
X64349333Y-100671428D01*
X64349333Y-100528571D01*
X64396952Y-100433333D01*
X64444571Y-100385714D01*
X64539809Y-100338095D01*
X64777904Y-100338095D01*
X64873142Y-100385714D01*
X64920761Y-100433333D01*
X64968380Y-100528571D01*
X64968380Y-100814285D01*
X64920761Y-100909523D01*
X64873142Y-100957142D01*
G04 #@! TO.C,D17*
X160218380Y-99512285D02*
X159218380Y-99512285D01*
X159218380Y-99274190D01*
X159266000Y-99131333D01*
X159361238Y-99036095D01*
X159456476Y-98988476D01*
X159646952Y-98940857D01*
X159789809Y-98940857D01*
X159980285Y-98988476D01*
X160075523Y-99036095D01*
X160170761Y-99131333D01*
X160218380Y-99274190D01*
X160218380Y-99512285D01*
X160218380Y-97988476D02*
X160218380Y-98559904D01*
X160218380Y-98274190D02*
X159218380Y-98274190D01*
X159361238Y-98369428D01*
X159456476Y-98464666D01*
X159504095Y-98559904D01*
X159218380Y-97655142D02*
X159218380Y-96988476D01*
X160218380Y-97417047D01*
G04 #@! TO.C,D18*
X129738380Y-99258285D02*
X128738380Y-99258285D01*
X128738380Y-99020190D01*
X128786000Y-98877333D01*
X128881238Y-98782095D01*
X128976476Y-98734476D01*
X129166952Y-98686857D01*
X129309809Y-98686857D01*
X129500285Y-98734476D01*
X129595523Y-98782095D01*
X129690761Y-98877333D01*
X129738380Y-99020190D01*
X129738380Y-99258285D01*
X129738380Y-97734476D02*
X129738380Y-98305904D01*
X129738380Y-98020190D02*
X128738380Y-98020190D01*
X128881238Y-98115428D01*
X128976476Y-98210666D01*
X129024095Y-98305904D01*
X129166952Y-97163047D02*
X129119333Y-97258285D01*
X129071714Y-97305904D01*
X128976476Y-97353523D01*
X128928857Y-97353523D01*
X128833619Y-97305904D01*
X128786000Y-97258285D01*
X128738380Y-97163047D01*
X128738380Y-96972571D01*
X128786000Y-96877333D01*
X128833619Y-96829714D01*
X128928857Y-96782095D01*
X128976476Y-96782095D01*
X129071714Y-96829714D01*
X129119333Y-96877333D01*
X129166952Y-96972571D01*
X129166952Y-97163047D01*
X129214571Y-97258285D01*
X129262190Y-97305904D01*
X129357428Y-97353523D01*
X129547904Y-97353523D01*
X129643142Y-97305904D01*
X129690761Y-97258285D01*
X129738380Y-97163047D01*
X129738380Y-96972571D01*
X129690761Y-96877333D01*
X129643142Y-96829714D01*
X129547904Y-96782095D01*
X129357428Y-96782095D01*
X129262190Y-96829714D01*
X129214571Y-96877333D01*
X129166952Y-96972571D01*
G04 #@! TO.C,D19*
X114498380Y-99258285D02*
X113498380Y-99258285D01*
X113498380Y-99020190D01*
X113546000Y-98877333D01*
X113641238Y-98782095D01*
X113736476Y-98734476D01*
X113926952Y-98686857D01*
X114069809Y-98686857D01*
X114260285Y-98734476D01*
X114355523Y-98782095D01*
X114450761Y-98877333D01*
X114498380Y-99020190D01*
X114498380Y-99258285D01*
X114498380Y-97734476D02*
X114498380Y-98305904D01*
X114498380Y-98020190D02*
X113498380Y-98020190D01*
X113641238Y-98115428D01*
X113736476Y-98210666D01*
X113784095Y-98305904D01*
X114498380Y-97258285D02*
X114498380Y-97067809D01*
X114450761Y-96972571D01*
X114403142Y-96924952D01*
X114260285Y-96829714D01*
X114069809Y-96782095D01*
X113688857Y-96782095D01*
X113593619Y-96829714D01*
X113546000Y-96877333D01*
X113498380Y-96972571D01*
X113498380Y-97163047D01*
X113546000Y-97258285D01*
X113593619Y-97305904D01*
X113688857Y-97353523D01*
X113926952Y-97353523D01*
X114022190Y-97305904D01*
X114069809Y-97258285D01*
X114117428Y-97163047D01*
X114117428Y-96972571D01*
X114069809Y-96877333D01*
X114022190Y-96829714D01*
X113926952Y-96782095D01*
G04 #@! TO.C,D20*
X99258380Y-99512285D02*
X98258380Y-99512285D01*
X98258380Y-99274190D01*
X98306000Y-99131333D01*
X98401238Y-99036095D01*
X98496476Y-98988476D01*
X98686952Y-98940857D01*
X98829809Y-98940857D01*
X99020285Y-98988476D01*
X99115523Y-99036095D01*
X99210761Y-99131333D01*
X99258380Y-99274190D01*
X99258380Y-99512285D01*
X98353619Y-98559904D02*
X98306000Y-98512285D01*
X98258380Y-98417047D01*
X98258380Y-98178952D01*
X98306000Y-98083714D01*
X98353619Y-98036095D01*
X98448857Y-97988476D01*
X98544095Y-97988476D01*
X98686952Y-98036095D01*
X99258380Y-98607523D01*
X99258380Y-97988476D01*
X98258380Y-97369428D02*
X98258380Y-97274190D01*
X98306000Y-97178952D01*
X98353619Y-97131333D01*
X98448857Y-97083714D01*
X98639333Y-97036095D01*
X98877428Y-97036095D01*
X99067904Y-97083714D01*
X99163142Y-97131333D01*
X99210761Y-97178952D01*
X99258380Y-97274190D01*
X99258380Y-97369428D01*
X99210761Y-97464666D01*
X99163142Y-97512285D01*
X99067904Y-97559904D01*
X98877428Y-97607523D01*
X98639333Y-97607523D01*
X98448857Y-97559904D01*
X98353619Y-97512285D01*
X98306000Y-97464666D01*
X98258380Y-97369428D01*
G04 #@! TO.C,D21*
X144978380Y-99258285D02*
X143978380Y-99258285D01*
X143978380Y-99020190D01*
X144026000Y-98877333D01*
X144121238Y-98782095D01*
X144216476Y-98734476D01*
X144406952Y-98686857D01*
X144549809Y-98686857D01*
X144740285Y-98734476D01*
X144835523Y-98782095D01*
X144930761Y-98877333D01*
X144978380Y-99020190D01*
X144978380Y-99258285D01*
X144073619Y-98305904D02*
X144026000Y-98258285D01*
X143978380Y-98163047D01*
X143978380Y-97924952D01*
X144026000Y-97829714D01*
X144073619Y-97782095D01*
X144168857Y-97734476D01*
X144264095Y-97734476D01*
X144406952Y-97782095D01*
X144978380Y-98353523D01*
X144978380Y-97734476D01*
X144978380Y-96782095D02*
X144978380Y-97353523D01*
X144978380Y-97067809D02*
X143978380Y-97067809D01*
X144121238Y-97163047D01*
X144216476Y-97258285D01*
X144264095Y-97353523D01*
G04 #@! TO.C,U3*
X55078380Y-107695904D02*
X55887904Y-107695904D01*
X55983142Y-107648285D01*
X56030761Y-107600666D01*
X56078380Y-107505428D01*
X56078380Y-107314952D01*
X56030761Y-107219714D01*
X55983142Y-107172095D01*
X55887904Y-107124476D01*
X55078380Y-107124476D01*
X55078380Y-106743523D02*
X55078380Y-106124476D01*
X55459333Y-106457809D01*
X55459333Y-106314952D01*
X55506952Y-106219714D01*
X55554571Y-106172095D01*
X55649809Y-106124476D01*
X55887904Y-106124476D01*
X55983142Y-106172095D01*
X56030761Y-106219714D01*
X56078380Y-106314952D01*
X56078380Y-106600666D01*
X56030761Y-106695904D01*
X55983142Y-106743523D01*
G04 #@! TO.C,Y1*
X57943809Y-82195990D02*
X57943809Y-82672180D01*
X57610476Y-81672180D02*
X57943809Y-82195990D01*
X58277142Y-81672180D01*
X59134285Y-82672180D02*
X58562857Y-82672180D01*
X58848571Y-82672180D02*
X58848571Y-81672180D01*
X58753333Y-81815038D01*
X58658095Y-81910276D01*
X58562857Y-81957895D01*
G04 #@! TO.C,C2*
X24995142Y-76112666D02*
X25042761Y-76160285D01*
X25090380Y-76303142D01*
X25090380Y-76398380D01*
X25042761Y-76541238D01*
X24947523Y-76636476D01*
X24852285Y-76684095D01*
X24661809Y-76731714D01*
X24518952Y-76731714D01*
X24328476Y-76684095D01*
X24233238Y-76636476D01*
X24138000Y-76541238D01*
X24090380Y-76398380D01*
X24090380Y-76303142D01*
X24138000Y-76160285D01*
X24185619Y-76112666D01*
X24185619Y-75731714D02*
X24138000Y-75684095D01*
X24090380Y-75588857D01*
X24090380Y-75350761D01*
X24138000Y-75255523D01*
X24185619Y-75207904D01*
X24280857Y-75160285D01*
X24376095Y-75160285D01*
X24518952Y-75207904D01*
X25090380Y-75779333D01*
X25090380Y-75160285D01*
G04 #@! TO.C,Q1*
X43592761Y-113577619D02*
X43497523Y-113530000D01*
X43402285Y-113434761D01*
X43259428Y-113291904D01*
X43164190Y-113244285D01*
X43068952Y-113244285D01*
X43116571Y-113482380D02*
X43021333Y-113434761D01*
X42926095Y-113339523D01*
X42878476Y-113149047D01*
X42878476Y-112815714D01*
X42926095Y-112625238D01*
X43021333Y-112530000D01*
X43116571Y-112482380D01*
X43307047Y-112482380D01*
X43402285Y-112530000D01*
X43497523Y-112625238D01*
X43545142Y-112815714D01*
X43545142Y-113149047D01*
X43497523Y-113339523D01*
X43402285Y-113434761D01*
X43307047Y-113482380D01*
X43116571Y-113482380D01*
X44497523Y-113482380D02*
X43926095Y-113482380D01*
X44211809Y-113482380D02*
X44211809Y-112482380D01*
X44116571Y-112625238D01*
X44021333Y-112720476D01*
X43926095Y-112768095D01*
G04 #@! TO.C,D5*
X141501904Y-90368380D02*
X141501904Y-89368380D01*
X141740000Y-89368380D01*
X141882857Y-89416000D01*
X141978095Y-89511238D01*
X142025714Y-89606476D01*
X142073333Y-89796952D01*
X142073333Y-89939809D01*
X142025714Y-90130285D01*
X141978095Y-90225523D01*
X141882857Y-90320761D01*
X141740000Y-90368380D01*
X141501904Y-90368380D01*
X142978095Y-89368380D02*
X142501904Y-89368380D01*
X142454285Y-89844571D01*
X142501904Y-89796952D01*
X142597142Y-89749333D01*
X142835238Y-89749333D01*
X142930476Y-89796952D01*
X142978095Y-89844571D01*
X143025714Y-89939809D01*
X143025714Y-90177904D01*
X142978095Y-90273142D01*
X142930476Y-90320761D01*
X142835238Y-90368380D01*
X142597142Y-90368380D01*
X142501904Y-90320761D01*
X142454285Y-90273142D01*
X133180735Y-93268380D02*
X133180735Y-92268380D01*
X133752163Y-93268380D02*
X133323592Y-92696952D01*
X133752163Y-92268380D02*
X133180735Y-92839809D01*
X139504544Y-92932666D02*
X139980735Y-92932666D01*
X139409306Y-93218380D02*
X139742640Y-92218380D01*
X140075973Y-93218380D01*
G04 #@! TO.C,D2*
X126007904Y-90368380D02*
X126007904Y-89368380D01*
X126246000Y-89368380D01*
X126388857Y-89416000D01*
X126484095Y-89511238D01*
X126531714Y-89606476D01*
X126579333Y-89796952D01*
X126579333Y-89939809D01*
X126531714Y-90130285D01*
X126484095Y-90225523D01*
X126388857Y-90320761D01*
X126246000Y-90368380D01*
X126007904Y-90368380D01*
X126960285Y-89463619D02*
X127007904Y-89416000D01*
X127103142Y-89368380D01*
X127341238Y-89368380D01*
X127436476Y-89416000D01*
X127484095Y-89463619D01*
X127531714Y-89558857D01*
X127531714Y-89654095D01*
X127484095Y-89796952D01*
X126912666Y-90368380D01*
X127531714Y-90368380D01*
X117686735Y-93268380D02*
X117686735Y-92268380D01*
X118258163Y-93268380D02*
X117829592Y-92696952D01*
X118258163Y-92268380D02*
X117686735Y-92839809D01*
X124010544Y-92932666D02*
X124486735Y-92932666D01*
X123915306Y-93218380D02*
X124248640Y-92218380D01*
X124581973Y-93218380D01*
G04 #@! TO.C,D3*
X110767904Y-90368380D02*
X110767904Y-89368380D01*
X111006000Y-89368380D01*
X111148857Y-89416000D01*
X111244095Y-89511238D01*
X111291714Y-89606476D01*
X111339333Y-89796952D01*
X111339333Y-89939809D01*
X111291714Y-90130285D01*
X111244095Y-90225523D01*
X111148857Y-90320761D01*
X111006000Y-90368380D01*
X110767904Y-90368380D01*
X111672666Y-89368380D02*
X112291714Y-89368380D01*
X111958380Y-89749333D01*
X112101238Y-89749333D01*
X112196476Y-89796952D01*
X112244095Y-89844571D01*
X112291714Y-89939809D01*
X112291714Y-90177904D01*
X112244095Y-90273142D01*
X112196476Y-90320761D01*
X112101238Y-90368380D01*
X111815523Y-90368380D01*
X111720285Y-90320761D01*
X111672666Y-90273142D01*
X102446735Y-93268380D02*
X102446735Y-92268380D01*
X103018163Y-93268380D02*
X102589592Y-92696952D01*
X103018163Y-92268380D02*
X102446735Y-92839809D01*
X108770544Y-92932666D02*
X109246735Y-92932666D01*
X108675306Y-93218380D02*
X109008640Y-92218380D01*
X109341973Y-93218380D01*
G04 #@! TO.C,D4*
X96035904Y-90368380D02*
X96035904Y-89368380D01*
X96274000Y-89368380D01*
X96416857Y-89416000D01*
X96512095Y-89511238D01*
X96559714Y-89606476D01*
X96607333Y-89796952D01*
X96607333Y-89939809D01*
X96559714Y-90130285D01*
X96512095Y-90225523D01*
X96416857Y-90320761D01*
X96274000Y-90368380D01*
X96035904Y-90368380D01*
X97464476Y-89701714D02*
X97464476Y-90368380D01*
X97226380Y-89320761D02*
X96988285Y-90035047D01*
X97607333Y-90035047D01*
X87714735Y-93268380D02*
X87714735Y-92268380D01*
X88286163Y-93268380D02*
X87857592Y-92696952D01*
X88286163Y-92268380D02*
X87714735Y-92839809D01*
X94038544Y-92932666D02*
X94514735Y-92932666D01*
X93943306Y-93218380D02*
X94276640Y-92218380D01*
X94609973Y-93218380D01*
G04 #@! TO.C,P3*
X23645904Y-122880380D02*
X23645904Y-121880380D01*
X24026857Y-121880380D01*
X24122095Y-121928000D01*
X24169714Y-121975619D01*
X24217333Y-122070857D01*
X24217333Y-122213714D01*
X24169714Y-122308952D01*
X24122095Y-122356571D01*
X24026857Y-122404190D01*
X23645904Y-122404190D01*
X24550666Y-121880380D02*
X25169714Y-121880380D01*
X24836380Y-122261333D01*
X24979238Y-122261333D01*
X25074476Y-122308952D01*
X25122095Y-122356571D01*
X25169714Y-122451809D01*
X25169714Y-122689904D01*
X25122095Y-122785142D01*
X25074476Y-122832761D01*
X24979238Y-122880380D01*
X24693523Y-122880380D01*
X24598285Y-122832761D01*
X24550666Y-122785142D01*
G04 #@! TO.C,P6*
X23645904Y-92120980D02*
X23645904Y-91120980D01*
X24026857Y-91120980D01*
X24122095Y-91168600D01*
X24169714Y-91216219D01*
X24217333Y-91311457D01*
X24217333Y-91454314D01*
X24169714Y-91549552D01*
X24122095Y-91597171D01*
X24026857Y-91644790D01*
X23645904Y-91644790D01*
X25074476Y-91120980D02*
X24884000Y-91120980D01*
X24788761Y-91168600D01*
X24741142Y-91216219D01*
X24645904Y-91359076D01*
X24598285Y-91549552D01*
X24598285Y-91930504D01*
X24645904Y-92025742D01*
X24693523Y-92073361D01*
X24788761Y-92120980D01*
X24979238Y-92120980D01*
X25074476Y-92073361D01*
X25122095Y-92025742D01*
X25169714Y-91930504D01*
X25169714Y-91692409D01*
X25122095Y-91597171D01*
X25074476Y-91549552D01*
X24979238Y-91501933D01*
X24788761Y-91501933D01*
X24693523Y-91549552D01*
X24645904Y-91597171D01*
X24598285Y-91692409D01*
G04 #@! TO.C,P7*
X159535904Y-122880380D02*
X159535904Y-121880380D01*
X159916857Y-121880380D01*
X160012095Y-121928000D01*
X160059714Y-121975619D01*
X160107333Y-122070857D01*
X160107333Y-122213714D01*
X160059714Y-122308952D01*
X160012095Y-122356571D01*
X159916857Y-122404190D01*
X159535904Y-122404190D01*
X160440666Y-121880380D02*
X161107333Y-121880380D01*
X160678761Y-122880380D01*
G04 #@! TO.C,P8*
X159535904Y-73350380D02*
X159535904Y-72350380D01*
X159916857Y-72350380D01*
X160012095Y-72398000D01*
X160059714Y-72445619D01*
X160107333Y-72540857D01*
X160107333Y-72683714D01*
X160059714Y-72778952D01*
X160012095Y-72826571D01*
X159916857Y-72874190D01*
X159535904Y-72874190D01*
X160678761Y-72778952D02*
X160583523Y-72731333D01*
X160535904Y-72683714D01*
X160488285Y-72588476D01*
X160488285Y-72540857D01*
X160535904Y-72445619D01*
X160583523Y-72398000D01*
X160678761Y-72350380D01*
X160869238Y-72350380D01*
X160964476Y-72398000D01*
X161012095Y-72445619D01*
X161059714Y-72540857D01*
X161059714Y-72588476D01*
X161012095Y-72683714D01*
X160964476Y-72731333D01*
X160869238Y-72778952D01*
X160678761Y-72778952D01*
X160583523Y-72826571D01*
X160535904Y-72874190D01*
X160488285Y-72969428D01*
X160488285Y-73159904D01*
X160535904Y-73255142D01*
X160583523Y-73302761D01*
X160678761Y-73350380D01*
X160869238Y-73350380D01*
X160964476Y-73302761D01*
X161012095Y-73255142D01*
X161059714Y-73159904D01*
X161059714Y-72969428D01*
X161012095Y-72874190D01*
X160964476Y-72826571D01*
X160869238Y-72778952D01*
G04 #@! TO.C,JP1*
X22737866Y-57440580D02*
X22737866Y-58154866D01*
X22690247Y-58297723D01*
X22595009Y-58392961D01*
X22452152Y-58440580D01*
X22356914Y-58440580D01*
X23214057Y-58440580D02*
X23214057Y-57440580D01*
X23595009Y-57440580D01*
X23690247Y-57488200D01*
X23737866Y-57535819D01*
X23785485Y-57631057D01*
X23785485Y-57773914D01*
X23737866Y-57869152D01*
X23690247Y-57916771D01*
X23595009Y-57964390D01*
X23214057Y-57964390D01*
X24737866Y-58440580D02*
X24166438Y-58440580D01*
X24452152Y-58440580D02*
X24452152Y-57440580D01*
X24356914Y-57583438D01*
X24261676Y-57678676D01*
X24166438Y-57726295D01*
G04 #@! TO.C,D1*
X49045904Y-86558380D02*
X49045904Y-85558380D01*
X49284000Y-85558380D01*
X49426857Y-85606000D01*
X49522095Y-85701238D01*
X49569714Y-85796476D01*
X49617333Y-85986952D01*
X49617333Y-86129809D01*
X49569714Y-86320285D01*
X49522095Y-86415523D01*
X49426857Y-86510761D01*
X49284000Y-86558380D01*
X49045904Y-86558380D01*
X50569714Y-86558380D02*
X49998285Y-86558380D01*
X50284000Y-86558380D02*
X50284000Y-85558380D01*
X50188761Y-85701238D01*
X50093523Y-85796476D01*
X49998285Y-85844095D01*
G04 #@! TO.C,D6*
X46759904Y-86558380D02*
X46759904Y-85558380D01*
X46998000Y-85558380D01*
X47140857Y-85606000D01*
X47236095Y-85701238D01*
X47283714Y-85796476D01*
X47331333Y-85986952D01*
X47331333Y-86129809D01*
X47283714Y-86320285D01*
X47236095Y-86415523D01*
X47140857Y-86510761D01*
X46998000Y-86558380D01*
X46759904Y-86558380D01*
X48188476Y-85558380D02*
X47998000Y-85558380D01*
X47902761Y-85606000D01*
X47855142Y-85653619D01*
X47759904Y-85796476D01*
X47712285Y-85986952D01*
X47712285Y-86367904D01*
X47759904Y-86463142D01*
X47807523Y-86510761D01*
X47902761Y-86558380D01*
X48093238Y-86558380D01*
X48188476Y-86510761D01*
X48236095Y-86463142D01*
X48283714Y-86367904D01*
X48283714Y-86129809D01*
X48236095Y-86034571D01*
X48188476Y-85986952D01*
X48093238Y-85939333D01*
X47902761Y-85939333D01*
X47807523Y-85986952D01*
X47759904Y-86034571D01*
X47712285Y-86129809D01*
G04 #@! TO.C,U5*
X53746495Y-126376180D02*
X53746495Y-127185704D01*
X53794114Y-127280942D01*
X53841733Y-127328561D01*
X53936971Y-127376180D01*
X54127447Y-127376180D01*
X54222685Y-127328561D01*
X54270304Y-127280942D01*
X54317923Y-127185704D01*
X54317923Y-126376180D01*
X55270304Y-126376180D02*
X54794114Y-126376180D01*
X54746495Y-126852371D01*
X54794114Y-126804752D01*
X54889352Y-126757133D01*
X55127447Y-126757133D01*
X55222685Y-126804752D01*
X55270304Y-126852371D01*
X55317923Y-126947609D01*
X55317923Y-127185704D01*
X55270304Y-127280942D01*
X55222685Y-127328561D01*
X55127447Y-127376180D01*
X54889352Y-127376180D01*
X54794114Y-127328561D01*
X54746495Y-127280942D01*
G04 #@! TO.C,R1*
X72223333Y-120340380D02*
X71890000Y-119864190D01*
X71651904Y-120340380D02*
X71651904Y-119340380D01*
X72032857Y-119340380D01*
X72128095Y-119388000D01*
X72175714Y-119435619D01*
X72223333Y-119530857D01*
X72223333Y-119673714D01*
X72175714Y-119768952D01*
X72128095Y-119816571D01*
X72032857Y-119864190D01*
X71651904Y-119864190D01*
X73175714Y-120340380D02*
X72604285Y-120340380D01*
X72890000Y-120340380D02*
X72890000Y-119340380D01*
X72794761Y-119483238D01*
X72699523Y-119578476D01*
X72604285Y-119626095D01*
G04 #@! TO.C,R2*
X72223333Y-117800380D02*
X71890000Y-117324190D01*
X71651904Y-117800380D02*
X71651904Y-116800380D01*
X72032857Y-116800380D01*
X72128095Y-116848000D01*
X72175714Y-116895619D01*
X72223333Y-116990857D01*
X72223333Y-117133714D01*
X72175714Y-117228952D01*
X72128095Y-117276571D01*
X72032857Y-117324190D01*
X71651904Y-117324190D01*
X72604285Y-116895619D02*
X72651904Y-116848000D01*
X72747142Y-116800380D01*
X72985238Y-116800380D01*
X73080476Y-116848000D01*
X73128095Y-116895619D01*
X73175714Y-116990857D01*
X73175714Y-117086095D01*
X73128095Y-117228952D01*
X72556666Y-117800380D01*
X73175714Y-117800380D01*
G04 #@! TO.C,U2*
X54102095Y-81748380D02*
X54102095Y-82557904D01*
X54149714Y-82653142D01*
X54197333Y-82700761D01*
X54292571Y-82748380D01*
X54483047Y-82748380D01*
X54578285Y-82700761D01*
X54625904Y-82653142D01*
X54673523Y-82557904D01*
X54673523Y-81748380D01*
X55102095Y-81843619D02*
X55149714Y-81796000D01*
X55244952Y-81748380D01*
X55483047Y-81748380D01*
X55578285Y-81796000D01*
X55625904Y-81843619D01*
X55673523Y-81938857D01*
X55673523Y-82034095D01*
X55625904Y-82176952D01*
X55054476Y-82748380D01*
X55673523Y-82748380D01*
G04 #@! TO.C,U4*
X95718380Y-69976904D02*
X96527904Y-69976904D01*
X96623142Y-69929285D01*
X96670761Y-69881666D01*
X96718380Y-69786428D01*
X96718380Y-69595952D01*
X96670761Y-69500714D01*
X96623142Y-69453095D01*
X96527904Y-69405476D01*
X95718380Y-69405476D01*
X96051714Y-68500714D02*
X96718380Y-68500714D01*
X95670761Y-68738809D02*
X96385047Y-68976904D01*
X96385047Y-68357857D01*
G04 #@! TO.C,L1*
X79970333Y-73350380D02*
X79494142Y-73350380D01*
X79494142Y-72350380D01*
X80827476Y-73350380D02*
X80256047Y-73350380D01*
X80541761Y-73350380D02*
X80541761Y-72350380D01*
X80446523Y-72493238D01*
X80351285Y-72588476D01*
X80256047Y-72636095D01*
G04 #@! TO.C,D7*
X79779904Y-64206380D02*
X79779904Y-63206380D01*
X80018000Y-63206380D01*
X80160857Y-63254000D01*
X80256095Y-63349238D01*
X80303714Y-63444476D01*
X80351333Y-63634952D01*
X80351333Y-63777809D01*
X80303714Y-63968285D01*
X80256095Y-64063523D01*
X80160857Y-64158761D01*
X80018000Y-64206380D01*
X79779904Y-64206380D01*
X80684666Y-63206380D02*
X81351333Y-63206380D01*
X80922761Y-64206380D01*
G04 #@! TO.C,C9*
X93305333Y-64069142D02*
X93257714Y-64116761D01*
X93114857Y-64164380D01*
X93019619Y-64164380D01*
X92876761Y-64116761D01*
X92781523Y-64021523D01*
X92733904Y-63926285D01*
X92686285Y-63735809D01*
X92686285Y-63592952D01*
X92733904Y-63402476D01*
X92781523Y-63307238D01*
X92876761Y-63212000D01*
X93019619Y-63164380D01*
X93114857Y-63164380D01*
X93257714Y-63212000D01*
X93305333Y-63259619D01*
X93781523Y-64164380D02*
X93972000Y-64164380D01*
X94067238Y-64116761D01*
X94114857Y-64069142D01*
X94210095Y-63926285D01*
X94257714Y-63735809D01*
X94257714Y-63354857D01*
X94210095Y-63259619D01*
X94162476Y-63212000D01*
X94067238Y-63164380D01*
X93876761Y-63164380D01*
X93781523Y-63212000D01*
X93733904Y-63259619D01*
X93686285Y-63354857D01*
X93686285Y-63592952D01*
X93733904Y-63688190D01*
X93781523Y-63735809D01*
X93876761Y-63783428D01*
X94067238Y-63783428D01*
X94162476Y-63735809D01*
X94210095Y-63688190D01*
X94257714Y-63592952D01*
G04 #@! TO.C,R3*
X98115380Y-69381666D02*
X97639190Y-69715000D01*
X98115380Y-69953095D02*
X97115380Y-69953095D01*
X97115380Y-69572142D01*
X97163000Y-69476904D01*
X97210619Y-69429285D01*
X97305857Y-69381666D01*
X97448714Y-69381666D01*
X97543952Y-69429285D01*
X97591571Y-69476904D01*
X97639190Y-69572142D01*
X97639190Y-69953095D01*
X97115380Y-69048333D02*
X97115380Y-68429285D01*
X97496333Y-68762619D01*
X97496333Y-68619761D01*
X97543952Y-68524523D01*
X97591571Y-68476904D01*
X97686809Y-68429285D01*
X97924904Y-68429285D01*
X98020142Y-68476904D01*
X98067761Y-68524523D01*
X98115380Y-68619761D01*
X98115380Y-68905476D01*
X98067761Y-69000714D01*
X98020142Y-69048333D01*
G04 #@! TO.C,R19*
X93365580Y-77858857D02*
X92889390Y-78192190D01*
X93365580Y-78430285D02*
X92365580Y-78430285D01*
X92365580Y-78049333D01*
X92413200Y-77954095D01*
X92460819Y-77906476D01*
X92556057Y-77858857D01*
X92698914Y-77858857D01*
X92794152Y-77906476D01*
X92841771Y-77954095D01*
X92889390Y-78049333D01*
X92889390Y-78430285D01*
X93365580Y-76906476D02*
X93365580Y-77477904D01*
X93365580Y-77192190D02*
X92365580Y-77192190D01*
X92508438Y-77287428D01*
X92603676Y-77382666D01*
X92651295Y-77477904D01*
X93365580Y-76430285D02*
X93365580Y-76239809D01*
X93317961Y-76144571D01*
X93270342Y-76096952D01*
X93127485Y-76001714D01*
X92937009Y-75954095D01*
X92556057Y-75954095D01*
X92460819Y-76001714D01*
X92413200Y-76049333D01*
X92365580Y-76144571D01*
X92365580Y-76335047D01*
X92413200Y-76430285D01*
X92460819Y-76477904D01*
X92556057Y-76525523D01*
X92794152Y-76525523D01*
X92889390Y-76477904D01*
X92937009Y-76430285D01*
X92984628Y-76335047D01*
X92984628Y-76144571D01*
X92937009Y-76049333D01*
X92889390Y-76001714D01*
X92794152Y-75954095D01*
G04 #@! TO.C,C7*
X57643733Y-91516742D02*
X57596114Y-91564361D01*
X57453257Y-91611980D01*
X57358019Y-91611980D01*
X57215161Y-91564361D01*
X57119923Y-91469123D01*
X57072304Y-91373885D01*
X57024685Y-91183409D01*
X57024685Y-91040552D01*
X57072304Y-90850076D01*
X57119923Y-90754838D01*
X57215161Y-90659600D01*
X57358019Y-90611980D01*
X57453257Y-90611980D01*
X57596114Y-90659600D01*
X57643733Y-90707219D01*
X57977066Y-90611980D02*
X58643733Y-90611980D01*
X58215161Y-91611980D01*
G04 #@! TO.C,C8*
X52797733Y-91516742D02*
X52750114Y-91564361D01*
X52607257Y-91611980D01*
X52512019Y-91611980D01*
X52369161Y-91564361D01*
X52273923Y-91469123D01*
X52226304Y-91373885D01*
X52178685Y-91183409D01*
X52178685Y-91040552D01*
X52226304Y-90850076D01*
X52273923Y-90754838D01*
X52369161Y-90659600D01*
X52512019Y-90611980D01*
X52607257Y-90611980D01*
X52750114Y-90659600D01*
X52797733Y-90707219D01*
X53369161Y-91040552D02*
X53273923Y-90992933D01*
X53226304Y-90945314D01*
X53178685Y-90850076D01*
X53178685Y-90802457D01*
X53226304Y-90707219D01*
X53273923Y-90659600D01*
X53369161Y-90611980D01*
X53559638Y-90611980D01*
X53654876Y-90659600D01*
X53702495Y-90707219D01*
X53750114Y-90802457D01*
X53750114Y-90850076D01*
X53702495Y-90945314D01*
X53654876Y-90992933D01*
X53559638Y-91040552D01*
X53369161Y-91040552D01*
X53273923Y-91088171D01*
X53226304Y-91135790D01*
X53178685Y-91231028D01*
X53178685Y-91421504D01*
X53226304Y-91516742D01*
X53273923Y-91564361D01*
X53369161Y-91611980D01*
X53559638Y-91611980D01*
X53654876Y-91564361D01*
X53702495Y-91516742D01*
X53750114Y-91421504D01*
X53750114Y-91231028D01*
X53702495Y-91135790D01*
X53654876Y-91088171D01*
X53559638Y-91040552D01*
G04 #@! TO.C,C10*
X55237142Y-113133142D02*
X55189523Y-113180761D01*
X55046666Y-113228380D01*
X54951428Y-113228380D01*
X54808571Y-113180761D01*
X54713333Y-113085523D01*
X54665714Y-112990285D01*
X54618095Y-112799809D01*
X54618095Y-112656952D01*
X54665714Y-112466476D01*
X54713333Y-112371238D01*
X54808571Y-112276000D01*
X54951428Y-112228380D01*
X55046666Y-112228380D01*
X55189523Y-112276000D01*
X55237142Y-112323619D01*
X56189523Y-113228380D02*
X55618095Y-113228380D01*
X55903809Y-113228380D02*
X55903809Y-112228380D01*
X55808571Y-112371238D01*
X55713333Y-112466476D01*
X55618095Y-112514095D01*
X56808571Y-112228380D02*
X56903809Y-112228380D01*
X56999047Y-112276000D01*
X57046666Y-112323619D01*
X57094285Y-112418857D01*
X57141904Y-112609333D01*
X57141904Y-112847428D01*
X57094285Y-113037904D01*
X57046666Y-113133142D01*
X56999047Y-113180761D01*
X56903809Y-113228380D01*
X56808571Y-113228380D01*
X56713333Y-113180761D01*
X56665714Y-113133142D01*
X56618095Y-113037904D01*
X56570476Y-112847428D01*
X56570476Y-112609333D01*
X56618095Y-112418857D01*
X56665714Y-112323619D01*
X56713333Y-112276000D01*
X56808571Y-112228380D01*
G04 #@! TO.C,C11*
X55999142Y-115165142D02*
X55951523Y-115212761D01*
X55808666Y-115260380D01*
X55713428Y-115260380D01*
X55570571Y-115212761D01*
X55475333Y-115117523D01*
X55427714Y-115022285D01*
X55380095Y-114831809D01*
X55380095Y-114688952D01*
X55427714Y-114498476D01*
X55475333Y-114403238D01*
X55570571Y-114308000D01*
X55713428Y-114260380D01*
X55808666Y-114260380D01*
X55951523Y-114308000D01*
X55999142Y-114355619D01*
X56951523Y-115260380D02*
X56380095Y-115260380D01*
X56665809Y-115260380D02*
X56665809Y-114260380D01*
X56570571Y-114403238D01*
X56475333Y-114498476D01*
X56380095Y-114546095D01*
X57903904Y-115260380D02*
X57332476Y-115260380D01*
X57618190Y-115260380D02*
X57618190Y-114260380D01*
X57522952Y-114403238D01*
X57427714Y-114498476D01*
X57332476Y-114546095D01*
G04 #@! TO.C,C12*
X55999142Y-99417142D02*
X55951523Y-99464761D01*
X55808666Y-99512380D01*
X55713428Y-99512380D01*
X55570571Y-99464761D01*
X55475333Y-99369523D01*
X55427714Y-99274285D01*
X55380095Y-99083809D01*
X55380095Y-98940952D01*
X55427714Y-98750476D01*
X55475333Y-98655238D01*
X55570571Y-98560000D01*
X55713428Y-98512380D01*
X55808666Y-98512380D01*
X55951523Y-98560000D01*
X55999142Y-98607619D01*
X56951523Y-99512380D02*
X56380095Y-99512380D01*
X56665809Y-99512380D02*
X56665809Y-98512380D01*
X56570571Y-98655238D01*
X56475333Y-98750476D01*
X56380095Y-98798095D01*
X57332476Y-98607619D02*
X57380095Y-98560000D01*
X57475333Y-98512380D01*
X57713428Y-98512380D01*
X57808666Y-98560000D01*
X57856285Y-98607619D01*
X57903904Y-98702857D01*
X57903904Y-98798095D01*
X57856285Y-98940952D01*
X57284857Y-99512380D01*
X57903904Y-99512380D01*
G04 #@! TO.C,C13*
X90781142Y-77858857D02*
X90828761Y-77906476D01*
X90876380Y-78049333D01*
X90876380Y-78144571D01*
X90828761Y-78287428D01*
X90733523Y-78382666D01*
X90638285Y-78430285D01*
X90447809Y-78477904D01*
X90304952Y-78477904D01*
X90114476Y-78430285D01*
X90019238Y-78382666D01*
X89924000Y-78287428D01*
X89876380Y-78144571D01*
X89876380Y-78049333D01*
X89924000Y-77906476D01*
X89971619Y-77858857D01*
X90876380Y-76906476D02*
X90876380Y-77477904D01*
X90876380Y-77192190D02*
X89876380Y-77192190D01*
X90019238Y-77287428D01*
X90114476Y-77382666D01*
X90162095Y-77477904D01*
X89876380Y-76573142D02*
X89876380Y-75954095D01*
X90257333Y-76287428D01*
X90257333Y-76144571D01*
X90304952Y-76049333D01*
X90352571Y-76001714D01*
X90447809Y-75954095D01*
X90685904Y-75954095D01*
X90781142Y-76001714D01*
X90828761Y-76049333D01*
X90876380Y-76144571D01*
X90876380Y-76430285D01*
X90828761Y-76525523D01*
X90781142Y-76573142D01*
G04 #@! TO.C,C14*
X55491142Y-101449142D02*
X55443523Y-101496761D01*
X55300666Y-101544380D01*
X55205428Y-101544380D01*
X55062571Y-101496761D01*
X54967333Y-101401523D01*
X54919714Y-101306285D01*
X54872095Y-101115809D01*
X54872095Y-100972952D01*
X54919714Y-100782476D01*
X54967333Y-100687238D01*
X55062571Y-100592000D01*
X55205428Y-100544380D01*
X55300666Y-100544380D01*
X55443523Y-100592000D01*
X55491142Y-100639619D01*
X56443523Y-101544380D02*
X55872095Y-101544380D01*
X56157809Y-101544380D02*
X56157809Y-100544380D01*
X56062571Y-100687238D01*
X55967333Y-100782476D01*
X55872095Y-100830095D01*
X57300666Y-100877714D02*
X57300666Y-101544380D01*
X57062571Y-100496761D02*
X56824476Y-101211047D01*
X57443523Y-101211047D01*
G04 #@! TO.C,C15*
X81907142Y-75287142D02*
X81859523Y-75334761D01*
X81716666Y-75382380D01*
X81621428Y-75382380D01*
X81478571Y-75334761D01*
X81383333Y-75239523D01*
X81335714Y-75144285D01*
X81288095Y-74953809D01*
X81288095Y-74810952D01*
X81335714Y-74620476D01*
X81383333Y-74525238D01*
X81478571Y-74430000D01*
X81621428Y-74382380D01*
X81716666Y-74382380D01*
X81859523Y-74430000D01*
X81907142Y-74477619D01*
X82859523Y-75382380D02*
X82288095Y-75382380D01*
X82573809Y-75382380D02*
X82573809Y-74382380D01*
X82478571Y-74525238D01*
X82383333Y-74620476D01*
X82288095Y-74668095D01*
X83764285Y-74382380D02*
X83288095Y-74382380D01*
X83240476Y-74858571D01*
X83288095Y-74810952D01*
X83383333Y-74763333D01*
X83621428Y-74763333D01*
X83716666Y-74810952D01*
X83764285Y-74858571D01*
X83811904Y-74953809D01*
X83811904Y-75191904D01*
X83764285Y-75287142D01*
X83716666Y-75334761D01*
X83621428Y-75382380D01*
X83383333Y-75382380D01*
X83288095Y-75334761D01*
X83240476Y-75287142D01*
G04 #@! TO.C,C16*
X81907142Y-77573142D02*
X81859523Y-77620761D01*
X81716666Y-77668380D01*
X81621428Y-77668380D01*
X81478571Y-77620761D01*
X81383333Y-77525523D01*
X81335714Y-77430285D01*
X81288095Y-77239809D01*
X81288095Y-77096952D01*
X81335714Y-76906476D01*
X81383333Y-76811238D01*
X81478571Y-76716000D01*
X81621428Y-76668380D01*
X81716666Y-76668380D01*
X81859523Y-76716000D01*
X81907142Y-76763619D01*
X82859523Y-77668380D02*
X82288095Y-77668380D01*
X82573809Y-77668380D02*
X82573809Y-76668380D01*
X82478571Y-76811238D01*
X82383333Y-76906476D01*
X82288095Y-76954095D01*
X83716666Y-76668380D02*
X83526190Y-76668380D01*
X83430952Y-76716000D01*
X83383333Y-76763619D01*
X83288095Y-76906476D01*
X83240476Y-77096952D01*
X83240476Y-77477904D01*
X83288095Y-77573142D01*
X83335714Y-77620761D01*
X83430952Y-77668380D01*
X83621428Y-77668380D01*
X83716666Y-77620761D01*
X83764285Y-77573142D01*
X83811904Y-77477904D01*
X83811904Y-77239809D01*
X83764285Y-77144571D01*
X83716666Y-77096952D01*
X83621428Y-77049333D01*
X83430952Y-77049333D01*
X83335714Y-77096952D01*
X83288095Y-77144571D01*
X83240476Y-77239809D01*
G04 #@! TO.C,R4*
X72731333Y-75636380D02*
X72398000Y-75160190D01*
X72159904Y-75636380D02*
X72159904Y-74636380D01*
X72540857Y-74636380D01*
X72636095Y-74684000D01*
X72683714Y-74731619D01*
X72731333Y-74826857D01*
X72731333Y-74969714D01*
X72683714Y-75064952D01*
X72636095Y-75112571D01*
X72540857Y-75160190D01*
X72159904Y-75160190D01*
X73588476Y-74969714D02*
X73588476Y-75636380D01*
X73350380Y-74588761D02*
X73112285Y-75303047D01*
X73731333Y-75303047D01*
G04 #@! TO.C,R5*
X72731333Y-78176380D02*
X72398000Y-77700190D01*
X72159904Y-78176380D02*
X72159904Y-77176380D01*
X72540857Y-77176380D01*
X72636095Y-77224000D01*
X72683714Y-77271619D01*
X72731333Y-77366857D01*
X72731333Y-77509714D01*
X72683714Y-77604952D01*
X72636095Y-77652571D01*
X72540857Y-77700190D01*
X72159904Y-77700190D01*
X73636095Y-77176380D02*
X73159904Y-77176380D01*
X73112285Y-77652571D01*
X73159904Y-77604952D01*
X73255142Y-77557333D01*
X73493238Y-77557333D01*
X73588476Y-77604952D01*
X73636095Y-77652571D01*
X73683714Y-77747809D01*
X73683714Y-77985904D01*
X73636095Y-78081142D01*
X73588476Y-78128761D01*
X73493238Y-78176380D01*
X73255142Y-78176380D01*
X73159904Y-78128761D01*
X73112285Y-78081142D01*
G04 #@! TO.C,R6*
X27250380Y-108370666D02*
X26774190Y-108704000D01*
X27250380Y-108942095D02*
X26250380Y-108942095D01*
X26250380Y-108561142D01*
X26298000Y-108465904D01*
X26345619Y-108418285D01*
X26440857Y-108370666D01*
X26583714Y-108370666D01*
X26678952Y-108418285D01*
X26726571Y-108465904D01*
X26774190Y-108561142D01*
X26774190Y-108942095D01*
X26250380Y-107513523D02*
X26250380Y-107704000D01*
X26298000Y-107799238D01*
X26345619Y-107846857D01*
X26488476Y-107942095D01*
X26678952Y-107989714D01*
X27059904Y-107989714D01*
X27155142Y-107942095D01*
X27202761Y-107894476D01*
X27250380Y-107799238D01*
X27250380Y-107608761D01*
X27202761Y-107513523D01*
X27155142Y-107465904D01*
X27059904Y-107418285D01*
X26821809Y-107418285D01*
X26726571Y-107465904D01*
X26678952Y-107513523D01*
X26631333Y-107608761D01*
X26631333Y-107799238D01*
X26678952Y-107894476D01*
X26726571Y-107942095D01*
X26821809Y-107989714D01*
G04 #@! TO.C,R7*
X43775333Y-110688380D02*
X43442000Y-110212190D01*
X43203904Y-110688380D02*
X43203904Y-109688380D01*
X43584857Y-109688380D01*
X43680095Y-109736000D01*
X43727714Y-109783619D01*
X43775333Y-109878857D01*
X43775333Y-110021714D01*
X43727714Y-110116952D01*
X43680095Y-110164571D01*
X43584857Y-110212190D01*
X43203904Y-110212190D01*
X44108666Y-109688380D02*
X44775333Y-109688380D01*
X44346761Y-110688380D01*
G04 #@! TO.C,R8*
X43775333Y-116022380D02*
X43442000Y-115546190D01*
X43203904Y-116022380D02*
X43203904Y-115022380D01*
X43584857Y-115022380D01*
X43680095Y-115070000D01*
X43727714Y-115117619D01*
X43775333Y-115212857D01*
X43775333Y-115355714D01*
X43727714Y-115450952D01*
X43680095Y-115498571D01*
X43584857Y-115546190D01*
X43203904Y-115546190D01*
X44346761Y-115450952D02*
X44251523Y-115403333D01*
X44203904Y-115355714D01*
X44156285Y-115260476D01*
X44156285Y-115212857D01*
X44203904Y-115117619D01*
X44251523Y-115070000D01*
X44346761Y-115022380D01*
X44537238Y-115022380D01*
X44632476Y-115070000D01*
X44680095Y-115117619D01*
X44727714Y-115212857D01*
X44727714Y-115260476D01*
X44680095Y-115355714D01*
X44632476Y-115403333D01*
X44537238Y-115450952D01*
X44346761Y-115450952D01*
X44251523Y-115498571D01*
X44203904Y-115546190D01*
X44156285Y-115641428D01*
X44156285Y-115831904D01*
X44203904Y-115927142D01*
X44251523Y-115974761D01*
X44346761Y-116022380D01*
X44537238Y-116022380D01*
X44632476Y-115974761D01*
X44680095Y-115927142D01*
X44727714Y-115831904D01*
X44727714Y-115641428D01*
X44680095Y-115546190D01*
X44632476Y-115498571D01*
X44537238Y-115450952D01*
G04 #@! TO.C,R9*
X43521333Y-104592380D02*
X43188000Y-104116190D01*
X42949904Y-104592380D02*
X42949904Y-103592380D01*
X43330857Y-103592380D01*
X43426095Y-103640000D01*
X43473714Y-103687619D01*
X43521333Y-103782857D01*
X43521333Y-103925714D01*
X43473714Y-104020952D01*
X43426095Y-104068571D01*
X43330857Y-104116190D01*
X42949904Y-104116190D01*
X43997523Y-104592380D02*
X44188000Y-104592380D01*
X44283238Y-104544761D01*
X44330857Y-104497142D01*
X44426095Y-104354285D01*
X44473714Y-104163809D01*
X44473714Y-103782857D01*
X44426095Y-103687619D01*
X44378476Y-103640000D01*
X44283238Y-103592380D01*
X44092761Y-103592380D01*
X43997523Y-103640000D01*
X43949904Y-103687619D01*
X43902285Y-103782857D01*
X43902285Y-104020952D01*
X43949904Y-104116190D01*
X43997523Y-104163809D01*
X44092761Y-104211428D01*
X44283238Y-104211428D01*
X44378476Y-104163809D01*
X44426095Y-104116190D01*
X44473714Y-104020952D01*
G04 #@! TO.C,R10*
X43553142Y-97988380D02*
X43219809Y-97512190D01*
X42981714Y-97988380D02*
X42981714Y-96988380D01*
X43362666Y-96988380D01*
X43457904Y-97036000D01*
X43505523Y-97083619D01*
X43553142Y-97178857D01*
X43553142Y-97321714D01*
X43505523Y-97416952D01*
X43457904Y-97464571D01*
X43362666Y-97512190D01*
X42981714Y-97512190D01*
X44505523Y-97988380D02*
X43934095Y-97988380D01*
X44219809Y-97988380D02*
X44219809Y-96988380D01*
X44124571Y-97131238D01*
X44029333Y-97226476D01*
X43934095Y-97274095D01*
X45124571Y-96988380D02*
X45219809Y-96988380D01*
X45315047Y-97036000D01*
X45362666Y-97083619D01*
X45410285Y-97178857D01*
X45457904Y-97369333D01*
X45457904Y-97607428D01*
X45410285Y-97797904D01*
X45362666Y-97893142D01*
X45315047Y-97940761D01*
X45219809Y-97988380D01*
X45124571Y-97988380D01*
X45029333Y-97940761D01*
X44981714Y-97893142D01*
X44934095Y-97797904D01*
X44886476Y-97607428D01*
X44886476Y-97369333D01*
X44934095Y-97178857D01*
X44981714Y-97083619D01*
X45029333Y-97036000D01*
X45124571Y-96988380D01*
G04 #@! TO.C,R11*
X71747142Y-95956380D02*
X71413809Y-95480190D01*
X71175714Y-95956380D02*
X71175714Y-94956380D01*
X71556666Y-94956380D01*
X71651904Y-95004000D01*
X71699523Y-95051619D01*
X71747142Y-95146857D01*
X71747142Y-95289714D01*
X71699523Y-95384952D01*
X71651904Y-95432571D01*
X71556666Y-95480190D01*
X71175714Y-95480190D01*
X72699523Y-95956380D02*
X72128095Y-95956380D01*
X72413809Y-95956380D02*
X72413809Y-94956380D01*
X72318571Y-95099238D01*
X72223333Y-95194476D01*
X72128095Y-95242095D01*
X73651904Y-95956380D02*
X73080476Y-95956380D01*
X73366190Y-95956380D02*
X73366190Y-94956380D01*
X73270952Y-95099238D01*
X73175714Y-95194476D01*
X73080476Y-95242095D01*
G04 #@! TO.C,R12*
X23868142Y-65730380D02*
X23534809Y-65254190D01*
X23296714Y-65730380D02*
X23296714Y-64730380D01*
X23677666Y-64730380D01*
X23772904Y-64778000D01*
X23820523Y-64825619D01*
X23868142Y-64920857D01*
X23868142Y-65063714D01*
X23820523Y-65158952D01*
X23772904Y-65206571D01*
X23677666Y-65254190D01*
X23296714Y-65254190D01*
X24820523Y-65730380D02*
X24249095Y-65730380D01*
X24534809Y-65730380D02*
X24534809Y-64730380D01*
X24439571Y-64873238D01*
X24344333Y-64968476D01*
X24249095Y-65016095D01*
X25201476Y-64825619D02*
X25249095Y-64778000D01*
X25344333Y-64730380D01*
X25582428Y-64730380D01*
X25677666Y-64778000D01*
X25725285Y-64825619D01*
X25772904Y-64920857D01*
X25772904Y-65016095D01*
X25725285Y-65158952D01*
X25153857Y-65730380D01*
X25772904Y-65730380D01*
G04 #@! TO.C,R13*
X22931380Y-71889857D02*
X22455190Y-72223190D01*
X22931380Y-72461285D02*
X21931380Y-72461285D01*
X21931380Y-72080333D01*
X21979000Y-71985095D01*
X22026619Y-71937476D01*
X22121857Y-71889857D01*
X22264714Y-71889857D01*
X22359952Y-71937476D01*
X22407571Y-71985095D01*
X22455190Y-72080333D01*
X22455190Y-72461285D01*
X22931380Y-70937476D02*
X22931380Y-71508904D01*
X22931380Y-71223190D02*
X21931380Y-71223190D01*
X22074238Y-71318428D01*
X22169476Y-71413666D01*
X22217095Y-71508904D01*
X21931380Y-70604142D02*
X21931380Y-69985095D01*
X22312333Y-70318428D01*
X22312333Y-70175571D01*
X22359952Y-70080333D01*
X22407571Y-70032714D01*
X22502809Y-69985095D01*
X22740904Y-69985095D01*
X22836142Y-70032714D01*
X22883761Y-70080333D01*
X22931380Y-70175571D01*
X22931380Y-70461285D01*
X22883761Y-70556523D01*
X22836142Y-70604142D01*
G04 #@! TO.C,R14*
X71747142Y-93416380D02*
X71413809Y-92940190D01*
X71175714Y-93416380D02*
X71175714Y-92416380D01*
X71556666Y-92416380D01*
X71651904Y-92464000D01*
X71699523Y-92511619D01*
X71747142Y-92606857D01*
X71747142Y-92749714D01*
X71699523Y-92844952D01*
X71651904Y-92892571D01*
X71556666Y-92940190D01*
X71175714Y-92940190D01*
X72699523Y-93416380D02*
X72128095Y-93416380D01*
X72413809Y-93416380D02*
X72413809Y-92416380D01*
X72318571Y-92559238D01*
X72223333Y-92654476D01*
X72128095Y-92702095D01*
X73556666Y-92749714D02*
X73556666Y-93416380D01*
X73318571Y-92368761D02*
X73080476Y-93083047D01*
X73699523Y-93083047D01*
G04 #@! TO.C,R15*
X71747142Y-90876380D02*
X71413809Y-90400190D01*
X71175714Y-90876380D02*
X71175714Y-89876380D01*
X71556666Y-89876380D01*
X71651904Y-89924000D01*
X71699523Y-89971619D01*
X71747142Y-90066857D01*
X71747142Y-90209714D01*
X71699523Y-90304952D01*
X71651904Y-90352571D01*
X71556666Y-90400190D01*
X71175714Y-90400190D01*
X72699523Y-90876380D02*
X72128095Y-90876380D01*
X72413809Y-90876380D02*
X72413809Y-89876380D01*
X72318571Y-90019238D01*
X72223333Y-90114476D01*
X72128095Y-90162095D01*
X73604285Y-89876380D02*
X73128095Y-89876380D01*
X73080476Y-90352571D01*
X73128095Y-90304952D01*
X73223333Y-90257333D01*
X73461428Y-90257333D01*
X73556666Y-90304952D01*
X73604285Y-90352571D01*
X73651904Y-90447809D01*
X73651904Y-90685904D01*
X73604285Y-90781142D01*
X73556666Y-90828761D01*
X73461428Y-90876380D01*
X73223333Y-90876380D01*
X73128095Y-90828761D01*
X73080476Y-90781142D01*
G04 #@! TO.C,R16*
X71747142Y-88336380D02*
X71413809Y-87860190D01*
X71175714Y-88336380D02*
X71175714Y-87336380D01*
X71556666Y-87336380D01*
X71651904Y-87384000D01*
X71699523Y-87431619D01*
X71747142Y-87526857D01*
X71747142Y-87669714D01*
X71699523Y-87764952D01*
X71651904Y-87812571D01*
X71556666Y-87860190D01*
X71175714Y-87860190D01*
X72699523Y-88336380D02*
X72128095Y-88336380D01*
X72413809Y-88336380D02*
X72413809Y-87336380D01*
X72318571Y-87479238D01*
X72223333Y-87574476D01*
X72128095Y-87622095D01*
X73556666Y-87336380D02*
X73366190Y-87336380D01*
X73270952Y-87384000D01*
X73223333Y-87431619D01*
X73128095Y-87574476D01*
X73080476Y-87764952D01*
X73080476Y-88145904D01*
X73128095Y-88241142D01*
X73175714Y-88288761D01*
X73270952Y-88336380D01*
X73461428Y-88336380D01*
X73556666Y-88288761D01*
X73604285Y-88241142D01*
X73651904Y-88145904D01*
X73651904Y-87907809D01*
X73604285Y-87812571D01*
X73556666Y-87764952D01*
X73461428Y-87717333D01*
X73270952Y-87717333D01*
X73175714Y-87764952D01*
X73128095Y-87812571D01*
X73080476Y-87907809D01*
G04 #@! TO.C,R17*
X43632380Y-74302857D02*
X43156190Y-74636190D01*
X43632380Y-74874285D02*
X42632380Y-74874285D01*
X42632380Y-74493333D01*
X42680000Y-74398095D01*
X42727619Y-74350476D01*
X42822857Y-74302857D01*
X42965714Y-74302857D01*
X43060952Y-74350476D01*
X43108571Y-74398095D01*
X43156190Y-74493333D01*
X43156190Y-74874285D01*
X43632380Y-73350476D02*
X43632380Y-73921904D01*
X43632380Y-73636190D02*
X42632380Y-73636190D01*
X42775238Y-73731428D01*
X42870476Y-73826666D01*
X42918095Y-73921904D01*
X42632380Y-73017142D02*
X42632380Y-72350476D01*
X43632380Y-72779047D01*
G04 #@! TO.C,R18*
X41600380Y-74048857D02*
X41124190Y-74382190D01*
X41600380Y-74620285D02*
X40600380Y-74620285D01*
X40600380Y-74239333D01*
X40648000Y-74144095D01*
X40695619Y-74096476D01*
X40790857Y-74048857D01*
X40933714Y-74048857D01*
X41028952Y-74096476D01*
X41076571Y-74144095D01*
X41124190Y-74239333D01*
X41124190Y-74620285D01*
X41600380Y-73096476D02*
X41600380Y-73667904D01*
X41600380Y-73382190D02*
X40600380Y-73382190D01*
X40743238Y-73477428D01*
X40838476Y-73572666D01*
X40886095Y-73667904D01*
X41028952Y-72525047D02*
X40981333Y-72620285D01*
X40933714Y-72667904D01*
X40838476Y-72715523D01*
X40790857Y-72715523D01*
X40695619Y-72667904D01*
X40648000Y-72620285D01*
X40600380Y-72525047D01*
X40600380Y-72334571D01*
X40648000Y-72239333D01*
X40695619Y-72191714D01*
X40790857Y-72144095D01*
X40838476Y-72144095D01*
X40933714Y-72191714D01*
X40981333Y-72239333D01*
X41028952Y-72334571D01*
X41028952Y-72525047D01*
X41076571Y-72620285D01*
X41124190Y-72667904D01*
X41219428Y-72715523D01*
X41409904Y-72715523D01*
X41505142Y-72667904D01*
X41552761Y-72620285D01*
X41600380Y-72525047D01*
X41600380Y-72334571D01*
X41552761Y-72239333D01*
X41505142Y-72191714D01*
X41409904Y-72144095D01*
X41219428Y-72144095D01*
X41124190Y-72191714D01*
X41076571Y-72239333D01*
X41028952Y-72334571D01*
G04 #@! TO.C,R20*
X71747142Y-102560380D02*
X71413809Y-102084190D01*
X71175714Y-102560380D02*
X71175714Y-101560380D01*
X71556666Y-101560380D01*
X71651904Y-101608000D01*
X71699523Y-101655619D01*
X71747142Y-101750857D01*
X71747142Y-101893714D01*
X71699523Y-101988952D01*
X71651904Y-102036571D01*
X71556666Y-102084190D01*
X71175714Y-102084190D01*
X72128095Y-101655619D02*
X72175714Y-101608000D01*
X72270952Y-101560380D01*
X72509047Y-101560380D01*
X72604285Y-101608000D01*
X72651904Y-101655619D01*
X72699523Y-101750857D01*
X72699523Y-101846095D01*
X72651904Y-101988952D01*
X72080476Y-102560380D01*
X72699523Y-102560380D01*
X73318571Y-101560380D02*
X73413809Y-101560380D01*
X73509047Y-101608000D01*
X73556666Y-101655619D01*
X73604285Y-101750857D01*
X73651904Y-101941333D01*
X73651904Y-102179428D01*
X73604285Y-102369904D01*
X73556666Y-102465142D01*
X73509047Y-102512761D01*
X73413809Y-102560380D01*
X73318571Y-102560380D01*
X73223333Y-102512761D01*
X73175714Y-102465142D01*
X73128095Y-102369904D01*
X73080476Y-102179428D01*
X73080476Y-101941333D01*
X73128095Y-101750857D01*
X73175714Y-101655619D01*
X73223333Y-101608000D01*
X73318571Y-101560380D01*
G04 #@! TO.C,R21*
X95448380Y-77858857D02*
X94972190Y-78192190D01*
X95448380Y-78430285D02*
X94448380Y-78430285D01*
X94448380Y-78049333D01*
X94496000Y-77954095D01*
X94543619Y-77906476D01*
X94638857Y-77858857D01*
X94781714Y-77858857D01*
X94876952Y-77906476D01*
X94924571Y-77954095D01*
X94972190Y-78049333D01*
X94972190Y-78430285D01*
X94543619Y-77477904D02*
X94496000Y-77430285D01*
X94448380Y-77335047D01*
X94448380Y-77096952D01*
X94496000Y-77001714D01*
X94543619Y-76954095D01*
X94638857Y-76906476D01*
X94734095Y-76906476D01*
X94876952Y-76954095D01*
X95448380Y-77525523D01*
X95448380Y-76906476D01*
X95448380Y-75954095D02*
X95448380Y-76525523D01*
X95448380Y-76239809D02*
X94448380Y-76239809D01*
X94591238Y-76335047D01*
X94686476Y-76430285D01*
X94734095Y-76525523D01*
G04 #@! TO.C,R22*
X71747142Y-98496380D02*
X71413809Y-98020190D01*
X71175714Y-98496380D02*
X71175714Y-97496380D01*
X71556666Y-97496380D01*
X71651904Y-97544000D01*
X71699523Y-97591619D01*
X71747142Y-97686857D01*
X71747142Y-97829714D01*
X71699523Y-97924952D01*
X71651904Y-97972571D01*
X71556666Y-98020190D01*
X71175714Y-98020190D01*
X72128095Y-97591619D02*
X72175714Y-97544000D01*
X72270952Y-97496380D01*
X72509047Y-97496380D01*
X72604285Y-97544000D01*
X72651904Y-97591619D01*
X72699523Y-97686857D01*
X72699523Y-97782095D01*
X72651904Y-97924952D01*
X72080476Y-98496380D01*
X72699523Y-98496380D01*
X73080476Y-97591619D02*
X73128095Y-97544000D01*
X73223333Y-97496380D01*
X73461428Y-97496380D01*
X73556666Y-97544000D01*
X73604285Y-97591619D01*
X73651904Y-97686857D01*
X73651904Y-97782095D01*
X73604285Y-97924952D01*
X73032857Y-98496380D01*
X73651904Y-98496380D01*
G04 #@! TO.C,R26*
X43553142Y-100274380D02*
X43219809Y-99798190D01*
X42981714Y-100274380D02*
X42981714Y-99274380D01*
X43362666Y-99274380D01*
X43457904Y-99322000D01*
X43505523Y-99369619D01*
X43553142Y-99464857D01*
X43553142Y-99607714D01*
X43505523Y-99702952D01*
X43457904Y-99750571D01*
X43362666Y-99798190D01*
X42981714Y-99798190D01*
X43934095Y-99369619D02*
X43981714Y-99322000D01*
X44076952Y-99274380D01*
X44315047Y-99274380D01*
X44410285Y-99322000D01*
X44457904Y-99369619D01*
X44505523Y-99464857D01*
X44505523Y-99560095D01*
X44457904Y-99702952D01*
X43886476Y-100274380D01*
X44505523Y-100274380D01*
X45362666Y-99274380D02*
X45172190Y-99274380D01*
X45076952Y-99322000D01*
X45029333Y-99369619D01*
X44934095Y-99512476D01*
X44886476Y-99702952D01*
X44886476Y-100083904D01*
X44934095Y-100179142D01*
X44981714Y-100226761D01*
X45076952Y-100274380D01*
X45267428Y-100274380D01*
X45362666Y-100226761D01*
X45410285Y-100179142D01*
X45457904Y-100083904D01*
X45457904Y-99845809D01*
X45410285Y-99750571D01*
X45362666Y-99702952D01*
X45267428Y-99655333D01*
X45076952Y-99655333D01*
X44981714Y-99702952D01*
X44934095Y-99750571D01*
X44886476Y-99845809D01*
G04 #@! TO.C,R27*
X93924380Y-52204857D02*
X93448190Y-52538190D01*
X93924380Y-52776285D02*
X92924380Y-52776285D01*
X92924380Y-52395333D01*
X92972000Y-52300095D01*
X93019619Y-52252476D01*
X93114857Y-52204857D01*
X93257714Y-52204857D01*
X93352952Y-52252476D01*
X93400571Y-52300095D01*
X93448190Y-52395333D01*
X93448190Y-52776285D01*
X93019619Y-51823904D02*
X92972000Y-51776285D01*
X92924380Y-51681047D01*
X92924380Y-51442952D01*
X92972000Y-51347714D01*
X93019619Y-51300095D01*
X93114857Y-51252476D01*
X93210095Y-51252476D01*
X93352952Y-51300095D01*
X93924380Y-51871523D01*
X93924380Y-51252476D01*
X92924380Y-50919142D02*
X92924380Y-50252476D01*
X93924380Y-50681047D01*
G04 #@! TO.C,R29*
X74049920Y-66746380D02*
X73716587Y-66270190D01*
X73478492Y-66746380D02*
X73478492Y-65746380D01*
X73859444Y-65746380D01*
X73954682Y-65794000D01*
X74002301Y-65841619D01*
X74049920Y-65936857D01*
X74049920Y-66079714D01*
X74002301Y-66174952D01*
X73954682Y-66222571D01*
X73859444Y-66270190D01*
X73478492Y-66270190D01*
X74430873Y-65841619D02*
X74478492Y-65794000D01*
X74573730Y-65746380D01*
X74811825Y-65746380D01*
X74907063Y-65794000D01*
X74954682Y-65841619D01*
X75002301Y-65936857D01*
X75002301Y-66032095D01*
X74954682Y-66174952D01*
X74383254Y-66746380D01*
X75002301Y-66746380D01*
X75478492Y-66746380D02*
X75668968Y-66746380D01*
X75764206Y-66698761D01*
X75811825Y-66651142D01*
X75907063Y-66508285D01*
X75954682Y-66317809D01*
X75954682Y-65936857D01*
X75907063Y-65841619D01*
X75859444Y-65794000D01*
X75764206Y-65746380D01*
X75573730Y-65746380D01*
X75478492Y-65794000D01*
X75430873Y-65841619D01*
X75383254Y-65936857D01*
X75383254Y-66174952D01*
X75430873Y-66270190D01*
X75478492Y-66317809D01*
X75573730Y-66365428D01*
X75764206Y-66365428D01*
X75859444Y-66317809D01*
X75907063Y-66270190D01*
X75954682Y-66174952D01*
G04 #@! TO.C,R31*
X64968380Y-113164857D02*
X64492190Y-113498190D01*
X64968380Y-113736285D02*
X63968380Y-113736285D01*
X63968380Y-113355333D01*
X64016000Y-113260095D01*
X64063619Y-113212476D01*
X64158857Y-113164857D01*
X64301714Y-113164857D01*
X64396952Y-113212476D01*
X64444571Y-113260095D01*
X64492190Y-113355333D01*
X64492190Y-113736285D01*
X63968380Y-112831523D02*
X63968380Y-112212476D01*
X64349333Y-112545809D01*
X64349333Y-112402952D01*
X64396952Y-112307714D01*
X64444571Y-112260095D01*
X64539809Y-112212476D01*
X64777904Y-112212476D01*
X64873142Y-112260095D01*
X64920761Y-112307714D01*
X64968380Y-112402952D01*
X64968380Y-112688666D01*
X64920761Y-112783904D01*
X64873142Y-112831523D01*
X64968380Y-111260095D02*
X64968380Y-111831523D01*
X64968380Y-111545809D02*
X63968380Y-111545809D01*
X64111238Y-111641047D01*
X64206476Y-111736285D01*
X64254095Y-111831523D01*
G04 #@! TO.C,R32*
X43553142Y-106878380D02*
X43219809Y-106402190D01*
X42981714Y-106878380D02*
X42981714Y-105878380D01*
X43362666Y-105878380D01*
X43457904Y-105926000D01*
X43505523Y-105973619D01*
X43553142Y-106068857D01*
X43553142Y-106211714D01*
X43505523Y-106306952D01*
X43457904Y-106354571D01*
X43362666Y-106402190D01*
X42981714Y-106402190D01*
X43886476Y-105878380D02*
X44505523Y-105878380D01*
X44172190Y-106259333D01*
X44315047Y-106259333D01*
X44410285Y-106306952D01*
X44457904Y-106354571D01*
X44505523Y-106449809D01*
X44505523Y-106687904D01*
X44457904Y-106783142D01*
X44410285Y-106830761D01*
X44315047Y-106878380D01*
X44029333Y-106878380D01*
X43934095Y-106830761D01*
X43886476Y-106783142D01*
X44886476Y-105973619D02*
X44934095Y-105926000D01*
X45029333Y-105878380D01*
X45267428Y-105878380D01*
X45362666Y-105926000D01*
X45410285Y-105973619D01*
X45457904Y-106068857D01*
X45457904Y-106164095D01*
X45410285Y-106306952D01*
X44838857Y-106878380D01*
X45457904Y-106878380D01*
G04 #@! TO.C,R35*
X162250380Y-99194857D02*
X161774190Y-99528190D01*
X162250380Y-99766285D02*
X161250380Y-99766285D01*
X161250380Y-99385333D01*
X161298000Y-99290095D01*
X161345619Y-99242476D01*
X161440857Y-99194857D01*
X161583714Y-99194857D01*
X161678952Y-99242476D01*
X161726571Y-99290095D01*
X161774190Y-99385333D01*
X161774190Y-99766285D01*
X161250380Y-98861523D02*
X161250380Y-98242476D01*
X161631333Y-98575809D01*
X161631333Y-98432952D01*
X161678952Y-98337714D01*
X161726571Y-98290095D01*
X161821809Y-98242476D01*
X162059904Y-98242476D01*
X162155142Y-98290095D01*
X162202761Y-98337714D01*
X162250380Y-98432952D01*
X162250380Y-98718666D01*
X162202761Y-98813904D01*
X162155142Y-98861523D01*
X161250380Y-97337714D02*
X161250380Y-97813904D01*
X161726571Y-97861523D01*
X161678952Y-97813904D01*
X161631333Y-97718666D01*
X161631333Y-97480571D01*
X161678952Y-97385333D01*
X161726571Y-97337714D01*
X161821809Y-97290095D01*
X162059904Y-97290095D01*
X162155142Y-97337714D01*
X162202761Y-97385333D01*
X162250380Y-97480571D01*
X162250380Y-97718666D01*
X162202761Y-97813904D01*
X162155142Y-97861523D01*
G04 #@! TO.C,R36*
X131770380Y-99194857D02*
X131294190Y-99528190D01*
X131770380Y-99766285D02*
X130770380Y-99766285D01*
X130770380Y-99385333D01*
X130818000Y-99290095D01*
X130865619Y-99242476D01*
X130960857Y-99194857D01*
X131103714Y-99194857D01*
X131198952Y-99242476D01*
X131246571Y-99290095D01*
X131294190Y-99385333D01*
X131294190Y-99766285D01*
X130770380Y-98861523D02*
X130770380Y-98242476D01*
X131151333Y-98575809D01*
X131151333Y-98432952D01*
X131198952Y-98337714D01*
X131246571Y-98290095D01*
X131341809Y-98242476D01*
X131579904Y-98242476D01*
X131675142Y-98290095D01*
X131722761Y-98337714D01*
X131770380Y-98432952D01*
X131770380Y-98718666D01*
X131722761Y-98813904D01*
X131675142Y-98861523D01*
X130770380Y-97385333D02*
X130770380Y-97575809D01*
X130818000Y-97671047D01*
X130865619Y-97718666D01*
X131008476Y-97813904D01*
X131198952Y-97861523D01*
X131579904Y-97861523D01*
X131675142Y-97813904D01*
X131722761Y-97766285D01*
X131770380Y-97671047D01*
X131770380Y-97480571D01*
X131722761Y-97385333D01*
X131675142Y-97337714D01*
X131579904Y-97290095D01*
X131341809Y-97290095D01*
X131246571Y-97337714D01*
X131198952Y-97385333D01*
X131151333Y-97480571D01*
X131151333Y-97671047D01*
X131198952Y-97766285D01*
X131246571Y-97813904D01*
X131341809Y-97861523D01*
G04 #@! TO.C,R37*
X116530380Y-99194857D02*
X116054190Y-99528190D01*
X116530380Y-99766285D02*
X115530380Y-99766285D01*
X115530380Y-99385333D01*
X115578000Y-99290095D01*
X115625619Y-99242476D01*
X115720857Y-99194857D01*
X115863714Y-99194857D01*
X115958952Y-99242476D01*
X116006571Y-99290095D01*
X116054190Y-99385333D01*
X116054190Y-99766285D01*
X115530380Y-98861523D02*
X115530380Y-98242476D01*
X115911333Y-98575809D01*
X115911333Y-98432952D01*
X115958952Y-98337714D01*
X116006571Y-98290095D01*
X116101809Y-98242476D01*
X116339904Y-98242476D01*
X116435142Y-98290095D01*
X116482761Y-98337714D01*
X116530380Y-98432952D01*
X116530380Y-98718666D01*
X116482761Y-98813904D01*
X116435142Y-98861523D01*
X115530380Y-97909142D02*
X115530380Y-97242476D01*
X116530380Y-97671047D01*
G04 #@! TO.C,R38*
X101290380Y-99194857D02*
X100814190Y-99528190D01*
X101290380Y-99766285D02*
X100290380Y-99766285D01*
X100290380Y-99385333D01*
X100338000Y-99290095D01*
X100385619Y-99242476D01*
X100480857Y-99194857D01*
X100623714Y-99194857D01*
X100718952Y-99242476D01*
X100766571Y-99290095D01*
X100814190Y-99385333D01*
X100814190Y-99766285D01*
X100290380Y-98861523D02*
X100290380Y-98242476D01*
X100671333Y-98575809D01*
X100671333Y-98432952D01*
X100718952Y-98337714D01*
X100766571Y-98290095D01*
X100861809Y-98242476D01*
X101099904Y-98242476D01*
X101195142Y-98290095D01*
X101242761Y-98337714D01*
X101290380Y-98432952D01*
X101290380Y-98718666D01*
X101242761Y-98813904D01*
X101195142Y-98861523D01*
X100718952Y-97671047D02*
X100671333Y-97766285D01*
X100623714Y-97813904D01*
X100528476Y-97861523D01*
X100480857Y-97861523D01*
X100385619Y-97813904D01*
X100338000Y-97766285D01*
X100290380Y-97671047D01*
X100290380Y-97480571D01*
X100338000Y-97385333D01*
X100385619Y-97337714D01*
X100480857Y-97290095D01*
X100528476Y-97290095D01*
X100623714Y-97337714D01*
X100671333Y-97385333D01*
X100718952Y-97480571D01*
X100718952Y-97671047D01*
X100766571Y-97766285D01*
X100814190Y-97813904D01*
X100909428Y-97861523D01*
X101099904Y-97861523D01*
X101195142Y-97813904D01*
X101242761Y-97766285D01*
X101290380Y-97671047D01*
X101290380Y-97480571D01*
X101242761Y-97385333D01*
X101195142Y-97337714D01*
X101099904Y-97290095D01*
X100909428Y-97290095D01*
X100814190Y-97337714D01*
X100766571Y-97385333D01*
X100718952Y-97480571D01*
G04 #@! TO.C,R39*
X147010380Y-99194857D02*
X146534190Y-99528190D01*
X147010380Y-99766285D02*
X146010380Y-99766285D01*
X146010380Y-99385333D01*
X146058000Y-99290095D01*
X146105619Y-99242476D01*
X146200857Y-99194857D01*
X146343714Y-99194857D01*
X146438952Y-99242476D01*
X146486571Y-99290095D01*
X146534190Y-99385333D01*
X146534190Y-99766285D01*
X146010380Y-98861523D02*
X146010380Y-98242476D01*
X146391333Y-98575809D01*
X146391333Y-98432952D01*
X146438952Y-98337714D01*
X146486571Y-98290095D01*
X146581809Y-98242476D01*
X146819904Y-98242476D01*
X146915142Y-98290095D01*
X146962761Y-98337714D01*
X147010380Y-98432952D01*
X147010380Y-98718666D01*
X146962761Y-98813904D01*
X146915142Y-98861523D01*
X147010380Y-97766285D02*
X147010380Y-97575809D01*
X146962761Y-97480571D01*
X146915142Y-97432952D01*
X146772285Y-97337714D01*
X146581809Y-97290095D01*
X146200857Y-97290095D01*
X146105619Y-97337714D01*
X146058000Y-97385333D01*
X146010380Y-97480571D01*
X146010380Y-97671047D01*
X146058000Y-97766285D01*
X146105619Y-97813904D01*
X146200857Y-97861523D01*
X146438952Y-97861523D01*
X146534190Y-97813904D01*
X146581809Y-97766285D01*
X146629428Y-97671047D01*
X146629428Y-97480571D01*
X146581809Y-97385333D01*
X146534190Y-97337714D01*
X146438952Y-97290095D01*
G04 #@! TO.C,C17*
X34409142Y-77319142D02*
X34361523Y-77366761D01*
X34218666Y-77414380D01*
X34123428Y-77414380D01*
X33980571Y-77366761D01*
X33885333Y-77271523D01*
X33837714Y-77176285D01*
X33790095Y-76985809D01*
X33790095Y-76842952D01*
X33837714Y-76652476D01*
X33885333Y-76557238D01*
X33980571Y-76462000D01*
X34123428Y-76414380D01*
X34218666Y-76414380D01*
X34361523Y-76462000D01*
X34409142Y-76509619D01*
X35361523Y-77414380D02*
X34790095Y-77414380D01*
X35075809Y-77414380D02*
X35075809Y-76414380D01*
X34980571Y-76557238D01*
X34885333Y-76652476D01*
X34790095Y-76700095D01*
X35694857Y-76414380D02*
X36361523Y-76414380D01*
X35932952Y-77414380D01*
G04 #@! TO.C,C18*
X37187142Y-75191857D02*
X37234761Y-75239476D01*
X37282380Y-75382333D01*
X37282380Y-75477571D01*
X37234761Y-75620428D01*
X37139523Y-75715666D01*
X37044285Y-75763285D01*
X36853809Y-75810904D01*
X36710952Y-75810904D01*
X36520476Y-75763285D01*
X36425238Y-75715666D01*
X36330000Y-75620428D01*
X36282380Y-75477571D01*
X36282380Y-75382333D01*
X36330000Y-75239476D01*
X36377619Y-75191857D01*
X37282380Y-74239476D02*
X37282380Y-74810904D01*
X37282380Y-74525190D02*
X36282380Y-74525190D01*
X36425238Y-74620428D01*
X36520476Y-74715666D01*
X36568095Y-74810904D01*
X36710952Y-73668047D02*
X36663333Y-73763285D01*
X36615714Y-73810904D01*
X36520476Y-73858523D01*
X36472857Y-73858523D01*
X36377619Y-73810904D01*
X36330000Y-73763285D01*
X36282380Y-73668047D01*
X36282380Y-73477571D01*
X36330000Y-73382333D01*
X36377619Y-73334714D01*
X36472857Y-73287095D01*
X36520476Y-73287095D01*
X36615714Y-73334714D01*
X36663333Y-73382333D01*
X36710952Y-73477571D01*
X36710952Y-73668047D01*
X36758571Y-73763285D01*
X36806190Y-73810904D01*
X36901428Y-73858523D01*
X37091904Y-73858523D01*
X37187142Y-73810904D01*
X37234761Y-73763285D01*
X37282380Y-73668047D01*
X37282380Y-73477571D01*
X37234761Y-73382333D01*
X37187142Y-73334714D01*
X37091904Y-73287095D01*
X36901428Y-73287095D01*
X36806190Y-73334714D01*
X36758571Y-73382333D01*
X36710952Y-73477571D01*
G04 #@! TO.C,J4*
X64984380Y-63833333D02*
X65698666Y-63833333D01*
X65841523Y-63880952D01*
X65936761Y-63976190D01*
X65984380Y-64119047D01*
X65984380Y-64214285D01*
X65317714Y-62928571D02*
X65984380Y-62928571D01*
X64936761Y-63166666D02*
X65651047Y-63404761D01*
X65651047Y-62785714D01*
G04 #@! TO.C,J5*
X76541380Y-63833333D02*
X77255666Y-63833333D01*
X77398523Y-63880952D01*
X77493761Y-63976190D01*
X77541380Y-64119047D01*
X77541380Y-64214285D01*
X76541380Y-62880952D02*
X76541380Y-63357142D01*
X77017571Y-63404761D01*
X76969952Y-63357142D01*
X76922333Y-63261904D01*
X76922333Y-63023809D01*
X76969952Y-62928571D01*
X77017571Y-62880952D01*
X77112809Y-62833333D01*
X77350904Y-62833333D01*
X77446142Y-62880952D01*
X77493761Y-62928571D01*
X77541380Y-63023809D01*
X77541380Y-63261904D01*
X77493761Y-63357142D01*
X77446142Y-63404761D01*
G04 #@! TO.C,R23*
X33393142Y-75382380D02*
X33059809Y-74906190D01*
X32821714Y-75382380D02*
X32821714Y-74382380D01*
X33202666Y-74382380D01*
X33297904Y-74430000D01*
X33345523Y-74477619D01*
X33393142Y-74572857D01*
X33393142Y-74715714D01*
X33345523Y-74810952D01*
X33297904Y-74858571D01*
X33202666Y-74906190D01*
X32821714Y-74906190D01*
X33774095Y-74477619D02*
X33821714Y-74430000D01*
X33916952Y-74382380D01*
X34155047Y-74382380D01*
X34250285Y-74430000D01*
X34297904Y-74477619D01*
X34345523Y-74572857D01*
X34345523Y-74668095D01*
X34297904Y-74810952D01*
X33726476Y-75382380D01*
X34345523Y-75382380D01*
X34678857Y-74382380D02*
X35297904Y-74382380D01*
X34964571Y-74763333D01*
X35107428Y-74763333D01*
X35202666Y-74810952D01*
X35250285Y-74858571D01*
X35297904Y-74953809D01*
X35297904Y-75191904D01*
X35250285Y-75287142D01*
X35202666Y-75334761D01*
X35107428Y-75382380D01*
X34821714Y-75382380D01*
X34726476Y-75334761D01*
X34678857Y-75287142D01*
G04 #@! TO.C,R24*
X39517580Y-74048857D02*
X39041390Y-74382190D01*
X39517580Y-74620285D02*
X38517580Y-74620285D01*
X38517580Y-74239333D01*
X38565200Y-74144095D01*
X38612819Y-74096476D01*
X38708057Y-74048857D01*
X38850914Y-74048857D01*
X38946152Y-74096476D01*
X38993771Y-74144095D01*
X39041390Y-74239333D01*
X39041390Y-74620285D01*
X38612819Y-73667904D02*
X38565200Y-73620285D01*
X38517580Y-73525047D01*
X38517580Y-73286952D01*
X38565200Y-73191714D01*
X38612819Y-73144095D01*
X38708057Y-73096476D01*
X38803295Y-73096476D01*
X38946152Y-73144095D01*
X39517580Y-73715523D01*
X39517580Y-73096476D01*
X38850914Y-72239333D02*
X39517580Y-72239333D01*
X38469961Y-72477428D02*
X39184247Y-72715523D01*
X39184247Y-72096476D01*
G04 #@! TD*
M02*
