M48
;DRILL file {KiCad 5.0.0-fee4fd1~66~ubuntu16.04.1} date Fri Sep 28 16:25:50 2018
;FORMAT={-:-/ absolute / inch / decimal}
FMAT,2
INCH,TZ
T1C0.0120
T2C0.0236
T3C0.0300
T4C0.0315
T5C0.0320
T6C0.0350
T7C0.0366
T8C0.0394
T9C0.0400
T10C0.0433
T11C0.0461
T12C0.0591
T13C0.0748
T14C0.1063
T15C0.1280
%
G90
G05
M72
T1
X0.888Y-2.771
X1.278Y-3.101
X1.295Y-2.969
X1.38Y-3.78
X1.46Y-2.896
X1.54Y-4.64
X1.55Y-4.195
X1.574Y-4.599
X1.577Y-4.326
X1.62Y-2.856
X1.799Y-4.34
X1.818Y-4.015
X1.868Y-2.702
X1.9583Y-2.6128
X1.96Y-4.011
X1.9848Y-2.5857
X1.997Y-2.744
X2.0129Y-2.5604
X2.038Y-2.532
X2.042Y-2.7
X2.0461Y-2.4945
X2.069Y-2.6696
X2.0739Y-2.4677
X2.0949Y-2.6421
X2.1217Y-2.6153
X2.149Y-2.589
X2.181Y-3.47
X2.188Y-2.583
X2.27Y-4.25
X2.29Y-4.74
X2.292Y-4.689
X2.324Y-3.299
X2.459Y-2.588
X2.459Y-4.689
X2.46Y-4.74
X2.476Y-2.472
X2.507Y-2.567
X2.53Y-2.47
X2.541Y-4.422
X2.575Y-3.303
X2.7358Y-3.2416
X2.7374Y-3.197
X2.808Y-2.467
X2.808Y-2.57
X2.83Y-2.91
X2.862Y-3.005
X2.879Y-3.227
X2.901Y-2.736
X2.914Y-3.944
X2.92Y-3.39
X2.94Y-2.9
X3.198Y-2.556
X3.276Y-2.475
X3.2989Y-3.7231
X3.3185Y-3.6852
X3.3192Y-3.6473
X3.3231Y-3.6096
X3.3367Y-3.721
X3.411Y-3.035
X3.609Y-2.91
X3.734Y-2.821
X3.766Y-2.645
T2
X2.346Y-3.444
X2.405Y-3.444
T3
X1.645Y-3.09
X1.645Y-3.19
X1.645Y-3.29
X1.645Y-3.39
X1.645Y-3.49
X1.645Y-3.59
X1.645Y-3.69
X1.645Y-3.79
X1.645Y-3.89
X1.645Y-3.99
X1.645Y-4.09
X1.645Y-4.19
X1.645Y-4.29
X1.645Y-4.39
X1.645Y-4.49
X1.645Y-4.59
X1.645Y-4.69
X1.645Y-4.79
X1.645Y-4.89
X2.645Y-3.09
X2.645Y-3.19
X2.645Y-3.29
X2.645Y-3.39
X2.645Y-3.49
X2.645Y-3.59
X2.645Y-3.69
X2.645Y-3.79
X2.645Y-3.89
X2.645Y-3.99
X2.645Y-4.09
X2.645Y-4.19
X2.645Y-4.29
X2.645Y-4.39
X2.645Y-4.49
X2.645Y-4.59
X2.645Y-4.69
X2.645Y-4.79
X2.645Y-4.89
T4
X4.13Y-3.27
X4.13Y-3.3684
X1.053Y-2.51
X1.053Y-2.61
X1.053Y-2.71
X1.053Y-2.81
X1.353Y-2.51
X1.353Y-2.61
X1.353Y-2.71
X1.353Y-2.81
X3.55Y-3.27
X3.55Y-3.3684
X5.34Y-3.27
X5.34Y-3.3684
X1.53Y-2.57
X1.63Y-2.57
X1.73Y-2.57
X4.73Y-3.27
X4.73Y-3.3684
T5
X1.24Y-3.42
X1.24Y-3.52
X1.24Y-3.62
X1.24Y-3.72
X1.24Y-3.82
X1.24Y-3.92
X1.24Y-4.02
X1.24Y-4.22
X1.24Y-4.32
X1.24Y-4.42
X1.24Y-4.52
X1.24Y-4.62
X1.24Y-4.72
X3.14Y-2.96
X3.14Y-3.06
X3.14Y-3.16
X3.14Y-3.26
X3.14Y-3.36
X3.14Y-3.46
X3.14Y-3.56
X3.14Y-3.66
X3.14Y-3.76
X3.14Y-3.86
X3.14Y-4.02
X3.14Y-4.12
X3.14Y-4.22
X3.14Y-4.32
X3.14Y-4.42
X3.14Y-4.52
X3.14Y-4.62
X3.14Y-4.72
T6
X1.655Y-2.145
X1.695Y-2.215
X1.735Y-2.145
X1.775Y-2.215
X1.815Y-2.145
X1.855Y-2.215
X1.895Y-2.145
X1.935Y-2.215
T7
X1.056Y-2.3601
T8
X5.94Y-3.73
X6.04Y-3.73
X6.14Y-3.73
X3.54Y-3.73
X3.64Y-3.73
X3.74Y-3.73
X5.34Y-3.73
X5.44Y-3.73
X5.54Y-3.73
X4.14Y-3.73
X4.24Y-3.73
X4.34Y-3.73
X4.74Y-3.73
X4.84Y-3.73
X4.94Y-3.73
T9
X0.93Y-2.37
X0.93Y-2.47
T10
X5.1981Y-2.155
X5.395Y-2.155
X5.5919Y-2.155
X5.7887Y-2.155
X5.9856Y-2.155
X6.1824Y-2.155
X3.95Y-2.1549
X4.1469Y-2.1549
X4.3437Y-2.1549
X4.5406Y-2.1549
X4.7374Y-2.1549
X4.9343Y-2.1549
T11
X4.54Y-4.12
T12
X3.9832Y-4.6768
T13
X0.9064Y-2.053
X1.2056Y-2.053
T14
X6.31Y-2.87
X0.96Y-4.82
X6.31Y-4.82
X0.96Y-3.62
T15
X1.545Y-2.045
X2.045Y-2.045
T8
X3.235Y-2.2287G85X3.235Y-2.3074
G05
X3.4593Y-2.15G85X3.3806Y-2.15
G05
X3.4593Y-2.3862G85X3.3806Y-2.3862
G05
T0
M30
