M48
;DRILL file {KiCad 5.0.0-fee4fd1~66~ubuntu16.04.1} date Fri Sep 28 16:25:50 2018
;FORMAT={-:-/ absolute / inch / decimal}
FMAT,2
INCH,TZ
T1C0.0433
T2C0.0669
T3C0.1496
%
G90
G05
M72
T1
X5.1981Y-2.0251
X5.395Y-2.0251
X5.5919Y-2.0251
X5.7887Y-2.0251
X5.9856Y-2.0251
X6.1824Y-2.0251
X3.95Y-2.025
X4.1469Y-2.025
X4.3437Y-2.025
X4.5406Y-2.025
X4.7374Y-2.025
X4.9343Y-2.025
T2
X2.86Y-2.0878
X2.86Y-2.3634
X2.405Y-2.0878
X2.405Y-2.3634
T3
X4.24Y-4.39
X4.84Y-4.39
X6.04Y-4.39
X3.64Y-4.39
X5.44Y-4.39
T0
M30
