G04 #@! TF.FileFunction,Soldermask,Bot*
%FSLAX46Y46*%
G04 Gerber Fmt 4.6, Leading zero omitted, Abs format (unit mm)*
G04 Created by KiCad (PCBNEW 4.0.2+dfsg1-stable) date Mon 20 Aug 2018 04:08:08 PM EDT*
%MOMM*%
G01*
G04 APERTURE LIST*
%ADD10C,0.100000*%
%ADD11O,2.940000X1.924000*%
%ADD12C,3.651200*%
%ADD13C,1.924000*%
%ADD14C,2.150000*%
%ADD15C,3.300000*%
%ADD16C,1.920000*%
%ADD17R,1.920000X1.920000*%
%ADD18O,2.000000X2.000000*%
%ADD19R,3.900120X3.900120*%
%ADD20C,2.500000*%
%ADD21C,1.500000*%
%ADD22C,1.700000*%
%ADD23R,1.700000X1.700000*%
%ADD24O,2.099260X3.900120*%
%ADD25C,4.199840*%
%ADD26C,1.400760*%
%ADD27O,1.400000X1.900000*%
%ADD28R,1.400000X1.900000*%
%ADD29R,2.432000X2.432000*%
%ADD30O,2.432000X2.432000*%
%ADD31C,2.900000*%
%ADD32C,1.670000*%
G04 APERTURE END LIST*
D10*
D11*
X31496000Y-119888000D03*
X31496000Y-117348000D03*
X31496000Y-114808000D03*
X31496000Y-107188000D03*
X31496000Y-109728000D03*
X31496000Y-112268000D03*
X31496000Y-102108000D03*
X31496000Y-99568000D03*
X31496000Y-97028000D03*
X31496000Y-91948000D03*
X31496000Y-89408000D03*
X79756000Y-119888000D03*
X79756000Y-117348000D03*
X79756000Y-114808000D03*
X79756000Y-112268000D03*
X79756000Y-109728000D03*
X79756000Y-107188000D03*
X79756000Y-104648000D03*
X79756000Y-102108000D03*
X79756000Y-98044000D03*
X79756000Y-95504000D03*
X79756000Y-92964000D03*
X79756000Y-90424000D03*
X79756000Y-87884000D03*
X79756000Y-85344000D03*
X79756000Y-82804000D03*
X79756000Y-80264000D03*
X31496000Y-94488000D03*
X79756000Y-77724000D03*
X79756000Y-75184000D03*
X31496000Y-86868000D03*
D12*
X51943000Y-51943000D03*
X39243000Y-51943000D03*
D13*
X48133000Y-54483000D03*
X46101000Y-54483000D03*
X44069000Y-54483000D03*
X42037000Y-54483000D03*
X49149000Y-56261000D03*
X47117000Y-56261000D03*
X45085000Y-56261000D03*
X43053000Y-56261000D03*
D14*
X26822400Y-62486200D03*
D15*
X30622400Y-54686200D03*
X23022400Y-54686200D03*
D16*
X41402000Y-67818000D03*
X38862000Y-67818000D03*
D17*
X43942000Y-67818000D03*
D18*
X34366200Y-73914000D03*
X34366200Y-71374000D03*
X34366200Y-68834000D03*
X34366200Y-66294000D03*
X26746200Y-66294000D03*
X26746200Y-68834000D03*
X26746200Y-71374000D03*
X26746200Y-73914000D03*
D19*
X86868000Y-60609480D03*
X86868000Y-54610000D03*
X82169000Y-57609740D03*
D20*
X157033000Y-54737000D03*
X152033000Y-54737000D03*
D21*
X157033000Y-51437000D03*
X152033000Y-51437000D03*
D20*
X147033000Y-54737000D03*
X142033000Y-54737000D03*
X137033000Y-54737000D03*
X132033000Y-54737000D03*
D21*
X147033000Y-51437000D03*
X142033000Y-51437000D03*
X137033000Y-51437000D03*
X132033000Y-51437000D03*
D20*
X125330000Y-54735000D03*
X120330000Y-54735000D03*
D21*
X125330000Y-51435000D03*
X120330000Y-51435000D03*
D20*
X115330000Y-54735000D03*
X110330000Y-54735000D03*
X105330000Y-54735000D03*
X100330000Y-54735000D03*
D21*
X115330000Y-51435000D03*
X110330000Y-51435000D03*
X105330000Y-51435000D03*
X100330000Y-51435000D03*
D22*
X120142000Y-83058000D03*
D23*
X120142000Y-85558000D03*
D22*
X104902000Y-83058000D03*
D23*
X104902000Y-85558000D03*
D22*
X90170000Y-83058000D03*
D23*
X90170000Y-85558000D03*
D24*
X153416000Y-94742000D03*
X155956000Y-94742000D03*
X150876000Y-94742000D03*
D25*
X153416000Y-111506000D03*
D24*
X122936000Y-94742000D03*
X125476000Y-94742000D03*
X120396000Y-94742000D03*
D25*
X122936000Y-111506000D03*
D24*
X107696000Y-94742000D03*
X110236000Y-94742000D03*
X105156000Y-94742000D03*
D25*
X107696000Y-111506000D03*
D24*
X92456000Y-94742000D03*
X94996000Y-94742000D03*
X89916000Y-94742000D03*
D25*
X92456000Y-111506000D03*
D22*
X135636000Y-83058000D03*
D23*
X135636000Y-85558000D03*
D24*
X138176000Y-94742000D03*
X140716000Y-94742000D03*
X135636000Y-94742000D03*
D25*
X138176000Y-111506000D03*
D26*
X58318400Y-111683800D03*
X59817000Y-111683800D03*
D27*
X56896000Y-71882000D03*
D28*
X55626000Y-71882000D03*
D27*
X54356000Y-71882000D03*
X53086000Y-71882000D03*
D29*
X23622000Y-65278000D03*
D30*
X23622000Y-62738000D03*
D10*
G36*
X115316000Y-102830736D02*
X117133264Y-104648000D01*
X115316000Y-106465264D01*
X113498736Y-104648000D01*
X115316000Y-102830736D01*
X115316000Y-102830736D01*
G37*
D31*
X101173864Y-118790136D03*
D13*
X72644000Y-51404000D03*
X72644000Y-57404000D03*
X61087000Y-51404000D03*
X61087000Y-57404000D03*
D32*
X67183000Y-124206000D03*
X67183000Y-121666000D03*
X67183000Y-119126000D03*
X67183000Y-116586000D03*
X67183000Y-114046000D03*
X67183000Y-111506000D03*
X67183000Y-108966000D03*
X67183000Y-106426000D03*
X67183000Y-103886000D03*
X67183000Y-101346000D03*
X67183000Y-98806000D03*
X67183000Y-96266000D03*
X67183000Y-93726000D03*
X67183000Y-91186000D03*
X67183000Y-88646000D03*
X67183000Y-86106000D03*
X67183000Y-81026000D03*
X67183000Y-83566000D03*
X67183000Y-78486000D03*
X41783000Y-103886000D03*
X41783000Y-98806000D03*
X41783000Y-106426000D03*
X41783000Y-93726000D03*
X41783000Y-101346000D03*
X41783000Y-96266000D03*
X41783000Y-88646000D03*
X41783000Y-81026000D03*
X41783000Y-91186000D03*
X41783000Y-86106000D03*
X41783000Y-78486000D03*
X41783000Y-83566000D03*
X41783000Y-116586000D03*
X41783000Y-114046000D03*
X41783000Y-119126000D03*
X41783000Y-121666000D03*
X41783000Y-124206000D03*
X41783000Y-108966000D03*
X41783000Y-111506000D03*
D29*
X76200000Y-107569000D03*
D30*
X73660000Y-107569000D03*
M02*
