M48
;DRILL file {KiCad 4.0.2+dfsg1-stable} date Mon 11 Jun 2018 12:13:29 PM EDT
;FORMAT={-:-/ absolute / inch / decimal}
FMAT,2
INCH,TZ
T1C0.012
T2C0.016
T3C0.031
T4C0.035
T5C0.039
T6C0.104
T7C0.128
%
G90
G05
M72
T1
X3.306Y-3.981
X3.314Y-4.047
X3.46Y-5.19
X3.98Y-4.9
T2
X3.07Y-5.71
X3.34Y-5.35
X3.36Y-5.48
X3.74Y-5.7
X4.26Y-5.42
T3
X2.9423Y-4.5881
X3.0407Y-4.5881
T4
X2.59Y-5.41
X2.63Y-5.48
X2.67Y-5.41
X2.71Y-5.48
X2.75Y-5.41
X2.79Y-5.48
X2.83Y-5.41
X2.87Y-5.48
T5
X2.91Y-2.11
X3.01Y-2.11
X3.11Y-2.11
X3.21Y-2.11
X3.31Y-2.11
X3.41Y-2.11
X3.51Y-2.11
X3.5647Y-5.2016
X3.5647Y-5.3
X3.5647Y-5.3984
X3.61Y-2.11
X3.71Y-2.11
X3.81Y-2.11
X3.91Y-2.11
X4.01Y-2.11
X4.11Y-2.11
X4.1356Y-5.2016
X4.1356Y-5.3984
X4.21Y-2.11
X4.31Y-2.11
X4.41Y-2.11
X4.51Y-2.11
X4.61Y-2.11
X4.71Y-2.11
X4.81Y-2.11
T6
X3.86Y-5.0815
X3.86Y-5.5185
T7
X2.48Y-5.58
X2.98Y-5.58
T0
M30
