G04 #@! TF.FileFunction,Copper,L2,Bot,Signal*
%FSLAX46Y46*%
G04 Gerber Fmt 4.6, Leading zero omitted, Abs format (unit mm)*
G04 Created by KiCad (PCBNEW 4.0.2+dfsg1-stable) date Mon 11 Jun 2018 12:13:27 PM EDT*
%MOMM*%
G01*
G04 APERTURE LIST*
%ADD10C,0.100000*%
%ADD11C,1.300000*%
%ADD12R,1.300000X1.300000*%
%ADD13C,1.800000*%
%ADD14R,1.198880X1.198880*%
%ADD15C,1.900000*%
%ADD16C,3.500000*%
%ADD17C,3.251200*%
%ADD18C,1.524000*%
%ADD19C,0.600000*%
%ADD20C,0.762000*%
%ADD21C,0.762000*%
%ADD22C,0.381000*%
%ADD23C,0.254000*%
G04 APERTURE END LIST*
D10*
D11*
X74734929Y-116538373D03*
D12*
X77234929Y-116538373D03*
D13*
X122174000Y-53594000D03*
X119634000Y-53594000D03*
X117094000Y-53594000D03*
X114554000Y-53594000D03*
X112014000Y-53594000D03*
X109474000Y-53594000D03*
X106934000Y-53594000D03*
X104394000Y-53594000D03*
X101854000Y-53594000D03*
X99314000Y-53594000D03*
X96774000Y-53594000D03*
X94234000Y-53594000D03*
X91694000Y-53594000D03*
X89154000Y-53594000D03*
X86614000Y-53594000D03*
X84074000Y-53594000D03*
X81534000Y-53594000D03*
X78994000Y-53594000D03*
X76454000Y-53594000D03*
X73914000Y-53594000D03*
D14*
X87884000Y-133570980D03*
X87884000Y-135669020D03*
X96994980Y-144780000D03*
X99093020Y-144780000D03*
X108204000Y-133570980D03*
X108204000Y-135669020D03*
X99126040Y-124460000D03*
X97028000Y-124460000D03*
D15*
X105044000Y-132120000D03*
X105044000Y-137120000D03*
X90544000Y-132120000D03*
X90544000Y-134620000D03*
X90544000Y-137120000D03*
D16*
X98044000Y-140170000D03*
X98044000Y-129070000D03*
D17*
X62992000Y-141732000D03*
X75692000Y-141732000D03*
D18*
X66802000Y-139192000D03*
X68834000Y-139192000D03*
X70866000Y-139192000D03*
X72898000Y-139192000D03*
X65786000Y-137414000D03*
X67818000Y-137414000D03*
X69850000Y-137414000D03*
X71882000Y-137414000D03*
D19*
X77978000Y-145034000D03*
X85344000Y-139192000D03*
X84836000Y-135890000D03*
D20*
X83972400Y-101117400D03*
X84175600Y-102793800D03*
X87884000Y-131826000D03*
D19*
X94996000Y-144780000D03*
X108204000Y-137668000D03*
D20*
X101092000Y-124460000D03*
D21*
X85344000Y-139192000D02*
X83820000Y-139192000D01*
X83820000Y-139192000D02*
X77978000Y-145034000D01*
X87884000Y-135669020D02*
X85056980Y-135669020D01*
X85056980Y-135669020D02*
X84836000Y-135890000D01*
D22*
X97926058Y-132120000D02*
X103700498Y-132120000D01*
X88800994Y-130779499D02*
X96585557Y-130779499D01*
X74758512Y-130473488D02*
X88494983Y-130473488D01*
X103700498Y-132120000D02*
X105044000Y-132120000D01*
X67818000Y-137414000D02*
X74758512Y-130473488D01*
X96585557Y-130779499D02*
X97926058Y-132120000D01*
X88494983Y-130473488D02*
X88800994Y-130779499D01*
X88254321Y-131054499D02*
X89319822Y-132120000D01*
X87513679Y-131054499D02*
X88254321Y-131054499D01*
X87207668Y-131360510D02*
X87513679Y-131054499D01*
X75903490Y-131360510D02*
X87207668Y-131360510D01*
X89319822Y-132120000D02*
X90544000Y-132120000D01*
X69850000Y-137414000D02*
X75903490Y-131360510D01*
X71882000Y-137414000D02*
X90250000Y-137414000D01*
X90250000Y-137414000D02*
X90544000Y-137120000D01*
X84175600Y-102793800D02*
X84175600Y-101320600D01*
X84175600Y-101320600D02*
X83972400Y-101117400D01*
X87884000Y-131826000D02*
X87884000Y-133570980D01*
D21*
X94996000Y-144780000D02*
X96994980Y-144780000D01*
X109728000Y-136568264D02*
X109728000Y-133733540D01*
X109728000Y-133733540D02*
X109565440Y-133570980D01*
X109565440Y-133570980D02*
X108204000Y-133570980D01*
X108204000Y-137668000D02*
X108628264Y-137668000D01*
X108628264Y-137668000D02*
X109728000Y-136568264D01*
D22*
X101092000Y-124460000D02*
X99126040Y-124460000D01*
D23*
G36*
X134672000Y-146610000D02*
X61416000Y-146610000D01*
X61416000Y-144780000D01*
X93980000Y-144780000D01*
X94057338Y-145168806D01*
X94277580Y-145498420D01*
X94607194Y-145718662D01*
X94996000Y-145796000D01*
X95909005Y-145796000D01*
X95931450Y-145830881D01*
X96143650Y-145975871D01*
X96395540Y-146026880D01*
X97594420Y-146026880D01*
X97829737Y-145982602D01*
X98045861Y-145843530D01*
X98051456Y-145835341D01*
X98133882Y-145917767D01*
X98367271Y-146014440D01*
X98807270Y-146014440D01*
X98966020Y-145855690D01*
X98966020Y-144907000D01*
X99220020Y-144907000D01*
X99220020Y-145855690D01*
X99378770Y-146014440D01*
X99818769Y-146014440D01*
X100052158Y-145917767D01*
X100230787Y-145739139D01*
X100327460Y-145505750D01*
X100327460Y-145065750D01*
X100168710Y-144907000D01*
X99220020Y-144907000D01*
X98966020Y-144907000D01*
X98946020Y-144907000D01*
X98946020Y-144653000D01*
X98966020Y-144653000D01*
X98966020Y-143704310D01*
X99220020Y-143704310D01*
X99220020Y-144653000D01*
X100168710Y-144653000D01*
X100327460Y-144494250D01*
X100327460Y-144054250D01*
X100230787Y-143820861D01*
X100052158Y-143642233D01*
X99818769Y-143545560D01*
X99378770Y-143545560D01*
X99220020Y-143704310D01*
X98966020Y-143704310D01*
X98807270Y-143545560D01*
X98367271Y-143545560D01*
X98133882Y-143642233D01*
X98051669Y-143724445D01*
X97846310Y-143584129D01*
X97594420Y-143533120D01*
X96395540Y-143533120D01*
X96160223Y-143577398D01*
X95944099Y-143716470D01*
X95911623Y-143764000D01*
X94996000Y-143764000D01*
X94607194Y-143841338D01*
X94277580Y-144061580D01*
X94057338Y-144391194D01*
X93980000Y-144780000D01*
X61416000Y-144780000D01*
X61416000Y-143353012D01*
X61709801Y-143647326D01*
X62540366Y-143992207D01*
X63439688Y-143992992D01*
X64270854Y-143649561D01*
X64907326Y-143014199D01*
X65252207Y-142183634D01*
X65252210Y-142179688D01*
X73431008Y-142179688D01*
X73774439Y-143010854D01*
X74409801Y-143647326D01*
X75240366Y-143992207D01*
X76139688Y-143992992D01*
X76970854Y-143649561D01*
X77607326Y-143014199D01*
X77952207Y-142183634D01*
X77952485Y-141864528D01*
X96529077Y-141864528D01*
X96719364Y-142209271D01*
X97600591Y-142560956D01*
X98549323Y-142548641D01*
X99368636Y-142209271D01*
X99558923Y-141864528D01*
X98044000Y-140349605D01*
X96529077Y-141864528D01*
X77952485Y-141864528D01*
X77952992Y-141284312D01*
X77609561Y-140453146D01*
X76974199Y-139816674D01*
X76757256Y-139726591D01*
X95653044Y-139726591D01*
X95665359Y-140675323D01*
X96004729Y-141494636D01*
X96349472Y-141684923D01*
X97864395Y-140170000D01*
X98223605Y-140170000D01*
X99738528Y-141684923D01*
X100083271Y-141494636D01*
X100434956Y-140613409D01*
X100422641Y-139664677D01*
X100083271Y-138845364D01*
X99738528Y-138655077D01*
X98223605Y-140170000D01*
X97864395Y-140170000D01*
X96349472Y-138655077D01*
X96004729Y-138845364D01*
X95653044Y-139726591D01*
X76757256Y-139726591D01*
X76143634Y-139471793D01*
X75244312Y-139471008D01*
X74413146Y-139814439D01*
X73776674Y-140449801D01*
X73431793Y-141280366D01*
X73431008Y-142179688D01*
X65252210Y-142179688D01*
X65252992Y-141284312D01*
X64909561Y-140453146D01*
X64274199Y-139816674D01*
X63443634Y-139471793D01*
X62544312Y-139471008D01*
X61713146Y-139814439D01*
X61416000Y-140111067D01*
X61416000Y-137690661D01*
X64388758Y-137690661D01*
X64600990Y-138204303D01*
X64993630Y-138597629D01*
X65456369Y-138789775D01*
X65405243Y-138912900D01*
X65404758Y-139468661D01*
X65616990Y-139982303D01*
X66009630Y-140375629D01*
X66522900Y-140588757D01*
X67078661Y-140589242D01*
X67592303Y-140377010D01*
X67818049Y-140151658D01*
X68041630Y-140375629D01*
X68554900Y-140588757D01*
X69110661Y-140589242D01*
X69624303Y-140377010D01*
X69829457Y-140172213D01*
X70065392Y-140172213D01*
X70134857Y-140414397D01*
X70658302Y-140601144D01*
X71213368Y-140573362D01*
X71597143Y-140414397D01*
X71666608Y-140172213D01*
X70866000Y-139371605D01*
X70065392Y-140172213D01*
X69829457Y-140172213D01*
X70017629Y-139984370D01*
X70105399Y-139772996D01*
X70686395Y-139192000D01*
X70672253Y-139177858D01*
X70851858Y-138998253D01*
X70866000Y-139012395D01*
X70880143Y-138998253D01*
X71059748Y-139177858D01*
X71045605Y-139192000D01*
X71626440Y-139772835D01*
X71712990Y-139982303D01*
X72105630Y-140375629D01*
X72618900Y-140588757D01*
X73174661Y-140589242D01*
X73688303Y-140377010D01*
X74081629Y-139984370D01*
X74294757Y-139471100D01*
X74295242Y-138915339D01*
X74083010Y-138401697D01*
X73921096Y-138239500D01*
X89421973Y-138239500D01*
X89644997Y-138462914D01*
X90227341Y-138704724D01*
X90857893Y-138705275D01*
X91414056Y-138475472D01*
X96529077Y-138475472D01*
X98044000Y-139990395D01*
X99558923Y-138475472D01*
X99368636Y-138130729D01*
X98487409Y-137779044D01*
X97538677Y-137791359D01*
X96719364Y-138130729D01*
X96529077Y-138475472D01*
X91414056Y-138475472D01*
X91440657Y-138464481D01*
X91886914Y-138019003D01*
X92128724Y-137436659D01*
X92128726Y-137433893D01*
X103458725Y-137433893D01*
X103699519Y-138016657D01*
X104144997Y-138462914D01*
X104727341Y-138704724D01*
X105357893Y-138705275D01*
X105940657Y-138464481D01*
X106386914Y-138019003D01*
X106628724Y-137436659D01*
X106629275Y-136806107D01*
X106388481Y-136223343D01*
X105943003Y-135777086D01*
X105360659Y-135535276D01*
X104730107Y-135534725D01*
X104147343Y-135775519D01*
X103701086Y-136220997D01*
X103459276Y-136803341D01*
X103458725Y-137433893D01*
X92128726Y-137433893D01*
X92129275Y-136806107D01*
X91888481Y-136223343D01*
X91535529Y-135869774D01*
X91886914Y-135519003D01*
X92128724Y-134936659D01*
X92129275Y-134306107D01*
X91888481Y-133723343D01*
X91535529Y-133369774D01*
X91886914Y-133019003D01*
X92128724Y-132436659D01*
X92129275Y-131806107D01*
X92046179Y-131604999D01*
X96243623Y-131604999D01*
X97342339Y-132703714D01*
X97342341Y-132703717D01*
X97549033Y-132841824D01*
X97610153Y-132882663D01*
X97926058Y-132945501D01*
X97926063Y-132945500D01*
X103670117Y-132945500D01*
X103699519Y-133016657D01*
X104144997Y-133462914D01*
X104727341Y-133704724D01*
X105357893Y-133705275D01*
X105940657Y-133464481D01*
X106386914Y-133019003D01*
X106406622Y-132971540D01*
X106957120Y-132971540D01*
X106957120Y-134170420D01*
X107001398Y-134405737D01*
X107140470Y-134621861D01*
X107148659Y-134627456D01*
X107066233Y-134709882D01*
X106969560Y-134943271D01*
X106969560Y-135383270D01*
X107128310Y-135542020D01*
X108077000Y-135542020D01*
X108077000Y-135522020D01*
X108331000Y-135522020D01*
X108331000Y-135542020D01*
X108351000Y-135542020D01*
X108351000Y-135796020D01*
X108331000Y-135796020D01*
X108331000Y-135816020D01*
X108077000Y-135816020D01*
X108077000Y-135796020D01*
X107128310Y-135796020D01*
X106969560Y-135954770D01*
X106969560Y-136394769D01*
X107066233Y-136628158D01*
X107244861Y-136806787D01*
X107478250Y-136903460D01*
X107554603Y-136903460D01*
X107485580Y-136949580D01*
X107265338Y-137279194D01*
X107188000Y-137668000D01*
X107265338Y-138056806D01*
X107485580Y-138386420D01*
X107815194Y-138606662D01*
X108204000Y-138684000D01*
X108628264Y-138684000D01*
X108952564Y-138619493D01*
X109017071Y-138606662D01*
X109346684Y-138386420D01*
X110446421Y-137286684D01*
X110666662Y-136957071D01*
X110744000Y-136568264D01*
X110744000Y-133733540D01*
X110690481Y-133464481D01*
X110666662Y-133344733D01*
X110446421Y-133015120D01*
X110283860Y-132852560D01*
X109954247Y-132632318D01*
X109889740Y-132619487D01*
X109565440Y-132554980D01*
X109289975Y-132554980D01*
X109267530Y-132520099D01*
X109055330Y-132375109D01*
X108803440Y-132324100D01*
X107604560Y-132324100D01*
X107369243Y-132368378D01*
X107153119Y-132507450D01*
X107008129Y-132719650D01*
X106957120Y-132971540D01*
X106406622Y-132971540D01*
X106628724Y-132436659D01*
X106629275Y-131806107D01*
X106388481Y-131223343D01*
X105943003Y-130777086D01*
X105360659Y-130535276D01*
X104730107Y-130534725D01*
X104147343Y-130775519D01*
X103701086Y-131220997D01*
X103670565Y-131294500D01*
X98921453Y-131294500D01*
X99368636Y-131109271D01*
X99558923Y-130764528D01*
X98044000Y-129249605D01*
X98029858Y-129263748D01*
X97850253Y-129084143D01*
X97864395Y-129070000D01*
X98223605Y-129070000D01*
X99738528Y-130584923D01*
X100083271Y-130394636D01*
X100434956Y-129513409D01*
X100422641Y-128564677D01*
X100083271Y-127745364D01*
X99738528Y-127555077D01*
X98223605Y-129070000D01*
X97864395Y-129070000D01*
X96349472Y-127555077D01*
X96004729Y-127745364D01*
X95653044Y-128626591D01*
X95665359Y-129575323D01*
X95822211Y-129953999D01*
X89142928Y-129953999D01*
X89078700Y-129889771D01*
X88810889Y-129710825D01*
X88494983Y-129647988D01*
X74758512Y-129647988D01*
X74442606Y-129710825D01*
X74174795Y-129889771D01*
X68047366Y-136017200D01*
X67541339Y-136016758D01*
X67027697Y-136228990D01*
X66801951Y-136454342D01*
X66578370Y-136230371D01*
X66065100Y-136017243D01*
X65509339Y-136016758D01*
X64995697Y-136228990D01*
X64602371Y-136621630D01*
X64389243Y-137134900D01*
X64388758Y-137690661D01*
X61416000Y-137690661D01*
X61416000Y-127375472D01*
X96529077Y-127375472D01*
X98044000Y-128890395D01*
X99558923Y-127375472D01*
X99368636Y-127030729D01*
X98487409Y-126679044D01*
X97538677Y-126691359D01*
X96719364Y-127030729D01*
X96529077Y-127375472D01*
X61416000Y-127375472D01*
X61416000Y-124745750D01*
X95793560Y-124745750D01*
X95793560Y-125185750D01*
X95890233Y-125419139D01*
X96068862Y-125597767D01*
X96302251Y-125694440D01*
X96742250Y-125694440D01*
X96901000Y-125535690D01*
X96901000Y-124587000D01*
X95952310Y-124587000D01*
X95793560Y-124745750D01*
X61416000Y-124745750D01*
X61416000Y-123734250D01*
X95793560Y-123734250D01*
X95793560Y-124174250D01*
X95952310Y-124333000D01*
X96901000Y-124333000D01*
X96901000Y-123384310D01*
X97155000Y-123384310D01*
X97155000Y-124333000D01*
X97175000Y-124333000D01*
X97175000Y-124587000D01*
X97155000Y-124587000D01*
X97155000Y-125535690D01*
X97313750Y-125694440D01*
X97753749Y-125694440D01*
X97987138Y-125597767D01*
X98069351Y-125515555D01*
X98274710Y-125655871D01*
X98526600Y-125706880D01*
X99725480Y-125706880D01*
X99960797Y-125662602D01*
X100176921Y-125523530D01*
X100321911Y-125311330D01*
X100327142Y-125285500D01*
X100480472Y-125285500D01*
X100515731Y-125320821D01*
X100889018Y-125475824D01*
X101293208Y-125476176D01*
X101666766Y-125321825D01*
X101952821Y-125036269D01*
X102107824Y-124662982D01*
X102108176Y-124258792D01*
X101953825Y-123885234D01*
X101668269Y-123599179D01*
X101294982Y-123444176D01*
X100890792Y-123443824D01*
X100517234Y-123598175D01*
X100480846Y-123634500D01*
X100330384Y-123634500D01*
X100328642Y-123625243D01*
X100189570Y-123409119D01*
X99977370Y-123264129D01*
X99725480Y-123213120D01*
X98526600Y-123213120D01*
X98291283Y-123257398D01*
X98075159Y-123396470D01*
X98069564Y-123404659D01*
X97987138Y-123322233D01*
X97753749Y-123225560D01*
X97313750Y-123225560D01*
X97155000Y-123384310D01*
X96901000Y-123384310D01*
X96742250Y-123225560D01*
X96302251Y-123225560D01*
X96068862Y-123322233D01*
X95890233Y-123500861D01*
X95793560Y-123734250D01*
X61416000Y-123734250D01*
X61416000Y-117437389D01*
X74015519Y-117437389D01*
X74071200Y-117667984D01*
X74554007Y-117835995D01*
X75064357Y-117806456D01*
X75398658Y-117667984D01*
X75454339Y-117437389D01*
X74734929Y-116717978D01*
X74015519Y-117437389D01*
X61416000Y-117437389D01*
X61416000Y-116357451D01*
X73437307Y-116357451D01*
X73466846Y-116867801D01*
X73605318Y-117202102D01*
X73835913Y-117257783D01*
X74555324Y-116538373D01*
X74914534Y-116538373D01*
X75633945Y-117257783D01*
X75864540Y-117202102D01*
X75937489Y-116992471D01*
X75937489Y-117188373D01*
X75981767Y-117423690D01*
X76120839Y-117639814D01*
X76333039Y-117784804D01*
X76584929Y-117835813D01*
X77884929Y-117835813D01*
X78120246Y-117791535D01*
X78336370Y-117652463D01*
X78481360Y-117440263D01*
X78532369Y-117188373D01*
X78532369Y-115888373D01*
X78488091Y-115653056D01*
X78349019Y-115436932D01*
X78136819Y-115291942D01*
X77884929Y-115240933D01*
X76584929Y-115240933D01*
X76349612Y-115285211D01*
X76133488Y-115424283D01*
X75988498Y-115636483D01*
X75937489Y-115888373D01*
X75937489Y-116050758D01*
X75864540Y-115874644D01*
X75633945Y-115818963D01*
X74914534Y-116538373D01*
X74555324Y-116538373D01*
X73835913Y-115818963D01*
X73605318Y-115874644D01*
X73437307Y-116357451D01*
X61416000Y-116357451D01*
X61416000Y-115639357D01*
X74015519Y-115639357D01*
X74734929Y-116358768D01*
X75454339Y-115639357D01*
X75398658Y-115408762D01*
X74915851Y-115240751D01*
X74405501Y-115270290D01*
X74071200Y-115408762D01*
X74015519Y-115639357D01*
X61416000Y-115639357D01*
X61416000Y-100416701D01*
X82929359Y-100416701D01*
X83071404Y-100760477D01*
X83334194Y-101023726D01*
X83426300Y-101061972D01*
X83426300Y-102394487D01*
X83316962Y-102657801D01*
X83316638Y-103029767D01*
X83458683Y-103373543D01*
X83721473Y-103636792D01*
X84065001Y-103779438D01*
X84436967Y-103779762D01*
X84780743Y-103637717D01*
X85043992Y-103374927D01*
X85186638Y-103031399D01*
X85186962Y-102659433D01*
X85077300Y-102394030D01*
X85077300Y-100618818D01*
X85077301Y-100618813D01*
X85014463Y-100302908D01*
X84956144Y-100215627D01*
X84835517Y-100035096D01*
X84835514Y-100035094D01*
X84766515Y-99966094D01*
X84657638Y-99702591D01*
X84394848Y-99439342D01*
X84051320Y-99296696D01*
X83679354Y-99296372D01*
X83335578Y-99438417D01*
X83072329Y-99701207D01*
X82929683Y-100044735D01*
X82929359Y-100416701D01*
X61416000Y-100416701D01*
X61416000Y-54674159D01*
X73013446Y-54674159D01*
X73099852Y-54930643D01*
X73673336Y-55140458D01*
X74283460Y-55114839D01*
X74728148Y-54930643D01*
X74814554Y-54674159D01*
X73914000Y-53773605D01*
X73013446Y-54674159D01*
X61416000Y-54674159D01*
X61416000Y-53353336D01*
X72367542Y-53353336D01*
X72393161Y-53963460D01*
X72577357Y-54408148D01*
X72833841Y-54494554D01*
X73734395Y-53594000D01*
X74093605Y-53594000D01*
X74994159Y-54494554D01*
X75144327Y-54443965D01*
X75151932Y-54462371D01*
X75583357Y-54894551D01*
X76147330Y-55128733D01*
X76757991Y-55129265D01*
X77322371Y-54896068D01*
X77724323Y-54494818D01*
X78123357Y-54894551D01*
X78687330Y-55128733D01*
X79297991Y-55129265D01*
X79862371Y-54896068D01*
X80264323Y-54494818D01*
X80663357Y-54894551D01*
X81227330Y-55128733D01*
X81837991Y-55129265D01*
X82402371Y-54896068D01*
X82804323Y-54494818D01*
X83203357Y-54894551D01*
X83767330Y-55128733D01*
X84377991Y-55129265D01*
X84942371Y-54896068D01*
X85344323Y-54494818D01*
X85743357Y-54894551D01*
X86307330Y-55128733D01*
X86917991Y-55129265D01*
X87482371Y-54896068D01*
X87884323Y-54494818D01*
X88283357Y-54894551D01*
X88847330Y-55128733D01*
X89457991Y-55129265D01*
X90022371Y-54896068D01*
X90424323Y-54494818D01*
X90823357Y-54894551D01*
X91387330Y-55128733D01*
X91997991Y-55129265D01*
X92562371Y-54896068D01*
X92964323Y-54494818D01*
X93363357Y-54894551D01*
X93927330Y-55128733D01*
X94537991Y-55129265D01*
X95102371Y-54896068D01*
X95504323Y-54494818D01*
X95903357Y-54894551D01*
X96467330Y-55128733D01*
X97077991Y-55129265D01*
X97642371Y-54896068D01*
X98044323Y-54494818D01*
X98443357Y-54894551D01*
X99007330Y-55128733D01*
X99617991Y-55129265D01*
X100182371Y-54896068D01*
X100584323Y-54494818D01*
X100983357Y-54894551D01*
X101547330Y-55128733D01*
X102157991Y-55129265D01*
X102722371Y-54896068D01*
X103124323Y-54494818D01*
X103523357Y-54894551D01*
X104087330Y-55128733D01*
X104697991Y-55129265D01*
X105262371Y-54896068D01*
X105664323Y-54494818D01*
X106063357Y-54894551D01*
X106627330Y-55128733D01*
X107237991Y-55129265D01*
X107802371Y-54896068D01*
X108204323Y-54494818D01*
X108603357Y-54894551D01*
X109167330Y-55128733D01*
X109777991Y-55129265D01*
X110342371Y-54896068D01*
X110744323Y-54494818D01*
X111143357Y-54894551D01*
X111707330Y-55128733D01*
X112317991Y-55129265D01*
X112882371Y-54896068D01*
X113284323Y-54494818D01*
X113683357Y-54894551D01*
X114247330Y-55128733D01*
X114857991Y-55129265D01*
X115422371Y-54896068D01*
X115824323Y-54494818D01*
X116223357Y-54894551D01*
X116787330Y-55128733D01*
X117397991Y-55129265D01*
X117962371Y-54896068D01*
X118364323Y-54494818D01*
X118763357Y-54894551D01*
X119327330Y-55128733D01*
X119937991Y-55129265D01*
X120502371Y-54896068D01*
X120724668Y-54674159D01*
X121273446Y-54674159D01*
X121359852Y-54930643D01*
X121933336Y-55140458D01*
X122543460Y-55114839D01*
X122988148Y-54930643D01*
X123074554Y-54674159D01*
X122174000Y-53773605D01*
X121273446Y-54674159D01*
X120724668Y-54674159D01*
X120934551Y-54464643D01*
X120943203Y-54443806D01*
X121093841Y-54494554D01*
X121994395Y-53594000D01*
X122353605Y-53594000D01*
X123254159Y-54494554D01*
X123510643Y-54408148D01*
X123720458Y-53834664D01*
X123694839Y-53224540D01*
X123510643Y-52779852D01*
X123254159Y-52693446D01*
X122353605Y-53594000D01*
X121994395Y-53594000D01*
X121093841Y-52693446D01*
X120943673Y-52744035D01*
X120936068Y-52725629D01*
X120724650Y-52513841D01*
X121273446Y-52513841D01*
X122174000Y-53414395D01*
X123074554Y-52513841D01*
X122988148Y-52257357D01*
X122414664Y-52047542D01*
X121804540Y-52073161D01*
X121359852Y-52257357D01*
X121273446Y-52513841D01*
X120724650Y-52513841D01*
X120504643Y-52293449D01*
X119940670Y-52059267D01*
X119330009Y-52058735D01*
X118765629Y-52291932D01*
X118363677Y-52693182D01*
X117964643Y-52293449D01*
X117400670Y-52059267D01*
X116790009Y-52058735D01*
X116225629Y-52291932D01*
X115823677Y-52693182D01*
X115424643Y-52293449D01*
X114860670Y-52059267D01*
X114250009Y-52058735D01*
X113685629Y-52291932D01*
X113283677Y-52693182D01*
X112884643Y-52293449D01*
X112320670Y-52059267D01*
X111710009Y-52058735D01*
X111145629Y-52291932D01*
X110743677Y-52693182D01*
X110344643Y-52293449D01*
X109780670Y-52059267D01*
X109170009Y-52058735D01*
X108605629Y-52291932D01*
X108203677Y-52693182D01*
X107804643Y-52293449D01*
X107240670Y-52059267D01*
X106630009Y-52058735D01*
X106065629Y-52291932D01*
X105663677Y-52693182D01*
X105264643Y-52293449D01*
X104700670Y-52059267D01*
X104090009Y-52058735D01*
X103525629Y-52291932D01*
X103123677Y-52693182D01*
X102724643Y-52293449D01*
X102160670Y-52059267D01*
X101550009Y-52058735D01*
X100985629Y-52291932D01*
X100583677Y-52693182D01*
X100184643Y-52293449D01*
X99620670Y-52059267D01*
X99010009Y-52058735D01*
X98445629Y-52291932D01*
X98043677Y-52693182D01*
X97644643Y-52293449D01*
X97080670Y-52059267D01*
X96470009Y-52058735D01*
X95905629Y-52291932D01*
X95503677Y-52693182D01*
X95104643Y-52293449D01*
X94540670Y-52059267D01*
X93930009Y-52058735D01*
X93365629Y-52291932D01*
X92963677Y-52693182D01*
X92564643Y-52293449D01*
X92000670Y-52059267D01*
X91390009Y-52058735D01*
X90825629Y-52291932D01*
X90423677Y-52693182D01*
X90024643Y-52293449D01*
X89460670Y-52059267D01*
X88850009Y-52058735D01*
X88285629Y-52291932D01*
X87883677Y-52693182D01*
X87484643Y-52293449D01*
X86920670Y-52059267D01*
X86310009Y-52058735D01*
X85745629Y-52291932D01*
X85343677Y-52693182D01*
X84944643Y-52293449D01*
X84380670Y-52059267D01*
X83770009Y-52058735D01*
X83205629Y-52291932D01*
X82803677Y-52693182D01*
X82404643Y-52293449D01*
X81840670Y-52059267D01*
X81230009Y-52058735D01*
X80665629Y-52291932D01*
X80263677Y-52693182D01*
X79864643Y-52293449D01*
X79300670Y-52059267D01*
X78690009Y-52058735D01*
X78125629Y-52291932D01*
X77723677Y-52693182D01*
X77324643Y-52293449D01*
X76760670Y-52059267D01*
X76150009Y-52058735D01*
X75585629Y-52291932D01*
X75153449Y-52723357D01*
X75144797Y-52744194D01*
X74994159Y-52693446D01*
X74093605Y-53594000D01*
X73734395Y-53594000D01*
X72833841Y-52693446D01*
X72577357Y-52779852D01*
X72367542Y-53353336D01*
X61416000Y-53353336D01*
X61416000Y-52513841D01*
X73013446Y-52513841D01*
X73914000Y-53414395D01*
X74814554Y-52513841D01*
X74728148Y-52257357D01*
X74154664Y-52047542D01*
X73544540Y-52073161D01*
X73099852Y-52257357D01*
X73013446Y-52513841D01*
X61416000Y-52513841D01*
X61416000Y-51002000D01*
X134672000Y-51002000D01*
X134672000Y-146610000D01*
X134672000Y-146610000D01*
G37*
X134672000Y-146610000D02*
X61416000Y-146610000D01*
X61416000Y-144780000D01*
X93980000Y-144780000D01*
X94057338Y-145168806D01*
X94277580Y-145498420D01*
X94607194Y-145718662D01*
X94996000Y-145796000D01*
X95909005Y-145796000D01*
X95931450Y-145830881D01*
X96143650Y-145975871D01*
X96395540Y-146026880D01*
X97594420Y-146026880D01*
X97829737Y-145982602D01*
X98045861Y-145843530D01*
X98051456Y-145835341D01*
X98133882Y-145917767D01*
X98367271Y-146014440D01*
X98807270Y-146014440D01*
X98966020Y-145855690D01*
X98966020Y-144907000D01*
X99220020Y-144907000D01*
X99220020Y-145855690D01*
X99378770Y-146014440D01*
X99818769Y-146014440D01*
X100052158Y-145917767D01*
X100230787Y-145739139D01*
X100327460Y-145505750D01*
X100327460Y-145065750D01*
X100168710Y-144907000D01*
X99220020Y-144907000D01*
X98966020Y-144907000D01*
X98946020Y-144907000D01*
X98946020Y-144653000D01*
X98966020Y-144653000D01*
X98966020Y-143704310D01*
X99220020Y-143704310D01*
X99220020Y-144653000D01*
X100168710Y-144653000D01*
X100327460Y-144494250D01*
X100327460Y-144054250D01*
X100230787Y-143820861D01*
X100052158Y-143642233D01*
X99818769Y-143545560D01*
X99378770Y-143545560D01*
X99220020Y-143704310D01*
X98966020Y-143704310D01*
X98807270Y-143545560D01*
X98367271Y-143545560D01*
X98133882Y-143642233D01*
X98051669Y-143724445D01*
X97846310Y-143584129D01*
X97594420Y-143533120D01*
X96395540Y-143533120D01*
X96160223Y-143577398D01*
X95944099Y-143716470D01*
X95911623Y-143764000D01*
X94996000Y-143764000D01*
X94607194Y-143841338D01*
X94277580Y-144061580D01*
X94057338Y-144391194D01*
X93980000Y-144780000D01*
X61416000Y-144780000D01*
X61416000Y-143353012D01*
X61709801Y-143647326D01*
X62540366Y-143992207D01*
X63439688Y-143992992D01*
X64270854Y-143649561D01*
X64907326Y-143014199D01*
X65252207Y-142183634D01*
X65252210Y-142179688D01*
X73431008Y-142179688D01*
X73774439Y-143010854D01*
X74409801Y-143647326D01*
X75240366Y-143992207D01*
X76139688Y-143992992D01*
X76970854Y-143649561D01*
X77607326Y-143014199D01*
X77952207Y-142183634D01*
X77952485Y-141864528D01*
X96529077Y-141864528D01*
X96719364Y-142209271D01*
X97600591Y-142560956D01*
X98549323Y-142548641D01*
X99368636Y-142209271D01*
X99558923Y-141864528D01*
X98044000Y-140349605D01*
X96529077Y-141864528D01*
X77952485Y-141864528D01*
X77952992Y-141284312D01*
X77609561Y-140453146D01*
X76974199Y-139816674D01*
X76757256Y-139726591D01*
X95653044Y-139726591D01*
X95665359Y-140675323D01*
X96004729Y-141494636D01*
X96349472Y-141684923D01*
X97864395Y-140170000D01*
X98223605Y-140170000D01*
X99738528Y-141684923D01*
X100083271Y-141494636D01*
X100434956Y-140613409D01*
X100422641Y-139664677D01*
X100083271Y-138845364D01*
X99738528Y-138655077D01*
X98223605Y-140170000D01*
X97864395Y-140170000D01*
X96349472Y-138655077D01*
X96004729Y-138845364D01*
X95653044Y-139726591D01*
X76757256Y-139726591D01*
X76143634Y-139471793D01*
X75244312Y-139471008D01*
X74413146Y-139814439D01*
X73776674Y-140449801D01*
X73431793Y-141280366D01*
X73431008Y-142179688D01*
X65252210Y-142179688D01*
X65252992Y-141284312D01*
X64909561Y-140453146D01*
X64274199Y-139816674D01*
X63443634Y-139471793D01*
X62544312Y-139471008D01*
X61713146Y-139814439D01*
X61416000Y-140111067D01*
X61416000Y-137690661D01*
X64388758Y-137690661D01*
X64600990Y-138204303D01*
X64993630Y-138597629D01*
X65456369Y-138789775D01*
X65405243Y-138912900D01*
X65404758Y-139468661D01*
X65616990Y-139982303D01*
X66009630Y-140375629D01*
X66522900Y-140588757D01*
X67078661Y-140589242D01*
X67592303Y-140377010D01*
X67818049Y-140151658D01*
X68041630Y-140375629D01*
X68554900Y-140588757D01*
X69110661Y-140589242D01*
X69624303Y-140377010D01*
X69829457Y-140172213D01*
X70065392Y-140172213D01*
X70134857Y-140414397D01*
X70658302Y-140601144D01*
X71213368Y-140573362D01*
X71597143Y-140414397D01*
X71666608Y-140172213D01*
X70866000Y-139371605D01*
X70065392Y-140172213D01*
X69829457Y-140172213D01*
X70017629Y-139984370D01*
X70105399Y-139772996D01*
X70686395Y-139192000D01*
X70672253Y-139177858D01*
X70851858Y-138998253D01*
X70866000Y-139012395D01*
X70880143Y-138998253D01*
X71059748Y-139177858D01*
X71045605Y-139192000D01*
X71626440Y-139772835D01*
X71712990Y-139982303D01*
X72105630Y-140375629D01*
X72618900Y-140588757D01*
X73174661Y-140589242D01*
X73688303Y-140377010D01*
X74081629Y-139984370D01*
X74294757Y-139471100D01*
X74295242Y-138915339D01*
X74083010Y-138401697D01*
X73921096Y-138239500D01*
X89421973Y-138239500D01*
X89644997Y-138462914D01*
X90227341Y-138704724D01*
X90857893Y-138705275D01*
X91414056Y-138475472D01*
X96529077Y-138475472D01*
X98044000Y-139990395D01*
X99558923Y-138475472D01*
X99368636Y-138130729D01*
X98487409Y-137779044D01*
X97538677Y-137791359D01*
X96719364Y-138130729D01*
X96529077Y-138475472D01*
X91414056Y-138475472D01*
X91440657Y-138464481D01*
X91886914Y-138019003D01*
X92128724Y-137436659D01*
X92128726Y-137433893D01*
X103458725Y-137433893D01*
X103699519Y-138016657D01*
X104144997Y-138462914D01*
X104727341Y-138704724D01*
X105357893Y-138705275D01*
X105940657Y-138464481D01*
X106386914Y-138019003D01*
X106628724Y-137436659D01*
X106629275Y-136806107D01*
X106388481Y-136223343D01*
X105943003Y-135777086D01*
X105360659Y-135535276D01*
X104730107Y-135534725D01*
X104147343Y-135775519D01*
X103701086Y-136220997D01*
X103459276Y-136803341D01*
X103458725Y-137433893D01*
X92128726Y-137433893D01*
X92129275Y-136806107D01*
X91888481Y-136223343D01*
X91535529Y-135869774D01*
X91886914Y-135519003D01*
X92128724Y-134936659D01*
X92129275Y-134306107D01*
X91888481Y-133723343D01*
X91535529Y-133369774D01*
X91886914Y-133019003D01*
X92128724Y-132436659D01*
X92129275Y-131806107D01*
X92046179Y-131604999D01*
X96243623Y-131604999D01*
X97342339Y-132703714D01*
X97342341Y-132703717D01*
X97549033Y-132841824D01*
X97610153Y-132882663D01*
X97926058Y-132945501D01*
X97926063Y-132945500D01*
X103670117Y-132945500D01*
X103699519Y-133016657D01*
X104144997Y-133462914D01*
X104727341Y-133704724D01*
X105357893Y-133705275D01*
X105940657Y-133464481D01*
X106386914Y-133019003D01*
X106406622Y-132971540D01*
X106957120Y-132971540D01*
X106957120Y-134170420D01*
X107001398Y-134405737D01*
X107140470Y-134621861D01*
X107148659Y-134627456D01*
X107066233Y-134709882D01*
X106969560Y-134943271D01*
X106969560Y-135383270D01*
X107128310Y-135542020D01*
X108077000Y-135542020D01*
X108077000Y-135522020D01*
X108331000Y-135522020D01*
X108331000Y-135542020D01*
X108351000Y-135542020D01*
X108351000Y-135796020D01*
X108331000Y-135796020D01*
X108331000Y-135816020D01*
X108077000Y-135816020D01*
X108077000Y-135796020D01*
X107128310Y-135796020D01*
X106969560Y-135954770D01*
X106969560Y-136394769D01*
X107066233Y-136628158D01*
X107244861Y-136806787D01*
X107478250Y-136903460D01*
X107554603Y-136903460D01*
X107485580Y-136949580D01*
X107265338Y-137279194D01*
X107188000Y-137668000D01*
X107265338Y-138056806D01*
X107485580Y-138386420D01*
X107815194Y-138606662D01*
X108204000Y-138684000D01*
X108628264Y-138684000D01*
X108952564Y-138619493D01*
X109017071Y-138606662D01*
X109346684Y-138386420D01*
X110446421Y-137286684D01*
X110666662Y-136957071D01*
X110744000Y-136568264D01*
X110744000Y-133733540D01*
X110690481Y-133464481D01*
X110666662Y-133344733D01*
X110446421Y-133015120D01*
X110283860Y-132852560D01*
X109954247Y-132632318D01*
X109889740Y-132619487D01*
X109565440Y-132554980D01*
X109289975Y-132554980D01*
X109267530Y-132520099D01*
X109055330Y-132375109D01*
X108803440Y-132324100D01*
X107604560Y-132324100D01*
X107369243Y-132368378D01*
X107153119Y-132507450D01*
X107008129Y-132719650D01*
X106957120Y-132971540D01*
X106406622Y-132971540D01*
X106628724Y-132436659D01*
X106629275Y-131806107D01*
X106388481Y-131223343D01*
X105943003Y-130777086D01*
X105360659Y-130535276D01*
X104730107Y-130534725D01*
X104147343Y-130775519D01*
X103701086Y-131220997D01*
X103670565Y-131294500D01*
X98921453Y-131294500D01*
X99368636Y-131109271D01*
X99558923Y-130764528D01*
X98044000Y-129249605D01*
X98029858Y-129263748D01*
X97850253Y-129084143D01*
X97864395Y-129070000D01*
X98223605Y-129070000D01*
X99738528Y-130584923D01*
X100083271Y-130394636D01*
X100434956Y-129513409D01*
X100422641Y-128564677D01*
X100083271Y-127745364D01*
X99738528Y-127555077D01*
X98223605Y-129070000D01*
X97864395Y-129070000D01*
X96349472Y-127555077D01*
X96004729Y-127745364D01*
X95653044Y-128626591D01*
X95665359Y-129575323D01*
X95822211Y-129953999D01*
X89142928Y-129953999D01*
X89078700Y-129889771D01*
X88810889Y-129710825D01*
X88494983Y-129647988D01*
X74758512Y-129647988D01*
X74442606Y-129710825D01*
X74174795Y-129889771D01*
X68047366Y-136017200D01*
X67541339Y-136016758D01*
X67027697Y-136228990D01*
X66801951Y-136454342D01*
X66578370Y-136230371D01*
X66065100Y-136017243D01*
X65509339Y-136016758D01*
X64995697Y-136228990D01*
X64602371Y-136621630D01*
X64389243Y-137134900D01*
X64388758Y-137690661D01*
X61416000Y-137690661D01*
X61416000Y-127375472D01*
X96529077Y-127375472D01*
X98044000Y-128890395D01*
X99558923Y-127375472D01*
X99368636Y-127030729D01*
X98487409Y-126679044D01*
X97538677Y-126691359D01*
X96719364Y-127030729D01*
X96529077Y-127375472D01*
X61416000Y-127375472D01*
X61416000Y-124745750D01*
X95793560Y-124745750D01*
X95793560Y-125185750D01*
X95890233Y-125419139D01*
X96068862Y-125597767D01*
X96302251Y-125694440D01*
X96742250Y-125694440D01*
X96901000Y-125535690D01*
X96901000Y-124587000D01*
X95952310Y-124587000D01*
X95793560Y-124745750D01*
X61416000Y-124745750D01*
X61416000Y-123734250D01*
X95793560Y-123734250D01*
X95793560Y-124174250D01*
X95952310Y-124333000D01*
X96901000Y-124333000D01*
X96901000Y-123384310D01*
X97155000Y-123384310D01*
X97155000Y-124333000D01*
X97175000Y-124333000D01*
X97175000Y-124587000D01*
X97155000Y-124587000D01*
X97155000Y-125535690D01*
X97313750Y-125694440D01*
X97753749Y-125694440D01*
X97987138Y-125597767D01*
X98069351Y-125515555D01*
X98274710Y-125655871D01*
X98526600Y-125706880D01*
X99725480Y-125706880D01*
X99960797Y-125662602D01*
X100176921Y-125523530D01*
X100321911Y-125311330D01*
X100327142Y-125285500D01*
X100480472Y-125285500D01*
X100515731Y-125320821D01*
X100889018Y-125475824D01*
X101293208Y-125476176D01*
X101666766Y-125321825D01*
X101952821Y-125036269D01*
X102107824Y-124662982D01*
X102108176Y-124258792D01*
X101953825Y-123885234D01*
X101668269Y-123599179D01*
X101294982Y-123444176D01*
X100890792Y-123443824D01*
X100517234Y-123598175D01*
X100480846Y-123634500D01*
X100330384Y-123634500D01*
X100328642Y-123625243D01*
X100189570Y-123409119D01*
X99977370Y-123264129D01*
X99725480Y-123213120D01*
X98526600Y-123213120D01*
X98291283Y-123257398D01*
X98075159Y-123396470D01*
X98069564Y-123404659D01*
X97987138Y-123322233D01*
X97753749Y-123225560D01*
X97313750Y-123225560D01*
X97155000Y-123384310D01*
X96901000Y-123384310D01*
X96742250Y-123225560D01*
X96302251Y-123225560D01*
X96068862Y-123322233D01*
X95890233Y-123500861D01*
X95793560Y-123734250D01*
X61416000Y-123734250D01*
X61416000Y-117437389D01*
X74015519Y-117437389D01*
X74071200Y-117667984D01*
X74554007Y-117835995D01*
X75064357Y-117806456D01*
X75398658Y-117667984D01*
X75454339Y-117437389D01*
X74734929Y-116717978D01*
X74015519Y-117437389D01*
X61416000Y-117437389D01*
X61416000Y-116357451D01*
X73437307Y-116357451D01*
X73466846Y-116867801D01*
X73605318Y-117202102D01*
X73835913Y-117257783D01*
X74555324Y-116538373D01*
X74914534Y-116538373D01*
X75633945Y-117257783D01*
X75864540Y-117202102D01*
X75937489Y-116992471D01*
X75937489Y-117188373D01*
X75981767Y-117423690D01*
X76120839Y-117639814D01*
X76333039Y-117784804D01*
X76584929Y-117835813D01*
X77884929Y-117835813D01*
X78120246Y-117791535D01*
X78336370Y-117652463D01*
X78481360Y-117440263D01*
X78532369Y-117188373D01*
X78532369Y-115888373D01*
X78488091Y-115653056D01*
X78349019Y-115436932D01*
X78136819Y-115291942D01*
X77884929Y-115240933D01*
X76584929Y-115240933D01*
X76349612Y-115285211D01*
X76133488Y-115424283D01*
X75988498Y-115636483D01*
X75937489Y-115888373D01*
X75937489Y-116050758D01*
X75864540Y-115874644D01*
X75633945Y-115818963D01*
X74914534Y-116538373D01*
X74555324Y-116538373D01*
X73835913Y-115818963D01*
X73605318Y-115874644D01*
X73437307Y-116357451D01*
X61416000Y-116357451D01*
X61416000Y-115639357D01*
X74015519Y-115639357D01*
X74734929Y-116358768D01*
X75454339Y-115639357D01*
X75398658Y-115408762D01*
X74915851Y-115240751D01*
X74405501Y-115270290D01*
X74071200Y-115408762D01*
X74015519Y-115639357D01*
X61416000Y-115639357D01*
X61416000Y-100416701D01*
X82929359Y-100416701D01*
X83071404Y-100760477D01*
X83334194Y-101023726D01*
X83426300Y-101061972D01*
X83426300Y-102394487D01*
X83316962Y-102657801D01*
X83316638Y-103029767D01*
X83458683Y-103373543D01*
X83721473Y-103636792D01*
X84065001Y-103779438D01*
X84436967Y-103779762D01*
X84780743Y-103637717D01*
X85043992Y-103374927D01*
X85186638Y-103031399D01*
X85186962Y-102659433D01*
X85077300Y-102394030D01*
X85077300Y-100618818D01*
X85077301Y-100618813D01*
X85014463Y-100302908D01*
X84956144Y-100215627D01*
X84835517Y-100035096D01*
X84835514Y-100035094D01*
X84766515Y-99966094D01*
X84657638Y-99702591D01*
X84394848Y-99439342D01*
X84051320Y-99296696D01*
X83679354Y-99296372D01*
X83335578Y-99438417D01*
X83072329Y-99701207D01*
X82929683Y-100044735D01*
X82929359Y-100416701D01*
X61416000Y-100416701D01*
X61416000Y-54674159D01*
X73013446Y-54674159D01*
X73099852Y-54930643D01*
X73673336Y-55140458D01*
X74283460Y-55114839D01*
X74728148Y-54930643D01*
X74814554Y-54674159D01*
X73914000Y-53773605D01*
X73013446Y-54674159D01*
X61416000Y-54674159D01*
X61416000Y-53353336D01*
X72367542Y-53353336D01*
X72393161Y-53963460D01*
X72577357Y-54408148D01*
X72833841Y-54494554D01*
X73734395Y-53594000D01*
X74093605Y-53594000D01*
X74994159Y-54494554D01*
X75144327Y-54443965D01*
X75151932Y-54462371D01*
X75583357Y-54894551D01*
X76147330Y-55128733D01*
X76757991Y-55129265D01*
X77322371Y-54896068D01*
X77724323Y-54494818D01*
X78123357Y-54894551D01*
X78687330Y-55128733D01*
X79297991Y-55129265D01*
X79862371Y-54896068D01*
X80264323Y-54494818D01*
X80663357Y-54894551D01*
X81227330Y-55128733D01*
X81837991Y-55129265D01*
X82402371Y-54896068D01*
X82804323Y-54494818D01*
X83203357Y-54894551D01*
X83767330Y-55128733D01*
X84377991Y-55129265D01*
X84942371Y-54896068D01*
X85344323Y-54494818D01*
X85743357Y-54894551D01*
X86307330Y-55128733D01*
X86917991Y-55129265D01*
X87482371Y-54896068D01*
X87884323Y-54494818D01*
X88283357Y-54894551D01*
X88847330Y-55128733D01*
X89457991Y-55129265D01*
X90022371Y-54896068D01*
X90424323Y-54494818D01*
X90823357Y-54894551D01*
X91387330Y-55128733D01*
X91997991Y-55129265D01*
X92562371Y-54896068D01*
X92964323Y-54494818D01*
X93363357Y-54894551D01*
X93927330Y-55128733D01*
X94537991Y-55129265D01*
X95102371Y-54896068D01*
X95504323Y-54494818D01*
X95903357Y-54894551D01*
X96467330Y-55128733D01*
X97077991Y-55129265D01*
X97642371Y-54896068D01*
X98044323Y-54494818D01*
X98443357Y-54894551D01*
X99007330Y-55128733D01*
X99617991Y-55129265D01*
X100182371Y-54896068D01*
X100584323Y-54494818D01*
X100983357Y-54894551D01*
X101547330Y-55128733D01*
X102157991Y-55129265D01*
X102722371Y-54896068D01*
X103124323Y-54494818D01*
X103523357Y-54894551D01*
X104087330Y-55128733D01*
X104697991Y-55129265D01*
X105262371Y-54896068D01*
X105664323Y-54494818D01*
X106063357Y-54894551D01*
X106627330Y-55128733D01*
X107237991Y-55129265D01*
X107802371Y-54896068D01*
X108204323Y-54494818D01*
X108603357Y-54894551D01*
X109167330Y-55128733D01*
X109777991Y-55129265D01*
X110342371Y-54896068D01*
X110744323Y-54494818D01*
X111143357Y-54894551D01*
X111707330Y-55128733D01*
X112317991Y-55129265D01*
X112882371Y-54896068D01*
X113284323Y-54494818D01*
X113683357Y-54894551D01*
X114247330Y-55128733D01*
X114857991Y-55129265D01*
X115422371Y-54896068D01*
X115824323Y-54494818D01*
X116223357Y-54894551D01*
X116787330Y-55128733D01*
X117397991Y-55129265D01*
X117962371Y-54896068D01*
X118364323Y-54494818D01*
X118763357Y-54894551D01*
X119327330Y-55128733D01*
X119937991Y-55129265D01*
X120502371Y-54896068D01*
X120724668Y-54674159D01*
X121273446Y-54674159D01*
X121359852Y-54930643D01*
X121933336Y-55140458D01*
X122543460Y-55114839D01*
X122988148Y-54930643D01*
X123074554Y-54674159D01*
X122174000Y-53773605D01*
X121273446Y-54674159D01*
X120724668Y-54674159D01*
X120934551Y-54464643D01*
X120943203Y-54443806D01*
X121093841Y-54494554D01*
X121994395Y-53594000D01*
X122353605Y-53594000D01*
X123254159Y-54494554D01*
X123510643Y-54408148D01*
X123720458Y-53834664D01*
X123694839Y-53224540D01*
X123510643Y-52779852D01*
X123254159Y-52693446D01*
X122353605Y-53594000D01*
X121994395Y-53594000D01*
X121093841Y-52693446D01*
X120943673Y-52744035D01*
X120936068Y-52725629D01*
X120724650Y-52513841D01*
X121273446Y-52513841D01*
X122174000Y-53414395D01*
X123074554Y-52513841D01*
X122988148Y-52257357D01*
X122414664Y-52047542D01*
X121804540Y-52073161D01*
X121359852Y-52257357D01*
X121273446Y-52513841D01*
X120724650Y-52513841D01*
X120504643Y-52293449D01*
X119940670Y-52059267D01*
X119330009Y-52058735D01*
X118765629Y-52291932D01*
X118363677Y-52693182D01*
X117964643Y-52293449D01*
X117400670Y-52059267D01*
X116790009Y-52058735D01*
X116225629Y-52291932D01*
X115823677Y-52693182D01*
X115424643Y-52293449D01*
X114860670Y-52059267D01*
X114250009Y-52058735D01*
X113685629Y-52291932D01*
X113283677Y-52693182D01*
X112884643Y-52293449D01*
X112320670Y-52059267D01*
X111710009Y-52058735D01*
X111145629Y-52291932D01*
X110743677Y-52693182D01*
X110344643Y-52293449D01*
X109780670Y-52059267D01*
X109170009Y-52058735D01*
X108605629Y-52291932D01*
X108203677Y-52693182D01*
X107804643Y-52293449D01*
X107240670Y-52059267D01*
X106630009Y-52058735D01*
X106065629Y-52291932D01*
X105663677Y-52693182D01*
X105264643Y-52293449D01*
X104700670Y-52059267D01*
X104090009Y-52058735D01*
X103525629Y-52291932D01*
X103123677Y-52693182D01*
X102724643Y-52293449D01*
X102160670Y-52059267D01*
X101550009Y-52058735D01*
X100985629Y-52291932D01*
X100583677Y-52693182D01*
X100184643Y-52293449D01*
X99620670Y-52059267D01*
X99010009Y-52058735D01*
X98445629Y-52291932D01*
X98043677Y-52693182D01*
X97644643Y-52293449D01*
X97080670Y-52059267D01*
X96470009Y-52058735D01*
X95905629Y-52291932D01*
X95503677Y-52693182D01*
X95104643Y-52293449D01*
X94540670Y-52059267D01*
X93930009Y-52058735D01*
X93365629Y-52291932D01*
X92963677Y-52693182D01*
X92564643Y-52293449D01*
X92000670Y-52059267D01*
X91390009Y-52058735D01*
X90825629Y-52291932D01*
X90423677Y-52693182D01*
X90024643Y-52293449D01*
X89460670Y-52059267D01*
X88850009Y-52058735D01*
X88285629Y-52291932D01*
X87883677Y-52693182D01*
X87484643Y-52293449D01*
X86920670Y-52059267D01*
X86310009Y-52058735D01*
X85745629Y-52291932D01*
X85343677Y-52693182D01*
X84944643Y-52293449D01*
X84380670Y-52059267D01*
X83770009Y-52058735D01*
X83205629Y-52291932D01*
X82803677Y-52693182D01*
X82404643Y-52293449D01*
X81840670Y-52059267D01*
X81230009Y-52058735D01*
X80665629Y-52291932D01*
X80263677Y-52693182D01*
X79864643Y-52293449D01*
X79300670Y-52059267D01*
X78690009Y-52058735D01*
X78125629Y-52291932D01*
X77723677Y-52693182D01*
X77324643Y-52293449D01*
X76760670Y-52059267D01*
X76150009Y-52058735D01*
X75585629Y-52291932D01*
X75153449Y-52723357D01*
X75144797Y-52744194D01*
X74994159Y-52693446D01*
X74093605Y-53594000D01*
X73734395Y-53594000D01*
X72833841Y-52693446D01*
X72577357Y-52779852D01*
X72367542Y-53353336D01*
X61416000Y-53353336D01*
X61416000Y-52513841D01*
X73013446Y-52513841D01*
X73914000Y-53414395D01*
X74814554Y-52513841D01*
X74728148Y-52257357D01*
X74154664Y-52047542D01*
X73544540Y-52073161D01*
X73099852Y-52257357D01*
X73013446Y-52513841D01*
X61416000Y-52513841D01*
X61416000Y-51002000D01*
X134672000Y-51002000D01*
X134672000Y-146610000D01*
G36*
X87017289Y-132388940D02*
X86833119Y-132507450D01*
X86688129Y-132719650D01*
X86637120Y-132971540D01*
X86637120Y-134170420D01*
X86681398Y-134405737D01*
X86820470Y-134621861D01*
X86828659Y-134627456D01*
X86746233Y-134709882D01*
X86649560Y-134943271D01*
X86649560Y-135383270D01*
X86808310Y-135542020D01*
X87757000Y-135542020D01*
X87757000Y-135522020D01*
X88011000Y-135522020D01*
X88011000Y-135542020D01*
X88959690Y-135542020D01*
X89118440Y-135383270D01*
X89118440Y-135320432D01*
X89199519Y-135516657D01*
X89552471Y-135870226D01*
X89201086Y-136220997D01*
X89048486Y-136588500D01*
X89038194Y-136588500D01*
X89118440Y-136394769D01*
X89118440Y-135954770D01*
X88959690Y-135796020D01*
X88011000Y-135796020D01*
X88011000Y-135816020D01*
X87757000Y-135816020D01*
X87757000Y-135796020D01*
X86808310Y-135796020D01*
X86649560Y-135954770D01*
X86649560Y-136394769D01*
X86729806Y-136588500D01*
X73031874Y-136588500D01*
X72674370Y-136230371D01*
X72339933Y-136091501D01*
X76245423Y-132186010D01*
X86933440Y-132186010D01*
X87017289Y-132388940D01*
X87017289Y-132388940D01*
G37*
X87017289Y-132388940D02*
X86833119Y-132507450D01*
X86688129Y-132719650D01*
X86637120Y-132971540D01*
X86637120Y-134170420D01*
X86681398Y-134405737D01*
X86820470Y-134621861D01*
X86828659Y-134627456D01*
X86746233Y-134709882D01*
X86649560Y-134943271D01*
X86649560Y-135383270D01*
X86808310Y-135542020D01*
X87757000Y-135542020D01*
X87757000Y-135522020D01*
X88011000Y-135522020D01*
X88011000Y-135542020D01*
X88959690Y-135542020D01*
X89118440Y-135383270D01*
X89118440Y-135320432D01*
X89199519Y-135516657D01*
X89552471Y-135870226D01*
X89201086Y-136220997D01*
X89048486Y-136588500D01*
X89038194Y-136588500D01*
X89118440Y-136394769D01*
X89118440Y-135954770D01*
X88959690Y-135796020D01*
X88011000Y-135796020D01*
X88011000Y-135816020D01*
X87757000Y-135816020D01*
X87757000Y-135796020D01*
X86808310Y-135796020D01*
X86649560Y-135954770D01*
X86649560Y-136394769D01*
X86729806Y-136588500D01*
X73031874Y-136588500D01*
X72674370Y-136230371D01*
X72339933Y-136091501D01*
X76245423Y-132186010D01*
X86933440Y-132186010D01*
X87017289Y-132388940D01*
M02*
