G04 #@! TF.FileFunction,Legend,Bot*
%FSLAX46Y46*%
G04 Gerber Fmt 4.6, Leading zero omitted, Abs format (unit mm)*
G04 Created by KiCad (PCBNEW 4.0.2+dfsg1-stable) date Mon 11 Jun 2018 12:13:27 PM EDT*
%MOMM*%
G01*
G04 APERTURE LIST*
%ADD10C,0.100000*%
%ADD11C,0.381000*%
%ADD12C,0.150000*%
G04 APERTURE END LIST*
D10*
D11*
X72644000Y-52324000D02*
X123444000Y-52324000D01*
X72644000Y-54864000D02*
X72644000Y-52324000D01*
X123444000Y-54864000D02*
X72644000Y-54864000D01*
X123444000Y-52324000D02*
X123444000Y-54864000D01*
D12*
X87134000Y-136220000D02*
X87134000Y-133520000D01*
X88634000Y-136220000D02*
X88634000Y-133520000D01*
X87734000Y-134720000D02*
X87984000Y-134720000D01*
X87984000Y-134720000D02*
X87834000Y-134870000D01*
X88234000Y-134970000D02*
X87534000Y-134970000D01*
X87884000Y-134620000D02*
X87884000Y-134270000D01*
X87884000Y-134970000D02*
X88234000Y-134620000D01*
X88234000Y-134620000D02*
X87534000Y-134620000D01*
X87534000Y-134620000D02*
X87884000Y-134970000D01*
X99644000Y-145530000D02*
X96944000Y-145530000D01*
X99644000Y-144030000D02*
X96944000Y-144030000D01*
X98144000Y-144930000D02*
X98144000Y-144680000D01*
X98144000Y-144680000D02*
X98294000Y-144830000D01*
X98394000Y-144430000D02*
X98394000Y-145130000D01*
X98044000Y-144780000D02*
X97694000Y-144780000D01*
X98394000Y-144780000D02*
X98044000Y-144430000D01*
X98044000Y-144430000D02*
X98044000Y-145130000D01*
X98044000Y-145130000D02*
X98394000Y-144780000D01*
X107454000Y-136220000D02*
X107454000Y-133520000D01*
X108954000Y-136220000D02*
X108954000Y-133520000D01*
X108054000Y-134720000D02*
X108304000Y-134720000D01*
X108304000Y-134720000D02*
X108154000Y-134870000D01*
X108554000Y-134970000D02*
X107854000Y-134970000D01*
X108204000Y-134620000D02*
X108204000Y-134270000D01*
X108204000Y-134970000D02*
X108554000Y-134620000D01*
X108554000Y-134620000D02*
X107854000Y-134620000D01*
X107854000Y-134620000D02*
X108204000Y-134970000D01*
X96477020Y-123710000D02*
X99177020Y-123710000D01*
X96477020Y-125210000D02*
X99177020Y-125210000D01*
X97977020Y-124310000D02*
X97977020Y-124560000D01*
X97977020Y-124560000D02*
X97827020Y-124410000D01*
X97727020Y-124810000D02*
X97727020Y-124110000D01*
X98077020Y-124460000D02*
X98427020Y-124460000D01*
X97727020Y-124460000D02*
X98077020Y-124810000D01*
X98077020Y-124810000D02*
X98077020Y-124110000D01*
X98077020Y-124110000D02*
X97727020Y-124460000D01*
D11*
X104644000Y-133420000D02*
X104644000Y-135820000D01*
X104644000Y-128020000D02*
X99944000Y-128020000D01*
X104644000Y-130820000D02*
X104644000Y-128020000D01*
X104644000Y-141220000D02*
X104644000Y-138420000D01*
X104644000Y-141220000D02*
X99944000Y-141220000D01*
X96144000Y-128020000D02*
X91444000Y-128020000D01*
X91444000Y-131120000D02*
X91444000Y-128020000D01*
X91444000Y-141220000D02*
X91444000Y-138120000D01*
X96144000Y-141220000D02*
X91444000Y-141220000D01*
D12*
X71258286Y-54046381D02*
X71258286Y-53046381D01*
X71020191Y-53046381D01*
X70877333Y-53094000D01*
X70782095Y-53189238D01*
X70734476Y-53284476D01*
X70686857Y-53474952D01*
X70686857Y-53617810D01*
X70734476Y-53808286D01*
X70782095Y-53903524D01*
X70877333Y-53998762D01*
X71020191Y-54046381D01*
X71258286Y-54046381D01*
X70305905Y-53998762D02*
X70163048Y-54046381D01*
X69924952Y-54046381D01*
X69829714Y-53998762D01*
X69782095Y-53951143D01*
X69734476Y-53855905D01*
X69734476Y-53760667D01*
X69782095Y-53665429D01*
X69829714Y-53617810D01*
X69924952Y-53570190D01*
X70115429Y-53522571D01*
X70210667Y-53474952D01*
X70258286Y-53427333D01*
X70305905Y-53332095D01*
X70305905Y-53236857D01*
X70258286Y-53141619D01*
X70210667Y-53094000D01*
X70115429Y-53046381D01*
X69877333Y-53046381D01*
X69734476Y-53094000D01*
X68782095Y-54046381D02*
X69353524Y-54046381D01*
X69067810Y-54046381D02*
X69067810Y-53046381D01*
X69163048Y-53189238D01*
X69258286Y-53284476D01*
X69353524Y-53332095D01*
X88336381Y-136675905D02*
X87336381Y-136675905D01*
X87336381Y-136914000D01*
X87384000Y-137056858D01*
X87479238Y-137152096D01*
X87574476Y-137199715D01*
X87764952Y-137247334D01*
X87907810Y-137247334D01*
X88098286Y-137199715D01*
X88193524Y-137152096D01*
X88288762Y-137056858D01*
X88336381Y-136914000D01*
X88336381Y-136675905D01*
X88336381Y-138199715D02*
X88336381Y-137628286D01*
X88336381Y-137914000D02*
X87336381Y-137914000D01*
X87479238Y-137818762D01*
X87574476Y-137723524D01*
X87622095Y-137628286D01*
X101576095Y-145232381D02*
X101576095Y-144232381D01*
X101338000Y-144232381D01*
X101195142Y-144280000D01*
X101099904Y-144375238D01*
X101052285Y-144470476D01*
X101004666Y-144660952D01*
X101004666Y-144803810D01*
X101052285Y-144994286D01*
X101099904Y-145089524D01*
X101195142Y-145184762D01*
X101338000Y-145232381D01*
X101576095Y-145232381D01*
X100623714Y-144327619D02*
X100576095Y-144280000D01*
X100480857Y-144232381D01*
X100242761Y-144232381D01*
X100147523Y-144280000D01*
X100099904Y-144327619D01*
X100052285Y-144422857D01*
X100052285Y-144518095D01*
X100099904Y-144660952D01*
X100671333Y-145232381D01*
X100052285Y-145232381D01*
X108656381Y-136675905D02*
X107656381Y-136675905D01*
X107656381Y-136914000D01*
X107704000Y-137056858D01*
X107799238Y-137152096D01*
X107894476Y-137199715D01*
X108084952Y-137247334D01*
X108227810Y-137247334D01*
X108418286Y-137199715D01*
X108513524Y-137152096D01*
X108608762Y-137056858D01*
X108656381Y-136914000D01*
X108656381Y-136675905D01*
X107656381Y-137580667D02*
X107656381Y-138199715D01*
X108037333Y-137866381D01*
X108037333Y-138009239D01*
X108084952Y-138104477D01*
X108132571Y-138152096D01*
X108227810Y-138199715D01*
X108465905Y-138199715D01*
X108561143Y-138152096D01*
X108608762Y-138104477D01*
X108656381Y-138009239D01*
X108656381Y-137723524D01*
X108608762Y-137628286D01*
X108561143Y-137580667D01*
X95988095Y-124912381D02*
X95988095Y-123912381D01*
X95750000Y-123912381D01*
X95607142Y-123960000D01*
X95511904Y-124055238D01*
X95464285Y-124150476D01*
X95416666Y-124340952D01*
X95416666Y-124483810D01*
X95464285Y-124674286D01*
X95511904Y-124769524D01*
X95607142Y-124864762D01*
X95750000Y-124912381D01*
X95988095Y-124912381D01*
X94559523Y-124245714D02*
X94559523Y-124912381D01*
X94797619Y-123864762D02*
X95035714Y-124579048D01*
X94416666Y-124579048D01*
X90218571Y-127023714D02*
X90218571Y-127357048D01*
X90742381Y-127499905D02*
X90742381Y-127023714D01*
X89742381Y-127023714D01*
X89742381Y-127499905D01*
X90742381Y-127928476D02*
X89742381Y-127928476D01*
X90742381Y-128499905D01*
X89742381Y-128499905D01*
X90647143Y-129547524D02*
X90694762Y-129499905D01*
X90742381Y-129357048D01*
X90742381Y-129261810D01*
X90694762Y-129118952D01*
X90599524Y-129023714D01*
X90504286Y-128976095D01*
X90313810Y-128928476D01*
X90170952Y-128928476D01*
X89980476Y-128976095D01*
X89885238Y-129023714D01*
X89790000Y-129118952D01*
X89742381Y-129261810D01*
X89742381Y-129357048D01*
X89790000Y-129499905D01*
X89837619Y-129547524D01*
X90742381Y-130499905D02*
X90742381Y-129928476D01*
X90742381Y-130214190D02*
X89742381Y-130214190D01*
X89885238Y-130118952D01*
X89980476Y-130023714D01*
X90028095Y-129928476D01*
M02*
