G04 #@! TF.FileFunction,Legend,Top*
%FSLAX46Y46*%
G04 Gerber Fmt 4.6, Leading zero omitted, Abs format (unit mm)*
G04 Created by KiCad (PCBNEW 4.0.2+dfsg1-stable) date Mon 18 Jun 2018 02:06:16 PM EDT*
%MOMM*%
G01*
G04 APERTURE LIST*
%ADD10C,0.100000*%
%ADD11C,0.300000*%
%ADD12C,0.200000*%
%ADD13C,0.275000*%
%ADD14C,0.381000*%
%ADD15C,0.150000*%
%ADD16C,0.120000*%
G04 APERTURE END LIST*
D10*
D11*
X83458857Y-83515999D02*
X83458857Y-83965999D01*
X84244571Y-83965999D02*
X82744571Y-83965999D01*
X82744571Y-83323142D01*
X84244571Y-82165999D02*
X84244571Y-82808856D01*
X82744571Y-82808856D01*
X82744571Y-81458857D02*
X82744571Y-81201714D01*
X82816000Y-81073142D01*
X82958857Y-80944571D01*
X83244571Y-80880285D01*
X83744571Y-80880285D01*
X84030286Y-80944571D01*
X84173143Y-81073142D01*
X84244571Y-81201714D01*
X84244571Y-81458857D01*
X84173143Y-81587428D01*
X84030286Y-81715999D01*
X83744571Y-81780285D01*
X83244571Y-81780285D01*
X82958857Y-81715999D01*
X82816000Y-81587428D01*
X82744571Y-81458857D01*
X83816000Y-80365999D02*
X83816000Y-79723142D01*
X84244571Y-80494571D02*
X82744571Y-80044571D01*
X84244571Y-79594571D01*
X82744571Y-79337428D02*
X82744571Y-78565999D01*
X84244571Y-78951713D02*
X82744571Y-78951713D01*
X84173143Y-77151714D02*
X84244571Y-76958857D01*
X84244571Y-76637428D01*
X84173143Y-76508857D01*
X84101714Y-76444571D01*
X83958857Y-76380286D01*
X83816000Y-76380286D01*
X83673143Y-76444571D01*
X83601714Y-76508857D01*
X83530286Y-76637428D01*
X83458857Y-76894571D01*
X83387429Y-77023143D01*
X83316000Y-77087428D01*
X83173143Y-77151714D01*
X83030286Y-77151714D01*
X82887429Y-77087428D01*
X82816000Y-77023143D01*
X82744571Y-76894571D01*
X82744571Y-76573143D01*
X82816000Y-76380286D01*
X82744571Y-75930286D02*
X84244571Y-75608857D01*
X83173143Y-75351714D01*
X84244571Y-75094572D01*
X82744571Y-74773143D01*
X84244571Y-74258857D02*
X82744571Y-74258857D01*
X82744571Y-73808858D02*
X82744571Y-73037429D01*
X84244571Y-73423143D02*
X82744571Y-73423143D01*
X84101714Y-71816001D02*
X84173143Y-71880287D01*
X84244571Y-72073144D01*
X84244571Y-72201715D01*
X84173143Y-72394572D01*
X84030286Y-72523144D01*
X83887429Y-72587429D01*
X83601714Y-72651715D01*
X83387429Y-72651715D01*
X83101714Y-72587429D01*
X82958857Y-72523144D01*
X82816000Y-72394572D01*
X82744571Y-72201715D01*
X82744571Y-72073144D01*
X82816000Y-71880287D01*
X82887429Y-71816001D01*
X84244571Y-71237429D02*
X82744571Y-71237429D01*
X83458857Y-71237429D02*
X83458857Y-70466001D01*
X84244571Y-70466001D02*
X82744571Y-70466001D01*
X141220009Y-77683330D02*
X141078588Y-77723736D01*
X140942218Y-77860106D01*
X140856355Y-78046985D01*
X140866456Y-78238914D01*
X140922015Y-78385386D01*
X141078589Y-78632874D01*
X141230111Y-78784396D01*
X141477599Y-78940970D01*
X141624071Y-78996529D01*
X141816000Y-79006630D01*
X142002878Y-78920767D01*
X142093791Y-78829853D01*
X142179654Y-78642975D01*
X142174604Y-78547010D01*
X141821050Y-78193457D01*
X141639223Y-78375285D01*
X143230213Y-77693431D02*
X142406939Y-77506554D01*
X142684731Y-78238913D02*
X141624071Y-77178253D01*
X141987725Y-76814599D01*
X142129147Y-76774193D01*
X142225111Y-76779244D01*
X142371584Y-76834802D01*
X142523106Y-76986325D01*
X142578665Y-77132798D01*
X142583716Y-77228761D01*
X142543310Y-77370183D01*
X142179655Y-77733838D01*
X142760492Y-76041832D02*
X142942319Y-75860005D01*
X143083741Y-75819599D01*
X143275670Y-75829700D01*
X143523157Y-75986273D01*
X143876711Y-76339827D01*
X144033285Y-76587315D01*
X144043386Y-76779244D01*
X144002979Y-76920665D01*
X143821152Y-77102492D01*
X143679731Y-77142899D01*
X143487803Y-77132797D01*
X143240315Y-76976223D01*
X142886761Y-76622670D01*
X142730188Y-76375182D01*
X142720086Y-76183254D01*
X142760492Y-76041832D01*
X143487802Y-75314522D02*
X144775747Y-76147898D01*
X144199960Y-75208456D01*
X145139401Y-75784243D01*
X144306026Y-74496298D01*
X146912219Y-74011425D02*
X146457650Y-74465994D01*
X145396990Y-73405334D01*
X147230417Y-73693227D02*
X146169757Y-72632567D01*
X147174858Y-71728482D02*
X147033437Y-71768887D01*
X146897066Y-71905258D01*
X146811204Y-72092136D01*
X146821305Y-72284065D01*
X146876864Y-72430537D01*
X147033438Y-72678025D01*
X147184960Y-72829547D01*
X147432448Y-72986121D01*
X147578920Y-73041680D01*
X147770849Y-73051781D01*
X147957727Y-72965918D01*
X148048640Y-72875004D01*
X148134503Y-72688127D01*
X148129452Y-72592162D01*
X147775899Y-72238608D01*
X147594071Y-72420436D01*
X148639580Y-72284065D02*
X147578920Y-71223404D01*
X148083996Y-71728481D02*
X148629478Y-71182999D01*
X149185062Y-71738583D02*
X148124402Y-70677922D01*
X148442600Y-70359724D02*
X148988082Y-69814242D01*
X149776001Y-71147643D02*
X148715341Y-70086983D01*
X150270976Y-70551654D02*
X150457854Y-70465790D01*
X150685139Y-70238506D01*
X150725545Y-70097085D01*
X150720494Y-70001120D01*
X150664935Y-69854649D01*
X150563920Y-69753633D01*
X150417448Y-69698075D01*
X150321483Y-69693024D01*
X150180063Y-69733430D01*
X149947727Y-69864750D01*
X149806306Y-69905157D01*
X149710342Y-69900105D01*
X149563869Y-69844547D01*
X149462854Y-69743532D01*
X149407296Y-69597060D01*
X149402245Y-69501095D01*
X149442651Y-69359673D01*
X149669935Y-69132389D01*
X149856813Y-69046527D01*
X125638019Y-77924305D02*
X126183501Y-77378823D01*
X126971421Y-78712224D02*
X125910760Y-77651564D01*
X126683526Y-76878798D02*
X126865354Y-76696970D01*
X127006776Y-76656564D01*
X127198705Y-76666666D01*
X127446192Y-76823239D01*
X127799745Y-77176792D01*
X127956319Y-77424280D01*
X127966421Y-77616209D01*
X127926014Y-77757630D01*
X127744187Y-77939458D01*
X127602766Y-77979864D01*
X127410837Y-77969762D01*
X127163349Y-77813188D01*
X126809796Y-77459635D01*
X126653223Y-77212148D01*
X126643121Y-77020219D01*
X126683526Y-76878798D01*
X128562411Y-77121233D02*
X127501751Y-76060573D01*
X127865405Y-75696919D01*
X128006827Y-75656513D01*
X128102791Y-75661564D01*
X128249264Y-75717122D01*
X128400786Y-75868645D01*
X128456345Y-76015118D01*
X128461396Y-76111081D01*
X128420990Y-76252503D01*
X128057335Y-76616158D01*
X128456345Y-75105979D02*
X129314975Y-75964609D01*
X129461446Y-76020168D01*
X129557411Y-76025219D01*
X129698832Y-75984812D01*
X129880659Y-75802985D01*
X129921066Y-75661563D01*
X129916015Y-75565599D01*
X129860457Y-75419127D01*
X129001827Y-74560497D01*
X130517056Y-75166588D02*
X129456396Y-74105928D01*
X129820051Y-73742273D01*
X129961473Y-73701867D01*
X130057437Y-73706919D01*
X130203909Y-73762477D01*
X130355431Y-73913999D01*
X130410990Y-74060472D01*
X130416041Y-74156436D01*
X130375635Y-74297858D01*
X130011980Y-74661512D01*
X132198960Y-73484684D02*
X131138300Y-72424024D01*
X131501954Y-72060370D01*
X131643376Y-72019964D01*
X131739341Y-72025015D01*
X131885813Y-72080573D01*
X132037335Y-72232096D01*
X132092894Y-72378569D01*
X132097945Y-72474532D01*
X132057539Y-72615954D01*
X131693884Y-72979609D01*
X132092894Y-71469430D02*
X132951524Y-72328060D01*
X133097995Y-72383619D01*
X133193960Y-72388670D01*
X133335381Y-72348263D01*
X133517209Y-72166436D01*
X133557615Y-72025014D01*
X133552564Y-71929050D01*
X133497006Y-71782578D01*
X132638376Y-70923948D01*
X134153605Y-71530039D02*
X133092945Y-70469379D01*
X134168758Y-70908795D01*
X133729341Y-69832983D01*
X134790001Y-70893643D01*
X135244570Y-70439074D02*
X134183910Y-69378414D01*
X134547564Y-69014760D01*
X134688986Y-68974354D01*
X134784951Y-68979405D01*
X134931423Y-69034963D01*
X135082945Y-69186486D01*
X135138504Y-69332959D01*
X135143555Y-69428922D01*
X135103149Y-69570344D01*
X134739494Y-69933999D01*
X113252628Y-81001016D02*
X112191968Y-79940356D01*
X112419252Y-79713072D01*
X112606131Y-79627209D01*
X112798060Y-79637310D01*
X112944531Y-79692869D01*
X113192019Y-79849443D01*
X113343542Y-80000965D01*
X113500116Y-80248453D01*
X113555675Y-80394925D01*
X113565776Y-80586854D01*
X113479912Y-80773732D01*
X113252628Y-81001016D01*
X113328389Y-78803935D02*
X113510217Y-78622107D01*
X113651639Y-78581701D01*
X113843567Y-78591803D01*
X114091055Y-78748376D01*
X114444608Y-79101929D01*
X114601182Y-79349417D01*
X114611284Y-79541346D01*
X114570877Y-79682767D01*
X114389049Y-79864595D01*
X114247629Y-79905001D01*
X114055700Y-79894899D01*
X113808212Y-79738325D01*
X113454659Y-79384772D01*
X113298085Y-79137285D01*
X113287984Y-78945356D01*
X113328389Y-78803935D01*
X115111310Y-79041320D02*
X115298187Y-78955457D01*
X115525472Y-78728172D01*
X115565878Y-78586752D01*
X115560827Y-78490787D01*
X115505268Y-78344315D01*
X115404253Y-78243300D01*
X115257782Y-78187741D01*
X115161817Y-78182690D01*
X115020396Y-78223097D01*
X114788061Y-78354416D01*
X114646639Y-78394823D01*
X114550675Y-78389772D01*
X114404203Y-78334214D01*
X114303188Y-78233198D01*
X114247629Y-78086726D01*
X114242578Y-77990762D01*
X114282984Y-77849340D01*
X114510268Y-77622056D01*
X114697146Y-77536193D01*
X116116411Y-78137233D02*
X115055751Y-77076573D01*
X116570979Y-77682665D02*
X115510319Y-76622005D01*
X117116461Y-77137183D01*
X116055801Y-76076523D01*
X117060903Y-75172437D02*
X116919482Y-75212842D01*
X116783111Y-75349212D01*
X116697249Y-75536091D01*
X116707350Y-75728020D01*
X116762909Y-75874492D01*
X116919483Y-76121980D01*
X117071005Y-76273502D01*
X117318493Y-76430076D01*
X117464965Y-76485635D01*
X117656894Y-76495736D01*
X117843772Y-76409873D01*
X117934685Y-76318959D01*
X118020548Y-76132082D01*
X118015497Y-76036117D01*
X117661944Y-75682563D01*
X117480117Y-75864391D01*
X119252934Y-75000710D02*
X118192274Y-73940050D01*
X118555929Y-73576395D01*
X118697351Y-73535989D01*
X118793315Y-73541041D01*
X118939787Y-73596599D01*
X119091310Y-73748121D01*
X119146868Y-73894594D01*
X119151919Y-73990558D01*
X119111513Y-74131980D01*
X118747859Y-74495634D01*
X119146868Y-72985456D02*
X120005498Y-73844086D01*
X120151970Y-73899644D01*
X120247935Y-73904695D01*
X120389355Y-73864289D01*
X120571183Y-73682461D01*
X120611590Y-73541040D01*
X120606538Y-73445076D01*
X120550980Y-73298604D01*
X119692350Y-72439974D01*
X121207580Y-73046065D02*
X120146920Y-71985404D01*
X121222732Y-72424821D01*
X120783316Y-71349008D01*
X121843976Y-72409668D01*
X122298544Y-71955100D02*
X121237884Y-70894440D01*
X121601539Y-70530785D01*
X121742961Y-70490379D01*
X121838925Y-70495431D01*
X121985397Y-70550989D01*
X122136920Y-70702511D01*
X122192478Y-70848984D01*
X122197529Y-70944948D01*
X122157123Y-71086370D01*
X121793469Y-71450024D01*
X124480473Y-69773171D02*
X123934991Y-70318653D01*
X124207732Y-70045912D02*
X123147072Y-68985252D01*
X123207681Y-69227689D01*
X123217782Y-69419618D01*
X123177377Y-69561039D01*
X102584628Y-81001016D02*
X101523968Y-79940356D01*
X101751252Y-79713072D01*
X101938131Y-79627209D01*
X102130060Y-79637310D01*
X102276531Y-79692869D01*
X102524019Y-79849443D01*
X102675542Y-80000965D01*
X102832116Y-80248453D01*
X102887675Y-80394925D01*
X102897776Y-80586854D01*
X102811912Y-80773732D01*
X102584628Y-81001016D01*
X102660389Y-78803935D02*
X102842217Y-78622107D01*
X102983639Y-78581701D01*
X103175567Y-78591803D01*
X103423055Y-78748376D01*
X103776608Y-79101929D01*
X103933182Y-79349417D01*
X103943284Y-79541346D01*
X103902877Y-79682767D01*
X103721049Y-79864595D01*
X103579629Y-79905001D01*
X103387700Y-79894899D01*
X103140212Y-79738325D01*
X102786659Y-79384772D01*
X102630085Y-79137285D01*
X102619984Y-78945356D01*
X102660389Y-78803935D01*
X104443310Y-79041320D02*
X104630187Y-78955457D01*
X104857472Y-78728172D01*
X104897878Y-78586752D01*
X104892827Y-78490787D01*
X104837268Y-78344315D01*
X104736253Y-78243300D01*
X104589782Y-78187741D01*
X104493817Y-78182690D01*
X104352396Y-78223097D01*
X104120061Y-78354416D01*
X103978639Y-78394823D01*
X103882675Y-78389772D01*
X103736203Y-78334214D01*
X103635188Y-78233198D01*
X103579629Y-78086726D01*
X103574578Y-77990762D01*
X103614984Y-77849340D01*
X103842268Y-77622056D01*
X104029146Y-77536193D01*
X105448411Y-78137233D02*
X104387751Y-77076573D01*
X105902979Y-77682665D02*
X104842319Y-76622005D01*
X106448461Y-77137183D01*
X105387801Y-76076523D01*
X106392903Y-75172437D02*
X106251482Y-75212842D01*
X106115111Y-75349212D01*
X106029249Y-75536091D01*
X106039350Y-75728020D01*
X106094909Y-75874492D01*
X106251483Y-76121980D01*
X106403005Y-76273502D01*
X106650493Y-76430076D01*
X106796965Y-76485635D01*
X106988894Y-76495736D01*
X107175772Y-76409873D01*
X107266685Y-76318959D01*
X107352548Y-76132082D01*
X107347497Y-76036117D01*
X106993944Y-75682563D01*
X106812117Y-75864391D01*
X108584934Y-75000710D02*
X107524274Y-73940050D01*
X107887929Y-73576395D01*
X108029351Y-73535989D01*
X108125315Y-73541041D01*
X108271787Y-73596599D01*
X108423310Y-73748121D01*
X108478868Y-73894594D01*
X108483919Y-73990558D01*
X108443513Y-74131980D01*
X108079859Y-74495634D01*
X108478868Y-72985456D02*
X109337498Y-73844086D01*
X109483970Y-73899644D01*
X109579935Y-73904695D01*
X109721355Y-73864289D01*
X109903183Y-73682461D01*
X109943590Y-73541040D01*
X109938538Y-73445076D01*
X109882980Y-73298604D01*
X109024350Y-72439974D01*
X110539580Y-73046065D02*
X109478920Y-71985404D01*
X110554732Y-72424821D01*
X110115316Y-71349008D01*
X111175976Y-72409668D01*
X111630544Y-71955100D02*
X110569884Y-70894440D01*
X110933539Y-70530785D01*
X111074961Y-70490379D01*
X111170925Y-70495431D01*
X111317397Y-70550989D01*
X111468920Y-70702511D01*
X111524478Y-70848984D01*
X111529529Y-70944948D01*
X111489123Y-71086370D01*
X111125469Y-71450024D01*
X112307347Y-69359009D02*
X112302296Y-69263044D01*
X112342701Y-69121623D01*
X112569986Y-68894338D01*
X112711407Y-68853933D01*
X112807372Y-68858983D01*
X112953844Y-68914542D01*
X113054859Y-69015557D01*
X113160926Y-69212537D01*
X113221534Y-70364110D01*
X113812473Y-69773171D01*
X95975446Y-77450198D02*
X94914786Y-76389538D01*
X95990599Y-76828955D01*
X95551182Y-75753142D01*
X96611842Y-76813802D01*
X96717908Y-76101645D02*
X97172477Y-75647076D01*
X96930040Y-76495605D02*
X96187578Y-75116746D01*
X97566436Y-75859209D01*
X97884635Y-75541010D02*
X96823974Y-74480350D01*
X98339203Y-75086441D02*
X97278543Y-74025781D01*
X98884685Y-74540959D01*
X97824025Y-73480299D01*
X100066564Y-73359080D02*
X99005904Y-72298420D01*
X99369558Y-71934766D01*
X99510980Y-71894360D01*
X99606944Y-71899411D01*
X99753417Y-71954969D01*
X99904939Y-72106492D01*
X99960498Y-72252965D01*
X99965549Y-72348928D01*
X99925142Y-72490350D01*
X99561488Y-72854005D01*
X99960498Y-71343826D02*
X100819128Y-72202456D01*
X100965599Y-72258015D01*
X101061564Y-72263066D01*
X101202985Y-72222659D01*
X101384812Y-72040832D01*
X101425219Y-71899411D01*
X101420168Y-71803446D01*
X101364610Y-71656974D01*
X100505980Y-70798344D01*
X102021209Y-71404435D02*
X100960549Y-70343775D01*
X102036362Y-70783192D01*
X101596945Y-69707379D01*
X102657605Y-70768039D01*
X103112174Y-70313470D02*
X102051514Y-69252810D01*
X102415168Y-68889156D01*
X102556590Y-68848750D01*
X102652554Y-68853801D01*
X102799027Y-68909359D01*
X102950549Y-69060882D01*
X103006108Y-69207355D01*
X103011159Y-69303318D01*
X102970753Y-69444740D01*
X102607098Y-69808395D01*
X88280572Y-70465143D02*
X89309143Y-70465143D01*
X88794857Y-71036571D02*
X88794857Y-69893714D01*
X90659143Y-71036571D02*
X89887715Y-71036571D01*
X90273429Y-71036571D02*
X90273429Y-69536571D01*
X90144858Y-69750857D01*
X90016286Y-69893714D01*
X89887715Y-69965143D01*
X91173429Y-69679429D02*
X91237715Y-69608000D01*
X91366286Y-69536571D01*
X91687715Y-69536571D01*
X91816286Y-69608000D01*
X91880572Y-69679429D01*
X91944857Y-69822286D01*
X91944857Y-69965143D01*
X91880572Y-70179429D01*
X91109143Y-71036571D01*
X91944857Y-71036571D01*
X92330571Y-69536571D02*
X92780571Y-71036571D01*
X93230571Y-69536571D01*
X94709143Y-71036571D02*
X94709143Y-69536571D01*
X95352000Y-71036571D02*
X95352000Y-69536571D01*
X96123428Y-71036571D01*
X96123428Y-69536571D01*
D12*
X76835000Y-70485000D02*
X76835000Y-72009000D01*
X68707000Y-70485000D02*
X68707000Y-72009000D01*
X68707000Y-72009000D02*
X76835000Y-72009000D01*
D11*
X72378143Y-71417571D02*
X72378143Y-69917571D01*
X72735286Y-69917571D01*
X72949571Y-69989000D01*
X73092429Y-70131857D01*
X73163857Y-70274714D01*
X73235286Y-70560429D01*
X73235286Y-70774714D01*
X73163857Y-71060429D01*
X73092429Y-71203286D01*
X72949571Y-71346143D01*
X72735286Y-71417571D01*
X72378143Y-71417571D01*
X74612572Y-70592143D02*
X75755429Y-70592143D01*
X69532572Y-70592143D02*
X70675429Y-70592143D01*
X70104000Y-71163571D02*
X70104000Y-70020714D01*
X61565143Y-62240571D02*
X62336572Y-62240571D01*
X61950858Y-63740571D02*
X61950858Y-62240571D01*
X62786572Y-62954857D02*
X63236572Y-62954857D01*
X63429429Y-63740571D02*
X62786572Y-63740571D01*
X62786572Y-62240571D01*
X63429429Y-62240571D01*
X64008001Y-63740571D02*
X64008001Y-62240571D01*
X64458001Y-63312000D01*
X64908001Y-62240571D01*
X64908001Y-63740571D01*
X65550858Y-63740571D02*
X65550858Y-62240571D01*
X66065143Y-62240571D01*
X66193715Y-62312000D01*
X66258000Y-62383429D01*
X66322286Y-62526286D01*
X66322286Y-62740571D01*
X66258000Y-62883429D01*
X66193715Y-62954857D01*
X66065143Y-63026286D01*
X65550858Y-63026286D01*
X60279429Y-66069143D02*
X60472286Y-66140571D01*
X60793715Y-66140571D01*
X60922286Y-66069143D01*
X60986572Y-65997714D01*
X61050857Y-65854857D01*
X61050857Y-65712000D01*
X60986572Y-65569143D01*
X60922286Y-65497714D01*
X60793715Y-65426286D01*
X60536572Y-65354857D01*
X60408000Y-65283429D01*
X60343715Y-65212000D01*
X60279429Y-65069143D01*
X60279429Y-64926286D01*
X60343715Y-64783429D01*
X60408000Y-64712000D01*
X60536572Y-64640571D01*
X60858000Y-64640571D01*
X61050857Y-64712000D01*
X61629429Y-65354857D02*
X62079429Y-65354857D01*
X62272286Y-66140571D02*
X61629429Y-66140571D01*
X61629429Y-64640571D01*
X62272286Y-64640571D01*
X62850858Y-66140571D02*
X62850858Y-64640571D01*
X63622286Y-66140571D01*
X63622286Y-64640571D01*
X64200858Y-66069143D02*
X64393715Y-66140571D01*
X64715144Y-66140571D01*
X64843715Y-66069143D01*
X64908001Y-65997714D01*
X64972286Y-65854857D01*
X64972286Y-65712000D01*
X64908001Y-65569143D01*
X64843715Y-65497714D01*
X64715144Y-65426286D01*
X64458001Y-65354857D01*
X64329429Y-65283429D01*
X64265144Y-65212000D01*
X64200858Y-65069143D01*
X64200858Y-64926286D01*
X64265144Y-64783429D01*
X64329429Y-64712000D01*
X64458001Y-64640571D01*
X64779429Y-64640571D01*
X64972286Y-64712000D01*
X65808000Y-64640571D02*
X66065143Y-64640571D01*
X66193715Y-64712000D01*
X66322286Y-64854857D01*
X66386572Y-65140571D01*
X66386572Y-65640571D01*
X66322286Y-65926286D01*
X66193715Y-66069143D01*
X66065143Y-66140571D01*
X65808000Y-66140571D01*
X65679429Y-66069143D01*
X65550858Y-65926286D01*
X65486572Y-65640571D01*
X65486572Y-65140571D01*
X65550858Y-64854857D01*
X65679429Y-64712000D01*
X65808000Y-64640571D01*
X67736572Y-66140571D02*
X67286572Y-65426286D01*
X66965144Y-66140571D02*
X66965144Y-64640571D01*
X67479429Y-64640571D01*
X67608001Y-64712000D01*
X67672286Y-64783429D01*
X67736572Y-64926286D01*
X67736572Y-65140571D01*
X67672286Y-65283429D01*
X67608001Y-65354857D01*
X67479429Y-65426286D01*
X66965144Y-65426286D01*
X55904000Y-117518571D02*
X55904000Y-116018571D01*
X56904000Y-116018571D02*
X57189714Y-116018571D01*
X57332572Y-116090000D01*
X57475429Y-116232857D01*
X57546857Y-116518571D01*
X57546857Y-117018571D01*
X57475429Y-117304286D01*
X57332572Y-117447143D01*
X57189714Y-117518571D01*
X56904000Y-117518571D01*
X56761143Y-117447143D01*
X56618286Y-117304286D01*
X56546857Y-117018571D01*
X56546857Y-116518571D01*
X56618286Y-116232857D01*
X56761143Y-116090000D01*
X56904000Y-116018571D01*
X58118286Y-116161429D02*
X58189715Y-116090000D01*
X58332572Y-116018571D01*
X58689715Y-116018571D01*
X58832572Y-116090000D01*
X58904001Y-116161429D01*
X58975429Y-116304286D01*
X58975429Y-116447143D01*
X58904001Y-116661429D01*
X58046858Y-117518571D01*
X58975429Y-117518571D01*
D12*
X78232000Y-74168000D02*
X78232000Y-120904000D01*
D11*
X68100572Y-124813143D02*
X68314858Y-124884571D01*
X68672001Y-124884571D01*
X68814858Y-124813143D01*
X68886287Y-124741714D01*
X68957715Y-124598857D01*
X68957715Y-124456000D01*
X68886287Y-124313143D01*
X68814858Y-124241714D01*
X68672001Y-124170286D01*
X68386287Y-124098857D01*
X68243429Y-124027429D01*
X68172001Y-123956000D01*
X68100572Y-123813143D01*
X68100572Y-123670286D01*
X68172001Y-123527429D01*
X68243429Y-123456000D01*
X68386287Y-123384571D01*
X68743429Y-123384571D01*
X68957715Y-123456000D01*
X69386286Y-123384571D02*
X70243429Y-123384571D01*
X69814858Y-124884571D02*
X69814858Y-123384571D01*
X70672000Y-124456000D02*
X71386286Y-124456000D01*
X70529143Y-124884571D02*
X71029143Y-123384571D01*
X71529143Y-124884571D01*
X71814857Y-123384571D02*
X72672000Y-123384571D01*
X72243429Y-124884571D02*
X72243429Y-123384571D01*
X73172000Y-123384571D02*
X73172000Y-124598857D01*
X73243428Y-124741714D01*
X73314857Y-124813143D01*
X73457714Y-124884571D01*
X73743428Y-124884571D01*
X73886286Y-124813143D01*
X73957714Y-124741714D01*
X74029143Y-124598857D01*
X74029143Y-123384571D01*
X74672000Y-124813143D02*
X74886286Y-124884571D01*
X75243429Y-124884571D01*
X75386286Y-124813143D01*
X75457715Y-124741714D01*
X75529143Y-124598857D01*
X75529143Y-124456000D01*
X75457715Y-124313143D01*
X75386286Y-124241714D01*
X75243429Y-124170286D01*
X74957715Y-124098857D01*
X74814857Y-124027429D01*
X74743429Y-123956000D01*
X74672000Y-123813143D01*
X74672000Y-123670286D01*
X74743429Y-123527429D01*
X74814857Y-123456000D01*
X74957715Y-123384571D01*
X75314857Y-123384571D01*
X75529143Y-123456000D01*
X78029143Y-124884571D02*
X77314857Y-124884571D01*
X77314857Y-123384571D01*
X78529143Y-124098857D02*
X79029143Y-124098857D01*
X79243429Y-124884571D02*
X78529143Y-124884571D01*
X78529143Y-123384571D01*
X79243429Y-123384571D01*
X79886286Y-124884571D02*
X79886286Y-123384571D01*
X80243429Y-123384571D01*
X80457714Y-123456000D01*
X80600572Y-123598857D01*
X80672000Y-123741714D01*
X80743429Y-124027429D01*
X80743429Y-124241714D01*
X80672000Y-124527429D01*
X80600572Y-124670286D01*
X80457714Y-124813143D01*
X80243429Y-124884571D01*
X79886286Y-124884571D01*
D12*
X29972000Y-106172000D02*
X33020000Y-106172000D01*
X29972000Y-103124000D02*
X33020000Y-103124000D01*
X29972000Y-120904000D02*
X29972000Y-85852000D01*
X33020000Y-120904000D02*
X29972000Y-120904000D01*
X33020000Y-85852000D02*
X33020000Y-120904000D01*
X29972000Y-85852000D02*
X33020000Y-85852000D01*
X78232000Y-101092000D02*
X81280000Y-101092000D01*
X78232000Y-99060000D02*
X81280000Y-99060000D01*
X81280000Y-74168000D02*
X78232000Y-74168000D01*
X81280000Y-120904000D02*
X81280000Y-74168000D01*
X78232000Y-120904000D02*
X81280000Y-120904000D01*
D11*
X63861143Y-113688571D02*
X63861143Y-112545714D01*
X64432571Y-113117143D02*
X63289714Y-113117143D01*
X62932571Y-111117142D02*
X62932571Y-111831428D01*
X63646857Y-111902857D01*
X63575429Y-111831428D01*
X63504000Y-111688571D01*
X63504000Y-111331428D01*
X63575429Y-111188571D01*
X63646857Y-111117142D01*
X63789714Y-111045714D01*
X64146857Y-111045714D01*
X64289714Y-111117142D01*
X64361143Y-111188571D01*
X64432571Y-111331428D01*
X64432571Y-111688571D01*
X64361143Y-111831428D01*
X64289714Y-111902857D01*
X62932571Y-110617143D02*
X64432571Y-110117143D01*
X62932571Y-109617143D01*
X55753143Y-103318571D02*
X56610286Y-103318571D01*
X56181715Y-104818571D02*
X56181715Y-103318571D01*
X56967429Y-103318571D02*
X57967429Y-104818571D01*
X57967429Y-103318571D02*
X56967429Y-104818571D01*
X131508572Y-66909143D02*
X132651429Y-66909143D01*
X124904572Y-66909143D02*
X126047429Y-66909143D01*
X125476000Y-67480571D02*
X125476000Y-66337714D01*
X42126857Y-120530284D02*
X42126857Y-120030284D01*
X42912571Y-119815998D02*
X42912571Y-120530284D01*
X41412571Y-120530284D01*
X41412571Y-119815998D01*
X42841143Y-119244570D02*
X42912571Y-119030284D01*
X42912571Y-118673141D01*
X42841143Y-118530284D01*
X42769714Y-118458855D01*
X42626857Y-118387427D01*
X42484000Y-118387427D01*
X42341143Y-118458855D01*
X42269714Y-118530284D01*
X42198286Y-118673141D01*
X42126857Y-118958855D01*
X42055429Y-119101713D01*
X41984000Y-119173141D01*
X41841143Y-119244570D01*
X41698286Y-119244570D01*
X41555429Y-119173141D01*
X41484000Y-119101713D01*
X41412571Y-118958855D01*
X41412571Y-118601713D01*
X41484000Y-118387427D01*
X42912571Y-117744570D02*
X41412571Y-117744570D01*
X41412571Y-117173142D01*
X41484000Y-117030284D01*
X41555429Y-116958856D01*
X41698286Y-116887427D01*
X41912571Y-116887427D01*
X42055429Y-116958856D01*
X42126857Y-117030284D01*
X42198286Y-117173142D01*
X42198286Y-117744570D01*
X42055429Y-116030284D02*
X41984000Y-116173142D01*
X41912571Y-116244570D01*
X41769714Y-116315999D01*
X41698286Y-116315999D01*
X41555429Y-116244570D01*
X41484000Y-116173142D01*
X41412571Y-116030284D01*
X41412571Y-115744570D01*
X41484000Y-115601713D01*
X41555429Y-115530284D01*
X41698286Y-115458856D01*
X41769714Y-115458856D01*
X41912571Y-115530284D01*
X41984000Y-115601713D01*
X42055429Y-115744570D01*
X42055429Y-116030284D01*
X42126857Y-116173142D01*
X42198286Y-116244570D01*
X42341143Y-116315999D01*
X42626857Y-116315999D01*
X42769714Y-116244570D01*
X42841143Y-116173142D01*
X42912571Y-116030284D01*
X42912571Y-115744570D01*
X42841143Y-115601713D01*
X42769714Y-115530284D01*
X42626857Y-115458856D01*
X42341143Y-115458856D01*
X42198286Y-115530284D01*
X42126857Y-115601713D01*
X42055429Y-115744570D01*
X41555429Y-114887428D02*
X41484000Y-114815999D01*
X41412571Y-114673142D01*
X41412571Y-114315999D01*
X41484000Y-114173142D01*
X41555429Y-114101713D01*
X41698286Y-114030285D01*
X41841143Y-114030285D01*
X42055429Y-114101713D01*
X42912571Y-114958856D01*
X42912571Y-114030285D01*
X41412571Y-112744571D02*
X41412571Y-113030285D01*
X41484000Y-113173142D01*
X41555429Y-113244571D01*
X41769714Y-113387428D01*
X42055429Y-113458857D01*
X42626857Y-113458857D01*
X42769714Y-113387428D01*
X42841143Y-113316000D01*
X42912571Y-113173142D01*
X42912571Y-112887428D01*
X42841143Y-112744571D01*
X42769714Y-112673142D01*
X42626857Y-112601714D01*
X42269714Y-112601714D01*
X42126857Y-112673142D01*
X42055429Y-112744571D01*
X41984000Y-112887428D01*
X41984000Y-113173142D01*
X42055429Y-113316000D01*
X42126857Y-113387428D01*
X42269714Y-113458857D01*
X41412571Y-111316000D02*
X41412571Y-111601714D01*
X41484000Y-111744571D01*
X41555429Y-111816000D01*
X41769714Y-111958857D01*
X42055429Y-112030286D01*
X42626857Y-112030286D01*
X42769714Y-111958857D01*
X42841143Y-111887429D01*
X42912571Y-111744571D01*
X42912571Y-111458857D01*
X42841143Y-111316000D01*
X42769714Y-111244571D01*
X42626857Y-111173143D01*
X42269714Y-111173143D01*
X42126857Y-111244571D01*
X42055429Y-111316000D01*
X41984000Y-111458857D01*
X41984000Y-111744571D01*
X42055429Y-111887429D01*
X42126857Y-111958857D01*
X42269714Y-112030286D01*
X43812571Y-122351715D02*
X45312571Y-121994572D01*
X44241143Y-121708858D01*
X45312571Y-121423144D01*
X43812571Y-121066001D01*
X45312571Y-120494572D02*
X43812571Y-120494572D01*
X44526857Y-119280286D02*
X44526857Y-119780286D01*
X45312571Y-119780286D02*
X43812571Y-119780286D01*
X43812571Y-119066000D01*
X45312571Y-118494572D02*
X43812571Y-118494572D01*
X45312571Y-116637429D02*
X43812571Y-116637429D01*
X44884000Y-116137429D01*
X43812571Y-115637429D01*
X45312571Y-115637429D01*
X43812571Y-114637429D02*
X43812571Y-114351715D01*
X43884000Y-114208857D01*
X44026857Y-114066000D01*
X44312571Y-113994572D01*
X44812571Y-113994572D01*
X45098286Y-114066000D01*
X45241143Y-114208857D01*
X45312571Y-114351715D01*
X45312571Y-114637429D01*
X45241143Y-114780286D01*
X45098286Y-114923143D01*
X44812571Y-114994572D01*
X44312571Y-114994572D01*
X44026857Y-114923143D01*
X43884000Y-114780286D01*
X43812571Y-114637429D01*
X45312571Y-113351714D02*
X43812571Y-113351714D01*
X43812571Y-112994571D01*
X43884000Y-112780286D01*
X44026857Y-112637428D01*
X44169714Y-112566000D01*
X44455429Y-112494571D01*
X44669714Y-112494571D01*
X44955429Y-112566000D01*
X45098286Y-112637428D01*
X45241143Y-112780286D01*
X45312571Y-112994571D01*
X45312571Y-113351714D01*
X43812571Y-111851714D02*
X45026857Y-111851714D01*
X45169714Y-111780286D01*
X45241143Y-111708857D01*
X45312571Y-111566000D01*
X45312571Y-111280286D01*
X45241143Y-111137428D01*
X45169714Y-111066000D01*
X45026857Y-110994571D01*
X43812571Y-110994571D01*
X45312571Y-109565999D02*
X45312571Y-110280285D01*
X43812571Y-110280285D01*
X44526857Y-109065999D02*
X44526857Y-108565999D01*
X45312571Y-108351713D02*
X45312571Y-109065999D01*
X43812571Y-109065999D01*
X43812571Y-108351713D01*
X56646001Y-111168571D02*
X56146001Y-110454286D01*
X55788858Y-111168571D02*
X55788858Y-109668571D01*
X56360286Y-109668571D01*
X56503144Y-109740000D01*
X56574572Y-109811429D01*
X56646001Y-109954286D01*
X56646001Y-110168571D01*
X56574572Y-110311429D01*
X56503144Y-110382857D01*
X56360286Y-110454286D01*
X55788858Y-110454286D01*
X57146001Y-109668571D02*
X58146001Y-111168571D01*
X58146001Y-109668571D02*
X57146001Y-111168571D01*
X66909143Y-113894856D02*
X66909143Y-112751999D01*
X67480571Y-113323428D02*
X66337714Y-113323428D01*
X67480571Y-111251999D02*
X67480571Y-112109142D01*
X67480571Y-111680570D02*
X65980571Y-111680570D01*
X66194857Y-111823427D01*
X66337714Y-111966285D01*
X66409143Y-112109142D01*
X66123429Y-110680571D02*
X66052000Y-110609142D01*
X65980571Y-110466285D01*
X65980571Y-110109142D01*
X66052000Y-109966285D01*
X66123429Y-109894856D01*
X66266286Y-109823428D01*
X66409143Y-109823428D01*
X66623429Y-109894856D01*
X67480571Y-110751999D01*
X67480571Y-109823428D01*
X65980571Y-109394857D02*
X67480571Y-108894857D01*
X65980571Y-108394857D01*
X60813143Y-113743999D02*
X60813143Y-112601142D01*
X61384571Y-113172571D02*
X60241714Y-113172571D01*
X59884571Y-112029713D02*
X59884571Y-111101142D01*
X60456000Y-111601142D01*
X60456000Y-111386856D01*
X60527429Y-111243999D01*
X60598857Y-111172570D01*
X60741714Y-111101142D01*
X61098857Y-111101142D01*
X61241714Y-111172570D01*
X61313143Y-111243999D01*
X61384571Y-111386856D01*
X61384571Y-111815428D01*
X61313143Y-111958285D01*
X61241714Y-112029713D01*
X61241714Y-110458285D02*
X61313143Y-110386857D01*
X61384571Y-110458285D01*
X61313143Y-110529714D01*
X61241714Y-110458285D01*
X61384571Y-110458285D01*
X59884571Y-109886856D02*
X59884571Y-108958285D01*
X60456000Y-109458285D01*
X60456000Y-109243999D01*
X60527429Y-109101142D01*
X60598857Y-109029713D01*
X60741714Y-108958285D01*
X61098857Y-108958285D01*
X61241714Y-109029713D01*
X61313143Y-109101142D01*
X61384571Y-109243999D01*
X61384571Y-109672571D01*
X61313143Y-109815428D01*
X61241714Y-109886856D01*
X59884571Y-108529714D02*
X61384571Y-108029714D01*
X59884571Y-107529714D01*
D12*
X158750000Y-68326000D02*
X140970000Y-68326000D01*
X140970000Y-68326000D02*
X140970000Y-66802000D01*
X138430000Y-68326000D02*
X138430000Y-66802000D01*
X130810000Y-66802000D02*
X130810000Y-68326000D01*
X130810000Y-68326000D02*
X138430000Y-68326000D01*
D11*
X136588572Y-66909143D02*
X137731429Y-66909143D01*
X137160000Y-67480571D02*
X137160000Y-66337714D01*
D13*
X35984571Y-65680190D02*
X34484571Y-65680190D01*
X34484571Y-65261143D01*
X34556000Y-65156381D01*
X34627429Y-65104000D01*
X34770286Y-65051619D01*
X34984571Y-65051619D01*
X35127429Y-65104000D01*
X35198857Y-65156381D01*
X35270286Y-65261143D01*
X35270286Y-65680190D01*
X35984571Y-64580190D02*
X34484571Y-64580190D01*
X35198857Y-64580190D02*
X35198857Y-63951619D01*
X35984571Y-63951619D02*
X34484571Y-63951619D01*
X35984571Y-62589714D02*
X34484571Y-62589714D01*
X34484571Y-62170667D01*
X34556000Y-62065905D01*
X34627429Y-62013524D01*
X34770286Y-61961143D01*
X34984571Y-61961143D01*
X35127429Y-62013524D01*
X35198857Y-62065905D01*
X35270286Y-62170667D01*
X35270286Y-62589714D01*
X35984571Y-60861143D02*
X35270286Y-61227809D01*
X35984571Y-61489714D02*
X34484571Y-61489714D01*
X34484571Y-61070667D01*
X34556000Y-60965905D01*
X34627429Y-60913524D01*
X34770286Y-60861143D01*
X34984571Y-60861143D01*
X35127429Y-60913524D01*
X35198857Y-60965905D01*
X35270286Y-61070667D01*
X35270286Y-61489714D01*
X34484571Y-60180190D02*
X34484571Y-59970667D01*
X34556000Y-59865905D01*
X34698857Y-59761143D01*
X34984571Y-59708762D01*
X35484571Y-59708762D01*
X35770286Y-59761143D01*
X35913143Y-59865905D01*
X35984571Y-59970667D01*
X35984571Y-60180190D01*
X35913143Y-60284952D01*
X35770286Y-60389714D01*
X35484571Y-60442095D01*
X34984571Y-60442095D01*
X34698857Y-60389714D01*
X34556000Y-60284952D01*
X34484571Y-60180190D01*
X35198857Y-58870667D02*
X35270286Y-58713524D01*
X35341714Y-58661143D01*
X35484571Y-58608762D01*
X35698857Y-58608762D01*
X35841714Y-58661143D01*
X35913143Y-58713524D01*
X35984571Y-58818286D01*
X35984571Y-59237333D01*
X34484571Y-59237333D01*
X34484571Y-58870667D01*
X34556000Y-58765905D01*
X34627429Y-58713524D01*
X34770286Y-58661143D01*
X34913143Y-58661143D01*
X35056000Y-58713524D01*
X35127429Y-58765905D01*
X35198857Y-58870667D01*
X35198857Y-59237333D01*
X35198857Y-58137333D02*
X35198857Y-57770667D01*
X35984571Y-57613524D02*
X35984571Y-58137333D01*
X34484571Y-58137333D01*
X34484571Y-57613524D01*
D11*
X97551857Y-124745524D02*
X97551857Y-120745524D01*
X97551857Y-122650286D02*
X99180429Y-122650286D01*
X99180429Y-124745524D02*
X99180429Y-120745524D01*
X101080429Y-122840762D02*
X101080429Y-124745524D01*
X100130429Y-120745524D02*
X101080429Y-122840762D01*
X102030429Y-120745524D01*
X102980428Y-124745524D02*
X102980428Y-120745524D01*
X103659000Y-120745524D01*
X104066143Y-120936000D01*
X104337571Y-121316952D01*
X104473286Y-121697905D01*
X104609000Y-122459810D01*
X104609000Y-123031238D01*
X104473286Y-123793143D01*
X104337571Y-124174095D01*
X104066143Y-124555048D01*
X103659000Y-124745524D01*
X102980428Y-124745524D01*
X107459000Y-124745524D02*
X106509000Y-122840762D01*
X105830428Y-124745524D02*
X105830428Y-120745524D01*
X106916143Y-120745524D01*
X107187571Y-120936000D01*
X107323286Y-121126476D01*
X107459000Y-121507429D01*
X107459000Y-122078857D01*
X107323286Y-122459810D01*
X107187571Y-122650286D01*
X106916143Y-122840762D01*
X105830428Y-122840762D01*
X109223286Y-120745524D02*
X109766143Y-120745524D01*
X110037571Y-120936000D01*
X110309000Y-121316952D01*
X110444714Y-122078857D01*
X110444714Y-123412190D01*
X110309000Y-124174095D01*
X110037571Y-124555048D01*
X109766143Y-124745524D01*
X109223286Y-124745524D01*
X108951857Y-124555048D01*
X108680428Y-124174095D01*
X108544714Y-123412190D01*
X108544714Y-122078857D01*
X108680428Y-121316952D01*
X108951857Y-120936000D01*
X109223286Y-120745524D01*
X111666142Y-124745524D02*
X111666142Y-120745524D01*
X112751857Y-120745524D01*
X113023285Y-120936000D01*
X113159000Y-121126476D01*
X113294714Y-121507429D01*
X113294714Y-122078857D01*
X113159000Y-122459810D01*
X113023285Y-122650286D01*
X112751857Y-122840762D01*
X111666142Y-122840762D01*
X115059000Y-120745524D02*
X115601857Y-120745524D01*
X115873285Y-120936000D01*
X116144714Y-121316952D01*
X116280428Y-122078857D01*
X116280428Y-123412190D01*
X116144714Y-124174095D01*
X115873285Y-124555048D01*
X115601857Y-124745524D01*
X115059000Y-124745524D01*
X114787571Y-124555048D01*
X114516142Y-124174095D01*
X114380428Y-123412190D01*
X114380428Y-122078857D01*
X114516142Y-121316952D01*
X114787571Y-120936000D01*
X115059000Y-120745524D01*
X117501856Y-124745524D02*
X117501856Y-120745524D01*
X119130428Y-124745524D01*
X119130428Y-120745524D01*
X120487570Y-124745524D02*
X120487570Y-120745524D01*
X123473285Y-124364571D02*
X123337571Y-124555048D01*
X122930428Y-124745524D01*
X122658999Y-124745524D01*
X122251856Y-124555048D01*
X121980428Y-124174095D01*
X121844713Y-123793143D01*
X121708999Y-123031238D01*
X121708999Y-122459810D01*
X121844713Y-121697905D01*
X121980428Y-121316952D01*
X122251856Y-120936000D01*
X122658999Y-120745524D01*
X122930428Y-120745524D01*
X123337571Y-120936000D01*
X123473285Y-121126476D01*
X124558999Y-124555048D02*
X124966142Y-124745524D01*
X125644713Y-124745524D01*
X125916142Y-124555048D01*
X126051856Y-124364571D01*
X126187571Y-123983619D01*
X126187571Y-123602667D01*
X126051856Y-123221714D01*
X125916142Y-123031238D01*
X125644713Y-122840762D01*
X125101856Y-122650286D01*
X124830428Y-122459810D01*
X124694713Y-122269333D01*
X124558999Y-121888381D01*
X124558999Y-121507429D01*
X124694713Y-121126476D01*
X124830428Y-120936000D01*
X125101856Y-120745524D01*
X125780428Y-120745524D01*
X126187571Y-120936000D01*
X129444714Y-124555048D02*
X129851857Y-124745524D01*
X130530428Y-124745524D01*
X130801857Y-124555048D01*
X130937571Y-124364571D01*
X131073286Y-123983619D01*
X131073286Y-123602667D01*
X130937571Y-123221714D01*
X130801857Y-123031238D01*
X130530428Y-122840762D01*
X129987571Y-122650286D01*
X129716143Y-122459810D01*
X129580428Y-122269333D01*
X129444714Y-121888381D01*
X129444714Y-121507429D01*
X129580428Y-121126476D01*
X129716143Y-120936000D01*
X129987571Y-120745524D01*
X130666143Y-120745524D01*
X131073286Y-120936000D01*
X132294714Y-124745524D02*
X132294714Y-120745524D01*
X132294714Y-122650286D02*
X133923286Y-122650286D01*
X133923286Y-124745524D02*
X133923286Y-120745524D01*
X135280428Y-124745524D02*
X135280428Y-120745524D01*
X136637571Y-122650286D02*
X137587571Y-122650286D01*
X137994714Y-124745524D02*
X136637571Y-124745524D01*
X136637571Y-120745524D01*
X137994714Y-120745524D01*
X140573285Y-124745524D02*
X139216142Y-124745524D01*
X139216142Y-120745524D01*
X141523285Y-124745524D02*
X141523285Y-120745524D01*
X142201857Y-120745524D01*
X142609000Y-120936000D01*
X142880428Y-121316952D01*
X143016143Y-121697905D01*
X143151857Y-122459810D01*
X143151857Y-123031238D01*
X143016143Y-123793143D01*
X142880428Y-124174095D01*
X142609000Y-124555048D01*
X142201857Y-124745524D01*
X141523285Y-124745524D01*
X146137572Y-120745524D02*
X147087572Y-124745524D01*
X148037572Y-120745524D01*
X149530429Y-120745524D02*
X149801857Y-120745524D01*
X150073286Y-120936000D01*
X150209000Y-121126476D01*
X150344714Y-121507429D01*
X150480429Y-122269333D01*
X150480429Y-123221714D01*
X150344714Y-123983619D01*
X150209000Y-124364571D01*
X150073286Y-124555048D01*
X149801857Y-124745524D01*
X149530429Y-124745524D01*
X149259000Y-124555048D01*
X149123286Y-124364571D01*
X148987571Y-123983619D01*
X148851857Y-123221714D01*
X148851857Y-122269333D01*
X148987571Y-121507429D01*
X149123286Y-121126476D01*
X149259000Y-120936000D01*
X149530429Y-120745524D01*
X151701857Y-124364571D02*
X151837572Y-124555048D01*
X151701857Y-124745524D01*
X151566143Y-124555048D01*
X151701857Y-124364571D01*
X151701857Y-124745524D01*
X152923286Y-121126476D02*
X153059000Y-120936000D01*
X153330429Y-120745524D01*
X154009000Y-120745524D01*
X154280429Y-120936000D01*
X154416143Y-121126476D01*
X154551858Y-121507429D01*
X154551858Y-121888381D01*
X154416143Y-122459810D01*
X152787572Y-124745524D01*
X154551858Y-124745524D01*
D12*
X158750000Y-68326000D02*
X158750000Y-66802000D01*
D11*
X146748572Y-66909143D02*
X147891429Y-66909143D01*
X141668572Y-66909143D02*
X142811429Y-66909143D01*
X156400572Y-66909143D02*
X157543429Y-66909143D01*
X156972000Y-67480571D02*
X156972000Y-66337714D01*
X151574572Y-66909143D02*
X152717429Y-66909143D01*
X152146000Y-67480571D02*
X152146000Y-66337714D01*
D12*
X119126000Y-68326000D02*
X126746000Y-68326000D01*
X119126000Y-66802000D02*
X119126000Y-68326000D01*
X126746000Y-68326000D02*
X126746000Y-66802000D01*
D11*
X119824572Y-66909143D02*
X120967429Y-66909143D01*
D12*
X109220000Y-68326000D02*
X116840000Y-68326000D01*
X109220000Y-66802000D02*
X109220000Y-68326000D01*
X116840000Y-68326000D02*
X116840000Y-66802000D01*
D11*
X109918572Y-66909143D02*
X111061429Y-66909143D01*
X114998572Y-66909143D02*
X116141429Y-66909143D01*
X115570000Y-67480571D02*
X115570000Y-66337714D01*
D12*
X106680000Y-68326000D02*
X106680000Y-66802000D01*
X99060000Y-68326000D02*
X106680000Y-68326000D01*
X99060000Y-66802000D02*
X99060000Y-68326000D01*
D11*
X99758572Y-66909143D02*
X100901429Y-66909143D01*
X104838572Y-66909143D02*
X105981429Y-66909143D01*
X105410000Y-67480571D02*
X105410000Y-66337714D01*
D14*
X42418000Y-71374000D02*
X59182000Y-71374000D01*
X42418000Y-55372000D02*
X42418000Y-71374000D01*
X59182000Y-55372000D02*
X42418000Y-55372000D01*
X59182000Y-71374000D02*
X59182000Y-55372000D01*
D15*
X68554000Y-69372000D02*
X70104000Y-69372000D01*
X68554000Y-68072000D02*
X68554000Y-69372000D01*
X69977000Y-63881000D02*
X69977000Y-58039000D01*
X69977000Y-58039000D02*
X70231000Y-58039000D01*
X70231000Y-58039000D02*
X70231000Y-63881000D01*
X70231000Y-63881000D02*
X70104000Y-63881000D01*
X70104000Y-63881000D02*
X70104000Y-58039000D01*
X69850000Y-66548000D02*
X69850000Y-66929000D01*
X70358000Y-66548000D02*
X70358000Y-66929000D01*
X72390000Y-66548000D02*
X72390000Y-66929000D01*
X72898000Y-66548000D02*
X72898000Y-66929000D01*
X74930000Y-66548000D02*
X74930000Y-66929000D01*
X75438000Y-66548000D02*
X75438000Y-66929000D01*
X71374000Y-64008000D02*
X68834000Y-64008000D01*
X70358000Y-57912000D02*
X70358000Y-64008000D01*
X69850000Y-57912000D02*
X70358000Y-57912000D01*
X69850000Y-64008000D02*
X69850000Y-57912000D01*
X71374000Y-66548000D02*
X71374000Y-64008000D01*
X68834000Y-66548000D02*
X71374000Y-66548000D01*
X68834000Y-66548000D02*
X68834000Y-64008000D01*
X73914000Y-66548000D02*
X73914000Y-64008000D01*
X73914000Y-66548000D02*
X76454000Y-66548000D01*
X74930000Y-64008000D02*
X74930000Y-57912000D01*
X74930000Y-57912000D02*
X75438000Y-57912000D01*
X75438000Y-57912000D02*
X75438000Y-64008000D01*
X76454000Y-64008000D02*
X73914000Y-64008000D01*
X73914000Y-64008000D02*
X71374000Y-64008000D01*
X72898000Y-57912000D02*
X72898000Y-64008000D01*
X72390000Y-57912000D02*
X72898000Y-57912000D01*
X72390000Y-64008000D02*
X72390000Y-57912000D01*
X73914000Y-66548000D02*
X73914000Y-64008000D01*
X71374000Y-66548000D02*
X73914000Y-66548000D01*
X71374000Y-66548000D02*
X71374000Y-64008000D01*
X76454000Y-66548000D02*
X76454000Y-64008000D01*
X26568400Y-67386200D02*
X26568400Y-67894200D01*
X27076400Y-67386200D02*
X27076400Y-67894200D01*
X32156400Y-66370200D02*
X32156400Y-56718200D01*
X21488400Y-66370200D02*
X21488400Y-56718200D01*
X32156400Y-66370200D02*
X21488400Y-66370200D01*
X27838400Y-66370200D02*
X27838400Y-67386200D01*
X25806400Y-66370200D02*
X27838400Y-66370200D01*
X25806400Y-67386200D02*
X25806400Y-66370200D01*
X27838400Y-67386200D02*
X25806400Y-67386200D01*
X51574000Y-102540000D02*
X51574000Y-105240000D01*
X53074000Y-102540000D02*
X53074000Y-105240000D01*
X52174000Y-104040000D02*
X52424000Y-104040000D01*
X52424000Y-104040000D02*
X52274000Y-103890000D01*
X52674000Y-103790000D02*
X51974000Y-103790000D01*
X52324000Y-104140000D02*
X52324000Y-104490000D01*
X52324000Y-103790000D02*
X52674000Y-104140000D01*
X52674000Y-104140000D02*
X51974000Y-104140000D01*
X51974000Y-104140000D02*
X52324000Y-103790000D01*
X53481000Y-104740000D02*
X53481000Y-103540000D01*
X55231000Y-103540000D02*
X55231000Y-104740000D01*
X53074000Y-111929980D02*
X53074000Y-109229980D01*
X51574000Y-111929980D02*
X51574000Y-109229980D01*
X52474000Y-110429980D02*
X52224000Y-110429980D01*
X52224000Y-110429980D02*
X52374000Y-110579980D01*
X51974000Y-110679980D02*
X52674000Y-110679980D01*
X52324000Y-110329980D02*
X52324000Y-109979980D01*
X52324000Y-110679980D02*
X51974000Y-110329980D01*
X51974000Y-110329980D02*
X52674000Y-110329980D01*
X52674000Y-110329980D02*
X52324000Y-110679980D01*
X55231000Y-109890000D02*
X55231000Y-111090000D01*
X53481000Y-111090000D02*
X53481000Y-109890000D01*
X38354000Y-100838000D02*
X48514000Y-100838000D01*
X38354000Y-105918000D02*
X38354000Y-100838000D01*
X48514000Y-105918000D02*
X38354000Y-105918000D01*
X48514000Y-100838000D02*
X48514000Y-105918000D01*
X50622000Y-100330000D02*
X50622000Y-125130000D01*
X36322000Y-100330000D02*
X50622000Y-100330000D01*
X36322000Y-100330000D02*
X36322000Y-125130000D01*
X36322000Y-125130000D02*
X50622000Y-125130000D01*
D16*
X43202000Y-72572000D02*
X39602000Y-72572000D01*
X43726184Y-73299205D02*
G75*
G03X43202000Y-72572000I-2324184J-1122795D01*
G01*
X43758400Y-75520807D02*
G75*
G02X41402000Y-77022000I-2356400J1098807D01*
G01*
X39045600Y-75520807D02*
G75*
G03X41402000Y-77022000I2356400J1098807D01*
G01*
X39077816Y-73299205D02*
G75*
G02X39602000Y-72572000I2324184J-1122795D01*
G01*
D15*
X35726000Y-73668000D02*
X35726000Y-74668000D01*
X37426000Y-74668000D02*
X37426000Y-73668000D01*
X35701000Y-79594000D02*
X35701000Y-78394000D01*
X37451000Y-78394000D02*
X37451000Y-79594000D01*
X39483000Y-78394000D02*
X39483000Y-79594000D01*
X37733000Y-79594000D02*
X37733000Y-78394000D01*
X34231200Y-82813000D02*
X34231200Y-81543000D01*
X26881200Y-82813000D02*
X26881200Y-81543000D01*
X26881200Y-70603000D02*
X26881200Y-71873000D01*
X34231200Y-70603000D02*
X34231200Y-71873000D01*
X34231200Y-82813000D02*
X26881200Y-82813000D01*
X34231200Y-70603000D02*
X26881200Y-70603000D01*
X34231200Y-81543000D02*
X35166200Y-81543000D01*
X97210880Y-55996840D02*
X88209120Y-55996840D01*
X97210880Y-52496720D02*
X88209120Y-52496720D01*
X88209120Y-52496720D02*
X88209120Y-66997580D01*
X88209120Y-66997580D02*
X97210880Y-66997580D01*
X97210880Y-66997580D02*
X97210880Y-52496720D01*
X130980000Y-59268000D02*
X130980000Y-57468000D01*
X133180000Y-59268000D02*
X130980000Y-59268000D01*
X133180000Y-57468000D02*
X133180000Y-59268000D01*
X135980000Y-59268000D02*
X135980000Y-57468000D01*
X138180000Y-59268000D02*
X135980000Y-59268000D01*
X138180000Y-57468000D02*
X138180000Y-59268000D01*
X140980000Y-59268000D02*
X140980000Y-57468000D01*
X143180000Y-59268000D02*
X140980000Y-59268000D01*
X143180000Y-57468000D02*
X143180000Y-59268000D01*
X145980000Y-59268000D02*
X145980000Y-57468000D01*
X148180000Y-59268000D02*
X145980000Y-59268000D01*
X148180000Y-57468000D02*
X148180000Y-59268000D01*
X150980000Y-59268000D02*
X150980000Y-57468000D01*
X153180000Y-59268000D02*
X150980000Y-59268000D01*
X153180000Y-57468000D02*
X153180000Y-59268000D01*
X155980000Y-59268000D02*
X155980000Y-57468000D01*
X158180000Y-59268000D02*
X155980000Y-59268000D01*
X158180000Y-57468000D02*
X158180000Y-59268000D01*
X129580000Y-57468000D02*
X129580000Y-65557400D01*
X159609200Y-65557400D02*
X159609200Y-57378600D01*
X159580000Y-65568000D02*
X129580000Y-65568000D01*
X159580000Y-57368000D02*
X129580000Y-57368000D01*
X99310000Y-59268000D02*
X99310000Y-57468000D01*
X101510000Y-59268000D02*
X99310000Y-59268000D01*
X101510000Y-57468000D02*
X101510000Y-59268000D01*
X104310000Y-59268000D02*
X104310000Y-57468000D01*
X106510000Y-59268000D02*
X104310000Y-59268000D01*
X106510000Y-57468000D02*
X106510000Y-59268000D01*
X109310000Y-59268000D02*
X109310000Y-57468000D01*
X111510000Y-59268000D02*
X109310000Y-59268000D01*
X111510000Y-57468000D02*
X111510000Y-59268000D01*
X114310000Y-59268000D02*
X114310000Y-57468000D01*
X116510000Y-59268000D02*
X114310000Y-59268000D01*
X116510000Y-57468000D02*
X116510000Y-59268000D01*
X119310000Y-59268000D02*
X119310000Y-57468000D01*
X121510000Y-59268000D02*
X119310000Y-59268000D01*
X121510000Y-57468000D02*
X121510000Y-59268000D01*
X124310000Y-59268000D02*
X124310000Y-57468000D01*
X126510000Y-59268000D02*
X124310000Y-59268000D01*
X126510000Y-57468000D02*
X126510000Y-59268000D01*
X97910000Y-57468000D02*
X97910000Y-65557400D01*
X127939200Y-65557400D02*
X127939200Y-57378600D01*
X127910000Y-65568000D02*
X97910000Y-65568000D01*
X127910000Y-57368000D02*
X97910000Y-57368000D01*
X116993000Y-84233000D02*
X123291000Y-84233000D01*
X116999000Y-84093000D02*
X123285000Y-84093000D01*
X117012000Y-83953000D02*
X119696000Y-83953000D01*
X120588000Y-83953000D02*
X123272000Y-83953000D01*
X117031000Y-83813000D02*
X119486000Y-83813000D01*
X120798000Y-83813000D02*
X123253000Y-83813000D01*
X117057000Y-83673000D02*
X119353000Y-83673000D01*
X120931000Y-83673000D02*
X123227000Y-83673000D01*
X117089000Y-83533000D02*
X119262000Y-83533000D01*
X121022000Y-83533000D02*
X123195000Y-83533000D01*
X117128000Y-83393000D02*
X119200000Y-83393000D01*
X121084000Y-83393000D02*
X123156000Y-83393000D01*
X117174000Y-83253000D02*
X119161000Y-83253000D01*
X121123000Y-83253000D02*
X123110000Y-83253000D01*
X117227000Y-83113000D02*
X119144000Y-83113000D01*
X121140000Y-83113000D02*
X123057000Y-83113000D01*
X117289000Y-82973000D02*
X119146000Y-82973000D01*
X121138000Y-82973000D02*
X122995000Y-82973000D01*
X117359000Y-82833000D02*
X119168000Y-82833000D01*
X121116000Y-82833000D02*
X122925000Y-82833000D01*
X117438000Y-82693000D02*
X119211000Y-82693000D01*
X121073000Y-82693000D02*
X122846000Y-82693000D01*
X117526000Y-82553000D02*
X119279000Y-82553000D01*
X121005000Y-82553000D02*
X122758000Y-82553000D01*
X117626000Y-82413000D02*
X119378000Y-82413000D01*
X120906000Y-82413000D02*
X122658000Y-82413000D01*
X117738000Y-82273000D02*
X119523000Y-82273000D01*
X120761000Y-82273000D02*
X122546000Y-82273000D01*
X117863000Y-82133000D02*
X119762000Y-82133000D01*
X120522000Y-82133000D02*
X122421000Y-82133000D01*
X118006000Y-81993000D02*
X122278000Y-81993000D01*
X118168000Y-81853000D02*
X122116000Y-81853000D01*
X118356000Y-81713000D02*
X121928000Y-81713000D01*
X118579000Y-81573000D02*
X121705000Y-81573000D01*
X118855000Y-81433000D02*
X121429000Y-81433000D01*
X119230000Y-81293000D02*
X121054000Y-81293000D01*
X121142000Y-83058000D02*
G75*
G03X121142000Y-83058000I-1000000J0D01*
G01*
X123329500Y-84308000D02*
G75*
G03X123329500Y-84308000I-3187500J0D01*
G01*
X101753000Y-84233000D02*
X108051000Y-84233000D01*
X101759000Y-84093000D02*
X108045000Y-84093000D01*
X101772000Y-83953000D02*
X104456000Y-83953000D01*
X105348000Y-83953000D02*
X108032000Y-83953000D01*
X101791000Y-83813000D02*
X104246000Y-83813000D01*
X105558000Y-83813000D02*
X108013000Y-83813000D01*
X101817000Y-83673000D02*
X104113000Y-83673000D01*
X105691000Y-83673000D02*
X107987000Y-83673000D01*
X101849000Y-83533000D02*
X104022000Y-83533000D01*
X105782000Y-83533000D02*
X107955000Y-83533000D01*
X101888000Y-83393000D02*
X103960000Y-83393000D01*
X105844000Y-83393000D02*
X107916000Y-83393000D01*
X101934000Y-83253000D02*
X103921000Y-83253000D01*
X105883000Y-83253000D02*
X107870000Y-83253000D01*
X101987000Y-83113000D02*
X103904000Y-83113000D01*
X105900000Y-83113000D02*
X107817000Y-83113000D01*
X102049000Y-82973000D02*
X103906000Y-82973000D01*
X105898000Y-82973000D02*
X107755000Y-82973000D01*
X102119000Y-82833000D02*
X103928000Y-82833000D01*
X105876000Y-82833000D02*
X107685000Y-82833000D01*
X102198000Y-82693000D02*
X103971000Y-82693000D01*
X105833000Y-82693000D02*
X107606000Y-82693000D01*
X102286000Y-82553000D02*
X104039000Y-82553000D01*
X105765000Y-82553000D02*
X107518000Y-82553000D01*
X102386000Y-82413000D02*
X104138000Y-82413000D01*
X105666000Y-82413000D02*
X107418000Y-82413000D01*
X102498000Y-82273000D02*
X104283000Y-82273000D01*
X105521000Y-82273000D02*
X107306000Y-82273000D01*
X102623000Y-82133000D02*
X104522000Y-82133000D01*
X105282000Y-82133000D02*
X107181000Y-82133000D01*
X102766000Y-81993000D02*
X107038000Y-81993000D01*
X102928000Y-81853000D02*
X106876000Y-81853000D01*
X103116000Y-81713000D02*
X106688000Y-81713000D01*
X103339000Y-81573000D02*
X106465000Y-81573000D01*
X103615000Y-81433000D02*
X106189000Y-81433000D01*
X103990000Y-81293000D02*
X105814000Y-81293000D01*
X105902000Y-83058000D02*
G75*
G03X105902000Y-83058000I-1000000J0D01*
G01*
X108089500Y-84308000D02*
G75*
G03X108089500Y-84308000I-3187500J0D01*
G01*
X87021000Y-84233000D02*
X93319000Y-84233000D01*
X87027000Y-84093000D02*
X93313000Y-84093000D01*
X87040000Y-83953000D02*
X89724000Y-83953000D01*
X90616000Y-83953000D02*
X93300000Y-83953000D01*
X87059000Y-83813000D02*
X89514000Y-83813000D01*
X90826000Y-83813000D02*
X93281000Y-83813000D01*
X87085000Y-83673000D02*
X89381000Y-83673000D01*
X90959000Y-83673000D02*
X93255000Y-83673000D01*
X87117000Y-83533000D02*
X89290000Y-83533000D01*
X91050000Y-83533000D02*
X93223000Y-83533000D01*
X87156000Y-83393000D02*
X89228000Y-83393000D01*
X91112000Y-83393000D02*
X93184000Y-83393000D01*
X87202000Y-83253000D02*
X89189000Y-83253000D01*
X91151000Y-83253000D02*
X93138000Y-83253000D01*
X87255000Y-83113000D02*
X89172000Y-83113000D01*
X91168000Y-83113000D02*
X93085000Y-83113000D01*
X87317000Y-82973000D02*
X89174000Y-82973000D01*
X91166000Y-82973000D02*
X93023000Y-82973000D01*
X87387000Y-82833000D02*
X89196000Y-82833000D01*
X91144000Y-82833000D02*
X92953000Y-82833000D01*
X87466000Y-82693000D02*
X89239000Y-82693000D01*
X91101000Y-82693000D02*
X92874000Y-82693000D01*
X87554000Y-82553000D02*
X89307000Y-82553000D01*
X91033000Y-82553000D02*
X92786000Y-82553000D01*
X87654000Y-82413000D02*
X89406000Y-82413000D01*
X90934000Y-82413000D02*
X92686000Y-82413000D01*
X87766000Y-82273000D02*
X89551000Y-82273000D01*
X90789000Y-82273000D02*
X92574000Y-82273000D01*
X87891000Y-82133000D02*
X89790000Y-82133000D01*
X90550000Y-82133000D02*
X92449000Y-82133000D01*
X88034000Y-81993000D02*
X92306000Y-81993000D01*
X88196000Y-81853000D02*
X92144000Y-81853000D01*
X88384000Y-81713000D02*
X91956000Y-81713000D01*
X88607000Y-81573000D02*
X91733000Y-81573000D01*
X88883000Y-81433000D02*
X91457000Y-81433000D01*
X89258000Y-81293000D02*
X91082000Y-81293000D01*
X91170000Y-83058000D02*
G75*
G03X91170000Y-83058000I-1000000J0D01*
G01*
X93357500Y-84308000D02*
G75*
G03X93357500Y-84308000I-3187500J0D01*
G01*
X155956000Y-98425000D02*
X155956000Y-97028000D01*
X153416000Y-98425000D02*
X153416000Y-97028000D01*
X150876000Y-98425000D02*
X150876000Y-97028000D01*
X155930472Y-111506000D02*
G75*
G03X155930472Y-111506000I-2514472J0D01*
G01*
X148082000Y-106934000D02*
X148082000Y-114935000D01*
X148082000Y-114935000D02*
X158750000Y-114935000D01*
X158750000Y-114935000D02*
X158750000Y-106934000D01*
X148082000Y-98425000D02*
X148082000Y-106934000D01*
X148082000Y-106934000D02*
X158750000Y-106934000D01*
X158750000Y-106934000D02*
X158750000Y-98425000D01*
X153416000Y-98425000D02*
X158750000Y-98425000D01*
X153416000Y-98425000D02*
X148082000Y-98425000D01*
X125476000Y-98425000D02*
X125476000Y-97028000D01*
X122936000Y-98425000D02*
X122936000Y-97028000D01*
X120396000Y-98425000D02*
X120396000Y-97028000D01*
X125450472Y-111506000D02*
G75*
G03X125450472Y-111506000I-2514472J0D01*
G01*
X117602000Y-106934000D02*
X117602000Y-114935000D01*
X117602000Y-114935000D02*
X128270000Y-114935000D01*
X128270000Y-114935000D02*
X128270000Y-106934000D01*
X117602000Y-98425000D02*
X117602000Y-106934000D01*
X117602000Y-106934000D02*
X128270000Y-106934000D01*
X128270000Y-106934000D02*
X128270000Y-98425000D01*
X122936000Y-98425000D02*
X128270000Y-98425000D01*
X122936000Y-98425000D02*
X117602000Y-98425000D01*
X110236000Y-98425000D02*
X110236000Y-97028000D01*
X107696000Y-98425000D02*
X107696000Y-97028000D01*
X105156000Y-98425000D02*
X105156000Y-97028000D01*
X110210472Y-111506000D02*
G75*
G03X110210472Y-111506000I-2514472J0D01*
G01*
X102362000Y-106934000D02*
X102362000Y-114935000D01*
X102362000Y-114935000D02*
X113030000Y-114935000D01*
X113030000Y-114935000D02*
X113030000Y-106934000D01*
X102362000Y-98425000D02*
X102362000Y-106934000D01*
X102362000Y-106934000D02*
X113030000Y-106934000D01*
X113030000Y-106934000D02*
X113030000Y-98425000D01*
X107696000Y-98425000D02*
X113030000Y-98425000D01*
X107696000Y-98425000D02*
X102362000Y-98425000D01*
X94996000Y-98425000D02*
X94996000Y-97028000D01*
X92456000Y-98425000D02*
X92456000Y-97028000D01*
X89916000Y-98425000D02*
X89916000Y-97028000D01*
X94970472Y-111506000D02*
G75*
G03X94970472Y-111506000I-2514472J0D01*
G01*
X87122000Y-106934000D02*
X87122000Y-114935000D01*
X87122000Y-114935000D02*
X97790000Y-114935000D01*
X97790000Y-114935000D02*
X97790000Y-106934000D01*
X87122000Y-98425000D02*
X87122000Y-106934000D01*
X87122000Y-106934000D02*
X97790000Y-106934000D01*
X97790000Y-106934000D02*
X97790000Y-98425000D01*
X92456000Y-98425000D02*
X97790000Y-98425000D01*
X92456000Y-98425000D02*
X87122000Y-98425000D01*
X132487000Y-84233000D02*
X138785000Y-84233000D01*
X132493000Y-84093000D02*
X138779000Y-84093000D01*
X132506000Y-83953000D02*
X135190000Y-83953000D01*
X136082000Y-83953000D02*
X138766000Y-83953000D01*
X132525000Y-83813000D02*
X134980000Y-83813000D01*
X136292000Y-83813000D02*
X138747000Y-83813000D01*
X132551000Y-83673000D02*
X134847000Y-83673000D01*
X136425000Y-83673000D02*
X138721000Y-83673000D01*
X132583000Y-83533000D02*
X134756000Y-83533000D01*
X136516000Y-83533000D02*
X138689000Y-83533000D01*
X132622000Y-83393000D02*
X134694000Y-83393000D01*
X136578000Y-83393000D02*
X138650000Y-83393000D01*
X132668000Y-83253000D02*
X134655000Y-83253000D01*
X136617000Y-83253000D02*
X138604000Y-83253000D01*
X132721000Y-83113000D02*
X134638000Y-83113000D01*
X136634000Y-83113000D02*
X138551000Y-83113000D01*
X132783000Y-82973000D02*
X134640000Y-82973000D01*
X136632000Y-82973000D02*
X138489000Y-82973000D01*
X132853000Y-82833000D02*
X134662000Y-82833000D01*
X136610000Y-82833000D02*
X138419000Y-82833000D01*
X132932000Y-82693000D02*
X134705000Y-82693000D01*
X136567000Y-82693000D02*
X138340000Y-82693000D01*
X133020000Y-82553000D02*
X134773000Y-82553000D01*
X136499000Y-82553000D02*
X138252000Y-82553000D01*
X133120000Y-82413000D02*
X134872000Y-82413000D01*
X136400000Y-82413000D02*
X138152000Y-82413000D01*
X133232000Y-82273000D02*
X135017000Y-82273000D01*
X136255000Y-82273000D02*
X138040000Y-82273000D01*
X133357000Y-82133000D02*
X135256000Y-82133000D01*
X136016000Y-82133000D02*
X137915000Y-82133000D01*
X133500000Y-81993000D02*
X137772000Y-81993000D01*
X133662000Y-81853000D02*
X137610000Y-81853000D01*
X133850000Y-81713000D02*
X137422000Y-81713000D01*
X134073000Y-81573000D02*
X137199000Y-81573000D01*
X134349000Y-81433000D02*
X136923000Y-81433000D01*
X134724000Y-81293000D02*
X136548000Y-81293000D01*
X136636000Y-83058000D02*
G75*
G03X136636000Y-83058000I-1000000J0D01*
G01*
X138823500Y-84308000D02*
G75*
G03X138823500Y-84308000I-3187500J0D01*
G01*
X140716000Y-98425000D02*
X140716000Y-97028000D01*
X138176000Y-98425000D02*
X138176000Y-97028000D01*
X135636000Y-98425000D02*
X135636000Y-97028000D01*
X140690472Y-111506000D02*
G75*
G03X140690472Y-111506000I-2514472J0D01*
G01*
X132842000Y-106934000D02*
X132842000Y-114935000D01*
X132842000Y-114935000D02*
X143510000Y-114935000D01*
X143510000Y-114935000D02*
X143510000Y-106934000D01*
X132842000Y-98425000D02*
X132842000Y-106934000D01*
X132842000Y-106934000D02*
X143510000Y-106934000D01*
X143510000Y-106934000D02*
X143510000Y-98425000D01*
X138176000Y-98425000D02*
X143510000Y-98425000D01*
X138176000Y-98425000D02*
X132842000Y-98425000D01*
X65832618Y-118025456D02*
X65832618Y-115325456D01*
X64332618Y-118025456D02*
X64332618Y-115325456D01*
X65232618Y-116525456D02*
X64982618Y-116525456D01*
X64982618Y-116525456D02*
X65132618Y-116675456D01*
X64732618Y-116775456D02*
X65432618Y-116775456D01*
X65082618Y-116425456D02*
X65082618Y-116075456D01*
X65082618Y-116775456D02*
X64732618Y-116425456D01*
X64732618Y-116425456D02*
X65432618Y-116425456D01*
X65432618Y-116425456D02*
X65082618Y-116775456D01*
X63546618Y-118025456D02*
X63546618Y-115325456D01*
X62046618Y-118025456D02*
X62046618Y-115325456D01*
X62946618Y-116525456D02*
X62696618Y-116525456D01*
X62696618Y-116525456D02*
X62846618Y-116675456D01*
X62446618Y-116775456D02*
X63146618Y-116775456D01*
X62796618Y-116425456D02*
X62796618Y-116075456D01*
X62796618Y-116775456D02*
X62446618Y-116425456D01*
X62446618Y-116425456D02*
X63146618Y-116425456D01*
X63146618Y-116425456D02*
X62796618Y-116775456D01*
X61260618Y-118025456D02*
X61260618Y-115325456D01*
X59760618Y-118025456D02*
X59760618Y-115325456D01*
X60660618Y-116525456D02*
X60410618Y-116525456D01*
X60410618Y-116525456D02*
X60560618Y-116675456D01*
X60160618Y-116775456D02*
X60860618Y-116775456D01*
X60510618Y-116425456D02*
X60510618Y-116075456D01*
X60510618Y-116775456D02*
X60160618Y-116425456D01*
X60160618Y-116425456D02*
X60860618Y-116425456D01*
X60860618Y-116425456D02*
X60510618Y-116775456D01*
X53074000Y-118440000D02*
X53074000Y-115740000D01*
X51574000Y-118440000D02*
X51574000Y-115740000D01*
X52474000Y-116940000D02*
X52224000Y-116940000D01*
X52224000Y-116940000D02*
X52374000Y-117090000D01*
X51974000Y-117190000D02*
X52674000Y-117190000D01*
X52324000Y-116840000D02*
X52324000Y-116490000D01*
X52324000Y-117190000D02*
X51974000Y-116840000D01*
X51974000Y-116840000D02*
X52674000Y-116840000D01*
X52674000Y-116840000D02*
X52324000Y-117190000D01*
X159016000Y-93142000D02*
X159016000Y-95842000D01*
X160516000Y-93142000D02*
X160516000Y-95842000D01*
X159616000Y-94642000D02*
X159866000Y-94642000D01*
X159866000Y-94642000D02*
X159716000Y-94492000D01*
X160116000Y-94392000D02*
X159416000Y-94392000D01*
X159766000Y-94742000D02*
X159766000Y-95092000D01*
X159766000Y-94392000D02*
X160116000Y-94742000D01*
X160116000Y-94742000D02*
X159416000Y-94742000D01*
X159416000Y-94742000D02*
X159766000Y-94392000D01*
X128536000Y-93175020D02*
X128536000Y-95875020D01*
X130036000Y-93175020D02*
X130036000Y-95875020D01*
X129136000Y-94675020D02*
X129386000Y-94675020D01*
X129386000Y-94675020D02*
X129236000Y-94525020D01*
X129636000Y-94425020D02*
X128936000Y-94425020D01*
X129286000Y-94775020D02*
X129286000Y-95125020D01*
X129286000Y-94425020D02*
X129636000Y-94775020D01*
X129636000Y-94775020D02*
X128936000Y-94775020D01*
X128936000Y-94775020D02*
X129286000Y-94425020D01*
X113296000Y-93142000D02*
X113296000Y-95842000D01*
X114796000Y-93142000D02*
X114796000Y-95842000D01*
X113896000Y-94642000D02*
X114146000Y-94642000D01*
X114146000Y-94642000D02*
X113996000Y-94492000D01*
X114396000Y-94392000D02*
X113696000Y-94392000D01*
X114046000Y-94742000D02*
X114046000Y-95092000D01*
X114046000Y-94392000D02*
X114396000Y-94742000D01*
X114396000Y-94742000D02*
X113696000Y-94742000D01*
X113696000Y-94742000D02*
X114046000Y-94392000D01*
X98056000Y-93175020D02*
X98056000Y-95875020D01*
X99556000Y-93175020D02*
X99556000Y-95875020D01*
X98656000Y-94675020D02*
X98906000Y-94675020D01*
X98906000Y-94675020D02*
X98756000Y-94525020D01*
X99156000Y-94425020D02*
X98456000Y-94425020D01*
X98806000Y-94775020D02*
X98806000Y-95125020D01*
X98806000Y-94425020D02*
X99156000Y-94775020D01*
X99156000Y-94775020D02*
X98456000Y-94775020D01*
X98456000Y-94775020D02*
X98806000Y-94425020D01*
X143776000Y-93142000D02*
X143776000Y-95842000D01*
X145276000Y-93142000D02*
X145276000Y-95842000D01*
X144376000Y-94642000D02*
X144626000Y-94642000D01*
X144626000Y-94642000D02*
X144476000Y-94492000D01*
X144876000Y-94392000D02*
X144176000Y-94392000D01*
X144526000Y-94742000D02*
X144526000Y-95092000D01*
X144526000Y-94392000D02*
X144876000Y-94742000D01*
X144876000Y-94742000D02*
X144176000Y-94742000D01*
X144176000Y-94742000D02*
X144526000Y-94392000D01*
X64207618Y-121343456D02*
X64207618Y-120143456D01*
X65957618Y-120143456D02*
X65957618Y-121343456D01*
X61921618Y-121343456D02*
X61921618Y-120143456D01*
X63671618Y-120143456D02*
X63671618Y-121343456D01*
X59635618Y-121343456D02*
X59635618Y-120143456D01*
X61385618Y-120143456D02*
X61385618Y-121343456D01*
X55231000Y-116240000D02*
X55231000Y-117440000D01*
X53481000Y-117440000D02*
X53481000Y-116240000D01*
X160923000Y-95850000D02*
X160923000Y-94650000D01*
X162673000Y-94650000D02*
X162673000Y-95850000D01*
X130443000Y-95866500D02*
X130443000Y-94666500D01*
X132193000Y-94666500D02*
X132193000Y-95866500D01*
X115203000Y-95828400D02*
X115203000Y-94628400D01*
X116953000Y-94628400D02*
X116953000Y-95828400D01*
X99963000Y-95866500D02*
X99963000Y-94666500D01*
X101713000Y-94666500D02*
X101713000Y-95866500D01*
X145683000Y-95850000D02*
X145683000Y-94650000D01*
X147433000Y-94650000D02*
X147433000Y-95850000D01*
X66897000Y-87529000D02*
X66897000Y-93827000D01*
X67037000Y-87535000D02*
X67037000Y-93821000D01*
X67177000Y-87548000D02*
X67177000Y-90232000D01*
X67177000Y-91124000D02*
X67177000Y-93808000D01*
X67317000Y-87567000D02*
X67317000Y-90022000D01*
X67317000Y-91334000D02*
X67317000Y-93789000D01*
X67457000Y-87593000D02*
X67457000Y-89889000D01*
X67457000Y-91467000D02*
X67457000Y-93763000D01*
X67597000Y-87625000D02*
X67597000Y-89798000D01*
X67597000Y-91558000D02*
X67597000Y-93731000D01*
X67737000Y-87664000D02*
X67737000Y-89736000D01*
X67737000Y-91620000D02*
X67737000Y-93692000D01*
X67877000Y-87710000D02*
X67877000Y-89697000D01*
X67877000Y-91659000D02*
X67877000Y-93646000D01*
X68017000Y-87763000D02*
X68017000Y-89680000D01*
X68017000Y-91676000D02*
X68017000Y-93593000D01*
X68157000Y-87825000D02*
X68157000Y-89682000D01*
X68157000Y-91674000D02*
X68157000Y-93531000D01*
X68297000Y-87895000D02*
X68297000Y-89704000D01*
X68297000Y-91652000D02*
X68297000Y-93461000D01*
X68437000Y-87974000D02*
X68437000Y-89747000D01*
X68437000Y-91609000D02*
X68437000Y-93382000D01*
X68577000Y-88062000D02*
X68577000Y-89815000D01*
X68577000Y-91541000D02*
X68577000Y-93294000D01*
X68717000Y-88162000D02*
X68717000Y-89914000D01*
X68717000Y-91442000D02*
X68717000Y-93194000D01*
X68857000Y-88274000D02*
X68857000Y-90059000D01*
X68857000Y-91297000D02*
X68857000Y-93082000D01*
X68997000Y-88399000D02*
X68997000Y-90298000D01*
X68997000Y-91058000D02*
X68997000Y-92957000D01*
X69137000Y-88542000D02*
X69137000Y-92814000D01*
X69277000Y-88704000D02*
X69277000Y-92652000D01*
X69417000Y-88892000D02*
X69417000Y-92464000D01*
X69557000Y-89115000D02*
X69557000Y-92241000D01*
X69697000Y-89391000D02*
X69697000Y-91965000D01*
X69837000Y-89766000D02*
X69837000Y-91590000D01*
X69072000Y-90678000D02*
G75*
G03X69072000Y-90678000I-1000000J0D01*
G01*
X70009500Y-90678000D02*
G75*
G03X70009500Y-90678000I-3187500J0D01*
G01*
X66857000Y-99213000D02*
X66857000Y-105511000D01*
X66997000Y-99219000D02*
X66997000Y-105505000D01*
X67137000Y-99232000D02*
X67137000Y-101916000D01*
X67137000Y-102808000D02*
X67137000Y-105492000D01*
X67277000Y-99251000D02*
X67277000Y-101706000D01*
X67277000Y-103018000D02*
X67277000Y-105473000D01*
X67417000Y-99277000D02*
X67417000Y-101573000D01*
X67417000Y-103151000D02*
X67417000Y-105447000D01*
X67557000Y-99309000D02*
X67557000Y-101482000D01*
X67557000Y-103242000D02*
X67557000Y-105415000D01*
X67697000Y-99348000D02*
X67697000Y-101420000D01*
X67697000Y-103304000D02*
X67697000Y-105376000D01*
X67837000Y-99394000D02*
X67837000Y-101381000D01*
X67837000Y-103343000D02*
X67837000Y-105330000D01*
X67977000Y-99447000D02*
X67977000Y-101364000D01*
X67977000Y-103360000D02*
X67977000Y-105277000D01*
X68117000Y-99509000D02*
X68117000Y-101366000D01*
X68117000Y-103358000D02*
X68117000Y-105215000D01*
X68257000Y-99579000D02*
X68257000Y-101388000D01*
X68257000Y-103336000D02*
X68257000Y-105145000D01*
X68397000Y-99658000D02*
X68397000Y-101431000D01*
X68397000Y-103293000D02*
X68397000Y-105066000D01*
X68537000Y-99746000D02*
X68537000Y-101499000D01*
X68537000Y-103225000D02*
X68537000Y-104978000D01*
X68677000Y-99846000D02*
X68677000Y-101598000D01*
X68677000Y-103126000D02*
X68677000Y-104878000D01*
X68817000Y-99958000D02*
X68817000Y-101743000D01*
X68817000Y-102981000D02*
X68817000Y-104766000D01*
X68957000Y-100083000D02*
X68957000Y-101982000D01*
X68957000Y-102742000D02*
X68957000Y-104641000D01*
X69097000Y-100226000D02*
X69097000Y-104498000D01*
X69237000Y-100388000D02*
X69237000Y-104336000D01*
X69377000Y-100576000D02*
X69377000Y-104148000D01*
X69517000Y-100799000D02*
X69517000Y-103925000D01*
X69657000Y-101075000D02*
X69657000Y-103649000D01*
X69797000Y-101450000D02*
X69797000Y-103274000D01*
X69032000Y-102362000D02*
G75*
G03X69032000Y-102362000I-1000000J0D01*
G01*
X69969500Y-102362000D02*
G75*
G03X69969500Y-102362000I-3187500J0D01*
G01*
D10*
X60647840Y-99795000D02*
X61122840Y-99795000D01*
X61122840Y-99795000D02*
X61447840Y-99495000D01*
X61447840Y-99495000D02*
X62247840Y-99495000D01*
X60972840Y-93245000D02*
X61447840Y-93245000D01*
X61447840Y-93245000D02*
X61447840Y-93695000D01*
X57897840Y-99295000D02*
X57897840Y-99795000D01*
X57897840Y-99795000D02*
X58297840Y-99795000D01*
X57897840Y-93620000D02*
X57897840Y-93245000D01*
X57897840Y-93245000D02*
X58197840Y-93245000D01*
D15*
X61587380Y-81478120D02*
X61488320Y-81777840D01*
X62186820Y-81478120D02*
X62285880Y-81777840D01*
X62786260Y-81478120D02*
X62786260Y-76428600D01*
X62786260Y-76428600D02*
X60987940Y-76428600D01*
X60987940Y-76428600D02*
X60987940Y-81478120D01*
X62786260Y-81478120D02*
X60987940Y-81478120D01*
X76795000Y-118280000D02*
X76795000Y-117830000D01*
X77245000Y-119380000D02*
G75*
G03X77245000Y-119380000I-2950000J0D01*
G01*
X76795000Y-120480000D02*
X76795000Y-120930000D01*
X58859800Y-85609800D02*
X59859800Y-85609800D01*
X59859800Y-83909800D02*
X58859800Y-83909800D01*
D10*
X58665800Y-78549800D02*
X58665800Y-78349800D01*
X58665800Y-78349800D02*
X57965800Y-78349800D01*
X54465800Y-78549800D02*
X54465800Y-78349800D01*
X54465800Y-78349800D02*
X55065800Y-78349800D01*
X55165800Y-83549800D02*
X54465800Y-83549800D01*
X54465800Y-83549800D02*
X54465800Y-83349800D01*
X58365800Y-83549800D02*
X58665800Y-83249800D01*
X58665800Y-83249800D02*
X59365800Y-83249800D01*
D15*
X25488000Y-82268000D02*
X25488000Y-81268000D01*
X23788000Y-81268000D02*
X23788000Y-82268000D01*
X54013800Y-85609800D02*
X55013800Y-85609800D01*
X55013800Y-83909800D02*
X54013800Y-83909800D01*
X76192000Y-113958000D02*
X75192000Y-113958000D01*
X75192000Y-115658000D02*
X76192000Y-115658000D01*
X68414000Y-97020000D02*
X68414000Y-96020000D01*
X66714000Y-96020000D02*
X66714000Y-97020000D01*
X66128000Y-97020000D02*
X66128000Y-96020000D01*
X64428000Y-96020000D02*
X64428000Y-97020000D01*
X47865000Y-96047000D02*
X47865000Y-97247000D01*
X46115000Y-97247000D02*
X46115000Y-96047000D01*
X48401000Y-97247000D02*
X48401000Y-96047000D01*
X50151000Y-96047000D02*
X50151000Y-97247000D01*
X41007000Y-96047000D02*
X41007000Y-97247000D01*
X39257000Y-97247000D02*
X39257000Y-96047000D01*
X41543000Y-97247000D02*
X41543000Y-96047000D01*
X43293000Y-96047000D02*
X43293000Y-97247000D01*
X23763000Y-77562000D02*
X23763000Y-76362000D01*
X25513000Y-76362000D02*
X25513000Y-77562000D01*
X23481000Y-81188000D02*
X23481000Y-82388000D01*
X21731000Y-82388000D02*
X21731000Y-81188000D01*
X79222000Y-69372000D02*
X80772000Y-69372000D01*
X79222000Y-68072000D02*
X79222000Y-69372000D01*
X80645000Y-63881000D02*
X80645000Y-58039000D01*
X80645000Y-58039000D02*
X80899000Y-58039000D01*
X80899000Y-58039000D02*
X80899000Y-63881000D01*
X80899000Y-63881000D02*
X80772000Y-63881000D01*
X80772000Y-63881000D02*
X80772000Y-58039000D01*
X80518000Y-66548000D02*
X80518000Y-66929000D01*
X81026000Y-66548000D02*
X81026000Y-66929000D01*
X83058000Y-66548000D02*
X83058000Y-66929000D01*
X83566000Y-66548000D02*
X83566000Y-66929000D01*
X79502000Y-66548000D02*
X79502000Y-64008000D01*
X82042000Y-66548000D02*
X82042000Y-64008000D01*
X82042000Y-66548000D02*
X84582000Y-66548000D01*
X84582000Y-66548000D02*
X84582000Y-64008000D01*
X83058000Y-64008000D02*
X83058000Y-57912000D01*
X83058000Y-57912000D02*
X83566000Y-57912000D01*
X83566000Y-57912000D02*
X83566000Y-64008000D01*
X84582000Y-64008000D02*
X82042000Y-64008000D01*
X82042000Y-64008000D02*
X79502000Y-64008000D01*
X81026000Y-57912000D02*
X81026000Y-64008000D01*
X80518000Y-57912000D02*
X81026000Y-57912000D01*
X80518000Y-64008000D02*
X80518000Y-57912000D01*
X82042000Y-66548000D02*
X82042000Y-64008000D01*
X79502000Y-66548000D02*
X82042000Y-66548000D01*
X75092000Y-74309000D02*
X76292000Y-74309000D01*
X76292000Y-76059000D02*
X75092000Y-76059000D01*
X75092000Y-76849000D02*
X76292000Y-76849000D01*
X76292000Y-78599000D02*
X75092000Y-78599000D01*
X29323000Y-107604000D02*
X29323000Y-108804000D01*
X27573000Y-108804000D02*
X27573000Y-107604000D01*
X76292000Y-96379000D02*
X75092000Y-96379000D01*
X75092000Y-94629000D02*
X76292000Y-94629000D01*
X76292000Y-93839000D02*
X75092000Y-93839000D01*
X75092000Y-92089000D02*
X76292000Y-92089000D01*
X76292000Y-91299000D02*
X75092000Y-91299000D01*
X75092000Y-89549000D02*
X76292000Y-89549000D01*
X76292000Y-88759000D02*
X75092000Y-88759000D01*
X75092000Y-87009000D02*
X76292000Y-87009000D01*
X43829000Y-97247000D02*
X43829000Y-96047000D01*
X45579000Y-96047000D02*
X45579000Y-97247000D01*
X75092000Y-101233000D02*
X76292000Y-101233000D01*
X76292000Y-102983000D02*
X75092000Y-102983000D01*
X75092000Y-103773000D02*
X76292000Y-103773000D01*
X76292000Y-105523000D02*
X75092000Y-105523000D01*
X76292000Y-98919000D02*
X75092000Y-98919000D01*
X75092000Y-97169000D02*
X76292000Y-97169000D01*
X50824180Y-96697800D02*
X50824180Y-95996760D01*
X50824180Y-95996760D02*
X51073100Y-95996760D01*
X53623160Y-95996760D02*
X53823820Y-95996760D01*
X53823820Y-95996760D02*
X53823820Y-96697800D01*
X136442640Y-89916000D02*
X136992640Y-89466000D01*
X136992640Y-89466000D02*
X136992640Y-90366000D01*
X136992640Y-90366000D02*
X136442640Y-89916000D01*
X136442640Y-89366000D02*
X136442640Y-90466000D01*
X134893500Y-91666060D02*
X134893500Y-91315540D01*
X134893500Y-88165940D02*
X134893500Y-88516460D01*
X138943080Y-91666060D02*
X138943080Y-91315540D01*
X134442200Y-91666060D02*
X134442200Y-91315540D01*
X134442200Y-88165940D02*
X134442200Y-88516460D01*
X138943080Y-88165940D02*
X138943080Y-88516460D01*
X134442200Y-91666060D02*
X138943080Y-91666060D01*
X134442200Y-88165940D02*
X138943080Y-88165940D01*
X120948640Y-89916000D02*
X121498640Y-89466000D01*
X121498640Y-89466000D02*
X121498640Y-90366000D01*
X121498640Y-90366000D02*
X120948640Y-89916000D01*
X120948640Y-89366000D02*
X120948640Y-90466000D01*
X119399500Y-91666060D02*
X119399500Y-91315540D01*
X119399500Y-88165940D02*
X119399500Y-88516460D01*
X123449080Y-91666060D02*
X123449080Y-91315540D01*
X118948200Y-91666060D02*
X118948200Y-91315540D01*
X118948200Y-88165940D02*
X118948200Y-88516460D01*
X123449080Y-88165940D02*
X123449080Y-88516460D01*
X118948200Y-91666060D02*
X123449080Y-91666060D01*
X118948200Y-88165940D02*
X123449080Y-88165940D01*
X105708640Y-89916000D02*
X106258640Y-89466000D01*
X106258640Y-89466000D02*
X106258640Y-90366000D01*
X106258640Y-90366000D02*
X105708640Y-89916000D01*
X105708640Y-89366000D02*
X105708640Y-90466000D01*
X104159500Y-91666060D02*
X104159500Y-91315540D01*
X104159500Y-88165940D02*
X104159500Y-88516460D01*
X108209080Y-91666060D02*
X108209080Y-91315540D01*
X103708200Y-91666060D02*
X103708200Y-91315540D01*
X103708200Y-88165940D02*
X103708200Y-88516460D01*
X108209080Y-88165940D02*
X108209080Y-88516460D01*
X103708200Y-91666060D02*
X108209080Y-91666060D01*
X103708200Y-88165940D02*
X108209080Y-88165940D01*
X90976640Y-89916000D02*
X91526640Y-89466000D01*
X91526640Y-89466000D02*
X91526640Y-90366000D01*
X91526640Y-90366000D02*
X90976640Y-89916000D01*
X90976640Y-89366000D02*
X90976640Y-90466000D01*
X89427500Y-91666060D02*
X89427500Y-91315540D01*
X89427500Y-88165940D02*
X89427500Y-88516460D01*
X93477080Y-91666060D02*
X93477080Y-91315540D01*
X88976200Y-91666060D02*
X88976200Y-91315540D01*
X88976200Y-88165940D02*
X88976200Y-88516460D01*
X93477080Y-88165940D02*
X93477080Y-88516460D01*
X88976200Y-91666060D02*
X93477080Y-91666060D01*
X88976200Y-88165940D02*
X93477080Y-88165940D01*
X82854800Y-105918000D02*
X82854800Y-103378000D01*
X82574800Y-108738000D02*
X82574800Y-107188000D01*
X82854800Y-105918000D02*
X85394800Y-105918000D01*
X85674800Y-107188000D02*
X85674800Y-108738000D01*
X85674800Y-108738000D02*
X82574800Y-108738000D01*
X85394800Y-105918000D02*
X85394800Y-103378000D01*
X85394800Y-103378000D02*
X82854800Y-103378000D01*
X22352000Y-70612000D02*
X22352000Y-68072000D01*
X22072000Y-73432000D02*
X22072000Y-71882000D01*
X22352000Y-70612000D02*
X24892000Y-70612000D01*
X25172000Y-71882000D02*
X25172000Y-73432000D01*
X25172000Y-73432000D02*
X22072000Y-73432000D01*
X24892000Y-70612000D02*
X24892000Y-68072000D01*
X24892000Y-68072000D02*
X22352000Y-68072000D01*
X50228500Y-82550000D02*
X49847500Y-82550000D01*
X51244500Y-82550000D02*
X50863500Y-82550000D01*
X50863500Y-82550000D02*
X50228500Y-82931000D01*
X50228500Y-82931000D02*
X50228500Y-82169000D01*
X50228500Y-82169000D02*
X50863500Y-82550000D01*
X50863500Y-83058000D02*
X50863500Y-82042000D01*
X52546000Y-81650000D02*
X49006000Y-81650000D01*
X52546000Y-83450000D02*
X49006000Y-83450000D01*
X51054000Y-86296500D02*
X51054000Y-86677500D01*
X51054000Y-85280500D02*
X51054000Y-85661500D01*
X51054000Y-85661500D02*
X51435000Y-86296500D01*
X51435000Y-86296500D02*
X50673000Y-86296500D01*
X50673000Y-86296500D02*
X51054000Y-85661500D01*
X51562000Y-85661500D02*
X50546000Y-85661500D01*
X50154000Y-83979000D02*
X50154000Y-87519000D01*
X51954000Y-83979000D02*
X51954000Y-87519000D01*
X53522667Y-57012381D02*
X53522667Y-57726667D01*
X53475047Y-57869524D01*
X53379809Y-57964762D01*
X53236952Y-58012381D01*
X53141714Y-58012381D01*
X53903619Y-57012381D02*
X54522667Y-57012381D01*
X54189333Y-57393333D01*
X54332191Y-57393333D01*
X54427429Y-57440952D01*
X54475048Y-57488571D01*
X54522667Y-57583810D01*
X54522667Y-57821905D01*
X54475048Y-57917143D01*
X54427429Y-57964762D01*
X54332191Y-58012381D01*
X54046476Y-58012381D01*
X53951238Y-57964762D01*
X53903619Y-57917143D01*
X67841905Y-63444381D02*
X67841905Y-62444381D01*
X68222858Y-62444381D01*
X68318096Y-62492000D01*
X68365715Y-62539619D01*
X68413334Y-62634857D01*
X68413334Y-62777714D01*
X68365715Y-62872952D01*
X68318096Y-62920571D01*
X68222858Y-62968190D01*
X67841905Y-62968190D01*
X68794286Y-62539619D02*
X68841905Y-62492000D01*
X68937143Y-62444381D01*
X69175239Y-62444381D01*
X69270477Y-62492000D01*
X69318096Y-62539619D01*
X69365715Y-62634857D01*
X69365715Y-62730095D01*
X69318096Y-62872952D01*
X68746667Y-63444381D01*
X69365715Y-63444381D01*
X30630905Y-67813181D02*
X30630905Y-66813181D01*
X31011858Y-66813181D01*
X31107096Y-66860800D01*
X31154715Y-66908419D01*
X31202334Y-67003657D01*
X31202334Y-67146514D01*
X31154715Y-67241752D01*
X31107096Y-67289371D01*
X31011858Y-67336990D01*
X30630905Y-67336990D01*
X31678524Y-67813181D02*
X31869000Y-67813181D01*
X31964239Y-67765562D01*
X32011858Y-67717943D01*
X32107096Y-67575086D01*
X32154715Y-67384610D01*
X32154715Y-67003657D01*
X32107096Y-66908419D01*
X32059477Y-66860800D01*
X31964239Y-66813181D01*
X31773762Y-66813181D01*
X31678524Y-66860800D01*
X31630905Y-66908419D01*
X31583286Y-67003657D01*
X31583286Y-67241752D01*
X31630905Y-67336990D01*
X31678524Y-67384610D01*
X31773762Y-67432229D01*
X31964239Y-67432229D01*
X32059477Y-67384610D01*
X32107096Y-67336990D01*
X32154715Y-67241752D01*
X50236381Y-104624095D02*
X49236381Y-104624095D01*
X49236381Y-104386000D01*
X49284000Y-104243142D01*
X49379238Y-104147904D01*
X49474476Y-104100285D01*
X49664952Y-104052666D01*
X49807810Y-104052666D01*
X49998286Y-104100285D01*
X50093524Y-104147904D01*
X50188762Y-104243142D01*
X50236381Y-104386000D01*
X50236381Y-104624095D01*
X49664952Y-103481238D02*
X49617333Y-103576476D01*
X49569714Y-103624095D01*
X49474476Y-103671714D01*
X49426857Y-103671714D01*
X49331619Y-103624095D01*
X49284000Y-103576476D01*
X49236381Y-103481238D01*
X49236381Y-103290761D01*
X49284000Y-103195523D01*
X49331619Y-103147904D01*
X49426857Y-103100285D01*
X49474476Y-103100285D01*
X49569714Y-103147904D01*
X49617333Y-103195523D01*
X49664952Y-103290761D01*
X49664952Y-103481238D01*
X49712571Y-103576476D01*
X49760190Y-103624095D01*
X49855429Y-103671714D01*
X50045905Y-103671714D01*
X50141143Y-103624095D01*
X50188762Y-103576476D01*
X50236381Y-103481238D01*
X50236381Y-103290761D01*
X50188762Y-103195523D01*
X50141143Y-103147904D01*
X50045905Y-103100285D01*
X49855429Y-103100285D01*
X49760190Y-103147904D01*
X49712571Y-103195523D01*
X49664952Y-103290761D01*
X51173143Y-102052381D02*
X50839809Y-101576190D01*
X50601714Y-102052381D02*
X50601714Y-101052381D01*
X50982667Y-101052381D01*
X51077905Y-101100000D01*
X51125524Y-101147619D01*
X51173143Y-101242857D01*
X51173143Y-101385714D01*
X51125524Y-101480952D01*
X51077905Y-101528571D01*
X50982667Y-101576190D01*
X50601714Y-101576190D01*
X51554095Y-101147619D02*
X51601714Y-101100000D01*
X51696952Y-101052381D01*
X51935048Y-101052381D01*
X52030286Y-101100000D01*
X52077905Y-101147619D01*
X52125524Y-101242857D01*
X52125524Y-101338095D01*
X52077905Y-101480952D01*
X51506476Y-102052381D01*
X52125524Y-102052381D01*
X52982667Y-101052381D02*
X52792190Y-101052381D01*
X52696952Y-101100000D01*
X52649333Y-101147619D01*
X52554095Y-101290476D01*
X52506476Y-101480952D01*
X52506476Y-101861905D01*
X52554095Y-101957143D01*
X52601714Y-102004762D01*
X52696952Y-102052381D01*
X52887429Y-102052381D01*
X52982667Y-102004762D01*
X53030286Y-101957143D01*
X53077905Y-101861905D01*
X53077905Y-101623810D01*
X53030286Y-101528571D01*
X52982667Y-101480952D01*
X52887429Y-101433333D01*
X52696952Y-101433333D01*
X52601714Y-101480952D01*
X52554095Y-101528571D01*
X52506476Y-101623810D01*
X50236381Y-111450286D02*
X49236381Y-111450286D01*
X49236381Y-111212191D01*
X49284000Y-111069333D01*
X49379238Y-110974095D01*
X49474476Y-110926476D01*
X49664952Y-110878857D01*
X49807810Y-110878857D01*
X49998286Y-110926476D01*
X50093524Y-110974095D01*
X50188762Y-111069333D01*
X50236381Y-111212191D01*
X50236381Y-111450286D01*
X50236381Y-109926476D02*
X50236381Y-110497905D01*
X50236381Y-110212191D02*
X49236381Y-110212191D01*
X49379238Y-110307429D01*
X49474476Y-110402667D01*
X49522095Y-110497905D01*
X49569714Y-109069333D02*
X50236381Y-109069333D01*
X49188762Y-109307429D02*
X49903048Y-109545524D01*
X49903048Y-108926476D01*
X51173143Y-108148381D02*
X50839809Y-107672190D01*
X50601714Y-108148381D02*
X50601714Y-107148381D01*
X50982667Y-107148381D01*
X51077905Y-107196000D01*
X51125524Y-107243619D01*
X51173143Y-107338857D01*
X51173143Y-107481714D01*
X51125524Y-107576952D01*
X51077905Y-107624571D01*
X50982667Y-107672190D01*
X50601714Y-107672190D01*
X51506476Y-107148381D02*
X52125524Y-107148381D01*
X51792190Y-107529333D01*
X51935048Y-107529333D01*
X52030286Y-107576952D01*
X52077905Y-107624571D01*
X52125524Y-107719810D01*
X52125524Y-107957905D01*
X52077905Y-108053143D01*
X52030286Y-108100762D01*
X51935048Y-108148381D01*
X51649333Y-108148381D01*
X51554095Y-108100762D01*
X51506476Y-108053143D01*
X52506476Y-107243619D02*
X52554095Y-107196000D01*
X52649333Y-107148381D01*
X52887429Y-107148381D01*
X52982667Y-107196000D01*
X53030286Y-107243619D01*
X53077905Y-107338857D01*
X53077905Y-107434095D01*
X53030286Y-107576952D01*
X52458857Y-108148381D01*
X53077905Y-108148381D01*
X35504381Y-114768095D02*
X34504381Y-114768095D01*
X34504381Y-114387142D01*
X34552000Y-114291904D01*
X34599619Y-114244285D01*
X34694857Y-114196666D01*
X34837714Y-114196666D01*
X34932952Y-114244285D01*
X34980571Y-114291904D01*
X35028190Y-114387142D01*
X35028190Y-114768095D01*
X35409143Y-113196666D02*
X35456762Y-113244285D01*
X35504381Y-113387142D01*
X35504381Y-113482380D01*
X35456762Y-113625238D01*
X35361524Y-113720476D01*
X35266286Y-113768095D01*
X35075810Y-113815714D01*
X34932952Y-113815714D01*
X34742476Y-113768095D01*
X34647238Y-113720476D01*
X34552000Y-113625238D01*
X34504381Y-113482380D01*
X34504381Y-113387142D01*
X34552000Y-113244285D01*
X34599619Y-113196666D01*
X34980571Y-112434761D02*
X35028190Y-112291904D01*
X35075810Y-112244285D01*
X35171048Y-112196666D01*
X35313905Y-112196666D01*
X35409143Y-112244285D01*
X35456762Y-112291904D01*
X35504381Y-112387142D01*
X35504381Y-112768095D01*
X34504381Y-112768095D01*
X34504381Y-112434761D01*
X34552000Y-112339523D01*
X34599619Y-112291904D01*
X34694857Y-112244285D01*
X34790095Y-112244285D01*
X34885333Y-112291904D01*
X34932952Y-112339523D01*
X34980571Y-112434761D01*
X34980571Y-112768095D01*
X35504381Y-111244285D02*
X35504381Y-111815714D01*
X35504381Y-111530000D02*
X34504381Y-111530000D01*
X34647238Y-111625238D01*
X34742476Y-111720476D01*
X34790095Y-111815714D01*
X40100381Y-72080381D02*
X39767047Y-71604190D01*
X39528952Y-72080381D02*
X39528952Y-71080381D01*
X39909905Y-71080381D01*
X40005143Y-71128000D01*
X40052762Y-71175619D01*
X40100381Y-71270857D01*
X40100381Y-71413714D01*
X40052762Y-71508952D01*
X40005143Y-71556571D01*
X39909905Y-71604190D01*
X39528952Y-71604190D01*
X40528952Y-71556571D02*
X40862286Y-71556571D01*
X41005143Y-72080381D02*
X40528952Y-72080381D01*
X40528952Y-71080381D01*
X41005143Y-71080381D01*
X41767048Y-71556571D02*
X41433714Y-71556571D01*
X41433714Y-72080381D02*
X41433714Y-71080381D01*
X41909905Y-71080381D01*
X42814667Y-72080381D02*
X42243238Y-72080381D01*
X42528952Y-72080381D02*
X42528952Y-71080381D01*
X42433714Y-71223238D01*
X42338476Y-71318476D01*
X42243238Y-71366095D01*
X36933143Y-71032666D02*
X36980762Y-71080285D01*
X37028381Y-71223142D01*
X37028381Y-71318380D01*
X36980762Y-71461238D01*
X36885524Y-71556476D01*
X36790286Y-71604095D01*
X36599810Y-71651714D01*
X36456952Y-71651714D01*
X36266476Y-71604095D01*
X36171238Y-71556476D01*
X36076000Y-71461238D01*
X36028381Y-71318380D01*
X36028381Y-71223142D01*
X36076000Y-71080285D01*
X36123619Y-71032666D01*
X37028381Y-70080285D02*
X37028381Y-70651714D01*
X37028381Y-70366000D02*
X36028381Y-70366000D01*
X36171238Y-70461238D01*
X36266476Y-70556476D01*
X36314095Y-70651714D01*
X37028381Y-83446857D02*
X36552190Y-83780191D01*
X37028381Y-84018286D02*
X36028381Y-84018286D01*
X36028381Y-83637333D01*
X36076000Y-83542095D01*
X36123619Y-83494476D01*
X36218857Y-83446857D01*
X36361714Y-83446857D01*
X36456952Y-83494476D01*
X36504571Y-83542095D01*
X36552190Y-83637333D01*
X36552190Y-84018286D01*
X37028381Y-82494476D02*
X37028381Y-83065905D01*
X37028381Y-82780191D02*
X36028381Y-82780191D01*
X36171238Y-82875429D01*
X36266476Y-82970667D01*
X36314095Y-83065905D01*
X36456952Y-81923048D02*
X36409333Y-82018286D01*
X36361714Y-82065905D01*
X36266476Y-82113524D01*
X36218857Y-82113524D01*
X36123619Y-82065905D01*
X36076000Y-82018286D01*
X36028381Y-81923048D01*
X36028381Y-81732571D01*
X36076000Y-81637333D01*
X36123619Y-81589714D01*
X36218857Y-81542095D01*
X36266476Y-81542095D01*
X36361714Y-81589714D01*
X36409333Y-81637333D01*
X36456952Y-81732571D01*
X36456952Y-81923048D01*
X36504571Y-82018286D01*
X36552190Y-82065905D01*
X36647429Y-82113524D01*
X36837905Y-82113524D01*
X36933143Y-82065905D01*
X36980762Y-82018286D01*
X37028381Y-81923048D01*
X37028381Y-81732571D01*
X36980762Y-81637333D01*
X36933143Y-81589714D01*
X36837905Y-81542095D01*
X36647429Y-81542095D01*
X36552190Y-81589714D01*
X36504571Y-81637333D01*
X36456952Y-81732571D01*
X39314381Y-83446857D02*
X38838190Y-83780191D01*
X39314381Y-84018286D02*
X38314381Y-84018286D01*
X38314381Y-83637333D01*
X38362000Y-83542095D01*
X38409619Y-83494476D01*
X38504857Y-83446857D01*
X38647714Y-83446857D01*
X38742952Y-83494476D01*
X38790571Y-83542095D01*
X38838190Y-83637333D01*
X38838190Y-84018286D01*
X39314381Y-82494476D02*
X39314381Y-83065905D01*
X39314381Y-82780191D02*
X38314381Y-82780191D01*
X38457238Y-82875429D01*
X38552476Y-82970667D01*
X38600095Y-83065905D01*
X38314381Y-82161143D02*
X38314381Y-81494476D01*
X39314381Y-81923048D01*
X29972095Y-83272381D02*
X29972095Y-84081905D01*
X30019714Y-84177143D01*
X30067333Y-84224762D01*
X30162571Y-84272381D01*
X30353048Y-84272381D01*
X30448286Y-84224762D01*
X30495905Y-84177143D01*
X30543524Y-84081905D01*
X30543524Y-83272381D01*
X31543524Y-84272381D02*
X30972095Y-84272381D01*
X31257809Y-84272381D02*
X31257809Y-83272381D01*
X31162571Y-83415238D01*
X31067333Y-83510476D01*
X30972095Y-83558095D01*
X87479143Y-60045765D02*
X87526762Y-60093384D01*
X87574381Y-60236241D01*
X87574381Y-60331479D01*
X87526762Y-60474337D01*
X87431524Y-60569575D01*
X87336286Y-60617194D01*
X87145810Y-60664813D01*
X87002952Y-60664813D01*
X86812476Y-60617194D01*
X86717238Y-60569575D01*
X86622000Y-60474337D01*
X86574381Y-60331479D01*
X86574381Y-60236241D01*
X86622000Y-60093384D01*
X86669619Y-60045765D01*
X86574381Y-59426718D02*
X86574381Y-59236241D01*
X86622000Y-59141003D01*
X86717238Y-59045765D01*
X86907714Y-58998146D01*
X87241048Y-58998146D01*
X87431524Y-59045765D01*
X87526762Y-59141003D01*
X87574381Y-59236241D01*
X87574381Y-59426718D01*
X87526762Y-59521956D01*
X87431524Y-59617194D01*
X87241048Y-59664813D01*
X86907714Y-59664813D01*
X86717238Y-59617194D01*
X86622000Y-59521956D01*
X86574381Y-59426718D01*
X87574381Y-58569575D02*
X86574381Y-58569575D01*
X87574381Y-57998146D01*
X86574381Y-57998146D01*
X87574381Y-56998146D02*
X87574381Y-57569575D01*
X87574381Y-57283861D02*
X86574381Y-57283861D01*
X86717238Y-57379099D01*
X86812476Y-57474337D01*
X86860095Y-57569575D01*
X159686667Y-66508381D02*
X159686667Y-67222667D01*
X159639047Y-67365524D01*
X159543809Y-67460762D01*
X159400952Y-67508381D01*
X159305714Y-67508381D01*
X160686667Y-67508381D02*
X160115238Y-67508381D01*
X160400952Y-67508381D02*
X160400952Y-66508381D01*
X160305714Y-66651238D01*
X160210476Y-66746476D01*
X160115238Y-66794095D01*
X127682667Y-66508381D02*
X127682667Y-67222667D01*
X127635047Y-67365524D01*
X127539809Y-67460762D01*
X127396952Y-67508381D01*
X127301714Y-67508381D01*
X128111238Y-66603619D02*
X128158857Y-66556000D01*
X128254095Y-66508381D01*
X128492191Y-66508381D01*
X128587429Y-66556000D01*
X128635048Y-66603619D01*
X128682667Y-66698857D01*
X128682667Y-66794095D01*
X128635048Y-66936952D01*
X128063619Y-67508381D01*
X128682667Y-67508381D01*
X123531334Y-87479143D02*
X123483715Y-87526762D01*
X123340858Y-87574381D01*
X123245620Y-87574381D01*
X123102762Y-87526762D01*
X123007524Y-87431524D01*
X122959905Y-87336286D01*
X122912286Y-87145810D01*
X122912286Y-87002952D01*
X122959905Y-86812476D01*
X123007524Y-86717238D01*
X123102762Y-86622000D01*
X123245620Y-86574381D01*
X123340858Y-86574381D01*
X123483715Y-86622000D01*
X123531334Y-86669619D01*
X123864667Y-86574381D02*
X124483715Y-86574381D01*
X124150381Y-86955333D01*
X124293239Y-86955333D01*
X124388477Y-87002952D01*
X124436096Y-87050571D01*
X124483715Y-87145810D01*
X124483715Y-87383905D01*
X124436096Y-87479143D01*
X124388477Y-87526762D01*
X124293239Y-87574381D01*
X124007524Y-87574381D01*
X123912286Y-87526762D01*
X123864667Y-87479143D01*
X108291334Y-87479143D02*
X108243715Y-87526762D01*
X108100858Y-87574381D01*
X108005620Y-87574381D01*
X107862762Y-87526762D01*
X107767524Y-87431524D01*
X107719905Y-87336286D01*
X107672286Y-87145810D01*
X107672286Y-87002952D01*
X107719905Y-86812476D01*
X107767524Y-86717238D01*
X107862762Y-86622000D01*
X108005620Y-86574381D01*
X108100858Y-86574381D01*
X108243715Y-86622000D01*
X108291334Y-86669619D01*
X109148477Y-86907714D02*
X109148477Y-87574381D01*
X108910381Y-86526762D02*
X108672286Y-87241048D01*
X109291334Y-87241048D01*
X93559334Y-87479143D02*
X93511715Y-87526762D01*
X93368858Y-87574381D01*
X93273620Y-87574381D01*
X93130762Y-87526762D01*
X93035524Y-87431524D01*
X92987905Y-87336286D01*
X92940286Y-87145810D01*
X92940286Y-87002952D01*
X92987905Y-86812476D01*
X93035524Y-86717238D01*
X93130762Y-86622000D01*
X93273620Y-86574381D01*
X93368858Y-86574381D01*
X93511715Y-86622000D01*
X93559334Y-86669619D01*
X94464096Y-86574381D02*
X93987905Y-86574381D01*
X93940286Y-87050571D01*
X93987905Y-87002952D01*
X94083143Y-86955333D01*
X94321239Y-86955333D01*
X94416477Y-87002952D01*
X94464096Y-87050571D01*
X94511715Y-87145810D01*
X94511715Y-87383905D01*
X94464096Y-87479143D01*
X94416477Y-87526762D01*
X94321239Y-87574381D01*
X94083143Y-87574381D01*
X93987905Y-87526762D01*
X93940286Y-87479143D01*
X148748762Y-95289619D02*
X148653524Y-95242000D01*
X148558286Y-95146762D01*
X148415429Y-95003905D01*
X148320190Y-94956286D01*
X148224952Y-94956286D01*
X148272571Y-95194381D02*
X148177333Y-95146762D01*
X148082095Y-95051524D01*
X148034476Y-94861048D01*
X148034476Y-94527714D01*
X148082095Y-94337238D01*
X148177333Y-94242000D01*
X148272571Y-94194381D01*
X148463048Y-94194381D01*
X148558286Y-94242000D01*
X148653524Y-94337238D01*
X148701143Y-94527714D01*
X148701143Y-94861048D01*
X148653524Y-95051524D01*
X148558286Y-95146762D01*
X148463048Y-95194381D01*
X148272571Y-95194381D01*
X149605905Y-94194381D02*
X149129714Y-94194381D01*
X149082095Y-94670571D01*
X149129714Y-94622952D01*
X149224952Y-94575333D01*
X149463048Y-94575333D01*
X149558286Y-94622952D01*
X149605905Y-94670571D01*
X149653524Y-94765810D01*
X149653524Y-95003905D01*
X149605905Y-95099143D01*
X149558286Y-95146762D01*
X149463048Y-95194381D01*
X149224952Y-95194381D01*
X149129714Y-95146762D01*
X149082095Y-95099143D01*
X118268762Y-95289619D02*
X118173524Y-95242000D01*
X118078286Y-95146762D01*
X117935429Y-95003905D01*
X117840190Y-94956286D01*
X117744952Y-94956286D01*
X117792571Y-95194381D02*
X117697333Y-95146762D01*
X117602095Y-95051524D01*
X117554476Y-94861048D01*
X117554476Y-94527714D01*
X117602095Y-94337238D01*
X117697333Y-94242000D01*
X117792571Y-94194381D01*
X117983048Y-94194381D01*
X118078286Y-94242000D01*
X118173524Y-94337238D01*
X118221143Y-94527714D01*
X118221143Y-94861048D01*
X118173524Y-95051524D01*
X118078286Y-95146762D01*
X117983048Y-95194381D01*
X117792571Y-95194381D01*
X119078286Y-94194381D02*
X118887809Y-94194381D01*
X118792571Y-94242000D01*
X118744952Y-94289619D01*
X118649714Y-94432476D01*
X118602095Y-94622952D01*
X118602095Y-95003905D01*
X118649714Y-95099143D01*
X118697333Y-95146762D01*
X118792571Y-95194381D01*
X118983048Y-95194381D01*
X119078286Y-95146762D01*
X119125905Y-95099143D01*
X119173524Y-95003905D01*
X119173524Y-94765810D01*
X119125905Y-94670571D01*
X119078286Y-94622952D01*
X118983048Y-94575333D01*
X118792571Y-94575333D01*
X118697333Y-94622952D01*
X118649714Y-94670571D01*
X118602095Y-94765810D01*
X103028762Y-95289619D02*
X102933524Y-95242000D01*
X102838286Y-95146762D01*
X102695429Y-95003905D01*
X102600190Y-94956286D01*
X102504952Y-94956286D01*
X102552571Y-95194381D02*
X102457333Y-95146762D01*
X102362095Y-95051524D01*
X102314476Y-94861048D01*
X102314476Y-94527714D01*
X102362095Y-94337238D01*
X102457333Y-94242000D01*
X102552571Y-94194381D01*
X102743048Y-94194381D01*
X102838286Y-94242000D01*
X102933524Y-94337238D01*
X102981143Y-94527714D01*
X102981143Y-94861048D01*
X102933524Y-95051524D01*
X102838286Y-95146762D01*
X102743048Y-95194381D01*
X102552571Y-95194381D01*
X103314476Y-94194381D02*
X103981143Y-94194381D01*
X103552571Y-95194381D01*
X87788762Y-95289619D02*
X87693524Y-95242000D01*
X87598286Y-95146762D01*
X87455429Y-95003905D01*
X87360190Y-94956286D01*
X87264952Y-94956286D01*
X87312571Y-95194381D02*
X87217333Y-95146762D01*
X87122095Y-95051524D01*
X87074476Y-94861048D01*
X87074476Y-94527714D01*
X87122095Y-94337238D01*
X87217333Y-94242000D01*
X87312571Y-94194381D01*
X87503048Y-94194381D01*
X87598286Y-94242000D01*
X87693524Y-94337238D01*
X87741143Y-94527714D01*
X87741143Y-94861048D01*
X87693524Y-95051524D01*
X87598286Y-95146762D01*
X87503048Y-95194381D01*
X87312571Y-95194381D01*
X88312571Y-94622952D02*
X88217333Y-94575333D01*
X88169714Y-94527714D01*
X88122095Y-94432476D01*
X88122095Y-94384857D01*
X88169714Y-94289619D01*
X88217333Y-94242000D01*
X88312571Y-94194381D01*
X88503048Y-94194381D01*
X88598286Y-94242000D01*
X88645905Y-94289619D01*
X88693524Y-94384857D01*
X88693524Y-94432476D01*
X88645905Y-94527714D01*
X88598286Y-94575333D01*
X88503048Y-94622952D01*
X88312571Y-94622952D01*
X88217333Y-94670571D01*
X88169714Y-94718190D01*
X88122095Y-94813429D01*
X88122095Y-95003905D01*
X88169714Y-95099143D01*
X88217333Y-95146762D01*
X88312571Y-95194381D01*
X88503048Y-95194381D01*
X88598286Y-95146762D01*
X88645905Y-95099143D01*
X88693524Y-95003905D01*
X88693524Y-94813429D01*
X88645905Y-94718190D01*
X88598286Y-94670571D01*
X88503048Y-94622952D01*
X139279334Y-87225143D02*
X139231715Y-87272762D01*
X139088858Y-87320381D01*
X138993620Y-87320381D01*
X138850762Y-87272762D01*
X138755524Y-87177524D01*
X138707905Y-87082286D01*
X138660286Y-86891810D01*
X138660286Y-86748952D01*
X138707905Y-86558476D01*
X138755524Y-86463238D01*
X138850762Y-86368000D01*
X138993620Y-86320381D01*
X139088858Y-86320381D01*
X139231715Y-86368000D01*
X139279334Y-86415619D01*
X140136477Y-86320381D02*
X139946000Y-86320381D01*
X139850762Y-86368000D01*
X139803143Y-86415619D01*
X139707905Y-86558476D01*
X139660286Y-86748952D01*
X139660286Y-87129905D01*
X139707905Y-87225143D01*
X139755524Y-87272762D01*
X139850762Y-87320381D01*
X140041239Y-87320381D01*
X140136477Y-87272762D01*
X140184096Y-87225143D01*
X140231715Y-87129905D01*
X140231715Y-86891810D01*
X140184096Y-86796571D01*
X140136477Y-86748952D01*
X140041239Y-86701333D01*
X139850762Y-86701333D01*
X139755524Y-86748952D01*
X139707905Y-86796571D01*
X139660286Y-86891810D01*
X133508762Y-95289619D02*
X133413524Y-95242000D01*
X133318286Y-95146762D01*
X133175429Y-95003905D01*
X133080190Y-94956286D01*
X132984952Y-94956286D01*
X133032571Y-95194381D02*
X132937333Y-95146762D01*
X132842095Y-95051524D01*
X132794476Y-94861048D01*
X132794476Y-94527714D01*
X132842095Y-94337238D01*
X132937333Y-94242000D01*
X133032571Y-94194381D01*
X133223048Y-94194381D01*
X133318286Y-94242000D01*
X133413524Y-94337238D01*
X133461143Y-94527714D01*
X133461143Y-94861048D01*
X133413524Y-95051524D01*
X133318286Y-95146762D01*
X133223048Y-95194381D01*
X133032571Y-95194381D01*
X133937333Y-95194381D02*
X134127809Y-95194381D01*
X134223048Y-95146762D01*
X134270667Y-95099143D01*
X134365905Y-94956286D01*
X134413524Y-94765810D01*
X134413524Y-94384857D01*
X134365905Y-94289619D01*
X134318286Y-94242000D01*
X134223048Y-94194381D01*
X134032571Y-94194381D01*
X133937333Y-94242000D01*
X133889714Y-94289619D01*
X133842095Y-94384857D01*
X133842095Y-94622952D01*
X133889714Y-94718190D01*
X133937333Y-94765810D01*
X134032571Y-94813429D01*
X134223048Y-94813429D01*
X134318286Y-94765810D01*
X134365905Y-94718190D01*
X134413524Y-94622952D01*
X69794381Y-117578095D02*
X68794381Y-117578095D01*
X68794381Y-117340000D01*
X68842000Y-117197142D01*
X68937238Y-117101904D01*
X69032476Y-117054285D01*
X69222952Y-117006666D01*
X69365810Y-117006666D01*
X69556286Y-117054285D01*
X69651524Y-117101904D01*
X69746762Y-117197142D01*
X69794381Y-117340000D01*
X69794381Y-117578095D01*
X69794381Y-116530476D02*
X69794381Y-116340000D01*
X69746762Y-116244761D01*
X69699143Y-116197142D01*
X69556286Y-116101904D01*
X69365810Y-116054285D01*
X68984857Y-116054285D01*
X68889619Y-116101904D01*
X68842000Y-116149523D01*
X68794381Y-116244761D01*
X68794381Y-116435238D01*
X68842000Y-116530476D01*
X68889619Y-116578095D01*
X68984857Y-116625714D01*
X69222952Y-116625714D01*
X69318190Y-116578095D01*
X69365810Y-116530476D01*
X69413429Y-116435238D01*
X69413429Y-116244761D01*
X69365810Y-116149523D01*
X69318190Y-116101904D01*
X69222952Y-116054285D01*
X68524381Y-117546286D02*
X67524381Y-117546286D01*
X67524381Y-117308191D01*
X67572000Y-117165333D01*
X67667238Y-117070095D01*
X67762476Y-117022476D01*
X67952952Y-116974857D01*
X68095810Y-116974857D01*
X68286286Y-117022476D01*
X68381524Y-117070095D01*
X68476762Y-117165333D01*
X68524381Y-117308191D01*
X68524381Y-117546286D01*
X68524381Y-116022476D02*
X68524381Y-116593905D01*
X68524381Y-116308191D02*
X67524381Y-116308191D01*
X67667238Y-116403429D01*
X67762476Y-116498667D01*
X67810095Y-116593905D01*
X68524381Y-115070095D02*
X68524381Y-115641524D01*
X68524381Y-115355810D02*
X67524381Y-115355810D01*
X67667238Y-115451048D01*
X67762476Y-115546286D01*
X67810095Y-115641524D01*
X67254381Y-117546286D02*
X66254381Y-117546286D01*
X66254381Y-117308191D01*
X66302000Y-117165333D01*
X66397238Y-117070095D01*
X66492476Y-117022476D01*
X66682952Y-116974857D01*
X66825810Y-116974857D01*
X67016286Y-117022476D01*
X67111524Y-117070095D01*
X67206762Y-117165333D01*
X67254381Y-117308191D01*
X67254381Y-117546286D01*
X67254381Y-116022476D02*
X67254381Y-116593905D01*
X67254381Y-116308191D02*
X66254381Y-116308191D01*
X66397238Y-116403429D01*
X66492476Y-116498667D01*
X66540095Y-116593905D01*
X66254381Y-115689143D02*
X66254381Y-115070095D01*
X66635333Y-115403429D01*
X66635333Y-115260571D01*
X66682952Y-115165333D01*
X66730571Y-115117714D01*
X66825810Y-115070095D01*
X67063905Y-115070095D01*
X67159143Y-115117714D01*
X67206762Y-115165333D01*
X67254381Y-115260571D01*
X67254381Y-115546286D01*
X67206762Y-115641524D01*
X67159143Y-115689143D01*
X50236381Y-118308286D02*
X49236381Y-118308286D01*
X49236381Y-118070191D01*
X49284000Y-117927333D01*
X49379238Y-117832095D01*
X49474476Y-117784476D01*
X49664952Y-117736857D01*
X49807810Y-117736857D01*
X49998286Y-117784476D01*
X50093524Y-117832095D01*
X50188762Y-117927333D01*
X50236381Y-118070191D01*
X50236381Y-118308286D01*
X50236381Y-116784476D02*
X50236381Y-117355905D01*
X50236381Y-117070191D02*
X49236381Y-117070191D01*
X49379238Y-117165429D01*
X49474476Y-117260667D01*
X49522095Y-117355905D01*
X49236381Y-115927333D02*
X49236381Y-116117810D01*
X49284000Y-116213048D01*
X49331619Y-116260667D01*
X49474476Y-116355905D01*
X49664952Y-116403524D01*
X50045905Y-116403524D01*
X50141143Y-116355905D01*
X50188762Y-116308286D01*
X50236381Y-116213048D01*
X50236381Y-116022571D01*
X50188762Y-115927333D01*
X50141143Y-115879714D01*
X50045905Y-115832095D01*
X49807810Y-115832095D01*
X49712571Y-115879714D01*
X49664952Y-115927333D01*
X49617333Y-116022571D01*
X49617333Y-116213048D01*
X49664952Y-116308286D01*
X49712571Y-116355905D01*
X49807810Y-116403524D01*
X160218381Y-99512286D02*
X159218381Y-99512286D01*
X159218381Y-99274191D01*
X159266000Y-99131333D01*
X159361238Y-99036095D01*
X159456476Y-98988476D01*
X159646952Y-98940857D01*
X159789810Y-98940857D01*
X159980286Y-98988476D01*
X160075524Y-99036095D01*
X160170762Y-99131333D01*
X160218381Y-99274191D01*
X160218381Y-99512286D01*
X160218381Y-97988476D02*
X160218381Y-98559905D01*
X160218381Y-98274191D02*
X159218381Y-98274191D01*
X159361238Y-98369429D01*
X159456476Y-98464667D01*
X159504095Y-98559905D01*
X159218381Y-97655143D02*
X159218381Y-96988476D01*
X160218381Y-97417048D01*
X129738381Y-99258286D02*
X128738381Y-99258286D01*
X128738381Y-99020191D01*
X128786000Y-98877333D01*
X128881238Y-98782095D01*
X128976476Y-98734476D01*
X129166952Y-98686857D01*
X129309810Y-98686857D01*
X129500286Y-98734476D01*
X129595524Y-98782095D01*
X129690762Y-98877333D01*
X129738381Y-99020191D01*
X129738381Y-99258286D01*
X129738381Y-97734476D02*
X129738381Y-98305905D01*
X129738381Y-98020191D02*
X128738381Y-98020191D01*
X128881238Y-98115429D01*
X128976476Y-98210667D01*
X129024095Y-98305905D01*
X129166952Y-97163048D02*
X129119333Y-97258286D01*
X129071714Y-97305905D01*
X128976476Y-97353524D01*
X128928857Y-97353524D01*
X128833619Y-97305905D01*
X128786000Y-97258286D01*
X128738381Y-97163048D01*
X128738381Y-96972571D01*
X128786000Y-96877333D01*
X128833619Y-96829714D01*
X128928857Y-96782095D01*
X128976476Y-96782095D01*
X129071714Y-96829714D01*
X129119333Y-96877333D01*
X129166952Y-96972571D01*
X129166952Y-97163048D01*
X129214571Y-97258286D01*
X129262190Y-97305905D01*
X129357429Y-97353524D01*
X129547905Y-97353524D01*
X129643143Y-97305905D01*
X129690762Y-97258286D01*
X129738381Y-97163048D01*
X129738381Y-96972571D01*
X129690762Y-96877333D01*
X129643143Y-96829714D01*
X129547905Y-96782095D01*
X129357429Y-96782095D01*
X129262190Y-96829714D01*
X129214571Y-96877333D01*
X129166952Y-96972571D01*
X114498381Y-99258286D02*
X113498381Y-99258286D01*
X113498381Y-99020191D01*
X113546000Y-98877333D01*
X113641238Y-98782095D01*
X113736476Y-98734476D01*
X113926952Y-98686857D01*
X114069810Y-98686857D01*
X114260286Y-98734476D01*
X114355524Y-98782095D01*
X114450762Y-98877333D01*
X114498381Y-99020191D01*
X114498381Y-99258286D01*
X114498381Y-97734476D02*
X114498381Y-98305905D01*
X114498381Y-98020191D02*
X113498381Y-98020191D01*
X113641238Y-98115429D01*
X113736476Y-98210667D01*
X113784095Y-98305905D01*
X114498381Y-97258286D02*
X114498381Y-97067810D01*
X114450762Y-96972571D01*
X114403143Y-96924952D01*
X114260286Y-96829714D01*
X114069810Y-96782095D01*
X113688857Y-96782095D01*
X113593619Y-96829714D01*
X113546000Y-96877333D01*
X113498381Y-96972571D01*
X113498381Y-97163048D01*
X113546000Y-97258286D01*
X113593619Y-97305905D01*
X113688857Y-97353524D01*
X113926952Y-97353524D01*
X114022190Y-97305905D01*
X114069810Y-97258286D01*
X114117429Y-97163048D01*
X114117429Y-96972571D01*
X114069810Y-96877333D01*
X114022190Y-96829714D01*
X113926952Y-96782095D01*
X99258381Y-99512286D02*
X98258381Y-99512286D01*
X98258381Y-99274191D01*
X98306000Y-99131333D01*
X98401238Y-99036095D01*
X98496476Y-98988476D01*
X98686952Y-98940857D01*
X98829810Y-98940857D01*
X99020286Y-98988476D01*
X99115524Y-99036095D01*
X99210762Y-99131333D01*
X99258381Y-99274191D01*
X99258381Y-99512286D01*
X98353619Y-98559905D02*
X98306000Y-98512286D01*
X98258381Y-98417048D01*
X98258381Y-98178952D01*
X98306000Y-98083714D01*
X98353619Y-98036095D01*
X98448857Y-97988476D01*
X98544095Y-97988476D01*
X98686952Y-98036095D01*
X99258381Y-98607524D01*
X99258381Y-97988476D01*
X98258381Y-97369429D02*
X98258381Y-97274190D01*
X98306000Y-97178952D01*
X98353619Y-97131333D01*
X98448857Y-97083714D01*
X98639333Y-97036095D01*
X98877429Y-97036095D01*
X99067905Y-97083714D01*
X99163143Y-97131333D01*
X99210762Y-97178952D01*
X99258381Y-97274190D01*
X99258381Y-97369429D01*
X99210762Y-97464667D01*
X99163143Y-97512286D01*
X99067905Y-97559905D01*
X98877429Y-97607524D01*
X98639333Y-97607524D01*
X98448857Y-97559905D01*
X98353619Y-97512286D01*
X98306000Y-97464667D01*
X98258381Y-97369429D01*
X144978381Y-99258286D02*
X143978381Y-99258286D01*
X143978381Y-99020191D01*
X144026000Y-98877333D01*
X144121238Y-98782095D01*
X144216476Y-98734476D01*
X144406952Y-98686857D01*
X144549810Y-98686857D01*
X144740286Y-98734476D01*
X144835524Y-98782095D01*
X144930762Y-98877333D01*
X144978381Y-99020191D01*
X144978381Y-99258286D01*
X144073619Y-98305905D02*
X144026000Y-98258286D01*
X143978381Y-98163048D01*
X143978381Y-97924952D01*
X144026000Y-97829714D01*
X144073619Y-97782095D01*
X144168857Y-97734476D01*
X144264095Y-97734476D01*
X144406952Y-97782095D01*
X144978381Y-98353524D01*
X144978381Y-97734476D01*
X144978381Y-96782095D02*
X144978381Y-97353524D01*
X144978381Y-97067810D02*
X143978381Y-97067810D01*
X144121238Y-97163048D01*
X144216476Y-97258286D01*
X144264095Y-97353524D01*
X69794381Y-121292857D02*
X69318190Y-121626191D01*
X69794381Y-121864286D02*
X68794381Y-121864286D01*
X68794381Y-121483333D01*
X68842000Y-121388095D01*
X68889619Y-121340476D01*
X68984857Y-121292857D01*
X69127714Y-121292857D01*
X69222952Y-121340476D01*
X69270571Y-121388095D01*
X69318190Y-121483333D01*
X69318190Y-121864286D01*
X68889619Y-120911905D02*
X68842000Y-120864286D01*
X68794381Y-120769048D01*
X68794381Y-120530952D01*
X68842000Y-120435714D01*
X68889619Y-120388095D01*
X68984857Y-120340476D01*
X69080095Y-120340476D01*
X69222952Y-120388095D01*
X69794381Y-120959524D01*
X69794381Y-120340476D01*
X68794381Y-120007143D02*
X68794381Y-119340476D01*
X69794381Y-119769048D01*
X68524381Y-121292857D02*
X68048190Y-121626191D01*
X68524381Y-121864286D02*
X67524381Y-121864286D01*
X67524381Y-121483333D01*
X67572000Y-121388095D01*
X67619619Y-121340476D01*
X67714857Y-121292857D01*
X67857714Y-121292857D01*
X67952952Y-121340476D01*
X68000571Y-121388095D01*
X68048190Y-121483333D01*
X68048190Y-121864286D01*
X67619619Y-120911905D02*
X67572000Y-120864286D01*
X67524381Y-120769048D01*
X67524381Y-120530952D01*
X67572000Y-120435714D01*
X67619619Y-120388095D01*
X67714857Y-120340476D01*
X67810095Y-120340476D01*
X67952952Y-120388095D01*
X68524381Y-120959524D01*
X68524381Y-120340476D01*
X68524381Y-119864286D02*
X68524381Y-119673810D01*
X68476762Y-119578571D01*
X68429143Y-119530952D01*
X68286286Y-119435714D01*
X68095810Y-119388095D01*
X67714857Y-119388095D01*
X67619619Y-119435714D01*
X67572000Y-119483333D01*
X67524381Y-119578571D01*
X67524381Y-119769048D01*
X67572000Y-119864286D01*
X67619619Y-119911905D01*
X67714857Y-119959524D01*
X67952952Y-119959524D01*
X68048190Y-119911905D01*
X68095810Y-119864286D01*
X68143429Y-119769048D01*
X68143429Y-119578571D01*
X68095810Y-119483333D01*
X68048190Y-119435714D01*
X67952952Y-119388095D01*
X67254381Y-121292857D02*
X66778190Y-121626191D01*
X67254381Y-121864286D02*
X66254381Y-121864286D01*
X66254381Y-121483333D01*
X66302000Y-121388095D01*
X66349619Y-121340476D01*
X66444857Y-121292857D01*
X66587714Y-121292857D01*
X66682952Y-121340476D01*
X66730571Y-121388095D01*
X66778190Y-121483333D01*
X66778190Y-121864286D01*
X66254381Y-120959524D02*
X66254381Y-120340476D01*
X66635333Y-120673810D01*
X66635333Y-120530952D01*
X66682952Y-120435714D01*
X66730571Y-120388095D01*
X66825810Y-120340476D01*
X67063905Y-120340476D01*
X67159143Y-120388095D01*
X67206762Y-120435714D01*
X67254381Y-120530952D01*
X67254381Y-120816667D01*
X67206762Y-120911905D01*
X67159143Y-120959524D01*
X67254381Y-119388095D02*
X67254381Y-119959524D01*
X67254381Y-119673810D02*
X66254381Y-119673810D01*
X66397238Y-119769048D01*
X66492476Y-119864286D01*
X66540095Y-119959524D01*
X51173143Y-114752381D02*
X50839809Y-114276190D01*
X50601714Y-114752381D02*
X50601714Y-113752381D01*
X50982667Y-113752381D01*
X51077905Y-113800000D01*
X51125524Y-113847619D01*
X51173143Y-113942857D01*
X51173143Y-114085714D01*
X51125524Y-114180952D01*
X51077905Y-114228571D01*
X50982667Y-114276190D01*
X50601714Y-114276190D01*
X51506476Y-113752381D02*
X52125524Y-113752381D01*
X51792190Y-114133333D01*
X51935048Y-114133333D01*
X52030286Y-114180952D01*
X52077905Y-114228571D01*
X52125524Y-114323810D01*
X52125524Y-114561905D01*
X52077905Y-114657143D01*
X52030286Y-114704762D01*
X51935048Y-114752381D01*
X51649333Y-114752381D01*
X51554095Y-114704762D01*
X51506476Y-114657143D01*
X52982667Y-114085714D02*
X52982667Y-114752381D01*
X52744571Y-113704762D02*
X52506476Y-114419048D01*
X53125524Y-114419048D01*
X162250381Y-99702857D02*
X161774190Y-100036191D01*
X162250381Y-100274286D02*
X161250381Y-100274286D01*
X161250381Y-99893333D01*
X161298000Y-99798095D01*
X161345619Y-99750476D01*
X161440857Y-99702857D01*
X161583714Y-99702857D01*
X161678952Y-99750476D01*
X161726571Y-99798095D01*
X161774190Y-99893333D01*
X161774190Y-100274286D01*
X161250381Y-99369524D02*
X161250381Y-98750476D01*
X161631333Y-99083810D01*
X161631333Y-98940952D01*
X161678952Y-98845714D01*
X161726571Y-98798095D01*
X161821810Y-98750476D01*
X162059905Y-98750476D01*
X162155143Y-98798095D01*
X162202762Y-98845714D01*
X162250381Y-98940952D01*
X162250381Y-99226667D01*
X162202762Y-99321905D01*
X162155143Y-99369524D01*
X161250381Y-97845714D02*
X161250381Y-98321905D01*
X161726571Y-98369524D01*
X161678952Y-98321905D01*
X161631333Y-98226667D01*
X161631333Y-97988571D01*
X161678952Y-97893333D01*
X161726571Y-97845714D01*
X161821810Y-97798095D01*
X162059905Y-97798095D01*
X162155143Y-97845714D01*
X162202762Y-97893333D01*
X162250381Y-97988571D01*
X162250381Y-98226667D01*
X162202762Y-98321905D01*
X162155143Y-98369524D01*
X131770381Y-99702857D02*
X131294190Y-100036191D01*
X131770381Y-100274286D02*
X130770381Y-100274286D01*
X130770381Y-99893333D01*
X130818000Y-99798095D01*
X130865619Y-99750476D01*
X130960857Y-99702857D01*
X131103714Y-99702857D01*
X131198952Y-99750476D01*
X131246571Y-99798095D01*
X131294190Y-99893333D01*
X131294190Y-100274286D01*
X130770381Y-99369524D02*
X130770381Y-98750476D01*
X131151333Y-99083810D01*
X131151333Y-98940952D01*
X131198952Y-98845714D01*
X131246571Y-98798095D01*
X131341810Y-98750476D01*
X131579905Y-98750476D01*
X131675143Y-98798095D01*
X131722762Y-98845714D01*
X131770381Y-98940952D01*
X131770381Y-99226667D01*
X131722762Y-99321905D01*
X131675143Y-99369524D01*
X130770381Y-97893333D02*
X130770381Y-98083810D01*
X130818000Y-98179048D01*
X130865619Y-98226667D01*
X131008476Y-98321905D01*
X131198952Y-98369524D01*
X131579905Y-98369524D01*
X131675143Y-98321905D01*
X131722762Y-98274286D01*
X131770381Y-98179048D01*
X131770381Y-97988571D01*
X131722762Y-97893333D01*
X131675143Y-97845714D01*
X131579905Y-97798095D01*
X131341810Y-97798095D01*
X131246571Y-97845714D01*
X131198952Y-97893333D01*
X131151333Y-97988571D01*
X131151333Y-98179048D01*
X131198952Y-98274286D01*
X131246571Y-98321905D01*
X131341810Y-98369524D01*
X116784381Y-99702857D02*
X116308190Y-100036191D01*
X116784381Y-100274286D02*
X115784381Y-100274286D01*
X115784381Y-99893333D01*
X115832000Y-99798095D01*
X115879619Y-99750476D01*
X115974857Y-99702857D01*
X116117714Y-99702857D01*
X116212952Y-99750476D01*
X116260571Y-99798095D01*
X116308190Y-99893333D01*
X116308190Y-100274286D01*
X115784381Y-99369524D02*
X115784381Y-98750476D01*
X116165333Y-99083810D01*
X116165333Y-98940952D01*
X116212952Y-98845714D01*
X116260571Y-98798095D01*
X116355810Y-98750476D01*
X116593905Y-98750476D01*
X116689143Y-98798095D01*
X116736762Y-98845714D01*
X116784381Y-98940952D01*
X116784381Y-99226667D01*
X116736762Y-99321905D01*
X116689143Y-99369524D01*
X115784381Y-98417143D02*
X115784381Y-97750476D01*
X116784381Y-98179048D01*
X101290381Y-99702857D02*
X100814190Y-100036191D01*
X101290381Y-100274286D02*
X100290381Y-100274286D01*
X100290381Y-99893333D01*
X100338000Y-99798095D01*
X100385619Y-99750476D01*
X100480857Y-99702857D01*
X100623714Y-99702857D01*
X100718952Y-99750476D01*
X100766571Y-99798095D01*
X100814190Y-99893333D01*
X100814190Y-100274286D01*
X100290381Y-99369524D02*
X100290381Y-98750476D01*
X100671333Y-99083810D01*
X100671333Y-98940952D01*
X100718952Y-98845714D01*
X100766571Y-98798095D01*
X100861810Y-98750476D01*
X101099905Y-98750476D01*
X101195143Y-98798095D01*
X101242762Y-98845714D01*
X101290381Y-98940952D01*
X101290381Y-99226667D01*
X101242762Y-99321905D01*
X101195143Y-99369524D01*
X100718952Y-98179048D02*
X100671333Y-98274286D01*
X100623714Y-98321905D01*
X100528476Y-98369524D01*
X100480857Y-98369524D01*
X100385619Y-98321905D01*
X100338000Y-98274286D01*
X100290381Y-98179048D01*
X100290381Y-97988571D01*
X100338000Y-97893333D01*
X100385619Y-97845714D01*
X100480857Y-97798095D01*
X100528476Y-97798095D01*
X100623714Y-97845714D01*
X100671333Y-97893333D01*
X100718952Y-97988571D01*
X100718952Y-98179048D01*
X100766571Y-98274286D01*
X100814190Y-98321905D01*
X100909429Y-98369524D01*
X101099905Y-98369524D01*
X101195143Y-98321905D01*
X101242762Y-98274286D01*
X101290381Y-98179048D01*
X101290381Y-97988571D01*
X101242762Y-97893333D01*
X101195143Y-97845714D01*
X101099905Y-97798095D01*
X100909429Y-97798095D01*
X100814190Y-97845714D01*
X100766571Y-97893333D01*
X100718952Y-97988571D01*
X147010381Y-99702857D02*
X146534190Y-100036191D01*
X147010381Y-100274286D02*
X146010381Y-100274286D01*
X146010381Y-99893333D01*
X146058000Y-99798095D01*
X146105619Y-99750476D01*
X146200857Y-99702857D01*
X146343714Y-99702857D01*
X146438952Y-99750476D01*
X146486571Y-99798095D01*
X146534190Y-99893333D01*
X146534190Y-100274286D01*
X146010381Y-99369524D02*
X146010381Y-98750476D01*
X146391333Y-99083810D01*
X146391333Y-98940952D01*
X146438952Y-98845714D01*
X146486571Y-98798095D01*
X146581810Y-98750476D01*
X146819905Y-98750476D01*
X146915143Y-98798095D01*
X146962762Y-98845714D01*
X147010381Y-98940952D01*
X147010381Y-99226667D01*
X146962762Y-99321905D01*
X146915143Y-99369524D01*
X147010381Y-98274286D02*
X147010381Y-98083810D01*
X146962762Y-97988571D01*
X146915143Y-97940952D01*
X146772286Y-97845714D01*
X146581810Y-97798095D01*
X146200857Y-97798095D01*
X146105619Y-97845714D01*
X146058000Y-97893333D01*
X146010381Y-97988571D01*
X146010381Y-98179048D01*
X146058000Y-98274286D01*
X146105619Y-98321905D01*
X146200857Y-98369524D01*
X146438952Y-98369524D01*
X146534190Y-98321905D01*
X146581810Y-98274286D01*
X146629429Y-98179048D01*
X146629429Y-97988571D01*
X146581810Y-97893333D01*
X146534190Y-97845714D01*
X146438952Y-97798095D01*
X66179143Y-86635143D02*
X66131524Y-86682762D01*
X65988667Y-86730381D01*
X65893429Y-86730381D01*
X65750571Y-86682762D01*
X65655333Y-86587524D01*
X65607714Y-86492286D01*
X65560095Y-86301810D01*
X65560095Y-86158952D01*
X65607714Y-85968476D01*
X65655333Y-85873238D01*
X65750571Y-85778000D01*
X65893429Y-85730381D01*
X65988667Y-85730381D01*
X66131524Y-85778000D01*
X66179143Y-85825619D01*
X67131524Y-86730381D02*
X66560095Y-86730381D01*
X66845809Y-86730381D02*
X66845809Y-85730381D01*
X66750571Y-85873238D01*
X66655333Y-85968476D01*
X66560095Y-86016095D01*
X67750571Y-85730381D02*
X67845810Y-85730381D01*
X67941048Y-85778000D01*
X67988667Y-85825619D01*
X68036286Y-85920857D01*
X68083905Y-86111333D01*
X68083905Y-86349429D01*
X68036286Y-86539905D01*
X67988667Y-86635143D01*
X67941048Y-86682762D01*
X67845810Y-86730381D01*
X67750571Y-86730381D01*
X67655333Y-86682762D01*
X67607714Y-86635143D01*
X67560095Y-86539905D01*
X67512476Y-86349429D01*
X67512476Y-86111333D01*
X67560095Y-85920857D01*
X67607714Y-85825619D01*
X67655333Y-85778000D01*
X67750571Y-85730381D01*
X66139143Y-98319143D02*
X66091524Y-98366762D01*
X65948667Y-98414381D01*
X65853429Y-98414381D01*
X65710571Y-98366762D01*
X65615333Y-98271524D01*
X65567714Y-98176286D01*
X65520095Y-97985810D01*
X65520095Y-97842952D01*
X65567714Y-97652476D01*
X65615333Y-97557238D01*
X65710571Y-97462000D01*
X65853429Y-97414381D01*
X65948667Y-97414381D01*
X66091524Y-97462000D01*
X66139143Y-97509619D01*
X67091524Y-98414381D02*
X66520095Y-98414381D01*
X66805809Y-98414381D02*
X66805809Y-97414381D01*
X66710571Y-97557238D01*
X66615333Y-97652476D01*
X66520095Y-97700095D01*
X67424857Y-97414381D02*
X68043905Y-97414381D01*
X67710571Y-97795333D01*
X67853429Y-97795333D01*
X67948667Y-97842952D01*
X67996286Y-97890571D01*
X68043905Y-97985810D01*
X68043905Y-98223905D01*
X67996286Y-98319143D01*
X67948667Y-98366762D01*
X67853429Y-98414381D01*
X67567714Y-98414381D01*
X67472476Y-98366762D01*
X67424857Y-98319143D01*
X62190381Y-92709905D02*
X62999905Y-92709905D01*
X63095143Y-92662286D01*
X63142762Y-92614667D01*
X63190381Y-92519429D01*
X63190381Y-92328952D01*
X63142762Y-92233714D01*
X63095143Y-92186095D01*
X62999905Y-92138476D01*
X62190381Y-92138476D01*
X62190381Y-91757524D02*
X62190381Y-91138476D01*
X62571333Y-91471810D01*
X62571333Y-91328952D01*
X62618952Y-91233714D01*
X62666571Y-91186095D01*
X62761810Y-91138476D01*
X62999905Y-91138476D01*
X63095143Y-91186095D01*
X63142762Y-91233714D01*
X63190381Y-91328952D01*
X63190381Y-91614667D01*
X63142762Y-91709905D01*
X63095143Y-91757524D01*
X62515809Y-84812190D02*
X62515809Y-85288381D01*
X62182476Y-84288381D02*
X62515809Y-84812190D01*
X62849143Y-84288381D01*
X63706286Y-85288381D02*
X63134857Y-85288381D01*
X63420571Y-85288381D02*
X63420571Y-84288381D01*
X63325333Y-84431238D01*
X63230095Y-84526476D01*
X63134857Y-84574095D01*
X74318953Y-115768381D02*
X73842762Y-115768381D01*
X73842762Y-114768381D01*
X74652286Y-115244571D02*
X74985620Y-115244571D01*
X75128477Y-115768381D02*
X74652286Y-115768381D01*
X74652286Y-114768381D01*
X75128477Y-114768381D01*
X75557048Y-115768381D02*
X75557048Y-114768381D01*
X75795143Y-114768381D01*
X75938001Y-114816000D01*
X76033239Y-114911238D01*
X76080858Y-115006476D01*
X76128477Y-115196952D01*
X76128477Y-115339810D01*
X76080858Y-115530286D01*
X76033239Y-115625524D01*
X75938001Y-115720762D01*
X75795143Y-115768381D01*
X75557048Y-115768381D01*
X77080858Y-115768381D02*
X76509429Y-115768381D01*
X76795143Y-115768381D02*
X76795143Y-114768381D01*
X76699905Y-114911238D01*
X76604667Y-115006476D01*
X76509429Y-115054095D01*
X59447134Y-86894943D02*
X59399515Y-86942562D01*
X59256658Y-86990181D01*
X59161420Y-86990181D01*
X59018562Y-86942562D01*
X58923324Y-86847324D01*
X58875705Y-86752086D01*
X58828086Y-86561610D01*
X58828086Y-86418752D01*
X58875705Y-86228276D01*
X58923324Y-86133038D01*
X59018562Y-86037800D01*
X59161420Y-85990181D01*
X59256658Y-85990181D01*
X59399515Y-86037800D01*
X59447134Y-86085419D01*
X59780467Y-85990181D02*
X60447134Y-85990181D01*
X60018562Y-86990181D01*
X55803895Y-76846181D02*
X55803895Y-77655705D01*
X55851514Y-77750943D01*
X55899133Y-77798562D01*
X55994371Y-77846181D01*
X56184848Y-77846181D01*
X56280086Y-77798562D01*
X56327705Y-77750943D01*
X56375324Y-77655705D01*
X56375324Y-76846181D01*
X56803895Y-76941419D02*
X56851514Y-76893800D01*
X56946752Y-76846181D01*
X57184848Y-76846181D01*
X57280086Y-76893800D01*
X57327705Y-76941419D01*
X57375324Y-77036657D01*
X57375324Y-77131895D01*
X57327705Y-77274752D01*
X56756276Y-77846181D01*
X57375324Y-77846181D01*
X24995143Y-85256666D02*
X25042762Y-85304285D01*
X25090381Y-85447142D01*
X25090381Y-85542380D01*
X25042762Y-85685238D01*
X24947524Y-85780476D01*
X24852286Y-85828095D01*
X24661810Y-85875714D01*
X24518952Y-85875714D01*
X24328476Y-85828095D01*
X24233238Y-85780476D01*
X24138000Y-85685238D01*
X24090381Y-85542380D01*
X24090381Y-85447142D01*
X24138000Y-85304285D01*
X24185619Y-85256666D01*
X24185619Y-84875714D02*
X24138000Y-84828095D01*
X24090381Y-84732857D01*
X24090381Y-84494761D01*
X24138000Y-84399523D01*
X24185619Y-84351904D01*
X24280857Y-84304285D01*
X24376095Y-84304285D01*
X24518952Y-84351904D01*
X25090381Y-84923333D01*
X25090381Y-84304285D01*
X54347134Y-86894943D02*
X54299515Y-86942562D01*
X54156658Y-86990181D01*
X54061420Y-86990181D01*
X53918562Y-86942562D01*
X53823324Y-86847324D01*
X53775705Y-86752086D01*
X53728086Y-86561610D01*
X53728086Y-86418752D01*
X53775705Y-86228276D01*
X53823324Y-86133038D01*
X53918562Y-86037800D01*
X54061420Y-85990181D01*
X54156658Y-85990181D01*
X54299515Y-86037800D01*
X54347134Y-86085419D01*
X54918562Y-86418752D02*
X54823324Y-86371133D01*
X54775705Y-86323514D01*
X54728086Y-86228276D01*
X54728086Y-86180657D01*
X54775705Y-86085419D01*
X54823324Y-86037800D01*
X54918562Y-85990181D01*
X55109039Y-85990181D01*
X55204277Y-86037800D01*
X55251896Y-86085419D01*
X55299515Y-86180657D01*
X55299515Y-86228276D01*
X55251896Y-86323514D01*
X55204277Y-86371133D01*
X55109039Y-86418752D01*
X54918562Y-86418752D01*
X54823324Y-86466371D01*
X54775705Y-86513990D01*
X54728086Y-86609229D01*
X54728086Y-86799705D01*
X54775705Y-86894943D01*
X54823324Y-86942562D01*
X54918562Y-86990181D01*
X55109039Y-86990181D01*
X55204277Y-86942562D01*
X55251896Y-86894943D01*
X55299515Y-86799705D01*
X55299515Y-86609229D01*
X55251896Y-86513990D01*
X55204277Y-86466371D01*
X55109039Y-86418752D01*
X72223334Y-115165143D02*
X72175715Y-115212762D01*
X72032858Y-115260381D01*
X71937620Y-115260381D01*
X71794762Y-115212762D01*
X71699524Y-115117524D01*
X71651905Y-115022286D01*
X71604286Y-114831810D01*
X71604286Y-114688952D01*
X71651905Y-114498476D01*
X71699524Y-114403238D01*
X71794762Y-114308000D01*
X71937620Y-114260381D01*
X72032858Y-114260381D01*
X72175715Y-114308000D01*
X72223334Y-114355619D01*
X72699524Y-115260381D02*
X72890000Y-115260381D01*
X72985239Y-115212762D01*
X73032858Y-115165143D01*
X73128096Y-115022286D01*
X73175715Y-114831810D01*
X73175715Y-114450857D01*
X73128096Y-114355619D01*
X73080477Y-114308000D01*
X72985239Y-114260381D01*
X72794762Y-114260381D01*
X72699524Y-114308000D01*
X72651905Y-114355619D01*
X72604286Y-114450857D01*
X72604286Y-114688952D01*
X72651905Y-114784190D01*
X72699524Y-114831810D01*
X72794762Y-114879429D01*
X72985239Y-114879429D01*
X73080477Y-114831810D01*
X73128096Y-114784190D01*
X73175715Y-114688952D01*
X69953143Y-98940857D02*
X70000762Y-98988476D01*
X70048381Y-99131333D01*
X70048381Y-99226571D01*
X70000762Y-99369429D01*
X69905524Y-99464667D01*
X69810286Y-99512286D01*
X69619810Y-99559905D01*
X69476952Y-99559905D01*
X69286476Y-99512286D01*
X69191238Y-99464667D01*
X69096000Y-99369429D01*
X69048381Y-99226571D01*
X69048381Y-99131333D01*
X69096000Y-98988476D01*
X69143619Y-98940857D01*
X70048381Y-97988476D02*
X70048381Y-98559905D01*
X70048381Y-98274191D02*
X69048381Y-98274191D01*
X69191238Y-98369429D01*
X69286476Y-98464667D01*
X69334095Y-98559905D01*
X70048381Y-97036095D02*
X70048381Y-97607524D01*
X70048381Y-97321810D02*
X69048381Y-97321810D01*
X69191238Y-97417048D01*
X69286476Y-97512286D01*
X69334095Y-97607524D01*
X69953143Y-95892857D02*
X70000762Y-95940476D01*
X70048381Y-96083333D01*
X70048381Y-96178571D01*
X70000762Y-96321429D01*
X69905524Y-96416667D01*
X69810286Y-96464286D01*
X69619810Y-96511905D01*
X69476952Y-96511905D01*
X69286476Y-96464286D01*
X69191238Y-96416667D01*
X69096000Y-96321429D01*
X69048381Y-96178571D01*
X69048381Y-96083333D01*
X69096000Y-95940476D01*
X69143619Y-95892857D01*
X70048381Y-94940476D02*
X70048381Y-95511905D01*
X70048381Y-95226191D02*
X69048381Y-95226191D01*
X69191238Y-95321429D01*
X69286476Y-95416667D01*
X69334095Y-95511905D01*
X69143619Y-94559524D02*
X69096000Y-94511905D01*
X69048381Y-94416667D01*
X69048381Y-94178571D01*
X69096000Y-94083333D01*
X69143619Y-94035714D01*
X69238857Y-93988095D01*
X69334095Y-93988095D01*
X69476952Y-94035714D01*
X70048381Y-94607143D01*
X70048381Y-93988095D01*
X47315381Y-93130666D02*
X46839190Y-93464000D01*
X47315381Y-93702095D02*
X46315381Y-93702095D01*
X46315381Y-93321142D01*
X46363000Y-93225904D01*
X46410619Y-93178285D01*
X46505857Y-93130666D01*
X46648714Y-93130666D01*
X46743952Y-93178285D01*
X46791571Y-93225904D01*
X46839190Y-93321142D01*
X46839190Y-93702095D01*
X46315381Y-92797333D02*
X46315381Y-92130666D01*
X47315381Y-92559238D01*
X49626781Y-93156066D02*
X49150590Y-93489400D01*
X49626781Y-93727495D02*
X48626781Y-93727495D01*
X48626781Y-93346542D01*
X48674400Y-93251304D01*
X48722019Y-93203685D01*
X48817257Y-93156066D01*
X48960114Y-93156066D01*
X49055352Y-93203685D01*
X49102971Y-93251304D01*
X49150590Y-93346542D01*
X49150590Y-93727495D01*
X49055352Y-92584638D02*
X49007733Y-92679876D01*
X48960114Y-92727495D01*
X48864876Y-92775114D01*
X48817257Y-92775114D01*
X48722019Y-92727495D01*
X48674400Y-92679876D01*
X48626781Y-92584638D01*
X48626781Y-92394161D01*
X48674400Y-92298923D01*
X48722019Y-92251304D01*
X48817257Y-92203685D01*
X48864876Y-92203685D01*
X48960114Y-92251304D01*
X49007733Y-92298923D01*
X49055352Y-92394161D01*
X49055352Y-92584638D01*
X49102971Y-92679876D01*
X49150590Y-92727495D01*
X49245829Y-92775114D01*
X49436305Y-92775114D01*
X49531543Y-92727495D01*
X49579162Y-92679876D01*
X49626781Y-92584638D01*
X49626781Y-92394161D01*
X49579162Y-92298923D01*
X49531543Y-92251304D01*
X49436305Y-92203685D01*
X49245829Y-92203685D01*
X49150590Y-92251304D01*
X49102971Y-92298923D01*
X49055352Y-92394161D01*
X40584381Y-92876666D02*
X40108190Y-93210000D01*
X40584381Y-93448095D02*
X39584381Y-93448095D01*
X39584381Y-93067142D01*
X39632000Y-92971904D01*
X39679619Y-92924285D01*
X39774857Y-92876666D01*
X39917714Y-92876666D01*
X40012952Y-92924285D01*
X40060571Y-92971904D01*
X40108190Y-93067142D01*
X40108190Y-93448095D01*
X40584381Y-92400476D02*
X40584381Y-92210000D01*
X40536762Y-92114761D01*
X40489143Y-92067142D01*
X40346286Y-91971904D01*
X40155810Y-91924285D01*
X39774857Y-91924285D01*
X39679619Y-91971904D01*
X39632000Y-92019523D01*
X39584381Y-92114761D01*
X39584381Y-92305238D01*
X39632000Y-92400476D01*
X39679619Y-92448095D01*
X39774857Y-92495714D01*
X40012952Y-92495714D01*
X40108190Y-92448095D01*
X40155810Y-92400476D01*
X40203429Y-92305238D01*
X40203429Y-92114761D01*
X40155810Y-92019523D01*
X40108190Y-91971904D01*
X40012952Y-91924285D01*
X42743381Y-93352857D02*
X42267190Y-93686191D01*
X42743381Y-93924286D02*
X41743381Y-93924286D01*
X41743381Y-93543333D01*
X41791000Y-93448095D01*
X41838619Y-93400476D01*
X41933857Y-93352857D01*
X42076714Y-93352857D01*
X42171952Y-93400476D01*
X42219571Y-93448095D01*
X42267190Y-93543333D01*
X42267190Y-93924286D01*
X42743381Y-92400476D02*
X42743381Y-92971905D01*
X42743381Y-92686191D02*
X41743381Y-92686191D01*
X41886238Y-92781429D01*
X41981476Y-92876667D01*
X42029095Y-92971905D01*
X41743381Y-91781429D02*
X41743381Y-91686190D01*
X41791000Y-91590952D01*
X41838619Y-91543333D01*
X41933857Y-91495714D01*
X42124333Y-91448095D01*
X42362429Y-91448095D01*
X42552905Y-91495714D01*
X42648143Y-91543333D01*
X42695762Y-91590952D01*
X42743381Y-91686190D01*
X42743381Y-91781429D01*
X42695762Y-91876667D01*
X42648143Y-91924286D01*
X42552905Y-91971905D01*
X42362429Y-92019524D01*
X42124333Y-92019524D01*
X41933857Y-91971905D01*
X41838619Y-91924286D01*
X41791000Y-91876667D01*
X41743381Y-91781429D01*
X23312381Y-77604857D02*
X22836190Y-77938191D01*
X23312381Y-78176286D02*
X22312381Y-78176286D01*
X22312381Y-77795333D01*
X22360000Y-77700095D01*
X22407619Y-77652476D01*
X22502857Y-77604857D01*
X22645714Y-77604857D01*
X22740952Y-77652476D01*
X22788571Y-77700095D01*
X22836190Y-77795333D01*
X22836190Y-78176286D01*
X23312381Y-76652476D02*
X23312381Y-77223905D01*
X23312381Y-76938191D02*
X22312381Y-76938191D01*
X22455238Y-77033429D01*
X22550476Y-77128667D01*
X22598095Y-77223905D01*
X22407619Y-76271524D02*
X22360000Y-76223905D01*
X22312381Y-76128667D01*
X22312381Y-75890571D01*
X22360000Y-75795333D01*
X22407619Y-75747714D01*
X22502857Y-75700095D01*
X22598095Y-75700095D01*
X22740952Y-75747714D01*
X23312381Y-76319143D01*
X23312381Y-75700095D01*
X23058381Y-86240857D02*
X22582190Y-86574191D01*
X23058381Y-86812286D02*
X22058381Y-86812286D01*
X22058381Y-86431333D01*
X22106000Y-86336095D01*
X22153619Y-86288476D01*
X22248857Y-86240857D01*
X22391714Y-86240857D01*
X22486952Y-86288476D01*
X22534571Y-86336095D01*
X22582190Y-86431333D01*
X22582190Y-86812286D01*
X23058381Y-85288476D02*
X23058381Y-85859905D01*
X23058381Y-85574191D02*
X22058381Y-85574191D01*
X22201238Y-85669429D01*
X22296476Y-85764667D01*
X22344095Y-85859905D01*
X22058381Y-84955143D02*
X22058381Y-84336095D01*
X22439333Y-84669429D01*
X22439333Y-84526571D01*
X22486952Y-84431333D01*
X22534571Y-84383714D01*
X22629810Y-84336095D01*
X22867905Y-84336095D01*
X22963143Y-84383714D01*
X23010762Y-84431333D01*
X23058381Y-84526571D01*
X23058381Y-84812286D01*
X23010762Y-84907524D01*
X22963143Y-84955143D01*
X78509905Y-63698381D02*
X78509905Y-62698381D01*
X78890858Y-62698381D01*
X78986096Y-62746000D01*
X79033715Y-62793619D01*
X79081334Y-62888857D01*
X79081334Y-63031714D01*
X79033715Y-63126952D01*
X78986096Y-63174571D01*
X78890858Y-63222190D01*
X78509905Y-63222190D01*
X79938477Y-63031714D02*
X79938477Y-63698381D01*
X79700381Y-62650762D02*
X79462286Y-63365048D01*
X80081334Y-63365048D01*
X72223334Y-75636381D02*
X71890000Y-75160190D01*
X71651905Y-75636381D02*
X71651905Y-74636381D01*
X72032858Y-74636381D01*
X72128096Y-74684000D01*
X72175715Y-74731619D01*
X72223334Y-74826857D01*
X72223334Y-74969714D01*
X72175715Y-75064952D01*
X72128096Y-75112571D01*
X72032858Y-75160190D01*
X71651905Y-75160190D01*
X73080477Y-74969714D02*
X73080477Y-75636381D01*
X72842381Y-74588762D02*
X72604286Y-75303048D01*
X73223334Y-75303048D01*
X72223334Y-78176381D02*
X71890000Y-77700190D01*
X71651905Y-78176381D02*
X71651905Y-77176381D01*
X72032858Y-77176381D01*
X72128096Y-77224000D01*
X72175715Y-77271619D01*
X72223334Y-77366857D01*
X72223334Y-77509714D01*
X72175715Y-77604952D01*
X72128096Y-77652571D01*
X72032858Y-77700190D01*
X71651905Y-77700190D01*
X73128096Y-77176381D02*
X72651905Y-77176381D01*
X72604286Y-77652571D01*
X72651905Y-77604952D01*
X72747143Y-77557333D01*
X72985239Y-77557333D01*
X73080477Y-77604952D01*
X73128096Y-77652571D01*
X73175715Y-77747810D01*
X73175715Y-77985905D01*
X73128096Y-78081143D01*
X73080477Y-78128762D01*
X72985239Y-78176381D01*
X72747143Y-78176381D01*
X72651905Y-78128762D01*
X72604286Y-78081143D01*
X28281334Y-105608381D02*
X27948000Y-105132190D01*
X27709905Y-105608381D02*
X27709905Y-104608381D01*
X28090858Y-104608381D01*
X28186096Y-104656000D01*
X28233715Y-104703619D01*
X28281334Y-104798857D01*
X28281334Y-104941714D01*
X28233715Y-105036952D01*
X28186096Y-105084571D01*
X28090858Y-105132190D01*
X27709905Y-105132190D01*
X29138477Y-104608381D02*
X28948000Y-104608381D01*
X28852762Y-104656000D01*
X28805143Y-104703619D01*
X28709905Y-104846476D01*
X28662286Y-105036952D01*
X28662286Y-105417905D01*
X28709905Y-105513143D01*
X28757524Y-105560762D01*
X28852762Y-105608381D01*
X29043239Y-105608381D01*
X29138477Y-105560762D01*
X29186096Y-105513143D01*
X29233715Y-105417905D01*
X29233715Y-105179810D01*
X29186096Y-105084571D01*
X29138477Y-105036952D01*
X29043239Y-104989333D01*
X28852762Y-104989333D01*
X28757524Y-105036952D01*
X28709905Y-105084571D01*
X28662286Y-105179810D01*
X71159143Y-95956381D02*
X70825809Y-95480190D01*
X70587714Y-95956381D02*
X70587714Y-94956381D01*
X70968667Y-94956381D01*
X71063905Y-95004000D01*
X71111524Y-95051619D01*
X71159143Y-95146857D01*
X71159143Y-95289714D01*
X71111524Y-95384952D01*
X71063905Y-95432571D01*
X70968667Y-95480190D01*
X70587714Y-95480190D01*
X72111524Y-95956381D02*
X71540095Y-95956381D01*
X71825809Y-95956381D02*
X71825809Y-94956381D01*
X71730571Y-95099238D01*
X71635333Y-95194476D01*
X71540095Y-95242095D01*
X73063905Y-95956381D02*
X72492476Y-95956381D01*
X72778190Y-95956381D02*
X72778190Y-94956381D01*
X72682952Y-95099238D01*
X72587714Y-95194476D01*
X72492476Y-95242095D01*
X71239143Y-93416381D02*
X70905809Y-92940190D01*
X70667714Y-93416381D02*
X70667714Y-92416381D01*
X71048667Y-92416381D01*
X71143905Y-92464000D01*
X71191524Y-92511619D01*
X71239143Y-92606857D01*
X71239143Y-92749714D01*
X71191524Y-92844952D01*
X71143905Y-92892571D01*
X71048667Y-92940190D01*
X70667714Y-92940190D01*
X72191524Y-93416381D02*
X71620095Y-93416381D01*
X71905809Y-93416381D02*
X71905809Y-92416381D01*
X71810571Y-92559238D01*
X71715333Y-92654476D01*
X71620095Y-92702095D01*
X73048667Y-92749714D02*
X73048667Y-93416381D01*
X72810571Y-92368762D02*
X72572476Y-93083048D01*
X73191524Y-93083048D01*
X71159143Y-91130381D02*
X70825809Y-90654190D01*
X70587714Y-91130381D02*
X70587714Y-90130381D01*
X70968667Y-90130381D01*
X71063905Y-90178000D01*
X71111524Y-90225619D01*
X71159143Y-90320857D01*
X71159143Y-90463714D01*
X71111524Y-90558952D01*
X71063905Y-90606571D01*
X70968667Y-90654190D01*
X70587714Y-90654190D01*
X72111524Y-91130381D02*
X71540095Y-91130381D01*
X71825809Y-91130381D02*
X71825809Y-90130381D01*
X71730571Y-90273238D01*
X71635333Y-90368476D01*
X71540095Y-90416095D01*
X73016286Y-90130381D02*
X72540095Y-90130381D01*
X72492476Y-90606571D01*
X72540095Y-90558952D01*
X72635333Y-90511333D01*
X72873429Y-90511333D01*
X72968667Y-90558952D01*
X73016286Y-90606571D01*
X73063905Y-90701810D01*
X73063905Y-90939905D01*
X73016286Y-91035143D01*
X72968667Y-91082762D01*
X72873429Y-91130381D01*
X72635333Y-91130381D01*
X72540095Y-91082762D01*
X72492476Y-91035143D01*
X71239143Y-88336381D02*
X70905809Y-87860190D01*
X70667714Y-88336381D02*
X70667714Y-87336381D01*
X71048667Y-87336381D01*
X71143905Y-87384000D01*
X71191524Y-87431619D01*
X71239143Y-87526857D01*
X71239143Y-87669714D01*
X71191524Y-87764952D01*
X71143905Y-87812571D01*
X71048667Y-87860190D01*
X70667714Y-87860190D01*
X72191524Y-88336381D02*
X71620095Y-88336381D01*
X71905809Y-88336381D02*
X71905809Y-87336381D01*
X71810571Y-87479238D01*
X71715333Y-87574476D01*
X71620095Y-87622095D01*
X73048667Y-87336381D02*
X72858190Y-87336381D01*
X72762952Y-87384000D01*
X72715333Y-87431619D01*
X72620095Y-87574476D01*
X72572476Y-87764952D01*
X72572476Y-88145905D01*
X72620095Y-88241143D01*
X72667714Y-88288762D01*
X72762952Y-88336381D01*
X72953429Y-88336381D01*
X73048667Y-88288762D01*
X73096286Y-88241143D01*
X73143905Y-88145905D01*
X73143905Y-87907810D01*
X73096286Y-87812571D01*
X73048667Y-87764952D01*
X72953429Y-87717333D01*
X72762952Y-87717333D01*
X72667714Y-87764952D01*
X72620095Y-87812571D01*
X72572476Y-87907810D01*
X45156381Y-93352857D02*
X44680190Y-93686191D01*
X45156381Y-93924286D02*
X44156381Y-93924286D01*
X44156381Y-93543333D01*
X44204000Y-93448095D01*
X44251619Y-93400476D01*
X44346857Y-93352857D01*
X44489714Y-93352857D01*
X44584952Y-93400476D01*
X44632571Y-93448095D01*
X44680190Y-93543333D01*
X44680190Y-93924286D01*
X45156381Y-92400476D02*
X45156381Y-92971905D01*
X45156381Y-92686191D02*
X44156381Y-92686191D01*
X44299238Y-92781429D01*
X44394476Y-92876667D01*
X44442095Y-92971905D01*
X45156381Y-91924286D02*
X45156381Y-91733810D01*
X45108762Y-91638571D01*
X45061143Y-91590952D01*
X44918286Y-91495714D01*
X44727810Y-91448095D01*
X44346857Y-91448095D01*
X44251619Y-91495714D01*
X44204000Y-91543333D01*
X44156381Y-91638571D01*
X44156381Y-91829048D01*
X44204000Y-91924286D01*
X44251619Y-91971905D01*
X44346857Y-92019524D01*
X44584952Y-92019524D01*
X44680190Y-91971905D01*
X44727810Y-91924286D01*
X44775429Y-91829048D01*
X44775429Y-91638571D01*
X44727810Y-91543333D01*
X44680190Y-91495714D01*
X44584952Y-91448095D01*
X71239143Y-102560381D02*
X70905809Y-102084190D01*
X70667714Y-102560381D02*
X70667714Y-101560381D01*
X71048667Y-101560381D01*
X71143905Y-101608000D01*
X71191524Y-101655619D01*
X71239143Y-101750857D01*
X71239143Y-101893714D01*
X71191524Y-101988952D01*
X71143905Y-102036571D01*
X71048667Y-102084190D01*
X70667714Y-102084190D01*
X71620095Y-101655619D02*
X71667714Y-101608000D01*
X71762952Y-101560381D01*
X72001048Y-101560381D01*
X72096286Y-101608000D01*
X72143905Y-101655619D01*
X72191524Y-101750857D01*
X72191524Y-101846095D01*
X72143905Y-101988952D01*
X71572476Y-102560381D01*
X72191524Y-102560381D01*
X72810571Y-101560381D02*
X72905810Y-101560381D01*
X73001048Y-101608000D01*
X73048667Y-101655619D01*
X73096286Y-101750857D01*
X73143905Y-101941333D01*
X73143905Y-102179429D01*
X73096286Y-102369905D01*
X73048667Y-102465143D01*
X73001048Y-102512762D01*
X72905810Y-102560381D01*
X72810571Y-102560381D01*
X72715333Y-102512762D01*
X72667714Y-102465143D01*
X72620095Y-102369905D01*
X72572476Y-102179429D01*
X72572476Y-101941333D01*
X72620095Y-101750857D01*
X72667714Y-101655619D01*
X72715333Y-101608000D01*
X72810571Y-101560381D01*
X71239143Y-105100381D02*
X70905809Y-104624190D01*
X70667714Y-105100381D02*
X70667714Y-104100381D01*
X71048667Y-104100381D01*
X71143905Y-104148000D01*
X71191524Y-104195619D01*
X71239143Y-104290857D01*
X71239143Y-104433714D01*
X71191524Y-104528952D01*
X71143905Y-104576571D01*
X71048667Y-104624190D01*
X70667714Y-104624190D01*
X71620095Y-104195619D02*
X71667714Y-104148000D01*
X71762952Y-104100381D01*
X72001048Y-104100381D01*
X72096286Y-104148000D01*
X72143905Y-104195619D01*
X72191524Y-104290857D01*
X72191524Y-104386095D01*
X72143905Y-104528952D01*
X71572476Y-105100381D01*
X72191524Y-105100381D01*
X73143905Y-105100381D02*
X72572476Y-105100381D01*
X72858190Y-105100381D02*
X72858190Y-104100381D01*
X72762952Y-104243238D01*
X72667714Y-104338476D01*
X72572476Y-104386095D01*
X71239143Y-98496381D02*
X70905809Y-98020190D01*
X70667714Y-98496381D02*
X70667714Y-97496381D01*
X71048667Y-97496381D01*
X71143905Y-97544000D01*
X71191524Y-97591619D01*
X71239143Y-97686857D01*
X71239143Y-97829714D01*
X71191524Y-97924952D01*
X71143905Y-97972571D01*
X71048667Y-98020190D01*
X70667714Y-98020190D01*
X71620095Y-97591619D02*
X71667714Y-97544000D01*
X71762952Y-97496381D01*
X72001048Y-97496381D01*
X72096286Y-97544000D01*
X72143905Y-97591619D01*
X72191524Y-97686857D01*
X72191524Y-97782095D01*
X72143905Y-97924952D01*
X71572476Y-98496381D01*
X72191524Y-98496381D01*
X72572476Y-97591619D02*
X72620095Y-97544000D01*
X72715333Y-97496381D01*
X72953429Y-97496381D01*
X73048667Y-97544000D01*
X73096286Y-97591619D01*
X73143905Y-97686857D01*
X73143905Y-97782095D01*
X73096286Y-97924952D01*
X72524857Y-98496381D01*
X73143905Y-98496381D01*
X52846219Y-93008438D02*
X52798600Y-93103676D01*
X52703362Y-93198914D01*
X52560505Y-93341771D01*
X52512886Y-93437010D01*
X52512886Y-93532248D01*
X52750981Y-93484629D02*
X52703362Y-93579867D01*
X52608124Y-93675105D01*
X52417648Y-93722724D01*
X52084314Y-93722724D01*
X51893838Y-93675105D01*
X51798600Y-93579867D01*
X51750981Y-93484629D01*
X51750981Y-93294152D01*
X51798600Y-93198914D01*
X51893838Y-93103676D01*
X52084314Y-93056057D01*
X52417648Y-93056057D01*
X52608124Y-93103676D01*
X52703362Y-93198914D01*
X52750981Y-93294152D01*
X52750981Y-93484629D01*
X52750981Y-92103676D02*
X52750981Y-92675105D01*
X52750981Y-92389391D02*
X51750981Y-92389391D01*
X51893838Y-92484629D01*
X51989076Y-92579867D01*
X52036695Y-92675105D01*
X141501905Y-90368381D02*
X141501905Y-89368381D01*
X141740000Y-89368381D01*
X141882858Y-89416000D01*
X141978096Y-89511238D01*
X142025715Y-89606476D01*
X142073334Y-89796952D01*
X142073334Y-89939810D01*
X142025715Y-90130286D01*
X141978096Y-90225524D01*
X141882858Y-90320762D01*
X141740000Y-90368381D01*
X141501905Y-90368381D01*
X142978096Y-89368381D02*
X142501905Y-89368381D01*
X142454286Y-89844571D01*
X142501905Y-89796952D01*
X142597143Y-89749333D01*
X142835239Y-89749333D01*
X142930477Y-89796952D01*
X142978096Y-89844571D01*
X143025715Y-89939810D01*
X143025715Y-90177905D01*
X142978096Y-90273143D01*
X142930477Y-90320762D01*
X142835239Y-90368381D01*
X142597143Y-90368381D01*
X142501905Y-90320762D01*
X142454286Y-90273143D01*
X133180735Y-93268381D02*
X133180735Y-92268381D01*
X133752164Y-93268381D02*
X133323592Y-92696952D01*
X133752164Y-92268381D02*
X133180735Y-92839810D01*
X139504545Y-92932667D02*
X139980736Y-92932667D01*
X139409307Y-93218381D02*
X139742640Y-92218381D01*
X140075974Y-93218381D01*
X126007905Y-90368381D02*
X126007905Y-89368381D01*
X126246000Y-89368381D01*
X126388858Y-89416000D01*
X126484096Y-89511238D01*
X126531715Y-89606476D01*
X126579334Y-89796952D01*
X126579334Y-89939810D01*
X126531715Y-90130286D01*
X126484096Y-90225524D01*
X126388858Y-90320762D01*
X126246000Y-90368381D01*
X126007905Y-90368381D01*
X126960286Y-89463619D02*
X127007905Y-89416000D01*
X127103143Y-89368381D01*
X127341239Y-89368381D01*
X127436477Y-89416000D01*
X127484096Y-89463619D01*
X127531715Y-89558857D01*
X127531715Y-89654095D01*
X127484096Y-89796952D01*
X126912667Y-90368381D01*
X127531715Y-90368381D01*
X117686735Y-93268381D02*
X117686735Y-92268381D01*
X118258164Y-93268381D02*
X117829592Y-92696952D01*
X118258164Y-92268381D02*
X117686735Y-92839810D01*
X124010545Y-92932667D02*
X124486736Y-92932667D01*
X123915307Y-93218381D02*
X124248640Y-92218381D01*
X124581974Y-93218381D01*
X110767905Y-90368381D02*
X110767905Y-89368381D01*
X111006000Y-89368381D01*
X111148858Y-89416000D01*
X111244096Y-89511238D01*
X111291715Y-89606476D01*
X111339334Y-89796952D01*
X111339334Y-89939810D01*
X111291715Y-90130286D01*
X111244096Y-90225524D01*
X111148858Y-90320762D01*
X111006000Y-90368381D01*
X110767905Y-90368381D01*
X111672667Y-89368381D02*
X112291715Y-89368381D01*
X111958381Y-89749333D01*
X112101239Y-89749333D01*
X112196477Y-89796952D01*
X112244096Y-89844571D01*
X112291715Y-89939810D01*
X112291715Y-90177905D01*
X112244096Y-90273143D01*
X112196477Y-90320762D01*
X112101239Y-90368381D01*
X111815524Y-90368381D01*
X111720286Y-90320762D01*
X111672667Y-90273143D01*
X102446735Y-93268381D02*
X102446735Y-92268381D01*
X103018164Y-93268381D02*
X102589592Y-92696952D01*
X103018164Y-92268381D02*
X102446735Y-92839810D01*
X108770545Y-92932667D02*
X109246736Y-92932667D01*
X108675307Y-93218381D02*
X109008640Y-92218381D01*
X109341974Y-93218381D01*
X96035905Y-90368381D02*
X96035905Y-89368381D01*
X96274000Y-89368381D01*
X96416858Y-89416000D01*
X96512096Y-89511238D01*
X96559715Y-89606476D01*
X96607334Y-89796952D01*
X96607334Y-89939810D01*
X96559715Y-90130286D01*
X96512096Y-90225524D01*
X96416858Y-90320762D01*
X96274000Y-90368381D01*
X96035905Y-90368381D01*
X97464477Y-89701714D02*
X97464477Y-90368381D01*
X97226381Y-89320762D02*
X96988286Y-90035048D01*
X97607334Y-90035048D01*
X87714735Y-93268381D02*
X87714735Y-92268381D01*
X88286164Y-93268381D02*
X87857592Y-92696952D01*
X88286164Y-92268381D02*
X87714735Y-92839810D01*
X94038545Y-92932667D02*
X94514736Y-92932667D01*
X93943307Y-93218381D02*
X94276640Y-92218381D01*
X94609974Y-93218381D01*
X87117181Y-106656095D02*
X86117181Y-106656095D01*
X86117181Y-106275142D01*
X86164800Y-106179904D01*
X86212419Y-106132285D01*
X86307657Y-106084666D01*
X86450514Y-106084666D01*
X86545752Y-106132285D01*
X86593371Y-106179904D01*
X86640990Y-106275142D01*
X86640990Y-106656095D01*
X86117181Y-105179904D02*
X86117181Y-105656095D01*
X86593371Y-105703714D01*
X86545752Y-105656095D01*
X86498133Y-105560857D01*
X86498133Y-105322761D01*
X86545752Y-105227523D01*
X86593371Y-105179904D01*
X86688610Y-105132285D01*
X86926705Y-105132285D01*
X87021943Y-105179904D01*
X87069562Y-105227523D01*
X87117181Y-105322761D01*
X87117181Y-105560857D01*
X87069562Y-105656095D01*
X87021943Y-105703714D01*
X23645905Y-122880381D02*
X23645905Y-121880381D01*
X24026858Y-121880381D01*
X24122096Y-121928000D01*
X24169715Y-121975619D01*
X24217334Y-122070857D01*
X24217334Y-122213714D01*
X24169715Y-122308952D01*
X24122096Y-122356571D01*
X24026858Y-122404190D01*
X23645905Y-122404190D01*
X24550667Y-121880381D02*
X25169715Y-121880381D01*
X24836381Y-122261333D01*
X24979239Y-122261333D01*
X25074477Y-122308952D01*
X25122096Y-122356571D01*
X25169715Y-122451810D01*
X25169715Y-122689905D01*
X25122096Y-122785143D01*
X25074477Y-122832762D01*
X24979239Y-122880381D01*
X24693524Y-122880381D01*
X24598286Y-122832762D01*
X24550667Y-122785143D01*
X23645905Y-92120981D02*
X23645905Y-91120981D01*
X24026858Y-91120981D01*
X24122096Y-91168600D01*
X24169715Y-91216219D01*
X24217334Y-91311457D01*
X24217334Y-91454314D01*
X24169715Y-91549552D01*
X24122096Y-91597171D01*
X24026858Y-91644790D01*
X23645905Y-91644790D01*
X25074477Y-91120981D02*
X24884000Y-91120981D01*
X24788762Y-91168600D01*
X24741143Y-91216219D01*
X24645905Y-91359076D01*
X24598286Y-91549552D01*
X24598286Y-91930505D01*
X24645905Y-92025743D01*
X24693524Y-92073362D01*
X24788762Y-92120981D01*
X24979239Y-92120981D01*
X25074477Y-92073362D01*
X25122096Y-92025743D01*
X25169715Y-91930505D01*
X25169715Y-91692410D01*
X25122096Y-91597171D01*
X25074477Y-91549552D01*
X24979239Y-91501933D01*
X24788762Y-91501933D01*
X24693524Y-91549552D01*
X24645905Y-91597171D01*
X24598286Y-91692410D01*
X159535905Y-122880381D02*
X159535905Y-121880381D01*
X159916858Y-121880381D01*
X160012096Y-121928000D01*
X160059715Y-121975619D01*
X160107334Y-122070857D01*
X160107334Y-122213714D01*
X160059715Y-122308952D01*
X160012096Y-122356571D01*
X159916858Y-122404190D01*
X159535905Y-122404190D01*
X160440667Y-121880381D02*
X161107334Y-121880381D01*
X160678762Y-122880381D01*
X159535905Y-73350381D02*
X159535905Y-72350381D01*
X159916858Y-72350381D01*
X160012096Y-72398000D01*
X160059715Y-72445619D01*
X160107334Y-72540857D01*
X160107334Y-72683714D01*
X160059715Y-72778952D01*
X160012096Y-72826571D01*
X159916858Y-72874190D01*
X159535905Y-72874190D01*
X160678762Y-72778952D02*
X160583524Y-72731333D01*
X160535905Y-72683714D01*
X160488286Y-72588476D01*
X160488286Y-72540857D01*
X160535905Y-72445619D01*
X160583524Y-72398000D01*
X160678762Y-72350381D01*
X160869239Y-72350381D01*
X160964477Y-72398000D01*
X161012096Y-72445619D01*
X161059715Y-72540857D01*
X161059715Y-72588476D01*
X161012096Y-72683714D01*
X160964477Y-72731333D01*
X160869239Y-72778952D01*
X160678762Y-72778952D01*
X160583524Y-72826571D01*
X160535905Y-72874190D01*
X160488286Y-72969429D01*
X160488286Y-73159905D01*
X160535905Y-73255143D01*
X160583524Y-73302762D01*
X160678762Y-73350381D01*
X160869239Y-73350381D01*
X160964477Y-73302762D01*
X161012096Y-73255143D01*
X161059715Y-73159905D01*
X161059715Y-72969429D01*
X161012096Y-72874190D01*
X160964477Y-72826571D01*
X160869239Y-72778952D01*
X22737867Y-66584581D02*
X22737867Y-67298867D01*
X22690247Y-67441724D01*
X22595009Y-67536962D01*
X22452152Y-67584581D01*
X22356914Y-67584581D01*
X23214057Y-67584581D02*
X23214057Y-66584581D01*
X23595010Y-66584581D01*
X23690248Y-66632200D01*
X23737867Y-66679819D01*
X23785486Y-66775057D01*
X23785486Y-66917914D01*
X23737867Y-67013152D01*
X23690248Y-67060771D01*
X23595010Y-67108390D01*
X23214057Y-67108390D01*
X24737867Y-67584581D02*
X24166438Y-67584581D01*
X24452152Y-67584581D02*
X24452152Y-66584581D01*
X24356914Y-66727438D01*
X24261676Y-66822676D01*
X24166438Y-66870295D01*
X46489905Y-83065881D02*
X46489905Y-82065881D01*
X46728000Y-82065881D01*
X46870858Y-82113500D01*
X46966096Y-82208738D01*
X47013715Y-82303976D01*
X47061334Y-82494452D01*
X47061334Y-82637310D01*
X47013715Y-82827786D01*
X46966096Y-82923024D01*
X46870858Y-83018262D01*
X46728000Y-83065881D01*
X46489905Y-83065881D01*
X48013715Y-83065881D02*
X47442286Y-83065881D01*
X47728000Y-83065881D02*
X47728000Y-82065881D01*
X47632762Y-82208738D01*
X47537524Y-82303976D01*
X47442286Y-82351595D01*
X51506381Y-90019095D02*
X50506381Y-90019095D01*
X50506381Y-89781000D01*
X50554000Y-89638142D01*
X50649238Y-89542904D01*
X50744476Y-89495285D01*
X50934952Y-89447666D01*
X51077810Y-89447666D01*
X51268286Y-89495285D01*
X51363524Y-89542904D01*
X51458762Y-89638142D01*
X51506381Y-89781000D01*
X51506381Y-90019095D01*
X50506381Y-88590523D02*
X50506381Y-88781000D01*
X50554000Y-88876238D01*
X50601619Y-88923857D01*
X50744476Y-89019095D01*
X50934952Y-89066714D01*
X51315905Y-89066714D01*
X51411143Y-89019095D01*
X51458762Y-88971476D01*
X51506381Y-88876238D01*
X51506381Y-88685761D01*
X51458762Y-88590523D01*
X51411143Y-88542904D01*
X51315905Y-88495285D01*
X51077810Y-88495285D01*
X50982571Y-88542904D01*
X50934952Y-88590523D01*
X50887333Y-88685761D01*
X50887333Y-88876238D01*
X50934952Y-88971476D01*
X50982571Y-89019095D01*
X51077810Y-89066714D01*
M02*
