G04 #@! TF.FileFunction,Legend,Bot*
%FSLAX46Y46*%
G04 Gerber Fmt 4.6, Leading zero omitted, Abs format (unit mm)*
G04 Created by KiCad (PCBNEW 4.0.2+dfsg1-stable) date Mon 18 Jun 2018 02:06:16 PM EDT*
%MOMM*%
G01*
G04 APERTURE LIST*
%ADD10C,0.100000*%
%ADD11C,0.381000*%
%ADD12C,0.300000*%
%ADD13C,0.304800*%
%ADD14C,0.150000*%
G04 APERTURE END LIST*
D10*
D11*
X32258000Y-54356000D02*
X41148000Y-54356000D01*
X72898000Y-50038000D02*
X72898000Y-66294000D01*
X69596000Y-122428000D02*
X81026000Y-122428000D01*
X81026000Y-122428000D02*
X82296000Y-121158000D01*
X82296000Y-121158000D02*
X82296000Y-56388000D01*
X28956000Y-122428000D02*
X28956000Y-56388000D01*
X28956000Y-56388000D02*
X82296000Y-56388000D01*
X69596000Y-122428000D02*
X67056000Y-124968000D01*
X67056000Y-124968000D02*
X34036000Y-124968000D01*
X34036000Y-124968000D02*
X31496000Y-122428000D01*
X31496000Y-122428000D02*
X28956000Y-122428000D01*
X60452000Y-50038000D02*
X60452000Y-66294000D01*
X60452000Y-50038000D02*
X72898000Y-50038000D01*
X60452000Y-66294000D02*
X72898000Y-66294000D01*
X32258000Y-71374000D02*
X41148000Y-71374000D01*
X32258000Y-71374000D02*
X32258000Y-54356000D01*
X41148000Y-71374000D02*
X41148000Y-54356000D01*
X100289981Y-124977320D02*
X102588078Y-122679223D01*
X94986680Y-119674019D02*
X97284777Y-117375922D01*
X100289981Y-124977320D02*
X94986680Y-119674019D01*
D12*
X120544933Y-111719068D02*
G75*
G03X120544933Y-111719068I-12300001J0D01*
G01*
D13*
X40966571Y-58782857D02*
X40748857Y-58855429D01*
X40386000Y-58855429D01*
X40240857Y-58782857D01*
X40168286Y-58710286D01*
X40095714Y-58565143D01*
X40095714Y-58420000D01*
X40168286Y-58274857D01*
X40240857Y-58202286D01*
X40386000Y-58129714D01*
X40676286Y-58057143D01*
X40821428Y-57984571D01*
X40894000Y-57912000D01*
X40966571Y-57766857D01*
X40966571Y-57621714D01*
X40894000Y-57476571D01*
X40821428Y-57404000D01*
X40676286Y-57331429D01*
X40313428Y-57331429D01*
X40095714Y-57404000D01*
X39442571Y-58855429D02*
X39442571Y-57331429D01*
X39442571Y-58057143D02*
X38571714Y-58057143D01*
X38571714Y-58855429D02*
X38571714Y-57331429D01*
X37846000Y-58855429D02*
X37846000Y-57331429D01*
X37120286Y-58057143D02*
X36612286Y-58057143D01*
X36394572Y-58855429D02*
X37120286Y-58855429D01*
X37120286Y-57331429D01*
X36394572Y-57331429D01*
X35015715Y-58855429D02*
X35741429Y-58855429D01*
X35741429Y-57331429D01*
X34507715Y-58855429D02*
X34507715Y-57331429D01*
X34144858Y-57331429D01*
X33927143Y-57404000D01*
X33782001Y-57549143D01*
X33709429Y-57694286D01*
X33636858Y-57984571D01*
X33636858Y-58202286D01*
X33709429Y-58492571D01*
X33782001Y-58637714D01*
X33927143Y-58782857D01*
X34144858Y-58855429D01*
X34507715Y-58855429D01*
X32185429Y-58855429D02*
X33056286Y-58855429D01*
X32620858Y-58855429D02*
X32620858Y-57331429D01*
X32766001Y-57549143D01*
X32911143Y-57694286D01*
X33056286Y-57766857D01*
D14*
X99627320Y-101327629D02*
X99559977Y-101462316D01*
X99559977Y-101529660D01*
X99593649Y-101630675D01*
X99694664Y-101731690D01*
X99795680Y-101765362D01*
X99863023Y-101765362D01*
X99964038Y-101731690D01*
X100233413Y-101462316D01*
X99526306Y-100755209D01*
X99290603Y-100990912D01*
X99256931Y-101091927D01*
X99256931Y-101159270D01*
X99290603Y-101260285D01*
X99357946Y-101327629D01*
X99458962Y-101361301D01*
X99526305Y-101361301D01*
X99627320Y-101327629D01*
X99863023Y-101091926D01*
X99357947Y-101933721D02*
X99021229Y-102270438D01*
X99627321Y-102068407D02*
X98684512Y-101597003D01*
X99155916Y-102539812D01*
X98314123Y-101967392D02*
X97910061Y-102371454D01*
X98819199Y-102876529D02*
X98112092Y-102169423D01*
X98011076Y-103684652D02*
X98415138Y-103280591D01*
X98213107Y-103482621D02*
X97506001Y-102775514D01*
X97674359Y-102809186D01*
X97809046Y-102809186D01*
X97910061Y-102775514D01*
M02*
