M48
;DRILL file {KiCad 4.0.2+dfsg1-stable} date Mon 18 Jun 2018 02:06:20 PM EDT
;FORMAT={-:-/ absolute / inch / decimal}
FMAT,2
INCH,TZ
T1C0.012
T2C0.024
T3C0.030
T4C0.031
T5C0.032
T6C0.033
T7C0.035
T8C0.037
T9C0.039
T10C0.040
T11C0.043
T12C0.046
T13C0.059
T14C0.075
T15C0.106
T16C0.128
%
G90
G05
M72
T1
X0.932Y-3.3523
X1.067Y-3.406
X1.0764Y-3.4427
X1.101Y-3.2734
X1.1113Y-3.4791
X1.3849Y-3.3001
X1.4215Y-3.3306
X1.502Y-3.538
X1.502Y-3.628
X1.5744Y-3.1073
X1.706Y-3.671
X1.8165Y-3.4535
X1.8853Y-3.6547
X1.971Y-4.07
X2.001Y-4.028
X2.083Y-4.211
X2.194Y-4.153
X2.194Y-4.297
X2.194Y-4.547
X2.242Y-3.283
X2.3359Y-3.848
X2.385Y-3.112
X2.3851Y-3.6591
X2.505Y-2.9322
X2.535Y-2.8934
X2.5423Y-2.853
X2.5775Y-2.8126
X2.6371Y-2.7719
X2.6489Y-2.8394
X2.664Y-2.909
X2.665Y-3.0703
X2.6682Y-3.9562
X2.6853Y-2.7325
X2.6888Y-3.0408
X2.7168Y-3.0153
X2.7424Y-2.9874
X2.7684Y-2.9598
X2.797Y-2.9335
X2.8238Y-2.9053
X2.85Y-2.878
X2.8723Y-4.0588
X2.8985Y-3.9563
X2.927Y-3.386
X2.9272Y-3.9128
X2.941Y-4.584
X3.254Y-3.89
T2
X2.407Y-3.257
X2.466Y-3.257
T3
X2.85Y-4.7
X2.9Y-4.7
X2.95Y-4.7
X3.Y-4.7
T4
X1.053Y-2.87
X1.053Y-2.97
X1.053Y-3.07
X1.053Y-3.17
X1.353Y-2.87
X1.353Y-2.97
X1.353Y-3.07
X1.353Y-3.17
X1.53Y-2.93
X1.63Y-2.93
X1.73Y-2.93
X2.58Y-4.03
X2.5816Y-3.57
X2.6784Y-4.03
X2.68Y-3.57
X3.55Y-3.27
X3.55Y-3.3684
X4.13Y-3.27
X4.13Y-3.3684
X4.73Y-3.27
X4.73Y-3.3684
X5.34Y-3.27
X5.34Y-3.3684
T5
X1.24Y-3.42
X1.24Y-3.52
X1.24Y-3.62
X1.24Y-3.72
X1.24Y-3.82
X1.24Y-3.92
X1.24Y-4.02
X1.24Y-4.22
X1.24Y-4.32
X1.24Y-4.42
X1.24Y-4.52
X1.24Y-4.62
X1.24Y-4.72
X3.14Y-2.96
X3.14Y-3.06
X3.14Y-3.16
X3.14Y-3.26
X3.14Y-3.36
X3.14Y-3.46
X3.14Y-3.56
X3.14Y-3.66
X3.14Y-3.76
X3.14Y-3.86
X3.14Y-4.02
X3.14Y-4.12
X3.14Y-4.22
X3.14Y-4.32
X3.14Y-4.42
X3.14Y-4.52
X3.14Y-4.62
X3.14Y-4.72
T6
X1.56Y-4.02
X1.56Y-4.12
X1.66Y-4.02
X1.66Y-4.12
X1.76Y-4.02
X1.76Y-4.12
X1.86Y-4.02
X1.86Y-4.12
T7
X1.86Y-2.5
X1.9Y-2.57
X1.94Y-2.5
X1.98Y-2.57
X2.02Y-2.5
X2.06Y-2.57
X2.1Y-2.5
X2.14Y-2.57
T8
X1.056Y-2.7201
T9
X3.54Y-3.73
X3.64Y-3.73
X3.74Y-3.73
X4.14Y-3.73
X4.24Y-3.73
X4.34Y-3.73
X4.74Y-3.73
X4.84Y-3.73
X4.94Y-3.73
X5.34Y-3.73
X5.44Y-3.73
X5.54Y-3.73
X5.94Y-3.73
X6.04Y-3.73
X6.14Y-3.73
T10
X0.93Y-2.73
X0.93Y-2.83
X2.76Y-2.68
X2.86Y-2.68
X2.96Y-2.68
X3.18Y-2.68
X3.28Y-2.68
X3.312Y-4.12
X3.312Y-4.22
T11
X3.9531Y-2.42
X4.15Y-2.42
X4.3469Y-2.42
X4.5437Y-2.42
X4.7406Y-2.42
X4.9374Y-2.42
X5.2Y-2.42
X5.3969Y-2.42
X5.5937Y-2.42
X5.7906Y-2.42
X5.9874Y-2.42
X6.1843Y-2.42
T12
X4.54Y-4.12
T13
X3.9832Y-4.6768
T14
X0.9064Y-2.413
X1.2056Y-2.413
T15
X0.96Y-3.62
X0.96Y-4.82
X6.31Y-2.87
X6.31Y-4.82
T16
X1.75Y-2.4
X2.25Y-2.4
T9
X3.465Y-2.4487G85X3.465Y-2.5274
G05
X3.6894Y-2.37G85X3.6107Y-2.37
G05
X3.6894Y-2.6062G85X3.6107Y-2.6062
G05
T0
M30
