G04 #@! TF.FileFunction,Copper,L2,Bot,Signal*
%FSLAX46Y46*%
G04 Gerber Fmt 4.6, Leading zero omitted, Abs format (unit mm)*
G04 Created by KiCad (PCBNEW 4.0.2+dfsg1-stable) date Wed 09 May 2018 03:43:37 PM EDT*
%MOMM*%
G01*
G04 APERTURE LIST*
%ADD10C,0.100000*%
%ADD11O,1.524000X2.540000*%
%ADD12C,1.750000*%
%ADD13C,2.900000*%
%ADD14C,1.699260*%
%ADD15R,1.699260X1.699260*%
%ADD16R,1.400000X1.400000*%
%ADD17C,1.400000*%
%ADD18C,1.524000*%
%ADD19C,1.998980*%
%ADD20O,1.600000X1.600000*%
%ADD21C,1.520000*%
%ADD22R,1.520000X1.520000*%
%ADD23R,3.500120X3.500120*%
%ADD24C,2.100000*%
%ADD25C,1.300000*%
%ADD26R,1.300000X1.300000*%
%ADD27R,2.032000X2.032000*%
%ADD28O,2.032000X2.032000*%
%ADD29R,1.727200X2.032000*%
%ADD30O,1.727200X2.032000*%
%ADD31O,1.699260X3.500120*%
%ADD32C,1.700000*%
%ADD33C,0.762000*%
%ADD34C,0.760000*%
%ADD35C,0.381000*%
%ADD36C,1.016000*%
%ADD37C,2.540000*%
%ADD38C,1.524000*%
%ADD39C,0.254000*%
G04 APERTURE END LIST*
D10*
D11*
X121285000Y-123190000D03*
X118745000Y-123190000D03*
X116205000Y-123190000D03*
X108585000Y-123190000D03*
X111125000Y-123190000D03*
X113665000Y-123190000D03*
X103505000Y-123190000D03*
X100965000Y-123190000D03*
X98425000Y-123190000D03*
X93345000Y-123190000D03*
X90805000Y-123190000D03*
X121285000Y-74930000D03*
X118745000Y-74930000D03*
X116205000Y-74930000D03*
X113665000Y-74930000D03*
X111125000Y-74930000D03*
X108585000Y-74930000D03*
X106045000Y-74930000D03*
X103505000Y-74930000D03*
X99441000Y-74930000D03*
X96901000Y-74930000D03*
X94361000Y-74930000D03*
X91821000Y-74930000D03*
X89281000Y-74930000D03*
X86741000Y-74930000D03*
X84201000Y-74930000D03*
X81661000Y-74930000D03*
X95885000Y-123190000D03*
D12*
X149098000Y-71808000D03*
D13*
X152898000Y-64008000D03*
X145298000Y-64008000D03*
D14*
X41148000Y-93472000D03*
D15*
X30988000Y-93472000D03*
D16*
X147574000Y-92710000D03*
D17*
X152574000Y-92710000D03*
D16*
X137668000Y-82550000D03*
D17*
X137668000Y-87550000D03*
D14*
X56388520Y-93469460D03*
D15*
X46228520Y-93469460D03*
D14*
X25908000Y-93472000D03*
D15*
X15748000Y-93472000D03*
D18*
X103378000Y-93218000D03*
X105918000Y-93218000D03*
X100838000Y-93218000D03*
X111252000Y-93243400D03*
X113792000Y-93243400D03*
X108712000Y-93243400D03*
X119126000Y-93243400D03*
X121666000Y-93243400D03*
X116586000Y-93243400D03*
X121158000Y-105664000D03*
X123698000Y-105664000D03*
X118618000Y-105664000D03*
D19*
X119380000Y-88646000D03*
X119380000Y-78486000D03*
X122682000Y-88646000D03*
X122682000Y-78486000D03*
X125984000Y-88646000D03*
X125984000Y-78486000D03*
X112776000Y-88646000D03*
X112776000Y-78486000D03*
X109474000Y-88646000D03*
X109474000Y-78486000D03*
X106172000Y-88646000D03*
X106172000Y-78486000D03*
X86360000Y-88646000D03*
X86360000Y-78486000D03*
X144526000Y-75184000D03*
X134366000Y-75184000D03*
X134366000Y-78486000D03*
X144526000Y-78486000D03*
X89662000Y-88646000D03*
X89662000Y-78486000D03*
X92964000Y-88646000D03*
X92964000Y-78486000D03*
X83058000Y-88646000D03*
X83058000Y-78486000D03*
X134366000Y-94996000D03*
X144526000Y-94996000D03*
X144526000Y-91694000D03*
X134366000Y-91694000D03*
D20*
X142748000Y-88900000D03*
X145288000Y-88900000D03*
X147828000Y-88900000D03*
X150368000Y-88900000D03*
X150368000Y-81280000D03*
X147828000Y-81280000D03*
X145288000Y-81280000D03*
X142748000Y-81280000D03*
D21*
X149860000Y-98298000D03*
X152400000Y-98298000D03*
D22*
X147320000Y-98298000D03*
D23*
X36322000Y-69088000D03*
X36322000Y-63088520D03*
X31623000Y-66088260D03*
D24*
X101454000Y-64262000D03*
X96454000Y-64262000D03*
X91454000Y-64262000D03*
X86454000Y-64262000D03*
X81454000Y-64262000D03*
X76454000Y-64262000D03*
X69784000Y-64262000D03*
X64784000Y-64262000D03*
X59784000Y-64262000D03*
X54784000Y-64262000D03*
X49784000Y-64262000D03*
X44784000Y-64262000D03*
D25*
X52284000Y-87884000D03*
D26*
X49784000Y-87884000D03*
D25*
X37084000Y-87884000D03*
D26*
X34584000Y-87884000D03*
D25*
X21844000Y-87884000D03*
D26*
X19344000Y-87884000D03*
D27*
X115316000Y-68580000D03*
D28*
X117856000Y-68580000D03*
D19*
X116078000Y-78486000D03*
X116078000Y-88646000D03*
X99568000Y-78486000D03*
X99568000Y-88646000D03*
X96266000Y-78486000D03*
X96266000Y-88646000D03*
D29*
X122428000Y-68580000D03*
D30*
X124968000Y-68580000D03*
X127508000Y-68580000D03*
D27*
X108204000Y-68580000D03*
D28*
X110744000Y-68580000D03*
D27*
X148336000Y-102362000D03*
D28*
X148336000Y-104902000D03*
D29*
X132334000Y-68580000D03*
D30*
X134874000Y-68580000D03*
X137414000Y-68580000D03*
X139954000Y-68580000D03*
D31*
X81788000Y-97536000D03*
X84328000Y-97536000D03*
X79248000Y-97536000D03*
X51308000Y-97536000D03*
X53848000Y-97536000D03*
X48768000Y-97536000D03*
X36068000Y-97536000D03*
X38608000Y-97536000D03*
X33528000Y-97536000D03*
X20828000Y-97536000D03*
X23368000Y-97536000D03*
X18288000Y-97536000D03*
D25*
X67524000Y-87884000D03*
D26*
X65024000Y-87884000D03*
D14*
X71120000Y-93472000D03*
D15*
X60960000Y-93472000D03*
D31*
X66548000Y-97536000D03*
X69088000Y-97536000D03*
X64008000Y-97536000D03*
D19*
X102870000Y-88646000D03*
X102870000Y-78486000D03*
X126238000Y-112776000D03*
X116078000Y-112776000D03*
X116078000Y-109474000D03*
X126238000Y-109474000D03*
X126238000Y-119380000D03*
X116078000Y-119380000D03*
X116078000Y-116078000D03*
X126238000Y-116078000D03*
D32*
X133096000Y-113284000D03*
X130556000Y-113284000D03*
X133096000Y-115824000D03*
X130556000Y-115824000D03*
X133096000Y-118364000D03*
X130556000Y-118364000D03*
X133096000Y-120904000D03*
X130556000Y-120904000D03*
D33*
X123825000Y-122301000D03*
X128803400Y-109397800D03*
X103505000Y-120065800D03*
D34*
X139708965Y-91295869D03*
X137995054Y-89685190D03*
D33*
X127254000Y-75615800D03*
X109475030Y-85496145D03*
X109508317Y-86478112D03*
X110710563Y-104440203D03*
X106730800Y-104444800D03*
X112776000Y-112776000D03*
X91314271Y-90144553D03*
X89687400Y-82600800D03*
X94009578Y-85284589D03*
X94991876Y-90060960D03*
X89676469Y-81492285D03*
X87282758Y-80069937D03*
X137298565Y-90385742D03*
X123698000Y-76708000D03*
X140462000Y-93980000D03*
X89723993Y-83655540D03*
X129571293Y-100415720D03*
X129540000Y-95732600D03*
X128574800Y-95707200D03*
X128574800Y-100380800D03*
D35*
X92959060Y-86798028D02*
X92964000Y-86802968D01*
X92964000Y-86802968D02*
X92964000Y-88646000D01*
X92964000Y-88646000D02*
X92964000Y-90678000D01*
D36*
X139954000Y-68580000D02*
X140006017Y-68632017D01*
X140006017Y-68632017D02*
X140006017Y-78538017D01*
X140006017Y-78538017D02*
X142748000Y-81280000D01*
D35*
X96266000Y-88646000D02*
X99568000Y-88646000D01*
D37*
X36322000Y-69088000D02*
X38862000Y-69088000D01*
D38*
X43205400Y-102972754D02*
X60194019Y-102972754D01*
X60194019Y-102972754D02*
X60960000Y-102206773D01*
X60960000Y-102206773D02*
X60960000Y-93472000D01*
X28117800Y-102972754D02*
X43205400Y-102972754D01*
X46228520Y-93469460D02*
X43854890Y-93469460D01*
X43854890Y-93469460D02*
X43205400Y-94118950D01*
X43205400Y-94118950D02*
X43205400Y-102972754D01*
X15956934Y-102972754D02*
X28117800Y-102972754D01*
X30988000Y-93472000D02*
X28614370Y-93472000D01*
X28614370Y-93472000D02*
X28117800Y-93968570D01*
X28117800Y-93968570D02*
X28117800Y-102972754D01*
X15748000Y-101728573D02*
X15768708Y-101749281D01*
X15768708Y-101749281D02*
X15768708Y-102784528D01*
X15768708Y-102784528D02*
X15956934Y-102972754D01*
X17627600Y-125095000D02*
X15748000Y-123215400D01*
X15748000Y-123215400D02*
X15748000Y-101728573D01*
X85953882Y-125095000D02*
X17627600Y-125095000D01*
X101498400Y-120675400D02*
X90373482Y-120675400D01*
X90373482Y-120675400D02*
X85953882Y-125095000D01*
X103505000Y-123190000D02*
X103505000Y-122682000D01*
X103505000Y-122682000D02*
X101498400Y-120675400D01*
X15748000Y-93472000D02*
X15748000Y-101728573D01*
D35*
X103505000Y-123190000D02*
X103505000Y-120065800D01*
X139605733Y-91295869D02*
X139708965Y-91295869D01*
X137995054Y-89685190D02*
X139605733Y-91295869D01*
X124968000Y-68580000D02*
X127243490Y-70855490D01*
X127243490Y-70855490D02*
X127243490Y-75605290D01*
X127243490Y-75605290D02*
X127254000Y-75615800D01*
X108084009Y-86348351D02*
X108936215Y-85496145D01*
X108084009Y-90075409D02*
X108084009Y-86348351D01*
X111252000Y-93243400D02*
X108084009Y-90075409D01*
X108936215Y-85496145D02*
X109475030Y-85496145D01*
X109508317Y-86478112D02*
X111065635Y-88035430D01*
X111065635Y-88035430D02*
X111065635Y-91081380D01*
X111065635Y-91081380D02*
X112050225Y-92065970D01*
X112050225Y-92065970D02*
X117948570Y-92065970D01*
X117948570Y-92065970D02*
X118364001Y-92481401D01*
X118364001Y-92481401D02*
X119126000Y-93243400D01*
X110705966Y-104444800D02*
X110710563Y-104440203D01*
X106730800Y-104444800D02*
X110705966Y-104444800D01*
X116078000Y-112776000D02*
X112776000Y-112776000D01*
X91314271Y-89605738D02*
X91314271Y-90144553D01*
X91314271Y-86339144D02*
X91314271Y-89605738D01*
X88234696Y-83259569D02*
X91314271Y-86339144D01*
X87773492Y-78486000D02*
X88234696Y-78947204D01*
X88234696Y-78947204D02*
X88234696Y-83259569D01*
X86360000Y-78486000D02*
X87773492Y-78486000D01*
X89306401Y-82219801D02*
X89687400Y-82600800D01*
X88898783Y-80662709D02*
X88898783Y-81812183D01*
X89662000Y-79899492D02*
X88898783Y-80662709D01*
X89662000Y-78486000D02*
X89662000Y-79899492D01*
X88898783Y-81812183D02*
X89306401Y-82219801D01*
X94991876Y-90060960D02*
X94458668Y-89527752D01*
X94458668Y-85733679D02*
X94390577Y-85665588D01*
X94390577Y-85665588D02*
X94009578Y-85284589D01*
X94458668Y-89527752D02*
X94458668Y-85733679D01*
X92964000Y-78486000D02*
X92172769Y-78486000D01*
X92172769Y-78486000D02*
X89676469Y-80982300D01*
X89676469Y-80982300D02*
X89676469Y-81492285D01*
X84641937Y-80069937D02*
X86743943Y-80069937D01*
X86743943Y-80069937D02*
X87282758Y-80069937D01*
X83058000Y-78486000D02*
X84641937Y-80069937D01*
X140462000Y-93980000D02*
X140462000Y-93324876D01*
X140462000Y-93324876D02*
X137522866Y-90385742D01*
X137522866Y-90385742D02*
X137298565Y-90385742D01*
X123698000Y-76708000D02*
X100711000Y-76708000D01*
X100711000Y-76708000D02*
X99441000Y-75438000D01*
X99441000Y-75438000D02*
X99441000Y-74930000D01*
X90145772Y-83655540D02*
X89723993Y-83655540D01*
X90599711Y-83201601D02*
X90145772Y-83655540D01*
X91666467Y-80139942D02*
X90599711Y-81206698D01*
X101216058Y-80139942D02*
X91666467Y-80139942D01*
X102870000Y-78486000D02*
X101216058Y-80139942D01*
X90599711Y-81206698D02*
X90599711Y-83201601D01*
X129540000Y-100384427D02*
X129571293Y-100415720D01*
X129540000Y-95732600D02*
X129540000Y-100384427D01*
X128574800Y-100380800D02*
X128574800Y-99841985D01*
X128574800Y-99841985D02*
X128574800Y-95707200D01*
D39*
G36*
X40767000Y-65225394D02*
X39571394Y-66421000D01*
X34036000Y-66421000D01*
X34008060Y-66426658D01*
X34008060Y-66374010D01*
X33849310Y-66215260D01*
X31750000Y-66215260D01*
X31750000Y-68314570D01*
X31908750Y-68473320D01*
X33499370Y-68473320D01*
X33732759Y-68376647D01*
X33909000Y-68200405D01*
X33909000Y-71628000D01*
X33919006Y-71677410D01*
X33947447Y-71719035D01*
X33989841Y-71746315D01*
X34036000Y-71755000D01*
X43688000Y-71755000D01*
X43737410Y-71744994D01*
X43777803Y-71717803D01*
X46026606Y-69469000D01*
X105156000Y-69469000D01*
X105205410Y-69458994D01*
X105247035Y-69430553D01*
X105274315Y-69388159D01*
X105283000Y-69342000D01*
X105283000Y-68865750D01*
X106553000Y-68865750D01*
X106553000Y-69722309D01*
X106649673Y-69955698D01*
X106828301Y-70134327D01*
X107061690Y-70231000D01*
X107918250Y-70231000D01*
X108077000Y-70072250D01*
X108077000Y-68707000D01*
X106711750Y-68707000D01*
X106553000Y-68865750D01*
X105283000Y-68865750D01*
X105283000Y-67437691D01*
X106553000Y-67437691D01*
X106553000Y-68294250D01*
X106711750Y-68453000D01*
X108077000Y-68453000D01*
X108077000Y-67087750D01*
X108331000Y-67087750D01*
X108331000Y-68453000D01*
X108351000Y-68453000D01*
X108351000Y-68707000D01*
X108331000Y-68707000D01*
X108331000Y-70072250D01*
X108489750Y-70231000D01*
X109346310Y-70231000D01*
X109579699Y-70134327D01*
X109758327Y-69955698D01*
X109775999Y-69913034D01*
X110112190Y-70137670D01*
X110744000Y-70263345D01*
X111375810Y-70137670D01*
X111911433Y-69779778D01*
X112269325Y-69244155D01*
X112344594Y-68865750D01*
X113665000Y-68865750D01*
X113665000Y-69722309D01*
X113761673Y-69955698D01*
X113940301Y-70134327D01*
X114173690Y-70231000D01*
X115030250Y-70231000D01*
X115189000Y-70072250D01*
X115189000Y-68707000D01*
X113823750Y-68707000D01*
X113665000Y-68865750D01*
X112344594Y-68865750D01*
X112395000Y-68612345D01*
X112395000Y-68547655D01*
X112269325Y-67915845D01*
X111949833Y-67437691D01*
X113665000Y-67437691D01*
X113665000Y-68294250D01*
X113823750Y-68453000D01*
X115189000Y-68453000D01*
X115189000Y-67087750D01*
X115443000Y-67087750D01*
X115443000Y-68453000D01*
X115463000Y-68453000D01*
X115463000Y-68707000D01*
X115443000Y-68707000D01*
X115443000Y-70072250D01*
X115601750Y-70231000D01*
X116458310Y-70231000D01*
X116691699Y-70134327D01*
X116870327Y-69955698D01*
X116887999Y-69913034D01*
X117224190Y-70137670D01*
X117856000Y-70263345D01*
X118487810Y-70137670D01*
X119023433Y-69779778D01*
X119381325Y-69244155D01*
X119456594Y-68865750D01*
X120929400Y-68865750D01*
X120929400Y-69722309D01*
X121026073Y-69955698D01*
X121204701Y-70134327D01*
X121438090Y-70231000D01*
X122142250Y-70231000D01*
X122301000Y-70072250D01*
X122301000Y-68707000D01*
X121088150Y-68707000D01*
X120929400Y-68865750D01*
X119456594Y-68865750D01*
X119507000Y-68612345D01*
X119507000Y-68547655D01*
X119381325Y-67915845D01*
X119061833Y-67437691D01*
X120929400Y-67437691D01*
X120929400Y-68294250D01*
X121088150Y-68453000D01*
X122301000Y-68453000D01*
X122301000Y-67087750D01*
X122555000Y-67087750D01*
X122555000Y-68453000D01*
X122575000Y-68453000D01*
X122575000Y-68707000D01*
X122555000Y-68707000D01*
X122555000Y-70072250D01*
X122713750Y-70231000D01*
X123417910Y-70231000D01*
X123651299Y-70134327D01*
X123829927Y-69955698D01*
X123893500Y-69802220D01*
X123908330Y-69824415D01*
X124394511Y-70149271D01*
X124968000Y-70263345D01*
X125398316Y-70177750D01*
X126417990Y-71197424D01*
X126417990Y-75014763D01*
X126393179Y-75039531D01*
X126238176Y-75412818D01*
X126237824Y-75817008D01*
X126392175Y-76190566D01*
X126677731Y-76476621D01*
X127051018Y-76631624D01*
X127455208Y-76631976D01*
X127828766Y-76477625D01*
X128114821Y-76192069D01*
X128269824Y-75818782D01*
X128270094Y-75507694D01*
X132731226Y-75507694D01*
X132979538Y-76108655D01*
X133438927Y-76568846D01*
X134039453Y-76818206D01*
X134689694Y-76818774D01*
X135290655Y-76570462D01*
X135750846Y-76111073D01*
X136000206Y-75510547D01*
X136000774Y-74860306D01*
X135752462Y-74259345D01*
X135293073Y-73799154D01*
X134692547Y-73549794D01*
X134042306Y-73549226D01*
X133441345Y-73797538D01*
X132981154Y-74256927D01*
X132731794Y-74857453D01*
X132731226Y-75507694D01*
X128270094Y-75507694D01*
X128270176Y-75414592D01*
X128115825Y-75041034D01*
X128068990Y-74994117D01*
X128068990Y-70855495D01*
X128068991Y-70855490D01*
X128006153Y-70539585D01*
X127827207Y-70271773D01*
X127767217Y-70211783D01*
X128081489Y-70149271D01*
X128567670Y-69824415D01*
X128892526Y-69338234D01*
X129006600Y-68764745D01*
X129006600Y-68395255D01*
X128892526Y-67821766D01*
X128567670Y-67335585D01*
X128081489Y-67010729D01*
X127508000Y-66896655D01*
X126934511Y-67010729D01*
X126448330Y-67335585D01*
X126238000Y-67650366D01*
X126027670Y-67335585D01*
X125541489Y-67010729D01*
X124968000Y-66896655D01*
X124394511Y-67010729D01*
X123908330Y-67335585D01*
X123893500Y-67357780D01*
X123829927Y-67204302D01*
X123651299Y-67025673D01*
X123417910Y-66929000D01*
X122713750Y-66929000D01*
X122555000Y-67087750D01*
X122301000Y-67087750D01*
X122142250Y-66929000D01*
X121438090Y-66929000D01*
X121204701Y-67025673D01*
X121026073Y-67204302D01*
X120929400Y-67437691D01*
X119061833Y-67437691D01*
X119023433Y-67380222D01*
X118487810Y-67022330D01*
X117856000Y-66896655D01*
X117224190Y-67022330D01*
X116887999Y-67246966D01*
X116870327Y-67204302D01*
X116691699Y-67025673D01*
X116458310Y-66929000D01*
X115601750Y-66929000D01*
X115443000Y-67087750D01*
X115189000Y-67087750D01*
X115030250Y-66929000D01*
X114173690Y-66929000D01*
X113940301Y-67025673D01*
X113761673Y-67204302D01*
X113665000Y-67437691D01*
X111949833Y-67437691D01*
X111911433Y-67380222D01*
X111375810Y-67022330D01*
X110744000Y-66896655D01*
X110112190Y-67022330D01*
X109775999Y-67246966D01*
X109758327Y-67204302D01*
X109579699Y-67025673D01*
X109346310Y-66929000D01*
X108489750Y-66929000D01*
X108331000Y-67087750D01*
X108077000Y-67087750D01*
X107918250Y-66929000D01*
X107061690Y-66929000D01*
X106828301Y-67025673D01*
X106649673Y-67204302D01*
X106553000Y-67437691D01*
X105283000Y-67437691D01*
X105283000Y-60146000D01*
X143129000Y-60146000D01*
X143129000Y-74286197D01*
X142891794Y-74857453D01*
X142891226Y-75507694D01*
X143129000Y-76083151D01*
X143129000Y-77588197D01*
X142891794Y-78159453D01*
X142891226Y-78809694D01*
X143129000Y-79385151D01*
X143129000Y-79892673D01*
X142939406Y-79854960D01*
X141149017Y-78064571D01*
X141149017Y-69621854D01*
X141338526Y-69338234D01*
X141452600Y-68764745D01*
X141452600Y-68395255D01*
X141338526Y-67821766D01*
X141013670Y-67335585D01*
X140527489Y-67010729D01*
X139954000Y-66896655D01*
X139380511Y-67010729D01*
X138894330Y-67335585D01*
X138684000Y-67650366D01*
X138473670Y-67335585D01*
X137987489Y-67010729D01*
X137414000Y-66896655D01*
X136840511Y-67010729D01*
X136354330Y-67335585D01*
X136144000Y-67650366D01*
X135933670Y-67335585D01*
X135447489Y-67010729D01*
X134874000Y-66896655D01*
X134300511Y-67010729D01*
X133814330Y-67335585D01*
X133804757Y-67349913D01*
X133800762Y-67328683D01*
X133661690Y-67112559D01*
X133449490Y-66967569D01*
X133197600Y-66916560D01*
X131470400Y-66916560D01*
X131235083Y-66960838D01*
X131018959Y-67099910D01*
X130873969Y-67312110D01*
X130822960Y-67564000D01*
X130822960Y-69596000D01*
X130867238Y-69831317D01*
X131006310Y-70047441D01*
X131218510Y-70192431D01*
X131470400Y-70243440D01*
X133197600Y-70243440D01*
X133432917Y-70199162D01*
X133649041Y-70060090D01*
X133794031Y-69847890D01*
X133802400Y-69806561D01*
X133814330Y-69824415D01*
X134300511Y-70149271D01*
X134874000Y-70263345D01*
X135447489Y-70149271D01*
X135933670Y-69824415D01*
X136144000Y-69509634D01*
X136354330Y-69824415D01*
X136840511Y-70149271D01*
X137414000Y-70263345D01*
X137987489Y-70149271D01*
X138473670Y-69824415D01*
X138684000Y-69509634D01*
X138863017Y-69777552D01*
X138863017Y-78538017D01*
X138950023Y-78975424D01*
X139197794Y-79346240D01*
X141351073Y-81499519D01*
X141422233Y-81857264D01*
X141733302Y-82322811D01*
X142198849Y-82633880D01*
X142748000Y-82743113D01*
X143129000Y-82667327D01*
X143129000Y-84328000D01*
X143139006Y-84377410D01*
X143167447Y-84419035D01*
X143209841Y-84446315D01*
X143256000Y-84455000D01*
X153722000Y-84455000D01*
X153722000Y-92010125D01*
X153509275Y-91954331D01*
X152753605Y-92710000D01*
X153509275Y-93465669D01*
X153722000Y-93409875D01*
X153722000Y-97812518D01*
X153620742Y-97568059D01*
X153378764Y-97498841D01*
X152579605Y-98298000D01*
X153378764Y-99097159D01*
X153620742Y-99027941D01*
X153722000Y-98744003D01*
X153722000Y-125782000D01*
X87242538Y-125782000D01*
X89408000Y-123616538D01*
X89408000Y-123735321D01*
X89514340Y-124269930D01*
X89817172Y-124723149D01*
X90270391Y-125025981D01*
X90805000Y-125132321D01*
X91339609Y-125025981D01*
X91792828Y-124723149D01*
X92075000Y-124300850D01*
X92357172Y-124723149D01*
X92810391Y-125025981D01*
X93345000Y-125132321D01*
X93879609Y-125025981D01*
X94332828Y-124723149D01*
X94615000Y-124300850D01*
X94897172Y-124723149D01*
X95350391Y-125025981D01*
X95885000Y-125132321D01*
X96419609Y-125025981D01*
X96872828Y-124723149D01*
X97164330Y-124286887D01*
X97182941Y-124349941D01*
X97526974Y-124775630D01*
X98007723Y-125037260D01*
X98081930Y-125052220D01*
X98298000Y-124929720D01*
X98298000Y-123317000D01*
X98552000Y-123317000D01*
X98552000Y-124929720D01*
X98768070Y-125052220D01*
X98842277Y-125037260D01*
X99323026Y-124775630D01*
X99667059Y-124349941D01*
X99695000Y-124255277D01*
X99722941Y-124349941D01*
X100066974Y-124775630D01*
X100547723Y-125037260D01*
X100621930Y-125052220D01*
X100838000Y-124929720D01*
X100838000Y-123317000D01*
X98552000Y-123317000D01*
X98298000Y-123317000D01*
X98278000Y-123317000D01*
X98278000Y-123063000D01*
X98298000Y-123063000D01*
X98298000Y-123043000D01*
X98552000Y-123043000D01*
X98552000Y-123063000D01*
X100838000Y-123063000D01*
X100838000Y-123043000D01*
X101092000Y-123043000D01*
X101092000Y-123063000D01*
X101112000Y-123063000D01*
X101112000Y-123317000D01*
X101092000Y-123317000D01*
X101092000Y-124929720D01*
X101308070Y-125052220D01*
X101382277Y-125037260D01*
X101863026Y-124775630D01*
X102207059Y-124349941D01*
X102225670Y-124286887D01*
X102517172Y-124723149D01*
X102970391Y-125025981D01*
X103505000Y-125132321D01*
X104039609Y-125025981D01*
X104492828Y-124723149D01*
X104795660Y-124269930D01*
X104902000Y-123735321D01*
X104902000Y-122644679D01*
X107188000Y-122644679D01*
X107188000Y-123735321D01*
X107294340Y-124269930D01*
X107597172Y-124723149D01*
X108050391Y-125025981D01*
X108585000Y-125132321D01*
X109119609Y-125025981D01*
X109572828Y-124723149D01*
X109855000Y-124300850D01*
X110137172Y-124723149D01*
X110590391Y-125025981D01*
X111125000Y-125132321D01*
X111659609Y-125025981D01*
X112112828Y-124723149D01*
X112395000Y-124300850D01*
X112677172Y-124723149D01*
X113130391Y-125025981D01*
X113665000Y-125132321D01*
X114199609Y-125025981D01*
X114652828Y-124723149D01*
X114935000Y-124300850D01*
X115217172Y-124723149D01*
X115670391Y-125025981D01*
X116205000Y-125132321D01*
X116739609Y-125025981D01*
X117192828Y-124723149D01*
X117475000Y-124300850D01*
X117757172Y-124723149D01*
X118210391Y-125025981D01*
X118745000Y-125132321D01*
X119279609Y-125025981D01*
X119732828Y-124723149D01*
X120015000Y-124300850D01*
X120297172Y-124723149D01*
X120750391Y-125025981D01*
X121285000Y-125132321D01*
X121819609Y-125025981D01*
X122272828Y-124723149D01*
X122575660Y-124269930D01*
X122682000Y-123735321D01*
X122682000Y-122644679D01*
X122575660Y-122110070D01*
X122272828Y-121656851D01*
X121819609Y-121354019D01*
X121285000Y-121247679D01*
X120750391Y-121354019D01*
X120297172Y-121656851D01*
X120015000Y-122079150D01*
X119732828Y-121656851D01*
X119279609Y-121354019D01*
X118745000Y-121247679D01*
X118210391Y-121354019D01*
X117757172Y-121656851D01*
X117475000Y-122079150D01*
X117192828Y-121656851D01*
X116739609Y-121354019D01*
X116205000Y-121247679D01*
X115670391Y-121354019D01*
X115217172Y-121656851D01*
X114935000Y-122079150D01*
X114652828Y-121656851D01*
X114199609Y-121354019D01*
X113665000Y-121247679D01*
X113130391Y-121354019D01*
X112677172Y-121656851D01*
X112395000Y-122079150D01*
X112112828Y-121656851D01*
X111659609Y-121354019D01*
X111125000Y-121247679D01*
X110590391Y-121354019D01*
X110137172Y-121656851D01*
X109855000Y-122079150D01*
X109572828Y-121656851D01*
X109119609Y-121354019D01*
X108585000Y-121247679D01*
X108050391Y-121354019D01*
X107597172Y-121656851D01*
X107294340Y-122110070D01*
X107188000Y-122644679D01*
X104902000Y-122644679D01*
X104795660Y-122110070D01*
X104492828Y-121656851D01*
X104380354Y-121581698D01*
X104330500Y-121531844D01*
X104330500Y-120677328D01*
X104365821Y-120642069D01*
X104520824Y-120268782D01*
X104521176Y-119864592D01*
X104454695Y-119703694D01*
X114443226Y-119703694D01*
X114691538Y-120304655D01*
X115150927Y-120764846D01*
X115751453Y-121014206D01*
X116401694Y-121014774D01*
X117002655Y-120766462D01*
X117462846Y-120307073D01*
X117712206Y-119706547D01*
X117712208Y-119703694D01*
X124603226Y-119703694D01*
X124851538Y-120304655D01*
X125310927Y-120764846D01*
X125911453Y-121014206D01*
X126561694Y-121014774D01*
X127162655Y-120766462D01*
X127622846Y-120307073D01*
X127872206Y-119706547D01*
X127872774Y-119056306D01*
X127624462Y-118455345D01*
X127165073Y-117995154D01*
X126564547Y-117745794D01*
X125914306Y-117745226D01*
X125313345Y-117993538D01*
X124853154Y-118452927D01*
X124603794Y-119053453D01*
X124603226Y-119703694D01*
X117712208Y-119703694D01*
X117712774Y-119056306D01*
X117464462Y-118455345D01*
X117005073Y-117995154D01*
X116404547Y-117745794D01*
X115754306Y-117745226D01*
X115153345Y-117993538D01*
X114693154Y-118452927D01*
X114443794Y-119053453D01*
X114443226Y-119703694D01*
X104454695Y-119703694D01*
X104366825Y-119491034D01*
X104081269Y-119204979D01*
X103707982Y-119049976D01*
X103303792Y-119049624D01*
X102930234Y-119203975D01*
X102644179Y-119489531D01*
X102539729Y-119741073D01*
X102486228Y-119687572D01*
X102033009Y-119384740D01*
X101498400Y-119278400D01*
X90373482Y-119278400D01*
X89838873Y-119384740D01*
X89385654Y-119687572D01*
X85375226Y-123698000D01*
X18206256Y-123698000D01*
X17145000Y-122636744D01*
X17145000Y-117230163D01*
X115105443Y-117230163D01*
X115204042Y-117496965D01*
X115813582Y-117723401D01*
X116463377Y-117699341D01*
X116951958Y-117496965D01*
X117050557Y-117230163D01*
X116078000Y-116257605D01*
X115105443Y-117230163D01*
X17145000Y-117230163D01*
X17145000Y-114802015D01*
X18292641Y-114802015D01*
X18677746Y-115734041D01*
X19390208Y-116447748D01*
X20321561Y-116834479D01*
X21330015Y-116835359D01*
X22262041Y-116450254D01*
X22975748Y-115737792D01*
X23362479Y-114806439D01*
X23362482Y-114802015D01*
X33532641Y-114802015D01*
X33917746Y-115734041D01*
X34630208Y-116447748D01*
X35561561Y-116834479D01*
X36570015Y-116835359D01*
X37502041Y-116450254D01*
X38215748Y-115737792D01*
X38602479Y-114806439D01*
X38602482Y-114802015D01*
X48772641Y-114802015D01*
X49157746Y-115734041D01*
X49870208Y-116447748D01*
X50801561Y-116834479D01*
X51810015Y-116835359D01*
X52742041Y-116450254D01*
X53455748Y-115737792D01*
X53842479Y-114806439D01*
X53842482Y-114802015D01*
X64012641Y-114802015D01*
X64397746Y-115734041D01*
X65110208Y-116447748D01*
X66041561Y-116834479D01*
X67050015Y-116835359D01*
X67982041Y-116450254D01*
X68695748Y-115737792D01*
X69082479Y-114806439D01*
X69082482Y-114802015D01*
X79252641Y-114802015D01*
X79637746Y-115734041D01*
X80350208Y-116447748D01*
X81281561Y-116834479D01*
X82290015Y-116835359D01*
X83222041Y-116450254D01*
X83859825Y-115813582D01*
X114432599Y-115813582D01*
X114456659Y-116463377D01*
X114659035Y-116951958D01*
X114925837Y-117050557D01*
X115898395Y-116078000D01*
X116257605Y-116078000D01*
X117230163Y-117050557D01*
X117496965Y-116951958D01*
X117701380Y-116401694D01*
X124603226Y-116401694D01*
X124851538Y-117002655D01*
X125310927Y-117462846D01*
X125911453Y-117712206D01*
X126561694Y-117712774D01*
X127162655Y-117464462D01*
X127622846Y-117005073D01*
X127872206Y-116404547D01*
X127872774Y-115754306D01*
X127624462Y-115153345D01*
X127165073Y-114693154D01*
X126564547Y-114443794D01*
X125914306Y-114443226D01*
X125313345Y-114691538D01*
X124853154Y-115150927D01*
X124603794Y-115751453D01*
X124603226Y-116401694D01*
X117701380Y-116401694D01*
X117723401Y-116342418D01*
X117699341Y-115692623D01*
X117496965Y-115204042D01*
X117230163Y-115105443D01*
X116257605Y-116078000D01*
X115898395Y-116078000D01*
X114925837Y-115105443D01*
X114659035Y-115204042D01*
X114432599Y-115813582D01*
X83859825Y-115813582D01*
X83935748Y-115737792D01*
X84272900Y-114925837D01*
X115105443Y-114925837D01*
X116078000Y-115898395D01*
X117050557Y-114925837D01*
X116951958Y-114659035D01*
X116342418Y-114432599D01*
X115692623Y-114456659D01*
X115204042Y-114659035D01*
X115105443Y-114925837D01*
X84272900Y-114925837D01*
X84322479Y-114806439D01*
X84323359Y-113797985D01*
X83984222Y-112977208D01*
X111759824Y-112977208D01*
X111914175Y-113350766D01*
X112199731Y-113636821D01*
X112573018Y-113791824D01*
X112977208Y-113792176D01*
X113350766Y-113637825D01*
X113387154Y-113601500D01*
X114650568Y-113601500D01*
X114691538Y-113700655D01*
X115150927Y-114160846D01*
X115751453Y-114410206D01*
X116401694Y-114410774D01*
X117002655Y-114162462D01*
X117462846Y-113703073D01*
X117712206Y-113102547D01*
X117712208Y-113099694D01*
X124603226Y-113099694D01*
X124851538Y-113700655D01*
X125310927Y-114160846D01*
X125911453Y-114410206D01*
X126561694Y-114410774D01*
X127162655Y-114162462D01*
X127622846Y-113703073D01*
X127674743Y-113578089D01*
X129070743Y-113578089D01*
X129296344Y-114124086D01*
X129713717Y-114542188D01*
X129741557Y-114553748D01*
X129715914Y-114564344D01*
X129297812Y-114981717D01*
X129071258Y-115527319D01*
X129070743Y-116118089D01*
X129296344Y-116664086D01*
X129713717Y-117082188D01*
X129741557Y-117093748D01*
X129715914Y-117104344D01*
X129297812Y-117521717D01*
X129071258Y-118067319D01*
X129070743Y-118658089D01*
X129296344Y-119204086D01*
X129713717Y-119622188D01*
X129741557Y-119633748D01*
X129715914Y-119644344D01*
X129297812Y-120061717D01*
X129071258Y-120607319D01*
X129070743Y-121198089D01*
X129296344Y-121744086D01*
X129713717Y-122162188D01*
X130259319Y-122388742D01*
X130850089Y-122389257D01*
X131396086Y-122163656D01*
X131814188Y-121746283D01*
X131825748Y-121718443D01*
X131836344Y-121744086D01*
X132253717Y-122162188D01*
X132799319Y-122388742D01*
X133390089Y-122389257D01*
X133936086Y-122163656D01*
X134354188Y-121746283D01*
X134580742Y-121200681D01*
X134581257Y-120609911D01*
X134355656Y-120063914D01*
X133938283Y-119645812D01*
X133910443Y-119634252D01*
X133936086Y-119623656D01*
X134354188Y-119206283D01*
X134580742Y-118660681D01*
X134581257Y-118069911D01*
X134355656Y-117523914D01*
X133938283Y-117105812D01*
X133910443Y-117094252D01*
X133936086Y-117083656D01*
X134354188Y-116666283D01*
X134580742Y-116120681D01*
X134581257Y-115529911D01*
X134355656Y-114983914D01*
X133938283Y-114565812D01*
X133890688Y-114546049D01*
X133960353Y-114327958D01*
X133096000Y-113463605D01*
X132231647Y-114327958D01*
X132301181Y-114545640D01*
X132255914Y-114564344D01*
X131837812Y-114981717D01*
X131826252Y-115009557D01*
X131815656Y-114983914D01*
X131398283Y-114565812D01*
X131370443Y-114554252D01*
X131396086Y-114543656D01*
X131814188Y-114126283D01*
X131833951Y-114078688D01*
X132052042Y-114148353D01*
X132916395Y-113284000D01*
X133275605Y-113284000D01*
X134139958Y-114148353D01*
X134391259Y-114068080D01*
X134592718Y-113512721D01*
X134566315Y-112922542D01*
X134391259Y-112499920D01*
X134139958Y-112419647D01*
X133275605Y-113284000D01*
X132916395Y-113284000D01*
X132052042Y-112419647D01*
X131834360Y-112489181D01*
X131815656Y-112443914D01*
X131612140Y-112240042D01*
X132231647Y-112240042D01*
X133096000Y-113104395D01*
X133960353Y-112240042D01*
X133880080Y-111988741D01*
X133324721Y-111787282D01*
X132734542Y-111813685D01*
X132311920Y-111988741D01*
X132231647Y-112240042D01*
X131612140Y-112240042D01*
X131398283Y-112025812D01*
X130852681Y-111799258D01*
X130261911Y-111798743D01*
X129715914Y-112024344D01*
X129297812Y-112441717D01*
X129071258Y-112987319D01*
X129070743Y-113578089D01*
X127674743Y-113578089D01*
X127872206Y-113102547D01*
X127872774Y-112452306D01*
X127624462Y-111851345D01*
X127165073Y-111391154D01*
X126564547Y-111141794D01*
X125914306Y-111141226D01*
X125313345Y-111389538D01*
X124853154Y-111848927D01*
X124603794Y-112449453D01*
X124603226Y-113099694D01*
X117712208Y-113099694D01*
X117712774Y-112452306D01*
X117464462Y-111851345D01*
X117005073Y-111391154D01*
X116404547Y-111141794D01*
X115754306Y-111141226D01*
X115153345Y-111389538D01*
X114693154Y-111848927D01*
X114650977Y-111950500D01*
X113387528Y-111950500D01*
X113352269Y-111915179D01*
X112978982Y-111760176D01*
X112574792Y-111759824D01*
X112201234Y-111914175D01*
X111915179Y-112199731D01*
X111760176Y-112573018D01*
X111759824Y-112977208D01*
X83984222Y-112977208D01*
X83938254Y-112865959D01*
X83225792Y-112152252D01*
X82294439Y-111765521D01*
X81285985Y-111764641D01*
X80353959Y-112149746D01*
X79640252Y-112862208D01*
X79253521Y-113793561D01*
X79252641Y-114802015D01*
X69082482Y-114802015D01*
X69083359Y-113797985D01*
X68698254Y-112865959D01*
X67985792Y-112152252D01*
X67054439Y-111765521D01*
X66045985Y-111764641D01*
X65113959Y-112149746D01*
X64400252Y-112862208D01*
X64013521Y-113793561D01*
X64012641Y-114802015D01*
X53842482Y-114802015D01*
X53843359Y-113797985D01*
X53458254Y-112865959D01*
X52745792Y-112152252D01*
X51814439Y-111765521D01*
X50805985Y-111764641D01*
X49873959Y-112149746D01*
X49160252Y-112862208D01*
X48773521Y-113793561D01*
X48772641Y-114802015D01*
X38602482Y-114802015D01*
X38603359Y-113797985D01*
X38218254Y-112865959D01*
X37505792Y-112152252D01*
X36574439Y-111765521D01*
X35565985Y-111764641D01*
X34633959Y-112149746D01*
X33920252Y-112862208D01*
X33533521Y-113793561D01*
X33532641Y-114802015D01*
X23362482Y-114802015D01*
X23363359Y-113797985D01*
X22978254Y-112865959D01*
X22265792Y-112152252D01*
X21334439Y-111765521D01*
X20325985Y-111764641D01*
X19393959Y-112149746D01*
X18680252Y-112862208D01*
X18293521Y-113793561D01*
X18292641Y-114802015D01*
X17145000Y-114802015D01*
X17145000Y-109797694D01*
X114443226Y-109797694D01*
X114691538Y-110398655D01*
X115150927Y-110858846D01*
X115751453Y-111108206D01*
X116401694Y-111108774D01*
X117002655Y-110860462D01*
X117462846Y-110401073D01*
X117712206Y-109800547D01*
X117712208Y-109797694D01*
X124603226Y-109797694D01*
X124851538Y-110398655D01*
X125310927Y-110858846D01*
X125911453Y-111108206D01*
X126561694Y-111108774D01*
X127162655Y-110860462D01*
X127622846Y-110401073D01*
X127872206Y-109800547D01*
X127872774Y-109150306D01*
X127624462Y-108549345D01*
X127165073Y-108089154D01*
X126564547Y-107839794D01*
X125914306Y-107839226D01*
X125313345Y-108087538D01*
X124853154Y-108546927D01*
X124603794Y-109147453D01*
X124603226Y-109797694D01*
X117712208Y-109797694D01*
X117712774Y-109150306D01*
X117464462Y-108549345D01*
X117005073Y-108089154D01*
X116404547Y-107839794D01*
X115754306Y-107839226D01*
X115153345Y-108087538D01*
X114693154Y-108546927D01*
X114443794Y-109147453D01*
X114443226Y-109797694D01*
X17145000Y-109797694D01*
X17145000Y-105940661D01*
X117220758Y-105940661D01*
X117432990Y-106454303D01*
X117825630Y-106847629D01*
X118338900Y-107060757D01*
X118894661Y-107061242D01*
X119408303Y-106849010D01*
X119801629Y-106456370D01*
X119887949Y-106248488D01*
X119972990Y-106454303D01*
X120365630Y-106847629D01*
X120878900Y-107060757D01*
X121434661Y-107061242D01*
X121948303Y-106849010D01*
X122341629Y-106456370D01*
X122427949Y-106248488D01*
X122512990Y-106454303D01*
X122905630Y-106847629D01*
X123418900Y-107060757D01*
X123974661Y-107061242D01*
X124488303Y-106849010D01*
X124881629Y-106456370D01*
X125094757Y-105943100D01*
X125095242Y-105387339D01*
X124894705Y-104902000D01*
X146652655Y-104902000D01*
X146778330Y-105533810D01*
X147136222Y-106069433D01*
X147671845Y-106427325D01*
X148303655Y-106553000D01*
X148368345Y-106553000D01*
X149000155Y-106427325D01*
X149535778Y-106069433D01*
X149893670Y-105533810D01*
X150019345Y-104902000D01*
X149893670Y-104270190D01*
X149669034Y-103933999D01*
X149711698Y-103916327D01*
X149890327Y-103737699D01*
X149987000Y-103504310D01*
X149987000Y-102647750D01*
X149828250Y-102489000D01*
X148463000Y-102489000D01*
X148463000Y-102509000D01*
X148209000Y-102509000D01*
X148209000Y-102489000D01*
X146843750Y-102489000D01*
X146685000Y-102647750D01*
X146685000Y-103504310D01*
X146781673Y-103737699D01*
X146960302Y-103916327D01*
X147002966Y-103933999D01*
X146778330Y-104270190D01*
X146652655Y-104902000D01*
X124894705Y-104902000D01*
X124883010Y-104873697D01*
X124490370Y-104480371D01*
X123977100Y-104267243D01*
X123421339Y-104266758D01*
X122907697Y-104478990D01*
X122514371Y-104871630D01*
X122428051Y-105079512D01*
X122343010Y-104873697D01*
X121950370Y-104480371D01*
X121437100Y-104267243D01*
X120881339Y-104266758D01*
X120367697Y-104478990D01*
X119974371Y-104871630D01*
X119888051Y-105079512D01*
X119803010Y-104873697D01*
X119410370Y-104480371D01*
X118897100Y-104267243D01*
X118341339Y-104266758D01*
X117827697Y-104478990D01*
X117434371Y-104871630D01*
X117221243Y-105384900D01*
X117220758Y-105940661D01*
X17145000Y-105940661D01*
X17145000Y-104646008D01*
X105714624Y-104646008D01*
X105868975Y-105019566D01*
X106154531Y-105305621D01*
X106527818Y-105460624D01*
X106932008Y-105460976D01*
X107305566Y-105306625D01*
X107341954Y-105270300D01*
X110103624Y-105270300D01*
X110134294Y-105301024D01*
X110507581Y-105456027D01*
X110911771Y-105456379D01*
X111285329Y-105302028D01*
X111571384Y-105016472D01*
X111726387Y-104643185D01*
X111726739Y-104238995D01*
X111572388Y-103865437D01*
X111286832Y-103579382D01*
X110913545Y-103424379D01*
X110509355Y-103424027D01*
X110135797Y-103578378D01*
X110094803Y-103619300D01*
X107342328Y-103619300D01*
X107307069Y-103583979D01*
X106933782Y-103428976D01*
X106529592Y-103428624D01*
X106156034Y-103582975D01*
X105869979Y-103868531D01*
X105714976Y-104241818D01*
X105714624Y-104646008D01*
X17145000Y-104646008D01*
X17145000Y-104369754D01*
X60194019Y-104369754D01*
X60728628Y-104263414D01*
X61181847Y-103960582D01*
X61947828Y-103194601D01*
X62250660Y-102741382D01*
X62357000Y-102206773D01*
X62357000Y-97663000D01*
X62523370Y-97663000D01*
X62523370Y-98563430D01*
X62684982Y-99121906D01*
X63048011Y-99576024D01*
X63557190Y-99856649D01*
X63651168Y-99877540D01*
X63881000Y-99756214D01*
X63881000Y-97663000D01*
X62523370Y-97663000D01*
X62357000Y-97663000D01*
X62357000Y-96508570D01*
X62523370Y-96508570D01*
X62523370Y-97409000D01*
X63881000Y-97409000D01*
X63881000Y-95315786D01*
X64135000Y-95315786D01*
X64135000Y-97409000D01*
X64155000Y-97409000D01*
X64155000Y-97663000D01*
X64135000Y-97663000D01*
X64135000Y-99756214D01*
X64364832Y-99877540D01*
X64458810Y-99856649D01*
X64967989Y-99576024D01*
X65272484Y-99195127D01*
X65498208Y-99532948D01*
X65979857Y-99854775D01*
X66548000Y-99967786D01*
X67116143Y-99854775D01*
X67597792Y-99532948D01*
X67818000Y-99203383D01*
X68038208Y-99532948D01*
X68519857Y-99854775D01*
X69088000Y-99967786D01*
X69656143Y-99854775D01*
X70137792Y-99532948D01*
X70459619Y-99051299D01*
X70572630Y-98483156D01*
X70572630Y-97663000D01*
X77763370Y-97663000D01*
X77763370Y-98563430D01*
X77924982Y-99121906D01*
X78288011Y-99576024D01*
X78797190Y-99856649D01*
X78891168Y-99877540D01*
X79121000Y-99756214D01*
X79121000Y-97663000D01*
X77763370Y-97663000D01*
X70572630Y-97663000D01*
X70572630Y-96588844D01*
X70556663Y-96508570D01*
X77763370Y-96508570D01*
X77763370Y-97409000D01*
X79121000Y-97409000D01*
X79121000Y-95315786D01*
X79375000Y-95315786D01*
X79375000Y-97409000D01*
X79395000Y-97409000D01*
X79395000Y-97663000D01*
X79375000Y-97663000D01*
X79375000Y-99756214D01*
X79604832Y-99877540D01*
X79698810Y-99856649D01*
X80207989Y-99576024D01*
X80512484Y-99195127D01*
X80738208Y-99532948D01*
X81219857Y-99854775D01*
X81788000Y-99967786D01*
X82356143Y-99854775D01*
X82837792Y-99532948D01*
X83058000Y-99203383D01*
X83278208Y-99532948D01*
X83759857Y-99854775D01*
X84328000Y-99967786D01*
X84896143Y-99854775D01*
X85377792Y-99532948D01*
X85699619Y-99051299D01*
X85812630Y-98483156D01*
X85812630Y-96588844D01*
X85699619Y-96020701D01*
X85624588Y-95908408D01*
X127558624Y-95908408D01*
X127712975Y-96281966D01*
X127749300Y-96318354D01*
X127749300Y-99769272D01*
X127713979Y-99804531D01*
X127558976Y-100177818D01*
X127558624Y-100582008D01*
X127712975Y-100955566D01*
X127998531Y-101241621D01*
X128371818Y-101396624D01*
X128776008Y-101396976D01*
X129031164Y-101291548D01*
X129368311Y-101431544D01*
X129772501Y-101431896D01*
X130146059Y-101277545D01*
X130204015Y-101219690D01*
X146685000Y-101219690D01*
X146685000Y-102076250D01*
X146843750Y-102235000D01*
X148209000Y-102235000D01*
X148209000Y-100869750D01*
X148463000Y-100869750D01*
X148463000Y-102235000D01*
X149828250Y-102235000D01*
X149987000Y-102076250D01*
X149987000Y-101219690D01*
X149890327Y-100986301D01*
X149711698Y-100807673D01*
X149478309Y-100711000D01*
X148621750Y-100711000D01*
X148463000Y-100869750D01*
X148209000Y-100869750D01*
X148050250Y-100711000D01*
X147193691Y-100711000D01*
X146960302Y-100807673D01*
X146781673Y-100986301D01*
X146685000Y-101219690D01*
X130204015Y-101219690D01*
X130432114Y-100991989D01*
X130587117Y-100618702D01*
X130587469Y-100214512D01*
X130433118Y-99840954D01*
X130365500Y-99773218D01*
X130365500Y-97538000D01*
X145912560Y-97538000D01*
X145912560Y-99058000D01*
X145956838Y-99293317D01*
X146095910Y-99509441D01*
X146308110Y-99654431D01*
X146560000Y-99705440D01*
X148080000Y-99705440D01*
X148315317Y-99661162D01*
X148531441Y-99522090D01*
X148676431Y-99309890D01*
X148713969Y-99124520D01*
X149068764Y-99479934D01*
X149581300Y-99692758D01*
X150136265Y-99693242D01*
X150649172Y-99481313D01*
X150854078Y-99276764D01*
X151600841Y-99276764D01*
X151670059Y-99518742D01*
X152192780Y-99705155D01*
X152747049Y-99677341D01*
X153129941Y-99518742D01*
X153199159Y-99276764D01*
X152400000Y-98477605D01*
X151600841Y-99276764D01*
X150854078Y-99276764D01*
X151041934Y-99089236D01*
X151123391Y-98893066D01*
X151179258Y-99027941D01*
X151421236Y-99097159D01*
X152220395Y-98298000D01*
X151421236Y-97498841D01*
X151179258Y-97568059D01*
X151127618Y-97712862D01*
X151043313Y-97508828D01*
X150854052Y-97319236D01*
X151600841Y-97319236D01*
X152400000Y-98118395D01*
X153199159Y-97319236D01*
X153129941Y-97077258D01*
X152607220Y-96890845D01*
X152052951Y-96918659D01*
X151670059Y-97077258D01*
X151600841Y-97319236D01*
X150854052Y-97319236D01*
X150651236Y-97116066D01*
X150138700Y-96903242D01*
X149583735Y-96902758D01*
X149070828Y-97114687D01*
X148714684Y-97470210D01*
X148683162Y-97302683D01*
X148544090Y-97086559D01*
X148331890Y-96941569D01*
X148080000Y-96890560D01*
X146560000Y-96890560D01*
X146324683Y-96934838D01*
X146108559Y-97073910D01*
X145963569Y-97286110D01*
X145912560Y-97538000D01*
X130365500Y-97538000D01*
X130365500Y-96344128D01*
X130400821Y-96308869D01*
X130555824Y-95935582D01*
X130556176Y-95531392D01*
X130468705Y-95319694D01*
X132731226Y-95319694D01*
X132979538Y-95920655D01*
X133438927Y-96380846D01*
X134039453Y-96630206D01*
X134689694Y-96630774D01*
X135290655Y-96382462D01*
X135750846Y-95923073D01*
X136000206Y-95322547D01*
X136000208Y-95319694D01*
X142891226Y-95319694D01*
X143139538Y-95920655D01*
X143598927Y-96380846D01*
X144199453Y-96630206D01*
X144849694Y-96630774D01*
X145450655Y-96382462D01*
X145910846Y-95923073D01*
X146160206Y-95322547D01*
X146160774Y-94672306D01*
X145912462Y-94071345D01*
X145453073Y-93611154D01*
X144852547Y-93361794D01*
X144202306Y-93361226D01*
X143601345Y-93609538D01*
X143141154Y-94068927D01*
X142891794Y-94669453D01*
X142891226Y-95319694D01*
X136000208Y-95319694D01*
X136000774Y-94672306D01*
X135752462Y-94071345D01*
X135293073Y-93611154D01*
X134692547Y-93361794D01*
X134042306Y-93361226D01*
X133441345Y-93609538D01*
X132981154Y-94068927D01*
X132731794Y-94669453D01*
X132731226Y-95319694D01*
X130468705Y-95319694D01*
X130401825Y-95157834D01*
X130116269Y-94871779D01*
X129742982Y-94716776D01*
X129338792Y-94716424D01*
X129087830Y-94820120D01*
X128777782Y-94691376D01*
X128373592Y-94691024D01*
X128000034Y-94845375D01*
X127713979Y-95130931D01*
X127558976Y-95504218D01*
X127558624Y-95908408D01*
X85624588Y-95908408D01*
X85377792Y-95539052D01*
X84896143Y-95217225D01*
X84328000Y-95104214D01*
X83759857Y-95217225D01*
X83278208Y-95539052D01*
X83058000Y-95868617D01*
X82837792Y-95539052D01*
X82356143Y-95217225D01*
X81788000Y-95104214D01*
X81219857Y-95217225D01*
X80738208Y-95539052D01*
X80512484Y-95876873D01*
X80207989Y-95495976D01*
X79698810Y-95215351D01*
X79604832Y-95194460D01*
X79375000Y-95315786D01*
X79121000Y-95315786D01*
X78891168Y-95194460D01*
X78797190Y-95215351D01*
X78288011Y-95495976D01*
X77924982Y-95950094D01*
X77763370Y-96508570D01*
X70556663Y-96508570D01*
X70459619Y-96020701D01*
X70137792Y-95539052D01*
X69656143Y-95217225D01*
X69088000Y-95104214D01*
X68519857Y-95217225D01*
X68038208Y-95539052D01*
X67818000Y-95868617D01*
X67597792Y-95539052D01*
X67116143Y-95217225D01*
X66548000Y-95104214D01*
X65979857Y-95217225D01*
X65498208Y-95539052D01*
X65272484Y-95876873D01*
X64967989Y-95495976D01*
X64458810Y-95215351D01*
X64364832Y-95194460D01*
X64135000Y-95315786D01*
X63881000Y-95315786D01*
X63651168Y-95194460D01*
X63557190Y-95215351D01*
X63048011Y-95495976D01*
X62684982Y-95950094D01*
X62523370Y-96508570D01*
X62357000Y-96508570D01*
X62357000Y-94645323D01*
X62406061Y-94573520D01*
X62457070Y-94321630D01*
X62457070Y-93766016D01*
X69635112Y-93766016D01*
X69860658Y-94311877D01*
X70277926Y-94729874D01*
X70823393Y-94956372D01*
X71414016Y-94956888D01*
X71959877Y-94731342D01*
X72377874Y-94314074D01*
X72425983Y-94198213D01*
X100037392Y-94198213D01*
X100106857Y-94440397D01*
X100630302Y-94627144D01*
X101185368Y-94599362D01*
X101569143Y-94440397D01*
X101638608Y-94198213D01*
X100838000Y-93397605D01*
X100037392Y-94198213D01*
X72425983Y-94198213D01*
X72604372Y-93768607D01*
X72604888Y-93177984D01*
X72535603Y-93010302D01*
X99428856Y-93010302D01*
X99456638Y-93565368D01*
X99615603Y-93949143D01*
X99857787Y-94018608D01*
X100658395Y-93218000D01*
X101017605Y-93218000D01*
X101818213Y-94018608D01*
X102060397Y-93949143D01*
X102110509Y-93808682D01*
X102192990Y-94008303D01*
X102585630Y-94401629D01*
X103098900Y-94614757D01*
X103654661Y-94615242D01*
X104168303Y-94403010D01*
X104561629Y-94010370D01*
X104647949Y-93802488D01*
X104732990Y-94008303D01*
X105125630Y-94401629D01*
X105638900Y-94614757D01*
X106194661Y-94615242D01*
X106708303Y-94403010D01*
X106888013Y-94223613D01*
X107911392Y-94223613D01*
X107980857Y-94465797D01*
X108504302Y-94652544D01*
X109059368Y-94624762D01*
X109443143Y-94465797D01*
X109512608Y-94223613D01*
X108712000Y-93423005D01*
X107911392Y-94223613D01*
X106888013Y-94223613D01*
X107101629Y-94010370D01*
X107314757Y-93497100D01*
X107314949Y-93277308D01*
X107330638Y-93590768D01*
X107489603Y-93974543D01*
X107731787Y-94044008D01*
X108532395Y-93243400D01*
X107731787Y-92442792D01*
X107489603Y-92512257D01*
X107315190Y-93001131D01*
X107315242Y-92941339D01*
X107103010Y-92427697D01*
X106710370Y-92034371D01*
X106197100Y-91821243D01*
X105641339Y-91820758D01*
X105127697Y-92032990D01*
X104734371Y-92425630D01*
X104648051Y-92633512D01*
X104563010Y-92427697D01*
X104170370Y-92034371D01*
X103657100Y-91821243D01*
X103101339Y-91820758D01*
X102587697Y-92032990D01*
X102194371Y-92425630D01*
X102114605Y-92617727D01*
X102060397Y-92486857D01*
X101818213Y-92417392D01*
X101017605Y-93218000D01*
X100658395Y-93218000D01*
X99857787Y-92417392D01*
X99615603Y-92486857D01*
X99428856Y-93010302D01*
X72535603Y-93010302D01*
X72379342Y-92632123D01*
X71985694Y-92237787D01*
X100037392Y-92237787D01*
X100838000Y-93038395D01*
X101638608Y-92237787D01*
X101569143Y-91995603D01*
X101045698Y-91808856D01*
X100490632Y-91836638D01*
X100106857Y-91995603D01*
X100037392Y-92237787D01*
X71985694Y-92237787D01*
X71962074Y-92214126D01*
X71416607Y-91987628D01*
X70825984Y-91987112D01*
X70280123Y-92212658D01*
X69862126Y-92629926D01*
X69635628Y-93175393D01*
X69635112Y-93766016D01*
X62457070Y-93766016D01*
X62457070Y-92622370D01*
X62412792Y-92387053D01*
X62273720Y-92170929D01*
X62061520Y-92025939D01*
X61809630Y-91974930D01*
X60110370Y-91974930D01*
X59875053Y-92019208D01*
X59658929Y-92158280D01*
X59513939Y-92370480D01*
X59462930Y-92622370D01*
X59462930Y-94321630D01*
X59507208Y-94556947D01*
X59563000Y-94643650D01*
X59563000Y-101575754D01*
X44602400Y-101575754D01*
X44602400Y-97663000D01*
X47283370Y-97663000D01*
X47283370Y-98563430D01*
X47444982Y-99121906D01*
X47808011Y-99576024D01*
X48317190Y-99856649D01*
X48411168Y-99877540D01*
X48641000Y-99756214D01*
X48641000Y-97663000D01*
X47283370Y-97663000D01*
X44602400Y-97663000D01*
X44602400Y-96508570D01*
X47283370Y-96508570D01*
X47283370Y-97409000D01*
X48641000Y-97409000D01*
X48641000Y-95315786D01*
X48895000Y-95315786D01*
X48895000Y-97409000D01*
X48915000Y-97409000D01*
X48915000Y-97663000D01*
X48895000Y-97663000D01*
X48895000Y-99756214D01*
X49124832Y-99877540D01*
X49218810Y-99856649D01*
X49727989Y-99576024D01*
X50032484Y-99195127D01*
X50258208Y-99532948D01*
X50739857Y-99854775D01*
X51308000Y-99967786D01*
X51876143Y-99854775D01*
X52357792Y-99532948D01*
X52578000Y-99203383D01*
X52798208Y-99532948D01*
X53279857Y-99854775D01*
X53848000Y-99967786D01*
X54416143Y-99854775D01*
X54897792Y-99532948D01*
X55219619Y-99051299D01*
X55332630Y-98483156D01*
X55332630Y-96588844D01*
X55219619Y-96020701D01*
X54897792Y-95539052D01*
X54416143Y-95217225D01*
X53848000Y-95104214D01*
X53279857Y-95217225D01*
X52798208Y-95539052D01*
X52578000Y-95868617D01*
X52357792Y-95539052D01*
X51876143Y-95217225D01*
X51308000Y-95104214D01*
X50739857Y-95217225D01*
X50258208Y-95539052D01*
X50032484Y-95876873D01*
X49727989Y-95495976D01*
X49218810Y-95215351D01*
X49124832Y-95194460D01*
X48895000Y-95315786D01*
X48641000Y-95315786D01*
X48411168Y-95194460D01*
X48317190Y-95215351D01*
X47808011Y-95495976D01*
X47444982Y-95950094D01*
X47283370Y-96508570D01*
X44602400Y-96508570D01*
X44602400Y-94866460D01*
X45055197Y-94866460D01*
X45127000Y-94915521D01*
X45378890Y-94966530D01*
X47078150Y-94966530D01*
X47313467Y-94922252D01*
X47529591Y-94783180D01*
X47674581Y-94570980D01*
X47725590Y-94319090D01*
X47725590Y-93763476D01*
X54903632Y-93763476D01*
X55129178Y-94309337D01*
X55546446Y-94727334D01*
X56091913Y-94953832D01*
X56682536Y-94954348D01*
X57228397Y-94728802D01*
X57646394Y-94311534D01*
X57872892Y-93766067D01*
X57873408Y-93175444D01*
X57647862Y-92629583D01*
X57230594Y-92211586D01*
X56685127Y-91985088D01*
X56094504Y-91984572D01*
X55548643Y-92210118D01*
X55130646Y-92627386D01*
X54904148Y-93172853D01*
X54903632Y-93763476D01*
X47725590Y-93763476D01*
X47725590Y-92619830D01*
X47681312Y-92384513D01*
X47542240Y-92168389D01*
X47330040Y-92023399D01*
X47078150Y-91972390D01*
X45378890Y-91972390D01*
X45143573Y-92016668D01*
X45056870Y-92072460D01*
X43854890Y-92072460D01*
X43320281Y-92178800D01*
X43008609Y-92387053D01*
X42867062Y-92481632D01*
X42497755Y-92850939D01*
X42407342Y-92632123D01*
X41990074Y-92214126D01*
X41444607Y-91987628D01*
X40853984Y-91987112D01*
X40308123Y-92212658D01*
X39890126Y-92629926D01*
X39663628Y-93175393D01*
X39663112Y-93766016D01*
X39888658Y-94311877D01*
X40305926Y-94729874D01*
X40851393Y-94956372D01*
X41442016Y-94956888D01*
X41808400Y-94805501D01*
X41808400Y-101575754D01*
X29514800Y-101575754D01*
X29514800Y-97663000D01*
X32043370Y-97663000D01*
X32043370Y-98563430D01*
X32204982Y-99121906D01*
X32568011Y-99576024D01*
X33077190Y-99856649D01*
X33171168Y-99877540D01*
X33401000Y-99756214D01*
X33401000Y-97663000D01*
X32043370Y-97663000D01*
X29514800Y-97663000D01*
X29514800Y-96508570D01*
X32043370Y-96508570D01*
X32043370Y-97409000D01*
X33401000Y-97409000D01*
X33401000Y-95315786D01*
X33655000Y-95315786D01*
X33655000Y-97409000D01*
X33675000Y-97409000D01*
X33675000Y-97663000D01*
X33655000Y-97663000D01*
X33655000Y-99756214D01*
X33884832Y-99877540D01*
X33978810Y-99856649D01*
X34487989Y-99576024D01*
X34792484Y-99195127D01*
X35018208Y-99532948D01*
X35499857Y-99854775D01*
X36068000Y-99967786D01*
X36636143Y-99854775D01*
X37117792Y-99532948D01*
X37338000Y-99203383D01*
X37558208Y-99532948D01*
X38039857Y-99854775D01*
X38608000Y-99967786D01*
X39176143Y-99854775D01*
X39657792Y-99532948D01*
X39979619Y-99051299D01*
X40092630Y-98483156D01*
X40092630Y-96588844D01*
X39979619Y-96020701D01*
X39657792Y-95539052D01*
X39176143Y-95217225D01*
X38608000Y-95104214D01*
X38039857Y-95217225D01*
X37558208Y-95539052D01*
X37338000Y-95868617D01*
X37117792Y-95539052D01*
X36636143Y-95217225D01*
X36068000Y-95104214D01*
X35499857Y-95217225D01*
X35018208Y-95539052D01*
X34792484Y-95876873D01*
X34487989Y-95495976D01*
X33978810Y-95215351D01*
X33884832Y-95194460D01*
X33655000Y-95315786D01*
X33401000Y-95315786D01*
X33171168Y-95194460D01*
X33077190Y-95215351D01*
X32568011Y-95495976D01*
X32204982Y-95950094D01*
X32043370Y-96508570D01*
X29514800Y-96508570D01*
X29514800Y-94869000D01*
X29814677Y-94869000D01*
X29886480Y-94918061D01*
X30138370Y-94969070D01*
X31837630Y-94969070D01*
X32072947Y-94924792D01*
X32289071Y-94785720D01*
X32434061Y-94573520D01*
X32485070Y-94321630D01*
X32485070Y-92622370D01*
X32440792Y-92387053D01*
X32301720Y-92170929D01*
X32089520Y-92025939D01*
X31837630Y-91974930D01*
X30138370Y-91974930D01*
X29903053Y-92019208D01*
X29816350Y-92075000D01*
X28614370Y-92075000D01*
X28079761Y-92181340D01*
X27626542Y-92484172D01*
X27258346Y-92852368D01*
X27167342Y-92632123D01*
X26750074Y-92214126D01*
X26204607Y-91987628D01*
X25613984Y-91987112D01*
X25068123Y-92212658D01*
X24650126Y-92629926D01*
X24423628Y-93175393D01*
X24423112Y-93766016D01*
X24648658Y-94311877D01*
X25065926Y-94729874D01*
X25611393Y-94956372D01*
X26202016Y-94956888D01*
X26720800Y-94742530D01*
X26720800Y-101575754D01*
X17145000Y-101575754D01*
X17145000Y-99347093D01*
X17328011Y-99576024D01*
X17837190Y-99856649D01*
X17931168Y-99877540D01*
X18161000Y-99756214D01*
X18161000Y-97663000D01*
X18141000Y-97663000D01*
X18141000Y-97409000D01*
X18161000Y-97409000D01*
X18161000Y-95315786D01*
X18415000Y-95315786D01*
X18415000Y-97409000D01*
X18435000Y-97409000D01*
X18435000Y-97663000D01*
X18415000Y-97663000D01*
X18415000Y-99756214D01*
X18644832Y-99877540D01*
X18738810Y-99856649D01*
X19247989Y-99576024D01*
X19552484Y-99195127D01*
X19778208Y-99532948D01*
X20259857Y-99854775D01*
X20828000Y-99967786D01*
X21396143Y-99854775D01*
X21877792Y-99532948D01*
X22098000Y-99203383D01*
X22318208Y-99532948D01*
X22799857Y-99854775D01*
X23368000Y-99967786D01*
X23936143Y-99854775D01*
X24417792Y-99532948D01*
X24739619Y-99051299D01*
X24852630Y-98483156D01*
X24852630Y-96588844D01*
X24739619Y-96020701D01*
X24417792Y-95539052D01*
X23936143Y-95217225D01*
X23368000Y-95104214D01*
X22799857Y-95217225D01*
X22318208Y-95539052D01*
X22098000Y-95868617D01*
X21877792Y-95539052D01*
X21396143Y-95217225D01*
X20828000Y-95104214D01*
X20259857Y-95217225D01*
X19778208Y-95539052D01*
X19552484Y-95876873D01*
X19247989Y-95495976D01*
X18738810Y-95215351D01*
X18644832Y-95194460D01*
X18415000Y-95315786D01*
X18161000Y-95315786D01*
X17931168Y-95194460D01*
X17837190Y-95215351D01*
X17328011Y-95495976D01*
X17145000Y-95724907D01*
X17145000Y-94645323D01*
X17194061Y-94573520D01*
X17245070Y-94321630D01*
X17245070Y-92622370D01*
X17200792Y-92387053D01*
X17061720Y-92170929D01*
X16849520Y-92025939D01*
X16597630Y-91974930D01*
X14898370Y-91974930D01*
X14680000Y-92016019D01*
X14680000Y-89798163D01*
X82085443Y-89798163D01*
X82184042Y-90064965D01*
X82793582Y-90291401D01*
X83443377Y-90267341D01*
X83931958Y-90064965D01*
X84030557Y-89798163D01*
X85387443Y-89798163D01*
X85486042Y-90064965D01*
X86095582Y-90291401D01*
X86745377Y-90267341D01*
X87233958Y-90064965D01*
X87332557Y-89798163D01*
X86360000Y-88825605D01*
X85387443Y-89798163D01*
X84030557Y-89798163D01*
X83058000Y-88825605D01*
X82085443Y-89798163D01*
X14680000Y-89798163D01*
X14680000Y-87234000D01*
X18046560Y-87234000D01*
X18046560Y-88534000D01*
X18090838Y-88769317D01*
X18229910Y-88985441D01*
X18442110Y-89130431D01*
X18694000Y-89181440D01*
X19994000Y-89181440D01*
X20229317Y-89137162D01*
X20445441Y-88998090D01*
X20590431Y-88785890D01*
X20641440Y-88534000D01*
X20641440Y-88338540D01*
X20753995Y-88610943D01*
X21115155Y-88972735D01*
X21587276Y-89168777D01*
X22098481Y-89169223D01*
X22570943Y-88974005D01*
X22932735Y-88612845D01*
X23128777Y-88140724D01*
X23129223Y-87629519D01*
X22965798Y-87234000D01*
X33286560Y-87234000D01*
X33286560Y-88534000D01*
X33330838Y-88769317D01*
X33469910Y-88985441D01*
X33682110Y-89130431D01*
X33934000Y-89181440D01*
X35234000Y-89181440D01*
X35469317Y-89137162D01*
X35685441Y-88998090D01*
X35830431Y-88785890D01*
X35881440Y-88534000D01*
X35881440Y-88338540D01*
X35993995Y-88610943D01*
X36355155Y-88972735D01*
X36827276Y-89168777D01*
X37338481Y-89169223D01*
X37810943Y-88974005D01*
X38172735Y-88612845D01*
X38368777Y-88140724D01*
X38369223Y-87629519D01*
X38205798Y-87234000D01*
X48486560Y-87234000D01*
X48486560Y-88534000D01*
X48530838Y-88769317D01*
X48669910Y-88985441D01*
X48882110Y-89130431D01*
X49134000Y-89181440D01*
X50434000Y-89181440D01*
X50669317Y-89137162D01*
X50885441Y-88998090D01*
X51030431Y-88785890D01*
X51081440Y-88534000D01*
X51081440Y-88338540D01*
X51193995Y-88610943D01*
X51555155Y-88972735D01*
X52027276Y-89168777D01*
X52538481Y-89169223D01*
X53010943Y-88974005D01*
X53372735Y-88612845D01*
X53568777Y-88140724D01*
X53569223Y-87629519D01*
X53405798Y-87234000D01*
X63726560Y-87234000D01*
X63726560Y-88534000D01*
X63770838Y-88769317D01*
X63909910Y-88985441D01*
X64122110Y-89130431D01*
X64374000Y-89181440D01*
X65674000Y-89181440D01*
X65909317Y-89137162D01*
X66125441Y-88998090D01*
X66270431Y-88785890D01*
X66321440Y-88534000D01*
X66321440Y-88338540D01*
X66433995Y-88610943D01*
X66795155Y-88972735D01*
X67267276Y-89168777D01*
X67778481Y-89169223D01*
X68250943Y-88974005D01*
X68612735Y-88612845D01*
X68708763Y-88381582D01*
X81412599Y-88381582D01*
X81436659Y-89031377D01*
X81639035Y-89519958D01*
X81905837Y-89618557D01*
X82878395Y-88646000D01*
X83237605Y-88646000D01*
X84210163Y-89618557D01*
X84476965Y-89519958D01*
X84703401Y-88910418D01*
X84683820Y-88381582D01*
X84714599Y-88381582D01*
X84738659Y-89031377D01*
X84941035Y-89519958D01*
X85207837Y-89618557D01*
X86180395Y-88646000D01*
X86539605Y-88646000D01*
X87512163Y-89618557D01*
X87778965Y-89519958D01*
X88005401Y-88910418D01*
X87985820Y-88381582D01*
X88016599Y-88381582D01*
X88040659Y-89031377D01*
X88243035Y-89519958D01*
X88509837Y-89618557D01*
X89482395Y-88646000D01*
X88509837Y-87673443D01*
X88243035Y-87772042D01*
X88016599Y-88381582D01*
X87985820Y-88381582D01*
X87981341Y-88260623D01*
X87778965Y-87772042D01*
X87512163Y-87673443D01*
X86539605Y-88646000D01*
X86180395Y-88646000D01*
X85207837Y-87673443D01*
X84941035Y-87772042D01*
X84714599Y-88381582D01*
X84683820Y-88381582D01*
X84679341Y-88260623D01*
X84476965Y-87772042D01*
X84210163Y-87673443D01*
X83237605Y-88646000D01*
X82878395Y-88646000D01*
X81905837Y-87673443D01*
X81639035Y-87772042D01*
X81412599Y-88381582D01*
X68708763Y-88381582D01*
X68808777Y-88140724D01*
X68809223Y-87629519D01*
X68753161Y-87493837D01*
X82085443Y-87493837D01*
X83058000Y-88466395D01*
X84030557Y-87493837D01*
X85387443Y-87493837D01*
X86360000Y-88466395D01*
X87332557Y-87493837D01*
X87233958Y-87227035D01*
X86624418Y-87000599D01*
X85974623Y-87024659D01*
X85486042Y-87227035D01*
X85387443Y-87493837D01*
X84030557Y-87493837D01*
X83931958Y-87227035D01*
X83322418Y-87000599D01*
X82672623Y-87024659D01*
X82184042Y-87227035D01*
X82085443Y-87493837D01*
X68753161Y-87493837D01*
X68614005Y-87157057D01*
X68252845Y-86795265D01*
X67780724Y-86599223D01*
X67269519Y-86598777D01*
X66797057Y-86793995D01*
X66435265Y-87155155D01*
X66321440Y-87429276D01*
X66321440Y-87234000D01*
X66277162Y-86998683D01*
X66138090Y-86782559D01*
X65925890Y-86637569D01*
X65674000Y-86586560D01*
X64374000Y-86586560D01*
X64138683Y-86630838D01*
X63922559Y-86769910D01*
X63777569Y-86982110D01*
X63726560Y-87234000D01*
X53405798Y-87234000D01*
X53374005Y-87157057D01*
X53012845Y-86795265D01*
X52540724Y-86599223D01*
X52029519Y-86598777D01*
X51557057Y-86793995D01*
X51195265Y-87155155D01*
X51081440Y-87429276D01*
X51081440Y-87234000D01*
X51037162Y-86998683D01*
X50898090Y-86782559D01*
X50685890Y-86637569D01*
X50434000Y-86586560D01*
X49134000Y-86586560D01*
X48898683Y-86630838D01*
X48682559Y-86769910D01*
X48537569Y-86982110D01*
X48486560Y-87234000D01*
X38205798Y-87234000D01*
X38174005Y-87157057D01*
X37812845Y-86795265D01*
X37340724Y-86599223D01*
X36829519Y-86598777D01*
X36357057Y-86793995D01*
X35995265Y-87155155D01*
X35881440Y-87429276D01*
X35881440Y-87234000D01*
X35837162Y-86998683D01*
X35698090Y-86782559D01*
X35485890Y-86637569D01*
X35234000Y-86586560D01*
X33934000Y-86586560D01*
X33698683Y-86630838D01*
X33482559Y-86769910D01*
X33337569Y-86982110D01*
X33286560Y-87234000D01*
X22965798Y-87234000D01*
X22934005Y-87157057D01*
X22572845Y-86795265D01*
X22100724Y-86599223D01*
X21589519Y-86598777D01*
X21117057Y-86793995D01*
X20755265Y-87155155D01*
X20641440Y-87429276D01*
X20641440Y-87234000D01*
X20597162Y-86998683D01*
X20458090Y-86782559D01*
X20245890Y-86637569D01*
X19994000Y-86586560D01*
X18694000Y-86586560D01*
X18458683Y-86630838D01*
X18242559Y-86769910D01*
X18097569Y-86982110D01*
X18046560Y-87234000D01*
X14680000Y-87234000D01*
X14680000Y-78809694D01*
X81423226Y-78809694D01*
X81671538Y-79410655D01*
X82130927Y-79870846D01*
X82731453Y-80120206D01*
X83381694Y-80120774D01*
X83483341Y-80078775D01*
X84058220Y-80653654D01*
X84326031Y-80832600D01*
X84641937Y-80895437D01*
X86671230Y-80895437D01*
X86706489Y-80930758D01*
X87079776Y-81085761D01*
X87409196Y-81086048D01*
X87409196Y-83259569D01*
X87472033Y-83575475D01*
X87650979Y-83843286D01*
X90488771Y-86681077D01*
X90488771Y-87209506D01*
X89926418Y-87000599D01*
X89276623Y-87024659D01*
X88788042Y-87227035D01*
X88689443Y-87493837D01*
X89662000Y-88466395D01*
X89676142Y-88452252D01*
X89855748Y-88631858D01*
X89841605Y-88646000D01*
X89855748Y-88660142D01*
X89676142Y-88839748D01*
X89662000Y-88825605D01*
X88689443Y-89798163D01*
X88788042Y-90064965D01*
X89397582Y-90291401D01*
X90047377Y-90267341D01*
X90298254Y-90163425D01*
X90298095Y-90345761D01*
X90452446Y-90719319D01*
X90738002Y-91005374D01*
X91111289Y-91160377D01*
X91515479Y-91160729D01*
X91889037Y-91006378D01*
X92175092Y-90720822D01*
X92330095Y-90347535D01*
X92330263Y-90154204D01*
X92699582Y-90291401D01*
X93349377Y-90267341D01*
X93837958Y-90064965D01*
X93840066Y-90059260D01*
X93874951Y-90111469D01*
X93975743Y-90212261D01*
X93975700Y-90262168D01*
X94130051Y-90635726D01*
X94415607Y-90921781D01*
X94788894Y-91076784D01*
X95193084Y-91077136D01*
X95566642Y-90922785D01*
X95852697Y-90637229D01*
X96000924Y-90280260D01*
X96589694Y-90280774D01*
X97190655Y-90032462D01*
X97650846Y-89573073D01*
X97693023Y-89471500D01*
X98140568Y-89471500D01*
X98181538Y-89570655D01*
X98640927Y-90030846D01*
X99241453Y-90280206D01*
X99891694Y-90280774D01*
X100492655Y-90032462D01*
X100727363Y-89798163D01*
X101897443Y-89798163D01*
X101996042Y-90064965D01*
X102605582Y-90291401D01*
X103255377Y-90267341D01*
X103743958Y-90064965D01*
X103842557Y-89798163D01*
X102870000Y-88825605D01*
X101897443Y-89798163D01*
X100727363Y-89798163D01*
X100952846Y-89573073D01*
X101202206Y-88972547D01*
X101202722Y-88381582D01*
X101224599Y-88381582D01*
X101248659Y-89031377D01*
X101451035Y-89519958D01*
X101717837Y-89618557D01*
X102690395Y-88646000D01*
X103049605Y-88646000D01*
X104022163Y-89618557D01*
X104288965Y-89519958D01*
X104515401Y-88910418D01*
X104495820Y-88381582D01*
X104526599Y-88381582D01*
X104550659Y-89031377D01*
X104753035Y-89519958D01*
X105019837Y-89618557D01*
X105992395Y-88646000D01*
X105019837Y-87673443D01*
X104753035Y-87772042D01*
X104526599Y-88381582D01*
X104495820Y-88381582D01*
X104491341Y-88260623D01*
X104288965Y-87772042D01*
X104022163Y-87673443D01*
X103049605Y-88646000D01*
X102690395Y-88646000D01*
X101717837Y-87673443D01*
X101451035Y-87772042D01*
X101224599Y-88381582D01*
X101202722Y-88381582D01*
X101202774Y-88322306D01*
X100954462Y-87721345D01*
X100727351Y-87493837D01*
X101897443Y-87493837D01*
X102870000Y-88466395D01*
X103842557Y-87493837D01*
X105199443Y-87493837D01*
X106172000Y-88466395D01*
X106186142Y-88452252D01*
X106365748Y-88631858D01*
X106351605Y-88646000D01*
X106365748Y-88660142D01*
X106186142Y-88839748D01*
X106172000Y-88825605D01*
X105199443Y-89798163D01*
X105298042Y-90064965D01*
X105907582Y-90291401D01*
X106557377Y-90267341D01*
X107045958Y-90064965D01*
X107144556Y-89798164D01*
X107258509Y-89912117D01*
X107258509Y-90075409D01*
X107321346Y-90391315D01*
X107500292Y-90659126D01*
X108687066Y-91845900D01*
X108364632Y-91862038D01*
X107980857Y-92021003D01*
X107911392Y-92263187D01*
X108712000Y-93063795D01*
X108726143Y-93049653D01*
X108905748Y-93229258D01*
X108891605Y-93243400D01*
X109692213Y-94044008D01*
X109934397Y-93974543D01*
X109984509Y-93834082D01*
X110066990Y-94033703D01*
X110459630Y-94427029D01*
X110972900Y-94640157D01*
X111528661Y-94640642D01*
X112042303Y-94428410D01*
X112435629Y-94035770D01*
X112521949Y-93827888D01*
X112606990Y-94033703D01*
X112999630Y-94427029D01*
X113512900Y-94640157D01*
X114068661Y-94640642D01*
X114582303Y-94428410D01*
X114787457Y-94223613D01*
X115785392Y-94223613D01*
X115854857Y-94465797D01*
X116378302Y-94652544D01*
X116933368Y-94624762D01*
X117317143Y-94465797D01*
X117386608Y-94223613D01*
X116586000Y-93423005D01*
X115785392Y-94223613D01*
X114787457Y-94223613D01*
X114975629Y-94035770D01*
X115188757Y-93522500D01*
X115188971Y-93277744D01*
X115204638Y-93590768D01*
X115363603Y-93974543D01*
X115605787Y-94044008D01*
X116406395Y-93243400D01*
X116392253Y-93229258D01*
X116571858Y-93049653D01*
X116586000Y-93063795D01*
X116600143Y-93049653D01*
X116779748Y-93229258D01*
X116765605Y-93243400D01*
X117566213Y-94044008D01*
X117808397Y-93974543D01*
X117858509Y-93834082D01*
X117940990Y-94033703D01*
X118333630Y-94427029D01*
X118846900Y-94640157D01*
X119402661Y-94640642D01*
X119916303Y-94428410D01*
X120309629Y-94035770D01*
X120395949Y-93827888D01*
X120480990Y-94033703D01*
X120873630Y-94427029D01*
X121386900Y-94640157D01*
X121942661Y-94640642D01*
X122456303Y-94428410D01*
X122849629Y-94035770D01*
X123062757Y-93522500D01*
X123063242Y-92966739D01*
X123013422Y-92846163D01*
X133393443Y-92846163D01*
X133492042Y-93112965D01*
X134101582Y-93339401D01*
X134751377Y-93315341D01*
X135239958Y-93112965D01*
X135338557Y-92846163D01*
X134366000Y-91873605D01*
X133393443Y-92846163D01*
X123013422Y-92846163D01*
X122851010Y-92453097D01*
X122458370Y-92059771D01*
X121945100Y-91846643D01*
X121389339Y-91846158D01*
X120875697Y-92058390D01*
X120482371Y-92451030D01*
X120396051Y-92658912D01*
X120311010Y-92453097D01*
X119918370Y-92059771D01*
X119405100Y-91846643D01*
X118896233Y-91846199D01*
X118532287Y-91482253D01*
X118453460Y-91429582D01*
X132720599Y-91429582D01*
X132744659Y-92079377D01*
X132947035Y-92567958D01*
X133213837Y-92666557D01*
X134186395Y-91694000D01*
X134545605Y-91694000D01*
X135518163Y-92666557D01*
X135784965Y-92567958D01*
X136011401Y-91958418D01*
X135987341Y-91308623D01*
X135784965Y-90820042D01*
X135518163Y-90721443D01*
X134545605Y-91694000D01*
X134186395Y-91694000D01*
X133213837Y-90721443D01*
X132947035Y-90820042D01*
X132720599Y-91429582D01*
X118453460Y-91429582D01*
X118264476Y-91303307D01*
X117948570Y-91240470D01*
X112392158Y-91240470D01*
X111891135Y-90739446D01*
X111891135Y-90541837D01*
X133393443Y-90541837D01*
X134366000Y-91514395D01*
X135293444Y-90586950D01*
X136282389Y-90586950D01*
X136436740Y-90960508D01*
X136722296Y-91246563D01*
X137095583Y-91401566D01*
X137371496Y-91401806D01*
X139534354Y-93564664D01*
X139446176Y-93777018D01*
X139445824Y-94181208D01*
X139600175Y-94554766D01*
X139885731Y-94840821D01*
X140259018Y-94995824D01*
X140663208Y-94996176D01*
X141036766Y-94841825D01*
X141322821Y-94556269D01*
X141477824Y-94182982D01*
X141478176Y-93778792D01*
X141323825Y-93405234D01*
X141287500Y-93368846D01*
X141287500Y-93324876D01*
X141245349Y-93112965D01*
X141224663Y-93008970D01*
X141045717Y-92741159D01*
X140372362Y-92067804D01*
X140568938Y-91871571D01*
X140723788Y-91498651D01*
X140724141Y-91094859D01*
X140569942Y-90721669D01*
X140284667Y-90435896D01*
X139911747Y-90281046D01*
X139758210Y-90280912D01*
X139010187Y-89532889D01*
X139010230Y-89484180D01*
X138856031Y-89110990D01*
X138617345Y-88871887D01*
X141313000Y-88871887D01*
X141313000Y-88928113D01*
X141422233Y-89477264D01*
X141733302Y-89942811D01*
X142198849Y-90253880D01*
X142748000Y-90363113D01*
X143297151Y-90253880D01*
X143762698Y-89942811D01*
X144018000Y-89560725D01*
X144273302Y-89942811D01*
X144447850Y-90059440D01*
X144202306Y-90059226D01*
X143601345Y-90307538D01*
X143141154Y-90766927D01*
X142891794Y-91367453D01*
X142891226Y-92017694D01*
X143139538Y-92618655D01*
X143598927Y-93078846D01*
X144199453Y-93328206D01*
X144849694Y-93328774D01*
X145450655Y-93080462D01*
X145910846Y-92621073D01*
X146160206Y-92020547D01*
X146160215Y-92010000D01*
X146226560Y-92010000D01*
X146226560Y-93410000D01*
X146270838Y-93645317D01*
X146409910Y-93861441D01*
X146622110Y-94006431D01*
X146874000Y-94057440D01*
X148274000Y-94057440D01*
X148509317Y-94013162D01*
X148725441Y-93874090D01*
X148870431Y-93661890D01*
X148873795Y-93645275D01*
X151818331Y-93645275D01*
X151880169Y-93881042D01*
X152381122Y-94057419D01*
X152911440Y-94028664D01*
X153267831Y-93881042D01*
X153329669Y-93645275D01*
X152574000Y-92889605D01*
X151818331Y-93645275D01*
X148873795Y-93645275D01*
X148921440Y-93410000D01*
X148921440Y-92517122D01*
X151226581Y-92517122D01*
X151255336Y-93047440D01*
X151402958Y-93403831D01*
X151638725Y-93465669D01*
X152394395Y-92710000D01*
X151638725Y-91954331D01*
X151402958Y-92016169D01*
X151226581Y-92517122D01*
X148921440Y-92517122D01*
X148921440Y-92010000D01*
X148877170Y-91774725D01*
X151818331Y-91774725D01*
X152574000Y-92530395D01*
X153329669Y-91774725D01*
X153267831Y-91538958D01*
X152766878Y-91362581D01*
X152236560Y-91391336D01*
X151880169Y-91538958D01*
X151818331Y-91774725D01*
X148877170Y-91774725D01*
X148877162Y-91774683D01*
X148738090Y-91558559D01*
X148525890Y-91413569D01*
X148274000Y-91362560D01*
X146874000Y-91362560D01*
X146638683Y-91406838D01*
X146422559Y-91545910D01*
X146277569Y-91758110D01*
X146226560Y-92010000D01*
X146160215Y-92010000D01*
X146160774Y-91370306D01*
X145912462Y-90769345D01*
X145470667Y-90326778D01*
X145837151Y-90253880D01*
X146302698Y-89942811D01*
X146558000Y-89560725D01*
X146813302Y-89942811D01*
X147278849Y-90253880D01*
X147828000Y-90363113D01*
X148377151Y-90253880D01*
X148842698Y-89942811D01*
X149112986Y-89538297D01*
X149215611Y-89755134D01*
X149630577Y-90131041D01*
X150018961Y-90291904D01*
X150241000Y-90169915D01*
X150241000Y-89027000D01*
X150495000Y-89027000D01*
X150495000Y-90169915D01*
X150717039Y-90291904D01*
X151105423Y-90131041D01*
X151520389Y-89755134D01*
X151759914Y-89249041D01*
X151638629Y-89027000D01*
X150495000Y-89027000D01*
X150241000Y-89027000D01*
X150221000Y-89027000D01*
X150221000Y-88773000D01*
X150241000Y-88773000D01*
X150241000Y-87630085D01*
X150495000Y-87630085D01*
X150495000Y-88773000D01*
X151638629Y-88773000D01*
X151759914Y-88550959D01*
X151520389Y-88044866D01*
X151105423Y-87668959D01*
X150717039Y-87508096D01*
X150495000Y-87630085D01*
X150241000Y-87630085D01*
X150018961Y-87508096D01*
X149630577Y-87668959D01*
X149215611Y-88044866D01*
X149112986Y-88261703D01*
X148842698Y-87857189D01*
X148377151Y-87546120D01*
X147828000Y-87436887D01*
X147278849Y-87546120D01*
X146813302Y-87857189D01*
X146558000Y-88239275D01*
X146302698Y-87857189D01*
X145837151Y-87546120D01*
X145288000Y-87436887D01*
X144738849Y-87546120D01*
X144273302Y-87857189D01*
X144018000Y-88239275D01*
X143762698Y-87857189D01*
X143297151Y-87546120D01*
X142748000Y-87436887D01*
X142198849Y-87546120D01*
X141733302Y-87857189D01*
X141422233Y-88322736D01*
X141313000Y-88871887D01*
X138617345Y-88871887D01*
X138570756Y-88825217D01*
X138340827Y-88729742D01*
X138361831Y-88721042D01*
X138423669Y-88485275D01*
X137668000Y-87729605D01*
X136912331Y-88485275D01*
X136974169Y-88721042D01*
X137380791Y-88864207D01*
X137135081Y-89109488D01*
X137012534Y-89404614D01*
X136723799Y-89523917D01*
X136437744Y-89809473D01*
X136282741Y-90182760D01*
X136282389Y-90586950D01*
X135293444Y-90586950D01*
X135338557Y-90541837D01*
X135239958Y-90275035D01*
X134630418Y-90048599D01*
X133980623Y-90072659D01*
X133492042Y-90275035D01*
X133393443Y-90541837D01*
X111891135Y-90541837D01*
X111891135Y-90035451D01*
X111902042Y-90064965D01*
X112511582Y-90291401D01*
X113161377Y-90267341D01*
X113649958Y-90064965D01*
X113748557Y-89798163D01*
X112776000Y-88825605D01*
X112761858Y-88839748D01*
X112582252Y-88660142D01*
X112596395Y-88646000D01*
X112955605Y-88646000D01*
X113928163Y-89618557D01*
X114194965Y-89519958D01*
X114399380Y-88969694D01*
X114443226Y-88969694D01*
X114691538Y-89570655D01*
X115150927Y-90030846D01*
X115751453Y-90280206D01*
X116401694Y-90280774D01*
X117002655Y-90032462D01*
X117462846Y-89573073D01*
X117712206Y-88972547D01*
X117712208Y-88969694D01*
X117745226Y-88969694D01*
X117993538Y-89570655D01*
X118452927Y-90030846D01*
X119053453Y-90280206D01*
X119703694Y-90280774D01*
X120304655Y-90032462D01*
X120764846Y-89573073D01*
X121014206Y-88972547D01*
X121014208Y-88969694D01*
X121047226Y-88969694D01*
X121295538Y-89570655D01*
X121754927Y-90030846D01*
X122355453Y-90280206D01*
X123005694Y-90280774D01*
X123606655Y-90032462D01*
X124066846Y-89573073D01*
X124316206Y-88972547D01*
X124316208Y-88969694D01*
X124349226Y-88969694D01*
X124597538Y-89570655D01*
X125056927Y-90030846D01*
X125657453Y-90280206D01*
X126307694Y-90280774D01*
X126908655Y-90032462D01*
X127368846Y-89573073D01*
X127618206Y-88972547D01*
X127618774Y-88322306D01*
X127370462Y-87721345D01*
X127006874Y-87357122D01*
X136320581Y-87357122D01*
X136349336Y-87887440D01*
X136496958Y-88243831D01*
X136732725Y-88305669D01*
X137488395Y-87550000D01*
X137847605Y-87550000D01*
X138603275Y-88305669D01*
X138839042Y-88243831D01*
X139015419Y-87742878D01*
X138986664Y-87212560D01*
X138839042Y-86856169D01*
X138603275Y-86794331D01*
X137847605Y-87550000D01*
X137488395Y-87550000D01*
X136732725Y-86794331D01*
X136496958Y-86856169D01*
X136320581Y-87357122D01*
X127006874Y-87357122D01*
X126911073Y-87261154D01*
X126310547Y-87011794D01*
X125660306Y-87011226D01*
X125059345Y-87259538D01*
X124599154Y-87718927D01*
X124349794Y-88319453D01*
X124349226Y-88969694D01*
X124316208Y-88969694D01*
X124316774Y-88322306D01*
X124068462Y-87721345D01*
X123609073Y-87261154D01*
X123008547Y-87011794D01*
X122358306Y-87011226D01*
X121757345Y-87259538D01*
X121297154Y-87718927D01*
X121047794Y-88319453D01*
X121047226Y-88969694D01*
X121014208Y-88969694D01*
X121014774Y-88322306D01*
X120766462Y-87721345D01*
X120307073Y-87261154D01*
X119706547Y-87011794D01*
X119056306Y-87011226D01*
X118455345Y-87259538D01*
X117995154Y-87718927D01*
X117745794Y-88319453D01*
X117745226Y-88969694D01*
X117712208Y-88969694D01*
X117712774Y-88322306D01*
X117464462Y-87721345D01*
X117005073Y-87261154D01*
X116404547Y-87011794D01*
X115754306Y-87011226D01*
X115153345Y-87259538D01*
X114693154Y-87718927D01*
X114443794Y-88319453D01*
X114443226Y-88969694D01*
X114399380Y-88969694D01*
X114421401Y-88910418D01*
X114397341Y-88260623D01*
X114194965Y-87772042D01*
X113928163Y-87673443D01*
X112955605Y-88646000D01*
X112596395Y-88646000D01*
X112582253Y-88631858D01*
X112761858Y-88452252D01*
X112776000Y-88466395D01*
X113748557Y-87493837D01*
X113649958Y-87227035D01*
X113040418Y-87000599D01*
X112390623Y-87024659D01*
X111902042Y-87227035D01*
X111803444Y-87493836D01*
X111689162Y-87379554D01*
X111633177Y-87435539D01*
X110812364Y-86614725D01*
X136912331Y-86614725D01*
X137668000Y-87370395D01*
X138423669Y-86614725D01*
X138361831Y-86378958D01*
X137860878Y-86202581D01*
X137330560Y-86231336D01*
X136974169Y-86378958D01*
X136912331Y-86614725D01*
X110812364Y-86614725D01*
X110524450Y-86326811D01*
X110524493Y-86276904D01*
X110388054Y-85946696D01*
X110490854Y-85699127D01*
X110491206Y-85294937D01*
X110336855Y-84921379D01*
X110051299Y-84635324D01*
X109678012Y-84480321D01*
X109273822Y-84479969D01*
X108900264Y-84634320D01*
X108845874Y-84688615D01*
X108620309Y-84733482D01*
X108513039Y-84805158D01*
X108352498Y-84912428D01*
X108352496Y-84912431D01*
X107500292Y-85764634D01*
X107321346Y-86032445D01*
X107295535Y-86162206D01*
X107258509Y-86348351D01*
X107258509Y-87379883D01*
X107144556Y-87493836D01*
X107045958Y-87227035D01*
X106436418Y-87000599D01*
X105786623Y-87024659D01*
X105298042Y-87227035D01*
X105199443Y-87493837D01*
X103842557Y-87493837D01*
X103743958Y-87227035D01*
X103134418Y-87000599D01*
X102484623Y-87024659D01*
X101996042Y-87227035D01*
X101897443Y-87493837D01*
X100727351Y-87493837D01*
X100495073Y-87261154D01*
X99894547Y-87011794D01*
X99244306Y-87011226D01*
X98643345Y-87259538D01*
X98183154Y-87718927D01*
X98140977Y-87820500D01*
X97693432Y-87820500D01*
X97652462Y-87721345D01*
X97193073Y-87261154D01*
X96592547Y-87011794D01*
X95942306Y-87011226D01*
X95341345Y-87259538D01*
X95284168Y-87316615D01*
X95284168Y-85733679D01*
X95261017Y-85617291D01*
X95221331Y-85417773D01*
X95132340Y-85284589D01*
X95042385Y-85149962D01*
X95042382Y-85149960D01*
X95025711Y-85133288D01*
X95025754Y-85083381D01*
X94871403Y-84709823D01*
X94585847Y-84423768D01*
X94212560Y-84268765D01*
X93808370Y-84268413D01*
X93434812Y-84422764D01*
X93148757Y-84708320D01*
X92993754Y-85081607D01*
X92993402Y-85485797D01*
X93147753Y-85859355D01*
X93433309Y-86145410D01*
X93633168Y-86228399D01*
X93633168Y-87150958D01*
X93228418Y-87000599D01*
X92578623Y-87024659D01*
X92139771Y-87206437D01*
X92139771Y-86339149D01*
X92139772Y-86339144D01*
X92076934Y-86023239D01*
X91973411Y-85868306D01*
X91897988Y-85755427D01*
X91897985Y-85755425D01*
X90521075Y-84378515D01*
X90729489Y-84239257D01*
X91183425Y-83785320D01*
X91183428Y-83785318D01*
X91362374Y-83517506D01*
X91368777Y-83485317D01*
X91425212Y-83201601D01*
X91425211Y-83201596D01*
X91425211Y-81850000D01*
X136320560Y-81850000D01*
X136320560Y-83250000D01*
X136364838Y-83485317D01*
X136503910Y-83701441D01*
X136716110Y-83846431D01*
X136968000Y-83897440D01*
X138368000Y-83897440D01*
X138603317Y-83853162D01*
X138819441Y-83714090D01*
X138964431Y-83501890D01*
X139015440Y-83250000D01*
X139015440Y-81850000D01*
X138971162Y-81614683D01*
X138832090Y-81398559D01*
X138619890Y-81253569D01*
X138368000Y-81202560D01*
X136968000Y-81202560D01*
X136732683Y-81246838D01*
X136516559Y-81385910D01*
X136371569Y-81598110D01*
X136320560Y-81850000D01*
X91425211Y-81850000D01*
X91425211Y-81548632D01*
X92008401Y-80965442D01*
X101216058Y-80965442D01*
X101531964Y-80902605D01*
X101799775Y-80723659D01*
X102444371Y-80079063D01*
X102543453Y-80120206D01*
X103193694Y-80120774D01*
X103794655Y-79872462D01*
X104254846Y-79413073D01*
X104504206Y-78812547D01*
X104504774Y-78162306D01*
X104256462Y-77561345D01*
X104228666Y-77533500D01*
X104812625Y-77533500D01*
X104787154Y-77558927D01*
X104537794Y-78159453D01*
X104537226Y-78809694D01*
X104785538Y-79410655D01*
X105244927Y-79870846D01*
X105845453Y-80120206D01*
X106495694Y-80120774D01*
X107096655Y-79872462D01*
X107556846Y-79413073D01*
X107806206Y-78812547D01*
X107806774Y-78162306D01*
X107558462Y-77561345D01*
X107530666Y-77533500D01*
X108114625Y-77533500D01*
X108089154Y-77558927D01*
X107839794Y-78159453D01*
X107839226Y-78809694D01*
X108087538Y-79410655D01*
X108546927Y-79870846D01*
X109147453Y-80120206D01*
X109797694Y-80120774D01*
X110398655Y-79872462D01*
X110858846Y-79413073D01*
X111108206Y-78812547D01*
X111108774Y-78162306D01*
X110860462Y-77561345D01*
X110832666Y-77533500D01*
X111416625Y-77533500D01*
X111391154Y-77558927D01*
X111141794Y-78159453D01*
X111141226Y-78809694D01*
X111389538Y-79410655D01*
X111848927Y-79870846D01*
X112449453Y-80120206D01*
X113099694Y-80120774D01*
X113700655Y-79872462D01*
X114160846Y-79413073D01*
X114410206Y-78812547D01*
X114410774Y-78162306D01*
X114162462Y-77561345D01*
X114134666Y-77533500D01*
X114718625Y-77533500D01*
X114693154Y-77558927D01*
X114443794Y-78159453D01*
X114443226Y-78809694D01*
X114691538Y-79410655D01*
X115150927Y-79870846D01*
X115751453Y-80120206D01*
X116401694Y-80120774D01*
X117002655Y-79872462D01*
X117462846Y-79413073D01*
X117712206Y-78812547D01*
X117712774Y-78162306D01*
X117464462Y-77561345D01*
X117436666Y-77533500D01*
X118020625Y-77533500D01*
X117995154Y-77558927D01*
X117745794Y-78159453D01*
X117745226Y-78809694D01*
X117993538Y-79410655D01*
X118452927Y-79870846D01*
X119053453Y-80120206D01*
X119703694Y-80120774D01*
X120304655Y-79872462D01*
X120764846Y-79413073D01*
X121014206Y-78812547D01*
X121014774Y-78162306D01*
X120766462Y-77561345D01*
X120738666Y-77533500D01*
X121322625Y-77533500D01*
X121297154Y-77558927D01*
X121047794Y-78159453D01*
X121047226Y-78809694D01*
X121295538Y-79410655D01*
X121754927Y-79870846D01*
X122355453Y-80120206D01*
X123005694Y-80120774D01*
X123606655Y-79872462D01*
X124066846Y-79413073D01*
X124316206Y-78812547D01*
X124316208Y-78809694D01*
X124349226Y-78809694D01*
X124597538Y-79410655D01*
X125056927Y-79870846D01*
X125657453Y-80120206D01*
X126307694Y-80120774D01*
X126908655Y-79872462D01*
X127143363Y-79638163D01*
X133393443Y-79638163D01*
X133492042Y-79904965D01*
X134101582Y-80131401D01*
X134751377Y-80107341D01*
X135239958Y-79904965D01*
X135338557Y-79638163D01*
X134366000Y-78665605D01*
X133393443Y-79638163D01*
X127143363Y-79638163D01*
X127368846Y-79413073D01*
X127618206Y-78812547D01*
X127618722Y-78221582D01*
X132720599Y-78221582D01*
X132744659Y-78871377D01*
X132947035Y-79359958D01*
X133213837Y-79458557D01*
X134186395Y-78486000D01*
X134545605Y-78486000D01*
X135518163Y-79458557D01*
X135784965Y-79359958D01*
X136011401Y-78750418D01*
X135987341Y-78100623D01*
X135784965Y-77612042D01*
X135518163Y-77513443D01*
X134545605Y-78486000D01*
X134186395Y-78486000D01*
X133213837Y-77513443D01*
X132947035Y-77612042D01*
X132720599Y-78221582D01*
X127618722Y-78221582D01*
X127618774Y-78162306D01*
X127370462Y-77561345D01*
X127143351Y-77333837D01*
X133393443Y-77333837D01*
X134366000Y-78306395D01*
X135338557Y-77333837D01*
X135239958Y-77067035D01*
X134630418Y-76840599D01*
X133980623Y-76864659D01*
X133492042Y-77067035D01*
X133393443Y-77333837D01*
X127143351Y-77333837D01*
X126911073Y-77101154D01*
X126310547Y-76851794D01*
X125660306Y-76851226D01*
X125059345Y-77099538D01*
X124599154Y-77558927D01*
X124349794Y-78159453D01*
X124349226Y-78809694D01*
X124316208Y-78809694D01*
X124316774Y-78162306D01*
X124101249Y-77640695D01*
X124272766Y-77569825D01*
X124558821Y-77284269D01*
X124713824Y-76910982D01*
X124714176Y-76506792D01*
X124559825Y-76133234D01*
X124274269Y-75847179D01*
X123900982Y-75692176D01*
X123496792Y-75691824D01*
X123123234Y-75846175D01*
X123086846Y-75882500D01*
X122601007Y-75882500D01*
X122682000Y-75475321D01*
X122682000Y-74384679D01*
X122575660Y-73850070D01*
X122272828Y-73396851D01*
X121819609Y-73094019D01*
X121285000Y-72987679D01*
X120750391Y-73094019D01*
X120297172Y-73396851D01*
X120015000Y-73819150D01*
X119732828Y-73396851D01*
X119279609Y-73094019D01*
X118745000Y-72987679D01*
X118210391Y-73094019D01*
X117757172Y-73396851D01*
X117475000Y-73819150D01*
X117192828Y-73396851D01*
X116739609Y-73094019D01*
X116205000Y-72987679D01*
X115670391Y-73094019D01*
X115217172Y-73396851D01*
X114935000Y-73819150D01*
X114652828Y-73396851D01*
X114199609Y-73094019D01*
X113665000Y-72987679D01*
X113130391Y-73094019D01*
X112677172Y-73396851D01*
X112395000Y-73819150D01*
X112112828Y-73396851D01*
X111659609Y-73094019D01*
X111125000Y-72987679D01*
X110590391Y-73094019D01*
X110137172Y-73396851D01*
X109855000Y-73819150D01*
X109572828Y-73396851D01*
X109119609Y-73094019D01*
X108585000Y-72987679D01*
X108050391Y-73094019D01*
X107597172Y-73396851D01*
X107315000Y-73819150D01*
X107032828Y-73396851D01*
X106579609Y-73094019D01*
X106045000Y-72987679D01*
X105510391Y-73094019D01*
X105057172Y-73396851D01*
X104775000Y-73819150D01*
X104492828Y-73396851D01*
X104039609Y-73094019D01*
X103505000Y-72987679D01*
X102970391Y-73094019D01*
X102517172Y-73396851D01*
X102214340Y-73850070D01*
X102108000Y-74384679D01*
X102108000Y-75475321D01*
X102188993Y-75882500D01*
X101052933Y-75882500D01*
X100806104Y-75635671D01*
X100838000Y-75475321D01*
X100838000Y-74384679D01*
X100731660Y-73850070D01*
X100428828Y-73396851D01*
X99975609Y-73094019D01*
X99441000Y-72987679D01*
X98906391Y-73094019D01*
X98453172Y-73396851D01*
X98171000Y-73819150D01*
X97888828Y-73396851D01*
X97435609Y-73094019D01*
X96901000Y-72987679D01*
X96366391Y-73094019D01*
X95913172Y-73396851D01*
X95631000Y-73819150D01*
X95348828Y-73396851D01*
X94895609Y-73094019D01*
X94361000Y-72987679D01*
X93826391Y-73094019D01*
X93373172Y-73396851D01*
X93091000Y-73819150D01*
X92808828Y-73396851D01*
X92355609Y-73094019D01*
X91821000Y-72987679D01*
X91286391Y-73094019D01*
X90833172Y-73396851D01*
X90551000Y-73819150D01*
X90268828Y-73396851D01*
X89815609Y-73094019D01*
X89281000Y-72987679D01*
X88746391Y-73094019D01*
X88293172Y-73396851D01*
X88011000Y-73819150D01*
X87728828Y-73396851D01*
X87275609Y-73094019D01*
X86741000Y-72987679D01*
X86206391Y-73094019D01*
X85753172Y-73396851D01*
X85461670Y-73833113D01*
X85443059Y-73770059D01*
X85099026Y-73344370D01*
X84618277Y-73082740D01*
X84544070Y-73067780D01*
X84328000Y-73190280D01*
X84328000Y-74803000D01*
X84348000Y-74803000D01*
X84348000Y-75057000D01*
X84328000Y-75057000D01*
X84328000Y-76669720D01*
X84544070Y-76792220D01*
X84618277Y-76777260D01*
X85099026Y-76515630D01*
X85443059Y-76089941D01*
X85461670Y-76026887D01*
X85753172Y-76463149D01*
X86206391Y-76765981D01*
X86637588Y-76851751D01*
X86036306Y-76851226D01*
X85435345Y-77099538D01*
X84975154Y-77558927D01*
X84725794Y-78159453D01*
X84725226Y-78809694D01*
X84849223Y-79109789D01*
X84651063Y-78911629D01*
X84692206Y-78812547D01*
X84692774Y-78162306D01*
X84444462Y-77561345D01*
X83985073Y-77101154D01*
X83384547Y-76851794D01*
X82734306Y-76851226D01*
X82133345Y-77099538D01*
X81673154Y-77558927D01*
X81423794Y-78159453D01*
X81423226Y-78809694D01*
X14680000Y-78809694D01*
X14680000Y-74384679D01*
X80264000Y-74384679D01*
X80264000Y-75475321D01*
X80370340Y-76009930D01*
X80673172Y-76463149D01*
X81126391Y-76765981D01*
X81661000Y-76872321D01*
X82195609Y-76765981D01*
X82648828Y-76463149D01*
X82940330Y-76026887D01*
X82958941Y-76089941D01*
X83302974Y-76515630D01*
X83783723Y-76777260D01*
X83857930Y-76792220D01*
X84074000Y-76669720D01*
X84074000Y-75057000D01*
X84054000Y-75057000D01*
X84054000Y-74803000D01*
X84074000Y-74803000D01*
X84074000Y-73190280D01*
X83857930Y-73067780D01*
X83783723Y-73082740D01*
X83302974Y-73344370D01*
X82958941Y-73770059D01*
X82940330Y-73833113D01*
X82648828Y-73396851D01*
X82195609Y-73094019D01*
X81661000Y-72987679D01*
X81126391Y-73094019D01*
X80673172Y-73396851D01*
X80370340Y-73850070D01*
X80264000Y-74384679D01*
X14680000Y-74384679D01*
X14680000Y-66374010D01*
X29237940Y-66374010D01*
X29237940Y-67964629D01*
X29334613Y-68198018D01*
X29513241Y-68376647D01*
X29746630Y-68473320D01*
X31337250Y-68473320D01*
X31496000Y-68314570D01*
X31496000Y-66215260D01*
X29396690Y-66215260D01*
X29237940Y-66374010D01*
X14680000Y-66374010D01*
X14680000Y-64211891D01*
X29237940Y-64211891D01*
X29237940Y-65802510D01*
X29396690Y-65961260D01*
X31496000Y-65961260D01*
X31496000Y-63861950D01*
X31750000Y-63861950D01*
X31750000Y-65961260D01*
X33849310Y-65961260D01*
X34008060Y-65802510D01*
X34008060Y-65136588D01*
X34033613Y-65198278D01*
X34212241Y-65376907D01*
X34445630Y-65473580D01*
X36036250Y-65473580D01*
X36195000Y-65314830D01*
X36195000Y-63215520D01*
X36449000Y-63215520D01*
X36449000Y-65314830D01*
X36607750Y-65473580D01*
X38198370Y-65473580D01*
X38431759Y-65376907D01*
X38610387Y-65198278D01*
X38707060Y-64964889D01*
X38707060Y-63374270D01*
X38548310Y-63215520D01*
X36449000Y-63215520D01*
X36195000Y-63215520D01*
X34095690Y-63215520D01*
X33936940Y-63374270D01*
X33936940Y-64040192D01*
X33911387Y-63978502D01*
X33732759Y-63799873D01*
X33499370Y-63703200D01*
X31908750Y-63703200D01*
X31750000Y-63861950D01*
X31496000Y-63861950D01*
X31337250Y-63703200D01*
X29746630Y-63703200D01*
X29513241Y-63799873D01*
X29334613Y-63978502D01*
X29237940Y-64211891D01*
X14680000Y-64211891D01*
X14680000Y-61212151D01*
X33936940Y-61212151D01*
X33936940Y-62802770D01*
X34095690Y-62961520D01*
X36195000Y-62961520D01*
X36195000Y-60862210D01*
X36449000Y-60862210D01*
X36449000Y-62961520D01*
X38548310Y-62961520D01*
X38707060Y-62802770D01*
X38707060Y-61212151D01*
X38610387Y-60978762D01*
X38431759Y-60800133D01*
X38198370Y-60703460D01*
X36607750Y-60703460D01*
X36449000Y-60862210D01*
X36195000Y-60862210D01*
X36036250Y-60703460D01*
X34445630Y-60703460D01*
X34212241Y-60800133D01*
X34033613Y-60978762D01*
X33936940Y-61212151D01*
X14680000Y-61212151D01*
X14680000Y-60146000D01*
X40767000Y-60146000D01*
X40767000Y-65225394D01*
X40767000Y-65225394D01*
G37*
X40767000Y-65225394D02*
X39571394Y-66421000D01*
X34036000Y-66421000D01*
X34008060Y-66426658D01*
X34008060Y-66374010D01*
X33849310Y-66215260D01*
X31750000Y-66215260D01*
X31750000Y-68314570D01*
X31908750Y-68473320D01*
X33499370Y-68473320D01*
X33732759Y-68376647D01*
X33909000Y-68200405D01*
X33909000Y-71628000D01*
X33919006Y-71677410D01*
X33947447Y-71719035D01*
X33989841Y-71746315D01*
X34036000Y-71755000D01*
X43688000Y-71755000D01*
X43737410Y-71744994D01*
X43777803Y-71717803D01*
X46026606Y-69469000D01*
X105156000Y-69469000D01*
X105205410Y-69458994D01*
X105247035Y-69430553D01*
X105274315Y-69388159D01*
X105283000Y-69342000D01*
X105283000Y-68865750D01*
X106553000Y-68865750D01*
X106553000Y-69722309D01*
X106649673Y-69955698D01*
X106828301Y-70134327D01*
X107061690Y-70231000D01*
X107918250Y-70231000D01*
X108077000Y-70072250D01*
X108077000Y-68707000D01*
X106711750Y-68707000D01*
X106553000Y-68865750D01*
X105283000Y-68865750D01*
X105283000Y-67437691D01*
X106553000Y-67437691D01*
X106553000Y-68294250D01*
X106711750Y-68453000D01*
X108077000Y-68453000D01*
X108077000Y-67087750D01*
X108331000Y-67087750D01*
X108331000Y-68453000D01*
X108351000Y-68453000D01*
X108351000Y-68707000D01*
X108331000Y-68707000D01*
X108331000Y-70072250D01*
X108489750Y-70231000D01*
X109346310Y-70231000D01*
X109579699Y-70134327D01*
X109758327Y-69955698D01*
X109775999Y-69913034D01*
X110112190Y-70137670D01*
X110744000Y-70263345D01*
X111375810Y-70137670D01*
X111911433Y-69779778D01*
X112269325Y-69244155D01*
X112344594Y-68865750D01*
X113665000Y-68865750D01*
X113665000Y-69722309D01*
X113761673Y-69955698D01*
X113940301Y-70134327D01*
X114173690Y-70231000D01*
X115030250Y-70231000D01*
X115189000Y-70072250D01*
X115189000Y-68707000D01*
X113823750Y-68707000D01*
X113665000Y-68865750D01*
X112344594Y-68865750D01*
X112395000Y-68612345D01*
X112395000Y-68547655D01*
X112269325Y-67915845D01*
X111949833Y-67437691D01*
X113665000Y-67437691D01*
X113665000Y-68294250D01*
X113823750Y-68453000D01*
X115189000Y-68453000D01*
X115189000Y-67087750D01*
X115443000Y-67087750D01*
X115443000Y-68453000D01*
X115463000Y-68453000D01*
X115463000Y-68707000D01*
X115443000Y-68707000D01*
X115443000Y-70072250D01*
X115601750Y-70231000D01*
X116458310Y-70231000D01*
X116691699Y-70134327D01*
X116870327Y-69955698D01*
X116887999Y-69913034D01*
X117224190Y-70137670D01*
X117856000Y-70263345D01*
X118487810Y-70137670D01*
X119023433Y-69779778D01*
X119381325Y-69244155D01*
X119456594Y-68865750D01*
X120929400Y-68865750D01*
X120929400Y-69722309D01*
X121026073Y-69955698D01*
X121204701Y-70134327D01*
X121438090Y-70231000D01*
X122142250Y-70231000D01*
X122301000Y-70072250D01*
X122301000Y-68707000D01*
X121088150Y-68707000D01*
X120929400Y-68865750D01*
X119456594Y-68865750D01*
X119507000Y-68612345D01*
X119507000Y-68547655D01*
X119381325Y-67915845D01*
X119061833Y-67437691D01*
X120929400Y-67437691D01*
X120929400Y-68294250D01*
X121088150Y-68453000D01*
X122301000Y-68453000D01*
X122301000Y-67087750D01*
X122555000Y-67087750D01*
X122555000Y-68453000D01*
X122575000Y-68453000D01*
X122575000Y-68707000D01*
X122555000Y-68707000D01*
X122555000Y-70072250D01*
X122713750Y-70231000D01*
X123417910Y-70231000D01*
X123651299Y-70134327D01*
X123829927Y-69955698D01*
X123893500Y-69802220D01*
X123908330Y-69824415D01*
X124394511Y-70149271D01*
X124968000Y-70263345D01*
X125398316Y-70177750D01*
X126417990Y-71197424D01*
X126417990Y-75014763D01*
X126393179Y-75039531D01*
X126238176Y-75412818D01*
X126237824Y-75817008D01*
X126392175Y-76190566D01*
X126677731Y-76476621D01*
X127051018Y-76631624D01*
X127455208Y-76631976D01*
X127828766Y-76477625D01*
X128114821Y-76192069D01*
X128269824Y-75818782D01*
X128270094Y-75507694D01*
X132731226Y-75507694D01*
X132979538Y-76108655D01*
X133438927Y-76568846D01*
X134039453Y-76818206D01*
X134689694Y-76818774D01*
X135290655Y-76570462D01*
X135750846Y-76111073D01*
X136000206Y-75510547D01*
X136000774Y-74860306D01*
X135752462Y-74259345D01*
X135293073Y-73799154D01*
X134692547Y-73549794D01*
X134042306Y-73549226D01*
X133441345Y-73797538D01*
X132981154Y-74256927D01*
X132731794Y-74857453D01*
X132731226Y-75507694D01*
X128270094Y-75507694D01*
X128270176Y-75414592D01*
X128115825Y-75041034D01*
X128068990Y-74994117D01*
X128068990Y-70855495D01*
X128068991Y-70855490D01*
X128006153Y-70539585D01*
X127827207Y-70271773D01*
X127767217Y-70211783D01*
X128081489Y-70149271D01*
X128567670Y-69824415D01*
X128892526Y-69338234D01*
X129006600Y-68764745D01*
X129006600Y-68395255D01*
X128892526Y-67821766D01*
X128567670Y-67335585D01*
X128081489Y-67010729D01*
X127508000Y-66896655D01*
X126934511Y-67010729D01*
X126448330Y-67335585D01*
X126238000Y-67650366D01*
X126027670Y-67335585D01*
X125541489Y-67010729D01*
X124968000Y-66896655D01*
X124394511Y-67010729D01*
X123908330Y-67335585D01*
X123893500Y-67357780D01*
X123829927Y-67204302D01*
X123651299Y-67025673D01*
X123417910Y-66929000D01*
X122713750Y-66929000D01*
X122555000Y-67087750D01*
X122301000Y-67087750D01*
X122142250Y-66929000D01*
X121438090Y-66929000D01*
X121204701Y-67025673D01*
X121026073Y-67204302D01*
X120929400Y-67437691D01*
X119061833Y-67437691D01*
X119023433Y-67380222D01*
X118487810Y-67022330D01*
X117856000Y-66896655D01*
X117224190Y-67022330D01*
X116887999Y-67246966D01*
X116870327Y-67204302D01*
X116691699Y-67025673D01*
X116458310Y-66929000D01*
X115601750Y-66929000D01*
X115443000Y-67087750D01*
X115189000Y-67087750D01*
X115030250Y-66929000D01*
X114173690Y-66929000D01*
X113940301Y-67025673D01*
X113761673Y-67204302D01*
X113665000Y-67437691D01*
X111949833Y-67437691D01*
X111911433Y-67380222D01*
X111375810Y-67022330D01*
X110744000Y-66896655D01*
X110112190Y-67022330D01*
X109775999Y-67246966D01*
X109758327Y-67204302D01*
X109579699Y-67025673D01*
X109346310Y-66929000D01*
X108489750Y-66929000D01*
X108331000Y-67087750D01*
X108077000Y-67087750D01*
X107918250Y-66929000D01*
X107061690Y-66929000D01*
X106828301Y-67025673D01*
X106649673Y-67204302D01*
X106553000Y-67437691D01*
X105283000Y-67437691D01*
X105283000Y-60146000D01*
X143129000Y-60146000D01*
X143129000Y-74286197D01*
X142891794Y-74857453D01*
X142891226Y-75507694D01*
X143129000Y-76083151D01*
X143129000Y-77588197D01*
X142891794Y-78159453D01*
X142891226Y-78809694D01*
X143129000Y-79385151D01*
X143129000Y-79892673D01*
X142939406Y-79854960D01*
X141149017Y-78064571D01*
X141149017Y-69621854D01*
X141338526Y-69338234D01*
X141452600Y-68764745D01*
X141452600Y-68395255D01*
X141338526Y-67821766D01*
X141013670Y-67335585D01*
X140527489Y-67010729D01*
X139954000Y-66896655D01*
X139380511Y-67010729D01*
X138894330Y-67335585D01*
X138684000Y-67650366D01*
X138473670Y-67335585D01*
X137987489Y-67010729D01*
X137414000Y-66896655D01*
X136840511Y-67010729D01*
X136354330Y-67335585D01*
X136144000Y-67650366D01*
X135933670Y-67335585D01*
X135447489Y-67010729D01*
X134874000Y-66896655D01*
X134300511Y-67010729D01*
X133814330Y-67335585D01*
X133804757Y-67349913D01*
X133800762Y-67328683D01*
X133661690Y-67112559D01*
X133449490Y-66967569D01*
X133197600Y-66916560D01*
X131470400Y-66916560D01*
X131235083Y-66960838D01*
X131018959Y-67099910D01*
X130873969Y-67312110D01*
X130822960Y-67564000D01*
X130822960Y-69596000D01*
X130867238Y-69831317D01*
X131006310Y-70047441D01*
X131218510Y-70192431D01*
X131470400Y-70243440D01*
X133197600Y-70243440D01*
X133432917Y-70199162D01*
X133649041Y-70060090D01*
X133794031Y-69847890D01*
X133802400Y-69806561D01*
X133814330Y-69824415D01*
X134300511Y-70149271D01*
X134874000Y-70263345D01*
X135447489Y-70149271D01*
X135933670Y-69824415D01*
X136144000Y-69509634D01*
X136354330Y-69824415D01*
X136840511Y-70149271D01*
X137414000Y-70263345D01*
X137987489Y-70149271D01*
X138473670Y-69824415D01*
X138684000Y-69509634D01*
X138863017Y-69777552D01*
X138863017Y-78538017D01*
X138950023Y-78975424D01*
X139197794Y-79346240D01*
X141351073Y-81499519D01*
X141422233Y-81857264D01*
X141733302Y-82322811D01*
X142198849Y-82633880D01*
X142748000Y-82743113D01*
X143129000Y-82667327D01*
X143129000Y-84328000D01*
X143139006Y-84377410D01*
X143167447Y-84419035D01*
X143209841Y-84446315D01*
X143256000Y-84455000D01*
X153722000Y-84455000D01*
X153722000Y-92010125D01*
X153509275Y-91954331D01*
X152753605Y-92710000D01*
X153509275Y-93465669D01*
X153722000Y-93409875D01*
X153722000Y-97812518D01*
X153620742Y-97568059D01*
X153378764Y-97498841D01*
X152579605Y-98298000D01*
X153378764Y-99097159D01*
X153620742Y-99027941D01*
X153722000Y-98744003D01*
X153722000Y-125782000D01*
X87242538Y-125782000D01*
X89408000Y-123616538D01*
X89408000Y-123735321D01*
X89514340Y-124269930D01*
X89817172Y-124723149D01*
X90270391Y-125025981D01*
X90805000Y-125132321D01*
X91339609Y-125025981D01*
X91792828Y-124723149D01*
X92075000Y-124300850D01*
X92357172Y-124723149D01*
X92810391Y-125025981D01*
X93345000Y-125132321D01*
X93879609Y-125025981D01*
X94332828Y-124723149D01*
X94615000Y-124300850D01*
X94897172Y-124723149D01*
X95350391Y-125025981D01*
X95885000Y-125132321D01*
X96419609Y-125025981D01*
X96872828Y-124723149D01*
X97164330Y-124286887D01*
X97182941Y-124349941D01*
X97526974Y-124775630D01*
X98007723Y-125037260D01*
X98081930Y-125052220D01*
X98298000Y-124929720D01*
X98298000Y-123317000D01*
X98552000Y-123317000D01*
X98552000Y-124929720D01*
X98768070Y-125052220D01*
X98842277Y-125037260D01*
X99323026Y-124775630D01*
X99667059Y-124349941D01*
X99695000Y-124255277D01*
X99722941Y-124349941D01*
X100066974Y-124775630D01*
X100547723Y-125037260D01*
X100621930Y-125052220D01*
X100838000Y-124929720D01*
X100838000Y-123317000D01*
X98552000Y-123317000D01*
X98298000Y-123317000D01*
X98278000Y-123317000D01*
X98278000Y-123063000D01*
X98298000Y-123063000D01*
X98298000Y-123043000D01*
X98552000Y-123043000D01*
X98552000Y-123063000D01*
X100838000Y-123063000D01*
X100838000Y-123043000D01*
X101092000Y-123043000D01*
X101092000Y-123063000D01*
X101112000Y-123063000D01*
X101112000Y-123317000D01*
X101092000Y-123317000D01*
X101092000Y-124929720D01*
X101308070Y-125052220D01*
X101382277Y-125037260D01*
X101863026Y-124775630D01*
X102207059Y-124349941D01*
X102225670Y-124286887D01*
X102517172Y-124723149D01*
X102970391Y-125025981D01*
X103505000Y-125132321D01*
X104039609Y-125025981D01*
X104492828Y-124723149D01*
X104795660Y-124269930D01*
X104902000Y-123735321D01*
X104902000Y-122644679D01*
X107188000Y-122644679D01*
X107188000Y-123735321D01*
X107294340Y-124269930D01*
X107597172Y-124723149D01*
X108050391Y-125025981D01*
X108585000Y-125132321D01*
X109119609Y-125025981D01*
X109572828Y-124723149D01*
X109855000Y-124300850D01*
X110137172Y-124723149D01*
X110590391Y-125025981D01*
X111125000Y-125132321D01*
X111659609Y-125025981D01*
X112112828Y-124723149D01*
X112395000Y-124300850D01*
X112677172Y-124723149D01*
X113130391Y-125025981D01*
X113665000Y-125132321D01*
X114199609Y-125025981D01*
X114652828Y-124723149D01*
X114935000Y-124300850D01*
X115217172Y-124723149D01*
X115670391Y-125025981D01*
X116205000Y-125132321D01*
X116739609Y-125025981D01*
X117192828Y-124723149D01*
X117475000Y-124300850D01*
X117757172Y-124723149D01*
X118210391Y-125025981D01*
X118745000Y-125132321D01*
X119279609Y-125025981D01*
X119732828Y-124723149D01*
X120015000Y-124300850D01*
X120297172Y-124723149D01*
X120750391Y-125025981D01*
X121285000Y-125132321D01*
X121819609Y-125025981D01*
X122272828Y-124723149D01*
X122575660Y-124269930D01*
X122682000Y-123735321D01*
X122682000Y-122644679D01*
X122575660Y-122110070D01*
X122272828Y-121656851D01*
X121819609Y-121354019D01*
X121285000Y-121247679D01*
X120750391Y-121354019D01*
X120297172Y-121656851D01*
X120015000Y-122079150D01*
X119732828Y-121656851D01*
X119279609Y-121354019D01*
X118745000Y-121247679D01*
X118210391Y-121354019D01*
X117757172Y-121656851D01*
X117475000Y-122079150D01*
X117192828Y-121656851D01*
X116739609Y-121354019D01*
X116205000Y-121247679D01*
X115670391Y-121354019D01*
X115217172Y-121656851D01*
X114935000Y-122079150D01*
X114652828Y-121656851D01*
X114199609Y-121354019D01*
X113665000Y-121247679D01*
X113130391Y-121354019D01*
X112677172Y-121656851D01*
X112395000Y-122079150D01*
X112112828Y-121656851D01*
X111659609Y-121354019D01*
X111125000Y-121247679D01*
X110590391Y-121354019D01*
X110137172Y-121656851D01*
X109855000Y-122079150D01*
X109572828Y-121656851D01*
X109119609Y-121354019D01*
X108585000Y-121247679D01*
X108050391Y-121354019D01*
X107597172Y-121656851D01*
X107294340Y-122110070D01*
X107188000Y-122644679D01*
X104902000Y-122644679D01*
X104795660Y-122110070D01*
X104492828Y-121656851D01*
X104380354Y-121581698D01*
X104330500Y-121531844D01*
X104330500Y-120677328D01*
X104365821Y-120642069D01*
X104520824Y-120268782D01*
X104521176Y-119864592D01*
X104454695Y-119703694D01*
X114443226Y-119703694D01*
X114691538Y-120304655D01*
X115150927Y-120764846D01*
X115751453Y-121014206D01*
X116401694Y-121014774D01*
X117002655Y-120766462D01*
X117462846Y-120307073D01*
X117712206Y-119706547D01*
X117712208Y-119703694D01*
X124603226Y-119703694D01*
X124851538Y-120304655D01*
X125310927Y-120764846D01*
X125911453Y-121014206D01*
X126561694Y-121014774D01*
X127162655Y-120766462D01*
X127622846Y-120307073D01*
X127872206Y-119706547D01*
X127872774Y-119056306D01*
X127624462Y-118455345D01*
X127165073Y-117995154D01*
X126564547Y-117745794D01*
X125914306Y-117745226D01*
X125313345Y-117993538D01*
X124853154Y-118452927D01*
X124603794Y-119053453D01*
X124603226Y-119703694D01*
X117712208Y-119703694D01*
X117712774Y-119056306D01*
X117464462Y-118455345D01*
X117005073Y-117995154D01*
X116404547Y-117745794D01*
X115754306Y-117745226D01*
X115153345Y-117993538D01*
X114693154Y-118452927D01*
X114443794Y-119053453D01*
X114443226Y-119703694D01*
X104454695Y-119703694D01*
X104366825Y-119491034D01*
X104081269Y-119204979D01*
X103707982Y-119049976D01*
X103303792Y-119049624D01*
X102930234Y-119203975D01*
X102644179Y-119489531D01*
X102539729Y-119741073D01*
X102486228Y-119687572D01*
X102033009Y-119384740D01*
X101498400Y-119278400D01*
X90373482Y-119278400D01*
X89838873Y-119384740D01*
X89385654Y-119687572D01*
X85375226Y-123698000D01*
X18206256Y-123698000D01*
X17145000Y-122636744D01*
X17145000Y-117230163D01*
X115105443Y-117230163D01*
X115204042Y-117496965D01*
X115813582Y-117723401D01*
X116463377Y-117699341D01*
X116951958Y-117496965D01*
X117050557Y-117230163D01*
X116078000Y-116257605D01*
X115105443Y-117230163D01*
X17145000Y-117230163D01*
X17145000Y-114802015D01*
X18292641Y-114802015D01*
X18677746Y-115734041D01*
X19390208Y-116447748D01*
X20321561Y-116834479D01*
X21330015Y-116835359D01*
X22262041Y-116450254D01*
X22975748Y-115737792D01*
X23362479Y-114806439D01*
X23362482Y-114802015D01*
X33532641Y-114802015D01*
X33917746Y-115734041D01*
X34630208Y-116447748D01*
X35561561Y-116834479D01*
X36570015Y-116835359D01*
X37502041Y-116450254D01*
X38215748Y-115737792D01*
X38602479Y-114806439D01*
X38602482Y-114802015D01*
X48772641Y-114802015D01*
X49157746Y-115734041D01*
X49870208Y-116447748D01*
X50801561Y-116834479D01*
X51810015Y-116835359D01*
X52742041Y-116450254D01*
X53455748Y-115737792D01*
X53842479Y-114806439D01*
X53842482Y-114802015D01*
X64012641Y-114802015D01*
X64397746Y-115734041D01*
X65110208Y-116447748D01*
X66041561Y-116834479D01*
X67050015Y-116835359D01*
X67982041Y-116450254D01*
X68695748Y-115737792D01*
X69082479Y-114806439D01*
X69082482Y-114802015D01*
X79252641Y-114802015D01*
X79637746Y-115734041D01*
X80350208Y-116447748D01*
X81281561Y-116834479D01*
X82290015Y-116835359D01*
X83222041Y-116450254D01*
X83859825Y-115813582D01*
X114432599Y-115813582D01*
X114456659Y-116463377D01*
X114659035Y-116951958D01*
X114925837Y-117050557D01*
X115898395Y-116078000D01*
X116257605Y-116078000D01*
X117230163Y-117050557D01*
X117496965Y-116951958D01*
X117701380Y-116401694D01*
X124603226Y-116401694D01*
X124851538Y-117002655D01*
X125310927Y-117462846D01*
X125911453Y-117712206D01*
X126561694Y-117712774D01*
X127162655Y-117464462D01*
X127622846Y-117005073D01*
X127872206Y-116404547D01*
X127872774Y-115754306D01*
X127624462Y-115153345D01*
X127165073Y-114693154D01*
X126564547Y-114443794D01*
X125914306Y-114443226D01*
X125313345Y-114691538D01*
X124853154Y-115150927D01*
X124603794Y-115751453D01*
X124603226Y-116401694D01*
X117701380Y-116401694D01*
X117723401Y-116342418D01*
X117699341Y-115692623D01*
X117496965Y-115204042D01*
X117230163Y-115105443D01*
X116257605Y-116078000D01*
X115898395Y-116078000D01*
X114925837Y-115105443D01*
X114659035Y-115204042D01*
X114432599Y-115813582D01*
X83859825Y-115813582D01*
X83935748Y-115737792D01*
X84272900Y-114925837D01*
X115105443Y-114925837D01*
X116078000Y-115898395D01*
X117050557Y-114925837D01*
X116951958Y-114659035D01*
X116342418Y-114432599D01*
X115692623Y-114456659D01*
X115204042Y-114659035D01*
X115105443Y-114925837D01*
X84272900Y-114925837D01*
X84322479Y-114806439D01*
X84323359Y-113797985D01*
X83984222Y-112977208D01*
X111759824Y-112977208D01*
X111914175Y-113350766D01*
X112199731Y-113636821D01*
X112573018Y-113791824D01*
X112977208Y-113792176D01*
X113350766Y-113637825D01*
X113387154Y-113601500D01*
X114650568Y-113601500D01*
X114691538Y-113700655D01*
X115150927Y-114160846D01*
X115751453Y-114410206D01*
X116401694Y-114410774D01*
X117002655Y-114162462D01*
X117462846Y-113703073D01*
X117712206Y-113102547D01*
X117712208Y-113099694D01*
X124603226Y-113099694D01*
X124851538Y-113700655D01*
X125310927Y-114160846D01*
X125911453Y-114410206D01*
X126561694Y-114410774D01*
X127162655Y-114162462D01*
X127622846Y-113703073D01*
X127674743Y-113578089D01*
X129070743Y-113578089D01*
X129296344Y-114124086D01*
X129713717Y-114542188D01*
X129741557Y-114553748D01*
X129715914Y-114564344D01*
X129297812Y-114981717D01*
X129071258Y-115527319D01*
X129070743Y-116118089D01*
X129296344Y-116664086D01*
X129713717Y-117082188D01*
X129741557Y-117093748D01*
X129715914Y-117104344D01*
X129297812Y-117521717D01*
X129071258Y-118067319D01*
X129070743Y-118658089D01*
X129296344Y-119204086D01*
X129713717Y-119622188D01*
X129741557Y-119633748D01*
X129715914Y-119644344D01*
X129297812Y-120061717D01*
X129071258Y-120607319D01*
X129070743Y-121198089D01*
X129296344Y-121744086D01*
X129713717Y-122162188D01*
X130259319Y-122388742D01*
X130850089Y-122389257D01*
X131396086Y-122163656D01*
X131814188Y-121746283D01*
X131825748Y-121718443D01*
X131836344Y-121744086D01*
X132253717Y-122162188D01*
X132799319Y-122388742D01*
X133390089Y-122389257D01*
X133936086Y-122163656D01*
X134354188Y-121746283D01*
X134580742Y-121200681D01*
X134581257Y-120609911D01*
X134355656Y-120063914D01*
X133938283Y-119645812D01*
X133910443Y-119634252D01*
X133936086Y-119623656D01*
X134354188Y-119206283D01*
X134580742Y-118660681D01*
X134581257Y-118069911D01*
X134355656Y-117523914D01*
X133938283Y-117105812D01*
X133910443Y-117094252D01*
X133936086Y-117083656D01*
X134354188Y-116666283D01*
X134580742Y-116120681D01*
X134581257Y-115529911D01*
X134355656Y-114983914D01*
X133938283Y-114565812D01*
X133890688Y-114546049D01*
X133960353Y-114327958D01*
X133096000Y-113463605D01*
X132231647Y-114327958D01*
X132301181Y-114545640D01*
X132255914Y-114564344D01*
X131837812Y-114981717D01*
X131826252Y-115009557D01*
X131815656Y-114983914D01*
X131398283Y-114565812D01*
X131370443Y-114554252D01*
X131396086Y-114543656D01*
X131814188Y-114126283D01*
X131833951Y-114078688D01*
X132052042Y-114148353D01*
X132916395Y-113284000D01*
X133275605Y-113284000D01*
X134139958Y-114148353D01*
X134391259Y-114068080D01*
X134592718Y-113512721D01*
X134566315Y-112922542D01*
X134391259Y-112499920D01*
X134139958Y-112419647D01*
X133275605Y-113284000D01*
X132916395Y-113284000D01*
X132052042Y-112419647D01*
X131834360Y-112489181D01*
X131815656Y-112443914D01*
X131612140Y-112240042D01*
X132231647Y-112240042D01*
X133096000Y-113104395D01*
X133960353Y-112240042D01*
X133880080Y-111988741D01*
X133324721Y-111787282D01*
X132734542Y-111813685D01*
X132311920Y-111988741D01*
X132231647Y-112240042D01*
X131612140Y-112240042D01*
X131398283Y-112025812D01*
X130852681Y-111799258D01*
X130261911Y-111798743D01*
X129715914Y-112024344D01*
X129297812Y-112441717D01*
X129071258Y-112987319D01*
X129070743Y-113578089D01*
X127674743Y-113578089D01*
X127872206Y-113102547D01*
X127872774Y-112452306D01*
X127624462Y-111851345D01*
X127165073Y-111391154D01*
X126564547Y-111141794D01*
X125914306Y-111141226D01*
X125313345Y-111389538D01*
X124853154Y-111848927D01*
X124603794Y-112449453D01*
X124603226Y-113099694D01*
X117712208Y-113099694D01*
X117712774Y-112452306D01*
X117464462Y-111851345D01*
X117005073Y-111391154D01*
X116404547Y-111141794D01*
X115754306Y-111141226D01*
X115153345Y-111389538D01*
X114693154Y-111848927D01*
X114650977Y-111950500D01*
X113387528Y-111950500D01*
X113352269Y-111915179D01*
X112978982Y-111760176D01*
X112574792Y-111759824D01*
X112201234Y-111914175D01*
X111915179Y-112199731D01*
X111760176Y-112573018D01*
X111759824Y-112977208D01*
X83984222Y-112977208D01*
X83938254Y-112865959D01*
X83225792Y-112152252D01*
X82294439Y-111765521D01*
X81285985Y-111764641D01*
X80353959Y-112149746D01*
X79640252Y-112862208D01*
X79253521Y-113793561D01*
X79252641Y-114802015D01*
X69082482Y-114802015D01*
X69083359Y-113797985D01*
X68698254Y-112865959D01*
X67985792Y-112152252D01*
X67054439Y-111765521D01*
X66045985Y-111764641D01*
X65113959Y-112149746D01*
X64400252Y-112862208D01*
X64013521Y-113793561D01*
X64012641Y-114802015D01*
X53842482Y-114802015D01*
X53843359Y-113797985D01*
X53458254Y-112865959D01*
X52745792Y-112152252D01*
X51814439Y-111765521D01*
X50805985Y-111764641D01*
X49873959Y-112149746D01*
X49160252Y-112862208D01*
X48773521Y-113793561D01*
X48772641Y-114802015D01*
X38602482Y-114802015D01*
X38603359Y-113797985D01*
X38218254Y-112865959D01*
X37505792Y-112152252D01*
X36574439Y-111765521D01*
X35565985Y-111764641D01*
X34633959Y-112149746D01*
X33920252Y-112862208D01*
X33533521Y-113793561D01*
X33532641Y-114802015D01*
X23362482Y-114802015D01*
X23363359Y-113797985D01*
X22978254Y-112865959D01*
X22265792Y-112152252D01*
X21334439Y-111765521D01*
X20325985Y-111764641D01*
X19393959Y-112149746D01*
X18680252Y-112862208D01*
X18293521Y-113793561D01*
X18292641Y-114802015D01*
X17145000Y-114802015D01*
X17145000Y-109797694D01*
X114443226Y-109797694D01*
X114691538Y-110398655D01*
X115150927Y-110858846D01*
X115751453Y-111108206D01*
X116401694Y-111108774D01*
X117002655Y-110860462D01*
X117462846Y-110401073D01*
X117712206Y-109800547D01*
X117712208Y-109797694D01*
X124603226Y-109797694D01*
X124851538Y-110398655D01*
X125310927Y-110858846D01*
X125911453Y-111108206D01*
X126561694Y-111108774D01*
X127162655Y-110860462D01*
X127622846Y-110401073D01*
X127872206Y-109800547D01*
X127872774Y-109150306D01*
X127624462Y-108549345D01*
X127165073Y-108089154D01*
X126564547Y-107839794D01*
X125914306Y-107839226D01*
X125313345Y-108087538D01*
X124853154Y-108546927D01*
X124603794Y-109147453D01*
X124603226Y-109797694D01*
X117712208Y-109797694D01*
X117712774Y-109150306D01*
X117464462Y-108549345D01*
X117005073Y-108089154D01*
X116404547Y-107839794D01*
X115754306Y-107839226D01*
X115153345Y-108087538D01*
X114693154Y-108546927D01*
X114443794Y-109147453D01*
X114443226Y-109797694D01*
X17145000Y-109797694D01*
X17145000Y-105940661D01*
X117220758Y-105940661D01*
X117432990Y-106454303D01*
X117825630Y-106847629D01*
X118338900Y-107060757D01*
X118894661Y-107061242D01*
X119408303Y-106849010D01*
X119801629Y-106456370D01*
X119887949Y-106248488D01*
X119972990Y-106454303D01*
X120365630Y-106847629D01*
X120878900Y-107060757D01*
X121434661Y-107061242D01*
X121948303Y-106849010D01*
X122341629Y-106456370D01*
X122427949Y-106248488D01*
X122512990Y-106454303D01*
X122905630Y-106847629D01*
X123418900Y-107060757D01*
X123974661Y-107061242D01*
X124488303Y-106849010D01*
X124881629Y-106456370D01*
X125094757Y-105943100D01*
X125095242Y-105387339D01*
X124894705Y-104902000D01*
X146652655Y-104902000D01*
X146778330Y-105533810D01*
X147136222Y-106069433D01*
X147671845Y-106427325D01*
X148303655Y-106553000D01*
X148368345Y-106553000D01*
X149000155Y-106427325D01*
X149535778Y-106069433D01*
X149893670Y-105533810D01*
X150019345Y-104902000D01*
X149893670Y-104270190D01*
X149669034Y-103933999D01*
X149711698Y-103916327D01*
X149890327Y-103737699D01*
X149987000Y-103504310D01*
X149987000Y-102647750D01*
X149828250Y-102489000D01*
X148463000Y-102489000D01*
X148463000Y-102509000D01*
X148209000Y-102509000D01*
X148209000Y-102489000D01*
X146843750Y-102489000D01*
X146685000Y-102647750D01*
X146685000Y-103504310D01*
X146781673Y-103737699D01*
X146960302Y-103916327D01*
X147002966Y-103933999D01*
X146778330Y-104270190D01*
X146652655Y-104902000D01*
X124894705Y-104902000D01*
X124883010Y-104873697D01*
X124490370Y-104480371D01*
X123977100Y-104267243D01*
X123421339Y-104266758D01*
X122907697Y-104478990D01*
X122514371Y-104871630D01*
X122428051Y-105079512D01*
X122343010Y-104873697D01*
X121950370Y-104480371D01*
X121437100Y-104267243D01*
X120881339Y-104266758D01*
X120367697Y-104478990D01*
X119974371Y-104871630D01*
X119888051Y-105079512D01*
X119803010Y-104873697D01*
X119410370Y-104480371D01*
X118897100Y-104267243D01*
X118341339Y-104266758D01*
X117827697Y-104478990D01*
X117434371Y-104871630D01*
X117221243Y-105384900D01*
X117220758Y-105940661D01*
X17145000Y-105940661D01*
X17145000Y-104646008D01*
X105714624Y-104646008D01*
X105868975Y-105019566D01*
X106154531Y-105305621D01*
X106527818Y-105460624D01*
X106932008Y-105460976D01*
X107305566Y-105306625D01*
X107341954Y-105270300D01*
X110103624Y-105270300D01*
X110134294Y-105301024D01*
X110507581Y-105456027D01*
X110911771Y-105456379D01*
X111285329Y-105302028D01*
X111571384Y-105016472D01*
X111726387Y-104643185D01*
X111726739Y-104238995D01*
X111572388Y-103865437D01*
X111286832Y-103579382D01*
X110913545Y-103424379D01*
X110509355Y-103424027D01*
X110135797Y-103578378D01*
X110094803Y-103619300D01*
X107342328Y-103619300D01*
X107307069Y-103583979D01*
X106933782Y-103428976D01*
X106529592Y-103428624D01*
X106156034Y-103582975D01*
X105869979Y-103868531D01*
X105714976Y-104241818D01*
X105714624Y-104646008D01*
X17145000Y-104646008D01*
X17145000Y-104369754D01*
X60194019Y-104369754D01*
X60728628Y-104263414D01*
X61181847Y-103960582D01*
X61947828Y-103194601D01*
X62250660Y-102741382D01*
X62357000Y-102206773D01*
X62357000Y-97663000D01*
X62523370Y-97663000D01*
X62523370Y-98563430D01*
X62684982Y-99121906D01*
X63048011Y-99576024D01*
X63557190Y-99856649D01*
X63651168Y-99877540D01*
X63881000Y-99756214D01*
X63881000Y-97663000D01*
X62523370Y-97663000D01*
X62357000Y-97663000D01*
X62357000Y-96508570D01*
X62523370Y-96508570D01*
X62523370Y-97409000D01*
X63881000Y-97409000D01*
X63881000Y-95315786D01*
X64135000Y-95315786D01*
X64135000Y-97409000D01*
X64155000Y-97409000D01*
X64155000Y-97663000D01*
X64135000Y-97663000D01*
X64135000Y-99756214D01*
X64364832Y-99877540D01*
X64458810Y-99856649D01*
X64967989Y-99576024D01*
X65272484Y-99195127D01*
X65498208Y-99532948D01*
X65979857Y-99854775D01*
X66548000Y-99967786D01*
X67116143Y-99854775D01*
X67597792Y-99532948D01*
X67818000Y-99203383D01*
X68038208Y-99532948D01*
X68519857Y-99854775D01*
X69088000Y-99967786D01*
X69656143Y-99854775D01*
X70137792Y-99532948D01*
X70459619Y-99051299D01*
X70572630Y-98483156D01*
X70572630Y-97663000D01*
X77763370Y-97663000D01*
X77763370Y-98563430D01*
X77924982Y-99121906D01*
X78288011Y-99576024D01*
X78797190Y-99856649D01*
X78891168Y-99877540D01*
X79121000Y-99756214D01*
X79121000Y-97663000D01*
X77763370Y-97663000D01*
X70572630Y-97663000D01*
X70572630Y-96588844D01*
X70556663Y-96508570D01*
X77763370Y-96508570D01*
X77763370Y-97409000D01*
X79121000Y-97409000D01*
X79121000Y-95315786D01*
X79375000Y-95315786D01*
X79375000Y-97409000D01*
X79395000Y-97409000D01*
X79395000Y-97663000D01*
X79375000Y-97663000D01*
X79375000Y-99756214D01*
X79604832Y-99877540D01*
X79698810Y-99856649D01*
X80207989Y-99576024D01*
X80512484Y-99195127D01*
X80738208Y-99532948D01*
X81219857Y-99854775D01*
X81788000Y-99967786D01*
X82356143Y-99854775D01*
X82837792Y-99532948D01*
X83058000Y-99203383D01*
X83278208Y-99532948D01*
X83759857Y-99854775D01*
X84328000Y-99967786D01*
X84896143Y-99854775D01*
X85377792Y-99532948D01*
X85699619Y-99051299D01*
X85812630Y-98483156D01*
X85812630Y-96588844D01*
X85699619Y-96020701D01*
X85624588Y-95908408D01*
X127558624Y-95908408D01*
X127712975Y-96281966D01*
X127749300Y-96318354D01*
X127749300Y-99769272D01*
X127713979Y-99804531D01*
X127558976Y-100177818D01*
X127558624Y-100582008D01*
X127712975Y-100955566D01*
X127998531Y-101241621D01*
X128371818Y-101396624D01*
X128776008Y-101396976D01*
X129031164Y-101291548D01*
X129368311Y-101431544D01*
X129772501Y-101431896D01*
X130146059Y-101277545D01*
X130204015Y-101219690D01*
X146685000Y-101219690D01*
X146685000Y-102076250D01*
X146843750Y-102235000D01*
X148209000Y-102235000D01*
X148209000Y-100869750D01*
X148463000Y-100869750D01*
X148463000Y-102235000D01*
X149828250Y-102235000D01*
X149987000Y-102076250D01*
X149987000Y-101219690D01*
X149890327Y-100986301D01*
X149711698Y-100807673D01*
X149478309Y-100711000D01*
X148621750Y-100711000D01*
X148463000Y-100869750D01*
X148209000Y-100869750D01*
X148050250Y-100711000D01*
X147193691Y-100711000D01*
X146960302Y-100807673D01*
X146781673Y-100986301D01*
X146685000Y-101219690D01*
X130204015Y-101219690D01*
X130432114Y-100991989D01*
X130587117Y-100618702D01*
X130587469Y-100214512D01*
X130433118Y-99840954D01*
X130365500Y-99773218D01*
X130365500Y-97538000D01*
X145912560Y-97538000D01*
X145912560Y-99058000D01*
X145956838Y-99293317D01*
X146095910Y-99509441D01*
X146308110Y-99654431D01*
X146560000Y-99705440D01*
X148080000Y-99705440D01*
X148315317Y-99661162D01*
X148531441Y-99522090D01*
X148676431Y-99309890D01*
X148713969Y-99124520D01*
X149068764Y-99479934D01*
X149581300Y-99692758D01*
X150136265Y-99693242D01*
X150649172Y-99481313D01*
X150854078Y-99276764D01*
X151600841Y-99276764D01*
X151670059Y-99518742D01*
X152192780Y-99705155D01*
X152747049Y-99677341D01*
X153129941Y-99518742D01*
X153199159Y-99276764D01*
X152400000Y-98477605D01*
X151600841Y-99276764D01*
X150854078Y-99276764D01*
X151041934Y-99089236D01*
X151123391Y-98893066D01*
X151179258Y-99027941D01*
X151421236Y-99097159D01*
X152220395Y-98298000D01*
X151421236Y-97498841D01*
X151179258Y-97568059D01*
X151127618Y-97712862D01*
X151043313Y-97508828D01*
X150854052Y-97319236D01*
X151600841Y-97319236D01*
X152400000Y-98118395D01*
X153199159Y-97319236D01*
X153129941Y-97077258D01*
X152607220Y-96890845D01*
X152052951Y-96918659D01*
X151670059Y-97077258D01*
X151600841Y-97319236D01*
X150854052Y-97319236D01*
X150651236Y-97116066D01*
X150138700Y-96903242D01*
X149583735Y-96902758D01*
X149070828Y-97114687D01*
X148714684Y-97470210D01*
X148683162Y-97302683D01*
X148544090Y-97086559D01*
X148331890Y-96941569D01*
X148080000Y-96890560D01*
X146560000Y-96890560D01*
X146324683Y-96934838D01*
X146108559Y-97073910D01*
X145963569Y-97286110D01*
X145912560Y-97538000D01*
X130365500Y-97538000D01*
X130365500Y-96344128D01*
X130400821Y-96308869D01*
X130555824Y-95935582D01*
X130556176Y-95531392D01*
X130468705Y-95319694D01*
X132731226Y-95319694D01*
X132979538Y-95920655D01*
X133438927Y-96380846D01*
X134039453Y-96630206D01*
X134689694Y-96630774D01*
X135290655Y-96382462D01*
X135750846Y-95923073D01*
X136000206Y-95322547D01*
X136000208Y-95319694D01*
X142891226Y-95319694D01*
X143139538Y-95920655D01*
X143598927Y-96380846D01*
X144199453Y-96630206D01*
X144849694Y-96630774D01*
X145450655Y-96382462D01*
X145910846Y-95923073D01*
X146160206Y-95322547D01*
X146160774Y-94672306D01*
X145912462Y-94071345D01*
X145453073Y-93611154D01*
X144852547Y-93361794D01*
X144202306Y-93361226D01*
X143601345Y-93609538D01*
X143141154Y-94068927D01*
X142891794Y-94669453D01*
X142891226Y-95319694D01*
X136000208Y-95319694D01*
X136000774Y-94672306D01*
X135752462Y-94071345D01*
X135293073Y-93611154D01*
X134692547Y-93361794D01*
X134042306Y-93361226D01*
X133441345Y-93609538D01*
X132981154Y-94068927D01*
X132731794Y-94669453D01*
X132731226Y-95319694D01*
X130468705Y-95319694D01*
X130401825Y-95157834D01*
X130116269Y-94871779D01*
X129742982Y-94716776D01*
X129338792Y-94716424D01*
X129087830Y-94820120D01*
X128777782Y-94691376D01*
X128373592Y-94691024D01*
X128000034Y-94845375D01*
X127713979Y-95130931D01*
X127558976Y-95504218D01*
X127558624Y-95908408D01*
X85624588Y-95908408D01*
X85377792Y-95539052D01*
X84896143Y-95217225D01*
X84328000Y-95104214D01*
X83759857Y-95217225D01*
X83278208Y-95539052D01*
X83058000Y-95868617D01*
X82837792Y-95539052D01*
X82356143Y-95217225D01*
X81788000Y-95104214D01*
X81219857Y-95217225D01*
X80738208Y-95539052D01*
X80512484Y-95876873D01*
X80207989Y-95495976D01*
X79698810Y-95215351D01*
X79604832Y-95194460D01*
X79375000Y-95315786D01*
X79121000Y-95315786D01*
X78891168Y-95194460D01*
X78797190Y-95215351D01*
X78288011Y-95495976D01*
X77924982Y-95950094D01*
X77763370Y-96508570D01*
X70556663Y-96508570D01*
X70459619Y-96020701D01*
X70137792Y-95539052D01*
X69656143Y-95217225D01*
X69088000Y-95104214D01*
X68519857Y-95217225D01*
X68038208Y-95539052D01*
X67818000Y-95868617D01*
X67597792Y-95539052D01*
X67116143Y-95217225D01*
X66548000Y-95104214D01*
X65979857Y-95217225D01*
X65498208Y-95539052D01*
X65272484Y-95876873D01*
X64967989Y-95495976D01*
X64458810Y-95215351D01*
X64364832Y-95194460D01*
X64135000Y-95315786D01*
X63881000Y-95315786D01*
X63651168Y-95194460D01*
X63557190Y-95215351D01*
X63048011Y-95495976D01*
X62684982Y-95950094D01*
X62523370Y-96508570D01*
X62357000Y-96508570D01*
X62357000Y-94645323D01*
X62406061Y-94573520D01*
X62457070Y-94321630D01*
X62457070Y-93766016D01*
X69635112Y-93766016D01*
X69860658Y-94311877D01*
X70277926Y-94729874D01*
X70823393Y-94956372D01*
X71414016Y-94956888D01*
X71959877Y-94731342D01*
X72377874Y-94314074D01*
X72425983Y-94198213D01*
X100037392Y-94198213D01*
X100106857Y-94440397D01*
X100630302Y-94627144D01*
X101185368Y-94599362D01*
X101569143Y-94440397D01*
X101638608Y-94198213D01*
X100838000Y-93397605D01*
X100037392Y-94198213D01*
X72425983Y-94198213D01*
X72604372Y-93768607D01*
X72604888Y-93177984D01*
X72535603Y-93010302D01*
X99428856Y-93010302D01*
X99456638Y-93565368D01*
X99615603Y-93949143D01*
X99857787Y-94018608D01*
X100658395Y-93218000D01*
X101017605Y-93218000D01*
X101818213Y-94018608D01*
X102060397Y-93949143D01*
X102110509Y-93808682D01*
X102192990Y-94008303D01*
X102585630Y-94401629D01*
X103098900Y-94614757D01*
X103654661Y-94615242D01*
X104168303Y-94403010D01*
X104561629Y-94010370D01*
X104647949Y-93802488D01*
X104732990Y-94008303D01*
X105125630Y-94401629D01*
X105638900Y-94614757D01*
X106194661Y-94615242D01*
X106708303Y-94403010D01*
X106888013Y-94223613D01*
X107911392Y-94223613D01*
X107980857Y-94465797D01*
X108504302Y-94652544D01*
X109059368Y-94624762D01*
X109443143Y-94465797D01*
X109512608Y-94223613D01*
X108712000Y-93423005D01*
X107911392Y-94223613D01*
X106888013Y-94223613D01*
X107101629Y-94010370D01*
X107314757Y-93497100D01*
X107314949Y-93277308D01*
X107330638Y-93590768D01*
X107489603Y-93974543D01*
X107731787Y-94044008D01*
X108532395Y-93243400D01*
X107731787Y-92442792D01*
X107489603Y-92512257D01*
X107315190Y-93001131D01*
X107315242Y-92941339D01*
X107103010Y-92427697D01*
X106710370Y-92034371D01*
X106197100Y-91821243D01*
X105641339Y-91820758D01*
X105127697Y-92032990D01*
X104734371Y-92425630D01*
X104648051Y-92633512D01*
X104563010Y-92427697D01*
X104170370Y-92034371D01*
X103657100Y-91821243D01*
X103101339Y-91820758D01*
X102587697Y-92032990D01*
X102194371Y-92425630D01*
X102114605Y-92617727D01*
X102060397Y-92486857D01*
X101818213Y-92417392D01*
X101017605Y-93218000D01*
X100658395Y-93218000D01*
X99857787Y-92417392D01*
X99615603Y-92486857D01*
X99428856Y-93010302D01*
X72535603Y-93010302D01*
X72379342Y-92632123D01*
X71985694Y-92237787D01*
X100037392Y-92237787D01*
X100838000Y-93038395D01*
X101638608Y-92237787D01*
X101569143Y-91995603D01*
X101045698Y-91808856D01*
X100490632Y-91836638D01*
X100106857Y-91995603D01*
X100037392Y-92237787D01*
X71985694Y-92237787D01*
X71962074Y-92214126D01*
X71416607Y-91987628D01*
X70825984Y-91987112D01*
X70280123Y-92212658D01*
X69862126Y-92629926D01*
X69635628Y-93175393D01*
X69635112Y-93766016D01*
X62457070Y-93766016D01*
X62457070Y-92622370D01*
X62412792Y-92387053D01*
X62273720Y-92170929D01*
X62061520Y-92025939D01*
X61809630Y-91974930D01*
X60110370Y-91974930D01*
X59875053Y-92019208D01*
X59658929Y-92158280D01*
X59513939Y-92370480D01*
X59462930Y-92622370D01*
X59462930Y-94321630D01*
X59507208Y-94556947D01*
X59563000Y-94643650D01*
X59563000Y-101575754D01*
X44602400Y-101575754D01*
X44602400Y-97663000D01*
X47283370Y-97663000D01*
X47283370Y-98563430D01*
X47444982Y-99121906D01*
X47808011Y-99576024D01*
X48317190Y-99856649D01*
X48411168Y-99877540D01*
X48641000Y-99756214D01*
X48641000Y-97663000D01*
X47283370Y-97663000D01*
X44602400Y-97663000D01*
X44602400Y-96508570D01*
X47283370Y-96508570D01*
X47283370Y-97409000D01*
X48641000Y-97409000D01*
X48641000Y-95315786D01*
X48895000Y-95315786D01*
X48895000Y-97409000D01*
X48915000Y-97409000D01*
X48915000Y-97663000D01*
X48895000Y-97663000D01*
X48895000Y-99756214D01*
X49124832Y-99877540D01*
X49218810Y-99856649D01*
X49727989Y-99576024D01*
X50032484Y-99195127D01*
X50258208Y-99532948D01*
X50739857Y-99854775D01*
X51308000Y-99967786D01*
X51876143Y-99854775D01*
X52357792Y-99532948D01*
X52578000Y-99203383D01*
X52798208Y-99532948D01*
X53279857Y-99854775D01*
X53848000Y-99967786D01*
X54416143Y-99854775D01*
X54897792Y-99532948D01*
X55219619Y-99051299D01*
X55332630Y-98483156D01*
X55332630Y-96588844D01*
X55219619Y-96020701D01*
X54897792Y-95539052D01*
X54416143Y-95217225D01*
X53848000Y-95104214D01*
X53279857Y-95217225D01*
X52798208Y-95539052D01*
X52578000Y-95868617D01*
X52357792Y-95539052D01*
X51876143Y-95217225D01*
X51308000Y-95104214D01*
X50739857Y-95217225D01*
X50258208Y-95539052D01*
X50032484Y-95876873D01*
X49727989Y-95495976D01*
X49218810Y-95215351D01*
X49124832Y-95194460D01*
X48895000Y-95315786D01*
X48641000Y-95315786D01*
X48411168Y-95194460D01*
X48317190Y-95215351D01*
X47808011Y-95495976D01*
X47444982Y-95950094D01*
X47283370Y-96508570D01*
X44602400Y-96508570D01*
X44602400Y-94866460D01*
X45055197Y-94866460D01*
X45127000Y-94915521D01*
X45378890Y-94966530D01*
X47078150Y-94966530D01*
X47313467Y-94922252D01*
X47529591Y-94783180D01*
X47674581Y-94570980D01*
X47725590Y-94319090D01*
X47725590Y-93763476D01*
X54903632Y-93763476D01*
X55129178Y-94309337D01*
X55546446Y-94727334D01*
X56091913Y-94953832D01*
X56682536Y-94954348D01*
X57228397Y-94728802D01*
X57646394Y-94311534D01*
X57872892Y-93766067D01*
X57873408Y-93175444D01*
X57647862Y-92629583D01*
X57230594Y-92211586D01*
X56685127Y-91985088D01*
X56094504Y-91984572D01*
X55548643Y-92210118D01*
X55130646Y-92627386D01*
X54904148Y-93172853D01*
X54903632Y-93763476D01*
X47725590Y-93763476D01*
X47725590Y-92619830D01*
X47681312Y-92384513D01*
X47542240Y-92168389D01*
X47330040Y-92023399D01*
X47078150Y-91972390D01*
X45378890Y-91972390D01*
X45143573Y-92016668D01*
X45056870Y-92072460D01*
X43854890Y-92072460D01*
X43320281Y-92178800D01*
X43008609Y-92387053D01*
X42867062Y-92481632D01*
X42497755Y-92850939D01*
X42407342Y-92632123D01*
X41990074Y-92214126D01*
X41444607Y-91987628D01*
X40853984Y-91987112D01*
X40308123Y-92212658D01*
X39890126Y-92629926D01*
X39663628Y-93175393D01*
X39663112Y-93766016D01*
X39888658Y-94311877D01*
X40305926Y-94729874D01*
X40851393Y-94956372D01*
X41442016Y-94956888D01*
X41808400Y-94805501D01*
X41808400Y-101575754D01*
X29514800Y-101575754D01*
X29514800Y-97663000D01*
X32043370Y-97663000D01*
X32043370Y-98563430D01*
X32204982Y-99121906D01*
X32568011Y-99576024D01*
X33077190Y-99856649D01*
X33171168Y-99877540D01*
X33401000Y-99756214D01*
X33401000Y-97663000D01*
X32043370Y-97663000D01*
X29514800Y-97663000D01*
X29514800Y-96508570D01*
X32043370Y-96508570D01*
X32043370Y-97409000D01*
X33401000Y-97409000D01*
X33401000Y-95315786D01*
X33655000Y-95315786D01*
X33655000Y-97409000D01*
X33675000Y-97409000D01*
X33675000Y-97663000D01*
X33655000Y-97663000D01*
X33655000Y-99756214D01*
X33884832Y-99877540D01*
X33978810Y-99856649D01*
X34487989Y-99576024D01*
X34792484Y-99195127D01*
X35018208Y-99532948D01*
X35499857Y-99854775D01*
X36068000Y-99967786D01*
X36636143Y-99854775D01*
X37117792Y-99532948D01*
X37338000Y-99203383D01*
X37558208Y-99532948D01*
X38039857Y-99854775D01*
X38608000Y-99967786D01*
X39176143Y-99854775D01*
X39657792Y-99532948D01*
X39979619Y-99051299D01*
X40092630Y-98483156D01*
X40092630Y-96588844D01*
X39979619Y-96020701D01*
X39657792Y-95539052D01*
X39176143Y-95217225D01*
X38608000Y-95104214D01*
X38039857Y-95217225D01*
X37558208Y-95539052D01*
X37338000Y-95868617D01*
X37117792Y-95539052D01*
X36636143Y-95217225D01*
X36068000Y-95104214D01*
X35499857Y-95217225D01*
X35018208Y-95539052D01*
X34792484Y-95876873D01*
X34487989Y-95495976D01*
X33978810Y-95215351D01*
X33884832Y-95194460D01*
X33655000Y-95315786D01*
X33401000Y-95315786D01*
X33171168Y-95194460D01*
X33077190Y-95215351D01*
X32568011Y-95495976D01*
X32204982Y-95950094D01*
X32043370Y-96508570D01*
X29514800Y-96508570D01*
X29514800Y-94869000D01*
X29814677Y-94869000D01*
X29886480Y-94918061D01*
X30138370Y-94969070D01*
X31837630Y-94969070D01*
X32072947Y-94924792D01*
X32289071Y-94785720D01*
X32434061Y-94573520D01*
X32485070Y-94321630D01*
X32485070Y-92622370D01*
X32440792Y-92387053D01*
X32301720Y-92170929D01*
X32089520Y-92025939D01*
X31837630Y-91974930D01*
X30138370Y-91974930D01*
X29903053Y-92019208D01*
X29816350Y-92075000D01*
X28614370Y-92075000D01*
X28079761Y-92181340D01*
X27626542Y-92484172D01*
X27258346Y-92852368D01*
X27167342Y-92632123D01*
X26750074Y-92214126D01*
X26204607Y-91987628D01*
X25613984Y-91987112D01*
X25068123Y-92212658D01*
X24650126Y-92629926D01*
X24423628Y-93175393D01*
X24423112Y-93766016D01*
X24648658Y-94311877D01*
X25065926Y-94729874D01*
X25611393Y-94956372D01*
X26202016Y-94956888D01*
X26720800Y-94742530D01*
X26720800Y-101575754D01*
X17145000Y-101575754D01*
X17145000Y-99347093D01*
X17328011Y-99576024D01*
X17837190Y-99856649D01*
X17931168Y-99877540D01*
X18161000Y-99756214D01*
X18161000Y-97663000D01*
X18141000Y-97663000D01*
X18141000Y-97409000D01*
X18161000Y-97409000D01*
X18161000Y-95315786D01*
X18415000Y-95315786D01*
X18415000Y-97409000D01*
X18435000Y-97409000D01*
X18435000Y-97663000D01*
X18415000Y-97663000D01*
X18415000Y-99756214D01*
X18644832Y-99877540D01*
X18738810Y-99856649D01*
X19247989Y-99576024D01*
X19552484Y-99195127D01*
X19778208Y-99532948D01*
X20259857Y-99854775D01*
X20828000Y-99967786D01*
X21396143Y-99854775D01*
X21877792Y-99532948D01*
X22098000Y-99203383D01*
X22318208Y-99532948D01*
X22799857Y-99854775D01*
X23368000Y-99967786D01*
X23936143Y-99854775D01*
X24417792Y-99532948D01*
X24739619Y-99051299D01*
X24852630Y-98483156D01*
X24852630Y-96588844D01*
X24739619Y-96020701D01*
X24417792Y-95539052D01*
X23936143Y-95217225D01*
X23368000Y-95104214D01*
X22799857Y-95217225D01*
X22318208Y-95539052D01*
X22098000Y-95868617D01*
X21877792Y-95539052D01*
X21396143Y-95217225D01*
X20828000Y-95104214D01*
X20259857Y-95217225D01*
X19778208Y-95539052D01*
X19552484Y-95876873D01*
X19247989Y-95495976D01*
X18738810Y-95215351D01*
X18644832Y-95194460D01*
X18415000Y-95315786D01*
X18161000Y-95315786D01*
X17931168Y-95194460D01*
X17837190Y-95215351D01*
X17328011Y-95495976D01*
X17145000Y-95724907D01*
X17145000Y-94645323D01*
X17194061Y-94573520D01*
X17245070Y-94321630D01*
X17245070Y-92622370D01*
X17200792Y-92387053D01*
X17061720Y-92170929D01*
X16849520Y-92025939D01*
X16597630Y-91974930D01*
X14898370Y-91974930D01*
X14680000Y-92016019D01*
X14680000Y-89798163D01*
X82085443Y-89798163D01*
X82184042Y-90064965D01*
X82793582Y-90291401D01*
X83443377Y-90267341D01*
X83931958Y-90064965D01*
X84030557Y-89798163D01*
X85387443Y-89798163D01*
X85486042Y-90064965D01*
X86095582Y-90291401D01*
X86745377Y-90267341D01*
X87233958Y-90064965D01*
X87332557Y-89798163D01*
X86360000Y-88825605D01*
X85387443Y-89798163D01*
X84030557Y-89798163D01*
X83058000Y-88825605D01*
X82085443Y-89798163D01*
X14680000Y-89798163D01*
X14680000Y-87234000D01*
X18046560Y-87234000D01*
X18046560Y-88534000D01*
X18090838Y-88769317D01*
X18229910Y-88985441D01*
X18442110Y-89130431D01*
X18694000Y-89181440D01*
X19994000Y-89181440D01*
X20229317Y-89137162D01*
X20445441Y-88998090D01*
X20590431Y-88785890D01*
X20641440Y-88534000D01*
X20641440Y-88338540D01*
X20753995Y-88610943D01*
X21115155Y-88972735D01*
X21587276Y-89168777D01*
X22098481Y-89169223D01*
X22570943Y-88974005D01*
X22932735Y-88612845D01*
X23128777Y-88140724D01*
X23129223Y-87629519D01*
X22965798Y-87234000D01*
X33286560Y-87234000D01*
X33286560Y-88534000D01*
X33330838Y-88769317D01*
X33469910Y-88985441D01*
X33682110Y-89130431D01*
X33934000Y-89181440D01*
X35234000Y-89181440D01*
X35469317Y-89137162D01*
X35685441Y-88998090D01*
X35830431Y-88785890D01*
X35881440Y-88534000D01*
X35881440Y-88338540D01*
X35993995Y-88610943D01*
X36355155Y-88972735D01*
X36827276Y-89168777D01*
X37338481Y-89169223D01*
X37810943Y-88974005D01*
X38172735Y-88612845D01*
X38368777Y-88140724D01*
X38369223Y-87629519D01*
X38205798Y-87234000D01*
X48486560Y-87234000D01*
X48486560Y-88534000D01*
X48530838Y-88769317D01*
X48669910Y-88985441D01*
X48882110Y-89130431D01*
X49134000Y-89181440D01*
X50434000Y-89181440D01*
X50669317Y-89137162D01*
X50885441Y-88998090D01*
X51030431Y-88785890D01*
X51081440Y-88534000D01*
X51081440Y-88338540D01*
X51193995Y-88610943D01*
X51555155Y-88972735D01*
X52027276Y-89168777D01*
X52538481Y-89169223D01*
X53010943Y-88974005D01*
X53372735Y-88612845D01*
X53568777Y-88140724D01*
X53569223Y-87629519D01*
X53405798Y-87234000D01*
X63726560Y-87234000D01*
X63726560Y-88534000D01*
X63770838Y-88769317D01*
X63909910Y-88985441D01*
X64122110Y-89130431D01*
X64374000Y-89181440D01*
X65674000Y-89181440D01*
X65909317Y-89137162D01*
X66125441Y-88998090D01*
X66270431Y-88785890D01*
X66321440Y-88534000D01*
X66321440Y-88338540D01*
X66433995Y-88610943D01*
X66795155Y-88972735D01*
X67267276Y-89168777D01*
X67778481Y-89169223D01*
X68250943Y-88974005D01*
X68612735Y-88612845D01*
X68708763Y-88381582D01*
X81412599Y-88381582D01*
X81436659Y-89031377D01*
X81639035Y-89519958D01*
X81905837Y-89618557D01*
X82878395Y-88646000D01*
X83237605Y-88646000D01*
X84210163Y-89618557D01*
X84476965Y-89519958D01*
X84703401Y-88910418D01*
X84683820Y-88381582D01*
X84714599Y-88381582D01*
X84738659Y-89031377D01*
X84941035Y-89519958D01*
X85207837Y-89618557D01*
X86180395Y-88646000D01*
X86539605Y-88646000D01*
X87512163Y-89618557D01*
X87778965Y-89519958D01*
X88005401Y-88910418D01*
X87985820Y-88381582D01*
X88016599Y-88381582D01*
X88040659Y-89031377D01*
X88243035Y-89519958D01*
X88509837Y-89618557D01*
X89482395Y-88646000D01*
X88509837Y-87673443D01*
X88243035Y-87772042D01*
X88016599Y-88381582D01*
X87985820Y-88381582D01*
X87981341Y-88260623D01*
X87778965Y-87772042D01*
X87512163Y-87673443D01*
X86539605Y-88646000D01*
X86180395Y-88646000D01*
X85207837Y-87673443D01*
X84941035Y-87772042D01*
X84714599Y-88381582D01*
X84683820Y-88381582D01*
X84679341Y-88260623D01*
X84476965Y-87772042D01*
X84210163Y-87673443D01*
X83237605Y-88646000D01*
X82878395Y-88646000D01*
X81905837Y-87673443D01*
X81639035Y-87772042D01*
X81412599Y-88381582D01*
X68708763Y-88381582D01*
X68808777Y-88140724D01*
X68809223Y-87629519D01*
X68753161Y-87493837D01*
X82085443Y-87493837D01*
X83058000Y-88466395D01*
X84030557Y-87493837D01*
X85387443Y-87493837D01*
X86360000Y-88466395D01*
X87332557Y-87493837D01*
X87233958Y-87227035D01*
X86624418Y-87000599D01*
X85974623Y-87024659D01*
X85486042Y-87227035D01*
X85387443Y-87493837D01*
X84030557Y-87493837D01*
X83931958Y-87227035D01*
X83322418Y-87000599D01*
X82672623Y-87024659D01*
X82184042Y-87227035D01*
X82085443Y-87493837D01*
X68753161Y-87493837D01*
X68614005Y-87157057D01*
X68252845Y-86795265D01*
X67780724Y-86599223D01*
X67269519Y-86598777D01*
X66797057Y-86793995D01*
X66435265Y-87155155D01*
X66321440Y-87429276D01*
X66321440Y-87234000D01*
X66277162Y-86998683D01*
X66138090Y-86782559D01*
X65925890Y-86637569D01*
X65674000Y-86586560D01*
X64374000Y-86586560D01*
X64138683Y-86630838D01*
X63922559Y-86769910D01*
X63777569Y-86982110D01*
X63726560Y-87234000D01*
X53405798Y-87234000D01*
X53374005Y-87157057D01*
X53012845Y-86795265D01*
X52540724Y-86599223D01*
X52029519Y-86598777D01*
X51557057Y-86793995D01*
X51195265Y-87155155D01*
X51081440Y-87429276D01*
X51081440Y-87234000D01*
X51037162Y-86998683D01*
X50898090Y-86782559D01*
X50685890Y-86637569D01*
X50434000Y-86586560D01*
X49134000Y-86586560D01*
X48898683Y-86630838D01*
X48682559Y-86769910D01*
X48537569Y-86982110D01*
X48486560Y-87234000D01*
X38205798Y-87234000D01*
X38174005Y-87157057D01*
X37812845Y-86795265D01*
X37340724Y-86599223D01*
X36829519Y-86598777D01*
X36357057Y-86793995D01*
X35995265Y-87155155D01*
X35881440Y-87429276D01*
X35881440Y-87234000D01*
X35837162Y-86998683D01*
X35698090Y-86782559D01*
X35485890Y-86637569D01*
X35234000Y-86586560D01*
X33934000Y-86586560D01*
X33698683Y-86630838D01*
X33482559Y-86769910D01*
X33337569Y-86982110D01*
X33286560Y-87234000D01*
X22965798Y-87234000D01*
X22934005Y-87157057D01*
X22572845Y-86795265D01*
X22100724Y-86599223D01*
X21589519Y-86598777D01*
X21117057Y-86793995D01*
X20755265Y-87155155D01*
X20641440Y-87429276D01*
X20641440Y-87234000D01*
X20597162Y-86998683D01*
X20458090Y-86782559D01*
X20245890Y-86637569D01*
X19994000Y-86586560D01*
X18694000Y-86586560D01*
X18458683Y-86630838D01*
X18242559Y-86769910D01*
X18097569Y-86982110D01*
X18046560Y-87234000D01*
X14680000Y-87234000D01*
X14680000Y-78809694D01*
X81423226Y-78809694D01*
X81671538Y-79410655D01*
X82130927Y-79870846D01*
X82731453Y-80120206D01*
X83381694Y-80120774D01*
X83483341Y-80078775D01*
X84058220Y-80653654D01*
X84326031Y-80832600D01*
X84641937Y-80895437D01*
X86671230Y-80895437D01*
X86706489Y-80930758D01*
X87079776Y-81085761D01*
X87409196Y-81086048D01*
X87409196Y-83259569D01*
X87472033Y-83575475D01*
X87650979Y-83843286D01*
X90488771Y-86681077D01*
X90488771Y-87209506D01*
X89926418Y-87000599D01*
X89276623Y-87024659D01*
X88788042Y-87227035D01*
X88689443Y-87493837D01*
X89662000Y-88466395D01*
X89676142Y-88452252D01*
X89855748Y-88631858D01*
X89841605Y-88646000D01*
X89855748Y-88660142D01*
X89676142Y-88839748D01*
X89662000Y-88825605D01*
X88689443Y-89798163D01*
X88788042Y-90064965D01*
X89397582Y-90291401D01*
X90047377Y-90267341D01*
X90298254Y-90163425D01*
X90298095Y-90345761D01*
X90452446Y-90719319D01*
X90738002Y-91005374D01*
X91111289Y-91160377D01*
X91515479Y-91160729D01*
X91889037Y-91006378D01*
X92175092Y-90720822D01*
X92330095Y-90347535D01*
X92330263Y-90154204D01*
X92699582Y-90291401D01*
X93349377Y-90267341D01*
X93837958Y-90064965D01*
X93840066Y-90059260D01*
X93874951Y-90111469D01*
X93975743Y-90212261D01*
X93975700Y-90262168D01*
X94130051Y-90635726D01*
X94415607Y-90921781D01*
X94788894Y-91076784D01*
X95193084Y-91077136D01*
X95566642Y-90922785D01*
X95852697Y-90637229D01*
X96000924Y-90280260D01*
X96589694Y-90280774D01*
X97190655Y-90032462D01*
X97650846Y-89573073D01*
X97693023Y-89471500D01*
X98140568Y-89471500D01*
X98181538Y-89570655D01*
X98640927Y-90030846D01*
X99241453Y-90280206D01*
X99891694Y-90280774D01*
X100492655Y-90032462D01*
X100727363Y-89798163D01*
X101897443Y-89798163D01*
X101996042Y-90064965D01*
X102605582Y-90291401D01*
X103255377Y-90267341D01*
X103743958Y-90064965D01*
X103842557Y-89798163D01*
X102870000Y-88825605D01*
X101897443Y-89798163D01*
X100727363Y-89798163D01*
X100952846Y-89573073D01*
X101202206Y-88972547D01*
X101202722Y-88381582D01*
X101224599Y-88381582D01*
X101248659Y-89031377D01*
X101451035Y-89519958D01*
X101717837Y-89618557D01*
X102690395Y-88646000D01*
X103049605Y-88646000D01*
X104022163Y-89618557D01*
X104288965Y-89519958D01*
X104515401Y-88910418D01*
X104495820Y-88381582D01*
X104526599Y-88381582D01*
X104550659Y-89031377D01*
X104753035Y-89519958D01*
X105019837Y-89618557D01*
X105992395Y-88646000D01*
X105019837Y-87673443D01*
X104753035Y-87772042D01*
X104526599Y-88381582D01*
X104495820Y-88381582D01*
X104491341Y-88260623D01*
X104288965Y-87772042D01*
X104022163Y-87673443D01*
X103049605Y-88646000D01*
X102690395Y-88646000D01*
X101717837Y-87673443D01*
X101451035Y-87772042D01*
X101224599Y-88381582D01*
X101202722Y-88381582D01*
X101202774Y-88322306D01*
X100954462Y-87721345D01*
X100727351Y-87493837D01*
X101897443Y-87493837D01*
X102870000Y-88466395D01*
X103842557Y-87493837D01*
X105199443Y-87493837D01*
X106172000Y-88466395D01*
X106186142Y-88452252D01*
X106365748Y-88631858D01*
X106351605Y-88646000D01*
X106365748Y-88660142D01*
X106186142Y-88839748D01*
X106172000Y-88825605D01*
X105199443Y-89798163D01*
X105298042Y-90064965D01*
X105907582Y-90291401D01*
X106557377Y-90267341D01*
X107045958Y-90064965D01*
X107144556Y-89798164D01*
X107258509Y-89912117D01*
X107258509Y-90075409D01*
X107321346Y-90391315D01*
X107500292Y-90659126D01*
X108687066Y-91845900D01*
X108364632Y-91862038D01*
X107980857Y-92021003D01*
X107911392Y-92263187D01*
X108712000Y-93063795D01*
X108726143Y-93049653D01*
X108905748Y-93229258D01*
X108891605Y-93243400D01*
X109692213Y-94044008D01*
X109934397Y-93974543D01*
X109984509Y-93834082D01*
X110066990Y-94033703D01*
X110459630Y-94427029D01*
X110972900Y-94640157D01*
X111528661Y-94640642D01*
X112042303Y-94428410D01*
X112435629Y-94035770D01*
X112521949Y-93827888D01*
X112606990Y-94033703D01*
X112999630Y-94427029D01*
X113512900Y-94640157D01*
X114068661Y-94640642D01*
X114582303Y-94428410D01*
X114787457Y-94223613D01*
X115785392Y-94223613D01*
X115854857Y-94465797D01*
X116378302Y-94652544D01*
X116933368Y-94624762D01*
X117317143Y-94465797D01*
X117386608Y-94223613D01*
X116586000Y-93423005D01*
X115785392Y-94223613D01*
X114787457Y-94223613D01*
X114975629Y-94035770D01*
X115188757Y-93522500D01*
X115188971Y-93277744D01*
X115204638Y-93590768D01*
X115363603Y-93974543D01*
X115605787Y-94044008D01*
X116406395Y-93243400D01*
X116392253Y-93229258D01*
X116571858Y-93049653D01*
X116586000Y-93063795D01*
X116600143Y-93049653D01*
X116779748Y-93229258D01*
X116765605Y-93243400D01*
X117566213Y-94044008D01*
X117808397Y-93974543D01*
X117858509Y-93834082D01*
X117940990Y-94033703D01*
X118333630Y-94427029D01*
X118846900Y-94640157D01*
X119402661Y-94640642D01*
X119916303Y-94428410D01*
X120309629Y-94035770D01*
X120395949Y-93827888D01*
X120480990Y-94033703D01*
X120873630Y-94427029D01*
X121386900Y-94640157D01*
X121942661Y-94640642D01*
X122456303Y-94428410D01*
X122849629Y-94035770D01*
X123062757Y-93522500D01*
X123063242Y-92966739D01*
X123013422Y-92846163D01*
X133393443Y-92846163D01*
X133492042Y-93112965D01*
X134101582Y-93339401D01*
X134751377Y-93315341D01*
X135239958Y-93112965D01*
X135338557Y-92846163D01*
X134366000Y-91873605D01*
X133393443Y-92846163D01*
X123013422Y-92846163D01*
X122851010Y-92453097D01*
X122458370Y-92059771D01*
X121945100Y-91846643D01*
X121389339Y-91846158D01*
X120875697Y-92058390D01*
X120482371Y-92451030D01*
X120396051Y-92658912D01*
X120311010Y-92453097D01*
X119918370Y-92059771D01*
X119405100Y-91846643D01*
X118896233Y-91846199D01*
X118532287Y-91482253D01*
X118453460Y-91429582D01*
X132720599Y-91429582D01*
X132744659Y-92079377D01*
X132947035Y-92567958D01*
X133213837Y-92666557D01*
X134186395Y-91694000D01*
X134545605Y-91694000D01*
X135518163Y-92666557D01*
X135784965Y-92567958D01*
X136011401Y-91958418D01*
X135987341Y-91308623D01*
X135784965Y-90820042D01*
X135518163Y-90721443D01*
X134545605Y-91694000D01*
X134186395Y-91694000D01*
X133213837Y-90721443D01*
X132947035Y-90820042D01*
X132720599Y-91429582D01*
X118453460Y-91429582D01*
X118264476Y-91303307D01*
X117948570Y-91240470D01*
X112392158Y-91240470D01*
X111891135Y-90739446D01*
X111891135Y-90541837D01*
X133393443Y-90541837D01*
X134366000Y-91514395D01*
X135293444Y-90586950D01*
X136282389Y-90586950D01*
X136436740Y-90960508D01*
X136722296Y-91246563D01*
X137095583Y-91401566D01*
X137371496Y-91401806D01*
X139534354Y-93564664D01*
X139446176Y-93777018D01*
X139445824Y-94181208D01*
X139600175Y-94554766D01*
X139885731Y-94840821D01*
X140259018Y-94995824D01*
X140663208Y-94996176D01*
X141036766Y-94841825D01*
X141322821Y-94556269D01*
X141477824Y-94182982D01*
X141478176Y-93778792D01*
X141323825Y-93405234D01*
X141287500Y-93368846D01*
X141287500Y-93324876D01*
X141245349Y-93112965D01*
X141224663Y-93008970D01*
X141045717Y-92741159D01*
X140372362Y-92067804D01*
X140568938Y-91871571D01*
X140723788Y-91498651D01*
X140724141Y-91094859D01*
X140569942Y-90721669D01*
X140284667Y-90435896D01*
X139911747Y-90281046D01*
X139758210Y-90280912D01*
X139010187Y-89532889D01*
X139010230Y-89484180D01*
X138856031Y-89110990D01*
X138617345Y-88871887D01*
X141313000Y-88871887D01*
X141313000Y-88928113D01*
X141422233Y-89477264D01*
X141733302Y-89942811D01*
X142198849Y-90253880D01*
X142748000Y-90363113D01*
X143297151Y-90253880D01*
X143762698Y-89942811D01*
X144018000Y-89560725D01*
X144273302Y-89942811D01*
X144447850Y-90059440D01*
X144202306Y-90059226D01*
X143601345Y-90307538D01*
X143141154Y-90766927D01*
X142891794Y-91367453D01*
X142891226Y-92017694D01*
X143139538Y-92618655D01*
X143598927Y-93078846D01*
X144199453Y-93328206D01*
X144849694Y-93328774D01*
X145450655Y-93080462D01*
X145910846Y-92621073D01*
X146160206Y-92020547D01*
X146160215Y-92010000D01*
X146226560Y-92010000D01*
X146226560Y-93410000D01*
X146270838Y-93645317D01*
X146409910Y-93861441D01*
X146622110Y-94006431D01*
X146874000Y-94057440D01*
X148274000Y-94057440D01*
X148509317Y-94013162D01*
X148725441Y-93874090D01*
X148870431Y-93661890D01*
X148873795Y-93645275D01*
X151818331Y-93645275D01*
X151880169Y-93881042D01*
X152381122Y-94057419D01*
X152911440Y-94028664D01*
X153267831Y-93881042D01*
X153329669Y-93645275D01*
X152574000Y-92889605D01*
X151818331Y-93645275D01*
X148873795Y-93645275D01*
X148921440Y-93410000D01*
X148921440Y-92517122D01*
X151226581Y-92517122D01*
X151255336Y-93047440D01*
X151402958Y-93403831D01*
X151638725Y-93465669D01*
X152394395Y-92710000D01*
X151638725Y-91954331D01*
X151402958Y-92016169D01*
X151226581Y-92517122D01*
X148921440Y-92517122D01*
X148921440Y-92010000D01*
X148877170Y-91774725D01*
X151818331Y-91774725D01*
X152574000Y-92530395D01*
X153329669Y-91774725D01*
X153267831Y-91538958D01*
X152766878Y-91362581D01*
X152236560Y-91391336D01*
X151880169Y-91538958D01*
X151818331Y-91774725D01*
X148877170Y-91774725D01*
X148877162Y-91774683D01*
X148738090Y-91558559D01*
X148525890Y-91413569D01*
X148274000Y-91362560D01*
X146874000Y-91362560D01*
X146638683Y-91406838D01*
X146422559Y-91545910D01*
X146277569Y-91758110D01*
X146226560Y-92010000D01*
X146160215Y-92010000D01*
X146160774Y-91370306D01*
X145912462Y-90769345D01*
X145470667Y-90326778D01*
X145837151Y-90253880D01*
X146302698Y-89942811D01*
X146558000Y-89560725D01*
X146813302Y-89942811D01*
X147278849Y-90253880D01*
X147828000Y-90363113D01*
X148377151Y-90253880D01*
X148842698Y-89942811D01*
X149112986Y-89538297D01*
X149215611Y-89755134D01*
X149630577Y-90131041D01*
X150018961Y-90291904D01*
X150241000Y-90169915D01*
X150241000Y-89027000D01*
X150495000Y-89027000D01*
X150495000Y-90169915D01*
X150717039Y-90291904D01*
X151105423Y-90131041D01*
X151520389Y-89755134D01*
X151759914Y-89249041D01*
X151638629Y-89027000D01*
X150495000Y-89027000D01*
X150241000Y-89027000D01*
X150221000Y-89027000D01*
X150221000Y-88773000D01*
X150241000Y-88773000D01*
X150241000Y-87630085D01*
X150495000Y-87630085D01*
X150495000Y-88773000D01*
X151638629Y-88773000D01*
X151759914Y-88550959D01*
X151520389Y-88044866D01*
X151105423Y-87668959D01*
X150717039Y-87508096D01*
X150495000Y-87630085D01*
X150241000Y-87630085D01*
X150018961Y-87508096D01*
X149630577Y-87668959D01*
X149215611Y-88044866D01*
X149112986Y-88261703D01*
X148842698Y-87857189D01*
X148377151Y-87546120D01*
X147828000Y-87436887D01*
X147278849Y-87546120D01*
X146813302Y-87857189D01*
X146558000Y-88239275D01*
X146302698Y-87857189D01*
X145837151Y-87546120D01*
X145288000Y-87436887D01*
X144738849Y-87546120D01*
X144273302Y-87857189D01*
X144018000Y-88239275D01*
X143762698Y-87857189D01*
X143297151Y-87546120D01*
X142748000Y-87436887D01*
X142198849Y-87546120D01*
X141733302Y-87857189D01*
X141422233Y-88322736D01*
X141313000Y-88871887D01*
X138617345Y-88871887D01*
X138570756Y-88825217D01*
X138340827Y-88729742D01*
X138361831Y-88721042D01*
X138423669Y-88485275D01*
X137668000Y-87729605D01*
X136912331Y-88485275D01*
X136974169Y-88721042D01*
X137380791Y-88864207D01*
X137135081Y-89109488D01*
X137012534Y-89404614D01*
X136723799Y-89523917D01*
X136437744Y-89809473D01*
X136282741Y-90182760D01*
X136282389Y-90586950D01*
X135293444Y-90586950D01*
X135338557Y-90541837D01*
X135239958Y-90275035D01*
X134630418Y-90048599D01*
X133980623Y-90072659D01*
X133492042Y-90275035D01*
X133393443Y-90541837D01*
X111891135Y-90541837D01*
X111891135Y-90035451D01*
X111902042Y-90064965D01*
X112511582Y-90291401D01*
X113161377Y-90267341D01*
X113649958Y-90064965D01*
X113748557Y-89798163D01*
X112776000Y-88825605D01*
X112761858Y-88839748D01*
X112582252Y-88660142D01*
X112596395Y-88646000D01*
X112955605Y-88646000D01*
X113928163Y-89618557D01*
X114194965Y-89519958D01*
X114399380Y-88969694D01*
X114443226Y-88969694D01*
X114691538Y-89570655D01*
X115150927Y-90030846D01*
X115751453Y-90280206D01*
X116401694Y-90280774D01*
X117002655Y-90032462D01*
X117462846Y-89573073D01*
X117712206Y-88972547D01*
X117712208Y-88969694D01*
X117745226Y-88969694D01*
X117993538Y-89570655D01*
X118452927Y-90030846D01*
X119053453Y-90280206D01*
X119703694Y-90280774D01*
X120304655Y-90032462D01*
X120764846Y-89573073D01*
X121014206Y-88972547D01*
X121014208Y-88969694D01*
X121047226Y-88969694D01*
X121295538Y-89570655D01*
X121754927Y-90030846D01*
X122355453Y-90280206D01*
X123005694Y-90280774D01*
X123606655Y-90032462D01*
X124066846Y-89573073D01*
X124316206Y-88972547D01*
X124316208Y-88969694D01*
X124349226Y-88969694D01*
X124597538Y-89570655D01*
X125056927Y-90030846D01*
X125657453Y-90280206D01*
X126307694Y-90280774D01*
X126908655Y-90032462D01*
X127368846Y-89573073D01*
X127618206Y-88972547D01*
X127618774Y-88322306D01*
X127370462Y-87721345D01*
X127006874Y-87357122D01*
X136320581Y-87357122D01*
X136349336Y-87887440D01*
X136496958Y-88243831D01*
X136732725Y-88305669D01*
X137488395Y-87550000D01*
X137847605Y-87550000D01*
X138603275Y-88305669D01*
X138839042Y-88243831D01*
X139015419Y-87742878D01*
X138986664Y-87212560D01*
X138839042Y-86856169D01*
X138603275Y-86794331D01*
X137847605Y-87550000D01*
X137488395Y-87550000D01*
X136732725Y-86794331D01*
X136496958Y-86856169D01*
X136320581Y-87357122D01*
X127006874Y-87357122D01*
X126911073Y-87261154D01*
X126310547Y-87011794D01*
X125660306Y-87011226D01*
X125059345Y-87259538D01*
X124599154Y-87718927D01*
X124349794Y-88319453D01*
X124349226Y-88969694D01*
X124316208Y-88969694D01*
X124316774Y-88322306D01*
X124068462Y-87721345D01*
X123609073Y-87261154D01*
X123008547Y-87011794D01*
X122358306Y-87011226D01*
X121757345Y-87259538D01*
X121297154Y-87718927D01*
X121047794Y-88319453D01*
X121047226Y-88969694D01*
X121014208Y-88969694D01*
X121014774Y-88322306D01*
X120766462Y-87721345D01*
X120307073Y-87261154D01*
X119706547Y-87011794D01*
X119056306Y-87011226D01*
X118455345Y-87259538D01*
X117995154Y-87718927D01*
X117745794Y-88319453D01*
X117745226Y-88969694D01*
X117712208Y-88969694D01*
X117712774Y-88322306D01*
X117464462Y-87721345D01*
X117005073Y-87261154D01*
X116404547Y-87011794D01*
X115754306Y-87011226D01*
X115153345Y-87259538D01*
X114693154Y-87718927D01*
X114443794Y-88319453D01*
X114443226Y-88969694D01*
X114399380Y-88969694D01*
X114421401Y-88910418D01*
X114397341Y-88260623D01*
X114194965Y-87772042D01*
X113928163Y-87673443D01*
X112955605Y-88646000D01*
X112596395Y-88646000D01*
X112582253Y-88631858D01*
X112761858Y-88452252D01*
X112776000Y-88466395D01*
X113748557Y-87493837D01*
X113649958Y-87227035D01*
X113040418Y-87000599D01*
X112390623Y-87024659D01*
X111902042Y-87227035D01*
X111803444Y-87493836D01*
X111689162Y-87379554D01*
X111633177Y-87435539D01*
X110812364Y-86614725D01*
X136912331Y-86614725D01*
X137668000Y-87370395D01*
X138423669Y-86614725D01*
X138361831Y-86378958D01*
X137860878Y-86202581D01*
X137330560Y-86231336D01*
X136974169Y-86378958D01*
X136912331Y-86614725D01*
X110812364Y-86614725D01*
X110524450Y-86326811D01*
X110524493Y-86276904D01*
X110388054Y-85946696D01*
X110490854Y-85699127D01*
X110491206Y-85294937D01*
X110336855Y-84921379D01*
X110051299Y-84635324D01*
X109678012Y-84480321D01*
X109273822Y-84479969D01*
X108900264Y-84634320D01*
X108845874Y-84688615D01*
X108620309Y-84733482D01*
X108513039Y-84805158D01*
X108352498Y-84912428D01*
X108352496Y-84912431D01*
X107500292Y-85764634D01*
X107321346Y-86032445D01*
X107295535Y-86162206D01*
X107258509Y-86348351D01*
X107258509Y-87379883D01*
X107144556Y-87493836D01*
X107045958Y-87227035D01*
X106436418Y-87000599D01*
X105786623Y-87024659D01*
X105298042Y-87227035D01*
X105199443Y-87493837D01*
X103842557Y-87493837D01*
X103743958Y-87227035D01*
X103134418Y-87000599D01*
X102484623Y-87024659D01*
X101996042Y-87227035D01*
X101897443Y-87493837D01*
X100727351Y-87493837D01*
X100495073Y-87261154D01*
X99894547Y-87011794D01*
X99244306Y-87011226D01*
X98643345Y-87259538D01*
X98183154Y-87718927D01*
X98140977Y-87820500D01*
X97693432Y-87820500D01*
X97652462Y-87721345D01*
X97193073Y-87261154D01*
X96592547Y-87011794D01*
X95942306Y-87011226D01*
X95341345Y-87259538D01*
X95284168Y-87316615D01*
X95284168Y-85733679D01*
X95261017Y-85617291D01*
X95221331Y-85417773D01*
X95132340Y-85284589D01*
X95042385Y-85149962D01*
X95042382Y-85149960D01*
X95025711Y-85133288D01*
X95025754Y-85083381D01*
X94871403Y-84709823D01*
X94585847Y-84423768D01*
X94212560Y-84268765D01*
X93808370Y-84268413D01*
X93434812Y-84422764D01*
X93148757Y-84708320D01*
X92993754Y-85081607D01*
X92993402Y-85485797D01*
X93147753Y-85859355D01*
X93433309Y-86145410D01*
X93633168Y-86228399D01*
X93633168Y-87150958D01*
X93228418Y-87000599D01*
X92578623Y-87024659D01*
X92139771Y-87206437D01*
X92139771Y-86339149D01*
X92139772Y-86339144D01*
X92076934Y-86023239D01*
X91973411Y-85868306D01*
X91897988Y-85755427D01*
X91897985Y-85755425D01*
X90521075Y-84378515D01*
X90729489Y-84239257D01*
X91183425Y-83785320D01*
X91183428Y-83785318D01*
X91362374Y-83517506D01*
X91368777Y-83485317D01*
X91425212Y-83201601D01*
X91425211Y-83201596D01*
X91425211Y-81850000D01*
X136320560Y-81850000D01*
X136320560Y-83250000D01*
X136364838Y-83485317D01*
X136503910Y-83701441D01*
X136716110Y-83846431D01*
X136968000Y-83897440D01*
X138368000Y-83897440D01*
X138603317Y-83853162D01*
X138819441Y-83714090D01*
X138964431Y-83501890D01*
X139015440Y-83250000D01*
X139015440Y-81850000D01*
X138971162Y-81614683D01*
X138832090Y-81398559D01*
X138619890Y-81253569D01*
X138368000Y-81202560D01*
X136968000Y-81202560D01*
X136732683Y-81246838D01*
X136516559Y-81385910D01*
X136371569Y-81598110D01*
X136320560Y-81850000D01*
X91425211Y-81850000D01*
X91425211Y-81548632D01*
X92008401Y-80965442D01*
X101216058Y-80965442D01*
X101531964Y-80902605D01*
X101799775Y-80723659D01*
X102444371Y-80079063D01*
X102543453Y-80120206D01*
X103193694Y-80120774D01*
X103794655Y-79872462D01*
X104254846Y-79413073D01*
X104504206Y-78812547D01*
X104504774Y-78162306D01*
X104256462Y-77561345D01*
X104228666Y-77533500D01*
X104812625Y-77533500D01*
X104787154Y-77558927D01*
X104537794Y-78159453D01*
X104537226Y-78809694D01*
X104785538Y-79410655D01*
X105244927Y-79870846D01*
X105845453Y-80120206D01*
X106495694Y-80120774D01*
X107096655Y-79872462D01*
X107556846Y-79413073D01*
X107806206Y-78812547D01*
X107806774Y-78162306D01*
X107558462Y-77561345D01*
X107530666Y-77533500D01*
X108114625Y-77533500D01*
X108089154Y-77558927D01*
X107839794Y-78159453D01*
X107839226Y-78809694D01*
X108087538Y-79410655D01*
X108546927Y-79870846D01*
X109147453Y-80120206D01*
X109797694Y-80120774D01*
X110398655Y-79872462D01*
X110858846Y-79413073D01*
X111108206Y-78812547D01*
X111108774Y-78162306D01*
X110860462Y-77561345D01*
X110832666Y-77533500D01*
X111416625Y-77533500D01*
X111391154Y-77558927D01*
X111141794Y-78159453D01*
X111141226Y-78809694D01*
X111389538Y-79410655D01*
X111848927Y-79870846D01*
X112449453Y-80120206D01*
X113099694Y-80120774D01*
X113700655Y-79872462D01*
X114160846Y-79413073D01*
X114410206Y-78812547D01*
X114410774Y-78162306D01*
X114162462Y-77561345D01*
X114134666Y-77533500D01*
X114718625Y-77533500D01*
X114693154Y-77558927D01*
X114443794Y-78159453D01*
X114443226Y-78809694D01*
X114691538Y-79410655D01*
X115150927Y-79870846D01*
X115751453Y-80120206D01*
X116401694Y-80120774D01*
X117002655Y-79872462D01*
X117462846Y-79413073D01*
X117712206Y-78812547D01*
X117712774Y-78162306D01*
X117464462Y-77561345D01*
X117436666Y-77533500D01*
X118020625Y-77533500D01*
X117995154Y-77558927D01*
X117745794Y-78159453D01*
X117745226Y-78809694D01*
X117993538Y-79410655D01*
X118452927Y-79870846D01*
X119053453Y-80120206D01*
X119703694Y-80120774D01*
X120304655Y-79872462D01*
X120764846Y-79413073D01*
X121014206Y-78812547D01*
X121014774Y-78162306D01*
X120766462Y-77561345D01*
X120738666Y-77533500D01*
X121322625Y-77533500D01*
X121297154Y-77558927D01*
X121047794Y-78159453D01*
X121047226Y-78809694D01*
X121295538Y-79410655D01*
X121754927Y-79870846D01*
X122355453Y-80120206D01*
X123005694Y-80120774D01*
X123606655Y-79872462D01*
X124066846Y-79413073D01*
X124316206Y-78812547D01*
X124316208Y-78809694D01*
X124349226Y-78809694D01*
X124597538Y-79410655D01*
X125056927Y-79870846D01*
X125657453Y-80120206D01*
X126307694Y-80120774D01*
X126908655Y-79872462D01*
X127143363Y-79638163D01*
X133393443Y-79638163D01*
X133492042Y-79904965D01*
X134101582Y-80131401D01*
X134751377Y-80107341D01*
X135239958Y-79904965D01*
X135338557Y-79638163D01*
X134366000Y-78665605D01*
X133393443Y-79638163D01*
X127143363Y-79638163D01*
X127368846Y-79413073D01*
X127618206Y-78812547D01*
X127618722Y-78221582D01*
X132720599Y-78221582D01*
X132744659Y-78871377D01*
X132947035Y-79359958D01*
X133213837Y-79458557D01*
X134186395Y-78486000D01*
X134545605Y-78486000D01*
X135518163Y-79458557D01*
X135784965Y-79359958D01*
X136011401Y-78750418D01*
X135987341Y-78100623D01*
X135784965Y-77612042D01*
X135518163Y-77513443D01*
X134545605Y-78486000D01*
X134186395Y-78486000D01*
X133213837Y-77513443D01*
X132947035Y-77612042D01*
X132720599Y-78221582D01*
X127618722Y-78221582D01*
X127618774Y-78162306D01*
X127370462Y-77561345D01*
X127143351Y-77333837D01*
X133393443Y-77333837D01*
X134366000Y-78306395D01*
X135338557Y-77333837D01*
X135239958Y-77067035D01*
X134630418Y-76840599D01*
X133980623Y-76864659D01*
X133492042Y-77067035D01*
X133393443Y-77333837D01*
X127143351Y-77333837D01*
X126911073Y-77101154D01*
X126310547Y-76851794D01*
X125660306Y-76851226D01*
X125059345Y-77099538D01*
X124599154Y-77558927D01*
X124349794Y-78159453D01*
X124349226Y-78809694D01*
X124316208Y-78809694D01*
X124316774Y-78162306D01*
X124101249Y-77640695D01*
X124272766Y-77569825D01*
X124558821Y-77284269D01*
X124713824Y-76910982D01*
X124714176Y-76506792D01*
X124559825Y-76133234D01*
X124274269Y-75847179D01*
X123900982Y-75692176D01*
X123496792Y-75691824D01*
X123123234Y-75846175D01*
X123086846Y-75882500D01*
X122601007Y-75882500D01*
X122682000Y-75475321D01*
X122682000Y-74384679D01*
X122575660Y-73850070D01*
X122272828Y-73396851D01*
X121819609Y-73094019D01*
X121285000Y-72987679D01*
X120750391Y-73094019D01*
X120297172Y-73396851D01*
X120015000Y-73819150D01*
X119732828Y-73396851D01*
X119279609Y-73094019D01*
X118745000Y-72987679D01*
X118210391Y-73094019D01*
X117757172Y-73396851D01*
X117475000Y-73819150D01*
X117192828Y-73396851D01*
X116739609Y-73094019D01*
X116205000Y-72987679D01*
X115670391Y-73094019D01*
X115217172Y-73396851D01*
X114935000Y-73819150D01*
X114652828Y-73396851D01*
X114199609Y-73094019D01*
X113665000Y-72987679D01*
X113130391Y-73094019D01*
X112677172Y-73396851D01*
X112395000Y-73819150D01*
X112112828Y-73396851D01*
X111659609Y-73094019D01*
X111125000Y-72987679D01*
X110590391Y-73094019D01*
X110137172Y-73396851D01*
X109855000Y-73819150D01*
X109572828Y-73396851D01*
X109119609Y-73094019D01*
X108585000Y-72987679D01*
X108050391Y-73094019D01*
X107597172Y-73396851D01*
X107315000Y-73819150D01*
X107032828Y-73396851D01*
X106579609Y-73094019D01*
X106045000Y-72987679D01*
X105510391Y-73094019D01*
X105057172Y-73396851D01*
X104775000Y-73819150D01*
X104492828Y-73396851D01*
X104039609Y-73094019D01*
X103505000Y-72987679D01*
X102970391Y-73094019D01*
X102517172Y-73396851D01*
X102214340Y-73850070D01*
X102108000Y-74384679D01*
X102108000Y-75475321D01*
X102188993Y-75882500D01*
X101052933Y-75882500D01*
X100806104Y-75635671D01*
X100838000Y-75475321D01*
X100838000Y-74384679D01*
X100731660Y-73850070D01*
X100428828Y-73396851D01*
X99975609Y-73094019D01*
X99441000Y-72987679D01*
X98906391Y-73094019D01*
X98453172Y-73396851D01*
X98171000Y-73819150D01*
X97888828Y-73396851D01*
X97435609Y-73094019D01*
X96901000Y-72987679D01*
X96366391Y-73094019D01*
X95913172Y-73396851D01*
X95631000Y-73819150D01*
X95348828Y-73396851D01*
X94895609Y-73094019D01*
X94361000Y-72987679D01*
X93826391Y-73094019D01*
X93373172Y-73396851D01*
X93091000Y-73819150D01*
X92808828Y-73396851D01*
X92355609Y-73094019D01*
X91821000Y-72987679D01*
X91286391Y-73094019D01*
X90833172Y-73396851D01*
X90551000Y-73819150D01*
X90268828Y-73396851D01*
X89815609Y-73094019D01*
X89281000Y-72987679D01*
X88746391Y-73094019D01*
X88293172Y-73396851D01*
X88011000Y-73819150D01*
X87728828Y-73396851D01*
X87275609Y-73094019D01*
X86741000Y-72987679D01*
X86206391Y-73094019D01*
X85753172Y-73396851D01*
X85461670Y-73833113D01*
X85443059Y-73770059D01*
X85099026Y-73344370D01*
X84618277Y-73082740D01*
X84544070Y-73067780D01*
X84328000Y-73190280D01*
X84328000Y-74803000D01*
X84348000Y-74803000D01*
X84348000Y-75057000D01*
X84328000Y-75057000D01*
X84328000Y-76669720D01*
X84544070Y-76792220D01*
X84618277Y-76777260D01*
X85099026Y-76515630D01*
X85443059Y-76089941D01*
X85461670Y-76026887D01*
X85753172Y-76463149D01*
X86206391Y-76765981D01*
X86637588Y-76851751D01*
X86036306Y-76851226D01*
X85435345Y-77099538D01*
X84975154Y-77558927D01*
X84725794Y-78159453D01*
X84725226Y-78809694D01*
X84849223Y-79109789D01*
X84651063Y-78911629D01*
X84692206Y-78812547D01*
X84692774Y-78162306D01*
X84444462Y-77561345D01*
X83985073Y-77101154D01*
X83384547Y-76851794D01*
X82734306Y-76851226D01*
X82133345Y-77099538D01*
X81673154Y-77558927D01*
X81423794Y-78159453D01*
X81423226Y-78809694D01*
X14680000Y-78809694D01*
X14680000Y-74384679D01*
X80264000Y-74384679D01*
X80264000Y-75475321D01*
X80370340Y-76009930D01*
X80673172Y-76463149D01*
X81126391Y-76765981D01*
X81661000Y-76872321D01*
X82195609Y-76765981D01*
X82648828Y-76463149D01*
X82940330Y-76026887D01*
X82958941Y-76089941D01*
X83302974Y-76515630D01*
X83783723Y-76777260D01*
X83857930Y-76792220D01*
X84074000Y-76669720D01*
X84074000Y-75057000D01*
X84054000Y-75057000D01*
X84054000Y-74803000D01*
X84074000Y-74803000D01*
X84074000Y-73190280D01*
X83857930Y-73067780D01*
X83783723Y-73082740D01*
X83302974Y-73344370D01*
X82958941Y-73770059D01*
X82940330Y-73833113D01*
X82648828Y-73396851D01*
X82195609Y-73094019D01*
X81661000Y-72987679D01*
X81126391Y-73094019D01*
X80673172Y-73396851D01*
X80370340Y-73850070D01*
X80264000Y-74384679D01*
X14680000Y-74384679D01*
X14680000Y-66374010D01*
X29237940Y-66374010D01*
X29237940Y-67964629D01*
X29334613Y-68198018D01*
X29513241Y-68376647D01*
X29746630Y-68473320D01*
X31337250Y-68473320D01*
X31496000Y-68314570D01*
X31496000Y-66215260D01*
X29396690Y-66215260D01*
X29237940Y-66374010D01*
X14680000Y-66374010D01*
X14680000Y-64211891D01*
X29237940Y-64211891D01*
X29237940Y-65802510D01*
X29396690Y-65961260D01*
X31496000Y-65961260D01*
X31496000Y-63861950D01*
X31750000Y-63861950D01*
X31750000Y-65961260D01*
X33849310Y-65961260D01*
X34008060Y-65802510D01*
X34008060Y-65136588D01*
X34033613Y-65198278D01*
X34212241Y-65376907D01*
X34445630Y-65473580D01*
X36036250Y-65473580D01*
X36195000Y-65314830D01*
X36195000Y-63215520D01*
X36449000Y-63215520D01*
X36449000Y-65314830D01*
X36607750Y-65473580D01*
X38198370Y-65473580D01*
X38431759Y-65376907D01*
X38610387Y-65198278D01*
X38707060Y-64964889D01*
X38707060Y-63374270D01*
X38548310Y-63215520D01*
X36449000Y-63215520D01*
X36195000Y-63215520D01*
X34095690Y-63215520D01*
X33936940Y-63374270D01*
X33936940Y-64040192D01*
X33911387Y-63978502D01*
X33732759Y-63799873D01*
X33499370Y-63703200D01*
X31908750Y-63703200D01*
X31750000Y-63861950D01*
X31496000Y-63861950D01*
X31337250Y-63703200D01*
X29746630Y-63703200D01*
X29513241Y-63799873D01*
X29334613Y-63978502D01*
X29237940Y-64211891D01*
X14680000Y-64211891D01*
X14680000Y-61212151D01*
X33936940Y-61212151D01*
X33936940Y-62802770D01*
X34095690Y-62961520D01*
X36195000Y-62961520D01*
X36195000Y-60862210D01*
X36449000Y-60862210D01*
X36449000Y-62961520D01*
X38548310Y-62961520D01*
X38707060Y-62802770D01*
X38707060Y-61212151D01*
X38610387Y-60978762D01*
X38431759Y-60800133D01*
X38198370Y-60703460D01*
X36607750Y-60703460D01*
X36449000Y-60862210D01*
X36195000Y-60862210D01*
X36036250Y-60703460D01*
X34445630Y-60703460D01*
X34212241Y-60800133D01*
X34033613Y-60978762D01*
X33936940Y-61212151D01*
X14680000Y-61212151D01*
X14680000Y-60146000D01*
X40767000Y-60146000D01*
X40767000Y-65225394D01*
G36*
X109667748Y-88631858D02*
X109653605Y-88646000D01*
X109667748Y-88660142D01*
X109488142Y-88839748D01*
X109474000Y-88825605D01*
X109459858Y-88839748D01*
X109280253Y-88660143D01*
X109294395Y-88646000D01*
X109280253Y-88631858D01*
X109459858Y-88452252D01*
X109474000Y-88466395D01*
X109488142Y-88452252D01*
X109667748Y-88631858D01*
X109667748Y-88631858D01*
G37*
X109667748Y-88631858D02*
X109653605Y-88646000D01*
X109667748Y-88660142D01*
X109488142Y-88839748D01*
X109474000Y-88825605D01*
X109459858Y-88839748D01*
X109280253Y-88660143D01*
X109294395Y-88646000D01*
X109280253Y-88631858D01*
X109459858Y-88452252D01*
X109474000Y-88466395D01*
X109488142Y-88452252D01*
X109667748Y-88631858D01*
G36*
X93157748Y-88631858D02*
X93143605Y-88646000D01*
X93157748Y-88660142D01*
X92978142Y-88839748D01*
X92964000Y-88825605D01*
X92949858Y-88839748D01*
X92770252Y-88660142D01*
X92784395Y-88646000D01*
X92770252Y-88631858D01*
X92949858Y-88452252D01*
X92964000Y-88466395D01*
X92978142Y-88452252D01*
X93157748Y-88631858D01*
X93157748Y-88631858D01*
G37*
X93157748Y-88631858D02*
X93143605Y-88646000D01*
X93157748Y-88660142D01*
X92978142Y-88839748D01*
X92964000Y-88825605D01*
X92949858Y-88839748D01*
X92770252Y-88660142D01*
X92784395Y-88646000D01*
X92770252Y-88631858D01*
X92949858Y-88452252D01*
X92964000Y-88466395D01*
X92978142Y-88452252D01*
X93157748Y-88631858D01*
G36*
X153722000Y-62091431D02*
X153269892Y-61914934D01*
X152440602Y-61931942D01*
X151753435Y-62216576D01*
X151599756Y-62530151D01*
X152898000Y-63828395D01*
X152912143Y-63814253D01*
X153091748Y-63993858D01*
X153077605Y-64008000D01*
X153091748Y-64022143D01*
X152912143Y-64201748D01*
X152898000Y-64187605D01*
X151599756Y-65485849D01*
X151753435Y-65799424D01*
X152526108Y-66101066D01*
X153355398Y-66084058D01*
X153722000Y-65932206D01*
X153722000Y-83439000D01*
X144399000Y-83439000D01*
X144399000Y-82406800D01*
X144738849Y-82633880D01*
X145288000Y-82743113D01*
X145837151Y-82633880D01*
X146302698Y-82322811D01*
X146558000Y-81940725D01*
X146813302Y-82322811D01*
X147278849Y-82633880D01*
X147828000Y-82743113D01*
X148377151Y-82633880D01*
X148842698Y-82322811D01*
X149098000Y-81940725D01*
X149353302Y-82322811D01*
X149818849Y-82633880D01*
X150368000Y-82743113D01*
X150917151Y-82633880D01*
X151382698Y-82322811D01*
X151693767Y-81857264D01*
X151803000Y-81308113D01*
X151803000Y-81251887D01*
X151693767Y-80702736D01*
X151382698Y-80237189D01*
X150917151Y-79926120D01*
X150368000Y-79816887D01*
X149818849Y-79926120D01*
X149353302Y-80237189D01*
X149098000Y-80619275D01*
X148842698Y-80237189D01*
X148377151Y-79926120D01*
X147828000Y-79816887D01*
X147278849Y-79926120D01*
X146813302Y-80237189D01*
X146558000Y-80619275D01*
X146302698Y-80237189D01*
X145837151Y-79926120D01*
X145470051Y-79853099D01*
X145910846Y-79413073D01*
X146160206Y-78812547D01*
X146160774Y-78162306D01*
X145912462Y-77561345D01*
X145453073Y-77101154D01*
X144852547Y-76851794D01*
X144399000Y-76851398D01*
X144399000Y-76818380D01*
X144849694Y-76818774D01*
X145450655Y-76570462D01*
X145910846Y-76111073D01*
X146160206Y-75510547D01*
X146160774Y-74860306D01*
X145912462Y-74259345D01*
X145453073Y-73799154D01*
X144852547Y-73549794D01*
X144399000Y-73549398D01*
X144399000Y-72107040D01*
X147587738Y-72107040D01*
X147817138Y-72662229D01*
X148241537Y-73087370D01*
X148796325Y-73317738D01*
X149397040Y-73318262D01*
X149952229Y-73088862D01*
X150377370Y-72664463D01*
X150607738Y-72109675D01*
X150608262Y-71508960D01*
X150378862Y-70953771D01*
X149954463Y-70528630D01*
X149399675Y-70298262D01*
X148798960Y-70297738D01*
X148243771Y-70527138D01*
X147818630Y-70951537D01*
X147588262Y-71506325D01*
X147587738Y-72107040D01*
X144399000Y-72107040D01*
X144399000Y-65895290D01*
X144926108Y-66101066D01*
X145755398Y-66084058D01*
X146442565Y-65799424D01*
X146596244Y-65485849D01*
X145298000Y-64187605D01*
X145283858Y-64201748D01*
X145104253Y-64022143D01*
X145118395Y-64008000D01*
X145477605Y-64008000D01*
X146775849Y-65306244D01*
X147089424Y-65152565D01*
X147391066Y-64379892D01*
X147375812Y-63636108D01*
X150804934Y-63636108D01*
X150821942Y-64465398D01*
X151106576Y-65152565D01*
X151420151Y-65306244D01*
X152718395Y-64008000D01*
X151420151Y-62709756D01*
X151106576Y-62863435D01*
X150804934Y-63636108D01*
X147375812Y-63636108D01*
X147374058Y-63550602D01*
X147089424Y-62863435D01*
X146775849Y-62709756D01*
X145477605Y-64008000D01*
X145118395Y-64008000D01*
X145104253Y-63993858D01*
X145283858Y-63814253D01*
X145298000Y-63828395D01*
X146596244Y-62530151D01*
X146442565Y-62216576D01*
X145669892Y-61914934D01*
X144840602Y-61931942D01*
X144399000Y-62114860D01*
X144399000Y-60146000D01*
X153722000Y-60146000D01*
X153722000Y-62091431D01*
X153722000Y-62091431D01*
G37*
X153722000Y-62091431D02*
X153269892Y-61914934D01*
X152440602Y-61931942D01*
X151753435Y-62216576D01*
X151599756Y-62530151D01*
X152898000Y-63828395D01*
X152912143Y-63814253D01*
X153091748Y-63993858D01*
X153077605Y-64008000D01*
X153091748Y-64022143D01*
X152912143Y-64201748D01*
X152898000Y-64187605D01*
X151599756Y-65485849D01*
X151753435Y-65799424D01*
X152526108Y-66101066D01*
X153355398Y-66084058D01*
X153722000Y-65932206D01*
X153722000Y-83439000D01*
X144399000Y-83439000D01*
X144399000Y-82406800D01*
X144738849Y-82633880D01*
X145288000Y-82743113D01*
X145837151Y-82633880D01*
X146302698Y-82322811D01*
X146558000Y-81940725D01*
X146813302Y-82322811D01*
X147278849Y-82633880D01*
X147828000Y-82743113D01*
X148377151Y-82633880D01*
X148842698Y-82322811D01*
X149098000Y-81940725D01*
X149353302Y-82322811D01*
X149818849Y-82633880D01*
X150368000Y-82743113D01*
X150917151Y-82633880D01*
X151382698Y-82322811D01*
X151693767Y-81857264D01*
X151803000Y-81308113D01*
X151803000Y-81251887D01*
X151693767Y-80702736D01*
X151382698Y-80237189D01*
X150917151Y-79926120D01*
X150368000Y-79816887D01*
X149818849Y-79926120D01*
X149353302Y-80237189D01*
X149098000Y-80619275D01*
X148842698Y-80237189D01*
X148377151Y-79926120D01*
X147828000Y-79816887D01*
X147278849Y-79926120D01*
X146813302Y-80237189D01*
X146558000Y-80619275D01*
X146302698Y-80237189D01*
X145837151Y-79926120D01*
X145470051Y-79853099D01*
X145910846Y-79413073D01*
X146160206Y-78812547D01*
X146160774Y-78162306D01*
X145912462Y-77561345D01*
X145453073Y-77101154D01*
X144852547Y-76851794D01*
X144399000Y-76851398D01*
X144399000Y-76818380D01*
X144849694Y-76818774D01*
X145450655Y-76570462D01*
X145910846Y-76111073D01*
X146160206Y-75510547D01*
X146160774Y-74860306D01*
X145912462Y-74259345D01*
X145453073Y-73799154D01*
X144852547Y-73549794D01*
X144399000Y-73549398D01*
X144399000Y-72107040D01*
X147587738Y-72107040D01*
X147817138Y-72662229D01*
X148241537Y-73087370D01*
X148796325Y-73317738D01*
X149397040Y-73318262D01*
X149952229Y-73088862D01*
X150377370Y-72664463D01*
X150607738Y-72109675D01*
X150608262Y-71508960D01*
X150378862Y-70953771D01*
X149954463Y-70528630D01*
X149399675Y-70298262D01*
X148798960Y-70297738D01*
X148243771Y-70527138D01*
X147818630Y-70951537D01*
X147588262Y-71506325D01*
X147587738Y-72107040D01*
X144399000Y-72107040D01*
X144399000Y-65895290D01*
X144926108Y-66101066D01*
X145755398Y-66084058D01*
X146442565Y-65799424D01*
X146596244Y-65485849D01*
X145298000Y-64187605D01*
X145283858Y-64201748D01*
X145104253Y-64022143D01*
X145118395Y-64008000D01*
X145477605Y-64008000D01*
X146775849Y-65306244D01*
X147089424Y-65152565D01*
X147391066Y-64379892D01*
X147375812Y-63636108D01*
X150804934Y-63636108D01*
X150821942Y-64465398D01*
X151106576Y-65152565D01*
X151420151Y-65306244D01*
X152718395Y-64008000D01*
X151420151Y-62709756D01*
X151106576Y-62863435D01*
X150804934Y-63636108D01*
X147375812Y-63636108D01*
X147374058Y-63550602D01*
X147089424Y-62863435D01*
X146775849Y-62709756D01*
X145477605Y-64008000D01*
X145118395Y-64008000D01*
X145104253Y-63993858D01*
X145283858Y-63814253D01*
X145298000Y-63828395D01*
X146596244Y-62530151D01*
X146442565Y-62216576D01*
X145669892Y-61914934D01*
X144840602Y-61931942D01*
X144399000Y-62114860D01*
X144399000Y-60146000D01*
X153722000Y-60146000D01*
X153722000Y-62091431D01*
G36*
X43779991Y-60289875D02*
X43599206Y-60725255D01*
X43598794Y-61196677D01*
X43778820Y-61632372D01*
X44111875Y-61966009D01*
X44547255Y-62146794D01*
X45018677Y-62147206D01*
X45454372Y-61967180D01*
X45788009Y-61634125D01*
X45968794Y-61198745D01*
X45969206Y-60727323D01*
X45789180Y-60291628D01*
X45643806Y-60146000D01*
X48924117Y-60146000D01*
X48779991Y-60289875D01*
X48599206Y-60725255D01*
X48598794Y-61196677D01*
X48778820Y-61632372D01*
X49111875Y-61966009D01*
X49547255Y-62146794D01*
X50018677Y-62147206D01*
X50454372Y-61967180D01*
X50788009Y-61634125D01*
X50968794Y-61198745D01*
X50969206Y-60727323D01*
X50789180Y-60291628D01*
X50643806Y-60146000D01*
X53924117Y-60146000D01*
X53779991Y-60289875D01*
X53599206Y-60725255D01*
X53598794Y-61196677D01*
X53778820Y-61632372D01*
X54111875Y-61966009D01*
X54547255Y-62146794D01*
X55018677Y-62147206D01*
X55454372Y-61967180D01*
X55788009Y-61634125D01*
X55968794Y-61198745D01*
X55969206Y-60727323D01*
X55789180Y-60291628D01*
X55643806Y-60146000D01*
X58924117Y-60146000D01*
X58779991Y-60289875D01*
X58599206Y-60725255D01*
X58598794Y-61196677D01*
X58778820Y-61632372D01*
X59111875Y-61966009D01*
X59547255Y-62146794D01*
X60018677Y-62147206D01*
X60454372Y-61967180D01*
X60788009Y-61634125D01*
X60968794Y-61198745D01*
X60969206Y-60727323D01*
X60789180Y-60291628D01*
X60643806Y-60146000D01*
X63924117Y-60146000D01*
X63779991Y-60289875D01*
X63599206Y-60725255D01*
X63598794Y-61196677D01*
X63778820Y-61632372D01*
X64111875Y-61966009D01*
X64547255Y-62146794D01*
X65018677Y-62147206D01*
X65454372Y-61967180D01*
X65788009Y-61634125D01*
X65968794Y-61198745D01*
X65969206Y-60727323D01*
X65789180Y-60291628D01*
X65643806Y-60146000D01*
X68924117Y-60146000D01*
X68779991Y-60289875D01*
X68599206Y-60725255D01*
X68598794Y-61196677D01*
X68778820Y-61632372D01*
X69111875Y-61966009D01*
X69547255Y-62146794D01*
X70018677Y-62147206D01*
X70454372Y-61967180D01*
X70788009Y-61634125D01*
X70968794Y-61198745D01*
X70969206Y-60727323D01*
X70789180Y-60291628D01*
X70643806Y-60146000D01*
X75594117Y-60146000D01*
X75449991Y-60289875D01*
X75269206Y-60725255D01*
X75268794Y-61196677D01*
X75448820Y-61632372D01*
X75781875Y-61966009D01*
X76217255Y-62146794D01*
X76688677Y-62147206D01*
X77124372Y-61967180D01*
X77458009Y-61634125D01*
X77638794Y-61198745D01*
X77639206Y-60727323D01*
X77459180Y-60291628D01*
X77313806Y-60146000D01*
X80594117Y-60146000D01*
X80449991Y-60289875D01*
X80269206Y-60725255D01*
X80268794Y-61196677D01*
X80448820Y-61632372D01*
X80781875Y-61966009D01*
X81217255Y-62146794D01*
X81688677Y-62147206D01*
X82124372Y-61967180D01*
X82458009Y-61634125D01*
X82638794Y-61198745D01*
X82639206Y-60727323D01*
X82459180Y-60291628D01*
X82313806Y-60146000D01*
X85594117Y-60146000D01*
X85449991Y-60289875D01*
X85269206Y-60725255D01*
X85268794Y-61196677D01*
X85448820Y-61632372D01*
X85781875Y-61966009D01*
X86217255Y-62146794D01*
X86688677Y-62147206D01*
X87124372Y-61967180D01*
X87458009Y-61634125D01*
X87638794Y-61198745D01*
X87639206Y-60727323D01*
X87459180Y-60291628D01*
X87313806Y-60146000D01*
X90594117Y-60146000D01*
X90449991Y-60289875D01*
X90269206Y-60725255D01*
X90268794Y-61196677D01*
X90448820Y-61632372D01*
X90781875Y-61966009D01*
X91217255Y-62146794D01*
X91688677Y-62147206D01*
X92124372Y-61967180D01*
X92458009Y-61634125D01*
X92638794Y-61198745D01*
X92639206Y-60727323D01*
X92459180Y-60291628D01*
X92313806Y-60146000D01*
X95594117Y-60146000D01*
X95449991Y-60289875D01*
X95269206Y-60725255D01*
X95268794Y-61196677D01*
X95448820Y-61632372D01*
X95781875Y-61966009D01*
X96217255Y-62146794D01*
X96688677Y-62147206D01*
X97124372Y-61967180D01*
X97458009Y-61634125D01*
X97638794Y-61198745D01*
X97639206Y-60727323D01*
X97459180Y-60291628D01*
X97313806Y-60146000D01*
X100594117Y-60146000D01*
X100449991Y-60289875D01*
X100269206Y-60725255D01*
X100268794Y-61196677D01*
X100448820Y-61632372D01*
X100781875Y-61966009D01*
X101217255Y-62146794D01*
X101688677Y-62147206D01*
X102124372Y-61967180D01*
X102458009Y-61634125D01*
X102638794Y-61198745D01*
X102639206Y-60727323D01*
X102459180Y-60291628D01*
X102313806Y-60146000D01*
X104267000Y-60146000D01*
X104267000Y-68453000D01*
X45974000Y-68453000D01*
X45924590Y-68463006D01*
X45884197Y-68490197D01*
X43635394Y-70739000D01*
X38707060Y-70739000D01*
X38707060Y-69373750D01*
X38548310Y-69215000D01*
X36449000Y-69215000D01*
X36449000Y-69235000D01*
X36195000Y-69235000D01*
X36195000Y-69215000D01*
X36175000Y-69215000D01*
X36175000Y-68961000D01*
X36195000Y-68961000D01*
X36195000Y-68941000D01*
X36449000Y-68941000D01*
X36449000Y-68961000D01*
X38548310Y-68961000D01*
X38707060Y-68802250D01*
X38707060Y-67437000D01*
X40132000Y-67437000D01*
X40181410Y-67426994D01*
X40221803Y-67399803D01*
X41999803Y-65621803D01*
X42027666Y-65579789D01*
X42037000Y-65532000D01*
X42037000Y-64595697D01*
X43098708Y-64595697D01*
X43354694Y-65215229D01*
X43828278Y-65689640D01*
X44447362Y-65946707D01*
X45117697Y-65947292D01*
X45737229Y-65691306D01*
X45978252Y-65450703D01*
X48774902Y-65450703D01*
X48879687Y-65722745D01*
X49507526Y-65957619D01*
X50177456Y-65934349D01*
X50688313Y-65722745D01*
X50793098Y-65450703D01*
X49784000Y-64441605D01*
X48774902Y-65450703D01*
X45978252Y-65450703D01*
X46211640Y-65217722D01*
X46468707Y-64598638D01*
X46469242Y-63985526D01*
X48088381Y-63985526D01*
X48111651Y-64655456D01*
X48323255Y-65166313D01*
X48595297Y-65271098D01*
X49604395Y-64262000D01*
X49963605Y-64262000D01*
X50972703Y-65271098D01*
X51244745Y-65166313D01*
X51458211Y-64595697D01*
X53098708Y-64595697D01*
X53354694Y-65215229D01*
X53828278Y-65689640D01*
X54447362Y-65946707D01*
X55117697Y-65947292D01*
X55737229Y-65691306D01*
X55978252Y-65450703D01*
X58774902Y-65450703D01*
X58879687Y-65722745D01*
X59507526Y-65957619D01*
X60177456Y-65934349D01*
X60688313Y-65722745D01*
X60793098Y-65450703D01*
X59784000Y-64441605D01*
X58774902Y-65450703D01*
X55978252Y-65450703D01*
X56211640Y-65217722D01*
X56468707Y-64598638D01*
X56469242Y-63985526D01*
X58088381Y-63985526D01*
X58111651Y-64655456D01*
X58323255Y-65166313D01*
X58595297Y-65271098D01*
X59604395Y-64262000D01*
X59963605Y-64262000D01*
X60972703Y-65271098D01*
X61244745Y-65166313D01*
X61458211Y-64595697D01*
X63098708Y-64595697D01*
X63354694Y-65215229D01*
X63828278Y-65689640D01*
X64447362Y-65946707D01*
X65117697Y-65947292D01*
X65737229Y-65691306D01*
X65978252Y-65450703D01*
X68774902Y-65450703D01*
X68879687Y-65722745D01*
X69507526Y-65957619D01*
X70177456Y-65934349D01*
X70688313Y-65722745D01*
X70793098Y-65450703D01*
X75444902Y-65450703D01*
X75549687Y-65722745D01*
X76177526Y-65957619D01*
X76847456Y-65934349D01*
X77358313Y-65722745D01*
X77463098Y-65450703D01*
X76454000Y-64441605D01*
X75444902Y-65450703D01*
X70793098Y-65450703D01*
X69784000Y-64441605D01*
X68774902Y-65450703D01*
X65978252Y-65450703D01*
X66211640Y-65217722D01*
X66468707Y-64598638D01*
X66469242Y-63985526D01*
X68088381Y-63985526D01*
X68111651Y-64655456D01*
X68323255Y-65166313D01*
X68595297Y-65271098D01*
X69604395Y-64262000D01*
X69963605Y-64262000D01*
X70972703Y-65271098D01*
X71244745Y-65166313D01*
X71479619Y-64538474D01*
X71460413Y-63985526D01*
X74758381Y-63985526D01*
X74781651Y-64655456D01*
X74993255Y-65166313D01*
X75265297Y-65271098D01*
X76274395Y-64262000D01*
X76633605Y-64262000D01*
X77642703Y-65271098D01*
X77914745Y-65166313D01*
X78128211Y-64595697D01*
X79768708Y-64595697D01*
X80024694Y-65215229D01*
X80498278Y-65689640D01*
X81117362Y-65946707D01*
X81787697Y-65947292D01*
X82407229Y-65691306D01*
X82881640Y-65217722D01*
X83138707Y-64598638D01*
X83138709Y-64595697D01*
X84768708Y-64595697D01*
X85024694Y-65215229D01*
X85498278Y-65689640D01*
X86117362Y-65946707D01*
X86787697Y-65947292D01*
X87407229Y-65691306D01*
X87881640Y-65217722D01*
X88138707Y-64598638D01*
X88138709Y-64595697D01*
X89768708Y-64595697D01*
X90024694Y-65215229D01*
X90498278Y-65689640D01*
X91117362Y-65946707D01*
X91787697Y-65947292D01*
X92407229Y-65691306D01*
X92648252Y-65450703D01*
X95444902Y-65450703D01*
X95549687Y-65722745D01*
X96177526Y-65957619D01*
X96847456Y-65934349D01*
X97358313Y-65722745D01*
X97463098Y-65450703D01*
X100444902Y-65450703D01*
X100549687Y-65722745D01*
X101177526Y-65957619D01*
X101847456Y-65934349D01*
X102358313Y-65722745D01*
X102463098Y-65450703D01*
X101454000Y-64441605D01*
X100444902Y-65450703D01*
X97463098Y-65450703D01*
X96454000Y-64441605D01*
X95444902Y-65450703D01*
X92648252Y-65450703D01*
X92881640Y-65217722D01*
X93138707Y-64598638D01*
X93139242Y-63985526D01*
X94758381Y-63985526D01*
X94781651Y-64655456D01*
X94993255Y-65166313D01*
X95265297Y-65271098D01*
X96274395Y-64262000D01*
X96633605Y-64262000D01*
X97642703Y-65271098D01*
X97914745Y-65166313D01*
X98149619Y-64538474D01*
X98130413Y-63985526D01*
X99758381Y-63985526D01*
X99781651Y-64655456D01*
X99993255Y-65166313D01*
X100265297Y-65271098D01*
X101274395Y-64262000D01*
X101633605Y-64262000D01*
X102642703Y-65271098D01*
X102914745Y-65166313D01*
X103149619Y-64538474D01*
X103126349Y-63868544D01*
X102914745Y-63357687D01*
X102642703Y-63252902D01*
X101633605Y-64262000D01*
X101274395Y-64262000D01*
X100265297Y-63252902D01*
X99993255Y-63357687D01*
X99758381Y-63985526D01*
X98130413Y-63985526D01*
X98126349Y-63868544D01*
X97914745Y-63357687D01*
X97642703Y-63252902D01*
X96633605Y-64262000D01*
X96274395Y-64262000D01*
X95265297Y-63252902D01*
X94993255Y-63357687D01*
X94758381Y-63985526D01*
X93139242Y-63985526D01*
X93139292Y-63928303D01*
X92883306Y-63308771D01*
X92648243Y-63073297D01*
X95444902Y-63073297D01*
X96454000Y-64082395D01*
X97463098Y-63073297D01*
X100444902Y-63073297D01*
X101454000Y-64082395D01*
X102463098Y-63073297D01*
X102358313Y-62801255D01*
X101730474Y-62566381D01*
X101060544Y-62589651D01*
X100549687Y-62801255D01*
X100444902Y-63073297D01*
X97463098Y-63073297D01*
X97358313Y-62801255D01*
X96730474Y-62566381D01*
X96060544Y-62589651D01*
X95549687Y-62801255D01*
X95444902Y-63073297D01*
X92648243Y-63073297D01*
X92409722Y-62834360D01*
X91790638Y-62577293D01*
X91120303Y-62576708D01*
X90500771Y-62832694D01*
X90026360Y-63306278D01*
X89769293Y-63925362D01*
X89768708Y-64595697D01*
X88138709Y-64595697D01*
X88139292Y-63928303D01*
X87883306Y-63308771D01*
X87409722Y-62834360D01*
X86790638Y-62577293D01*
X86120303Y-62576708D01*
X85500771Y-62832694D01*
X85026360Y-63306278D01*
X84769293Y-63925362D01*
X84768708Y-64595697D01*
X83138709Y-64595697D01*
X83139292Y-63928303D01*
X82883306Y-63308771D01*
X82409722Y-62834360D01*
X81790638Y-62577293D01*
X81120303Y-62576708D01*
X80500771Y-62832694D01*
X80026360Y-63306278D01*
X79769293Y-63925362D01*
X79768708Y-64595697D01*
X78128211Y-64595697D01*
X78149619Y-64538474D01*
X78126349Y-63868544D01*
X77914745Y-63357687D01*
X77642703Y-63252902D01*
X76633605Y-64262000D01*
X76274395Y-64262000D01*
X75265297Y-63252902D01*
X74993255Y-63357687D01*
X74758381Y-63985526D01*
X71460413Y-63985526D01*
X71456349Y-63868544D01*
X71244745Y-63357687D01*
X70972703Y-63252902D01*
X69963605Y-64262000D01*
X69604395Y-64262000D01*
X68595297Y-63252902D01*
X68323255Y-63357687D01*
X68088381Y-63985526D01*
X66469242Y-63985526D01*
X66469292Y-63928303D01*
X66213306Y-63308771D01*
X65978243Y-63073297D01*
X68774902Y-63073297D01*
X69784000Y-64082395D01*
X70793098Y-63073297D01*
X75444902Y-63073297D01*
X76454000Y-64082395D01*
X77463098Y-63073297D01*
X77358313Y-62801255D01*
X76730474Y-62566381D01*
X76060544Y-62589651D01*
X75549687Y-62801255D01*
X75444902Y-63073297D01*
X70793098Y-63073297D01*
X70688313Y-62801255D01*
X70060474Y-62566381D01*
X69390544Y-62589651D01*
X68879687Y-62801255D01*
X68774902Y-63073297D01*
X65978243Y-63073297D01*
X65739722Y-62834360D01*
X65120638Y-62577293D01*
X64450303Y-62576708D01*
X63830771Y-62832694D01*
X63356360Y-63306278D01*
X63099293Y-63925362D01*
X63098708Y-64595697D01*
X61458211Y-64595697D01*
X61479619Y-64538474D01*
X61456349Y-63868544D01*
X61244745Y-63357687D01*
X60972703Y-63252902D01*
X59963605Y-64262000D01*
X59604395Y-64262000D01*
X58595297Y-63252902D01*
X58323255Y-63357687D01*
X58088381Y-63985526D01*
X56469242Y-63985526D01*
X56469292Y-63928303D01*
X56213306Y-63308771D01*
X55978243Y-63073297D01*
X58774902Y-63073297D01*
X59784000Y-64082395D01*
X60793098Y-63073297D01*
X60688313Y-62801255D01*
X60060474Y-62566381D01*
X59390544Y-62589651D01*
X58879687Y-62801255D01*
X58774902Y-63073297D01*
X55978243Y-63073297D01*
X55739722Y-62834360D01*
X55120638Y-62577293D01*
X54450303Y-62576708D01*
X53830771Y-62832694D01*
X53356360Y-63306278D01*
X53099293Y-63925362D01*
X53098708Y-64595697D01*
X51458211Y-64595697D01*
X51479619Y-64538474D01*
X51456349Y-63868544D01*
X51244745Y-63357687D01*
X50972703Y-63252902D01*
X49963605Y-64262000D01*
X49604395Y-64262000D01*
X48595297Y-63252902D01*
X48323255Y-63357687D01*
X48088381Y-63985526D01*
X46469242Y-63985526D01*
X46469292Y-63928303D01*
X46213306Y-63308771D01*
X45978243Y-63073297D01*
X48774902Y-63073297D01*
X49784000Y-64082395D01*
X50793098Y-63073297D01*
X50688313Y-62801255D01*
X50060474Y-62566381D01*
X49390544Y-62589651D01*
X48879687Y-62801255D01*
X48774902Y-63073297D01*
X45978243Y-63073297D01*
X45739722Y-62834360D01*
X45120638Y-62577293D01*
X44450303Y-62576708D01*
X43830771Y-62832694D01*
X43356360Y-63306278D01*
X43099293Y-63925362D01*
X43098708Y-64595697D01*
X42037000Y-64595697D01*
X42037000Y-60146000D01*
X43924117Y-60146000D01*
X43779991Y-60289875D01*
X43779991Y-60289875D01*
G37*
X43779991Y-60289875D02*
X43599206Y-60725255D01*
X43598794Y-61196677D01*
X43778820Y-61632372D01*
X44111875Y-61966009D01*
X44547255Y-62146794D01*
X45018677Y-62147206D01*
X45454372Y-61967180D01*
X45788009Y-61634125D01*
X45968794Y-61198745D01*
X45969206Y-60727323D01*
X45789180Y-60291628D01*
X45643806Y-60146000D01*
X48924117Y-60146000D01*
X48779991Y-60289875D01*
X48599206Y-60725255D01*
X48598794Y-61196677D01*
X48778820Y-61632372D01*
X49111875Y-61966009D01*
X49547255Y-62146794D01*
X50018677Y-62147206D01*
X50454372Y-61967180D01*
X50788009Y-61634125D01*
X50968794Y-61198745D01*
X50969206Y-60727323D01*
X50789180Y-60291628D01*
X50643806Y-60146000D01*
X53924117Y-60146000D01*
X53779991Y-60289875D01*
X53599206Y-60725255D01*
X53598794Y-61196677D01*
X53778820Y-61632372D01*
X54111875Y-61966009D01*
X54547255Y-62146794D01*
X55018677Y-62147206D01*
X55454372Y-61967180D01*
X55788009Y-61634125D01*
X55968794Y-61198745D01*
X55969206Y-60727323D01*
X55789180Y-60291628D01*
X55643806Y-60146000D01*
X58924117Y-60146000D01*
X58779991Y-60289875D01*
X58599206Y-60725255D01*
X58598794Y-61196677D01*
X58778820Y-61632372D01*
X59111875Y-61966009D01*
X59547255Y-62146794D01*
X60018677Y-62147206D01*
X60454372Y-61967180D01*
X60788009Y-61634125D01*
X60968794Y-61198745D01*
X60969206Y-60727323D01*
X60789180Y-60291628D01*
X60643806Y-60146000D01*
X63924117Y-60146000D01*
X63779991Y-60289875D01*
X63599206Y-60725255D01*
X63598794Y-61196677D01*
X63778820Y-61632372D01*
X64111875Y-61966009D01*
X64547255Y-62146794D01*
X65018677Y-62147206D01*
X65454372Y-61967180D01*
X65788009Y-61634125D01*
X65968794Y-61198745D01*
X65969206Y-60727323D01*
X65789180Y-60291628D01*
X65643806Y-60146000D01*
X68924117Y-60146000D01*
X68779991Y-60289875D01*
X68599206Y-60725255D01*
X68598794Y-61196677D01*
X68778820Y-61632372D01*
X69111875Y-61966009D01*
X69547255Y-62146794D01*
X70018677Y-62147206D01*
X70454372Y-61967180D01*
X70788009Y-61634125D01*
X70968794Y-61198745D01*
X70969206Y-60727323D01*
X70789180Y-60291628D01*
X70643806Y-60146000D01*
X75594117Y-60146000D01*
X75449991Y-60289875D01*
X75269206Y-60725255D01*
X75268794Y-61196677D01*
X75448820Y-61632372D01*
X75781875Y-61966009D01*
X76217255Y-62146794D01*
X76688677Y-62147206D01*
X77124372Y-61967180D01*
X77458009Y-61634125D01*
X77638794Y-61198745D01*
X77639206Y-60727323D01*
X77459180Y-60291628D01*
X77313806Y-60146000D01*
X80594117Y-60146000D01*
X80449991Y-60289875D01*
X80269206Y-60725255D01*
X80268794Y-61196677D01*
X80448820Y-61632372D01*
X80781875Y-61966009D01*
X81217255Y-62146794D01*
X81688677Y-62147206D01*
X82124372Y-61967180D01*
X82458009Y-61634125D01*
X82638794Y-61198745D01*
X82639206Y-60727323D01*
X82459180Y-60291628D01*
X82313806Y-60146000D01*
X85594117Y-60146000D01*
X85449991Y-60289875D01*
X85269206Y-60725255D01*
X85268794Y-61196677D01*
X85448820Y-61632372D01*
X85781875Y-61966009D01*
X86217255Y-62146794D01*
X86688677Y-62147206D01*
X87124372Y-61967180D01*
X87458009Y-61634125D01*
X87638794Y-61198745D01*
X87639206Y-60727323D01*
X87459180Y-60291628D01*
X87313806Y-60146000D01*
X90594117Y-60146000D01*
X90449991Y-60289875D01*
X90269206Y-60725255D01*
X90268794Y-61196677D01*
X90448820Y-61632372D01*
X90781875Y-61966009D01*
X91217255Y-62146794D01*
X91688677Y-62147206D01*
X92124372Y-61967180D01*
X92458009Y-61634125D01*
X92638794Y-61198745D01*
X92639206Y-60727323D01*
X92459180Y-60291628D01*
X92313806Y-60146000D01*
X95594117Y-60146000D01*
X95449991Y-60289875D01*
X95269206Y-60725255D01*
X95268794Y-61196677D01*
X95448820Y-61632372D01*
X95781875Y-61966009D01*
X96217255Y-62146794D01*
X96688677Y-62147206D01*
X97124372Y-61967180D01*
X97458009Y-61634125D01*
X97638794Y-61198745D01*
X97639206Y-60727323D01*
X97459180Y-60291628D01*
X97313806Y-60146000D01*
X100594117Y-60146000D01*
X100449991Y-60289875D01*
X100269206Y-60725255D01*
X100268794Y-61196677D01*
X100448820Y-61632372D01*
X100781875Y-61966009D01*
X101217255Y-62146794D01*
X101688677Y-62147206D01*
X102124372Y-61967180D01*
X102458009Y-61634125D01*
X102638794Y-61198745D01*
X102639206Y-60727323D01*
X102459180Y-60291628D01*
X102313806Y-60146000D01*
X104267000Y-60146000D01*
X104267000Y-68453000D01*
X45974000Y-68453000D01*
X45924590Y-68463006D01*
X45884197Y-68490197D01*
X43635394Y-70739000D01*
X38707060Y-70739000D01*
X38707060Y-69373750D01*
X38548310Y-69215000D01*
X36449000Y-69215000D01*
X36449000Y-69235000D01*
X36195000Y-69235000D01*
X36195000Y-69215000D01*
X36175000Y-69215000D01*
X36175000Y-68961000D01*
X36195000Y-68961000D01*
X36195000Y-68941000D01*
X36449000Y-68941000D01*
X36449000Y-68961000D01*
X38548310Y-68961000D01*
X38707060Y-68802250D01*
X38707060Y-67437000D01*
X40132000Y-67437000D01*
X40181410Y-67426994D01*
X40221803Y-67399803D01*
X41999803Y-65621803D01*
X42027666Y-65579789D01*
X42037000Y-65532000D01*
X42037000Y-64595697D01*
X43098708Y-64595697D01*
X43354694Y-65215229D01*
X43828278Y-65689640D01*
X44447362Y-65946707D01*
X45117697Y-65947292D01*
X45737229Y-65691306D01*
X45978252Y-65450703D01*
X48774902Y-65450703D01*
X48879687Y-65722745D01*
X49507526Y-65957619D01*
X50177456Y-65934349D01*
X50688313Y-65722745D01*
X50793098Y-65450703D01*
X49784000Y-64441605D01*
X48774902Y-65450703D01*
X45978252Y-65450703D01*
X46211640Y-65217722D01*
X46468707Y-64598638D01*
X46469242Y-63985526D01*
X48088381Y-63985526D01*
X48111651Y-64655456D01*
X48323255Y-65166313D01*
X48595297Y-65271098D01*
X49604395Y-64262000D01*
X49963605Y-64262000D01*
X50972703Y-65271098D01*
X51244745Y-65166313D01*
X51458211Y-64595697D01*
X53098708Y-64595697D01*
X53354694Y-65215229D01*
X53828278Y-65689640D01*
X54447362Y-65946707D01*
X55117697Y-65947292D01*
X55737229Y-65691306D01*
X55978252Y-65450703D01*
X58774902Y-65450703D01*
X58879687Y-65722745D01*
X59507526Y-65957619D01*
X60177456Y-65934349D01*
X60688313Y-65722745D01*
X60793098Y-65450703D01*
X59784000Y-64441605D01*
X58774902Y-65450703D01*
X55978252Y-65450703D01*
X56211640Y-65217722D01*
X56468707Y-64598638D01*
X56469242Y-63985526D01*
X58088381Y-63985526D01*
X58111651Y-64655456D01*
X58323255Y-65166313D01*
X58595297Y-65271098D01*
X59604395Y-64262000D01*
X59963605Y-64262000D01*
X60972703Y-65271098D01*
X61244745Y-65166313D01*
X61458211Y-64595697D01*
X63098708Y-64595697D01*
X63354694Y-65215229D01*
X63828278Y-65689640D01*
X64447362Y-65946707D01*
X65117697Y-65947292D01*
X65737229Y-65691306D01*
X65978252Y-65450703D01*
X68774902Y-65450703D01*
X68879687Y-65722745D01*
X69507526Y-65957619D01*
X70177456Y-65934349D01*
X70688313Y-65722745D01*
X70793098Y-65450703D01*
X75444902Y-65450703D01*
X75549687Y-65722745D01*
X76177526Y-65957619D01*
X76847456Y-65934349D01*
X77358313Y-65722745D01*
X77463098Y-65450703D01*
X76454000Y-64441605D01*
X75444902Y-65450703D01*
X70793098Y-65450703D01*
X69784000Y-64441605D01*
X68774902Y-65450703D01*
X65978252Y-65450703D01*
X66211640Y-65217722D01*
X66468707Y-64598638D01*
X66469242Y-63985526D01*
X68088381Y-63985526D01*
X68111651Y-64655456D01*
X68323255Y-65166313D01*
X68595297Y-65271098D01*
X69604395Y-64262000D01*
X69963605Y-64262000D01*
X70972703Y-65271098D01*
X71244745Y-65166313D01*
X71479619Y-64538474D01*
X71460413Y-63985526D01*
X74758381Y-63985526D01*
X74781651Y-64655456D01*
X74993255Y-65166313D01*
X75265297Y-65271098D01*
X76274395Y-64262000D01*
X76633605Y-64262000D01*
X77642703Y-65271098D01*
X77914745Y-65166313D01*
X78128211Y-64595697D01*
X79768708Y-64595697D01*
X80024694Y-65215229D01*
X80498278Y-65689640D01*
X81117362Y-65946707D01*
X81787697Y-65947292D01*
X82407229Y-65691306D01*
X82881640Y-65217722D01*
X83138707Y-64598638D01*
X83138709Y-64595697D01*
X84768708Y-64595697D01*
X85024694Y-65215229D01*
X85498278Y-65689640D01*
X86117362Y-65946707D01*
X86787697Y-65947292D01*
X87407229Y-65691306D01*
X87881640Y-65217722D01*
X88138707Y-64598638D01*
X88138709Y-64595697D01*
X89768708Y-64595697D01*
X90024694Y-65215229D01*
X90498278Y-65689640D01*
X91117362Y-65946707D01*
X91787697Y-65947292D01*
X92407229Y-65691306D01*
X92648252Y-65450703D01*
X95444902Y-65450703D01*
X95549687Y-65722745D01*
X96177526Y-65957619D01*
X96847456Y-65934349D01*
X97358313Y-65722745D01*
X97463098Y-65450703D01*
X100444902Y-65450703D01*
X100549687Y-65722745D01*
X101177526Y-65957619D01*
X101847456Y-65934349D01*
X102358313Y-65722745D01*
X102463098Y-65450703D01*
X101454000Y-64441605D01*
X100444902Y-65450703D01*
X97463098Y-65450703D01*
X96454000Y-64441605D01*
X95444902Y-65450703D01*
X92648252Y-65450703D01*
X92881640Y-65217722D01*
X93138707Y-64598638D01*
X93139242Y-63985526D01*
X94758381Y-63985526D01*
X94781651Y-64655456D01*
X94993255Y-65166313D01*
X95265297Y-65271098D01*
X96274395Y-64262000D01*
X96633605Y-64262000D01*
X97642703Y-65271098D01*
X97914745Y-65166313D01*
X98149619Y-64538474D01*
X98130413Y-63985526D01*
X99758381Y-63985526D01*
X99781651Y-64655456D01*
X99993255Y-65166313D01*
X100265297Y-65271098D01*
X101274395Y-64262000D01*
X101633605Y-64262000D01*
X102642703Y-65271098D01*
X102914745Y-65166313D01*
X103149619Y-64538474D01*
X103126349Y-63868544D01*
X102914745Y-63357687D01*
X102642703Y-63252902D01*
X101633605Y-64262000D01*
X101274395Y-64262000D01*
X100265297Y-63252902D01*
X99993255Y-63357687D01*
X99758381Y-63985526D01*
X98130413Y-63985526D01*
X98126349Y-63868544D01*
X97914745Y-63357687D01*
X97642703Y-63252902D01*
X96633605Y-64262000D01*
X96274395Y-64262000D01*
X95265297Y-63252902D01*
X94993255Y-63357687D01*
X94758381Y-63985526D01*
X93139242Y-63985526D01*
X93139292Y-63928303D01*
X92883306Y-63308771D01*
X92648243Y-63073297D01*
X95444902Y-63073297D01*
X96454000Y-64082395D01*
X97463098Y-63073297D01*
X100444902Y-63073297D01*
X101454000Y-64082395D01*
X102463098Y-63073297D01*
X102358313Y-62801255D01*
X101730474Y-62566381D01*
X101060544Y-62589651D01*
X100549687Y-62801255D01*
X100444902Y-63073297D01*
X97463098Y-63073297D01*
X97358313Y-62801255D01*
X96730474Y-62566381D01*
X96060544Y-62589651D01*
X95549687Y-62801255D01*
X95444902Y-63073297D01*
X92648243Y-63073297D01*
X92409722Y-62834360D01*
X91790638Y-62577293D01*
X91120303Y-62576708D01*
X90500771Y-62832694D01*
X90026360Y-63306278D01*
X89769293Y-63925362D01*
X89768708Y-64595697D01*
X88138709Y-64595697D01*
X88139292Y-63928303D01*
X87883306Y-63308771D01*
X87409722Y-62834360D01*
X86790638Y-62577293D01*
X86120303Y-62576708D01*
X85500771Y-62832694D01*
X85026360Y-63306278D01*
X84769293Y-63925362D01*
X84768708Y-64595697D01*
X83138709Y-64595697D01*
X83139292Y-63928303D01*
X82883306Y-63308771D01*
X82409722Y-62834360D01*
X81790638Y-62577293D01*
X81120303Y-62576708D01*
X80500771Y-62832694D01*
X80026360Y-63306278D01*
X79769293Y-63925362D01*
X79768708Y-64595697D01*
X78128211Y-64595697D01*
X78149619Y-64538474D01*
X78126349Y-63868544D01*
X77914745Y-63357687D01*
X77642703Y-63252902D01*
X76633605Y-64262000D01*
X76274395Y-64262000D01*
X75265297Y-63252902D01*
X74993255Y-63357687D01*
X74758381Y-63985526D01*
X71460413Y-63985526D01*
X71456349Y-63868544D01*
X71244745Y-63357687D01*
X70972703Y-63252902D01*
X69963605Y-64262000D01*
X69604395Y-64262000D01*
X68595297Y-63252902D01*
X68323255Y-63357687D01*
X68088381Y-63985526D01*
X66469242Y-63985526D01*
X66469292Y-63928303D01*
X66213306Y-63308771D01*
X65978243Y-63073297D01*
X68774902Y-63073297D01*
X69784000Y-64082395D01*
X70793098Y-63073297D01*
X75444902Y-63073297D01*
X76454000Y-64082395D01*
X77463098Y-63073297D01*
X77358313Y-62801255D01*
X76730474Y-62566381D01*
X76060544Y-62589651D01*
X75549687Y-62801255D01*
X75444902Y-63073297D01*
X70793098Y-63073297D01*
X70688313Y-62801255D01*
X70060474Y-62566381D01*
X69390544Y-62589651D01*
X68879687Y-62801255D01*
X68774902Y-63073297D01*
X65978243Y-63073297D01*
X65739722Y-62834360D01*
X65120638Y-62577293D01*
X64450303Y-62576708D01*
X63830771Y-62832694D01*
X63356360Y-63306278D01*
X63099293Y-63925362D01*
X63098708Y-64595697D01*
X61458211Y-64595697D01*
X61479619Y-64538474D01*
X61456349Y-63868544D01*
X61244745Y-63357687D01*
X60972703Y-63252902D01*
X59963605Y-64262000D01*
X59604395Y-64262000D01*
X58595297Y-63252902D01*
X58323255Y-63357687D01*
X58088381Y-63985526D01*
X56469242Y-63985526D01*
X56469292Y-63928303D01*
X56213306Y-63308771D01*
X55978243Y-63073297D01*
X58774902Y-63073297D01*
X59784000Y-64082395D01*
X60793098Y-63073297D01*
X60688313Y-62801255D01*
X60060474Y-62566381D01*
X59390544Y-62589651D01*
X58879687Y-62801255D01*
X58774902Y-63073297D01*
X55978243Y-63073297D01*
X55739722Y-62834360D01*
X55120638Y-62577293D01*
X54450303Y-62576708D01*
X53830771Y-62832694D01*
X53356360Y-63306278D01*
X53099293Y-63925362D01*
X53098708Y-64595697D01*
X51458211Y-64595697D01*
X51479619Y-64538474D01*
X51456349Y-63868544D01*
X51244745Y-63357687D01*
X50972703Y-63252902D01*
X49963605Y-64262000D01*
X49604395Y-64262000D01*
X48595297Y-63252902D01*
X48323255Y-63357687D01*
X48088381Y-63985526D01*
X46469242Y-63985526D01*
X46469292Y-63928303D01*
X46213306Y-63308771D01*
X45978243Y-63073297D01*
X48774902Y-63073297D01*
X49784000Y-64082395D01*
X50793098Y-63073297D01*
X50688313Y-62801255D01*
X50060474Y-62566381D01*
X49390544Y-62589651D01*
X48879687Y-62801255D01*
X48774902Y-63073297D01*
X45978243Y-63073297D01*
X45739722Y-62834360D01*
X45120638Y-62577293D01*
X44450303Y-62576708D01*
X43830771Y-62832694D01*
X43356360Y-63306278D01*
X43099293Y-63925362D01*
X43098708Y-64595697D01*
X42037000Y-64595697D01*
X42037000Y-60146000D01*
X43924117Y-60146000D01*
X43779991Y-60289875D01*
M02*
