G04 #@! TF.FileFunction,Copper,L1,Top,Signal*
%FSLAX46Y46*%
G04 Gerber Fmt 4.6, Leading zero omitted, Abs format (unit mm)*
G04 Created by KiCad (PCBNEW 4.0.2+dfsg1-stable) date Fri 04 May 2018 04:41:30 PM EDT*
%MOMM*%
G01*
G04 APERTURE LIST*
%ADD10C,0.100000*%
%ADD11O,1.524000X2.540000*%
%ADD12C,1.750000*%
%ADD13C,2.900000*%
%ADD14C,1.699260*%
%ADD15R,1.699260X1.699260*%
%ADD16R,1.400000X1.400000*%
%ADD17C,1.400000*%
%ADD18C,1.524000*%
%ADD19C,1.998980*%
%ADD20O,1.600000X1.600000*%
%ADD21C,1.520000*%
%ADD22R,1.520000X1.520000*%
%ADD23R,3.500120X3.500120*%
%ADD24C,2.100000*%
%ADD25C,1.300000*%
%ADD26R,1.300000X1.300000*%
%ADD27R,2.032000X2.032000*%
%ADD28O,2.032000X2.032000*%
%ADD29R,1.727200X2.032000*%
%ADD30O,1.727200X2.032000*%
%ADD31R,6.000000X1.100000*%
%ADD32O,1.699260X3.500120*%
%ADD33C,0.762000*%
%ADD34C,0.609600*%
%ADD35C,0.381000*%
%ADD36C,1.016000*%
%ADD37C,1.524000*%
%ADD38C,0.254000*%
%ADD39C,2.540000*%
%ADD40C,2.032000*%
G04 APERTURE END LIST*
D10*
D11*
X121285000Y-123190000D03*
X118745000Y-123190000D03*
X116205000Y-123190000D03*
X108585000Y-123190000D03*
X111125000Y-123190000D03*
X113665000Y-123190000D03*
X103505000Y-123190000D03*
X100965000Y-123190000D03*
X98425000Y-123190000D03*
X93345000Y-123190000D03*
X90805000Y-123190000D03*
X121285000Y-74930000D03*
X118745000Y-74930000D03*
X116205000Y-74930000D03*
X113665000Y-74930000D03*
X111125000Y-74930000D03*
X108585000Y-74930000D03*
X106045000Y-74930000D03*
X103505000Y-74930000D03*
X99441000Y-74930000D03*
X96901000Y-74930000D03*
X94361000Y-74930000D03*
X91821000Y-74930000D03*
X89281000Y-74930000D03*
X86741000Y-74930000D03*
X84201000Y-74930000D03*
X81661000Y-74930000D03*
X95885000Y-123190000D03*
D12*
X149098000Y-71808000D03*
D13*
X152898000Y-64008000D03*
X145298000Y-64008000D03*
D14*
X56388000Y-93472000D03*
D15*
X46228000Y-93472000D03*
D16*
X147574000Y-92710000D03*
D17*
X152574000Y-92710000D03*
D16*
X137668000Y-82550000D03*
D17*
X137668000Y-87550000D03*
D14*
X71628520Y-93469460D03*
D15*
X61468520Y-93469460D03*
D14*
X41148000Y-93472000D03*
D15*
X30988000Y-93472000D03*
D18*
X103378000Y-93218000D03*
X105918000Y-93218000D03*
X100838000Y-93218000D03*
X111252000Y-93243400D03*
X113792000Y-93243400D03*
X108712000Y-93243400D03*
X119126000Y-93243400D03*
X121666000Y-93243400D03*
X116586000Y-93243400D03*
X127000000Y-93218000D03*
X129540000Y-93218000D03*
X124460000Y-93218000D03*
D19*
X119380000Y-88646000D03*
X119380000Y-78486000D03*
X122682000Y-88646000D03*
X122682000Y-78486000D03*
X125984000Y-88646000D03*
X125984000Y-78486000D03*
X112776000Y-88646000D03*
X112776000Y-78486000D03*
X109474000Y-88646000D03*
X109474000Y-78486000D03*
X106172000Y-88646000D03*
X106172000Y-78486000D03*
X110998000Y-118364000D03*
X100838000Y-118364000D03*
X110998000Y-108458000D03*
X100838000Y-108458000D03*
X110998000Y-111760000D03*
X100838000Y-111760000D03*
X100838000Y-115062000D03*
X110998000Y-115062000D03*
X86360000Y-88646000D03*
X86360000Y-78486000D03*
X144526000Y-75184000D03*
X134366000Y-75184000D03*
X134366000Y-78486000D03*
X144526000Y-78486000D03*
X89662000Y-88646000D03*
X89662000Y-78486000D03*
X92964000Y-88646000D03*
X92964000Y-78486000D03*
X102870000Y-88646000D03*
X102870000Y-78486000D03*
X134366000Y-94996000D03*
X144526000Y-94996000D03*
X144526000Y-91694000D03*
X134366000Y-91694000D03*
D20*
X142748000Y-88900000D03*
X145288000Y-88900000D03*
X147828000Y-88900000D03*
X150368000Y-88900000D03*
X150368000Y-81280000D03*
X147828000Y-81280000D03*
X145288000Y-81280000D03*
X142748000Y-81280000D03*
D21*
X149860000Y-98298000D03*
X152400000Y-98298000D03*
D22*
X147320000Y-98298000D03*
D23*
X36322000Y-69088000D03*
X36322000Y-63088520D03*
X31623000Y-66088260D03*
D24*
X101454000Y-64262000D03*
X96454000Y-64262000D03*
X91454000Y-64262000D03*
X86454000Y-64262000D03*
X81454000Y-64262000D03*
X76454000Y-64262000D03*
X69784000Y-64262000D03*
X64784000Y-64262000D03*
X59784000Y-64262000D03*
X54784000Y-64262000D03*
X49784000Y-64262000D03*
X44784000Y-64262000D03*
D25*
X68032000Y-87884000D03*
D26*
X65532000Y-87884000D03*
D25*
X52832000Y-87884000D03*
D26*
X50332000Y-87884000D03*
D25*
X37084000Y-87884000D03*
D26*
X34584000Y-87884000D03*
D27*
X115316000Y-68580000D03*
D28*
X117856000Y-68580000D03*
D19*
X116078000Y-78486000D03*
X116078000Y-88646000D03*
X99568000Y-78486000D03*
X99568000Y-88646000D03*
X96266000Y-78486000D03*
X96266000Y-88646000D03*
D29*
X122428000Y-68580000D03*
D30*
X124968000Y-68580000D03*
X127508000Y-68580000D03*
D27*
X108204000Y-68580000D03*
D28*
X110744000Y-68580000D03*
D27*
X148336000Y-102362000D03*
D28*
X148336000Y-104902000D03*
D29*
X132334000Y-68580000D03*
D30*
X134874000Y-68580000D03*
X137414000Y-68580000D03*
X139954000Y-68580000D03*
D31*
X116332000Y-119888000D03*
X116332000Y-117348000D03*
X116332000Y-114808000D03*
X116332000Y-112268000D03*
X116332000Y-109728000D03*
X116332000Y-107188000D03*
D32*
X81788000Y-97536000D03*
X84328000Y-97536000D03*
X79248000Y-97536000D03*
X66548000Y-97536000D03*
X69088000Y-97536000D03*
X64008000Y-97536000D03*
X51308000Y-97536000D03*
X53848000Y-97536000D03*
X48768000Y-97536000D03*
X36068000Y-97536000D03*
X38608000Y-97536000D03*
X33528000Y-97536000D03*
D33*
X119888000Y-112268000D03*
D34*
X124535780Y-96090065D03*
X129082800Y-95859600D03*
X115163600Y-94284800D03*
X137464800Y-89255600D03*
X139674600Y-91363800D03*
X125126225Y-119575357D03*
D33*
X127254000Y-75615800D03*
X109499400Y-86283800D03*
X111352496Y-86805772D03*
X127304800Y-95316680D03*
D34*
X107328053Y-101919953D03*
X107338956Y-103956622D03*
X125153262Y-120490841D03*
X97942400Y-91100280D03*
X118473976Y-100448273D03*
X120599200Y-105105200D03*
X117643980Y-101191675D03*
X119786400Y-105638600D03*
X125145663Y-121300880D03*
D35*
X147574000Y-96012000D02*
X147574000Y-92710000D01*
X144526000Y-94996000D02*
X146812000Y-92710000D01*
X146812000Y-92710000D02*
X147574000Y-92710000D01*
X144526000Y-91694000D02*
X146558000Y-91694000D01*
X146558000Y-91694000D02*
X147574000Y-92710000D01*
X147828000Y-88900000D02*
X147828000Y-92456000D01*
X147828000Y-92456000D02*
X147574000Y-92710000D01*
X149860000Y-98298000D02*
X147574000Y-96012000D01*
X114935000Y-76200000D02*
X114935000Y-70358000D01*
X114935000Y-70358000D02*
X115316000Y-69977000D01*
X115316000Y-69977000D02*
X115316000Y-68580000D01*
X114452400Y-76682600D02*
X114935000Y-76200000D01*
X114452400Y-86969600D02*
X114452400Y-76682600D01*
X112776000Y-88646000D02*
X114452400Y-86969600D01*
X116332000Y-112268000D02*
X119888000Y-112268000D01*
X115163600Y-94284800D02*
X115482092Y-94603292D01*
X124104728Y-96090065D02*
X124535780Y-96090065D01*
X115482092Y-94603292D02*
X122617955Y-94603292D01*
X122617955Y-94603292D02*
X124104728Y-96090065D01*
X99568000Y-88646000D02*
X99568000Y-90059492D01*
X99568000Y-90059492D02*
X98704400Y-90923092D01*
X98704400Y-90923092D02*
X98704400Y-93065600D01*
X98704400Y-93065600D02*
X100291088Y-94652288D01*
X100291088Y-94652288D02*
X114796112Y-94652288D01*
X114796112Y-94652288D02*
X115163600Y-94284800D01*
X129082800Y-95859600D02*
X129946400Y-94996000D01*
X129946400Y-94996000D02*
X134366000Y-94996000D01*
D36*
X139547600Y-66141600D02*
X131826000Y-66141600D01*
X131826000Y-66141600D02*
X129387600Y-68580000D01*
X129387600Y-68580000D02*
X127508000Y-68580000D01*
X139954000Y-68580000D02*
X139954000Y-66548000D01*
X139954000Y-66548000D02*
X139547600Y-66141600D01*
X118859349Y-104081781D02*
X125280219Y-104081781D01*
X118846335Y-104094795D02*
X118859349Y-104081781D01*
X113947713Y-104094795D02*
X118846335Y-104094795D01*
X125280219Y-104081781D02*
X133366511Y-95995489D01*
X110998000Y-107044508D02*
X113947713Y-104094795D01*
X110998000Y-108458000D02*
X110998000Y-107044508D01*
X133366511Y-95995489D02*
X134366000Y-94996000D01*
X139076001Y-86371001D02*
X137668000Y-84963000D01*
X137668000Y-84963000D02*
X137668000Y-82550000D01*
X135365489Y-93437711D02*
X139076001Y-89727199D01*
X139076001Y-89727199D02*
X139076001Y-86371001D01*
X134366000Y-94996000D02*
X135365489Y-93996511D01*
X135365489Y-93996511D02*
X135365489Y-93437711D01*
X137668000Y-82550000D02*
X141478000Y-82550000D01*
X141478000Y-82550000D02*
X142748000Y-81280000D01*
X116332000Y-109728000D02*
X112268000Y-109728000D01*
X112268000Y-109728000D02*
X110998000Y-108458000D01*
D37*
X108102400Y-116865400D02*
X108102400Y-111353600D01*
X108102400Y-111353600D02*
X110998000Y-108458000D01*
X104444800Y-120523000D02*
X108102400Y-116865400D01*
X98044000Y-120523000D02*
X104444800Y-120523000D01*
X95885000Y-123190000D02*
X95885000Y-122682000D01*
X95885000Y-122682000D02*
X98044000Y-120523000D01*
X34584000Y-87884000D02*
X34584000Y-86139854D01*
X34584000Y-86139854D02*
X36280738Y-84443116D01*
X36280738Y-84443116D02*
X36280738Y-69129262D01*
X36280738Y-69129262D02*
X36322000Y-69088000D01*
X49784000Y-64262000D02*
X49784000Y-87336000D01*
X49784000Y-87336000D02*
X50332000Y-87884000D01*
X59784000Y-64262000D02*
X59784000Y-84310000D01*
X59784000Y-84310000D02*
X63358000Y-87884000D01*
X63358000Y-87884000D02*
X65532000Y-87884000D01*
X61468520Y-93469460D02*
X61468520Y-91947480D01*
X61468520Y-91947480D02*
X65532000Y-87884000D01*
X46228000Y-93472000D02*
X46228000Y-91988000D01*
X46228000Y-91988000D02*
X50332000Y-87884000D01*
X30988000Y-93472000D02*
X30988000Y-91480000D01*
X30988000Y-91480000D02*
X34584000Y-87884000D01*
D35*
X110744000Y-68580000D02*
X110746559Y-68582559D01*
X110746559Y-68582559D02*
X110746559Y-70587797D01*
X110746559Y-70587797D02*
X108750536Y-72583820D01*
X108750536Y-72583820D02*
X105343180Y-72583820D01*
X105343180Y-72583820D02*
X103505000Y-74422000D01*
X103505000Y-74422000D02*
X103505000Y-74930000D01*
X99568000Y-78486000D02*
X103124000Y-74930000D01*
X103124000Y-74930000D02*
X103505000Y-74930000D01*
X119380000Y-78486000D02*
X119380000Y-77072508D01*
X120015000Y-76437508D02*
X120015000Y-73761600D01*
X119380000Y-77072508D02*
X120015000Y-76437508D01*
X130894640Y-73075800D02*
X132334000Y-71636440D01*
X120015000Y-73761600D02*
X120700800Y-73075800D01*
X120700800Y-73075800D02*
X130894640Y-73075800D01*
X132334000Y-71636440D02*
X132334000Y-68580000D01*
X134874000Y-68580000D02*
X134874000Y-70223846D01*
X134874000Y-70223846D02*
X131350873Y-73746973D01*
X131350873Y-73746973D02*
X123321804Y-73746973D01*
X123321804Y-73746973D02*
X122682000Y-74386777D01*
X122682000Y-74386777D02*
X122682000Y-78486000D01*
X125984000Y-78486000D02*
X125984000Y-75057578D01*
X125984000Y-75057578D02*
X126568778Y-74472800D01*
X126568778Y-74472800D02*
X131673600Y-74472800D01*
X137414000Y-68732400D02*
X137414000Y-68580000D01*
X131673600Y-74472800D02*
X137414000Y-68732400D01*
X137464800Y-89255600D02*
X127647292Y-79438092D01*
X127647292Y-79438092D02*
X127647292Y-76009092D01*
X127647292Y-76009092D02*
X127254000Y-75615800D01*
X133535643Y-119575357D02*
X139674600Y-113436400D01*
X139674600Y-113436400D02*
X139674600Y-91363800D01*
X125126225Y-119575357D02*
X133535643Y-119575357D01*
X117856000Y-68580000D02*
X117856000Y-70867494D01*
X117856000Y-70867494D02*
X116205000Y-72518494D01*
X116205000Y-72518494D02*
X116205000Y-74930000D01*
X116205000Y-74930000D02*
X116205000Y-74422000D01*
X116078000Y-78486000D02*
X116078000Y-75057000D01*
X116078000Y-75057000D02*
X116205000Y-74930000D01*
D38*
X149098000Y-71808000D02*
X149098000Y-73045436D01*
X149098000Y-73045436D02*
X150723600Y-74671036D01*
X150723600Y-74671036D02*
X150723600Y-79793030D01*
X150723600Y-79793030D02*
X150368000Y-80148630D01*
X150368000Y-80148630D02*
X150368000Y-81280000D01*
D35*
X105918000Y-93218000D02*
X107152999Y-91983001D01*
X107152999Y-91983001D02*
X109955872Y-91983001D01*
X118380511Y-89645489D02*
X119380000Y-88646000D01*
X109955872Y-91983001D02*
X110444499Y-91494374D01*
X110444499Y-91494374D02*
X116531626Y-91494374D01*
X116531626Y-91494374D02*
X118380511Y-89645489D01*
X103378000Y-93218000D02*
X105194010Y-91401990D01*
X112776000Y-86641466D02*
X112776000Y-79899492D01*
X105194010Y-91401990D02*
X109715210Y-91401990D01*
X109715210Y-91401990D02*
X111198886Y-89918314D01*
X111198886Y-89918314D02*
X111198886Y-88218580D01*
X111198886Y-88218580D02*
X112776000Y-86641466D01*
X112776000Y-79899492D02*
X112776000Y-78486000D01*
X112776000Y-78435200D02*
X113665000Y-77546200D01*
X113665000Y-77546200D02*
X113665000Y-74930000D01*
X112776000Y-78486000D02*
X112776000Y-78435200D01*
X121682511Y-89645489D02*
X122682000Y-88646000D01*
X119237101Y-92090899D02*
X121682511Y-89645489D01*
X113792000Y-93243400D02*
X114944501Y-92090899D01*
X114944501Y-92090899D02*
X119237101Y-92090899D01*
X109499400Y-86283800D02*
X109499400Y-78511400D01*
X109499400Y-78511400D02*
X109474000Y-78486000D01*
X111125000Y-74422000D02*
X111125000Y-74930000D01*
X109474000Y-78486000D02*
X111125000Y-76835000D01*
X111125000Y-76835000D02*
X111125000Y-74930000D01*
X121666000Y-93243400D02*
X125984000Y-88925400D01*
X125984000Y-88925400D02*
X125984000Y-88646000D01*
X106172000Y-78486000D02*
X106172000Y-85414760D01*
X106172000Y-85414760D02*
X107902697Y-87145457D01*
X107902697Y-87145457D02*
X111012811Y-87145457D01*
X111012811Y-87145457D02*
X111352496Y-86805772D01*
X106172000Y-78486000D02*
X108585000Y-76073000D01*
X108585000Y-76073000D02*
X108585000Y-74930000D01*
X106680727Y-102615273D02*
X118233498Y-102615273D01*
X100838000Y-108458000D02*
X106680727Y-102615273D01*
X127304800Y-95855495D02*
X127304800Y-95316680D01*
X118233498Y-102615273D02*
X118246512Y-102602259D01*
X118246512Y-102602259D02*
X121507708Y-102602259D01*
X121507708Y-102602259D02*
X127304800Y-96805167D01*
X127304800Y-96805167D02*
X127304800Y-95855495D01*
X129540000Y-93218000D02*
X129540000Y-89041034D01*
X129540000Y-89041034D02*
X126980009Y-86481043D01*
X126980009Y-86481043D02*
X123418804Y-86481043D01*
X123418804Y-86481043D02*
X121285000Y-84347239D01*
X121285000Y-84347239D02*
X121285000Y-74930000D01*
X121368341Y-101919953D02*
X107759105Y-101919953D01*
X107759105Y-101919953D02*
X107328053Y-101919953D01*
X126238001Y-97050293D02*
X121368341Y-101919953D01*
X126238001Y-93979999D02*
X126238001Y-97050293D01*
X127000000Y-93218000D02*
X126238001Y-93979999D01*
X102904310Y-116297690D02*
X102904310Y-108391268D01*
X107034157Y-104261421D02*
X107338956Y-103956622D01*
X100838000Y-118364000D02*
X102904310Y-116297690D01*
X102904310Y-108391268D02*
X107034157Y-104261421D01*
X93345000Y-123190000D02*
X93345000Y-122682000D01*
X87359489Y-79485489D02*
X86360000Y-78486000D01*
X87981122Y-80107122D02*
X87359489Y-79485489D01*
X84328000Y-97536000D02*
X86419650Y-97536000D01*
X86419650Y-97536000D02*
X87981122Y-95974528D01*
X87981122Y-95974528D02*
X87981122Y-80107122D01*
X86360000Y-78486000D02*
X87749991Y-77096009D01*
X87749991Y-77096009D02*
X90162991Y-77096009D01*
X90162991Y-77096009D02*
X91821000Y-75438000D01*
X91821000Y-75438000D02*
X91821000Y-74930000D01*
X90661489Y-79485489D02*
X89662000Y-78486000D01*
X91336954Y-93440369D02*
X91336954Y-80160954D01*
X72655430Y-99872800D02*
X84904523Y-99872800D01*
X70318630Y-97536000D02*
X72655430Y-99872800D01*
X69088000Y-97536000D02*
X70318630Y-97536000D01*
X84904523Y-99872800D02*
X91336954Y-93440369D01*
X91336954Y-80160954D02*
X90661489Y-79485489D01*
X89662000Y-78486000D02*
X91051991Y-77096009D01*
X91051991Y-77096009D02*
X92702991Y-77096009D01*
X92702991Y-77096009D02*
X94361000Y-75438000D01*
X94361000Y-75438000D02*
X94361000Y-74930000D01*
X94361000Y-75744990D02*
X94361000Y-74930000D01*
X118745000Y-76581000D02*
X117754400Y-77571600D01*
X118745000Y-74930000D02*
X118745000Y-76581000D01*
X118474160Y-103196284D02*
X106988192Y-103196284D01*
X117754400Y-77571600D02*
X117754400Y-79044800D01*
X117754400Y-79044800D02*
X120575122Y-81865522D01*
X126695200Y-87122000D02*
X128284018Y-88710818D01*
X102227991Y-107956485D02*
X102227991Y-110370009D01*
X102227991Y-110370009D02*
X101837489Y-110760511D01*
X101837489Y-110760511D02*
X100838000Y-111760000D01*
X120575122Y-84557922D02*
X123139200Y-87122000D01*
X120575122Y-81865522D02*
X120575122Y-84557922D01*
X123139200Y-87122000D02*
X126695200Y-87122000D01*
X118487174Y-103183270D02*
X118474160Y-103196284D01*
X128284018Y-88710818D02*
X128284018Y-96647622D01*
X128284018Y-96647622D02*
X121748370Y-103183270D01*
X121748370Y-103183270D02*
X118487174Y-103183270D01*
X106988192Y-103196284D02*
X102227991Y-107956485D01*
D38*
X144526000Y-78486000D02*
X144526000Y-77072508D01*
X144526000Y-77072508D02*
X144526000Y-75184000D01*
X147828000Y-81280000D02*
X145034000Y-78486000D01*
X145034000Y-78486000D02*
X144526000Y-78486000D01*
D35*
X134366000Y-75184000D02*
X139057991Y-79875991D01*
X139057991Y-79875991D02*
X143883991Y-79875991D01*
X143883991Y-79875991D02*
X144488001Y-80480001D01*
X144488001Y-80480001D02*
X145288000Y-81280000D01*
X125153262Y-120490841D02*
X133810193Y-120490841D01*
X133810193Y-120490841D02*
X140512800Y-113788234D01*
X140512800Y-113788234D02*
X140512800Y-88138000D01*
X140512800Y-88138000D02*
X145288000Y-83362800D01*
X145288000Y-83362800D02*
X145288000Y-81280000D01*
X53848000Y-97536000D02*
X55078630Y-97536000D01*
X55078630Y-97536000D02*
X57996441Y-100453811D01*
X57996441Y-100453811D02*
X85194787Y-100453811D01*
X85194787Y-100453811D02*
X94624453Y-91024145D01*
X94624453Y-91024145D02*
X94624453Y-80146453D01*
X94624453Y-80146453D02*
X93963489Y-79485489D01*
X93963489Y-79485489D02*
X92964000Y-78486000D01*
X92964000Y-78486000D02*
X93554948Y-78486000D01*
X93554948Y-78486000D02*
X96901000Y-75139948D01*
X96901000Y-75139948D02*
X96901000Y-74930000D01*
X96901000Y-75438000D02*
X96901000Y-74930000D01*
X102870000Y-78486000D02*
X106045000Y-75311000D01*
X106045000Y-75311000D02*
X106045000Y-74930000D01*
X38608000Y-97536000D02*
X39838630Y-97536000D01*
X39838630Y-97536000D02*
X43337452Y-101034822D01*
X43337452Y-101034822D02*
X85435448Y-101034822D01*
X96168320Y-90301950D02*
X97075124Y-90301950D01*
X85435448Y-101034822D02*
X96168320Y-90301950D01*
X97075124Y-90301950D02*
X97938142Y-89438932D01*
X97938142Y-89438932D02*
X97938142Y-83417858D01*
X97938142Y-83417858D02*
X101870511Y-79485489D01*
X101870511Y-79485489D02*
X102870000Y-78486000D01*
D39*
X64784000Y-82157600D02*
X68032000Y-85405600D01*
X68032000Y-85405600D02*
X68032000Y-87884000D01*
X64784000Y-64262000D02*
X64784000Y-82157600D01*
D40*
X71628520Y-93469460D02*
X70426962Y-93469460D01*
X70426962Y-93469460D02*
X70142482Y-93753940D01*
X70142482Y-93753940D02*
X66548000Y-93753940D01*
X66548000Y-97536000D02*
X66548000Y-93753940D01*
X66548000Y-93753940D02*
X68032000Y-92269940D01*
X68032000Y-92269940D02*
X68032000Y-88803238D01*
X68032000Y-88803238D02*
X68032000Y-87884000D01*
D35*
X66548000Y-97536000D02*
X66548000Y-96635570D01*
D39*
X54784000Y-64262000D02*
X54784000Y-85932000D01*
X54784000Y-85932000D02*
X52832000Y-87884000D01*
D40*
X56388000Y-93472000D02*
X55186442Y-93472000D01*
X55186442Y-93472000D02*
X54904502Y-93753940D01*
X54904502Y-93753940D02*
X51308000Y-93753940D01*
X51308000Y-97536000D02*
X51308000Y-93753940D01*
X51308000Y-93753940D02*
X52832000Y-92229940D01*
X52832000Y-92229940D02*
X52832000Y-88803238D01*
X52832000Y-88803238D02*
X52832000Y-87884000D01*
D39*
X44784000Y-80184000D02*
X37084000Y-87884000D01*
X44784000Y-64262000D02*
X44784000Y-80184000D01*
D40*
X41148000Y-93472000D02*
X39946442Y-93472000D01*
X39946442Y-93472000D02*
X39664502Y-93753940D01*
X39664502Y-93753940D02*
X36068000Y-93753940D01*
X36068000Y-97536000D02*
X36068000Y-93753940D01*
X37084000Y-92737940D02*
X37084000Y-88803238D01*
X36068000Y-93753940D02*
X37084000Y-92737940D01*
X37084000Y-88803238D02*
X37084000Y-87884000D01*
D35*
X120599200Y-105105200D02*
X120599200Y-105109765D01*
X120599200Y-105109765D02*
X121839637Y-106350202D01*
X121839637Y-106350202D02*
X121839637Y-120637799D01*
X121839637Y-120637799D02*
X123249235Y-122047397D01*
X123249235Y-122047397D02*
X134416403Y-122047397D01*
X143531380Y-104902000D02*
X148336000Y-104902000D01*
X134416403Y-122047397D02*
X142240000Y-114223800D01*
X142240000Y-114223800D02*
X142240000Y-106193380D01*
X142240000Y-106193380D02*
X143531380Y-104902000D01*
X97942400Y-91531332D02*
X97942400Y-91100280D01*
X97942400Y-93552284D02*
X97942400Y-91531332D01*
X105614768Y-101224652D02*
X97942400Y-93552284D01*
X116580348Y-101224652D02*
X105614768Y-101224652D01*
X118473976Y-100448273D02*
X117356727Y-100448273D01*
X117356727Y-100448273D02*
X116580348Y-101224652D01*
X96266000Y-78486000D02*
X99441000Y-75311000D01*
X99441000Y-75311000D02*
X99441000Y-74930000D01*
D39*
X81454000Y-70641991D02*
X81454000Y-64262000D01*
X81454000Y-64262000D02*
X86454000Y-64262000D01*
X76454000Y-64262000D02*
X81454000Y-64262000D01*
X81788000Y-94996000D02*
X81788000Y-79907303D01*
X81788000Y-79907303D02*
X79146400Y-77265703D01*
X79146400Y-77265703D02*
X79146400Y-72949591D01*
X79146400Y-72949591D02*
X81454000Y-70641991D01*
D40*
X81788000Y-97536000D02*
X81788000Y-94996000D01*
D35*
X121159925Y-101191675D02*
X118075032Y-101191675D01*
X118075032Y-101191675D02*
X117643980Y-101191675D01*
X124460000Y-93218000D02*
X125552200Y-94310200D01*
X125552200Y-94310200D02*
X125552200Y-96799400D01*
X125552200Y-96799400D02*
X121159925Y-101191675D01*
X121132600Y-116509800D02*
X120294400Y-117348000D01*
X120294400Y-117348000D02*
X116332000Y-117348000D01*
X121132600Y-106984800D02*
X121132600Y-116509800D01*
X119786400Y-105638600D02*
X121132600Y-106984800D01*
X110998000Y-118364000D02*
X112014000Y-117348000D01*
X112014000Y-117348000D02*
X116332000Y-117348000D01*
X116332000Y-114808000D02*
X111252000Y-114808000D01*
X111252000Y-114808000D02*
X110998000Y-115062000D01*
X110998000Y-111760000D02*
X110998000Y-115062000D01*
X116078000Y-115062000D02*
X116332000Y-114808000D01*
X142748000Y-88900000D02*
X141443219Y-90204781D01*
X141443219Y-90204781D02*
X141443219Y-113975608D01*
X141443219Y-113975608D02*
X134117947Y-121300880D01*
X134117947Y-121300880D02*
X125576715Y-121300880D01*
X125576715Y-121300880D02*
X125145663Y-121300880D01*
D38*
X145298000Y-68707000D02*
X145298000Y-73622981D01*
X145298000Y-73622981D02*
X146173476Y-74498457D01*
X146173476Y-74498457D02*
X146173476Y-78431676D01*
X146173476Y-78431676D02*
X147563642Y-79821842D01*
X147563642Y-79821842D02*
X148351042Y-79821842D01*
X148351042Y-79821842D02*
X149070512Y-80541312D01*
X149070512Y-80541312D02*
X149070512Y-82852712D01*
X149070512Y-82852712D02*
X149250400Y-83032600D01*
X149250400Y-83032600D02*
X149471663Y-83253863D01*
X145288000Y-88900000D02*
X146087999Y-88100001D01*
X146087999Y-88100001D02*
X146087999Y-86195001D01*
X146087999Y-86195001D02*
X149250400Y-83032600D01*
X151354599Y-83253863D02*
X153952326Y-80656136D01*
X153952326Y-65062326D02*
X152898000Y-64008000D01*
X153952326Y-80656136D02*
X153952326Y-65062326D01*
X149471663Y-83253863D02*
X151354599Y-83253863D01*
X145298000Y-68707000D02*
X153984701Y-68707000D01*
X153984701Y-68707000D02*
X153987306Y-68709605D01*
X145298000Y-64008000D02*
X145298000Y-68707000D01*
D35*
X142748000Y-88900000D02*
X145288000Y-88900000D01*
D38*
G36*
X35433000Y-92054074D02*
X34900567Y-92586507D01*
X34542675Y-93122129D01*
X34427514Y-93701083D01*
X34417000Y-93753940D01*
X34417000Y-95456852D01*
X33978810Y-95215351D01*
X33884832Y-95194460D01*
X33655000Y-95315786D01*
X33655000Y-97409000D01*
X33675000Y-97409000D01*
X33675000Y-97663000D01*
X33655000Y-97663000D01*
X33655000Y-99756214D01*
X33884832Y-99877540D01*
X33978810Y-99856649D01*
X34487989Y-99576024D01*
X34792484Y-99195127D01*
X35018208Y-99532948D01*
X35499857Y-99854775D01*
X36068000Y-99967786D01*
X36636143Y-99854775D01*
X37117792Y-99532948D01*
X37338000Y-99203383D01*
X37558208Y-99532948D01*
X38039857Y-99854775D01*
X38608000Y-99967786D01*
X39176143Y-99854775D01*
X39657792Y-99532948D01*
X39979619Y-99051299D01*
X40013942Y-98878746D01*
X42753733Y-101618536D01*
X42753735Y-101618539D01*
X42990527Y-101776758D01*
X43021547Y-101797485D01*
X43337452Y-101860323D01*
X43337457Y-101860322D01*
X85435448Y-101860322D01*
X85751354Y-101797485D01*
X86019165Y-101618539D01*
X96510254Y-91127450D01*
X97002576Y-91127450D01*
X97002437Y-91286398D01*
X97116900Y-91563419D01*
X97116900Y-93552284D01*
X97179737Y-93868190D01*
X97358683Y-94136001D01*
X105031051Y-101808369D01*
X105298862Y-101987315D01*
X105614768Y-102050153D01*
X105614773Y-102050152D01*
X106078415Y-102050152D01*
X101263630Y-106864937D01*
X101164547Y-106823794D01*
X100514306Y-106823226D01*
X99913345Y-107071538D01*
X99453154Y-107530927D01*
X99203794Y-108131453D01*
X99203226Y-108781694D01*
X99451538Y-109382655D01*
X99910927Y-109842846D01*
X100511453Y-110092206D01*
X101161694Y-110092774D01*
X101402491Y-109993279D01*
X101402491Y-110028075D01*
X101263629Y-110166937D01*
X101164547Y-110125794D01*
X100514306Y-110125226D01*
X99913345Y-110373538D01*
X99453154Y-110832927D01*
X99203794Y-111433453D01*
X99203226Y-112083694D01*
X99451538Y-112684655D01*
X99910927Y-113144846D01*
X100511453Y-113394206D01*
X101161694Y-113394774D01*
X101762655Y-113146462D01*
X102078810Y-112830858D01*
X102078810Y-114122203D01*
X101990163Y-114089443D01*
X101017605Y-115062000D01*
X101031748Y-115076142D01*
X100852142Y-115255748D01*
X100838000Y-115241605D01*
X99865443Y-116214163D01*
X99964042Y-116480965D01*
X100573582Y-116707401D01*
X101223377Y-116683341D01*
X101441628Y-116592939D01*
X101263630Y-116770937D01*
X101164547Y-116729794D01*
X100514306Y-116729226D01*
X99913345Y-116977538D01*
X99453154Y-117436927D01*
X99203794Y-118037453D01*
X99203226Y-118687694D01*
X99384330Y-119126000D01*
X98044000Y-119126000D01*
X97509391Y-119232340D01*
X97056172Y-119535172D01*
X95009646Y-121581698D01*
X94897172Y-121656851D01*
X94615000Y-122079150D01*
X94332828Y-121656851D01*
X93879609Y-121354019D01*
X93345000Y-121247679D01*
X92810391Y-121354019D01*
X92357172Y-121656851D01*
X92075000Y-122079150D01*
X91792828Y-121656851D01*
X91339609Y-121354019D01*
X90805000Y-121247679D01*
X90270391Y-121354019D01*
X89817172Y-121656851D01*
X89514340Y-122110070D01*
X89408000Y-122644679D01*
X89408000Y-123735321D01*
X89511967Y-124258000D01*
X30174000Y-124258000D01*
X30174000Y-114802015D01*
X33532641Y-114802015D01*
X33917746Y-115734041D01*
X34630208Y-116447748D01*
X35561561Y-116834479D01*
X36570015Y-116835359D01*
X37502041Y-116450254D01*
X38215748Y-115737792D01*
X38602479Y-114806439D01*
X38602482Y-114802015D01*
X48772641Y-114802015D01*
X49157746Y-115734041D01*
X49870208Y-116447748D01*
X50801561Y-116834479D01*
X51810015Y-116835359D01*
X52742041Y-116450254D01*
X53455748Y-115737792D01*
X53842479Y-114806439D01*
X53842482Y-114802015D01*
X64012641Y-114802015D01*
X64397746Y-115734041D01*
X65110208Y-116447748D01*
X66041561Y-116834479D01*
X67050015Y-116835359D01*
X67982041Y-116450254D01*
X68695748Y-115737792D01*
X69082479Y-114806439D01*
X69082482Y-114802015D01*
X79252641Y-114802015D01*
X79637746Y-115734041D01*
X80350208Y-116447748D01*
X81281561Y-116834479D01*
X82290015Y-116835359D01*
X83222041Y-116450254D01*
X83935748Y-115737792D01*
X84322479Y-114806439D01*
X84322486Y-114797582D01*
X99192599Y-114797582D01*
X99216659Y-115447377D01*
X99419035Y-115935958D01*
X99685837Y-116034557D01*
X100658395Y-115062000D01*
X99685837Y-114089443D01*
X99419035Y-114188042D01*
X99192599Y-114797582D01*
X84322486Y-114797582D01*
X84323261Y-113909837D01*
X99865443Y-113909837D01*
X100838000Y-114882395D01*
X101810557Y-113909837D01*
X101711958Y-113643035D01*
X101102418Y-113416599D01*
X100452623Y-113440659D01*
X99964042Y-113643035D01*
X99865443Y-113909837D01*
X84323261Y-113909837D01*
X84323359Y-113797985D01*
X83938254Y-112865959D01*
X83225792Y-112152252D01*
X82294439Y-111765521D01*
X81285985Y-111764641D01*
X80353959Y-112149746D01*
X79640252Y-112862208D01*
X79253521Y-113793561D01*
X79252641Y-114802015D01*
X69082482Y-114802015D01*
X69083359Y-113797985D01*
X68698254Y-112865959D01*
X67985792Y-112152252D01*
X67054439Y-111765521D01*
X66045985Y-111764641D01*
X65113959Y-112149746D01*
X64400252Y-112862208D01*
X64013521Y-113793561D01*
X64012641Y-114802015D01*
X53842482Y-114802015D01*
X53843359Y-113797985D01*
X53458254Y-112865959D01*
X52745792Y-112152252D01*
X51814439Y-111765521D01*
X50805985Y-111764641D01*
X49873959Y-112149746D01*
X49160252Y-112862208D01*
X48773521Y-113793561D01*
X48772641Y-114802015D01*
X38602482Y-114802015D01*
X38603359Y-113797985D01*
X38218254Y-112865959D01*
X37505792Y-112152252D01*
X36574439Y-111765521D01*
X35565985Y-111764641D01*
X34633959Y-112149746D01*
X33920252Y-112862208D01*
X33533521Y-113793561D01*
X33532641Y-114802015D01*
X30174000Y-114802015D01*
X30174000Y-97663000D01*
X32043370Y-97663000D01*
X32043370Y-98563430D01*
X32204982Y-99121906D01*
X32568011Y-99576024D01*
X33077190Y-99856649D01*
X33171168Y-99877540D01*
X33401000Y-99756214D01*
X33401000Y-97663000D01*
X32043370Y-97663000D01*
X30174000Y-97663000D01*
X30174000Y-96508570D01*
X32043370Y-96508570D01*
X32043370Y-97409000D01*
X33401000Y-97409000D01*
X33401000Y-95315786D01*
X33171168Y-95194460D01*
X33077190Y-95215351D01*
X32568011Y-95495976D01*
X32204982Y-95950094D01*
X32043370Y-96508570D01*
X30174000Y-96508570D01*
X30174000Y-94969070D01*
X31837630Y-94969070D01*
X32072947Y-94924792D01*
X32289071Y-94785720D01*
X32434061Y-94573520D01*
X32485070Y-94321630D01*
X32485070Y-92622370D01*
X32440792Y-92387053D01*
X32385000Y-92300350D01*
X32385000Y-92058656D01*
X35268756Y-89174900D01*
X35433000Y-89143996D01*
X35433000Y-92054074D01*
X35433000Y-92054074D01*
G37*
X35433000Y-92054074D02*
X34900567Y-92586507D01*
X34542675Y-93122129D01*
X34427514Y-93701083D01*
X34417000Y-93753940D01*
X34417000Y-95456852D01*
X33978810Y-95215351D01*
X33884832Y-95194460D01*
X33655000Y-95315786D01*
X33655000Y-97409000D01*
X33675000Y-97409000D01*
X33675000Y-97663000D01*
X33655000Y-97663000D01*
X33655000Y-99756214D01*
X33884832Y-99877540D01*
X33978810Y-99856649D01*
X34487989Y-99576024D01*
X34792484Y-99195127D01*
X35018208Y-99532948D01*
X35499857Y-99854775D01*
X36068000Y-99967786D01*
X36636143Y-99854775D01*
X37117792Y-99532948D01*
X37338000Y-99203383D01*
X37558208Y-99532948D01*
X38039857Y-99854775D01*
X38608000Y-99967786D01*
X39176143Y-99854775D01*
X39657792Y-99532948D01*
X39979619Y-99051299D01*
X40013942Y-98878746D01*
X42753733Y-101618536D01*
X42753735Y-101618539D01*
X42990527Y-101776758D01*
X43021547Y-101797485D01*
X43337452Y-101860323D01*
X43337457Y-101860322D01*
X85435448Y-101860322D01*
X85751354Y-101797485D01*
X86019165Y-101618539D01*
X96510254Y-91127450D01*
X97002576Y-91127450D01*
X97002437Y-91286398D01*
X97116900Y-91563419D01*
X97116900Y-93552284D01*
X97179737Y-93868190D01*
X97358683Y-94136001D01*
X105031051Y-101808369D01*
X105298862Y-101987315D01*
X105614768Y-102050153D01*
X105614773Y-102050152D01*
X106078415Y-102050152D01*
X101263630Y-106864937D01*
X101164547Y-106823794D01*
X100514306Y-106823226D01*
X99913345Y-107071538D01*
X99453154Y-107530927D01*
X99203794Y-108131453D01*
X99203226Y-108781694D01*
X99451538Y-109382655D01*
X99910927Y-109842846D01*
X100511453Y-110092206D01*
X101161694Y-110092774D01*
X101402491Y-109993279D01*
X101402491Y-110028075D01*
X101263629Y-110166937D01*
X101164547Y-110125794D01*
X100514306Y-110125226D01*
X99913345Y-110373538D01*
X99453154Y-110832927D01*
X99203794Y-111433453D01*
X99203226Y-112083694D01*
X99451538Y-112684655D01*
X99910927Y-113144846D01*
X100511453Y-113394206D01*
X101161694Y-113394774D01*
X101762655Y-113146462D01*
X102078810Y-112830858D01*
X102078810Y-114122203D01*
X101990163Y-114089443D01*
X101017605Y-115062000D01*
X101031748Y-115076142D01*
X100852142Y-115255748D01*
X100838000Y-115241605D01*
X99865443Y-116214163D01*
X99964042Y-116480965D01*
X100573582Y-116707401D01*
X101223377Y-116683341D01*
X101441628Y-116592939D01*
X101263630Y-116770937D01*
X101164547Y-116729794D01*
X100514306Y-116729226D01*
X99913345Y-116977538D01*
X99453154Y-117436927D01*
X99203794Y-118037453D01*
X99203226Y-118687694D01*
X99384330Y-119126000D01*
X98044000Y-119126000D01*
X97509391Y-119232340D01*
X97056172Y-119535172D01*
X95009646Y-121581698D01*
X94897172Y-121656851D01*
X94615000Y-122079150D01*
X94332828Y-121656851D01*
X93879609Y-121354019D01*
X93345000Y-121247679D01*
X92810391Y-121354019D01*
X92357172Y-121656851D01*
X92075000Y-122079150D01*
X91792828Y-121656851D01*
X91339609Y-121354019D01*
X90805000Y-121247679D01*
X90270391Y-121354019D01*
X89817172Y-121656851D01*
X89514340Y-122110070D01*
X89408000Y-122644679D01*
X89408000Y-123735321D01*
X89511967Y-124258000D01*
X30174000Y-124258000D01*
X30174000Y-114802015D01*
X33532641Y-114802015D01*
X33917746Y-115734041D01*
X34630208Y-116447748D01*
X35561561Y-116834479D01*
X36570015Y-116835359D01*
X37502041Y-116450254D01*
X38215748Y-115737792D01*
X38602479Y-114806439D01*
X38602482Y-114802015D01*
X48772641Y-114802015D01*
X49157746Y-115734041D01*
X49870208Y-116447748D01*
X50801561Y-116834479D01*
X51810015Y-116835359D01*
X52742041Y-116450254D01*
X53455748Y-115737792D01*
X53842479Y-114806439D01*
X53842482Y-114802015D01*
X64012641Y-114802015D01*
X64397746Y-115734041D01*
X65110208Y-116447748D01*
X66041561Y-116834479D01*
X67050015Y-116835359D01*
X67982041Y-116450254D01*
X68695748Y-115737792D01*
X69082479Y-114806439D01*
X69082482Y-114802015D01*
X79252641Y-114802015D01*
X79637746Y-115734041D01*
X80350208Y-116447748D01*
X81281561Y-116834479D01*
X82290015Y-116835359D01*
X83222041Y-116450254D01*
X83935748Y-115737792D01*
X84322479Y-114806439D01*
X84322486Y-114797582D01*
X99192599Y-114797582D01*
X99216659Y-115447377D01*
X99419035Y-115935958D01*
X99685837Y-116034557D01*
X100658395Y-115062000D01*
X99685837Y-114089443D01*
X99419035Y-114188042D01*
X99192599Y-114797582D01*
X84322486Y-114797582D01*
X84323261Y-113909837D01*
X99865443Y-113909837D01*
X100838000Y-114882395D01*
X101810557Y-113909837D01*
X101711958Y-113643035D01*
X101102418Y-113416599D01*
X100452623Y-113440659D01*
X99964042Y-113643035D01*
X99865443Y-113909837D01*
X84323261Y-113909837D01*
X84323359Y-113797985D01*
X83938254Y-112865959D01*
X83225792Y-112152252D01*
X82294439Y-111765521D01*
X81285985Y-111764641D01*
X80353959Y-112149746D01*
X79640252Y-112862208D01*
X79253521Y-113793561D01*
X79252641Y-114802015D01*
X69082482Y-114802015D01*
X69083359Y-113797985D01*
X68698254Y-112865959D01*
X67985792Y-112152252D01*
X67054439Y-111765521D01*
X66045985Y-111764641D01*
X65113959Y-112149746D01*
X64400252Y-112862208D01*
X64013521Y-113793561D01*
X64012641Y-114802015D01*
X53842482Y-114802015D01*
X53843359Y-113797985D01*
X53458254Y-112865959D01*
X52745792Y-112152252D01*
X51814439Y-111765521D01*
X50805985Y-111764641D01*
X49873959Y-112149746D01*
X49160252Y-112862208D01*
X48773521Y-113793561D01*
X48772641Y-114802015D01*
X38602482Y-114802015D01*
X38603359Y-113797985D01*
X38218254Y-112865959D01*
X37505792Y-112152252D01*
X36574439Y-111765521D01*
X35565985Y-111764641D01*
X34633959Y-112149746D01*
X33920252Y-112862208D01*
X33533521Y-113793561D01*
X33532641Y-114802015D01*
X30174000Y-114802015D01*
X30174000Y-97663000D01*
X32043370Y-97663000D01*
X32043370Y-98563430D01*
X32204982Y-99121906D01*
X32568011Y-99576024D01*
X33077190Y-99856649D01*
X33171168Y-99877540D01*
X33401000Y-99756214D01*
X33401000Y-97663000D01*
X32043370Y-97663000D01*
X30174000Y-97663000D01*
X30174000Y-96508570D01*
X32043370Y-96508570D01*
X32043370Y-97409000D01*
X33401000Y-97409000D01*
X33401000Y-95315786D01*
X33171168Y-95194460D01*
X33077190Y-95215351D01*
X32568011Y-95495976D01*
X32204982Y-95950094D01*
X32043370Y-96508570D01*
X30174000Y-96508570D01*
X30174000Y-94969070D01*
X31837630Y-94969070D01*
X32072947Y-94924792D01*
X32289071Y-94785720D01*
X32434061Y-94573520D01*
X32485070Y-94321630D01*
X32485070Y-92622370D01*
X32440792Y-92387053D01*
X32385000Y-92300350D01*
X32385000Y-92058656D01*
X35268756Y-89174900D01*
X35433000Y-89143996D01*
X35433000Y-92054074D01*
G36*
X112684560Y-107738000D02*
X112728838Y-107973317D01*
X112867910Y-108189441D01*
X113080110Y-108334431D01*
X113332000Y-108385440D01*
X119332000Y-108385440D01*
X119567317Y-108341162D01*
X119783441Y-108202090D01*
X119928431Y-107989890D01*
X119979440Y-107738000D01*
X119979440Y-106999073D01*
X120307100Y-107326733D01*
X120307100Y-116167866D01*
X119952466Y-116522500D01*
X119909305Y-116522500D01*
X119796090Y-116346559D01*
X119583890Y-116201569D01*
X119332000Y-116150560D01*
X113332000Y-116150560D01*
X113096683Y-116194838D01*
X112880559Y-116333910D01*
X112751701Y-116522500D01*
X112014005Y-116522500D01*
X112014000Y-116522499D01*
X111698094Y-116585337D01*
X111430283Y-116764283D01*
X111423629Y-116770937D01*
X111324547Y-116729794D01*
X110674306Y-116729226D01*
X110073345Y-116977538D01*
X109613154Y-117436927D01*
X109363794Y-118037453D01*
X109363226Y-118687694D01*
X109611538Y-119288655D01*
X110070927Y-119748846D01*
X110671453Y-119998206D01*
X111321694Y-119998774D01*
X111922655Y-119750462D01*
X112335837Y-119338000D01*
X112684560Y-119338000D01*
X112684560Y-120438000D01*
X112728838Y-120673317D01*
X112867910Y-120889441D01*
X113080110Y-121034431D01*
X113332000Y-121085440D01*
X119332000Y-121085440D01*
X119567317Y-121041162D01*
X119783441Y-120902090D01*
X119928431Y-120689890D01*
X119979440Y-120438000D01*
X119979440Y-119338000D01*
X119935162Y-119102683D01*
X119796090Y-118886559D01*
X119583890Y-118741569D01*
X119332000Y-118690560D01*
X113332000Y-118690560D01*
X113096683Y-118734838D01*
X112880559Y-118873910D01*
X112735569Y-119086110D01*
X112684560Y-119338000D01*
X112335837Y-119338000D01*
X112382846Y-119291073D01*
X112632206Y-118690547D01*
X112632658Y-118173500D01*
X112754695Y-118173500D01*
X112867910Y-118349441D01*
X113080110Y-118494431D01*
X113332000Y-118545440D01*
X119332000Y-118545440D01*
X119567317Y-118501162D01*
X119783441Y-118362090D01*
X119912299Y-118173500D01*
X120294400Y-118173500D01*
X120610306Y-118110663D01*
X120878117Y-117931717D01*
X121014137Y-117795697D01*
X121014137Y-120637799D01*
X121076974Y-120953705D01*
X121255920Y-121221516D01*
X121282567Y-121248163D01*
X120750391Y-121354019D01*
X120297172Y-121656851D01*
X120015000Y-122079150D01*
X119732828Y-121656851D01*
X119279609Y-121354019D01*
X118745000Y-121247679D01*
X118210391Y-121354019D01*
X117757172Y-121656851D01*
X117475000Y-122079150D01*
X117192828Y-121656851D01*
X116739609Y-121354019D01*
X116205000Y-121247679D01*
X115670391Y-121354019D01*
X115217172Y-121656851D01*
X114935000Y-122079150D01*
X114652828Y-121656851D01*
X114199609Y-121354019D01*
X113665000Y-121247679D01*
X113130391Y-121354019D01*
X112677172Y-121656851D01*
X112395000Y-122079150D01*
X112112828Y-121656851D01*
X111659609Y-121354019D01*
X111125000Y-121247679D01*
X110590391Y-121354019D01*
X110137172Y-121656851D01*
X109855000Y-122079150D01*
X109572828Y-121656851D01*
X109119609Y-121354019D01*
X108585000Y-121247679D01*
X108050391Y-121354019D01*
X107597172Y-121656851D01*
X107294340Y-122110070D01*
X107188000Y-122644679D01*
X107188000Y-123735321D01*
X107291967Y-124258000D01*
X104798033Y-124258000D01*
X104902000Y-123735321D01*
X104902000Y-122644679D01*
X104795660Y-122110070D01*
X104642397Y-121880696D01*
X104979409Y-121813660D01*
X105432628Y-121510828D01*
X109090229Y-117853228D01*
X109368392Y-117436927D01*
X109393060Y-117400009D01*
X109499400Y-116865400D01*
X109499400Y-115715260D01*
X109611538Y-115986655D01*
X110070927Y-116446846D01*
X110671453Y-116696206D01*
X111321694Y-116696774D01*
X111922655Y-116448462D01*
X112382846Y-115989073D01*
X112530493Y-115633500D01*
X112754695Y-115633500D01*
X112867910Y-115809441D01*
X113080110Y-115954431D01*
X113332000Y-116005440D01*
X119332000Y-116005440D01*
X119567317Y-115961162D01*
X119783441Y-115822090D01*
X119928431Y-115609890D01*
X119979440Y-115358000D01*
X119979440Y-114258000D01*
X119935162Y-114022683D01*
X119796090Y-113806559D01*
X119583890Y-113661569D01*
X119332000Y-113610560D01*
X113332000Y-113610560D01*
X113096683Y-113654838D01*
X112880559Y-113793910D01*
X112751701Y-113982500D01*
X112229887Y-113982500D01*
X111925073Y-113677154D01*
X111823500Y-113634977D01*
X111823500Y-113187432D01*
X111922655Y-113146462D01*
X112382846Y-112687073D01*
X112438206Y-112553750D01*
X112697000Y-112553750D01*
X112697000Y-112944310D01*
X112793673Y-113177699D01*
X112972302Y-113356327D01*
X113205691Y-113453000D01*
X116046250Y-113453000D01*
X116205000Y-113294250D01*
X116205000Y-112395000D01*
X116459000Y-112395000D01*
X116459000Y-113294250D01*
X116617750Y-113453000D01*
X119458309Y-113453000D01*
X119691698Y-113356327D01*
X119870327Y-113177699D01*
X119967000Y-112944310D01*
X119967000Y-112553750D01*
X119808250Y-112395000D01*
X116459000Y-112395000D01*
X116205000Y-112395000D01*
X112855750Y-112395000D01*
X112697000Y-112553750D01*
X112438206Y-112553750D01*
X112632206Y-112086547D01*
X112632638Y-111591690D01*
X112697000Y-111591690D01*
X112697000Y-111982250D01*
X112855750Y-112141000D01*
X116205000Y-112141000D01*
X116205000Y-111241750D01*
X116459000Y-111241750D01*
X116459000Y-112141000D01*
X119808250Y-112141000D01*
X119967000Y-111982250D01*
X119967000Y-111591690D01*
X119870327Y-111358301D01*
X119691698Y-111179673D01*
X119458309Y-111083000D01*
X116617750Y-111083000D01*
X116459000Y-111241750D01*
X116205000Y-111241750D01*
X116046250Y-111083000D01*
X113205691Y-111083000D01*
X112972302Y-111179673D01*
X112793673Y-111358301D01*
X112697000Y-111591690D01*
X112632638Y-111591690D01*
X112632774Y-111436306D01*
X112399194Y-110871000D01*
X113075089Y-110871000D01*
X113080110Y-110874431D01*
X113332000Y-110925440D01*
X119332000Y-110925440D01*
X119567317Y-110881162D01*
X119783441Y-110742090D01*
X119928431Y-110529890D01*
X119979440Y-110278000D01*
X119979440Y-109178000D01*
X119935162Y-108942683D01*
X119796090Y-108726559D01*
X119583890Y-108581569D01*
X119332000Y-108530560D01*
X113332000Y-108530560D01*
X113096683Y-108574838D01*
X113080891Y-108585000D01*
X112741446Y-108585000D01*
X112632475Y-108476029D01*
X112632774Y-108134306D01*
X112384462Y-107533345D01*
X112255148Y-107403806D01*
X112684560Y-106974394D01*
X112684560Y-107738000D01*
X112684560Y-107738000D01*
G37*
X112684560Y-107738000D02*
X112728838Y-107973317D01*
X112867910Y-108189441D01*
X113080110Y-108334431D01*
X113332000Y-108385440D01*
X119332000Y-108385440D01*
X119567317Y-108341162D01*
X119783441Y-108202090D01*
X119928431Y-107989890D01*
X119979440Y-107738000D01*
X119979440Y-106999073D01*
X120307100Y-107326733D01*
X120307100Y-116167866D01*
X119952466Y-116522500D01*
X119909305Y-116522500D01*
X119796090Y-116346559D01*
X119583890Y-116201569D01*
X119332000Y-116150560D01*
X113332000Y-116150560D01*
X113096683Y-116194838D01*
X112880559Y-116333910D01*
X112751701Y-116522500D01*
X112014005Y-116522500D01*
X112014000Y-116522499D01*
X111698094Y-116585337D01*
X111430283Y-116764283D01*
X111423629Y-116770937D01*
X111324547Y-116729794D01*
X110674306Y-116729226D01*
X110073345Y-116977538D01*
X109613154Y-117436927D01*
X109363794Y-118037453D01*
X109363226Y-118687694D01*
X109611538Y-119288655D01*
X110070927Y-119748846D01*
X110671453Y-119998206D01*
X111321694Y-119998774D01*
X111922655Y-119750462D01*
X112335837Y-119338000D01*
X112684560Y-119338000D01*
X112684560Y-120438000D01*
X112728838Y-120673317D01*
X112867910Y-120889441D01*
X113080110Y-121034431D01*
X113332000Y-121085440D01*
X119332000Y-121085440D01*
X119567317Y-121041162D01*
X119783441Y-120902090D01*
X119928431Y-120689890D01*
X119979440Y-120438000D01*
X119979440Y-119338000D01*
X119935162Y-119102683D01*
X119796090Y-118886559D01*
X119583890Y-118741569D01*
X119332000Y-118690560D01*
X113332000Y-118690560D01*
X113096683Y-118734838D01*
X112880559Y-118873910D01*
X112735569Y-119086110D01*
X112684560Y-119338000D01*
X112335837Y-119338000D01*
X112382846Y-119291073D01*
X112632206Y-118690547D01*
X112632658Y-118173500D01*
X112754695Y-118173500D01*
X112867910Y-118349441D01*
X113080110Y-118494431D01*
X113332000Y-118545440D01*
X119332000Y-118545440D01*
X119567317Y-118501162D01*
X119783441Y-118362090D01*
X119912299Y-118173500D01*
X120294400Y-118173500D01*
X120610306Y-118110663D01*
X120878117Y-117931717D01*
X121014137Y-117795697D01*
X121014137Y-120637799D01*
X121076974Y-120953705D01*
X121255920Y-121221516D01*
X121282567Y-121248163D01*
X120750391Y-121354019D01*
X120297172Y-121656851D01*
X120015000Y-122079150D01*
X119732828Y-121656851D01*
X119279609Y-121354019D01*
X118745000Y-121247679D01*
X118210391Y-121354019D01*
X117757172Y-121656851D01*
X117475000Y-122079150D01*
X117192828Y-121656851D01*
X116739609Y-121354019D01*
X116205000Y-121247679D01*
X115670391Y-121354019D01*
X115217172Y-121656851D01*
X114935000Y-122079150D01*
X114652828Y-121656851D01*
X114199609Y-121354019D01*
X113665000Y-121247679D01*
X113130391Y-121354019D01*
X112677172Y-121656851D01*
X112395000Y-122079150D01*
X112112828Y-121656851D01*
X111659609Y-121354019D01*
X111125000Y-121247679D01*
X110590391Y-121354019D01*
X110137172Y-121656851D01*
X109855000Y-122079150D01*
X109572828Y-121656851D01*
X109119609Y-121354019D01*
X108585000Y-121247679D01*
X108050391Y-121354019D01*
X107597172Y-121656851D01*
X107294340Y-122110070D01*
X107188000Y-122644679D01*
X107188000Y-123735321D01*
X107291967Y-124258000D01*
X104798033Y-124258000D01*
X104902000Y-123735321D01*
X104902000Y-122644679D01*
X104795660Y-122110070D01*
X104642397Y-121880696D01*
X104979409Y-121813660D01*
X105432628Y-121510828D01*
X109090229Y-117853228D01*
X109368392Y-117436927D01*
X109393060Y-117400009D01*
X109499400Y-116865400D01*
X109499400Y-115715260D01*
X109611538Y-115986655D01*
X110070927Y-116446846D01*
X110671453Y-116696206D01*
X111321694Y-116696774D01*
X111922655Y-116448462D01*
X112382846Y-115989073D01*
X112530493Y-115633500D01*
X112754695Y-115633500D01*
X112867910Y-115809441D01*
X113080110Y-115954431D01*
X113332000Y-116005440D01*
X119332000Y-116005440D01*
X119567317Y-115961162D01*
X119783441Y-115822090D01*
X119928431Y-115609890D01*
X119979440Y-115358000D01*
X119979440Y-114258000D01*
X119935162Y-114022683D01*
X119796090Y-113806559D01*
X119583890Y-113661569D01*
X119332000Y-113610560D01*
X113332000Y-113610560D01*
X113096683Y-113654838D01*
X112880559Y-113793910D01*
X112751701Y-113982500D01*
X112229887Y-113982500D01*
X111925073Y-113677154D01*
X111823500Y-113634977D01*
X111823500Y-113187432D01*
X111922655Y-113146462D01*
X112382846Y-112687073D01*
X112438206Y-112553750D01*
X112697000Y-112553750D01*
X112697000Y-112944310D01*
X112793673Y-113177699D01*
X112972302Y-113356327D01*
X113205691Y-113453000D01*
X116046250Y-113453000D01*
X116205000Y-113294250D01*
X116205000Y-112395000D01*
X116459000Y-112395000D01*
X116459000Y-113294250D01*
X116617750Y-113453000D01*
X119458309Y-113453000D01*
X119691698Y-113356327D01*
X119870327Y-113177699D01*
X119967000Y-112944310D01*
X119967000Y-112553750D01*
X119808250Y-112395000D01*
X116459000Y-112395000D01*
X116205000Y-112395000D01*
X112855750Y-112395000D01*
X112697000Y-112553750D01*
X112438206Y-112553750D01*
X112632206Y-112086547D01*
X112632638Y-111591690D01*
X112697000Y-111591690D01*
X112697000Y-111982250D01*
X112855750Y-112141000D01*
X116205000Y-112141000D01*
X116205000Y-111241750D01*
X116459000Y-111241750D01*
X116459000Y-112141000D01*
X119808250Y-112141000D01*
X119967000Y-111982250D01*
X119967000Y-111591690D01*
X119870327Y-111358301D01*
X119691698Y-111179673D01*
X119458309Y-111083000D01*
X116617750Y-111083000D01*
X116459000Y-111241750D01*
X116205000Y-111241750D01*
X116046250Y-111083000D01*
X113205691Y-111083000D01*
X112972302Y-111179673D01*
X112793673Y-111358301D01*
X112697000Y-111591690D01*
X112632638Y-111591690D01*
X112632774Y-111436306D01*
X112399194Y-110871000D01*
X113075089Y-110871000D01*
X113080110Y-110874431D01*
X113332000Y-110925440D01*
X119332000Y-110925440D01*
X119567317Y-110881162D01*
X119783441Y-110742090D01*
X119928431Y-110529890D01*
X119979440Y-110278000D01*
X119979440Y-109178000D01*
X119935162Y-108942683D01*
X119796090Y-108726559D01*
X119583890Y-108581569D01*
X119332000Y-108530560D01*
X113332000Y-108530560D01*
X113096683Y-108574838D01*
X113080891Y-108585000D01*
X112741446Y-108585000D01*
X112632475Y-108476029D01*
X112632774Y-108134306D01*
X112384462Y-107533345D01*
X112255148Y-107403806D01*
X112684560Y-106974394D01*
X112684560Y-107738000D01*
G36*
X153722000Y-92010125D02*
X153509275Y-91954331D01*
X152753605Y-92710000D01*
X153509275Y-93465669D01*
X153722000Y-93409875D01*
X153722000Y-97812518D01*
X153620742Y-97568059D01*
X153378764Y-97498841D01*
X152579605Y-98298000D01*
X153378764Y-99097159D01*
X153620742Y-99027941D01*
X153722000Y-98744003D01*
X153722000Y-124258000D01*
X122578033Y-124258000D01*
X122682000Y-123735321D01*
X122682000Y-122644679D01*
X122681415Y-122641736D01*
X122933330Y-122810060D01*
X123249235Y-122872898D01*
X123249240Y-122872897D01*
X134416403Y-122872897D01*
X134732309Y-122810060D01*
X135000120Y-122631114D01*
X142823717Y-114807517D01*
X143002663Y-114539706D01*
X143065501Y-114223800D01*
X143065500Y-114223795D01*
X143065500Y-106535314D01*
X143873314Y-105727500D01*
X146907750Y-105727500D01*
X147136222Y-106069433D01*
X147671845Y-106427325D01*
X148303655Y-106553000D01*
X148368345Y-106553000D01*
X149000155Y-106427325D01*
X149535778Y-106069433D01*
X149893670Y-105533810D01*
X150019345Y-104902000D01*
X149893670Y-104270190D01*
X149669034Y-103933999D01*
X149711698Y-103916327D01*
X149890327Y-103737699D01*
X149987000Y-103504310D01*
X149987000Y-102647750D01*
X149828250Y-102489000D01*
X148463000Y-102489000D01*
X148463000Y-102509000D01*
X148209000Y-102509000D01*
X148209000Y-102489000D01*
X146843750Y-102489000D01*
X146685000Y-102647750D01*
X146685000Y-103504310D01*
X146781673Y-103737699D01*
X146960302Y-103916327D01*
X147002966Y-103933999D01*
X146907750Y-104076500D01*
X143531380Y-104076500D01*
X143215474Y-104139337D01*
X142947663Y-104318283D01*
X142268719Y-104997227D01*
X142268719Y-101219690D01*
X146685000Y-101219690D01*
X146685000Y-102076250D01*
X146843750Y-102235000D01*
X148209000Y-102235000D01*
X148209000Y-100869750D01*
X148463000Y-100869750D01*
X148463000Y-102235000D01*
X149828250Y-102235000D01*
X149987000Y-102076250D01*
X149987000Y-101219690D01*
X149890327Y-100986301D01*
X149711698Y-100807673D01*
X149478309Y-100711000D01*
X148621750Y-100711000D01*
X148463000Y-100869750D01*
X148209000Y-100869750D01*
X148050250Y-100711000D01*
X147193691Y-100711000D01*
X146960302Y-100807673D01*
X146781673Y-100986301D01*
X146685000Y-101219690D01*
X142268719Y-101219690D01*
X142268719Y-90546715D01*
X142501377Y-90314057D01*
X142748000Y-90363113D01*
X143297151Y-90253880D01*
X143762698Y-89942811D01*
X143907901Y-89725500D01*
X144128099Y-89725500D01*
X144273302Y-89942811D01*
X144447850Y-90059440D01*
X144202306Y-90059226D01*
X143601345Y-90307538D01*
X143141154Y-90766927D01*
X142891794Y-91367453D01*
X142891226Y-92017694D01*
X143139538Y-92618655D01*
X143598927Y-93078846D01*
X144199453Y-93328206D01*
X144849694Y-93328774D01*
X145149789Y-93204777D01*
X144951629Y-93402937D01*
X144852547Y-93361794D01*
X144202306Y-93361226D01*
X143601345Y-93609538D01*
X143141154Y-94068927D01*
X142891794Y-94669453D01*
X142891226Y-95319694D01*
X143139538Y-95920655D01*
X143598927Y-96380846D01*
X144199453Y-96630206D01*
X144849694Y-96630774D01*
X145450655Y-96382462D01*
X145910846Y-95923073D01*
X146160206Y-95322547D01*
X146160774Y-94672306D01*
X146118775Y-94570659D01*
X146672748Y-94016686D01*
X146748500Y-94032026D01*
X146748500Y-96012000D01*
X146811337Y-96327906D01*
X146990283Y-96595717D01*
X147285126Y-96890560D01*
X146560000Y-96890560D01*
X146324683Y-96934838D01*
X146108559Y-97073910D01*
X145963569Y-97286110D01*
X145912560Y-97538000D01*
X145912560Y-99058000D01*
X145956838Y-99293317D01*
X146095910Y-99509441D01*
X146308110Y-99654431D01*
X146560000Y-99705440D01*
X148080000Y-99705440D01*
X148315317Y-99661162D01*
X148531441Y-99522090D01*
X148676431Y-99309890D01*
X148713969Y-99124520D01*
X149068764Y-99479934D01*
X149581300Y-99692758D01*
X150136265Y-99693242D01*
X150649172Y-99481313D01*
X150854078Y-99276764D01*
X151600841Y-99276764D01*
X151670059Y-99518742D01*
X152192780Y-99705155D01*
X152747049Y-99677341D01*
X153129941Y-99518742D01*
X153199159Y-99276764D01*
X152400000Y-98477605D01*
X151600841Y-99276764D01*
X150854078Y-99276764D01*
X151041934Y-99089236D01*
X151123391Y-98893066D01*
X151179258Y-99027941D01*
X151421236Y-99097159D01*
X152220395Y-98298000D01*
X151421236Y-97498841D01*
X151179258Y-97568059D01*
X151127618Y-97712862D01*
X151043313Y-97508828D01*
X150854052Y-97319236D01*
X151600841Y-97319236D01*
X152400000Y-98118395D01*
X153199159Y-97319236D01*
X153129941Y-97077258D01*
X152607220Y-96890845D01*
X152052951Y-96918659D01*
X151670059Y-97077258D01*
X151600841Y-97319236D01*
X150854052Y-97319236D01*
X150651236Y-97116066D01*
X150138700Y-96903242D01*
X149632234Y-96902800D01*
X148399500Y-95670066D01*
X148399500Y-94033826D01*
X148509317Y-94013162D01*
X148725441Y-93874090D01*
X148870431Y-93661890D01*
X148873795Y-93645275D01*
X151818331Y-93645275D01*
X151880169Y-93881042D01*
X152381122Y-94057419D01*
X152911440Y-94028664D01*
X153267831Y-93881042D01*
X153329669Y-93645275D01*
X152574000Y-92889605D01*
X151818331Y-93645275D01*
X148873795Y-93645275D01*
X148921440Y-93410000D01*
X148921440Y-92517122D01*
X151226581Y-92517122D01*
X151255336Y-93047440D01*
X151402958Y-93403831D01*
X151638725Y-93465669D01*
X152394395Y-92710000D01*
X151638725Y-91954331D01*
X151402958Y-92016169D01*
X151226581Y-92517122D01*
X148921440Y-92517122D01*
X148921440Y-92010000D01*
X148877170Y-91774725D01*
X151818331Y-91774725D01*
X152574000Y-92530395D01*
X153329669Y-91774725D01*
X153267831Y-91538958D01*
X152766878Y-91362581D01*
X152236560Y-91391336D01*
X151880169Y-91538958D01*
X151818331Y-91774725D01*
X148877170Y-91774725D01*
X148877162Y-91774683D01*
X148738090Y-91558559D01*
X148653500Y-91500761D01*
X148653500Y-90069229D01*
X148842698Y-89942811D01*
X149112986Y-89538297D01*
X149215611Y-89755134D01*
X149630577Y-90131041D01*
X150018961Y-90291904D01*
X150241000Y-90169915D01*
X150241000Y-89027000D01*
X150495000Y-89027000D01*
X150495000Y-90169915D01*
X150717039Y-90291904D01*
X151105423Y-90131041D01*
X151520389Y-89755134D01*
X151759914Y-89249041D01*
X151638629Y-89027000D01*
X150495000Y-89027000D01*
X150241000Y-89027000D01*
X150221000Y-89027000D01*
X150221000Y-88773000D01*
X150241000Y-88773000D01*
X150241000Y-87630085D01*
X150495000Y-87630085D01*
X150495000Y-88773000D01*
X151638629Y-88773000D01*
X151759914Y-88550959D01*
X151520389Y-88044866D01*
X151105423Y-87668959D01*
X150717039Y-87508096D01*
X150495000Y-87630085D01*
X150241000Y-87630085D01*
X150018961Y-87508096D01*
X149630577Y-87668959D01*
X149215611Y-88044866D01*
X149112986Y-88261703D01*
X148842698Y-87857189D01*
X148377151Y-87546120D01*
X147828000Y-87436887D01*
X147278849Y-87546120D01*
X146849999Y-87832669D01*
X146849999Y-86510631D01*
X148905631Y-84455000D01*
X153722000Y-84455000D01*
X153722000Y-92010125D01*
X153722000Y-92010125D01*
G37*
X153722000Y-92010125D02*
X153509275Y-91954331D01*
X152753605Y-92710000D01*
X153509275Y-93465669D01*
X153722000Y-93409875D01*
X153722000Y-97812518D01*
X153620742Y-97568059D01*
X153378764Y-97498841D01*
X152579605Y-98298000D01*
X153378764Y-99097159D01*
X153620742Y-99027941D01*
X153722000Y-98744003D01*
X153722000Y-124258000D01*
X122578033Y-124258000D01*
X122682000Y-123735321D01*
X122682000Y-122644679D01*
X122681415Y-122641736D01*
X122933330Y-122810060D01*
X123249235Y-122872898D01*
X123249240Y-122872897D01*
X134416403Y-122872897D01*
X134732309Y-122810060D01*
X135000120Y-122631114D01*
X142823717Y-114807517D01*
X143002663Y-114539706D01*
X143065501Y-114223800D01*
X143065500Y-114223795D01*
X143065500Y-106535314D01*
X143873314Y-105727500D01*
X146907750Y-105727500D01*
X147136222Y-106069433D01*
X147671845Y-106427325D01*
X148303655Y-106553000D01*
X148368345Y-106553000D01*
X149000155Y-106427325D01*
X149535778Y-106069433D01*
X149893670Y-105533810D01*
X150019345Y-104902000D01*
X149893670Y-104270190D01*
X149669034Y-103933999D01*
X149711698Y-103916327D01*
X149890327Y-103737699D01*
X149987000Y-103504310D01*
X149987000Y-102647750D01*
X149828250Y-102489000D01*
X148463000Y-102489000D01*
X148463000Y-102509000D01*
X148209000Y-102509000D01*
X148209000Y-102489000D01*
X146843750Y-102489000D01*
X146685000Y-102647750D01*
X146685000Y-103504310D01*
X146781673Y-103737699D01*
X146960302Y-103916327D01*
X147002966Y-103933999D01*
X146907750Y-104076500D01*
X143531380Y-104076500D01*
X143215474Y-104139337D01*
X142947663Y-104318283D01*
X142268719Y-104997227D01*
X142268719Y-101219690D01*
X146685000Y-101219690D01*
X146685000Y-102076250D01*
X146843750Y-102235000D01*
X148209000Y-102235000D01*
X148209000Y-100869750D01*
X148463000Y-100869750D01*
X148463000Y-102235000D01*
X149828250Y-102235000D01*
X149987000Y-102076250D01*
X149987000Y-101219690D01*
X149890327Y-100986301D01*
X149711698Y-100807673D01*
X149478309Y-100711000D01*
X148621750Y-100711000D01*
X148463000Y-100869750D01*
X148209000Y-100869750D01*
X148050250Y-100711000D01*
X147193691Y-100711000D01*
X146960302Y-100807673D01*
X146781673Y-100986301D01*
X146685000Y-101219690D01*
X142268719Y-101219690D01*
X142268719Y-90546715D01*
X142501377Y-90314057D01*
X142748000Y-90363113D01*
X143297151Y-90253880D01*
X143762698Y-89942811D01*
X143907901Y-89725500D01*
X144128099Y-89725500D01*
X144273302Y-89942811D01*
X144447850Y-90059440D01*
X144202306Y-90059226D01*
X143601345Y-90307538D01*
X143141154Y-90766927D01*
X142891794Y-91367453D01*
X142891226Y-92017694D01*
X143139538Y-92618655D01*
X143598927Y-93078846D01*
X144199453Y-93328206D01*
X144849694Y-93328774D01*
X145149789Y-93204777D01*
X144951629Y-93402937D01*
X144852547Y-93361794D01*
X144202306Y-93361226D01*
X143601345Y-93609538D01*
X143141154Y-94068927D01*
X142891794Y-94669453D01*
X142891226Y-95319694D01*
X143139538Y-95920655D01*
X143598927Y-96380846D01*
X144199453Y-96630206D01*
X144849694Y-96630774D01*
X145450655Y-96382462D01*
X145910846Y-95923073D01*
X146160206Y-95322547D01*
X146160774Y-94672306D01*
X146118775Y-94570659D01*
X146672748Y-94016686D01*
X146748500Y-94032026D01*
X146748500Y-96012000D01*
X146811337Y-96327906D01*
X146990283Y-96595717D01*
X147285126Y-96890560D01*
X146560000Y-96890560D01*
X146324683Y-96934838D01*
X146108559Y-97073910D01*
X145963569Y-97286110D01*
X145912560Y-97538000D01*
X145912560Y-99058000D01*
X145956838Y-99293317D01*
X146095910Y-99509441D01*
X146308110Y-99654431D01*
X146560000Y-99705440D01*
X148080000Y-99705440D01*
X148315317Y-99661162D01*
X148531441Y-99522090D01*
X148676431Y-99309890D01*
X148713969Y-99124520D01*
X149068764Y-99479934D01*
X149581300Y-99692758D01*
X150136265Y-99693242D01*
X150649172Y-99481313D01*
X150854078Y-99276764D01*
X151600841Y-99276764D01*
X151670059Y-99518742D01*
X152192780Y-99705155D01*
X152747049Y-99677341D01*
X153129941Y-99518742D01*
X153199159Y-99276764D01*
X152400000Y-98477605D01*
X151600841Y-99276764D01*
X150854078Y-99276764D01*
X151041934Y-99089236D01*
X151123391Y-98893066D01*
X151179258Y-99027941D01*
X151421236Y-99097159D01*
X152220395Y-98298000D01*
X151421236Y-97498841D01*
X151179258Y-97568059D01*
X151127618Y-97712862D01*
X151043313Y-97508828D01*
X150854052Y-97319236D01*
X151600841Y-97319236D01*
X152400000Y-98118395D01*
X153199159Y-97319236D01*
X153129941Y-97077258D01*
X152607220Y-96890845D01*
X152052951Y-96918659D01*
X151670059Y-97077258D01*
X151600841Y-97319236D01*
X150854052Y-97319236D01*
X150651236Y-97116066D01*
X150138700Y-96903242D01*
X149632234Y-96902800D01*
X148399500Y-95670066D01*
X148399500Y-94033826D01*
X148509317Y-94013162D01*
X148725441Y-93874090D01*
X148870431Y-93661890D01*
X148873795Y-93645275D01*
X151818331Y-93645275D01*
X151880169Y-93881042D01*
X152381122Y-94057419D01*
X152911440Y-94028664D01*
X153267831Y-93881042D01*
X153329669Y-93645275D01*
X152574000Y-92889605D01*
X151818331Y-93645275D01*
X148873795Y-93645275D01*
X148921440Y-93410000D01*
X148921440Y-92517122D01*
X151226581Y-92517122D01*
X151255336Y-93047440D01*
X151402958Y-93403831D01*
X151638725Y-93465669D01*
X152394395Y-92710000D01*
X151638725Y-91954331D01*
X151402958Y-92016169D01*
X151226581Y-92517122D01*
X148921440Y-92517122D01*
X148921440Y-92010000D01*
X148877170Y-91774725D01*
X151818331Y-91774725D01*
X152574000Y-92530395D01*
X153329669Y-91774725D01*
X153267831Y-91538958D01*
X152766878Y-91362581D01*
X152236560Y-91391336D01*
X151880169Y-91538958D01*
X151818331Y-91774725D01*
X148877170Y-91774725D01*
X148877162Y-91774683D01*
X148738090Y-91558559D01*
X148653500Y-91500761D01*
X148653500Y-90069229D01*
X148842698Y-89942811D01*
X149112986Y-89538297D01*
X149215611Y-89755134D01*
X149630577Y-90131041D01*
X150018961Y-90291904D01*
X150241000Y-90169915D01*
X150241000Y-89027000D01*
X150495000Y-89027000D01*
X150495000Y-90169915D01*
X150717039Y-90291904D01*
X151105423Y-90131041D01*
X151520389Y-89755134D01*
X151759914Y-89249041D01*
X151638629Y-89027000D01*
X150495000Y-89027000D01*
X150241000Y-89027000D01*
X150221000Y-89027000D01*
X150221000Y-88773000D01*
X150241000Y-88773000D01*
X150241000Y-87630085D01*
X150495000Y-87630085D01*
X150495000Y-88773000D01*
X151638629Y-88773000D01*
X151759914Y-88550959D01*
X151520389Y-88044866D01*
X151105423Y-87668959D01*
X150717039Y-87508096D01*
X150495000Y-87630085D01*
X150241000Y-87630085D01*
X150018961Y-87508096D01*
X149630577Y-87668959D01*
X149215611Y-88044866D01*
X149112986Y-88261703D01*
X148842698Y-87857189D01*
X148377151Y-87546120D01*
X147828000Y-87436887D01*
X147278849Y-87546120D01*
X146849999Y-87832669D01*
X146849999Y-86510631D01*
X148905631Y-84455000D01*
X153722000Y-84455000D01*
X153722000Y-92010125D01*
G36*
X98552000Y-123063000D02*
X100838000Y-123063000D01*
X100838000Y-123043000D01*
X101092000Y-123043000D01*
X101092000Y-123063000D01*
X101112000Y-123063000D01*
X101112000Y-123317000D01*
X101092000Y-123317000D01*
X101092000Y-123337000D01*
X100838000Y-123337000D01*
X100838000Y-123317000D01*
X98552000Y-123317000D01*
X98552000Y-123337000D01*
X98298000Y-123337000D01*
X98298000Y-123317000D01*
X98278000Y-123317000D01*
X98278000Y-123063000D01*
X98298000Y-123063000D01*
X98298000Y-123043000D01*
X98552000Y-123043000D01*
X98552000Y-123063000D01*
X98552000Y-123063000D01*
G37*
X98552000Y-123063000D02*
X100838000Y-123063000D01*
X100838000Y-123043000D01*
X101092000Y-123043000D01*
X101092000Y-123063000D01*
X101112000Y-123063000D01*
X101112000Y-123317000D01*
X101092000Y-123317000D01*
X101092000Y-123337000D01*
X100838000Y-123337000D01*
X100838000Y-123317000D01*
X98552000Y-123317000D01*
X98552000Y-123337000D01*
X98298000Y-123337000D01*
X98298000Y-123317000D01*
X98278000Y-123317000D01*
X98278000Y-123063000D01*
X98298000Y-123063000D01*
X98298000Y-123043000D01*
X98552000Y-123043000D01*
X98552000Y-123063000D01*
G36*
X43779991Y-60289875D02*
X43599206Y-60725255D01*
X43598794Y-61196677D01*
X43778820Y-61632372D01*
X44111875Y-61966009D01*
X44547255Y-62146794D01*
X45018677Y-62147206D01*
X45454372Y-61967180D01*
X45788009Y-61634125D01*
X45968794Y-61198745D01*
X45969206Y-60727323D01*
X45789180Y-60291628D01*
X45643806Y-60146000D01*
X48924117Y-60146000D01*
X48779991Y-60289875D01*
X48599206Y-60725255D01*
X48598794Y-61196677D01*
X48778820Y-61632372D01*
X49111875Y-61966009D01*
X49547255Y-62146794D01*
X50018677Y-62147206D01*
X50454372Y-61967180D01*
X50788009Y-61634125D01*
X50968794Y-61198745D01*
X50969206Y-60727323D01*
X50789180Y-60291628D01*
X50643806Y-60146000D01*
X53924117Y-60146000D01*
X53779991Y-60289875D01*
X53599206Y-60725255D01*
X53598794Y-61196677D01*
X53778820Y-61632372D01*
X54111875Y-61966009D01*
X54547255Y-62146794D01*
X55018677Y-62147206D01*
X55454372Y-61967180D01*
X55788009Y-61634125D01*
X55968794Y-61198745D01*
X55969206Y-60727323D01*
X55789180Y-60291628D01*
X55643806Y-60146000D01*
X58924117Y-60146000D01*
X58779991Y-60289875D01*
X58599206Y-60725255D01*
X58598794Y-61196677D01*
X58778820Y-61632372D01*
X59111875Y-61966009D01*
X59547255Y-62146794D01*
X60018677Y-62147206D01*
X60454372Y-61967180D01*
X60788009Y-61634125D01*
X60968794Y-61198745D01*
X60969206Y-60727323D01*
X60789180Y-60291628D01*
X60643806Y-60146000D01*
X63924117Y-60146000D01*
X63779991Y-60289875D01*
X63599206Y-60725255D01*
X63598794Y-61196677D01*
X63778820Y-61632372D01*
X64111875Y-61966009D01*
X64547255Y-62146794D01*
X65018677Y-62147206D01*
X65454372Y-61967180D01*
X65788009Y-61634125D01*
X65968794Y-61198745D01*
X65969206Y-60727323D01*
X65789180Y-60291628D01*
X65643806Y-60146000D01*
X68924117Y-60146000D01*
X68779991Y-60289875D01*
X68599206Y-60725255D01*
X68598794Y-61196677D01*
X68778820Y-61632372D01*
X69111875Y-61966009D01*
X69547255Y-62146794D01*
X70018677Y-62147206D01*
X70454372Y-61967180D01*
X70788009Y-61634125D01*
X70968794Y-61198745D01*
X70969206Y-60727323D01*
X70789180Y-60291628D01*
X70643806Y-60146000D01*
X75594117Y-60146000D01*
X75449991Y-60289875D01*
X75269206Y-60725255D01*
X75268794Y-61196677D01*
X75448820Y-61632372D01*
X75781875Y-61966009D01*
X76217255Y-62146794D01*
X76688677Y-62147206D01*
X77124372Y-61967180D01*
X77458009Y-61634125D01*
X77638794Y-61198745D01*
X77639206Y-60727323D01*
X77459180Y-60291628D01*
X77313806Y-60146000D01*
X80594117Y-60146000D01*
X80449991Y-60289875D01*
X80269206Y-60725255D01*
X80268794Y-61196677D01*
X80448820Y-61632372D01*
X80781875Y-61966009D01*
X81217255Y-62146794D01*
X81688677Y-62147206D01*
X82124372Y-61967180D01*
X82458009Y-61634125D01*
X82638794Y-61198745D01*
X82639206Y-60727323D01*
X82459180Y-60291628D01*
X82313806Y-60146000D01*
X85594117Y-60146000D01*
X85449991Y-60289875D01*
X85269206Y-60725255D01*
X85268794Y-61196677D01*
X85448820Y-61632372D01*
X85781875Y-61966009D01*
X86217255Y-62146794D01*
X86688677Y-62147206D01*
X87124372Y-61967180D01*
X87458009Y-61634125D01*
X87638794Y-61198745D01*
X87639206Y-60727323D01*
X87459180Y-60291628D01*
X87313806Y-60146000D01*
X90594117Y-60146000D01*
X90449991Y-60289875D01*
X90269206Y-60725255D01*
X90268794Y-61196677D01*
X90448820Y-61632372D01*
X90781875Y-61966009D01*
X91217255Y-62146794D01*
X91688677Y-62147206D01*
X92124372Y-61967180D01*
X92458009Y-61634125D01*
X92638794Y-61198745D01*
X92639206Y-60727323D01*
X92459180Y-60291628D01*
X92313806Y-60146000D01*
X95594117Y-60146000D01*
X95449991Y-60289875D01*
X95269206Y-60725255D01*
X95268794Y-61196677D01*
X95448820Y-61632372D01*
X95781875Y-61966009D01*
X96217255Y-62146794D01*
X96688677Y-62147206D01*
X97124372Y-61967180D01*
X97458009Y-61634125D01*
X97638794Y-61198745D01*
X97639206Y-60727323D01*
X97459180Y-60291628D01*
X97313806Y-60146000D01*
X100594117Y-60146000D01*
X100449991Y-60289875D01*
X100269206Y-60725255D01*
X100268794Y-61196677D01*
X100448820Y-61632372D01*
X100781875Y-61966009D01*
X101217255Y-62146794D01*
X101688677Y-62147206D01*
X102124372Y-61967180D01*
X102458009Y-61634125D01*
X102638794Y-61198745D01*
X102639206Y-60727323D01*
X102459180Y-60291628D01*
X102313806Y-60146000D01*
X143383000Y-60146000D01*
X143383000Y-63182914D01*
X143213362Y-63591448D01*
X143212638Y-64420913D01*
X143383000Y-64833220D01*
X143383000Y-74015502D01*
X143141154Y-74256927D01*
X142891794Y-74857453D01*
X142891226Y-75507694D01*
X143139538Y-76108655D01*
X143383000Y-76352542D01*
X143383000Y-77317502D01*
X143141154Y-77558927D01*
X142891794Y-78159453D01*
X142891226Y-78809694D01*
X142990721Y-79050491D01*
X139399924Y-79050491D01*
X135959063Y-75609630D01*
X136000206Y-75510547D01*
X136000774Y-74860306D01*
X135752462Y-74259345D01*
X135293073Y-73799154D01*
X134692547Y-73549794D01*
X134042306Y-73549226D01*
X133569071Y-73744763D01*
X137110799Y-70203035D01*
X137414000Y-70263345D01*
X137987489Y-70149271D01*
X138473670Y-69824415D01*
X138684000Y-69509634D01*
X138894330Y-69824415D01*
X139380511Y-70149271D01*
X139954000Y-70263345D01*
X140527489Y-70149271D01*
X141013670Y-69824415D01*
X141338526Y-69338234D01*
X141452600Y-68764745D01*
X141452600Y-68395255D01*
X141338526Y-67821766D01*
X141097000Y-67460297D01*
X141097000Y-66548000D01*
X141009994Y-66110593D01*
X140762223Y-65739777D01*
X140355823Y-65333377D01*
X139985007Y-65085606D01*
X139547600Y-64998600D01*
X131826000Y-64998600D01*
X131388593Y-65085606D01*
X131017777Y-65333377D01*
X128914154Y-67437000D01*
X128635433Y-67437000D01*
X128567670Y-67335585D01*
X128081489Y-67010729D01*
X127508000Y-66896655D01*
X126934511Y-67010729D01*
X126448330Y-67335585D01*
X126238000Y-67650366D01*
X126027670Y-67335585D01*
X125541489Y-67010729D01*
X124968000Y-66896655D01*
X124394511Y-67010729D01*
X123908330Y-67335585D01*
X123893500Y-67357780D01*
X123829927Y-67204302D01*
X123651299Y-67025673D01*
X123417910Y-66929000D01*
X122713750Y-66929000D01*
X122555000Y-67087750D01*
X122555000Y-68453000D01*
X122575000Y-68453000D01*
X122575000Y-68707000D01*
X122555000Y-68707000D01*
X122555000Y-70072250D01*
X122713750Y-70231000D01*
X123417910Y-70231000D01*
X123651299Y-70134327D01*
X123829927Y-69955698D01*
X123893500Y-69802220D01*
X123908330Y-69824415D01*
X124394511Y-70149271D01*
X124968000Y-70263345D01*
X125541489Y-70149271D01*
X126027670Y-69824415D01*
X126238000Y-69509634D01*
X126448330Y-69824415D01*
X126934511Y-70149271D01*
X127508000Y-70263345D01*
X128081489Y-70149271D01*
X128567670Y-69824415D01*
X128635433Y-69723000D01*
X129387600Y-69723000D01*
X129825007Y-69635994D01*
X130195823Y-69388223D01*
X130822960Y-68761086D01*
X130822960Y-69596000D01*
X130867238Y-69831317D01*
X131006310Y-70047441D01*
X131218510Y-70192431D01*
X131470400Y-70243440D01*
X131508500Y-70243440D01*
X131508500Y-71294507D01*
X130552706Y-72250300D01*
X120700805Y-72250300D01*
X120700800Y-72250299D01*
X120384895Y-72313137D01*
X120117083Y-72492083D01*
X120117081Y-72492086D01*
X119431283Y-73177883D01*
X119423208Y-73189969D01*
X119279609Y-73094019D01*
X118745000Y-72987679D01*
X118210391Y-73094019D01*
X117757172Y-73396851D01*
X117475000Y-73819150D01*
X117192828Y-73396851D01*
X117030500Y-73288387D01*
X117030500Y-72860428D01*
X118439714Y-71451213D01*
X118439717Y-71451211D01*
X118618663Y-71183399D01*
X118645328Y-71049346D01*
X118681501Y-70867494D01*
X118681500Y-70867489D01*
X118681500Y-70008250D01*
X119023433Y-69779778D01*
X119381325Y-69244155D01*
X119456594Y-68865750D01*
X120929400Y-68865750D01*
X120929400Y-69722309D01*
X121026073Y-69955698D01*
X121204701Y-70134327D01*
X121438090Y-70231000D01*
X122142250Y-70231000D01*
X122301000Y-70072250D01*
X122301000Y-68707000D01*
X121088150Y-68707000D01*
X120929400Y-68865750D01*
X119456594Y-68865750D01*
X119507000Y-68612345D01*
X119507000Y-68547655D01*
X119381325Y-67915845D01*
X119061833Y-67437691D01*
X120929400Y-67437691D01*
X120929400Y-68294250D01*
X121088150Y-68453000D01*
X122301000Y-68453000D01*
X122301000Y-67087750D01*
X122142250Y-66929000D01*
X121438090Y-66929000D01*
X121204701Y-67025673D01*
X121026073Y-67204302D01*
X120929400Y-67437691D01*
X119061833Y-67437691D01*
X119023433Y-67380222D01*
X118487810Y-67022330D01*
X117856000Y-66896655D01*
X117224190Y-67022330D01*
X116887999Y-67246966D01*
X116870327Y-67204302D01*
X116691699Y-67025673D01*
X116458310Y-66929000D01*
X115601750Y-66929000D01*
X115443000Y-67087750D01*
X115443000Y-68453000D01*
X115463000Y-68453000D01*
X115463000Y-68707000D01*
X115443000Y-68707000D01*
X115443000Y-70072250D01*
X115601750Y-70231000D01*
X116458310Y-70231000D01*
X116691699Y-70134327D01*
X116870327Y-69955698D01*
X116887999Y-69913034D01*
X117030500Y-70008250D01*
X117030500Y-70525561D01*
X115621283Y-71934777D01*
X115442337Y-72202588D01*
X115390749Y-72461940D01*
X115379500Y-72518494D01*
X115379500Y-73288387D01*
X115217172Y-73396851D01*
X114935000Y-73819150D01*
X114652828Y-73396851D01*
X114199609Y-73094019D01*
X113665000Y-72987679D01*
X113130391Y-73094019D01*
X112677172Y-73396851D01*
X112395000Y-73819150D01*
X112112828Y-73396851D01*
X111659609Y-73094019D01*
X111125000Y-72987679D01*
X110590391Y-73094019D01*
X110137172Y-73396851D01*
X109855000Y-73819150D01*
X109572828Y-73396851D01*
X109281945Y-73202488D01*
X109334253Y-73167537D01*
X111330276Y-71171514D01*
X111509222Y-70903702D01*
X111572060Y-70587797D01*
X111572059Y-70587792D01*
X111572059Y-70006541D01*
X111911433Y-69779778D01*
X112269325Y-69244155D01*
X112344594Y-68865750D01*
X113665000Y-68865750D01*
X113665000Y-69722309D01*
X113761673Y-69955698D01*
X113940301Y-70134327D01*
X114173690Y-70231000D01*
X115030250Y-70231000D01*
X115189000Y-70072250D01*
X115189000Y-68707000D01*
X113823750Y-68707000D01*
X113665000Y-68865750D01*
X112344594Y-68865750D01*
X112395000Y-68612345D01*
X112395000Y-68547655D01*
X112269325Y-67915845D01*
X111949833Y-67437691D01*
X113665000Y-67437691D01*
X113665000Y-68294250D01*
X113823750Y-68453000D01*
X115189000Y-68453000D01*
X115189000Y-67087750D01*
X115030250Y-66929000D01*
X114173690Y-66929000D01*
X113940301Y-67025673D01*
X113761673Y-67204302D01*
X113665000Y-67437691D01*
X111949833Y-67437691D01*
X111911433Y-67380222D01*
X111375810Y-67022330D01*
X110744000Y-66896655D01*
X110112190Y-67022330D01*
X109775999Y-67246966D01*
X109758327Y-67204302D01*
X109579699Y-67025673D01*
X109346310Y-66929000D01*
X108489750Y-66929000D01*
X108331000Y-67087750D01*
X108331000Y-68453000D01*
X108351000Y-68453000D01*
X108351000Y-68707000D01*
X108331000Y-68707000D01*
X108331000Y-70072250D01*
X108489750Y-70231000D01*
X109346310Y-70231000D01*
X109579699Y-70134327D01*
X109758327Y-69955698D01*
X109775999Y-69913034D01*
X109921059Y-70009960D01*
X109921059Y-70245863D01*
X108408602Y-71758320D01*
X105343180Y-71758320D01*
X105027274Y-71821157D01*
X104759463Y-72000103D01*
X103727608Y-73031958D01*
X103505000Y-72987679D01*
X102970391Y-73094019D01*
X102517172Y-73396851D01*
X102214340Y-73850070D01*
X102108000Y-74384679D01*
X102108000Y-74778567D01*
X100439723Y-76446843D01*
X100731660Y-76009930D01*
X100838000Y-75475321D01*
X100838000Y-74384679D01*
X100731660Y-73850070D01*
X100428828Y-73396851D01*
X99975609Y-73094019D01*
X99441000Y-72987679D01*
X98906391Y-73094019D01*
X98453172Y-73396851D01*
X98171000Y-73819150D01*
X97888828Y-73396851D01*
X97435609Y-73094019D01*
X96901000Y-72987679D01*
X96366391Y-73094019D01*
X95913172Y-73396851D01*
X95631000Y-73819150D01*
X95348828Y-73396851D01*
X94895609Y-73094019D01*
X94361000Y-72987679D01*
X93826391Y-73094019D01*
X93373172Y-73396851D01*
X93091000Y-73819150D01*
X92808828Y-73396851D01*
X92355609Y-73094019D01*
X91821000Y-72987679D01*
X91286391Y-73094019D01*
X90833172Y-73396851D01*
X90551000Y-73819150D01*
X90268828Y-73396851D01*
X89815609Y-73094019D01*
X89281000Y-72987679D01*
X88746391Y-73094019D01*
X88293172Y-73396851D01*
X88011000Y-73819150D01*
X87728828Y-73396851D01*
X87275609Y-73094019D01*
X86741000Y-72987679D01*
X86206391Y-73094019D01*
X85753172Y-73396851D01*
X85471000Y-73819150D01*
X85188828Y-73396851D01*
X84735609Y-73094019D01*
X84201000Y-72987679D01*
X83666391Y-73094019D01*
X83213172Y-73396851D01*
X82931000Y-73819150D01*
X82648828Y-73396851D01*
X82195609Y-73094019D01*
X81778931Y-73011137D01*
X82801038Y-71989030D01*
X83213991Y-71371003D01*
X83250074Y-71189600D01*
X83359000Y-70641991D01*
X83359000Y-68865750D01*
X106553000Y-68865750D01*
X106553000Y-69722309D01*
X106649673Y-69955698D01*
X106828301Y-70134327D01*
X107061690Y-70231000D01*
X107918250Y-70231000D01*
X108077000Y-70072250D01*
X108077000Y-68707000D01*
X106711750Y-68707000D01*
X106553000Y-68865750D01*
X83359000Y-68865750D01*
X83359000Y-67437691D01*
X106553000Y-67437691D01*
X106553000Y-68294250D01*
X106711750Y-68453000D01*
X108077000Y-68453000D01*
X108077000Y-67087750D01*
X107918250Y-66929000D01*
X107061690Y-66929000D01*
X106828301Y-67025673D01*
X106649673Y-67204302D01*
X106553000Y-67437691D01*
X83359000Y-67437691D01*
X83359000Y-66167000D01*
X86454000Y-66167000D01*
X87183012Y-66021991D01*
X87801038Y-65609038D01*
X88213991Y-64991012D01*
X88292623Y-64595697D01*
X89768708Y-64595697D01*
X90024694Y-65215229D01*
X90498278Y-65689640D01*
X91117362Y-65946707D01*
X91787697Y-65947292D01*
X92407229Y-65691306D01*
X92881640Y-65217722D01*
X93138707Y-64598638D01*
X93138709Y-64595697D01*
X94768708Y-64595697D01*
X95024694Y-65215229D01*
X95498278Y-65689640D01*
X96117362Y-65946707D01*
X96787697Y-65947292D01*
X97407229Y-65691306D01*
X97881640Y-65217722D01*
X98138707Y-64598638D01*
X98138709Y-64595697D01*
X99768708Y-64595697D01*
X100024694Y-65215229D01*
X100498278Y-65689640D01*
X101117362Y-65946707D01*
X101787697Y-65947292D01*
X102407229Y-65691306D01*
X102881640Y-65217722D01*
X103138707Y-64598638D01*
X103139292Y-63928303D01*
X102883306Y-63308771D01*
X102409722Y-62834360D01*
X101790638Y-62577293D01*
X101120303Y-62576708D01*
X100500771Y-62832694D01*
X100026360Y-63306278D01*
X99769293Y-63925362D01*
X99768708Y-64595697D01*
X98138709Y-64595697D01*
X98139292Y-63928303D01*
X97883306Y-63308771D01*
X97409722Y-62834360D01*
X96790638Y-62577293D01*
X96120303Y-62576708D01*
X95500771Y-62832694D01*
X95026360Y-63306278D01*
X94769293Y-63925362D01*
X94768708Y-64595697D01*
X93138709Y-64595697D01*
X93139292Y-63928303D01*
X92883306Y-63308771D01*
X92409722Y-62834360D01*
X91790638Y-62577293D01*
X91120303Y-62576708D01*
X90500771Y-62832694D01*
X90026360Y-63306278D01*
X89769293Y-63925362D01*
X89768708Y-64595697D01*
X88292623Y-64595697D01*
X88359000Y-64262000D01*
X88213991Y-63532988D01*
X87801038Y-62914962D01*
X87183012Y-62502009D01*
X86454000Y-62357000D01*
X76454000Y-62357000D01*
X75724988Y-62502009D01*
X75106962Y-62914962D01*
X74694009Y-63532988D01*
X74549000Y-64262000D01*
X74694009Y-64991012D01*
X75106962Y-65609038D01*
X75724988Y-66021991D01*
X76454000Y-66167000D01*
X79549000Y-66167000D01*
X79549000Y-69852914D01*
X77799362Y-71602553D01*
X77386409Y-72220579D01*
X77241400Y-72949591D01*
X77241400Y-77265703D01*
X77373076Y-77927683D01*
X77386409Y-77994715D01*
X77799362Y-78612741D01*
X79883000Y-80696380D01*
X79883000Y-94996000D01*
X79954682Y-95356370D01*
X79698810Y-95215351D01*
X79604832Y-95194460D01*
X79375000Y-95315786D01*
X79375000Y-97409000D01*
X79395000Y-97409000D01*
X79395000Y-97663000D01*
X79375000Y-97663000D01*
X79375000Y-97683000D01*
X79121000Y-97683000D01*
X79121000Y-97663000D01*
X77763370Y-97663000D01*
X77763370Y-98563430D01*
X77903392Y-99047300D01*
X72997363Y-99047300D01*
X70902347Y-96952283D01*
X70634536Y-96773337D01*
X70572630Y-96761023D01*
X70572630Y-96588844D01*
X70556663Y-96508570D01*
X77763370Y-96508570D01*
X77763370Y-97409000D01*
X79121000Y-97409000D01*
X79121000Y-95315786D01*
X78891168Y-95194460D01*
X78797190Y-95215351D01*
X78288011Y-95495976D01*
X77924982Y-95950094D01*
X77763370Y-96508570D01*
X70556663Y-96508570D01*
X70459619Y-96020701D01*
X70137792Y-95539052D01*
X69937079Y-95404940D01*
X70142482Y-95404940D01*
X70774293Y-95279265D01*
X71011961Y-95120460D01*
X71628520Y-95120460D01*
X72260330Y-94994785D01*
X72795953Y-94636893D01*
X73153845Y-94101270D01*
X73279520Y-93469460D01*
X73153845Y-92837650D01*
X72795953Y-92302027D01*
X72260330Y-91944135D01*
X71628520Y-91818460D01*
X70426962Y-91818460D01*
X69795152Y-91944135D01*
X69683000Y-92019073D01*
X69683000Y-88776128D01*
X69791991Y-88613012D01*
X69937000Y-87884000D01*
X69937000Y-85405600D01*
X69791991Y-84676588D01*
X69635990Y-84443116D01*
X69379039Y-84058562D01*
X66689000Y-81368524D01*
X66689000Y-64595697D01*
X68098708Y-64595697D01*
X68354694Y-65215229D01*
X68828278Y-65689640D01*
X69447362Y-65946707D01*
X70117697Y-65947292D01*
X70737229Y-65691306D01*
X71211640Y-65217722D01*
X71468707Y-64598638D01*
X71469292Y-63928303D01*
X71213306Y-63308771D01*
X70739722Y-62834360D01*
X70120638Y-62577293D01*
X69450303Y-62576708D01*
X68830771Y-62832694D01*
X68356360Y-63306278D01*
X68099293Y-63925362D01*
X68098708Y-64595697D01*
X66689000Y-64595697D01*
X66689000Y-64262000D01*
X66543991Y-63532988D01*
X66131038Y-62914962D01*
X65513012Y-62502009D01*
X64784000Y-62357000D01*
X64054988Y-62502009D01*
X63436962Y-62914962D01*
X63024009Y-63532988D01*
X62879000Y-64262000D01*
X62879000Y-82157600D01*
X63002620Y-82779083D01*
X63024009Y-82886612D01*
X63436962Y-83504638D01*
X66127000Y-86194677D01*
X66127000Y-86586560D01*
X66032524Y-86586560D01*
X65532000Y-86487000D01*
X63936656Y-86487000D01*
X61181000Y-83731344D01*
X61181000Y-65248309D01*
X61211640Y-65217722D01*
X61468707Y-64598638D01*
X61469292Y-63928303D01*
X61213306Y-63308771D01*
X60739722Y-62834360D01*
X60120638Y-62577293D01*
X59450303Y-62576708D01*
X58830771Y-62832694D01*
X58356360Y-63306278D01*
X58099293Y-63925362D01*
X58098708Y-64595697D01*
X58354694Y-65215229D01*
X58387000Y-65247591D01*
X58387000Y-84310000D01*
X58493340Y-84844609D01*
X58796172Y-85297828D01*
X62370172Y-88871828D01*
X62489070Y-88951273D01*
X60480692Y-90959652D01*
X60177860Y-91412871D01*
X60071520Y-91947480D01*
X60071520Y-92296137D01*
X60022459Y-92367940D01*
X59971450Y-92619830D01*
X59971450Y-94319090D01*
X60015728Y-94554407D01*
X60154800Y-94770531D01*
X60367000Y-94915521D01*
X60618890Y-94966530D01*
X62318150Y-94966530D01*
X62553467Y-94922252D01*
X62769591Y-94783180D01*
X62914581Y-94570980D01*
X62965590Y-94319090D01*
X62965590Y-92619830D01*
X62934905Y-92456751D01*
X66216757Y-89174900D01*
X66381000Y-89143996D01*
X66381000Y-91586074D01*
X65380567Y-92586507D01*
X65022675Y-93122129D01*
X64907514Y-93701083D01*
X64897000Y-93753940D01*
X64897000Y-95456852D01*
X64458810Y-95215351D01*
X64364832Y-95194460D01*
X64135000Y-95315786D01*
X64135000Y-97409000D01*
X64155000Y-97409000D01*
X64155000Y-97663000D01*
X64135000Y-97663000D01*
X64135000Y-97683000D01*
X63881000Y-97683000D01*
X63881000Y-97663000D01*
X62523370Y-97663000D01*
X62523370Y-98563430D01*
X62684982Y-99121906D01*
X63048011Y-99576024D01*
X63142883Y-99628311D01*
X58338375Y-99628311D01*
X55662347Y-96952283D01*
X55394536Y-96773337D01*
X55332630Y-96761023D01*
X55332630Y-96588844D01*
X55316663Y-96508570D01*
X62523370Y-96508570D01*
X62523370Y-97409000D01*
X63881000Y-97409000D01*
X63881000Y-95315786D01*
X63651168Y-95194460D01*
X63557190Y-95215351D01*
X63048011Y-95495976D01*
X62684982Y-95950094D01*
X62523370Y-96508570D01*
X55316663Y-96508570D01*
X55219619Y-96020701D01*
X54897792Y-95539052D01*
X54697079Y-95404940D01*
X54904502Y-95404940D01*
X55536313Y-95279265D01*
X55770180Y-95123000D01*
X56388000Y-95123000D01*
X57019810Y-94997325D01*
X57555433Y-94639433D01*
X57913325Y-94103810D01*
X58039000Y-93472000D01*
X57913325Y-92840190D01*
X57555433Y-92304567D01*
X57019810Y-91946675D01*
X56388000Y-91821000D01*
X55186442Y-91821000D01*
X54659455Y-91925824D01*
X54554631Y-91946675D01*
X54483000Y-91994537D01*
X54483000Y-88927076D01*
X56131039Y-87279038D01*
X56543991Y-86661012D01*
X56556186Y-86599705D01*
X56689000Y-85932000D01*
X56689000Y-64262000D01*
X56543991Y-63532988D01*
X56131038Y-62914962D01*
X55513012Y-62502009D01*
X54784000Y-62357000D01*
X54054988Y-62502009D01*
X53436962Y-62914962D01*
X53024009Y-63532988D01*
X52879000Y-64262000D01*
X52879000Y-85142923D01*
X51484962Y-86536962D01*
X51360112Y-86723813D01*
X51233890Y-86637569D01*
X51181000Y-86626859D01*
X51181000Y-65248309D01*
X51211640Y-65217722D01*
X51468707Y-64598638D01*
X51469292Y-63928303D01*
X51213306Y-63308771D01*
X50739722Y-62834360D01*
X50120638Y-62577293D01*
X49450303Y-62576708D01*
X48830771Y-62832694D01*
X48356360Y-63306278D01*
X48099293Y-63925362D01*
X48098708Y-64595697D01*
X48354694Y-65215229D01*
X48387000Y-65247591D01*
X48387000Y-87336000D01*
X48472833Y-87767511D01*
X45240172Y-91000172D01*
X44937340Y-91453391D01*
X44831000Y-91988000D01*
X44831000Y-92298677D01*
X44781939Y-92370480D01*
X44730930Y-92622370D01*
X44730930Y-94321630D01*
X44775208Y-94556947D01*
X44914280Y-94773071D01*
X45126480Y-94918061D01*
X45378370Y-94969070D01*
X47077630Y-94969070D01*
X47312947Y-94924792D01*
X47529071Y-94785720D01*
X47674061Y-94573520D01*
X47725070Y-94321630D01*
X47725070Y-92622370D01*
X47700399Y-92491257D01*
X51016756Y-89174900D01*
X51181000Y-89143996D01*
X51181000Y-91546073D01*
X50140567Y-92586507D01*
X49782675Y-93122129D01*
X49667514Y-93701083D01*
X49657000Y-93753940D01*
X49657000Y-95456852D01*
X49218810Y-95215351D01*
X49124832Y-95194460D01*
X48895000Y-95315786D01*
X48895000Y-97409000D01*
X48915000Y-97409000D01*
X48915000Y-97663000D01*
X48895000Y-97663000D01*
X48895000Y-99756214D01*
X49124832Y-99877540D01*
X49218810Y-99856649D01*
X49727989Y-99576024D01*
X50032484Y-99195127D01*
X50258208Y-99532948D01*
X50739857Y-99854775D01*
X51308000Y-99967786D01*
X51876143Y-99854775D01*
X52357792Y-99532948D01*
X52578000Y-99203383D01*
X52798208Y-99532948D01*
X53279857Y-99854775D01*
X53848000Y-99967786D01*
X54416143Y-99854775D01*
X54897792Y-99532948D01*
X55219619Y-99051299D01*
X55253942Y-98878746D01*
X56584518Y-100209322D01*
X43679385Y-100209322D01*
X41133064Y-97663000D01*
X47283370Y-97663000D01*
X47283370Y-98563430D01*
X47444982Y-99121906D01*
X47808011Y-99576024D01*
X48317190Y-99856649D01*
X48411168Y-99877540D01*
X48641000Y-99756214D01*
X48641000Y-97663000D01*
X47283370Y-97663000D01*
X41133064Y-97663000D01*
X40422347Y-96952283D01*
X40154536Y-96773337D01*
X40092630Y-96761023D01*
X40092630Y-96588844D01*
X40076663Y-96508570D01*
X47283370Y-96508570D01*
X47283370Y-97409000D01*
X48641000Y-97409000D01*
X48641000Y-95315786D01*
X48411168Y-95194460D01*
X48317190Y-95215351D01*
X47808011Y-95495976D01*
X47444982Y-95950094D01*
X47283370Y-96508570D01*
X40076663Y-96508570D01*
X39979619Y-96020701D01*
X39657792Y-95539052D01*
X39457079Y-95404940D01*
X39664502Y-95404940D01*
X40296313Y-95279265D01*
X40530180Y-95123000D01*
X41148000Y-95123000D01*
X41779810Y-94997325D01*
X42315433Y-94639433D01*
X42673325Y-94103810D01*
X42799000Y-93472000D01*
X42673325Y-92840190D01*
X42315433Y-92304567D01*
X41779810Y-91946675D01*
X41148000Y-91821000D01*
X39946442Y-91821000D01*
X39419455Y-91925824D01*
X39314631Y-91946675D01*
X39080764Y-92102940D01*
X38735000Y-92102940D01*
X38735000Y-88927076D01*
X46131038Y-81531039D01*
X46543991Y-80913013D01*
X46593889Y-80662155D01*
X46689000Y-80184000D01*
X46689000Y-64262000D01*
X46543991Y-63532988D01*
X46131038Y-62914962D01*
X45513012Y-62502009D01*
X44784000Y-62357000D01*
X44054988Y-62502009D01*
X43436962Y-62914962D01*
X43024009Y-63532988D01*
X42879000Y-64262000D01*
X42879000Y-79394923D01*
X37639730Y-84634193D01*
X37677738Y-84443116D01*
X37677738Y-71485500D01*
X38072060Y-71485500D01*
X38307377Y-71441222D01*
X38523501Y-71302150D01*
X38668491Y-71089950D01*
X38719500Y-70838060D01*
X38719500Y-67337940D01*
X38675222Y-67102623D01*
X38536150Y-66886499D01*
X38323950Y-66741509D01*
X38072060Y-66690500D01*
X34571940Y-66690500D01*
X34336623Y-66734778D01*
X34120499Y-66873850D01*
X34008060Y-67038410D01*
X34008060Y-66374010D01*
X33849310Y-66215260D01*
X31750000Y-66215260D01*
X31750000Y-68314570D01*
X31908750Y-68473320D01*
X33499370Y-68473320D01*
X33732759Y-68376647D01*
X33911387Y-68198018D01*
X33924500Y-68166360D01*
X33924500Y-70838060D01*
X33968778Y-71073377D01*
X34107850Y-71289501D01*
X34320050Y-71434491D01*
X34571940Y-71485500D01*
X34883738Y-71485500D01*
X34883738Y-83864460D01*
X33596172Y-85152026D01*
X33293340Y-85605245D01*
X33187000Y-86139854D01*
X33187000Y-87305344D01*
X30174000Y-90318344D01*
X30174000Y-68473320D01*
X31337250Y-68473320D01*
X31496000Y-68314570D01*
X31496000Y-66215260D01*
X31476000Y-66215260D01*
X31476000Y-65961260D01*
X31496000Y-65961260D01*
X31496000Y-63861950D01*
X31750000Y-63861950D01*
X31750000Y-65961260D01*
X33849310Y-65961260D01*
X34008060Y-65802510D01*
X34008060Y-65136588D01*
X34033613Y-65198278D01*
X34212241Y-65376907D01*
X34445630Y-65473580D01*
X36036250Y-65473580D01*
X36195000Y-65314830D01*
X36195000Y-63215520D01*
X36449000Y-63215520D01*
X36449000Y-65314830D01*
X36607750Y-65473580D01*
X38198370Y-65473580D01*
X38431759Y-65376907D01*
X38610387Y-65198278D01*
X38707060Y-64964889D01*
X38707060Y-63374270D01*
X38548310Y-63215520D01*
X36449000Y-63215520D01*
X36195000Y-63215520D01*
X34095690Y-63215520D01*
X33936940Y-63374270D01*
X33936940Y-64040192D01*
X33911387Y-63978502D01*
X33732759Y-63799873D01*
X33499370Y-63703200D01*
X31908750Y-63703200D01*
X31750000Y-63861950D01*
X31496000Y-63861950D01*
X31337250Y-63703200D01*
X30174000Y-63703200D01*
X30174000Y-61212151D01*
X33936940Y-61212151D01*
X33936940Y-62802770D01*
X34095690Y-62961520D01*
X36195000Y-62961520D01*
X36195000Y-60862210D01*
X36449000Y-60862210D01*
X36449000Y-62961520D01*
X38548310Y-62961520D01*
X38707060Y-62802770D01*
X38707060Y-61212151D01*
X38610387Y-60978762D01*
X38431759Y-60800133D01*
X38198370Y-60703460D01*
X36607750Y-60703460D01*
X36449000Y-60862210D01*
X36195000Y-60862210D01*
X36036250Y-60703460D01*
X34445630Y-60703460D01*
X34212241Y-60800133D01*
X34033613Y-60978762D01*
X33936940Y-61212151D01*
X30174000Y-61212151D01*
X30174000Y-60146000D01*
X43924117Y-60146000D01*
X43779991Y-60289875D01*
X43779991Y-60289875D01*
G37*
X43779991Y-60289875D02*
X43599206Y-60725255D01*
X43598794Y-61196677D01*
X43778820Y-61632372D01*
X44111875Y-61966009D01*
X44547255Y-62146794D01*
X45018677Y-62147206D01*
X45454372Y-61967180D01*
X45788009Y-61634125D01*
X45968794Y-61198745D01*
X45969206Y-60727323D01*
X45789180Y-60291628D01*
X45643806Y-60146000D01*
X48924117Y-60146000D01*
X48779991Y-60289875D01*
X48599206Y-60725255D01*
X48598794Y-61196677D01*
X48778820Y-61632372D01*
X49111875Y-61966009D01*
X49547255Y-62146794D01*
X50018677Y-62147206D01*
X50454372Y-61967180D01*
X50788009Y-61634125D01*
X50968794Y-61198745D01*
X50969206Y-60727323D01*
X50789180Y-60291628D01*
X50643806Y-60146000D01*
X53924117Y-60146000D01*
X53779991Y-60289875D01*
X53599206Y-60725255D01*
X53598794Y-61196677D01*
X53778820Y-61632372D01*
X54111875Y-61966009D01*
X54547255Y-62146794D01*
X55018677Y-62147206D01*
X55454372Y-61967180D01*
X55788009Y-61634125D01*
X55968794Y-61198745D01*
X55969206Y-60727323D01*
X55789180Y-60291628D01*
X55643806Y-60146000D01*
X58924117Y-60146000D01*
X58779991Y-60289875D01*
X58599206Y-60725255D01*
X58598794Y-61196677D01*
X58778820Y-61632372D01*
X59111875Y-61966009D01*
X59547255Y-62146794D01*
X60018677Y-62147206D01*
X60454372Y-61967180D01*
X60788009Y-61634125D01*
X60968794Y-61198745D01*
X60969206Y-60727323D01*
X60789180Y-60291628D01*
X60643806Y-60146000D01*
X63924117Y-60146000D01*
X63779991Y-60289875D01*
X63599206Y-60725255D01*
X63598794Y-61196677D01*
X63778820Y-61632372D01*
X64111875Y-61966009D01*
X64547255Y-62146794D01*
X65018677Y-62147206D01*
X65454372Y-61967180D01*
X65788009Y-61634125D01*
X65968794Y-61198745D01*
X65969206Y-60727323D01*
X65789180Y-60291628D01*
X65643806Y-60146000D01*
X68924117Y-60146000D01*
X68779991Y-60289875D01*
X68599206Y-60725255D01*
X68598794Y-61196677D01*
X68778820Y-61632372D01*
X69111875Y-61966009D01*
X69547255Y-62146794D01*
X70018677Y-62147206D01*
X70454372Y-61967180D01*
X70788009Y-61634125D01*
X70968794Y-61198745D01*
X70969206Y-60727323D01*
X70789180Y-60291628D01*
X70643806Y-60146000D01*
X75594117Y-60146000D01*
X75449991Y-60289875D01*
X75269206Y-60725255D01*
X75268794Y-61196677D01*
X75448820Y-61632372D01*
X75781875Y-61966009D01*
X76217255Y-62146794D01*
X76688677Y-62147206D01*
X77124372Y-61967180D01*
X77458009Y-61634125D01*
X77638794Y-61198745D01*
X77639206Y-60727323D01*
X77459180Y-60291628D01*
X77313806Y-60146000D01*
X80594117Y-60146000D01*
X80449991Y-60289875D01*
X80269206Y-60725255D01*
X80268794Y-61196677D01*
X80448820Y-61632372D01*
X80781875Y-61966009D01*
X81217255Y-62146794D01*
X81688677Y-62147206D01*
X82124372Y-61967180D01*
X82458009Y-61634125D01*
X82638794Y-61198745D01*
X82639206Y-60727323D01*
X82459180Y-60291628D01*
X82313806Y-60146000D01*
X85594117Y-60146000D01*
X85449991Y-60289875D01*
X85269206Y-60725255D01*
X85268794Y-61196677D01*
X85448820Y-61632372D01*
X85781875Y-61966009D01*
X86217255Y-62146794D01*
X86688677Y-62147206D01*
X87124372Y-61967180D01*
X87458009Y-61634125D01*
X87638794Y-61198745D01*
X87639206Y-60727323D01*
X87459180Y-60291628D01*
X87313806Y-60146000D01*
X90594117Y-60146000D01*
X90449991Y-60289875D01*
X90269206Y-60725255D01*
X90268794Y-61196677D01*
X90448820Y-61632372D01*
X90781875Y-61966009D01*
X91217255Y-62146794D01*
X91688677Y-62147206D01*
X92124372Y-61967180D01*
X92458009Y-61634125D01*
X92638794Y-61198745D01*
X92639206Y-60727323D01*
X92459180Y-60291628D01*
X92313806Y-60146000D01*
X95594117Y-60146000D01*
X95449991Y-60289875D01*
X95269206Y-60725255D01*
X95268794Y-61196677D01*
X95448820Y-61632372D01*
X95781875Y-61966009D01*
X96217255Y-62146794D01*
X96688677Y-62147206D01*
X97124372Y-61967180D01*
X97458009Y-61634125D01*
X97638794Y-61198745D01*
X97639206Y-60727323D01*
X97459180Y-60291628D01*
X97313806Y-60146000D01*
X100594117Y-60146000D01*
X100449991Y-60289875D01*
X100269206Y-60725255D01*
X100268794Y-61196677D01*
X100448820Y-61632372D01*
X100781875Y-61966009D01*
X101217255Y-62146794D01*
X101688677Y-62147206D01*
X102124372Y-61967180D01*
X102458009Y-61634125D01*
X102638794Y-61198745D01*
X102639206Y-60727323D01*
X102459180Y-60291628D01*
X102313806Y-60146000D01*
X143383000Y-60146000D01*
X143383000Y-63182914D01*
X143213362Y-63591448D01*
X143212638Y-64420913D01*
X143383000Y-64833220D01*
X143383000Y-74015502D01*
X143141154Y-74256927D01*
X142891794Y-74857453D01*
X142891226Y-75507694D01*
X143139538Y-76108655D01*
X143383000Y-76352542D01*
X143383000Y-77317502D01*
X143141154Y-77558927D01*
X142891794Y-78159453D01*
X142891226Y-78809694D01*
X142990721Y-79050491D01*
X139399924Y-79050491D01*
X135959063Y-75609630D01*
X136000206Y-75510547D01*
X136000774Y-74860306D01*
X135752462Y-74259345D01*
X135293073Y-73799154D01*
X134692547Y-73549794D01*
X134042306Y-73549226D01*
X133569071Y-73744763D01*
X137110799Y-70203035D01*
X137414000Y-70263345D01*
X137987489Y-70149271D01*
X138473670Y-69824415D01*
X138684000Y-69509634D01*
X138894330Y-69824415D01*
X139380511Y-70149271D01*
X139954000Y-70263345D01*
X140527489Y-70149271D01*
X141013670Y-69824415D01*
X141338526Y-69338234D01*
X141452600Y-68764745D01*
X141452600Y-68395255D01*
X141338526Y-67821766D01*
X141097000Y-67460297D01*
X141097000Y-66548000D01*
X141009994Y-66110593D01*
X140762223Y-65739777D01*
X140355823Y-65333377D01*
X139985007Y-65085606D01*
X139547600Y-64998600D01*
X131826000Y-64998600D01*
X131388593Y-65085606D01*
X131017777Y-65333377D01*
X128914154Y-67437000D01*
X128635433Y-67437000D01*
X128567670Y-67335585D01*
X128081489Y-67010729D01*
X127508000Y-66896655D01*
X126934511Y-67010729D01*
X126448330Y-67335585D01*
X126238000Y-67650366D01*
X126027670Y-67335585D01*
X125541489Y-67010729D01*
X124968000Y-66896655D01*
X124394511Y-67010729D01*
X123908330Y-67335585D01*
X123893500Y-67357780D01*
X123829927Y-67204302D01*
X123651299Y-67025673D01*
X123417910Y-66929000D01*
X122713750Y-66929000D01*
X122555000Y-67087750D01*
X122555000Y-68453000D01*
X122575000Y-68453000D01*
X122575000Y-68707000D01*
X122555000Y-68707000D01*
X122555000Y-70072250D01*
X122713750Y-70231000D01*
X123417910Y-70231000D01*
X123651299Y-70134327D01*
X123829927Y-69955698D01*
X123893500Y-69802220D01*
X123908330Y-69824415D01*
X124394511Y-70149271D01*
X124968000Y-70263345D01*
X125541489Y-70149271D01*
X126027670Y-69824415D01*
X126238000Y-69509634D01*
X126448330Y-69824415D01*
X126934511Y-70149271D01*
X127508000Y-70263345D01*
X128081489Y-70149271D01*
X128567670Y-69824415D01*
X128635433Y-69723000D01*
X129387600Y-69723000D01*
X129825007Y-69635994D01*
X130195823Y-69388223D01*
X130822960Y-68761086D01*
X130822960Y-69596000D01*
X130867238Y-69831317D01*
X131006310Y-70047441D01*
X131218510Y-70192431D01*
X131470400Y-70243440D01*
X131508500Y-70243440D01*
X131508500Y-71294507D01*
X130552706Y-72250300D01*
X120700805Y-72250300D01*
X120700800Y-72250299D01*
X120384895Y-72313137D01*
X120117083Y-72492083D01*
X120117081Y-72492086D01*
X119431283Y-73177883D01*
X119423208Y-73189969D01*
X119279609Y-73094019D01*
X118745000Y-72987679D01*
X118210391Y-73094019D01*
X117757172Y-73396851D01*
X117475000Y-73819150D01*
X117192828Y-73396851D01*
X117030500Y-73288387D01*
X117030500Y-72860428D01*
X118439714Y-71451213D01*
X118439717Y-71451211D01*
X118618663Y-71183399D01*
X118645328Y-71049346D01*
X118681501Y-70867494D01*
X118681500Y-70867489D01*
X118681500Y-70008250D01*
X119023433Y-69779778D01*
X119381325Y-69244155D01*
X119456594Y-68865750D01*
X120929400Y-68865750D01*
X120929400Y-69722309D01*
X121026073Y-69955698D01*
X121204701Y-70134327D01*
X121438090Y-70231000D01*
X122142250Y-70231000D01*
X122301000Y-70072250D01*
X122301000Y-68707000D01*
X121088150Y-68707000D01*
X120929400Y-68865750D01*
X119456594Y-68865750D01*
X119507000Y-68612345D01*
X119507000Y-68547655D01*
X119381325Y-67915845D01*
X119061833Y-67437691D01*
X120929400Y-67437691D01*
X120929400Y-68294250D01*
X121088150Y-68453000D01*
X122301000Y-68453000D01*
X122301000Y-67087750D01*
X122142250Y-66929000D01*
X121438090Y-66929000D01*
X121204701Y-67025673D01*
X121026073Y-67204302D01*
X120929400Y-67437691D01*
X119061833Y-67437691D01*
X119023433Y-67380222D01*
X118487810Y-67022330D01*
X117856000Y-66896655D01*
X117224190Y-67022330D01*
X116887999Y-67246966D01*
X116870327Y-67204302D01*
X116691699Y-67025673D01*
X116458310Y-66929000D01*
X115601750Y-66929000D01*
X115443000Y-67087750D01*
X115443000Y-68453000D01*
X115463000Y-68453000D01*
X115463000Y-68707000D01*
X115443000Y-68707000D01*
X115443000Y-70072250D01*
X115601750Y-70231000D01*
X116458310Y-70231000D01*
X116691699Y-70134327D01*
X116870327Y-69955698D01*
X116887999Y-69913034D01*
X117030500Y-70008250D01*
X117030500Y-70525561D01*
X115621283Y-71934777D01*
X115442337Y-72202588D01*
X115390749Y-72461940D01*
X115379500Y-72518494D01*
X115379500Y-73288387D01*
X115217172Y-73396851D01*
X114935000Y-73819150D01*
X114652828Y-73396851D01*
X114199609Y-73094019D01*
X113665000Y-72987679D01*
X113130391Y-73094019D01*
X112677172Y-73396851D01*
X112395000Y-73819150D01*
X112112828Y-73396851D01*
X111659609Y-73094019D01*
X111125000Y-72987679D01*
X110590391Y-73094019D01*
X110137172Y-73396851D01*
X109855000Y-73819150D01*
X109572828Y-73396851D01*
X109281945Y-73202488D01*
X109334253Y-73167537D01*
X111330276Y-71171514D01*
X111509222Y-70903702D01*
X111572060Y-70587797D01*
X111572059Y-70587792D01*
X111572059Y-70006541D01*
X111911433Y-69779778D01*
X112269325Y-69244155D01*
X112344594Y-68865750D01*
X113665000Y-68865750D01*
X113665000Y-69722309D01*
X113761673Y-69955698D01*
X113940301Y-70134327D01*
X114173690Y-70231000D01*
X115030250Y-70231000D01*
X115189000Y-70072250D01*
X115189000Y-68707000D01*
X113823750Y-68707000D01*
X113665000Y-68865750D01*
X112344594Y-68865750D01*
X112395000Y-68612345D01*
X112395000Y-68547655D01*
X112269325Y-67915845D01*
X111949833Y-67437691D01*
X113665000Y-67437691D01*
X113665000Y-68294250D01*
X113823750Y-68453000D01*
X115189000Y-68453000D01*
X115189000Y-67087750D01*
X115030250Y-66929000D01*
X114173690Y-66929000D01*
X113940301Y-67025673D01*
X113761673Y-67204302D01*
X113665000Y-67437691D01*
X111949833Y-67437691D01*
X111911433Y-67380222D01*
X111375810Y-67022330D01*
X110744000Y-66896655D01*
X110112190Y-67022330D01*
X109775999Y-67246966D01*
X109758327Y-67204302D01*
X109579699Y-67025673D01*
X109346310Y-66929000D01*
X108489750Y-66929000D01*
X108331000Y-67087750D01*
X108331000Y-68453000D01*
X108351000Y-68453000D01*
X108351000Y-68707000D01*
X108331000Y-68707000D01*
X108331000Y-70072250D01*
X108489750Y-70231000D01*
X109346310Y-70231000D01*
X109579699Y-70134327D01*
X109758327Y-69955698D01*
X109775999Y-69913034D01*
X109921059Y-70009960D01*
X109921059Y-70245863D01*
X108408602Y-71758320D01*
X105343180Y-71758320D01*
X105027274Y-71821157D01*
X104759463Y-72000103D01*
X103727608Y-73031958D01*
X103505000Y-72987679D01*
X102970391Y-73094019D01*
X102517172Y-73396851D01*
X102214340Y-73850070D01*
X102108000Y-74384679D01*
X102108000Y-74778567D01*
X100439723Y-76446843D01*
X100731660Y-76009930D01*
X100838000Y-75475321D01*
X100838000Y-74384679D01*
X100731660Y-73850070D01*
X100428828Y-73396851D01*
X99975609Y-73094019D01*
X99441000Y-72987679D01*
X98906391Y-73094019D01*
X98453172Y-73396851D01*
X98171000Y-73819150D01*
X97888828Y-73396851D01*
X97435609Y-73094019D01*
X96901000Y-72987679D01*
X96366391Y-73094019D01*
X95913172Y-73396851D01*
X95631000Y-73819150D01*
X95348828Y-73396851D01*
X94895609Y-73094019D01*
X94361000Y-72987679D01*
X93826391Y-73094019D01*
X93373172Y-73396851D01*
X93091000Y-73819150D01*
X92808828Y-73396851D01*
X92355609Y-73094019D01*
X91821000Y-72987679D01*
X91286391Y-73094019D01*
X90833172Y-73396851D01*
X90551000Y-73819150D01*
X90268828Y-73396851D01*
X89815609Y-73094019D01*
X89281000Y-72987679D01*
X88746391Y-73094019D01*
X88293172Y-73396851D01*
X88011000Y-73819150D01*
X87728828Y-73396851D01*
X87275609Y-73094019D01*
X86741000Y-72987679D01*
X86206391Y-73094019D01*
X85753172Y-73396851D01*
X85471000Y-73819150D01*
X85188828Y-73396851D01*
X84735609Y-73094019D01*
X84201000Y-72987679D01*
X83666391Y-73094019D01*
X83213172Y-73396851D01*
X82931000Y-73819150D01*
X82648828Y-73396851D01*
X82195609Y-73094019D01*
X81778931Y-73011137D01*
X82801038Y-71989030D01*
X83213991Y-71371003D01*
X83250074Y-71189600D01*
X83359000Y-70641991D01*
X83359000Y-68865750D01*
X106553000Y-68865750D01*
X106553000Y-69722309D01*
X106649673Y-69955698D01*
X106828301Y-70134327D01*
X107061690Y-70231000D01*
X107918250Y-70231000D01*
X108077000Y-70072250D01*
X108077000Y-68707000D01*
X106711750Y-68707000D01*
X106553000Y-68865750D01*
X83359000Y-68865750D01*
X83359000Y-67437691D01*
X106553000Y-67437691D01*
X106553000Y-68294250D01*
X106711750Y-68453000D01*
X108077000Y-68453000D01*
X108077000Y-67087750D01*
X107918250Y-66929000D01*
X107061690Y-66929000D01*
X106828301Y-67025673D01*
X106649673Y-67204302D01*
X106553000Y-67437691D01*
X83359000Y-67437691D01*
X83359000Y-66167000D01*
X86454000Y-66167000D01*
X87183012Y-66021991D01*
X87801038Y-65609038D01*
X88213991Y-64991012D01*
X88292623Y-64595697D01*
X89768708Y-64595697D01*
X90024694Y-65215229D01*
X90498278Y-65689640D01*
X91117362Y-65946707D01*
X91787697Y-65947292D01*
X92407229Y-65691306D01*
X92881640Y-65217722D01*
X93138707Y-64598638D01*
X93138709Y-64595697D01*
X94768708Y-64595697D01*
X95024694Y-65215229D01*
X95498278Y-65689640D01*
X96117362Y-65946707D01*
X96787697Y-65947292D01*
X97407229Y-65691306D01*
X97881640Y-65217722D01*
X98138707Y-64598638D01*
X98138709Y-64595697D01*
X99768708Y-64595697D01*
X100024694Y-65215229D01*
X100498278Y-65689640D01*
X101117362Y-65946707D01*
X101787697Y-65947292D01*
X102407229Y-65691306D01*
X102881640Y-65217722D01*
X103138707Y-64598638D01*
X103139292Y-63928303D01*
X102883306Y-63308771D01*
X102409722Y-62834360D01*
X101790638Y-62577293D01*
X101120303Y-62576708D01*
X100500771Y-62832694D01*
X100026360Y-63306278D01*
X99769293Y-63925362D01*
X99768708Y-64595697D01*
X98138709Y-64595697D01*
X98139292Y-63928303D01*
X97883306Y-63308771D01*
X97409722Y-62834360D01*
X96790638Y-62577293D01*
X96120303Y-62576708D01*
X95500771Y-62832694D01*
X95026360Y-63306278D01*
X94769293Y-63925362D01*
X94768708Y-64595697D01*
X93138709Y-64595697D01*
X93139292Y-63928303D01*
X92883306Y-63308771D01*
X92409722Y-62834360D01*
X91790638Y-62577293D01*
X91120303Y-62576708D01*
X90500771Y-62832694D01*
X90026360Y-63306278D01*
X89769293Y-63925362D01*
X89768708Y-64595697D01*
X88292623Y-64595697D01*
X88359000Y-64262000D01*
X88213991Y-63532988D01*
X87801038Y-62914962D01*
X87183012Y-62502009D01*
X86454000Y-62357000D01*
X76454000Y-62357000D01*
X75724988Y-62502009D01*
X75106962Y-62914962D01*
X74694009Y-63532988D01*
X74549000Y-64262000D01*
X74694009Y-64991012D01*
X75106962Y-65609038D01*
X75724988Y-66021991D01*
X76454000Y-66167000D01*
X79549000Y-66167000D01*
X79549000Y-69852914D01*
X77799362Y-71602553D01*
X77386409Y-72220579D01*
X77241400Y-72949591D01*
X77241400Y-77265703D01*
X77373076Y-77927683D01*
X77386409Y-77994715D01*
X77799362Y-78612741D01*
X79883000Y-80696380D01*
X79883000Y-94996000D01*
X79954682Y-95356370D01*
X79698810Y-95215351D01*
X79604832Y-95194460D01*
X79375000Y-95315786D01*
X79375000Y-97409000D01*
X79395000Y-97409000D01*
X79395000Y-97663000D01*
X79375000Y-97663000D01*
X79375000Y-97683000D01*
X79121000Y-97683000D01*
X79121000Y-97663000D01*
X77763370Y-97663000D01*
X77763370Y-98563430D01*
X77903392Y-99047300D01*
X72997363Y-99047300D01*
X70902347Y-96952283D01*
X70634536Y-96773337D01*
X70572630Y-96761023D01*
X70572630Y-96588844D01*
X70556663Y-96508570D01*
X77763370Y-96508570D01*
X77763370Y-97409000D01*
X79121000Y-97409000D01*
X79121000Y-95315786D01*
X78891168Y-95194460D01*
X78797190Y-95215351D01*
X78288011Y-95495976D01*
X77924982Y-95950094D01*
X77763370Y-96508570D01*
X70556663Y-96508570D01*
X70459619Y-96020701D01*
X70137792Y-95539052D01*
X69937079Y-95404940D01*
X70142482Y-95404940D01*
X70774293Y-95279265D01*
X71011961Y-95120460D01*
X71628520Y-95120460D01*
X72260330Y-94994785D01*
X72795953Y-94636893D01*
X73153845Y-94101270D01*
X73279520Y-93469460D01*
X73153845Y-92837650D01*
X72795953Y-92302027D01*
X72260330Y-91944135D01*
X71628520Y-91818460D01*
X70426962Y-91818460D01*
X69795152Y-91944135D01*
X69683000Y-92019073D01*
X69683000Y-88776128D01*
X69791991Y-88613012D01*
X69937000Y-87884000D01*
X69937000Y-85405600D01*
X69791991Y-84676588D01*
X69635990Y-84443116D01*
X69379039Y-84058562D01*
X66689000Y-81368524D01*
X66689000Y-64595697D01*
X68098708Y-64595697D01*
X68354694Y-65215229D01*
X68828278Y-65689640D01*
X69447362Y-65946707D01*
X70117697Y-65947292D01*
X70737229Y-65691306D01*
X71211640Y-65217722D01*
X71468707Y-64598638D01*
X71469292Y-63928303D01*
X71213306Y-63308771D01*
X70739722Y-62834360D01*
X70120638Y-62577293D01*
X69450303Y-62576708D01*
X68830771Y-62832694D01*
X68356360Y-63306278D01*
X68099293Y-63925362D01*
X68098708Y-64595697D01*
X66689000Y-64595697D01*
X66689000Y-64262000D01*
X66543991Y-63532988D01*
X66131038Y-62914962D01*
X65513012Y-62502009D01*
X64784000Y-62357000D01*
X64054988Y-62502009D01*
X63436962Y-62914962D01*
X63024009Y-63532988D01*
X62879000Y-64262000D01*
X62879000Y-82157600D01*
X63002620Y-82779083D01*
X63024009Y-82886612D01*
X63436962Y-83504638D01*
X66127000Y-86194677D01*
X66127000Y-86586560D01*
X66032524Y-86586560D01*
X65532000Y-86487000D01*
X63936656Y-86487000D01*
X61181000Y-83731344D01*
X61181000Y-65248309D01*
X61211640Y-65217722D01*
X61468707Y-64598638D01*
X61469292Y-63928303D01*
X61213306Y-63308771D01*
X60739722Y-62834360D01*
X60120638Y-62577293D01*
X59450303Y-62576708D01*
X58830771Y-62832694D01*
X58356360Y-63306278D01*
X58099293Y-63925362D01*
X58098708Y-64595697D01*
X58354694Y-65215229D01*
X58387000Y-65247591D01*
X58387000Y-84310000D01*
X58493340Y-84844609D01*
X58796172Y-85297828D01*
X62370172Y-88871828D01*
X62489070Y-88951273D01*
X60480692Y-90959652D01*
X60177860Y-91412871D01*
X60071520Y-91947480D01*
X60071520Y-92296137D01*
X60022459Y-92367940D01*
X59971450Y-92619830D01*
X59971450Y-94319090D01*
X60015728Y-94554407D01*
X60154800Y-94770531D01*
X60367000Y-94915521D01*
X60618890Y-94966530D01*
X62318150Y-94966530D01*
X62553467Y-94922252D01*
X62769591Y-94783180D01*
X62914581Y-94570980D01*
X62965590Y-94319090D01*
X62965590Y-92619830D01*
X62934905Y-92456751D01*
X66216757Y-89174900D01*
X66381000Y-89143996D01*
X66381000Y-91586074D01*
X65380567Y-92586507D01*
X65022675Y-93122129D01*
X64907514Y-93701083D01*
X64897000Y-93753940D01*
X64897000Y-95456852D01*
X64458810Y-95215351D01*
X64364832Y-95194460D01*
X64135000Y-95315786D01*
X64135000Y-97409000D01*
X64155000Y-97409000D01*
X64155000Y-97663000D01*
X64135000Y-97663000D01*
X64135000Y-97683000D01*
X63881000Y-97683000D01*
X63881000Y-97663000D01*
X62523370Y-97663000D01*
X62523370Y-98563430D01*
X62684982Y-99121906D01*
X63048011Y-99576024D01*
X63142883Y-99628311D01*
X58338375Y-99628311D01*
X55662347Y-96952283D01*
X55394536Y-96773337D01*
X55332630Y-96761023D01*
X55332630Y-96588844D01*
X55316663Y-96508570D01*
X62523370Y-96508570D01*
X62523370Y-97409000D01*
X63881000Y-97409000D01*
X63881000Y-95315786D01*
X63651168Y-95194460D01*
X63557190Y-95215351D01*
X63048011Y-95495976D01*
X62684982Y-95950094D01*
X62523370Y-96508570D01*
X55316663Y-96508570D01*
X55219619Y-96020701D01*
X54897792Y-95539052D01*
X54697079Y-95404940D01*
X54904502Y-95404940D01*
X55536313Y-95279265D01*
X55770180Y-95123000D01*
X56388000Y-95123000D01*
X57019810Y-94997325D01*
X57555433Y-94639433D01*
X57913325Y-94103810D01*
X58039000Y-93472000D01*
X57913325Y-92840190D01*
X57555433Y-92304567D01*
X57019810Y-91946675D01*
X56388000Y-91821000D01*
X55186442Y-91821000D01*
X54659455Y-91925824D01*
X54554631Y-91946675D01*
X54483000Y-91994537D01*
X54483000Y-88927076D01*
X56131039Y-87279038D01*
X56543991Y-86661012D01*
X56556186Y-86599705D01*
X56689000Y-85932000D01*
X56689000Y-64262000D01*
X56543991Y-63532988D01*
X56131038Y-62914962D01*
X55513012Y-62502009D01*
X54784000Y-62357000D01*
X54054988Y-62502009D01*
X53436962Y-62914962D01*
X53024009Y-63532988D01*
X52879000Y-64262000D01*
X52879000Y-85142923D01*
X51484962Y-86536962D01*
X51360112Y-86723813D01*
X51233890Y-86637569D01*
X51181000Y-86626859D01*
X51181000Y-65248309D01*
X51211640Y-65217722D01*
X51468707Y-64598638D01*
X51469292Y-63928303D01*
X51213306Y-63308771D01*
X50739722Y-62834360D01*
X50120638Y-62577293D01*
X49450303Y-62576708D01*
X48830771Y-62832694D01*
X48356360Y-63306278D01*
X48099293Y-63925362D01*
X48098708Y-64595697D01*
X48354694Y-65215229D01*
X48387000Y-65247591D01*
X48387000Y-87336000D01*
X48472833Y-87767511D01*
X45240172Y-91000172D01*
X44937340Y-91453391D01*
X44831000Y-91988000D01*
X44831000Y-92298677D01*
X44781939Y-92370480D01*
X44730930Y-92622370D01*
X44730930Y-94321630D01*
X44775208Y-94556947D01*
X44914280Y-94773071D01*
X45126480Y-94918061D01*
X45378370Y-94969070D01*
X47077630Y-94969070D01*
X47312947Y-94924792D01*
X47529071Y-94785720D01*
X47674061Y-94573520D01*
X47725070Y-94321630D01*
X47725070Y-92622370D01*
X47700399Y-92491257D01*
X51016756Y-89174900D01*
X51181000Y-89143996D01*
X51181000Y-91546073D01*
X50140567Y-92586507D01*
X49782675Y-93122129D01*
X49667514Y-93701083D01*
X49657000Y-93753940D01*
X49657000Y-95456852D01*
X49218810Y-95215351D01*
X49124832Y-95194460D01*
X48895000Y-95315786D01*
X48895000Y-97409000D01*
X48915000Y-97409000D01*
X48915000Y-97663000D01*
X48895000Y-97663000D01*
X48895000Y-99756214D01*
X49124832Y-99877540D01*
X49218810Y-99856649D01*
X49727989Y-99576024D01*
X50032484Y-99195127D01*
X50258208Y-99532948D01*
X50739857Y-99854775D01*
X51308000Y-99967786D01*
X51876143Y-99854775D01*
X52357792Y-99532948D01*
X52578000Y-99203383D01*
X52798208Y-99532948D01*
X53279857Y-99854775D01*
X53848000Y-99967786D01*
X54416143Y-99854775D01*
X54897792Y-99532948D01*
X55219619Y-99051299D01*
X55253942Y-98878746D01*
X56584518Y-100209322D01*
X43679385Y-100209322D01*
X41133064Y-97663000D01*
X47283370Y-97663000D01*
X47283370Y-98563430D01*
X47444982Y-99121906D01*
X47808011Y-99576024D01*
X48317190Y-99856649D01*
X48411168Y-99877540D01*
X48641000Y-99756214D01*
X48641000Y-97663000D01*
X47283370Y-97663000D01*
X41133064Y-97663000D01*
X40422347Y-96952283D01*
X40154536Y-96773337D01*
X40092630Y-96761023D01*
X40092630Y-96588844D01*
X40076663Y-96508570D01*
X47283370Y-96508570D01*
X47283370Y-97409000D01*
X48641000Y-97409000D01*
X48641000Y-95315786D01*
X48411168Y-95194460D01*
X48317190Y-95215351D01*
X47808011Y-95495976D01*
X47444982Y-95950094D01*
X47283370Y-96508570D01*
X40076663Y-96508570D01*
X39979619Y-96020701D01*
X39657792Y-95539052D01*
X39457079Y-95404940D01*
X39664502Y-95404940D01*
X40296313Y-95279265D01*
X40530180Y-95123000D01*
X41148000Y-95123000D01*
X41779810Y-94997325D01*
X42315433Y-94639433D01*
X42673325Y-94103810D01*
X42799000Y-93472000D01*
X42673325Y-92840190D01*
X42315433Y-92304567D01*
X41779810Y-91946675D01*
X41148000Y-91821000D01*
X39946442Y-91821000D01*
X39419455Y-91925824D01*
X39314631Y-91946675D01*
X39080764Y-92102940D01*
X38735000Y-92102940D01*
X38735000Y-88927076D01*
X46131038Y-81531039D01*
X46543991Y-80913013D01*
X46593889Y-80662155D01*
X46689000Y-80184000D01*
X46689000Y-64262000D01*
X46543991Y-63532988D01*
X46131038Y-62914962D01*
X45513012Y-62502009D01*
X44784000Y-62357000D01*
X44054988Y-62502009D01*
X43436962Y-62914962D01*
X43024009Y-63532988D01*
X42879000Y-64262000D01*
X42879000Y-79394923D01*
X37639730Y-84634193D01*
X37677738Y-84443116D01*
X37677738Y-71485500D01*
X38072060Y-71485500D01*
X38307377Y-71441222D01*
X38523501Y-71302150D01*
X38668491Y-71089950D01*
X38719500Y-70838060D01*
X38719500Y-67337940D01*
X38675222Y-67102623D01*
X38536150Y-66886499D01*
X38323950Y-66741509D01*
X38072060Y-66690500D01*
X34571940Y-66690500D01*
X34336623Y-66734778D01*
X34120499Y-66873850D01*
X34008060Y-67038410D01*
X34008060Y-66374010D01*
X33849310Y-66215260D01*
X31750000Y-66215260D01*
X31750000Y-68314570D01*
X31908750Y-68473320D01*
X33499370Y-68473320D01*
X33732759Y-68376647D01*
X33911387Y-68198018D01*
X33924500Y-68166360D01*
X33924500Y-70838060D01*
X33968778Y-71073377D01*
X34107850Y-71289501D01*
X34320050Y-71434491D01*
X34571940Y-71485500D01*
X34883738Y-71485500D01*
X34883738Y-83864460D01*
X33596172Y-85152026D01*
X33293340Y-85605245D01*
X33187000Y-86139854D01*
X33187000Y-87305344D01*
X30174000Y-90318344D01*
X30174000Y-68473320D01*
X31337250Y-68473320D01*
X31496000Y-68314570D01*
X31496000Y-66215260D01*
X31476000Y-66215260D01*
X31476000Y-65961260D01*
X31496000Y-65961260D01*
X31496000Y-63861950D01*
X31750000Y-63861950D01*
X31750000Y-65961260D01*
X33849310Y-65961260D01*
X34008060Y-65802510D01*
X34008060Y-65136588D01*
X34033613Y-65198278D01*
X34212241Y-65376907D01*
X34445630Y-65473580D01*
X36036250Y-65473580D01*
X36195000Y-65314830D01*
X36195000Y-63215520D01*
X36449000Y-63215520D01*
X36449000Y-65314830D01*
X36607750Y-65473580D01*
X38198370Y-65473580D01*
X38431759Y-65376907D01*
X38610387Y-65198278D01*
X38707060Y-64964889D01*
X38707060Y-63374270D01*
X38548310Y-63215520D01*
X36449000Y-63215520D01*
X36195000Y-63215520D01*
X34095690Y-63215520D01*
X33936940Y-63374270D01*
X33936940Y-64040192D01*
X33911387Y-63978502D01*
X33732759Y-63799873D01*
X33499370Y-63703200D01*
X31908750Y-63703200D01*
X31750000Y-63861950D01*
X31496000Y-63861950D01*
X31337250Y-63703200D01*
X30174000Y-63703200D01*
X30174000Y-61212151D01*
X33936940Y-61212151D01*
X33936940Y-62802770D01*
X34095690Y-62961520D01*
X36195000Y-62961520D01*
X36195000Y-60862210D01*
X36449000Y-60862210D01*
X36449000Y-62961520D01*
X38548310Y-62961520D01*
X38707060Y-62802770D01*
X38707060Y-61212151D01*
X38610387Y-60978762D01*
X38431759Y-60800133D01*
X38198370Y-60703460D01*
X36607750Y-60703460D01*
X36449000Y-60862210D01*
X36195000Y-60862210D01*
X36036250Y-60703460D01*
X34445630Y-60703460D01*
X34212241Y-60800133D01*
X34033613Y-60978762D01*
X33936940Y-61212151D01*
X30174000Y-61212151D01*
X30174000Y-60146000D01*
X43924117Y-60146000D01*
X43779991Y-60289875D01*
G36*
X85753172Y-76463149D02*
X86206391Y-76765981D01*
X86637588Y-76851751D01*
X86036306Y-76851226D01*
X85435345Y-77099538D01*
X84975154Y-77558927D01*
X84725794Y-78159453D01*
X84725226Y-78809694D01*
X84973538Y-79410655D01*
X85432927Y-79870846D01*
X86033453Y-80120206D01*
X86683694Y-80120774D01*
X86785341Y-80078775D01*
X87155622Y-80449056D01*
X87155622Y-87197934D01*
X86624418Y-87000599D01*
X85974623Y-87024659D01*
X85486042Y-87227035D01*
X85387443Y-87493837D01*
X86360000Y-88466395D01*
X86374142Y-88452252D01*
X86553748Y-88631858D01*
X86539605Y-88646000D01*
X86553748Y-88660142D01*
X86374142Y-88839748D01*
X86360000Y-88825605D01*
X85387443Y-89798163D01*
X85486042Y-90064965D01*
X86095582Y-90291401D01*
X86745377Y-90267341D01*
X87155622Y-90097413D01*
X87155622Y-95632594D01*
X86077716Y-96710500D01*
X85812630Y-96710500D01*
X85812630Y-96588844D01*
X85699619Y-96020701D01*
X85377792Y-95539052D01*
X84896143Y-95217225D01*
X84328000Y-95104214D01*
X83759857Y-95217225D01*
X83632003Y-95302654D01*
X83693000Y-94996000D01*
X83693000Y-88381582D01*
X84714599Y-88381582D01*
X84738659Y-89031377D01*
X84941035Y-89519958D01*
X85207837Y-89618557D01*
X86180395Y-88646000D01*
X85207837Y-87673443D01*
X84941035Y-87772042D01*
X84714599Y-88381582D01*
X83693000Y-88381582D01*
X83693000Y-79907303D01*
X83547991Y-79178291D01*
X83488351Y-79089034D01*
X83135039Y-78560265D01*
X81393981Y-76819208D01*
X81661000Y-76872321D01*
X82195609Y-76765981D01*
X82648828Y-76463149D01*
X82931000Y-76040850D01*
X83213172Y-76463149D01*
X83666391Y-76765981D01*
X84201000Y-76872321D01*
X84735609Y-76765981D01*
X85188828Y-76463149D01*
X85471000Y-76040850D01*
X85753172Y-76463149D01*
X85753172Y-76463149D01*
G37*
X85753172Y-76463149D02*
X86206391Y-76765981D01*
X86637588Y-76851751D01*
X86036306Y-76851226D01*
X85435345Y-77099538D01*
X84975154Y-77558927D01*
X84725794Y-78159453D01*
X84725226Y-78809694D01*
X84973538Y-79410655D01*
X85432927Y-79870846D01*
X86033453Y-80120206D01*
X86683694Y-80120774D01*
X86785341Y-80078775D01*
X87155622Y-80449056D01*
X87155622Y-87197934D01*
X86624418Y-87000599D01*
X85974623Y-87024659D01*
X85486042Y-87227035D01*
X85387443Y-87493837D01*
X86360000Y-88466395D01*
X86374142Y-88452252D01*
X86553748Y-88631858D01*
X86539605Y-88646000D01*
X86553748Y-88660142D01*
X86374142Y-88839748D01*
X86360000Y-88825605D01*
X85387443Y-89798163D01*
X85486042Y-90064965D01*
X86095582Y-90291401D01*
X86745377Y-90267341D01*
X87155622Y-90097413D01*
X87155622Y-95632594D01*
X86077716Y-96710500D01*
X85812630Y-96710500D01*
X85812630Y-96588844D01*
X85699619Y-96020701D01*
X85377792Y-95539052D01*
X84896143Y-95217225D01*
X84328000Y-95104214D01*
X83759857Y-95217225D01*
X83632003Y-95302654D01*
X83693000Y-94996000D01*
X83693000Y-88381582D01*
X84714599Y-88381582D01*
X84738659Y-89031377D01*
X84941035Y-89519958D01*
X85207837Y-89618557D01*
X86180395Y-88646000D01*
X85207837Y-87673443D01*
X84941035Y-87772042D01*
X84714599Y-88381582D01*
X83693000Y-88381582D01*
X83693000Y-79907303D01*
X83547991Y-79178291D01*
X83488351Y-79089034D01*
X83135039Y-78560265D01*
X81393981Y-76819208D01*
X81661000Y-76872321D01*
X82195609Y-76765981D01*
X82648828Y-76463149D01*
X82931000Y-76040850D01*
X83213172Y-76463149D01*
X83666391Y-76765981D01*
X84201000Y-76872321D01*
X84735609Y-76765981D01*
X85188828Y-76463149D01*
X85471000Y-76040850D01*
X85753172Y-76463149D01*
G36*
X125221337Y-74741672D02*
X125196190Y-74868094D01*
X125158500Y-75057578D01*
X125158500Y-77058568D01*
X125059345Y-77099538D01*
X124599154Y-77558927D01*
X124349794Y-78159453D01*
X124349226Y-78809694D01*
X124597538Y-79410655D01*
X125056927Y-79870846D01*
X125657453Y-80120206D01*
X126307694Y-80120774D01*
X126908655Y-79872462D01*
X126941726Y-79839449D01*
X127063575Y-80021809D01*
X136553955Y-89512189D01*
X136667612Y-89787259D01*
X136931751Y-90051859D01*
X137075292Y-90111462D01*
X135955354Y-91231400D01*
X135784965Y-90820042D01*
X135518163Y-90721443D01*
X134545605Y-91694000D01*
X134559748Y-91708142D01*
X134380142Y-91887748D01*
X134366000Y-91873605D01*
X133393443Y-92846163D01*
X133492042Y-93112965D01*
X134101582Y-93339401D01*
X134243086Y-93334162D01*
X134237669Y-93361397D01*
X134042306Y-93361226D01*
X133441345Y-93609538D01*
X132981154Y-94068927D01*
X132938977Y-94170500D01*
X130563219Y-94170500D01*
X130723629Y-94010370D01*
X130936757Y-93497100D01*
X130937242Y-92941339D01*
X130725010Y-92427697D01*
X130365500Y-92067559D01*
X130365500Y-91429582D01*
X132720599Y-91429582D01*
X132744659Y-92079377D01*
X132947035Y-92567958D01*
X133213837Y-92666557D01*
X134186395Y-91694000D01*
X133213837Y-90721443D01*
X132947035Y-90820042D01*
X132720599Y-91429582D01*
X130365500Y-91429582D01*
X130365500Y-90541837D01*
X133393443Y-90541837D01*
X134366000Y-91514395D01*
X135338557Y-90541837D01*
X135239958Y-90275035D01*
X134630418Y-90048599D01*
X133980623Y-90072659D01*
X133492042Y-90275035D01*
X133393443Y-90541837D01*
X130365500Y-90541837D01*
X130365500Y-89041039D01*
X130365501Y-89041034D01*
X130302663Y-88725128D01*
X130123717Y-88457317D01*
X127563726Y-85897326D01*
X127295915Y-85718380D01*
X126980009Y-85655543D01*
X123760737Y-85655543D01*
X122110500Y-84005305D01*
X122110500Y-80018493D01*
X122355453Y-80120206D01*
X123005694Y-80120774D01*
X123606655Y-79872462D01*
X124066846Y-79413073D01*
X124316206Y-78812547D01*
X124316774Y-78162306D01*
X124068462Y-77561345D01*
X123609073Y-77101154D01*
X123507500Y-77058977D01*
X123507500Y-74728711D01*
X123663737Y-74572473D01*
X125334392Y-74572473D01*
X125221337Y-74741672D01*
X125221337Y-74741672D01*
G37*
X125221337Y-74741672D02*
X125196190Y-74868094D01*
X125158500Y-75057578D01*
X125158500Y-77058568D01*
X125059345Y-77099538D01*
X124599154Y-77558927D01*
X124349794Y-78159453D01*
X124349226Y-78809694D01*
X124597538Y-79410655D01*
X125056927Y-79870846D01*
X125657453Y-80120206D01*
X126307694Y-80120774D01*
X126908655Y-79872462D01*
X126941726Y-79839449D01*
X127063575Y-80021809D01*
X136553955Y-89512189D01*
X136667612Y-89787259D01*
X136931751Y-90051859D01*
X137075292Y-90111462D01*
X135955354Y-91231400D01*
X135784965Y-90820042D01*
X135518163Y-90721443D01*
X134545605Y-91694000D01*
X134559748Y-91708142D01*
X134380142Y-91887748D01*
X134366000Y-91873605D01*
X133393443Y-92846163D01*
X133492042Y-93112965D01*
X134101582Y-93339401D01*
X134243086Y-93334162D01*
X134237669Y-93361397D01*
X134042306Y-93361226D01*
X133441345Y-93609538D01*
X132981154Y-94068927D01*
X132938977Y-94170500D01*
X130563219Y-94170500D01*
X130723629Y-94010370D01*
X130936757Y-93497100D01*
X130937242Y-92941339D01*
X130725010Y-92427697D01*
X130365500Y-92067559D01*
X130365500Y-91429582D01*
X132720599Y-91429582D01*
X132744659Y-92079377D01*
X132947035Y-92567958D01*
X133213837Y-92666557D01*
X134186395Y-91694000D01*
X133213837Y-90721443D01*
X132947035Y-90820042D01*
X132720599Y-91429582D01*
X130365500Y-91429582D01*
X130365500Y-90541837D01*
X133393443Y-90541837D01*
X134366000Y-91514395D01*
X135338557Y-90541837D01*
X135239958Y-90275035D01*
X134630418Y-90048599D01*
X133980623Y-90072659D01*
X133492042Y-90275035D01*
X133393443Y-90541837D01*
X130365500Y-90541837D01*
X130365500Y-89041039D01*
X130365501Y-89041034D01*
X130302663Y-88725128D01*
X130123717Y-88457317D01*
X127563726Y-85897326D01*
X127295915Y-85718380D01*
X126980009Y-85655543D01*
X123760737Y-85655543D01*
X122110500Y-84005305D01*
X122110500Y-80018493D01*
X122355453Y-80120206D01*
X123005694Y-80120774D01*
X123606655Y-79872462D01*
X124066846Y-79413073D01*
X124316206Y-78812547D01*
X124316774Y-78162306D01*
X124068462Y-77561345D01*
X123609073Y-77101154D01*
X123507500Y-77058977D01*
X123507500Y-74728711D01*
X123663737Y-74572473D01*
X125334392Y-74572473D01*
X125221337Y-74741672D01*
G36*
X116779748Y-93229258D02*
X116765605Y-93243400D01*
X116779748Y-93257543D01*
X116600143Y-93437148D01*
X116586000Y-93423005D01*
X116571858Y-93437148D01*
X116392253Y-93257543D01*
X116406395Y-93243400D01*
X116392253Y-93229258D01*
X116571858Y-93049653D01*
X116586000Y-93063795D01*
X116600143Y-93049653D01*
X116779748Y-93229258D01*
X116779748Y-93229258D01*
G37*
X116779748Y-93229258D02*
X116765605Y-93243400D01*
X116779748Y-93257543D01*
X116600143Y-93437148D01*
X116586000Y-93423005D01*
X116571858Y-93437148D01*
X116392253Y-93257543D01*
X116406395Y-93243400D01*
X116392253Y-93229258D01*
X116571858Y-93049653D01*
X116586000Y-93063795D01*
X116600143Y-93049653D01*
X116779748Y-93229258D01*
G36*
X108905748Y-93229258D02*
X108891605Y-93243400D01*
X108905748Y-93257543D01*
X108726143Y-93437148D01*
X108712000Y-93423005D01*
X108697858Y-93437148D01*
X108518253Y-93257543D01*
X108532395Y-93243400D01*
X108518253Y-93229258D01*
X108697858Y-93049653D01*
X108712000Y-93063795D01*
X108726143Y-93049653D01*
X108905748Y-93229258D01*
X108905748Y-93229258D01*
G37*
X108905748Y-93229258D02*
X108891605Y-93243400D01*
X108905748Y-93257543D01*
X108726143Y-93437148D01*
X108712000Y-93423005D01*
X108697858Y-93437148D01*
X108518253Y-93257543D01*
X108532395Y-93243400D01*
X108518253Y-93229258D01*
X108697858Y-93049653D01*
X108712000Y-93063795D01*
X108726143Y-93049653D01*
X108905748Y-93229258D01*
G36*
X104537794Y-78159453D02*
X104537226Y-78809694D01*
X104785538Y-79410655D01*
X105244927Y-79870846D01*
X105346500Y-79913023D01*
X105346500Y-85414760D01*
X105409337Y-85730666D01*
X105588283Y-85998477D01*
X106681420Y-87091614D01*
X106436418Y-87000599D01*
X105786623Y-87024659D01*
X105298042Y-87227035D01*
X105199443Y-87493837D01*
X106172000Y-88466395D01*
X106186142Y-88452252D01*
X106365748Y-88631858D01*
X106351605Y-88646000D01*
X107324163Y-89618557D01*
X107590965Y-89519958D01*
X107817401Y-88910418D01*
X107793341Y-88260623D01*
X107652766Y-87921243D01*
X107902697Y-87970957D01*
X107981141Y-87970957D01*
X107828599Y-88381582D01*
X107852659Y-89031377D01*
X108055035Y-89519958D01*
X108321837Y-89618557D01*
X109294395Y-88646000D01*
X109280252Y-88631858D01*
X109459858Y-88452252D01*
X109474000Y-88466395D01*
X109488142Y-88452252D01*
X109667748Y-88631858D01*
X109653605Y-88646000D01*
X109667748Y-88660142D01*
X109488142Y-88839748D01*
X109474000Y-88825605D01*
X108501443Y-89798163D01*
X108600042Y-90064965D01*
X109209582Y-90291401D01*
X109675621Y-90274145D01*
X109373276Y-90576490D01*
X105194015Y-90576490D01*
X105194010Y-90576489D01*
X104878104Y-90639327D01*
X104610293Y-90818273D01*
X103607366Y-91821200D01*
X103101339Y-91820758D01*
X102587697Y-92032990D01*
X102194371Y-92425630D01*
X102114605Y-92617727D01*
X102060397Y-92486857D01*
X101818213Y-92417392D01*
X101017605Y-93218000D01*
X101031748Y-93232143D01*
X100852143Y-93411748D01*
X100838000Y-93397605D01*
X100823858Y-93411748D01*
X100644253Y-93232143D01*
X100658395Y-93218000D01*
X99857787Y-92417392D01*
X99615603Y-92486857D01*
X99530798Y-92724564D01*
X99529900Y-92723666D01*
X99529900Y-92237787D01*
X100037392Y-92237787D01*
X100838000Y-93038395D01*
X101638608Y-92237787D01*
X101569143Y-91995603D01*
X101045698Y-91808856D01*
X100490632Y-91836638D01*
X100106857Y-91995603D01*
X100037392Y-92237787D01*
X99529900Y-92237787D01*
X99529900Y-91265026D01*
X100151717Y-90643209D01*
X100330663Y-90375397D01*
X100390480Y-90074680D01*
X100492655Y-90032462D01*
X100727363Y-89798163D01*
X101897443Y-89798163D01*
X101996042Y-90064965D01*
X102605582Y-90291401D01*
X103255377Y-90267341D01*
X103743958Y-90064965D01*
X103842557Y-89798163D01*
X105199443Y-89798163D01*
X105298042Y-90064965D01*
X105907582Y-90291401D01*
X106557377Y-90267341D01*
X107045958Y-90064965D01*
X107144557Y-89798163D01*
X106172000Y-88825605D01*
X105199443Y-89798163D01*
X103842557Y-89798163D01*
X102870000Y-88825605D01*
X101897443Y-89798163D01*
X100727363Y-89798163D01*
X100952846Y-89573073D01*
X101202206Y-88972547D01*
X101202722Y-88381582D01*
X101224599Y-88381582D01*
X101248659Y-89031377D01*
X101451035Y-89519958D01*
X101717837Y-89618557D01*
X102690395Y-88646000D01*
X103049605Y-88646000D01*
X104022163Y-89618557D01*
X104288965Y-89519958D01*
X104515401Y-88910418D01*
X104495820Y-88381582D01*
X104526599Y-88381582D01*
X104550659Y-89031377D01*
X104753035Y-89519958D01*
X105019837Y-89618557D01*
X105992395Y-88646000D01*
X105019837Y-87673443D01*
X104753035Y-87772042D01*
X104526599Y-88381582D01*
X104495820Y-88381582D01*
X104491341Y-88260623D01*
X104288965Y-87772042D01*
X104022163Y-87673443D01*
X103049605Y-88646000D01*
X102690395Y-88646000D01*
X101717837Y-87673443D01*
X101451035Y-87772042D01*
X101224599Y-88381582D01*
X101202722Y-88381582D01*
X101202774Y-88322306D01*
X100954462Y-87721345D01*
X100727351Y-87493837D01*
X101897443Y-87493837D01*
X102870000Y-88466395D01*
X103842557Y-87493837D01*
X103743958Y-87227035D01*
X103134418Y-87000599D01*
X102484623Y-87024659D01*
X101996042Y-87227035D01*
X101897443Y-87493837D01*
X100727351Y-87493837D01*
X100495073Y-87261154D01*
X99894547Y-87011794D01*
X99244306Y-87011226D01*
X98763642Y-87209832D01*
X98763642Y-83759792D01*
X102444370Y-80079063D01*
X102543453Y-80120206D01*
X103193694Y-80120774D01*
X103794655Y-79872462D01*
X104254846Y-79413073D01*
X104504206Y-78812547D01*
X104504774Y-78162306D01*
X104462775Y-78060659D01*
X104661217Y-77862217D01*
X104537794Y-78159453D01*
X104537794Y-78159453D01*
G37*
X104537794Y-78159453D02*
X104537226Y-78809694D01*
X104785538Y-79410655D01*
X105244927Y-79870846D01*
X105346500Y-79913023D01*
X105346500Y-85414760D01*
X105409337Y-85730666D01*
X105588283Y-85998477D01*
X106681420Y-87091614D01*
X106436418Y-87000599D01*
X105786623Y-87024659D01*
X105298042Y-87227035D01*
X105199443Y-87493837D01*
X106172000Y-88466395D01*
X106186142Y-88452252D01*
X106365748Y-88631858D01*
X106351605Y-88646000D01*
X107324163Y-89618557D01*
X107590965Y-89519958D01*
X107817401Y-88910418D01*
X107793341Y-88260623D01*
X107652766Y-87921243D01*
X107902697Y-87970957D01*
X107981141Y-87970957D01*
X107828599Y-88381582D01*
X107852659Y-89031377D01*
X108055035Y-89519958D01*
X108321837Y-89618557D01*
X109294395Y-88646000D01*
X109280252Y-88631858D01*
X109459858Y-88452252D01*
X109474000Y-88466395D01*
X109488142Y-88452252D01*
X109667748Y-88631858D01*
X109653605Y-88646000D01*
X109667748Y-88660142D01*
X109488142Y-88839748D01*
X109474000Y-88825605D01*
X108501443Y-89798163D01*
X108600042Y-90064965D01*
X109209582Y-90291401D01*
X109675621Y-90274145D01*
X109373276Y-90576490D01*
X105194015Y-90576490D01*
X105194010Y-90576489D01*
X104878104Y-90639327D01*
X104610293Y-90818273D01*
X103607366Y-91821200D01*
X103101339Y-91820758D01*
X102587697Y-92032990D01*
X102194371Y-92425630D01*
X102114605Y-92617727D01*
X102060397Y-92486857D01*
X101818213Y-92417392D01*
X101017605Y-93218000D01*
X101031748Y-93232143D01*
X100852143Y-93411748D01*
X100838000Y-93397605D01*
X100823858Y-93411748D01*
X100644253Y-93232143D01*
X100658395Y-93218000D01*
X99857787Y-92417392D01*
X99615603Y-92486857D01*
X99530798Y-92724564D01*
X99529900Y-92723666D01*
X99529900Y-92237787D01*
X100037392Y-92237787D01*
X100838000Y-93038395D01*
X101638608Y-92237787D01*
X101569143Y-91995603D01*
X101045698Y-91808856D01*
X100490632Y-91836638D01*
X100106857Y-91995603D01*
X100037392Y-92237787D01*
X99529900Y-92237787D01*
X99529900Y-91265026D01*
X100151717Y-90643209D01*
X100330663Y-90375397D01*
X100390480Y-90074680D01*
X100492655Y-90032462D01*
X100727363Y-89798163D01*
X101897443Y-89798163D01*
X101996042Y-90064965D01*
X102605582Y-90291401D01*
X103255377Y-90267341D01*
X103743958Y-90064965D01*
X103842557Y-89798163D01*
X105199443Y-89798163D01*
X105298042Y-90064965D01*
X105907582Y-90291401D01*
X106557377Y-90267341D01*
X107045958Y-90064965D01*
X107144557Y-89798163D01*
X106172000Y-88825605D01*
X105199443Y-89798163D01*
X103842557Y-89798163D01*
X102870000Y-88825605D01*
X101897443Y-89798163D01*
X100727363Y-89798163D01*
X100952846Y-89573073D01*
X101202206Y-88972547D01*
X101202722Y-88381582D01*
X101224599Y-88381582D01*
X101248659Y-89031377D01*
X101451035Y-89519958D01*
X101717837Y-89618557D01*
X102690395Y-88646000D01*
X103049605Y-88646000D01*
X104022163Y-89618557D01*
X104288965Y-89519958D01*
X104515401Y-88910418D01*
X104495820Y-88381582D01*
X104526599Y-88381582D01*
X104550659Y-89031377D01*
X104753035Y-89519958D01*
X105019837Y-89618557D01*
X105992395Y-88646000D01*
X105019837Y-87673443D01*
X104753035Y-87772042D01*
X104526599Y-88381582D01*
X104495820Y-88381582D01*
X104491341Y-88260623D01*
X104288965Y-87772042D01*
X104022163Y-87673443D01*
X103049605Y-88646000D01*
X102690395Y-88646000D01*
X101717837Y-87673443D01*
X101451035Y-87772042D01*
X101224599Y-88381582D01*
X101202722Y-88381582D01*
X101202774Y-88322306D01*
X100954462Y-87721345D01*
X100727351Y-87493837D01*
X101897443Y-87493837D01*
X102870000Y-88466395D01*
X103842557Y-87493837D01*
X103743958Y-87227035D01*
X103134418Y-87000599D01*
X102484623Y-87024659D01*
X101996042Y-87227035D01*
X101897443Y-87493837D01*
X100727351Y-87493837D01*
X100495073Y-87261154D01*
X99894547Y-87011794D01*
X99244306Y-87011226D01*
X98763642Y-87209832D01*
X98763642Y-83759792D01*
X102444370Y-80079063D01*
X102543453Y-80120206D01*
X103193694Y-80120774D01*
X103794655Y-79872462D01*
X104254846Y-79413073D01*
X104504206Y-78812547D01*
X104504774Y-78162306D01*
X104462775Y-78060659D01*
X104661217Y-77862217D01*
X104537794Y-78159453D01*
G36*
X115217172Y-76463149D02*
X115252500Y-76486754D01*
X115252500Y-77058568D01*
X115153345Y-77099538D01*
X114693154Y-77558927D01*
X114443794Y-78159453D01*
X114443226Y-78809694D01*
X114691538Y-79410655D01*
X115150927Y-79870846D01*
X115751453Y-80120206D01*
X116401694Y-80120774D01*
X117002655Y-79872462D01*
X117208821Y-79666655D01*
X119749622Y-82207455D01*
X119749622Y-84557922D01*
X119812459Y-84873828D01*
X119991405Y-85141639D01*
X122006398Y-87156632D01*
X121757345Y-87259538D01*
X121297154Y-87718927D01*
X121047794Y-88319453D01*
X121047226Y-88969694D01*
X121089225Y-89071341D01*
X120890783Y-89269783D01*
X121014206Y-88972547D01*
X121014774Y-88322306D01*
X120766462Y-87721345D01*
X120307073Y-87261154D01*
X119706547Y-87011794D01*
X119056306Y-87011226D01*
X118455345Y-87259538D01*
X117995154Y-87718927D01*
X117745794Y-88319453D01*
X117745226Y-88969694D01*
X117787226Y-89071341D01*
X117588782Y-89269785D01*
X117712206Y-88972547D01*
X117712774Y-88322306D01*
X117464462Y-87721345D01*
X117005073Y-87261154D01*
X116404547Y-87011794D01*
X115754306Y-87011226D01*
X115153345Y-87259538D01*
X114693154Y-87718927D01*
X114443794Y-88319453D01*
X114443226Y-88969694D01*
X114691538Y-89570655D01*
X115150927Y-90030846D01*
X115751453Y-90280206D01*
X116401694Y-90280774D01*
X116701789Y-90156777D01*
X116189692Y-90668874D01*
X111615759Y-90668874D01*
X111782600Y-90502033D01*
X111782603Y-90502031D01*
X111961549Y-90234219D01*
X111976249Y-90160317D01*
X111988805Y-90097196D01*
X112511582Y-90291401D01*
X113161377Y-90267341D01*
X113649958Y-90064965D01*
X113748557Y-89798163D01*
X112776000Y-88825605D01*
X112761858Y-88839748D01*
X112582252Y-88660142D01*
X112596395Y-88646000D01*
X112955605Y-88646000D01*
X113928163Y-89618557D01*
X114194965Y-89519958D01*
X114421401Y-88910418D01*
X114397341Y-88260623D01*
X114194965Y-87772042D01*
X113928163Y-87673443D01*
X112955605Y-88646000D01*
X112596395Y-88646000D01*
X112582252Y-88631858D01*
X112761858Y-88452252D01*
X112776000Y-88466395D01*
X113748557Y-87493837D01*
X113649958Y-87227035D01*
X113416443Y-87140287D01*
X113538663Y-86957372D01*
X113601500Y-86641466D01*
X113601500Y-79913432D01*
X113700655Y-79872462D01*
X114160846Y-79413073D01*
X114410206Y-78812547D01*
X114410774Y-78162306D01*
X114340583Y-77992430D01*
X114427663Y-77862106D01*
X114490501Y-77546200D01*
X114490500Y-77546195D01*
X114490500Y-76571613D01*
X114652828Y-76463149D01*
X114935000Y-76040850D01*
X115217172Y-76463149D01*
X115217172Y-76463149D01*
G37*
X115217172Y-76463149D02*
X115252500Y-76486754D01*
X115252500Y-77058568D01*
X115153345Y-77099538D01*
X114693154Y-77558927D01*
X114443794Y-78159453D01*
X114443226Y-78809694D01*
X114691538Y-79410655D01*
X115150927Y-79870846D01*
X115751453Y-80120206D01*
X116401694Y-80120774D01*
X117002655Y-79872462D01*
X117208821Y-79666655D01*
X119749622Y-82207455D01*
X119749622Y-84557922D01*
X119812459Y-84873828D01*
X119991405Y-85141639D01*
X122006398Y-87156632D01*
X121757345Y-87259538D01*
X121297154Y-87718927D01*
X121047794Y-88319453D01*
X121047226Y-88969694D01*
X121089225Y-89071341D01*
X120890783Y-89269783D01*
X121014206Y-88972547D01*
X121014774Y-88322306D01*
X120766462Y-87721345D01*
X120307073Y-87261154D01*
X119706547Y-87011794D01*
X119056306Y-87011226D01*
X118455345Y-87259538D01*
X117995154Y-87718927D01*
X117745794Y-88319453D01*
X117745226Y-88969694D01*
X117787226Y-89071341D01*
X117588782Y-89269785D01*
X117712206Y-88972547D01*
X117712774Y-88322306D01*
X117464462Y-87721345D01*
X117005073Y-87261154D01*
X116404547Y-87011794D01*
X115754306Y-87011226D01*
X115153345Y-87259538D01*
X114693154Y-87718927D01*
X114443794Y-88319453D01*
X114443226Y-88969694D01*
X114691538Y-89570655D01*
X115150927Y-90030846D01*
X115751453Y-90280206D01*
X116401694Y-90280774D01*
X116701789Y-90156777D01*
X116189692Y-90668874D01*
X111615759Y-90668874D01*
X111782600Y-90502033D01*
X111782603Y-90502031D01*
X111961549Y-90234219D01*
X111976249Y-90160317D01*
X111988805Y-90097196D01*
X112511582Y-90291401D01*
X113161377Y-90267341D01*
X113649958Y-90064965D01*
X113748557Y-89798163D01*
X112776000Y-88825605D01*
X112761858Y-88839748D01*
X112582252Y-88660142D01*
X112596395Y-88646000D01*
X112955605Y-88646000D01*
X113928163Y-89618557D01*
X114194965Y-89519958D01*
X114421401Y-88910418D01*
X114397341Y-88260623D01*
X114194965Y-87772042D01*
X113928163Y-87673443D01*
X112955605Y-88646000D01*
X112596395Y-88646000D01*
X112582252Y-88631858D01*
X112761858Y-88452252D01*
X112776000Y-88466395D01*
X113748557Y-87493837D01*
X113649958Y-87227035D01*
X113416443Y-87140287D01*
X113538663Y-86957372D01*
X113601500Y-86641466D01*
X113601500Y-79913432D01*
X113700655Y-79872462D01*
X114160846Y-79413073D01*
X114410206Y-78812547D01*
X114410774Y-78162306D01*
X114340583Y-77992430D01*
X114427663Y-77862106D01*
X114490501Y-77546200D01*
X114490500Y-77546195D01*
X114490500Y-76571613D01*
X114652828Y-76463149D01*
X114935000Y-76040850D01*
X115217172Y-76463149D01*
G36*
X93157748Y-88631858D02*
X93143605Y-88646000D01*
X93157748Y-88660142D01*
X92978142Y-88839748D01*
X92964000Y-88825605D01*
X92949858Y-88839748D01*
X92770252Y-88660142D01*
X92784395Y-88646000D01*
X92770252Y-88631858D01*
X92949858Y-88452252D01*
X92964000Y-88466395D01*
X92978142Y-88452252D01*
X93157748Y-88631858D01*
X93157748Y-88631858D01*
G37*
X93157748Y-88631858D02*
X93143605Y-88646000D01*
X93157748Y-88660142D01*
X92978142Y-88839748D01*
X92964000Y-88825605D01*
X92949858Y-88839748D01*
X92770252Y-88660142D01*
X92784395Y-88646000D01*
X92770252Y-88631858D01*
X92949858Y-88452252D01*
X92964000Y-88466395D01*
X92978142Y-88452252D01*
X93157748Y-88631858D01*
G36*
X89855748Y-88631858D02*
X89841605Y-88646000D01*
X89855748Y-88660142D01*
X89676142Y-88839748D01*
X89662000Y-88825605D01*
X89647858Y-88839748D01*
X89468252Y-88660142D01*
X89482395Y-88646000D01*
X89468252Y-88631858D01*
X89647858Y-88452252D01*
X89662000Y-88466395D01*
X89676142Y-88452252D01*
X89855748Y-88631858D01*
X89855748Y-88631858D01*
G37*
X89855748Y-88631858D02*
X89841605Y-88646000D01*
X89855748Y-88660142D01*
X89676142Y-88839748D01*
X89662000Y-88825605D01*
X89647858Y-88839748D01*
X89468252Y-88660142D01*
X89482395Y-88646000D01*
X89468252Y-88631858D01*
X89647858Y-88452252D01*
X89662000Y-88466395D01*
X89676142Y-88452252D01*
X89855748Y-88631858D01*
G36*
X132731794Y-74857453D02*
X132731226Y-75507694D01*
X132979538Y-76108655D01*
X133438927Y-76568846D01*
X134039453Y-76818206D01*
X134689694Y-76818774D01*
X134791341Y-76776774D01*
X134988004Y-76973437D01*
X134630418Y-76840599D01*
X133980623Y-76864659D01*
X133492042Y-77067035D01*
X133393443Y-77333837D01*
X134366000Y-78306395D01*
X134380142Y-78292252D01*
X134559748Y-78471858D01*
X134545605Y-78486000D01*
X135518163Y-79458557D01*
X135784965Y-79359958D01*
X136011401Y-78750418D01*
X135987341Y-78100623D01*
X135896939Y-77882373D01*
X138474272Y-80459705D01*
X138474274Y-80459708D01*
X138616934Y-80555030D01*
X138742085Y-80638654D01*
X139057991Y-80701491D01*
X141423065Y-80701491D01*
X141422233Y-80702736D01*
X141351073Y-81060481D01*
X141004554Y-81407000D01*
X138837522Y-81407000D01*
X138832090Y-81398559D01*
X138619890Y-81253569D01*
X138368000Y-81202560D01*
X136968000Y-81202560D01*
X136732683Y-81246838D01*
X136516559Y-81385910D01*
X136371569Y-81598110D01*
X136320560Y-81850000D01*
X136320560Y-83250000D01*
X136364838Y-83485317D01*
X136503910Y-83701441D01*
X136525000Y-83715851D01*
X136525000Y-84963000D01*
X136612006Y-85400407D01*
X136859777Y-85771223D01*
X137323015Y-86234461D01*
X136974169Y-86378958D01*
X136912331Y-86614725D01*
X137668000Y-87370395D01*
X137682143Y-87356253D01*
X137861748Y-87535858D01*
X137847605Y-87550000D01*
X137861748Y-87564143D01*
X137682143Y-87743748D01*
X137668000Y-87729605D01*
X137653858Y-87743748D01*
X137474252Y-87564142D01*
X137488395Y-87550000D01*
X136732725Y-86794331D01*
X136496958Y-86856169D01*
X136428172Y-87051538D01*
X129014797Y-79638163D01*
X133393443Y-79638163D01*
X133492042Y-79904965D01*
X134101582Y-80131401D01*
X134751377Y-80107341D01*
X135239958Y-79904965D01*
X135338557Y-79638163D01*
X134366000Y-78665605D01*
X133393443Y-79638163D01*
X129014797Y-79638163D01*
X128472792Y-79096158D01*
X128472792Y-78221582D01*
X132720599Y-78221582D01*
X132744659Y-78871377D01*
X132947035Y-79359958D01*
X133213837Y-79458557D01*
X134186395Y-78486000D01*
X133213837Y-77513443D01*
X132947035Y-77612042D01*
X132720599Y-78221582D01*
X128472792Y-78221582D01*
X128472792Y-76009097D01*
X128472793Y-76009092D01*
X128409955Y-75693186D01*
X128270116Y-75483902D01*
X128270176Y-75414592D01*
X128222125Y-75298300D01*
X131673600Y-75298300D01*
X131989506Y-75235463D01*
X132257317Y-75056517D01*
X132927363Y-74386471D01*
X132731794Y-74857453D01*
X132731794Y-74857453D01*
G37*
X132731794Y-74857453D02*
X132731226Y-75507694D01*
X132979538Y-76108655D01*
X133438927Y-76568846D01*
X134039453Y-76818206D01*
X134689694Y-76818774D01*
X134791341Y-76776774D01*
X134988004Y-76973437D01*
X134630418Y-76840599D01*
X133980623Y-76864659D01*
X133492042Y-77067035D01*
X133393443Y-77333837D01*
X134366000Y-78306395D01*
X134380142Y-78292252D01*
X134559748Y-78471858D01*
X134545605Y-78486000D01*
X135518163Y-79458557D01*
X135784965Y-79359958D01*
X136011401Y-78750418D01*
X135987341Y-78100623D01*
X135896939Y-77882373D01*
X138474272Y-80459705D01*
X138474274Y-80459708D01*
X138616934Y-80555030D01*
X138742085Y-80638654D01*
X139057991Y-80701491D01*
X141423065Y-80701491D01*
X141422233Y-80702736D01*
X141351073Y-81060481D01*
X141004554Y-81407000D01*
X138837522Y-81407000D01*
X138832090Y-81398559D01*
X138619890Y-81253569D01*
X138368000Y-81202560D01*
X136968000Y-81202560D01*
X136732683Y-81246838D01*
X136516559Y-81385910D01*
X136371569Y-81598110D01*
X136320560Y-81850000D01*
X136320560Y-83250000D01*
X136364838Y-83485317D01*
X136503910Y-83701441D01*
X136525000Y-83715851D01*
X136525000Y-84963000D01*
X136612006Y-85400407D01*
X136859777Y-85771223D01*
X137323015Y-86234461D01*
X136974169Y-86378958D01*
X136912331Y-86614725D01*
X137668000Y-87370395D01*
X137682143Y-87356253D01*
X137861748Y-87535858D01*
X137847605Y-87550000D01*
X137861748Y-87564143D01*
X137682143Y-87743748D01*
X137668000Y-87729605D01*
X137653858Y-87743748D01*
X137474252Y-87564142D01*
X137488395Y-87550000D01*
X136732725Y-86794331D01*
X136496958Y-86856169D01*
X136428172Y-87051538D01*
X129014797Y-79638163D01*
X133393443Y-79638163D01*
X133492042Y-79904965D01*
X134101582Y-80131401D01*
X134751377Y-80107341D01*
X135239958Y-79904965D01*
X135338557Y-79638163D01*
X134366000Y-78665605D01*
X133393443Y-79638163D01*
X129014797Y-79638163D01*
X128472792Y-79096158D01*
X128472792Y-78221582D01*
X132720599Y-78221582D01*
X132744659Y-78871377D01*
X132947035Y-79359958D01*
X133213837Y-79458557D01*
X134186395Y-78486000D01*
X133213837Y-77513443D01*
X132947035Y-77612042D01*
X132720599Y-78221582D01*
X128472792Y-78221582D01*
X128472792Y-76009097D01*
X128472793Y-76009092D01*
X128409955Y-75693186D01*
X128270116Y-75483902D01*
X128270176Y-75414592D01*
X128222125Y-75298300D01*
X131673600Y-75298300D01*
X131989506Y-75235463D01*
X132257317Y-75056517D01*
X132927363Y-74386471D01*
X132731794Y-74857453D01*
M02*
