G04 #@! TF.FileFunction,Copper,L2,Bot,Signal*
%FSLAX46Y46*%
G04 Gerber Fmt 4.6, Leading zero omitted, Abs format (unit mm)*
G04 Created by KiCad (PCBNEW 4.0.2+dfsg1-stable) date Fri 04 May 2018 04:41:30 PM EDT*
%MOMM*%
G01*
G04 APERTURE LIST*
%ADD10C,0.100000*%
%ADD11O,1.524000X2.540000*%
%ADD12C,1.750000*%
%ADD13C,2.900000*%
%ADD14C,1.699260*%
%ADD15R,1.699260X1.699260*%
%ADD16R,1.400000X1.400000*%
%ADD17C,1.400000*%
%ADD18C,1.524000*%
%ADD19C,1.998980*%
%ADD20O,1.600000X1.600000*%
%ADD21C,1.520000*%
%ADD22R,1.520000X1.520000*%
%ADD23R,3.500120X3.500120*%
%ADD24C,2.100000*%
%ADD25C,1.300000*%
%ADD26R,1.300000X1.300000*%
%ADD27R,2.032000X2.032000*%
%ADD28O,2.032000X2.032000*%
%ADD29R,1.727200X2.032000*%
%ADD30O,1.727200X2.032000*%
%ADD31O,1.699260X3.500120*%
%ADD32C,0.762000*%
%ADD33C,0.609600*%
%ADD34C,0.381000*%
%ADD35C,1.016000*%
%ADD36C,2.540000*%
%ADD37C,0.254000*%
G04 APERTURE END LIST*
D10*
D11*
X121285000Y-123190000D03*
X118745000Y-123190000D03*
X116205000Y-123190000D03*
X108585000Y-123190000D03*
X111125000Y-123190000D03*
X113665000Y-123190000D03*
X103505000Y-123190000D03*
X100965000Y-123190000D03*
X98425000Y-123190000D03*
X93345000Y-123190000D03*
X90805000Y-123190000D03*
X121285000Y-74930000D03*
X118745000Y-74930000D03*
X116205000Y-74930000D03*
X113665000Y-74930000D03*
X111125000Y-74930000D03*
X108585000Y-74930000D03*
X106045000Y-74930000D03*
X103505000Y-74930000D03*
X99441000Y-74930000D03*
X96901000Y-74930000D03*
X94361000Y-74930000D03*
X91821000Y-74930000D03*
X89281000Y-74930000D03*
X86741000Y-74930000D03*
X84201000Y-74930000D03*
X81661000Y-74930000D03*
X95885000Y-123190000D03*
D12*
X149098000Y-71808000D03*
D13*
X152898000Y-64008000D03*
X145298000Y-64008000D03*
D14*
X56388000Y-93472000D03*
D15*
X46228000Y-93472000D03*
D16*
X147574000Y-92710000D03*
D17*
X152574000Y-92710000D03*
D16*
X137668000Y-82550000D03*
D17*
X137668000Y-87550000D03*
D14*
X71628520Y-93469460D03*
D15*
X61468520Y-93469460D03*
D14*
X41148000Y-93472000D03*
D15*
X30988000Y-93472000D03*
D18*
X103378000Y-93218000D03*
X105918000Y-93218000D03*
X100838000Y-93218000D03*
X111252000Y-93243400D03*
X113792000Y-93243400D03*
X108712000Y-93243400D03*
X119126000Y-93243400D03*
X121666000Y-93243400D03*
X116586000Y-93243400D03*
X127000000Y-93218000D03*
X129540000Y-93218000D03*
X124460000Y-93218000D03*
D19*
X119380000Y-88646000D03*
X119380000Y-78486000D03*
X122682000Y-88646000D03*
X122682000Y-78486000D03*
X125984000Y-88646000D03*
X125984000Y-78486000D03*
X112776000Y-88646000D03*
X112776000Y-78486000D03*
X109474000Y-88646000D03*
X109474000Y-78486000D03*
X106172000Y-88646000D03*
X106172000Y-78486000D03*
X110998000Y-118364000D03*
X100838000Y-118364000D03*
X110998000Y-108458000D03*
X100838000Y-108458000D03*
X110998000Y-111760000D03*
X100838000Y-111760000D03*
X100838000Y-115062000D03*
X110998000Y-115062000D03*
X86360000Y-88646000D03*
X86360000Y-78486000D03*
X144526000Y-75184000D03*
X134366000Y-75184000D03*
X134366000Y-78486000D03*
X144526000Y-78486000D03*
X89662000Y-88646000D03*
X89662000Y-78486000D03*
X92964000Y-88646000D03*
X92964000Y-78486000D03*
X102870000Y-88646000D03*
X102870000Y-78486000D03*
X134366000Y-94996000D03*
X144526000Y-94996000D03*
X144526000Y-91694000D03*
X134366000Y-91694000D03*
D20*
X142748000Y-88900000D03*
X145288000Y-88900000D03*
X147828000Y-88900000D03*
X150368000Y-88900000D03*
X150368000Y-81280000D03*
X147828000Y-81280000D03*
X145288000Y-81280000D03*
X142748000Y-81280000D03*
D21*
X149860000Y-98298000D03*
X152400000Y-98298000D03*
D22*
X147320000Y-98298000D03*
D23*
X36322000Y-69088000D03*
X36322000Y-63088520D03*
X31623000Y-66088260D03*
D24*
X101454000Y-64262000D03*
X96454000Y-64262000D03*
X91454000Y-64262000D03*
X86454000Y-64262000D03*
X81454000Y-64262000D03*
X76454000Y-64262000D03*
X69784000Y-64262000D03*
X64784000Y-64262000D03*
X59784000Y-64262000D03*
X54784000Y-64262000D03*
X49784000Y-64262000D03*
X44784000Y-64262000D03*
D25*
X68032000Y-87884000D03*
D26*
X65532000Y-87884000D03*
D25*
X52832000Y-87884000D03*
D26*
X50332000Y-87884000D03*
D25*
X37084000Y-87884000D03*
D26*
X34584000Y-87884000D03*
D27*
X115316000Y-68580000D03*
D28*
X117856000Y-68580000D03*
D19*
X116078000Y-78486000D03*
X116078000Y-88646000D03*
X99568000Y-78486000D03*
X99568000Y-88646000D03*
X96266000Y-78486000D03*
X96266000Y-88646000D03*
D29*
X122428000Y-68580000D03*
D30*
X124968000Y-68580000D03*
X127508000Y-68580000D03*
D27*
X108204000Y-68580000D03*
D28*
X110744000Y-68580000D03*
D27*
X148336000Y-102362000D03*
D28*
X148336000Y-104902000D03*
D29*
X132334000Y-68580000D03*
D30*
X134874000Y-68580000D03*
X137414000Y-68580000D03*
X139954000Y-68580000D03*
D31*
X81788000Y-97536000D03*
X84328000Y-97536000D03*
X79248000Y-97536000D03*
X66548000Y-97536000D03*
X69088000Y-97536000D03*
X64008000Y-97536000D03*
X51308000Y-97536000D03*
X53848000Y-97536000D03*
X48768000Y-97536000D03*
X36068000Y-97536000D03*
X38608000Y-97536000D03*
X33528000Y-97536000D03*
D32*
X119888000Y-112268000D03*
D33*
X124535780Y-96090065D03*
X129082800Y-95859600D03*
X115163600Y-94284800D03*
X137464800Y-89255600D03*
X139674600Y-91363800D03*
X125126225Y-119575357D03*
D32*
X127254000Y-75615800D03*
X109499400Y-86283800D03*
X111352496Y-86805772D03*
X127304800Y-95316680D03*
D33*
X107328053Y-101919953D03*
X107338956Y-103956622D03*
X125153262Y-120490841D03*
X97942400Y-91100280D03*
X118473976Y-100448273D03*
X120599200Y-105105200D03*
X117643980Y-101191675D03*
X119786400Y-105638600D03*
X125145663Y-121300880D03*
D34*
X96266000Y-88646000D02*
X96266000Y-90652600D01*
X97409000Y-91795600D02*
X98501243Y-91795600D01*
X96266000Y-90652600D02*
X97409000Y-91795600D01*
X98501243Y-91795600D02*
X99568000Y-90728843D01*
X99568000Y-90728843D02*
X99568000Y-88646000D01*
X128421283Y-96090065D02*
X124535780Y-96090065D01*
X128651748Y-95859600D02*
X128421283Y-96090065D01*
X129082800Y-95859600D02*
X128651748Y-95859600D01*
X116078000Y-88646000D02*
X115078511Y-89645489D01*
X115078511Y-89645489D02*
X115078511Y-94199711D01*
X115078511Y-94199711D02*
X115163600Y-94284800D01*
D35*
X139954000Y-68580000D02*
X139954000Y-78486000D01*
X139954000Y-78486000D02*
X142748000Y-81280000D01*
D36*
X86628000Y-69088000D02*
X91454000Y-69088000D01*
X91454000Y-69088000D02*
X91454000Y-64262000D01*
X91628000Y-69088000D02*
X96454000Y-69088000D01*
X96454000Y-69088000D02*
X96454000Y-64262000D01*
X91628000Y-69088000D02*
X100099624Y-69088000D01*
X100099624Y-69088000D02*
X101454000Y-67733624D01*
X101454000Y-67733624D02*
X101454000Y-64262000D01*
X86628000Y-69088000D02*
X91628000Y-69088000D01*
X68551307Y-69088000D02*
X86628000Y-69088000D01*
X44958000Y-69088000D02*
X49784000Y-69088000D01*
X49784000Y-69088000D02*
X49784000Y-64262000D01*
X54958000Y-69088000D02*
X68551307Y-69088000D01*
X68551307Y-69088000D02*
X69784000Y-67855307D01*
X69784000Y-67855307D02*
X69784000Y-64262000D01*
X54958000Y-69088000D02*
X59784000Y-69088000D01*
X59784000Y-69088000D02*
X59784000Y-64262000D01*
X44958000Y-69088000D02*
X54958000Y-69088000D01*
X36322000Y-69088000D02*
X44958000Y-69088000D01*
D34*
X139674600Y-91363800D02*
X139573000Y-91363800D01*
X139573000Y-91363800D02*
X137464800Y-89255600D01*
X124695173Y-119575357D02*
X125126225Y-119575357D01*
X111691643Y-119575357D02*
X124695173Y-119575357D01*
X108585000Y-122682000D02*
X111691643Y-119575357D01*
X108585000Y-123190000D02*
X108585000Y-122682000D01*
X124968000Y-68580000D02*
X124968000Y-73329800D01*
X124968000Y-73329800D02*
X127254000Y-75615800D01*
X111252000Y-88061800D02*
X109499400Y-86309200D01*
X109499400Y-86309200D02*
X109499400Y-86283800D01*
X111252000Y-93243400D02*
X111252000Y-88061800D01*
X117057172Y-86805772D02*
X111891311Y-86805772D01*
X117754400Y-87503000D02*
X117057172Y-86805772D01*
X119126000Y-93243400D02*
X117754400Y-91871800D01*
X111891311Y-86805772D02*
X111352496Y-86805772D01*
X117754400Y-91871800D02*
X117754400Y-87503000D01*
X127441320Y-95316680D02*
X127304800Y-95316680D01*
X129540000Y-93218000D02*
X127441320Y-95316680D01*
X107338956Y-101930856D02*
X107328053Y-101919953D01*
X107338956Y-103956622D02*
X107338956Y-101930856D01*
X93345000Y-123190000D02*
X93345000Y-122682000D01*
X93345000Y-122682000D02*
X97663000Y-118364000D01*
X97663000Y-118364000D02*
X99424508Y-118364000D01*
X99424508Y-118364000D02*
X100838000Y-118364000D01*
X111125000Y-123190000D02*
X111125000Y-122682000D01*
X111125000Y-122682000D02*
X113321653Y-120485347D01*
X113321653Y-120485347D02*
X124716716Y-120485347D01*
X124716716Y-120485347D02*
X124722210Y-120490841D01*
X124722210Y-120490841D02*
X125153262Y-120490841D01*
X97942400Y-90669228D02*
X97942400Y-91100280D01*
X96266000Y-78486000D02*
X97942400Y-80162400D01*
X97942400Y-80162400D02*
X97942400Y-90669228D01*
X120599200Y-105105200D02*
X120432158Y-105105200D01*
X118517041Y-103190083D02*
X118517041Y-100491338D01*
X120432158Y-105105200D02*
X118517041Y-103190083D01*
X118517041Y-100491338D02*
X118473976Y-100448273D01*
X117643980Y-101622727D02*
X117643980Y-101191675D01*
X117643980Y-103496180D02*
X117643980Y-101622727D01*
X119786400Y-105638600D02*
X117643980Y-103496180D01*
X113665000Y-122682000D02*
X115046120Y-121300880D01*
X124714611Y-121300880D02*
X125145663Y-121300880D01*
X113665000Y-123190000D02*
X113665000Y-122682000D01*
X115046120Y-121300880D02*
X124714611Y-121300880D01*
D37*
G36*
X43779991Y-60289875D02*
X43599206Y-60725255D01*
X43598794Y-61196677D01*
X43778820Y-61632372D01*
X44111875Y-61966009D01*
X44547255Y-62146794D01*
X45018677Y-62147206D01*
X45454372Y-61967180D01*
X45788009Y-61634125D01*
X45968794Y-61198745D01*
X45969206Y-60727323D01*
X45789180Y-60291628D01*
X45643806Y-60146000D01*
X48924117Y-60146000D01*
X48779991Y-60289875D01*
X48599206Y-60725255D01*
X48598794Y-61196677D01*
X48778820Y-61632372D01*
X49111875Y-61966009D01*
X49547255Y-62146794D01*
X50018677Y-62147206D01*
X50454372Y-61967180D01*
X50788009Y-61634125D01*
X50968794Y-61198745D01*
X50969206Y-60727323D01*
X50789180Y-60291628D01*
X50643806Y-60146000D01*
X53924117Y-60146000D01*
X53779991Y-60289875D01*
X53599206Y-60725255D01*
X53598794Y-61196677D01*
X53778820Y-61632372D01*
X54111875Y-61966009D01*
X54547255Y-62146794D01*
X55018677Y-62147206D01*
X55454372Y-61967180D01*
X55788009Y-61634125D01*
X55968794Y-61198745D01*
X55969206Y-60727323D01*
X55789180Y-60291628D01*
X55643806Y-60146000D01*
X58924117Y-60146000D01*
X58779991Y-60289875D01*
X58599206Y-60725255D01*
X58598794Y-61196677D01*
X58778820Y-61632372D01*
X59111875Y-61966009D01*
X59547255Y-62146794D01*
X60018677Y-62147206D01*
X60454372Y-61967180D01*
X60788009Y-61634125D01*
X60968794Y-61198745D01*
X60969206Y-60727323D01*
X60789180Y-60291628D01*
X60643806Y-60146000D01*
X63924117Y-60146000D01*
X63779991Y-60289875D01*
X63599206Y-60725255D01*
X63598794Y-61196677D01*
X63778820Y-61632372D01*
X64111875Y-61966009D01*
X64547255Y-62146794D01*
X65018677Y-62147206D01*
X65454372Y-61967180D01*
X65788009Y-61634125D01*
X65968794Y-61198745D01*
X65969206Y-60727323D01*
X65789180Y-60291628D01*
X65643806Y-60146000D01*
X68924117Y-60146000D01*
X68779991Y-60289875D01*
X68599206Y-60725255D01*
X68598794Y-61196677D01*
X68778820Y-61632372D01*
X69111875Y-61966009D01*
X69547255Y-62146794D01*
X70018677Y-62147206D01*
X70454372Y-61967180D01*
X70788009Y-61634125D01*
X70968794Y-61198745D01*
X70969206Y-60727323D01*
X70789180Y-60291628D01*
X70643806Y-60146000D01*
X75594117Y-60146000D01*
X75449991Y-60289875D01*
X75269206Y-60725255D01*
X75268794Y-61196677D01*
X75448820Y-61632372D01*
X75781875Y-61966009D01*
X76217255Y-62146794D01*
X76688677Y-62147206D01*
X77124372Y-61967180D01*
X77458009Y-61634125D01*
X77638794Y-61198745D01*
X77639206Y-60727323D01*
X77459180Y-60291628D01*
X77313806Y-60146000D01*
X80594117Y-60146000D01*
X80449991Y-60289875D01*
X80269206Y-60725255D01*
X80268794Y-61196677D01*
X80448820Y-61632372D01*
X80781875Y-61966009D01*
X81217255Y-62146794D01*
X81688677Y-62147206D01*
X82124372Y-61967180D01*
X82458009Y-61634125D01*
X82638794Y-61198745D01*
X82639206Y-60727323D01*
X82459180Y-60291628D01*
X82313806Y-60146000D01*
X85594117Y-60146000D01*
X85449991Y-60289875D01*
X85269206Y-60725255D01*
X85268794Y-61196677D01*
X85448820Y-61632372D01*
X85781875Y-61966009D01*
X86217255Y-62146794D01*
X86688677Y-62147206D01*
X87124372Y-61967180D01*
X87458009Y-61634125D01*
X87638794Y-61198745D01*
X87639206Y-60727323D01*
X87459180Y-60291628D01*
X87313806Y-60146000D01*
X90594117Y-60146000D01*
X90449991Y-60289875D01*
X90269206Y-60725255D01*
X90268794Y-61196677D01*
X90448820Y-61632372D01*
X90781875Y-61966009D01*
X91217255Y-62146794D01*
X91688677Y-62147206D01*
X92124372Y-61967180D01*
X92458009Y-61634125D01*
X92638794Y-61198745D01*
X92639206Y-60727323D01*
X92459180Y-60291628D01*
X92313806Y-60146000D01*
X95594117Y-60146000D01*
X95449991Y-60289875D01*
X95269206Y-60725255D01*
X95268794Y-61196677D01*
X95448820Y-61632372D01*
X95781875Y-61966009D01*
X96217255Y-62146794D01*
X96688677Y-62147206D01*
X97124372Y-61967180D01*
X97458009Y-61634125D01*
X97638794Y-61198745D01*
X97639206Y-60727323D01*
X97459180Y-60291628D01*
X97313806Y-60146000D01*
X100594117Y-60146000D01*
X100449991Y-60289875D01*
X100269206Y-60725255D01*
X100268794Y-61196677D01*
X100448820Y-61632372D01*
X100781875Y-61966009D01*
X101217255Y-62146794D01*
X101688677Y-62147206D01*
X102124372Y-61967180D01*
X102458009Y-61634125D01*
X102638794Y-61198745D01*
X102639206Y-60727323D01*
X102459180Y-60291628D01*
X102313806Y-60146000D01*
X143383000Y-60146000D01*
X143383000Y-63182914D01*
X143213362Y-63591448D01*
X143212638Y-64420913D01*
X143383000Y-64833220D01*
X143383000Y-74015502D01*
X143141154Y-74256927D01*
X142891794Y-74857453D01*
X142891226Y-75507694D01*
X143139538Y-76108655D01*
X143383000Y-76352542D01*
X143383000Y-77317502D01*
X143141154Y-77558927D01*
X142891794Y-78159453D01*
X142891226Y-78809694D01*
X143139538Y-79410655D01*
X143383000Y-79654542D01*
X143383000Y-79983483D01*
X143297151Y-79926120D01*
X142939406Y-79854960D01*
X141097000Y-78012554D01*
X141097000Y-69699703D01*
X141338526Y-69338234D01*
X141452600Y-68764745D01*
X141452600Y-68395255D01*
X141338526Y-67821766D01*
X141013670Y-67335585D01*
X140527489Y-67010729D01*
X139954000Y-66896655D01*
X139380511Y-67010729D01*
X138894330Y-67335585D01*
X138684000Y-67650366D01*
X138473670Y-67335585D01*
X137987489Y-67010729D01*
X137414000Y-66896655D01*
X136840511Y-67010729D01*
X136354330Y-67335585D01*
X136144000Y-67650366D01*
X135933670Y-67335585D01*
X135447489Y-67010729D01*
X134874000Y-66896655D01*
X134300511Y-67010729D01*
X133814330Y-67335585D01*
X133804757Y-67349913D01*
X133800762Y-67328683D01*
X133661690Y-67112559D01*
X133449490Y-66967569D01*
X133197600Y-66916560D01*
X131470400Y-66916560D01*
X131235083Y-66960838D01*
X131018959Y-67099910D01*
X130873969Y-67312110D01*
X130822960Y-67564000D01*
X130822960Y-69596000D01*
X130867238Y-69831317D01*
X131006310Y-70047441D01*
X131218510Y-70192431D01*
X131470400Y-70243440D01*
X133197600Y-70243440D01*
X133432917Y-70199162D01*
X133649041Y-70060090D01*
X133794031Y-69847890D01*
X133802400Y-69806561D01*
X133814330Y-69824415D01*
X134300511Y-70149271D01*
X134874000Y-70263345D01*
X135447489Y-70149271D01*
X135933670Y-69824415D01*
X136144000Y-69509634D01*
X136354330Y-69824415D01*
X136840511Y-70149271D01*
X137414000Y-70263345D01*
X137987489Y-70149271D01*
X138473670Y-69824415D01*
X138684000Y-69509634D01*
X138811000Y-69699703D01*
X138811000Y-78486000D01*
X138898006Y-78923407D01*
X139145777Y-79294223D01*
X141351073Y-81499519D01*
X141422233Y-81857264D01*
X141733302Y-82322811D01*
X142198849Y-82633880D01*
X142748000Y-82743113D01*
X143297151Y-82633880D01*
X143383000Y-82576517D01*
X143383000Y-84328000D01*
X143393006Y-84377410D01*
X143421447Y-84419035D01*
X143463841Y-84446315D01*
X143510000Y-84455000D01*
X153722000Y-84455000D01*
X153722000Y-92010125D01*
X153509275Y-91954331D01*
X152753605Y-92710000D01*
X153509275Y-93465669D01*
X153722000Y-93409875D01*
X153722000Y-97812518D01*
X153620742Y-97568059D01*
X153378764Y-97498841D01*
X152579605Y-98298000D01*
X153378764Y-99097159D01*
X153620742Y-99027941D01*
X153722000Y-98744003D01*
X153722000Y-124258000D01*
X122578033Y-124258000D01*
X122682000Y-123735321D01*
X122682000Y-122644679D01*
X122578904Y-122126380D01*
X124683034Y-122126380D01*
X124957905Y-122240517D01*
X125331781Y-122240843D01*
X125677322Y-122098068D01*
X125941922Y-121833929D01*
X126085300Y-121488638D01*
X126085626Y-121114762D01*
X125998921Y-120904921D01*
X126092899Y-120678599D01*
X126093225Y-120304723D01*
X125967407Y-120000220D01*
X126065862Y-119763115D01*
X126066188Y-119389239D01*
X125923413Y-119043698D01*
X125659274Y-118779098D01*
X125313983Y-118635720D01*
X124940107Y-118635394D01*
X124663086Y-118749857D01*
X112607578Y-118749857D01*
X112632206Y-118690547D01*
X112632774Y-118040306D01*
X112384462Y-117439345D01*
X111925073Y-116979154D01*
X111324547Y-116729794D01*
X110674306Y-116729226D01*
X110073345Y-116977538D01*
X109613154Y-117436927D01*
X109363794Y-118037453D01*
X109363226Y-118687694D01*
X109611538Y-119288655D01*
X110070927Y-119748846D01*
X110268628Y-119830939D01*
X108807608Y-121291958D01*
X108585000Y-121247679D01*
X108050391Y-121354019D01*
X107597172Y-121656851D01*
X107294340Y-122110070D01*
X107188000Y-122644679D01*
X107188000Y-123735321D01*
X107291967Y-124258000D01*
X104798033Y-124258000D01*
X104902000Y-123735321D01*
X104902000Y-122644679D01*
X104795660Y-122110070D01*
X104492828Y-121656851D01*
X104039609Y-121354019D01*
X103505000Y-121247679D01*
X102970391Y-121354019D01*
X102517172Y-121656851D01*
X102225670Y-122093113D01*
X102207059Y-122030059D01*
X101863026Y-121604370D01*
X101382277Y-121342740D01*
X101308070Y-121327780D01*
X101092000Y-121450280D01*
X101092000Y-123063000D01*
X101112000Y-123063000D01*
X101112000Y-123317000D01*
X101092000Y-123317000D01*
X101092000Y-123337000D01*
X100838000Y-123337000D01*
X100838000Y-123317000D01*
X98552000Y-123317000D01*
X98552000Y-123337000D01*
X98298000Y-123337000D01*
X98298000Y-123317000D01*
X98278000Y-123317000D01*
X98278000Y-123063000D01*
X98298000Y-123063000D01*
X98298000Y-121450280D01*
X98552000Y-121450280D01*
X98552000Y-123063000D01*
X100838000Y-123063000D01*
X100838000Y-121450280D01*
X100621930Y-121327780D01*
X100547723Y-121342740D01*
X100066974Y-121604370D01*
X99722941Y-122030059D01*
X99695000Y-122124723D01*
X99667059Y-122030059D01*
X99323026Y-121604370D01*
X98842277Y-121342740D01*
X98768070Y-121327780D01*
X98552000Y-121450280D01*
X98298000Y-121450280D01*
X98081930Y-121327780D01*
X98007723Y-121342740D01*
X97526974Y-121604370D01*
X97182941Y-122030059D01*
X97164330Y-122093113D01*
X96872828Y-121656851D01*
X96419609Y-121354019D01*
X95936509Y-121257925D01*
X98004934Y-119189500D01*
X99410568Y-119189500D01*
X99451538Y-119288655D01*
X99910927Y-119748846D01*
X100511453Y-119998206D01*
X101161694Y-119998774D01*
X101762655Y-119750462D01*
X102222846Y-119291073D01*
X102472206Y-118690547D01*
X102472774Y-118040306D01*
X102224462Y-117439345D01*
X101765073Y-116979154D01*
X101164547Y-116729794D01*
X100514306Y-116729226D01*
X99913345Y-116977538D01*
X99453154Y-117436927D01*
X99410977Y-117538500D01*
X97663000Y-117538500D01*
X97347094Y-117601337D01*
X97079283Y-117780283D01*
X93567608Y-121291958D01*
X93345000Y-121247679D01*
X92810391Y-121354019D01*
X92357172Y-121656851D01*
X92075000Y-122079150D01*
X91792828Y-121656851D01*
X91339609Y-121354019D01*
X90805000Y-121247679D01*
X90270391Y-121354019D01*
X89817172Y-121656851D01*
X89514340Y-122110070D01*
X89408000Y-122644679D01*
X89408000Y-123735321D01*
X89511967Y-124258000D01*
X30174000Y-124258000D01*
X30174000Y-114802015D01*
X33532641Y-114802015D01*
X33917746Y-115734041D01*
X34630208Y-116447748D01*
X35561561Y-116834479D01*
X36570015Y-116835359D01*
X37502041Y-116450254D01*
X38215748Y-115737792D01*
X38602479Y-114806439D01*
X38602482Y-114802015D01*
X48772641Y-114802015D01*
X49157746Y-115734041D01*
X49870208Y-116447748D01*
X50801561Y-116834479D01*
X51810015Y-116835359D01*
X52742041Y-116450254D01*
X53455748Y-115737792D01*
X53842479Y-114806439D01*
X53842482Y-114802015D01*
X64012641Y-114802015D01*
X64397746Y-115734041D01*
X65110208Y-116447748D01*
X66041561Y-116834479D01*
X67050015Y-116835359D01*
X67982041Y-116450254D01*
X68695748Y-115737792D01*
X69082479Y-114806439D01*
X69082482Y-114802015D01*
X79252641Y-114802015D01*
X79637746Y-115734041D01*
X80350208Y-116447748D01*
X81281561Y-116834479D01*
X82290015Y-116835359D01*
X83222041Y-116450254D01*
X83458544Y-116214163D01*
X99865443Y-116214163D01*
X99964042Y-116480965D01*
X100573582Y-116707401D01*
X101223377Y-116683341D01*
X101711958Y-116480965D01*
X101810557Y-116214163D01*
X100838000Y-115241605D01*
X99865443Y-116214163D01*
X83458544Y-116214163D01*
X83935748Y-115737792D01*
X84322479Y-114806439D01*
X84322486Y-114797582D01*
X99192599Y-114797582D01*
X99216659Y-115447377D01*
X99419035Y-115935958D01*
X99685837Y-116034557D01*
X100658395Y-115062000D01*
X101017605Y-115062000D01*
X101990163Y-116034557D01*
X102256965Y-115935958D01*
X102461380Y-115385694D01*
X109363226Y-115385694D01*
X109611538Y-115986655D01*
X110070927Y-116446846D01*
X110671453Y-116696206D01*
X111321694Y-116696774D01*
X111922655Y-116448462D01*
X112382846Y-115989073D01*
X112632206Y-115388547D01*
X112632774Y-114738306D01*
X112384462Y-114137345D01*
X111925073Y-113677154D01*
X111324547Y-113427794D01*
X110674306Y-113427226D01*
X110073345Y-113675538D01*
X109613154Y-114134927D01*
X109363794Y-114735453D01*
X109363226Y-115385694D01*
X102461380Y-115385694D01*
X102483401Y-115326418D01*
X102459341Y-114676623D01*
X102256965Y-114188042D01*
X101990163Y-114089443D01*
X101017605Y-115062000D01*
X100658395Y-115062000D01*
X99685837Y-114089443D01*
X99419035Y-114188042D01*
X99192599Y-114797582D01*
X84322486Y-114797582D01*
X84323261Y-113909837D01*
X99865443Y-113909837D01*
X100838000Y-114882395D01*
X101810557Y-113909837D01*
X101711958Y-113643035D01*
X101102418Y-113416599D01*
X100452623Y-113440659D01*
X99964042Y-113643035D01*
X99865443Y-113909837D01*
X84323261Y-113909837D01*
X84323359Y-113797985D01*
X83938254Y-112865959D01*
X83225792Y-112152252D01*
X83060686Y-112083694D01*
X99203226Y-112083694D01*
X99451538Y-112684655D01*
X99910927Y-113144846D01*
X100511453Y-113394206D01*
X101161694Y-113394774D01*
X101762655Y-113146462D01*
X102222846Y-112687073D01*
X102472206Y-112086547D01*
X102472208Y-112083694D01*
X109363226Y-112083694D01*
X109611538Y-112684655D01*
X110070927Y-113144846D01*
X110671453Y-113394206D01*
X111321694Y-113394774D01*
X111922655Y-113146462D01*
X112382846Y-112687073D01*
X112632206Y-112086547D01*
X112632774Y-111436306D01*
X112384462Y-110835345D01*
X111925073Y-110375154D01*
X111324547Y-110125794D01*
X110674306Y-110125226D01*
X110073345Y-110373538D01*
X109613154Y-110832927D01*
X109363794Y-111433453D01*
X109363226Y-112083694D01*
X102472208Y-112083694D01*
X102472774Y-111436306D01*
X102224462Y-110835345D01*
X101765073Y-110375154D01*
X101164547Y-110125794D01*
X100514306Y-110125226D01*
X99913345Y-110373538D01*
X99453154Y-110832927D01*
X99203794Y-111433453D01*
X99203226Y-112083694D01*
X83060686Y-112083694D01*
X82294439Y-111765521D01*
X81285985Y-111764641D01*
X80353959Y-112149746D01*
X79640252Y-112862208D01*
X79253521Y-113793561D01*
X79252641Y-114802015D01*
X69082482Y-114802015D01*
X69083359Y-113797985D01*
X68698254Y-112865959D01*
X67985792Y-112152252D01*
X67054439Y-111765521D01*
X66045985Y-111764641D01*
X65113959Y-112149746D01*
X64400252Y-112862208D01*
X64013521Y-113793561D01*
X64012641Y-114802015D01*
X53842482Y-114802015D01*
X53843359Y-113797985D01*
X53458254Y-112865959D01*
X52745792Y-112152252D01*
X51814439Y-111765521D01*
X50805985Y-111764641D01*
X49873959Y-112149746D01*
X49160252Y-112862208D01*
X48773521Y-113793561D01*
X48772641Y-114802015D01*
X38602482Y-114802015D01*
X38603359Y-113797985D01*
X38218254Y-112865959D01*
X37505792Y-112152252D01*
X36574439Y-111765521D01*
X35565985Y-111764641D01*
X34633959Y-112149746D01*
X33920252Y-112862208D01*
X33533521Y-113793561D01*
X33532641Y-114802015D01*
X30174000Y-114802015D01*
X30174000Y-108781694D01*
X99203226Y-108781694D01*
X99451538Y-109382655D01*
X99910927Y-109842846D01*
X100511453Y-110092206D01*
X101161694Y-110092774D01*
X101762655Y-109844462D01*
X102222846Y-109385073D01*
X102472206Y-108784547D01*
X102472208Y-108781694D01*
X109363226Y-108781694D01*
X109611538Y-109382655D01*
X110070927Y-109842846D01*
X110671453Y-110092206D01*
X111321694Y-110092774D01*
X111922655Y-109844462D01*
X112382846Y-109385073D01*
X112632206Y-108784547D01*
X112632774Y-108134306D01*
X112384462Y-107533345D01*
X111925073Y-107073154D01*
X111324547Y-106823794D01*
X110674306Y-106823226D01*
X110073345Y-107071538D01*
X109613154Y-107530927D01*
X109363794Y-108131453D01*
X109363226Y-108781694D01*
X102472208Y-108781694D01*
X102472774Y-108134306D01*
X102224462Y-107533345D01*
X101765073Y-107073154D01*
X101164547Y-106823794D01*
X100514306Y-106823226D01*
X99913345Y-107071538D01*
X99453154Y-107530927D01*
X99203794Y-108131453D01*
X99203226Y-108781694D01*
X30174000Y-108781694D01*
X30174000Y-102106071D01*
X106388090Y-102106071D01*
X106513456Y-102409479D01*
X106513456Y-103493993D01*
X106399319Y-103768864D01*
X106398993Y-104142740D01*
X106541768Y-104488281D01*
X106805907Y-104752881D01*
X107151198Y-104896259D01*
X107525074Y-104896585D01*
X107870615Y-104753810D01*
X108135215Y-104489671D01*
X108278593Y-104144380D01*
X108278919Y-103770504D01*
X108164456Y-103493483D01*
X108164456Y-102356325D01*
X108267690Y-102107711D01*
X108268016Y-101733835D01*
X108125241Y-101388294D01*
X108114759Y-101377793D01*
X116704017Y-101377793D01*
X116818480Y-101654814D01*
X116818480Y-103496180D01*
X116881317Y-103812086D01*
X117060263Y-104079897D01*
X118875555Y-105895188D01*
X118989212Y-106170259D01*
X119253351Y-106434859D01*
X119598642Y-106578237D01*
X119972518Y-106578563D01*
X120318059Y-106435788D01*
X120582659Y-106171649D01*
X120635235Y-106045032D01*
X120785318Y-106045163D01*
X121130859Y-105902388D01*
X121395459Y-105638249D01*
X121538837Y-105292958D01*
X121539163Y-104919082D01*
X121532105Y-104902000D01*
X146652655Y-104902000D01*
X146778330Y-105533810D01*
X147136222Y-106069433D01*
X147671845Y-106427325D01*
X148303655Y-106553000D01*
X148368345Y-106553000D01*
X149000155Y-106427325D01*
X149535778Y-106069433D01*
X149893670Y-105533810D01*
X150019345Y-104902000D01*
X149893670Y-104270190D01*
X149669034Y-103933999D01*
X149711698Y-103916327D01*
X149890327Y-103737699D01*
X149987000Y-103504310D01*
X149987000Y-102647750D01*
X149828250Y-102489000D01*
X148463000Y-102489000D01*
X148463000Y-102509000D01*
X148209000Y-102509000D01*
X148209000Y-102489000D01*
X146843750Y-102489000D01*
X146685000Y-102647750D01*
X146685000Y-103504310D01*
X146781673Y-103737699D01*
X146960302Y-103916327D01*
X147002966Y-103933999D01*
X146778330Y-104270190D01*
X146652655Y-104902000D01*
X121532105Y-104902000D01*
X121396388Y-104573541D01*
X121132249Y-104308941D01*
X120786958Y-104165563D01*
X120659843Y-104165452D01*
X119342541Y-102848149D01*
X119342541Y-101219690D01*
X146685000Y-101219690D01*
X146685000Y-102076250D01*
X146843750Y-102235000D01*
X148209000Y-102235000D01*
X148209000Y-100869750D01*
X148463000Y-100869750D01*
X148463000Y-102235000D01*
X149828250Y-102235000D01*
X149987000Y-102076250D01*
X149987000Y-101219690D01*
X149890327Y-100986301D01*
X149711698Y-100807673D01*
X149478309Y-100711000D01*
X148621750Y-100711000D01*
X148463000Y-100869750D01*
X148209000Y-100869750D01*
X148050250Y-100711000D01*
X147193691Y-100711000D01*
X146960302Y-100807673D01*
X146781673Y-100986301D01*
X146685000Y-101219690D01*
X119342541Y-101219690D01*
X119342541Y-100807191D01*
X119413613Y-100636031D01*
X119413939Y-100262155D01*
X119271164Y-99916614D01*
X119007025Y-99652014D01*
X118661734Y-99508636D01*
X118287858Y-99508310D01*
X117942317Y-99651085D01*
X117677717Y-99915224D01*
X117537965Y-100251782D01*
X117457862Y-100251712D01*
X117112321Y-100394487D01*
X116847721Y-100658626D01*
X116704343Y-101003917D01*
X116704017Y-101377793D01*
X108114759Y-101377793D01*
X107861102Y-101123694D01*
X107515811Y-100980316D01*
X107141935Y-100979990D01*
X106796394Y-101122765D01*
X106531794Y-101386904D01*
X106388416Y-101732195D01*
X106388090Y-102106071D01*
X30174000Y-102106071D01*
X30174000Y-97663000D01*
X32043370Y-97663000D01*
X32043370Y-98563430D01*
X32204982Y-99121906D01*
X32568011Y-99576024D01*
X33077190Y-99856649D01*
X33171168Y-99877540D01*
X33401000Y-99756214D01*
X33401000Y-97663000D01*
X32043370Y-97663000D01*
X30174000Y-97663000D01*
X30174000Y-96508570D01*
X32043370Y-96508570D01*
X32043370Y-97409000D01*
X33401000Y-97409000D01*
X33401000Y-95315786D01*
X33655000Y-95315786D01*
X33655000Y-97409000D01*
X33675000Y-97409000D01*
X33675000Y-97663000D01*
X33655000Y-97663000D01*
X33655000Y-99756214D01*
X33884832Y-99877540D01*
X33978810Y-99856649D01*
X34487989Y-99576024D01*
X34792484Y-99195127D01*
X35018208Y-99532948D01*
X35499857Y-99854775D01*
X36068000Y-99967786D01*
X36636143Y-99854775D01*
X37117792Y-99532948D01*
X37338000Y-99203383D01*
X37558208Y-99532948D01*
X38039857Y-99854775D01*
X38608000Y-99967786D01*
X39176143Y-99854775D01*
X39657792Y-99532948D01*
X39979619Y-99051299D01*
X40092630Y-98483156D01*
X40092630Y-97663000D01*
X47283370Y-97663000D01*
X47283370Y-98563430D01*
X47444982Y-99121906D01*
X47808011Y-99576024D01*
X48317190Y-99856649D01*
X48411168Y-99877540D01*
X48641000Y-99756214D01*
X48641000Y-97663000D01*
X47283370Y-97663000D01*
X40092630Y-97663000D01*
X40092630Y-96588844D01*
X40076663Y-96508570D01*
X47283370Y-96508570D01*
X47283370Y-97409000D01*
X48641000Y-97409000D01*
X48641000Y-95315786D01*
X48895000Y-95315786D01*
X48895000Y-97409000D01*
X48915000Y-97409000D01*
X48915000Y-97663000D01*
X48895000Y-97663000D01*
X48895000Y-99756214D01*
X49124832Y-99877540D01*
X49218810Y-99856649D01*
X49727989Y-99576024D01*
X50032484Y-99195127D01*
X50258208Y-99532948D01*
X50739857Y-99854775D01*
X51308000Y-99967786D01*
X51876143Y-99854775D01*
X52357792Y-99532948D01*
X52578000Y-99203383D01*
X52798208Y-99532948D01*
X53279857Y-99854775D01*
X53848000Y-99967786D01*
X54416143Y-99854775D01*
X54897792Y-99532948D01*
X55219619Y-99051299D01*
X55332630Y-98483156D01*
X55332630Y-97663000D01*
X62523370Y-97663000D01*
X62523370Y-98563430D01*
X62684982Y-99121906D01*
X63048011Y-99576024D01*
X63557190Y-99856649D01*
X63651168Y-99877540D01*
X63881000Y-99756214D01*
X63881000Y-97663000D01*
X62523370Y-97663000D01*
X55332630Y-97663000D01*
X55332630Y-96588844D01*
X55316663Y-96508570D01*
X62523370Y-96508570D01*
X62523370Y-97409000D01*
X63881000Y-97409000D01*
X63881000Y-95315786D01*
X64135000Y-95315786D01*
X64135000Y-97409000D01*
X64155000Y-97409000D01*
X64155000Y-97663000D01*
X64135000Y-97663000D01*
X64135000Y-99756214D01*
X64364832Y-99877540D01*
X64458810Y-99856649D01*
X64967989Y-99576024D01*
X65272484Y-99195127D01*
X65498208Y-99532948D01*
X65979857Y-99854775D01*
X66548000Y-99967786D01*
X67116143Y-99854775D01*
X67597792Y-99532948D01*
X67818000Y-99203383D01*
X68038208Y-99532948D01*
X68519857Y-99854775D01*
X69088000Y-99967786D01*
X69656143Y-99854775D01*
X70137792Y-99532948D01*
X70459619Y-99051299D01*
X70572630Y-98483156D01*
X70572630Y-97663000D01*
X77763370Y-97663000D01*
X77763370Y-98563430D01*
X77924982Y-99121906D01*
X78288011Y-99576024D01*
X78797190Y-99856649D01*
X78891168Y-99877540D01*
X79121000Y-99756214D01*
X79121000Y-97663000D01*
X77763370Y-97663000D01*
X70572630Y-97663000D01*
X70572630Y-96588844D01*
X70556663Y-96508570D01*
X77763370Y-96508570D01*
X77763370Y-97409000D01*
X79121000Y-97409000D01*
X79121000Y-95315786D01*
X79375000Y-95315786D01*
X79375000Y-97409000D01*
X79395000Y-97409000D01*
X79395000Y-97663000D01*
X79375000Y-97663000D01*
X79375000Y-99756214D01*
X79604832Y-99877540D01*
X79698810Y-99856649D01*
X80207989Y-99576024D01*
X80512484Y-99195127D01*
X80738208Y-99532948D01*
X81219857Y-99854775D01*
X81788000Y-99967786D01*
X82356143Y-99854775D01*
X82837792Y-99532948D01*
X83058000Y-99203383D01*
X83278208Y-99532948D01*
X83759857Y-99854775D01*
X84328000Y-99967786D01*
X84896143Y-99854775D01*
X85377792Y-99532948D01*
X85699619Y-99051299D01*
X85812630Y-98483156D01*
X85812630Y-97538000D01*
X145912560Y-97538000D01*
X145912560Y-99058000D01*
X145956838Y-99293317D01*
X146095910Y-99509441D01*
X146308110Y-99654431D01*
X146560000Y-99705440D01*
X148080000Y-99705440D01*
X148315317Y-99661162D01*
X148531441Y-99522090D01*
X148676431Y-99309890D01*
X148713969Y-99124520D01*
X149068764Y-99479934D01*
X149581300Y-99692758D01*
X150136265Y-99693242D01*
X150649172Y-99481313D01*
X150854078Y-99276764D01*
X151600841Y-99276764D01*
X151670059Y-99518742D01*
X152192780Y-99705155D01*
X152747049Y-99677341D01*
X153129941Y-99518742D01*
X153199159Y-99276764D01*
X152400000Y-98477605D01*
X151600841Y-99276764D01*
X150854078Y-99276764D01*
X151041934Y-99089236D01*
X151123391Y-98893066D01*
X151179258Y-99027941D01*
X151421236Y-99097159D01*
X152220395Y-98298000D01*
X151421236Y-97498841D01*
X151179258Y-97568059D01*
X151127618Y-97712862D01*
X151043313Y-97508828D01*
X150854052Y-97319236D01*
X151600841Y-97319236D01*
X152400000Y-98118395D01*
X153199159Y-97319236D01*
X153129941Y-97077258D01*
X152607220Y-96890845D01*
X152052951Y-96918659D01*
X151670059Y-97077258D01*
X151600841Y-97319236D01*
X150854052Y-97319236D01*
X150651236Y-97116066D01*
X150138700Y-96903242D01*
X149583735Y-96902758D01*
X149070828Y-97114687D01*
X148714684Y-97470210D01*
X148683162Y-97302683D01*
X148544090Y-97086559D01*
X148331890Y-96941569D01*
X148080000Y-96890560D01*
X146560000Y-96890560D01*
X146324683Y-96934838D01*
X146108559Y-97073910D01*
X145963569Y-97286110D01*
X145912560Y-97538000D01*
X85812630Y-97538000D01*
X85812630Y-96588844D01*
X85699619Y-96020701D01*
X85377792Y-95539052D01*
X84896143Y-95217225D01*
X84328000Y-95104214D01*
X83759857Y-95217225D01*
X83278208Y-95539052D01*
X83058000Y-95868617D01*
X82837792Y-95539052D01*
X82356143Y-95217225D01*
X81788000Y-95104214D01*
X81219857Y-95217225D01*
X80738208Y-95539052D01*
X80512484Y-95876873D01*
X80207989Y-95495976D01*
X79698810Y-95215351D01*
X79604832Y-95194460D01*
X79375000Y-95315786D01*
X79121000Y-95315786D01*
X78891168Y-95194460D01*
X78797190Y-95215351D01*
X78288011Y-95495976D01*
X77924982Y-95950094D01*
X77763370Y-96508570D01*
X70556663Y-96508570D01*
X70459619Y-96020701D01*
X70137792Y-95539052D01*
X69656143Y-95217225D01*
X69088000Y-95104214D01*
X68519857Y-95217225D01*
X68038208Y-95539052D01*
X67818000Y-95868617D01*
X67597792Y-95539052D01*
X67116143Y-95217225D01*
X66548000Y-95104214D01*
X65979857Y-95217225D01*
X65498208Y-95539052D01*
X65272484Y-95876873D01*
X64967989Y-95495976D01*
X64458810Y-95215351D01*
X64364832Y-95194460D01*
X64135000Y-95315786D01*
X63881000Y-95315786D01*
X63651168Y-95194460D01*
X63557190Y-95215351D01*
X63048011Y-95495976D01*
X62684982Y-95950094D01*
X62523370Y-96508570D01*
X55316663Y-96508570D01*
X55219619Y-96020701D01*
X54897792Y-95539052D01*
X54416143Y-95217225D01*
X53848000Y-95104214D01*
X53279857Y-95217225D01*
X52798208Y-95539052D01*
X52578000Y-95868617D01*
X52357792Y-95539052D01*
X51876143Y-95217225D01*
X51308000Y-95104214D01*
X50739857Y-95217225D01*
X50258208Y-95539052D01*
X50032484Y-95876873D01*
X49727989Y-95495976D01*
X49218810Y-95215351D01*
X49124832Y-95194460D01*
X48895000Y-95315786D01*
X48641000Y-95315786D01*
X48411168Y-95194460D01*
X48317190Y-95215351D01*
X47808011Y-95495976D01*
X47444982Y-95950094D01*
X47283370Y-96508570D01*
X40076663Y-96508570D01*
X39979619Y-96020701D01*
X39657792Y-95539052D01*
X39176143Y-95217225D01*
X38608000Y-95104214D01*
X38039857Y-95217225D01*
X37558208Y-95539052D01*
X37338000Y-95868617D01*
X37117792Y-95539052D01*
X36636143Y-95217225D01*
X36068000Y-95104214D01*
X35499857Y-95217225D01*
X35018208Y-95539052D01*
X34792484Y-95876873D01*
X34487989Y-95495976D01*
X33978810Y-95215351D01*
X33884832Y-95194460D01*
X33655000Y-95315786D01*
X33401000Y-95315786D01*
X33171168Y-95194460D01*
X33077190Y-95215351D01*
X32568011Y-95495976D01*
X32204982Y-95950094D01*
X32043370Y-96508570D01*
X30174000Y-96508570D01*
X30174000Y-94969070D01*
X31837630Y-94969070D01*
X32072947Y-94924792D01*
X32289071Y-94785720D01*
X32434061Y-94573520D01*
X32485070Y-94321630D01*
X32485070Y-93766016D01*
X39663112Y-93766016D01*
X39888658Y-94311877D01*
X40305926Y-94729874D01*
X40851393Y-94956372D01*
X41442016Y-94956888D01*
X41987877Y-94731342D01*
X42405874Y-94314074D01*
X42632372Y-93768607D01*
X42632888Y-93177984D01*
X42407342Y-92632123D01*
X42397607Y-92622370D01*
X44730930Y-92622370D01*
X44730930Y-94321630D01*
X44775208Y-94556947D01*
X44914280Y-94773071D01*
X45126480Y-94918061D01*
X45378370Y-94969070D01*
X47077630Y-94969070D01*
X47312947Y-94924792D01*
X47529071Y-94785720D01*
X47674061Y-94573520D01*
X47725070Y-94321630D01*
X47725070Y-93766016D01*
X54903112Y-93766016D01*
X55128658Y-94311877D01*
X55545926Y-94729874D01*
X56091393Y-94956372D01*
X56682016Y-94956888D01*
X57227877Y-94731342D01*
X57645874Y-94314074D01*
X57872372Y-93768607D01*
X57872888Y-93177984D01*
X57647342Y-92632123D01*
X57635071Y-92619830D01*
X59971450Y-92619830D01*
X59971450Y-94319090D01*
X60015728Y-94554407D01*
X60154800Y-94770531D01*
X60367000Y-94915521D01*
X60618890Y-94966530D01*
X62318150Y-94966530D01*
X62553467Y-94922252D01*
X62769591Y-94783180D01*
X62914581Y-94570980D01*
X62965590Y-94319090D01*
X62965590Y-93763476D01*
X70143632Y-93763476D01*
X70369178Y-94309337D01*
X70786446Y-94727334D01*
X71331913Y-94953832D01*
X71922536Y-94954348D01*
X72468397Y-94728802D01*
X72886394Y-94311534D01*
X72933449Y-94198213D01*
X100037392Y-94198213D01*
X100106857Y-94440397D01*
X100630302Y-94627144D01*
X101185368Y-94599362D01*
X101569143Y-94440397D01*
X101638608Y-94198213D01*
X100838000Y-93397605D01*
X100037392Y-94198213D01*
X72933449Y-94198213D01*
X73112892Y-93766067D01*
X73113408Y-93175444D01*
X73045173Y-93010302D01*
X99428856Y-93010302D01*
X99456638Y-93565368D01*
X99615603Y-93949143D01*
X99857787Y-94018608D01*
X100658395Y-93218000D01*
X101017605Y-93218000D01*
X101818213Y-94018608D01*
X102060397Y-93949143D01*
X102110509Y-93808682D01*
X102192990Y-94008303D01*
X102585630Y-94401629D01*
X103098900Y-94614757D01*
X103654661Y-94615242D01*
X104168303Y-94403010D01*
X104561629Y-94010370D01*
X104647949Y-93802488D01*
X104732990Y-94008303D01*
X105125630Y-94401629D01*
X105638900Y-94614757D01*
X106194661Y-94615242D01*
X106708303Y-94403010D01*
X106888013Y-94223613D01*
X107911392Y-94223613D01*
X107980857Y-94465797D01*
X108504302Y-94652544D01*
X109059368Y-94624762D01*
X109443143Y-94465797D01*
X109512608Y-94223613D01*
X108712000Y-93423005D01*
X107911392Y-94223613D01*
X106888013Y-94223613D01*
X107101629Y-94010370D01*
X107314757Y-93497100D01*
X107314949Y-93277308D01*
X107330638Y-93590768D01*
X107489603Y-93974543D01*
X107731787Y-94044008D01*
X108532395Y-93243400D01*
X107731787Y-92442792D01*
X107489603Y-92512257D01*
X107315190Y-93001131D01*
X107315242Y-92941339D01*
X107103010Y-92427697D01*
X106938787Y-92263187D01*
X107911392Y-92263187D01*
X108712000Y-93063795D01*
X109512608Y-92263187D01*
X109443143Y-92021003D01*
X108919698Y-91834256D01*
X108364632Y-91862038D01*
X107980857Y-92021003D01*
X107911392Y-92263187D01*
X106938787Y-92263187D01*
X106710370Y-92034371D01*
X106197100Y-91821243D01*
X105641339Y-91820758D01*
X105127697Y-92032990D01*
X104734371Y-92425630D01*
X104648051Y-92633512D01*
X104563010Y-92427697D01*
X104170370Y-92034371D01*
X103657100Y-91821243D01*
X103101339Y-91820758D01*
X102587697Y-92032990D01*
X102194371Y-92425630D01*
X102114605Y-92617727D01*
X102060397Y-92486857D01*
X101818213Y-92417392D01*
X101017605Y-93218000D01*
X100658395Y-93218000D01*
X99857787Y-92417392D01*
X99615603Y-92486857D01*
X99428856Y-93010302D01*
X73045173Y-93010302D01*
X72887862Y-92629583D01*
X72470594Y-92211586D01*
X71925127Y-91985088D01*
X71334504Y-91984572D01*
X70788643Y-92210118D01*
X70370646Y-92627386D01*
X70144148Y-93172853D01*
X70143632Y-93763476D01*
X62965590Y-93763476D01*
X62965590Y-92619830D01*
X62921312Y-92384513D01*
X62782240Y-92168389D01*
X62570040Y-92023399D01*
X62318150Y-91972390D01*
X60618890Y-91972390D01*
X60383573Y-92016668D01*
X60167449Y-92155740D01*
X60022459Y-92367940D01*
X59971450Y-92619830D01*
X57635071Y-92619830D01*
X57230074Y-92214126D01*
X56684607Y-91987628D01*
X56093984Y-91987112D01*
X55548123Y-92212658D01*
X55130126Y-92629926D01*
X54903628Y-93175393D01*
X54903112Y-93766016D01*
X47725070Y-93766016D01*
X47725070Y-92622370D01*
X47680792Y-92387053D01*
X47541720Y-92170929D01*
X47329520Y-92025939D01*
X47077630Y-91974930D01*
X45378370Y-91974930D01*
X45143053Y-92019208D01*
X44926929Y-92158280D01*
X44781939Y-92370480D01*
X44730930Y-92622370D01*
X42397607Y-92622370D01*
X41990074Y-92214126D01*
X41444607Y-91987628D01*
X40853984Y-91987112D01*
X40308123Y-92212658D01*
X39890126Y-92629926D01*
X39663628Y-93175393D01*
X39663112Y-93766016D01*
X32485070Y-93766016D01*
X32485070Y-92622370D01*
X32440792Y-92387053D01*
X32301720Y-92170929D01*
X32089520Y-92025939D01*
X31837630Y-91974930D01*
X30174000Y-91974930D01*
X30174000Y-89798163D01*
X85387443Y-89798163D01*
X85486042Y-90064965D01*
X86095582Y-90291401D01*
X86745377Y-90267341D01*
X87233958Y-90064965D01*
X87332557Y-89798163D01*
X88689443Y-89798163D01*
X88788042Y-90064965D01*
X89397582Y-90291401D01*
X90047377Y-90267341D01*
X90535958Y-90064965D01*
X90634557Y-89798163D01*
X91991443Y-89798163D01*
X92090042Y-90064965D01*
X92699582Y-90291401D01*
X93349377Y-90267341D01*
X93837958Y-90064965D01*
X93936557Y-89798163D01*
X92964000Y-88825605D01*
X91991443Y-89798163D01*
X90634557Y-89798163D01*
X89662000Y-88825605D01*
X88689443Y-89798163D01*
X87332557Y-89798163D01*
X86360000Y-88825605D01*
X85387443Y-89798163D01*
X30174000Y-89798163D01*
X30174000Y-87234000D01*
X33286560Y-87234000D01*
X33286560Y-88534000D01*
X33330838Y-88769317D01*
X33469910Y-88985441D01*
X33682110Y-89130431D01*
X33934000Y-89181440D01*
X35234000Y-89181440D01*
X35469317Y-89137162D01*
X35685441Y-88998090D01*
X35830431Y-88785890D01*
X35881440Y-88534000D01*
X35881440Y-88338540D01*
X35993995Y-88610943D01*
X36355155Y-88972735D01*
X36827276Y-89168777D01*
X37338481Y-89169223D01*
X37810943Y-88974005D01*
X38172735Y-88612845D01*
X38368777Y-88140724D01*
X38369223Y-87629519D01*
X38205798Y-87234000D01*
X49034560Y-87234000D01*
X49034560Y-88534000D01*
X49078838Y-88769317D01*
X49217910Y-88985441D01*
X49430110Y-89130431D01*
X49682000Y-89181440D01*
X50982000Y-89181440D01*
X51217317Y-89137162D01*
X51433441Y-88998090D01*
X51578431Y-88785890D01*
X51629440Y-88534000D01*
X51629440Y-88338540D01*
X51741995Y-88610943D01*
X52103155Y-88972735D01*
X52575276Y-89168777D01*
X53086481Y-89169223D01*
X53558943Y-88974005D01*
X53920735Y-88612845D01*
X54116777Y-88140724D01*
X54117223Y-87629519D01*
X53953798Y-87234000D01*
X64234560Y-87234000D01*
X64234560Y-88534000D01*
X64278838Y-88769317D01*
X64417910Y-88985441D01*
X64630110Y-89130431D01*
X64882000Y-89181440D01*
X66182000Y-89181440D01*
X66417317Y-89137162D01*
X66633441Y-88998090D01*
X66778431Y-88785890D01*
X66829440Y-88534000D01*
X66829440Y-88338540D01*
X66941995Y-88610943D01*
X67303155Y-88972735D01*
X67775276Y-89168777D01*
X68286481Y-89169223D01*
X68758943Y-88974005D01*
X69120735Y-88612845D01*
X69216763Y-88381582D01*
X84714599Y-88381582D01*
X84738659Y-89031377D01*
X84941035Y-89519958D01*
X85207837Y-89618557D01*
X86180395Y-88646000D01*
X86539605Y-88646000D01*
X87512163Y-89618557D01*
X87778965Y-89519958D01*
X88005401Y-88910418D01*
X87985820Y-88381582D01*
X88016599Y-88381582D01*
X88040659Y-89031377D01*
X88243035Y-89519958D01*
X88509837Y-89618557D01*
X89482395Y-88646000D01*
X89841605Y-88646000D01*
X90814163Y-89618557D01*
X91080965Y-89519958D01*
X91307401Y-88910418D01*
X91287820Y-88381582D01*
X91318599Y-88381582D01*
X91342659Y-89031377D01*
X91545035Y-89519958D01*
X91811837Y-89618557D01*
X92784395Y-88646000D01*
X93143605Y-88646000D01*
X94116163Y-89618557D01*
X94382965Y-89519958D01*
X94609401Y-88910418D01*
X94585341Y-88260623D01*
X94382965Y-87772042D01*
X94116163Y-87673443D01*
X93143605Y-88646000D01*
X92784395Y-88646000D01*
X91811837Y-87673443D01*
X91545035Y-87772042D01*
X91318599Y-88381582D01*
X91287820Y-88381582D01*
X91283341Y-88260623D01*
X91080965Y-87772042D01*
X90814163Y-87673443D01*
X89841605Y-88646000D01*
X89482395Y-88646000D01*
X88509837Y-87673443D01*
X88243035Y-87772042D01*
X88016599Y-88381582D01*
X87985820Y-88381582D01*
X87981341Y-88260623D01*
X87778965Y-87772042D01*
X87512163Y-87673443D01*
X86539605Y-88646000D01*
X86180395Y-88646000D01*
X85207837Y-87673443D01*
X84941035Y-87772042D01*
X84714599Y-88381582D01*
X69216763Y-88381582D01*
X69316777Y-88140724D01*
X69317223Y-87629519D01*
X69261161Y-87493837D01*
X85387443Y-87493837D01*
X86360000Y-88466395D01*
X87332557Y-87493837D01*
X88689443Y-87493837D01*
X89662000Y-88466395D01*
X90634557Y-87493837D01*
X91991443Y-87493837D01*
X92964000Y-88466395D01*
X93936557Y-87493837D01*
X93837958Y-87227035D01*
X93228418Y-87000599D01*
X92578623Y-87024659D01*
X92090042Y-87227035D01*
X91991443Y-87493837D01*
X90634557Y-87493837D01*
X90535958Y-87227035D01*
X89926418Y-87000599D01*
X89276623Y-87024659D01*
X88788042Y-87227035D01*
X88689443Y-87493837D01*
X87332557Y-87493837D01*
X87233958Y-87227035D01*
X86624418Y-87000599D01*
X85974623Y-87024659D01*
X85486042Y-87227035D01*
X85387443Y-87493837D01*
X69261161Y-87493837D01*
X69122005Y-87157057D01*
X68760845Y-86795265D01*
X68288724Y-86599223D01*
X67777519Y-86598777D01*
X67305057Y-86793995D01*
X66943265Y-87155155D01*
X66829440Y-87429276D01*
X66829440Y-87234000D01*
X66785162Y-86998683D01*
X66646090Y-86782559D01*
X66433890Y-86637569D01*
X66182000Y-86586560D01*
X64882000Y-86586560D01*
X64646683Y-86630838D01*
X64430559Y-86769910D01*
X64285569Y-86982110D01*
X64234560Y-87234000D01*
X53953798Y-87234000D01*
X53922005Y-87157057D01*
X53560845Y-86795265D01*
X53088724Y-86599223D01*
X52577519Y-86598777D01*
X52105057Y-86793995D01*
X51743265Y-87155155D01*
X51629440Y-87429276D01*
X51629440Y-87234000D01*
X51585162Y-86998683D01*
X51446090Y-86782559D01*
X51233890Y-86637569D01*
X50982000Y-86586560D01*
X49682000Y-86586560D01*
X49446683Y-86630838D01*
X49230559Y-86769910D01*
X49085569Y-86982110D01*
X49034560Y-87234000D01*
X38205798Y-87234000D01*
X38174005Y-87157057D01*
X37812845Y-86795265D01*
X37340724Y-86599223D01*
X36829519Y-86598777D01*
X36357057Y-86793995D01*
X35995265Y-87155155D01*
X35881440Y-87429276D01*
X35881440Y-87234000D01*
X35837162Y-86998683D01*
X35698090Y-86782559D01*
X35485890Y-86637569D01*
X35234000Y-86586560D01*
X33934000Y-86586560D01*
X33698683Y-86630838D01*
X33482559Y-86769910D01*
X33337569Y-86982110D01*
X33286560Y-87234000D01*
X30174000Y-87234000D01*
X30174000Y-74384679D01*
X80264000Y-74384679D01*
X80264000Y-75475321D01*
X80370340Y-76009930D01*
X80673172Y-76463149D01*
X81126391Y-76765981D01*
X81661000Y-76872321D01*
X82195609Y-76765981D01*
X82648828Y-76463149D01*
X82931000Y-76040850D01*
X83213172Y-76463149D01*
X83666391Y-76765981D01*
X84201000Y-76872321D01*
X84735609Y-76765981D01*
X85188828Y-76463149D01*
X85471000Y-76040850D01*
X85753172Y-76463149D01*
X86206391Y-76765981D01*
X86637588Y-76851751D01*
X86036306Y-76851226D01*
X85435345Y-77099538D01*
X84975154Y-77558927D01*
X84725794Y-78159453D01*
X84725226Y-78809694D01*
X84973538Y-79410655D01*
X85432927Y-79870846D01*
X86033453Y-80120206D01*
X86683694Y-80120774D01*
X87284655Y-79872462D01*
X87744846Y-79413073D01*
X87994206Y-78812547D01*
X87994774Y-78162306D01*
X87746462Y-77561345D01*
X87287073Y-77101154D01*
X86731367Y-76870405D01*
X86741000Y-76872321D01*
X87275609Y-76765981D01*
X87728828Y-76463149D01*
X88011000Y-76040850D01*
X88293172Y-76463149D01*
X88746391Y-76765981D01*
X89281000Y-76872321D01*
X89293056Y-76869923D01*
X88737345Y-77099538D01*
X88277154Y-77558927D01*
X88027794Y-78159453D01*
X88027226Y-78809694D01*
X88275538Y-79410655D01*
X88734927Y-79870846D01*
X89335453Y-80120206D01*
X89985694Y-80120774D01*
X90586655Y-79872462D01*
X91046846Y-79413073D01*
X91296206Y-78812547D01*
X91296208Y-78809694D01*
X91329226Y-78809694D01*
X91577538Y-79410655D01*
X92036927Y-79870846D01*
X92637453Y-80120206D01*
X93287694Y-80120774D01*
X93888655Y-79872462D01*
X94348846Y-79413073D01*
X94598206Y-78812547D01*
X94598774Y-78162306D01*
X94350462Y-77561345D01*
X93891073Y-77101154D01*
X93290547Y-76851794D01*
X92640306Y-76851226D01*
X92039345Y-77099538D01*
X91579154Y-77558927D01*
X91329794Y-78159453D01*
X91329226Y-78809694D01*
X91296208Y-78809694D01*
X91296774Y-78162306D01*
X91048462Y-77561345D01*
X90589073Y-77101154D01*
X89988547Y-76851794D01*
X89386839Y-76851268D01*
X89815609Y-76765981D01*
X90268828Y-76463149D01*
X90551000Y-76040850D01*
X90833172Y-76463149D01*
X91286391Y-76765981D01*
X91821000Y-76872321D01*
X92355609Y-76765981D01*
X92808828Y-76463149D01*
X93091000Y-76040850D01*
X93373172Y-76463149D01*
X93826391Y-76765981D01*
X94361000Y-76872321D01*
X94895609Y-76765981D01*
X95348828Y-76463149D01*
X95631000Y-76040850D01*
X95913172Y-76463149D01*
X96366391Y-76765981D01*
X96901000Y-76872321D01*
X97435609Y-76765981D01*
X97888828Y-76463149D01*
X98171000Y-76040850D01*
X98453172Y-76463149D01*
X98906391Y-76765981D01*
X99335348Y-76851306D01*
X99244306Y-76851226D01*
X98643345Y-77099538D01*
X98183154Y-77558927D01*
X97933794Y-78159453D01*
X97933226Y-78809694D01*
X98057223Y-79109790D01*
X97859063Y-78911630D01*
X97900206Y-78812547D01*
X97900774Y-78162306D01*
X97652462Y-77561345D01*
X97193073Y-77101154D01*
X96592547Y-76851794D01*
X95942306Y-76851226D01*
X95341345Y-77099538D01*
X94881154Y-77558927D01*
X94631794Y-78159453D01*
X94631226Y-78809694D01*
X94879538Y-79410655D01*
X95338927Y-79870846D01*
X95939453Y-80120206D01*
X96589694Y-80120774D01*
X96691341Y-80078774D01*
X97116900Y-80504333D01*
X97116900Y-87229524D01*
X96592547Y-87011794D01*
X95942306Y-87011226D01*
X95341345Y-87259538D01*
X94881154Y-87718927D01*
X94631794Y-88319453D01*
X94631226Y-88969694D01*
X94879538Y-89570655D01*
X95338927Y-90030846D01*
X95440500Y-90073023D01*
X95440500Y-90652600D01*
X95503337Y-90968506D01*
X95682283Y-91236317D01*
X96825283Y-92379317D01*
X97093094Y-92558263D01*
X97409000Y-92621100D01*
X98501243Y-92621100D01*
X98817149Y-92558263D01*
X99084960Y-92379317D01*
X99226489Y-92237787D01*
X100037392Y-92237787D01*
X100838000Y-93038395D01*
X101638608Y-92237787D01*
X101569143Y-91995603D01*
X101045698Y-91808856D01*
X100490632Y-91836638D01*
X100106857Y-91995603D01*
X100037392Y-92237787D01*
X99226489Y-92237787D01*
X100151714Y-91312562D01*
X100151717Y-91312560D01*
X100293558Y-91100280D01*
X100330663Y-91044749D01*
X100393500Y-90728843D01*
X100393500Y-90073432D01*
X100492655Y-90032462D01*
X100727363Y-89798163D01*
X101897443Y-89798163D01*
X101996042Y-90064965D01*
X102605582Y-90291401D01*
X103255377Y-90267341D01*
X103743958Y-90064965D01*
X103842557Y-89798163D01*
X105199443Y-89798163D01*
X105298042Y-90064965D01*
X105907582Y-90291401D01*
X106557377Y-90267341D01*
X107045958Y-90064965D01*
X107144557Y-89798163D01*
X106172000Y-88825605D01*
X105199443Y-89798163D01*
X103842557Y-89798163D01*
X102870000Y-88825605D01*
X101897443Y-89798163D01*
X100727363Y-89798163D01*
X100952846Y-89573073D01*
X101202206Y-88972547D01*
X101202722Y-88381582D01*
X101224599Y-88381582D01*
X101248659Y-89031377D01*
X101451035Y-89519958D01*
X101717837Y-89618557D01*
X102690395Y-88646000D01*
X103049605Y-88646000D01*
X104022163Y-89618557D01*
X104288965Y-89519958D01*
X104515401Y-88910418D01*
X104495820Y-88381582D01*
X104526599Y-88381582D01*
X104550659Y-89031377D01*
X104753035Y-89519958D01*
X105019837Y-89618557D01*
X105992395Y-88646000D01*
X106351605Y-88646000D01*
X107324163Y-89618557D01*
X107590965Y-89519958D01*
X107817401Y-88910418D01*
X107797820Y-88381582D01*
X107828599Y-88381582D01*
X107852659Y-89031377D01*
X108055035Y-89519958D01*
X108321837Y-89618557D01*
X109294395Y-88646000D01*
X108321837Y-87673443D01*
X108055035Y-87772042D01*
X107828599Y-88381582D01*
X107797820Y-88381582D01*
X107793341Y-88260623D01*
X107590965Y-87772042D01*
X107324163Y-87673443D01*
X106351605Y-88646000D01*
X105992395Y-88646000D01*
X105019837Y-87673443D01*
X104753035Y-87772042D01*
X104526599Y-88381582D01*
X104495820Y-88381582D01*
X104491341Y-88260623D01*
X104288965Y-87772042D01*
X104022163Y-87673443D01*
X103049605Y-88646000D01*
X102690395Y-88646000D01*
X101717837Y-87673443D01*
X101451035Y-87772042D01*
X101224599Y-88381582D01*
X101202722Y-88381582D01*
X101202774Y-88322306D01*
X100954462Y-87721345D01*
X100727351Y-87493837D01*
X101897443Y-87493837D01*
X102870000Y-88466395D01*
X103842557Y-87493837D01*
X105199443Y-87493837D01*
X106172000Y-88466395D01*
X107144557Y-87493837D01*
X107045958Y-87227035D01*
X106436418Y-87000599D01*
X105786623Y-87024659D01*
X105298042Y-87227035D01*
X105199443Y-87493837D01*
X103842557Y-87493837D01*
X103743958Y-87227035D01*
X103134418Y-87000599D01*
X102484623Y-87024659D01*
X101996042Y-87227035D01*
X101897443Y-87493837D01*
X100727351Y-87493837D01*
X100495073Y-87261154D01*
X99894547Y-87011794D01*
X99244306Y-87011226D01*
X98767900Y-87208073D01*
X98767900Y-86485008D01*
X108483224Y-86485008D01*
X108637575Y-86858566D01*
X108886821Y-87108248D01*
X108600042Y-87227035D01*
X108501443Y-87493837D01*
X109474000Y-88466395D01*
X109488143Y-88452253D01*
X109667748Y-88631858D01*
X109653605Y-88646000D01*
X109667748Y-88660142D01*
X109488142Y-88839748D01*
X109474000Y-88825605D01*
X108501443Y-89798163D01*
X108600042Y-90064965D01*
X109209582Y-90291401D01*
X109859377Y-90267341D01*
X110347958Y-90064965D01*
X110426500Y-89852436D01*
X110426500Y-92093526D01*
X110068371Y-92451030D01*
X109988605Y-92643127D01*
X109934397Y-92512257D01*
X109692213Y-92442792D01*
X108891605Y-93243400D01*
X109692213Y-94044008D01*
X109934397Y-93974543D01*
X109984509Y-93834082D01*
X110066990Y-94033703D01*
X110459630Y-94427029D01*
X110972900Y-94640157D01*
X111528661Y-94640642D01*
X112042303Y-94428410D01*
X112435629Y-94035770D01*
X112521949Y-93827888D01*
X112606990Y-94033703D01*
X112999630Y-94427029D01*
X113512900Y-94640157D01*
X114068661Y-94640642D01*
X114260939Y-94561195D01*
X114366412Y-94816459D01*
X114630551Y-95081059D01*
X114975842Y-95224437D01*
X115349718Y-95224763D01*
X115695259Y-95081988D01*
X115959859Y-94817849D01*
X116073634Y-94543849D01*
X116378302Y-94652544D01*
X116933368Y-94624762D01*
X117317143Y-94465797D01*
X117386608Y-94223613D01*
X116586000Y-93423005D01*
X116571858Y-93437148D01*
X116392253Y-93257543D01*
X116406395Y-93243400D01*
X116392253Y-93229258D01*
X116571858Y-93049653D01*
X116586000Y-93063795D01*
X116600143Y-93049653D01*
X116779748Y-93229258D01*
X116765605Y-93243400D01*
X117566213Y-94044008D01*
X117808397Y-93974543D01*
X117858509Y-93834082D01*
X117940990Y-94033703D01*
X118333630Y-94427029D01*
X118846900Y-94640157D01*
X119402661Y-94640642D01*
X119916303Y-94428410D01*
X120309629Y-94035770D01*
X120395949Y-93827888D01*
X120480990Y-94033703D01*
X120873630Y-94427029D01*
X121386900Y-94640157D01*
X121942661Y-94640642D01*
X122456303Y-94428410D01*
X122849629Y-94035770D01*
X123062757Y-93522500D01*
X123062781Y-93494717D01*
X123274990Y-94008303D01*
X123667630Y-94401629D01*
X124180900Y-94614757D01*
X124736661Y-94615242D01*
X125250303Y-94403010D01*
X125643629Y-94010370D01*
X125729949Y-93802488D01*
X125814990Y-94008303D01*
X126207630Y-94401629D01*
X126614225Y-94570462D01*
X126443979Y-94740411D01*
X126288976Y-95113698D01*
X126288845Y-95264565D01*
X124998409Y-95264565D01*
X124723538Y-95150428D01*
X124349662Y-95150102D01*
X124004121Y-95292877D01*
X123739521Y-95557016D01*
X123596143Y-95902307D01*
X123595817Y-96276183D01*
X123738592Y-96621724D01*
X124002731Y-96886324D01*
X124348022Y-97029702D01*
X124721898Y-97030028D01*
X124998919Y-96915565D01*
X128421283Y-96915565D01*
X128737189Y-96852728D01*
X128847061Y-96779314D01*
X128895042Y-96799237D01*
X129268918Y-96799563D01*
X129614459Y-96656788D01*
X129879059Y-96392649D01*
X130022437Y-96047358D01*
X130022763Y-95673482D01*
X129879988Y-95327941D01*
X129871756Y-95319694D01*
X132731226Y-95319694D01*
X132979538Y-95920655D01*
X133438927Y-96380846D01*
X134039453Y-96630206D01*
X134689694Y-96630774D01*
X135290655Y-96382462D01*
X135750846Y-95923073D01*
X136000206Y-95322547D01*
X136000208Y-95319694D01*
X142891226Y-95319694D01*
X143139538Y-95920655D01*
X143598927Y-96380846D01*
X144199453Y-96630206D01*
X144849694Y-96630774D01*
X145450655Y-96382462D01*
X145910846Y-95923073D01*
X146160206Y-95322547D01*
X146160774Y-94672306D01*
X145912462Y-94071345D01*
X145453073Y-93611154D01*
X144852547Y-93361794D01*
X144202306Y-93361226D01*
X143601345Y-93609538D01*
X143141154Y-94068927D01*
X142891794Y-94669453D01*
X142891226Y-95319694D01*
X136000208Y-95319694D01*
X136000774Y-94672306D01*
X135752462Y-94071345D01*
X135293073Y-93611154D01*
X134692547Y-93361794D01*
X134042306Y-93361226D01*
X133441345Y-93609538D01*
X132981154Y-94068927D01*
X132731794Y-94669453D01*
X132731226Y-95319694D01*
X129871756Y-95319694D01*
X129615849Y-95063341D01*
X129270558Y-94919963D01*
X129005701Y-94919732D01*
X129310633Y-94614800D01*
X129816661Y-94615242D01*
X130330303Y-94403010D01*
X130723629Y-94010370D01*
X130936757Y-93497100D01*
X130937242Y-92941339D01*
X130897917Y-92846163D01*
X133393443Y-92846163D01*
X133492042Y-93112965D01*
X134101582Y-93339401D01*
X134751377Y-93315341D01*
X135239958Y-93112965D01*
X135338557Y-92846163D01*
X134366000Y-91873605D01*
X133393443Y-92846163D01*
X130897917Y-92846163D01*
X130725010Y-92427697D01*
X130332370Y-92034371D01*
X129819100Y-91821243D01*
X129263339Y-91820758D01*
X128749697Y-92032990D01*
X128356371Y-92425630D01*
X128270051Y-92633512D01*
X128185010Y-92427697D01*
X127792370Y-92034371D01*
X127279100Y-91821243D01*
X126723339Y-91820758D01*
X126209697Y-92032990D01*
X125816371Y-92425630D01*
X125730051Y-92633512D01*
X125645010Y-92427697D01*
X125252370Y-92034371D01*
X124739100Y-91821243D01*
X124183339Y-91820758D01*
X123669697Y-92032990D01*
X123276371Y-92425630D01*
X123063243Y-92938900D01*
X123063219Y-92966683D01*
X122851010Y-92453097D01*
X122458370Y-92059771D01*
X121945100Y-91846643D01*
X121389339Y-91846158D01*
X120875697Y-92058390D01*
X120482371Y-92451030D01*
X120396051Y-92658912D01*
X120311010Y-92453097D01*
X119918370Y-92059771D01*
X119405100Y-91846643D01*
X118896233Y-91846199D01*
X118579900Y-91529866D01*
X118579900Y-91429582D01*
X132720599Y-91429582D01*
X132744659Y-92079377D01*
X132947035Y-92567958D01*
X133213837Y-92666557D01*
X134186395Y-91694000D01*
X134545605Y-91694000D01*
X135518163Y-92666557D01*
X135784965Y-92567958D01*
X136011401Y-91958418D01*
X135987341Y-91308623D01*
X135784965Y-90820042D01*
X135518163Y-90721443D01*
X134545605Y-91694000D01*
X134186395Y-91694000D01*
X133213837Y-90721443D01*
X132947035Y-90820042D01*
X132720599Y-91429582D01*
X118579900Y-91429582D01*
X118579900Y-90541837D01*
X133393443Y-90541837D01*
X134366000Y-91514395D01*
X135338557Y-90541837D01*
X135239958Y-90275035D01*
X134630418Y-90048599D01*
X133980623Y-90072659D01*
X133492042Y-90275035D01*
X133393443Y-90541837D01*
X118579900Y-90541837D01*
X118579900Y-90083570D01*
X119053453Y-90280206D01*
X119703694Y-90280774D01*
X120304655Y-90032462D01*
X120764846Y-89573073D01*
X121014206Y-88972547D01*
X121014208Y-88969694D01*
X121047226Y-88969694D01*
X121295538Y-89570655D01*
X121754927Y-90030846D01*
X122355453Y-90280206D01*
X123005694Y-90280774D01*
X123606655Y-90032462D01*
X124066846Y-89573073D01*
X124316206Y-88972547D01*
X124316208Y-88969694D01*
X124349226Y-88969694D01*
X124597538Y-89570655D01*
X125056927Y-90030846D01*
X125657453Y-90280206D01*
X126307694Y-90280774D01*
X126908655Y-90032462D01*
X127368846Y-89573073D01*
X127423389Y-89441718D01*
X136524837Y-89441718D01*
X136667612Y-89787259D01*
X136931751Y-90051859D01*
X137208571Y-90166805D01*
X138835295Y-91793529D01*
X138877412Y-91895459D01*
X139141551Y-92160059D01*
X139486842Y-92303437D01*
X139860718Y-92303763D01*
X140206259Y-92160988D01*
X140470859Y-91896849D01*
X140614237Y-91551558D01*
X140614563Y-91177682D01*
X140471788Y-90832141D01*
X140207649Y-90567541D01*
X139862358Y-90424163D01*
X139800743Y-90424109D01*
X138375645Y-88999011D01*
X138323119Y-88871887D01*
X141313000Y-88871887D01*
X141313000Y-88928113D01*
X141422233Y-89477264D01*
X141733302Y-89942811D01*
X142198849Y-90253880D01*
X142748000Y-90363113D01*
X143297151Y-90253880D01*
X143762698Y-89942811D01*
X144018000Y-89560725D01*
X144273302Y-89942811D01*
X144447850Y-90059440D01*
X144202306Y-90059226D01*
X143601345Y-90307538D01*
X143141154Y-90766927D01*
X142891794Y-91367453D01*
X142891226Y-92017694D01*
X143139538Y-92618655D01*
X143598927Y-93078846D01*
X144199453Y-93328206D01*
X144849694Y-93328774D01*
X145450655Y-93080462D01*
X145910846Y-92621073D01*
X146160206Y-92020547D01*
X146160215Y-92010000D01*
X146226560Y-92010000D01*
X146226560Y-93410000D01*
X146270838Y-93645317D01*
X146409910Y-93861441D01*
X146622110Y-94006431D01*
X146874000Y-94057440D01*
X148274000Y-94057440D01*
X148509317Y-94013162D01*
X148725441Y-93874090D01*
X148870431Y-93661890D01*
X148873795Y-93645275D01*
X151818331Y-93645275D01*
X151880169Y-93881042D01*
X152381122Y-94057419D01*
X152911440Y-94028664D01*
X153267831Y-93881042D01*
X153329669Y-93645275D01*
X152574000Y-92889605D01*
X151818331Y-93645275D01*
X148873795Y-93645275D01*
X148921440Y-93410000D01*
X148921440Y-92517122D01*
X151226581Y-92517122D01*
X151255336Y-93047440D01*
X151402958Y-93403831D01*
X151638725Y-93465669D01*
X152394395Y-92710000D01*
X151638725Y-91954331D01*
X151402958Y-92016169D01*
X151226581Y-92517122D01*
X148921440Y-92517122D01*
X148921440Y-92010000D01*
X148877170Y-91774725D01*
X151818331Y-91774725D01*
X152574000Y-92530395D01*
X153329669Y-91774725D01*
X153267831Y-91538958D01*
X152766878Y-91362581D01*
X152236560Y-91391336D01*
X151880169Y-91538958D01*
X151818331Y-91774725D01*
X148877170Y-91774725D01*
X148877162Y-91774683D01*
X148738090Y-91558559D01*
X148525890Y-91413569D01*
X148274000Y-91362560D01*
X146874000Y-91362560D01*
X146638683Y-91406838D01*
X146422559Y-91545910D01*
X146277569Y-91758110D01*
X146226560Y-92010000D01*
X146160215Y-92010000D01*
X146160774Y-91370306D01*
X145912462Y-90769345D01*
X145470667Y-90326778D01*
X145837151Y-90253880D01*
X146302698Y-89942811D01*
X146558000Y-89560725D01*
X146813302Y-89942811D01*
X147278849Y-90253880D01*
X147828000Y-90363113D01*
X148377151Y-90253880D01*
X148842698Y-89942811D01*
X149112986Y-89538297D01*
X149215611Y-89755134D01*
X149630577Y-90131041D01*
X150018961Y-90291904D01*
X150241000Y-90169915D01*
X150241000Y-89027000D01*
X150495000Y-89027000D01*
X150495000Y-90169915D01*
X150717039Y-90291904D01*
X151105423Y-90131041D01*
X151520389Y-89755134D01*
X151759914Y-89249041D01*
X151638629Y-89027000D01*
X150495000Y-89027000D01*
X150241000Y-89027000D01*
X150221000Y-89027000D01*
X150221000Y-88773000D01*
X150241000Y-88773000D01*
X150241000Y-87630085D01*
X150495000Y-87630085D01*
X150495000Y-88773000D01*
X151638629Y-88773000D01*
X151759914Y-88550959D01*
X151520389Y-88044866D01*
X151105423Y-87668959D01*
X150717039Y-87508096D01*
X150495000Y-87630085D01*
X150241000Y-87630085D01*
X150018961Y-87508096D01*
X149630577Y-87668959D01*
X149215611Y-88044866D01*
X149112986Y-88261703D01*
X148842698Y-87857189D01*
X148377151Y-87546120D01*
X147828000Y-87436887D01*
X147278849Y-87546120D01*
X146813302Y-87857189D01*
X146558000Y-88239275D01*
X146302698Y-87857189D01*
X145837151Y-87546120D01*
X145288000Y-87436887D01*
X144738849Y-87546120D01*
X144273302Y-87857189D01*
X144018000Y-88239275D01*
X143762698Y-87857189D01*
X143297151Y-87546120D01*
X142748000Y-87436887D01*
X142198849Y-87546120D01*
X141733302Y-87857189D01*
X141422233Y-88322736D01*
X141313000Y-88871887D01*
X138323119Y-88871887D01*
X138275556Y-88756778D01*
X138361831Y-88721042D01*
X138423669Y-88485275D01*
X137668000Y-87729605D01*
X136943456Y-88454150D01*
X136933141Y-88458412D01*
X136668541Y-88722551D01*
X136525163Y-89067842D01*
X136524837Y-89441718D01*
X127423389Y-89441718D01*
X127618206Y-88972547D01*
X127618774Y-88322306D01*
X127370462Y-87721345D01*
X127006874Y-87357122D01*
X136320581Y-87357122D01*
X136349336Y-87887440D01*
X136496958Y-88243831D01*
X136732725Y-88305669D01*
X137488395Y-87550000D01*
X137847605Y-87550000D01*
X138603275Y-88305669D01*
X138839042Y-88243831D01*
X139015419Y-87742878D01*
X138986664Y-87212560D01*
X138839042Y-86856169D01*
X138603275Y-86794331D01*
X137847605Y-87550000D01*
X137488395Y-87550000D01*
X136732725Y-86794331D01*
X136496958Y-86856169D01*
X136320581Y-87357122D01*
X127006874Y-87357122D01*
X126911073Y-87261154D01*
X126310547Y-87011794D01*
X125660306Y-87011226D01*
X125059345Y-87259538D01*
X124599154Y-87718927D01*
X124349794Y-88319453D01*
X124349226Y-88969694D01*
X124316208Y-88969694D01*
X124316774Y-88322306D01*
X124068462Y-87721345D01*
X123609073Y-87261154D01*
X123008547Y-87011794D01*
X122358306Y-87011226D01*
X121757345Y-87259538D01*
X121297154Y-87718927D01*
X121047794Y-88319453D01*
X121047226Y-88969694D01*
X121014208Y-88969694D01*
X121014774Y-88322306D01*
X120766462Y-87721345D01*
X120307073Y-87261154D01*
X119706547Y-87011794D01*
X119056306Y-87011226D01*
X118525691Y-87230472D01*
X118517063Y-87187094D01*
X118408527Y-87024659D01*
X118338117Y-86919283D01*
X118338114Y-86919281D01*
X118033559Y-86614725D01*
X136912331Y-86614725D01*
X137668000Y-87370395D01*
X138423669Y-86614725D01*
X138361831Y-86378958D01*
X137860878Y-86202581D01*
X137330560Y-86231336D01*
X136974169Y-86378958D01*
X136912331Y-86614725D01*
X118033559Y-86614725D01*
X117640889Y-86222055D01*
X117373078Y-86043109D01*
X117057172Y-85980272D01*
X111964024Y-85980272D01*
X111928765Y-85944951D01*
X111555478Y-85789948D01*
X111151288Y-85789596D01*
X110777730Y-85943947D01*
X110539448Y-86181814D01*
X110515510Y-86157877D01*
X110515576Y-86082592D01*
X110361225Y-85709034D01*
X110075669Y-85422979D01*
X109702382Y-85267976D01*
X109298192Y-85267624D01*
X108924634Y-85421975D01*
X108638579Y-85707531D01*
X108483576Y-86080818D01*
X108483224Y-86485008D01*
X98767900Y-86485008D01*
X98767900Y-81850000D01*
X136320560Y-81850000D01*
X136320560Y-83250000D01*
X136364838Y-83485317D01*
X136503910Y-83701441D01*
X136716110Y-83846431D01*
X136968000Y-83897440D01*
X138368000Y-83897440D01*
X138603317Y-83853162D01*
X138819441Y-83714090D01*
X138964431Y-83501890D01*
X139015440Y-83250000D01*
X139015440Y-81850000D01*
X138971162Y-81614683D01*
X138832090Y-81398559D01*
X138619890Y-81253569D01*
X138368000Y-81202560D01*
X136968000Y-81202560D01*
X136732683Y-81246838D01*
X136516559Y-81385910D01*
X136371569Y-81598110D01*
X136320560Y-81850000D01*
X98767900Y-81850000D01*
X98767900Y-80162405D01*
X98767901Y-80162400D01*
X98716117Y-79902068D01*
X99241453Y-80120206D01*
X99891694Y-80120774D01*
X100492655Y-79872462D01*
X100952846Y-79413073D01*
X101202206Y-78812547D01*
X101202208Y-78809694D01*
X101235226Y-78809694D01*
X101483538Y-79410655D01*
X101942927Y-79870846D01*
X102543453Y-80120206D01*
X103193694Y-80120774D01*
X103794655Y-79872462D01*
X104254846Y-79413073D01*
X104504206Y-78812547D01*
X104504774Y-78162306D01*
X104256462Y-77561345D01*
X103797073Y-77101154D01*
X103196547Y-76851794D01*
X102546306Y-76851226D01*
X101945345Y-77099538D01*
X101485154Y-77558927D01*
X101235794Y-78159453D01*
X101235226Y-78809694D01*
X101202208Y-78809694D01*
X101202774Y-78162306D01*
X100954462Y-77561345D01*
X100495073Y-77101154D01*
X99894547Y-76851794D01*
X99545728Y-76851489D01*
X99975609Y-76765981D01*
X100428828Y-76463149D01*
X100731660Y-76009930D01*
X100838000Y-75475321D01*
X100838000Y-74384679D01*
X102108000Y-74384679D01*
X102108000Y-75475321D01*
X102214340Y-76009930D01*
X102517172Y-76463149D01*
X102970391Y-76765981D01*
X103505000Y-76872321D01*
X104039609Y-76765981D01*
X104492828Y-76463149D01*
X104775000Y-76040850D01*
X105057172Y-76463149D01*
X105510391Y-76765981D01*
X105939348Y-76851306D01*
X105848306Y-76851226D01*
X105247345Y-77099538D01*
X104787154Y-77558927D01*
X104537794Y-78159453D01*
X104537226Y-78809694D01*
X104785538Y-79410655D01*
X105244927Y-79870846D01*
X105845453Y-80120206D01*
X106495694Y-80120774D01*
X107096655Y-79872462D01*
X107556846Y-79413073D01*
X107806206Y-78812547D01*
X107806208Y-78809694D01*
X107839226Y-78809694D01*
X108087538Y-79410655D01*
X108546927Y-79870846D01*
X109147453Y-80120206D01*
X109797694Y-80120774D01*
X110398655Y-79872462D01*
X110858846Y-79413073D01*
X111108206Y-78812547D01*
X111108208Y-78809694D01*
X111141226Y-78809694D01*
X111389538Y-79410655D01*
X111848927Y-79870846D01*
X112449453Y-80120206D01*
X113099694Y-80120774D01*
X113700655Y-79872462D01*
X114160846Y-79413073D01*
X114410206Y-78812547D01*
X114410774Y-78162306D01*
X114162462Y-77561345D01*
X113703073Y-77101154D01*
X113102547Y-76851794D01*
X112452306Y-76851226D01*
X111851345Y-77099538D01*
X111391154Y-77558927D01*
X111141794Y-78159453D01*
X111141226Y-78809694D01*
X111108208Y-78809694D01*
X111108774Y-78162306D01*
X110860462Y-77561345D01*
X110401073Y-77101154D01*
X109800547Y-76851794D01*
X109150306Y-76851226D01*
X108549345Y-77099538D01*
X108089154Y-77558927D01*
X107839794Y-78159453D01*
X107839226Y-78809694D01*
X107806208Y-78809694D01*
X107806774Y-78162306D01*
X107558462Y-77561345D01*
X107099073Y-77101154D01*
X106498547Y-76851794D01*
X106149728Y-76851489D01*
X106579609Y-76765981D01*
X107032828Y-76463149D01*
X107315000Y-76040850D01*
X107597172Y-76463149D01*
X108050391Y-76765981D01*
X108585000Y-76872321D01*
X109119609Y-76765981D01*
X109572828Y-76463149D01*
X109855000Y-76040850D01*
X110137172Y-76463149D01*
X110590391Y-76765981D01*
X111125000Y-76872321D01*
X111659609Y-76765981D01*
X112112828Y-76463149D01*
X112395000Y-76040850D01*
X112677172Y-76463149D01*
X113130391Y-76765981D01*
X113665000Y-76872321D01*
X114199609Y-76765981D01*
X114652828Y-76463149D01*
X114935000Y-76040850D01*
X115217172Y-76463149D01*
X115670391Y-76765981D01*
X116100468Y-76851528D01*
X115754306Y-76851226D01*
X115153345Y-77099538D01*
X114693154Y-77558927D01*
X114443794Y-78159453D01*
X114443226Y-78809694D01*
X114691538Y-79410655D01*
X115150927Y-79870846D01*
X115751453Y-80120206D01*
X116401694Y-80120774D01*
X117002655Y-79872462D01*
X117462846Y-79413073D01*
X117712206Y-78812547D01*
X117712208Y-78809694D01*
X117745226Y-78809694D01*
X117993538Y-79410655D01*
X118452927Y-79870846D01*
X119053453Y-80120206D01*
X119703694Y-80120774D01*
X120304655Y-79872462D01*
X120764846Y-79413073D01*
X121014206Y-78812547D01*
X121014208Y-78809694D01*
X121047226Y-78809694D01*
X121295538Y-79410655D01*
X121754927Y-79870846D01*
X122355453Y-80120206D01*
X123005694Y-80120774D01*
X123606655Y-79872462D01*
X124066846Y-79413073D01*
X124316206Y-78812547D01*
X124316208Y-78809694D01*
X124349226Y-78809694D01*
X124597538Y-79410655D01*
X125056927Y-79870846D01*
X125657453Y-80120206D01*
X126307694Y-80120774D01*
X126908655Y-79872462D01*
X127143363Y-79638163D01*
X133393443Y-79638163D01*
X133492042Y-79904965D01*
X134101582Y-80131401D01*
X134751377Y-80107341D01*
X135239958Y-79904965D01*
X135338557Y-79638163D01*
X134366000Y-78665605D01*
X133393443Y-79638163D01*
X127143363Y-79638163D01*
X127368846Y-79413073D01*
X127618206Y-78812547D01*
X127618722Y-78221582D01*
X132720599Y-78221582D01*
X132744659Y-78871377D01*
X132947035Y-79359958D01*
X133213837Y-79458557D01*
X134186395Y-78486000D01*
X134545605Y-78486000D01*
X135518163Y-79458557D01*
X135784965Y-79359958D01*
X136011401Y-78750418D01*
X135987341Y-78100623D01*
X135784965Y-77612042D01*
X135518163Y-77513443D01*
X134545605Y-78486000D01*
X134186395Y-78486000D01*
X133213837Y-77513443D01*
X132947035Y-77612042D01*
X132720599Y-78221582D01*
X127618722Y-78221582D01*
X127618774Y-78162306D01*
X127370462Y-77561345D01*
X127143351Y-77333837D01*
X133393443Y-77333837D01*
X134366000Y-78306395D01*
X135338557Y-77333837D01*
X135239958Y-77067035D01*
X134630418Y-76840599D01*
X133980623Y-76864659D01*
X133492042Y-77067035D01*
X133393443Y-77333837D01*
X127143351Y-77333837D01*
X126911073Y-77101154D01*
X126310547Y-76851794D01*
X125660306Y-76851226D01*
X125059345Y-77099538D01*
X124599154Y-77558927D01*
X124349794Y-78159453D01*
X124349226Y-78809694D01*
X124316208Y-78809694D01*
X124316774Y-78162306D01*
X124068462Y-77561345D01*
X123609073Y-77101154D01*
X123008547Y-76851794D01*
X122358306Y-76851226D01*
X121757345Y-77099538D01*
X121297154Y-77558927D01*
X121047794Y-78159453D01*
X121047226Y-78809694D01*
X121014208Y-78809694D01*
X121014774Y-78162306D01*
X120766462Y-77561345D01*
X120307073Y-77101154D01*
X119706547Y-76851794D01*
X119056306Y-76851226D01*
X118455345Y-77099538D01*
X117995154Y-77558927D01*
X117745794Y-78159453D01*
X117745226Y-78809694D01*
X117712208Y-78809694D01*
X117712774Y-78162306D01*
X117464462Y-77561345D01*
X117005073Y-77101154D01*
X116404547Y-76851794D01*
X116308618Y-76851710D01*
X116739609Y-76765981D01*
X117192828Y-76463149D01*
X117475000Y-76040850D01*
X117757172Y-76463149D01*
X118210391Y-76765981D01*
X118745000Y-76872321D01*
X119279609Y-76765981D01*
X119732828Y-76463149D01*
X120015000Y-76040850D01*
X120297172Y-76463149D01*
X120750391Y-76765981D01*
X121285000Y-76872321D01*
X121819609Y-76765981D01*
X122272828Y-76463149D01*
X122575660Y-76009930D01*
X122682000Y-75475321D01*
X122682000Y-74384679D01*
X122575660Y-73850070D01*
X122272828Y-73396851D01*
X121819609Y-73094019D01*
X121285000Y-72987679D01*
X120750391Y-73094019D01*
X120297172Y-73396851D01*
X120015000Y-73819150D01*
X119732828Y-73396851D01*
X119279609Y-73094019D01*
X118745000Y-72987679D01*
X118210391Y-73094019D01*
X117757172Y-73396851D01*
X117475000Y-73819150D01*
X117192828Y-73396851D01*
X116739609Y-73094019D01*
X116205000Y-72987679D01*
X115670391Y-73094019D01*
X115217172Y-73396851D01*
X114935000Y-73819150D01*
X114652828Y-73396851D01*
X114199609Y-73094019D01*
X113665000Y-72987679D01*
X113130391Y-73094019D01*
X112677172Y-73396851D01*
X112395000Y-73819150D01*
X112112828Y-73396851D01*
X111659609Y-73094019D01*
X111125000Y-72987679D01*
X110590391Y-73094019D01*
X110137172Y-73396851D01*
X109855000Y-73819150D01*
X109572828Y-73396851D01*
X109119609Y-73094019D01*
X108585000Y-72987679D01*
X108050391Y-73094019D01*
X107597172Y-73396851D01*
X107315000Y-73819150D01*
X107032828Y-73396851D01*
X106579609Y-73094019D01*
X106045000Y-72987679D01*
X105510391Y-73094019D01*
X105057172Y-73396851D01*
X104775000Y-73819150D01*
X104492828Y-73396851D01*
X104039609Y-73094019D01*
X103505000Y-72987679D01*
X102970391Y-73094019D01*
X102517172Y-73396851D01*
X102214340Y-73850070D01*
X102108000Y-74384679D01*
X100838000Y-74384679D01*
X100731660Y-73850070D01*
X100428828Y-73396851D01*
X99975609Y-73094019D01*
X99441000Y-72987679D01*
X98906391Y-73094019D01*
X98453172Y-73396851D01*
X98171000Y-73819150D01*
X97888828Y-73396851D01*
X97435609Y-73094019D01*
X96901000Y-72987679D01*
X96366391Y-73094019D01*
X95913172Y-73396851D01*
X95631000Y-73819150D01*
X95348828Y-73396851D01*
X94895609Y-73094019D01*
X94361000Y-72987679D01*
X93826391Y-73094019D01*
X93373172Y-73396851D01*
X93091000Y-73819150D01*
X92808828Y-73396851D01*
X92355609Y-73094019D01*
X91821000Y-72987679D01*
X91286391Y-73094019D01*
X90833172Y-73396851D01*
X90551000Y-73819150D01*
X90268828Y-73396851D01*
X89815609Y-73094019D01*
X89281000Y-72987679D01*
X88746391Y-73094019D01*
X88293172Y-73396851D01*
X88011000Y-73819150D01*
X87728828Y-73396851D01*
X87275609Y-73094019D01*
X86741000Y-72987679D01*
X86206391Y-73094019D01*
X85753172Y-73396851D01*
X85471000Y-73819150D01*
X85188828Y-73396851D01*
X84735609Y-73094019D01*
X84201000Y-72987679D01*
X83666391Y-73094019D01*
X83213172Y-73396851D01*
X82931000Y-73819150D01*
X82648828Y-73396851D01*
X82195609Y-73094019D01*
X81661000Y-72987679D01*
X81126391Y-73094019D01*
X80673172Y-73396851D01*
X80370340Y-73850070D01*
X80264000Y-74384679D01*
X30174000Y-74384679D01*
X30174000Y-68473320D01*
X31337250Y-68473320D01*
X31496000Y-68314570D01*
X31496000Y-66215260D01*
X31750000Y-66215260D01*
X31750000Y-68314570D01*
X31908750Y-68473320D01*
X33499370Y-68473320D01*
X33732759Y-68376647D01*
X33911387Y-68198018D01*
X33924500Y-68166360D01*
X33924500Y-70838060D01*
X33968778Y-71073377D01*
X34107850Y-71289501D01*
X34320050Y-71434491D01*
X34571940Y-71485500D01*
X38072060Y-71485500D01*
X38307377Y-71441222D01*
X38523501Y-71302150D01*
X38668491Y-71089950D01*
X38688124Y-70993000D01*
X100099624Y-70993000D01*
X100828636Y-70847991D01*
X101446662Y-70435038D01*
X102801038Y-69080662D01*
X102944638Y-68865750D01*
X106553000Y-68865750D01*
X106553000Y-69722309D01*
X106649673Y-69955698D01*
X106828301Y-70134327D01*
X107061690Y-70231000D01*
X107918250Y-70231000D01*
X108077000Y-70072250D01*
X108077000Y-68707000D01*
X106711750Y-68707000D01*
X106553000Y-68865750D01*
X102944638Y-68865750D01*
X103213991Y-68462636D01*
X103253483Y-68264095D01*
X103359000Y-67733624D01*
X103359000Y-67437691D01*
X106553000Y-67437691D01*
X106553000Y-68294250D01*
X106711750Y-68453000D01*
X108077000Y-68453000D01*
X108077000Y-67087750D01*
X108331000Y-67087750D01*
X108331000Y-68453000D01*
X108351000Y-68453000D01*
X108351000Y-68707000D01*
X108331000Y-68707000D01*
X108331000Y-70072250D01*
X108489750Y-70231000D01*
X109346310Y-70231000D01*
X109579699Y-70134327D01*
X109758327Y-69955698D01*
X109775999Y-69913034D01*
X110112190Y-70137670D01*
X110744000Y-70263345D01*
X111375810Y-70137670D01*
X111911433Y-69779778D01*
X112269325Y-69244155D01*
X112344594Y-68865750D01*
X113665000Y-68865750D01*
X113665000Y-69722309D01*
X113761673Y-69955698D01*
X113940301Y-70134327D01*
X114173690Y-70231000D01*
X115030250Y-70231000D01*
X115189000Y-70072250D01*
X115189000Y-68707000D01*
X113823750Y-68707000D01*
X113665000Y-68865750D01*
X112344594Y-68865750D01*
X112395000Y-68612345D01*
X112395000Y-68547655D01*
X112269325Y-67915845D01*
X111949833Y-67437691D01*
X113665000Y-67437691D01*
X113665000Y-68294250D01*
X113823750Y-68453000D01*
X115189000Y-68453000D01*
X115189000Y-67087750D01*
X115443000Y-67087750D01*
X115443000Y-68453000D01*
X115463000Y-68453000D01*
X115463000Y-68707000D01*
X115443000Y-68707000D01*
X115443000Y-70072250D01*
X115601750Y-70231000D01*
X116458310Y-70231000D01*
X116691699Y-70134327D01*
X116870327Y-69955698D01*
X116887999Y-69913034D01*
X117224190Y-70137670D01*
X117856000Y-70263345D01*
X118487810Y-70137670D01*
X119023433Y-69779778D01*
X119381325Y-69244155D01*
X119456594Y-68865750D01*
X120929400Y-68865750D01*
X120929400Y-69722309D01*
X121026073Y-69955698D01*
X121204701Y-70134327D01*
X121438090Y-70231000D01*
X122142250Y-70231000D01*
X122301000Y-70072250D01*
X122301000Y-68707000D01*
X121088150Y-68707000D01*
X120929400Y-68865750D01*
X119456594Y-68865750D01*
X119507000Y-68612345D01*
X119507000Y-68547655D01*
X119381325Y-67915845D01*
X119061833Y-67437691D01*
X120929400Y-67437691D01*
X120929400Y-68294250D01*
X121088150Y-68453000D01*
X122301000Y-68453000D01*
X122301000Y-67087750D01*
X122555000Y-67087750D01*
X122555000Y-68453000D01*
X122575000Y-68453000D01*
X122575000Y-68707000D01*
X122555000Y-68707000D01*
X122555000Y-70072250D01*
X122713750Y-70231000D01*
X123417910Y-70231000D01*
X123651299Y-70134327D01*
X123829927Y-69955698D01*
X123893500Y-69802220D01*
X123908330Y-69824415D01*
X124142500Y-69980883D01*
X124142500Y-73329800D01*
X124205337Y-73645706D01*
X124384283Y-73913517D01*
X126237867Y-75767101D01*
X126237824Y-75817008D01*
X126392175Y-76190566D01*
X126677731Y-76476621D01*
X127051018Y-76631624D01*
X127455208Y-76631976D01*
X127828766Y-76477625D01*
X128114821Y-76192069D01*
X128269824Y-75818782D01*
X128270094Y-75507694D01*
X132731226Y-75507694D01*
X132979538Y-76108655D01*
X133438927Y-76568846D01*
X134039453Y-76818206D01*
X134689694Y-76818774D01*
X135290655Y-76570462D01*
X135750846Y-76111073D01*
X136000206Y-75510547D01*
X136000774Y-74860306D01*
X135752462Y-74259345D01*
X135293073Y-73799154D01*
X134692547Y-73549794D01*
X134042306Y-73549226D01*
X133441345Y-73797538D01*
X132981154Y-74256927D01*
X132731794Y-74857453D01*
X132731226Y-75507694D01*
X128270094Y-75507694D01*
X128270176Y-75414592D01*
X128115825Y-75041034D01*
X127830269Y-74754979D01*
X127456982Y-74599976D01*
X127405565Y-74599931D01*
X125793500Y-72987866D01*
X125793500Y-69980883D01*
X126027670Y-69824415D01*
X126238000Y-69509634D01*
X126448330Y-69824415D01*
X126934511Y-70149271D01*
X127508000Y-70263345D01*
X128081489Y-70149271D01*
X128567670Y-69824415D01*
X128892526Y-69338234D01*
X129006600Y-68764745D01*
X129006600Y-68395255D01*
X128892526Y-67821766D01*
X128567670Y-67335585D01*
X128081489Y-67010729D01*
X127508000Y-66896655D01*
X126934511Y-67010729D01*
X126448330Y-67335585D01*
X126238000Y-67650366D01*
X126027670Y-67335585D01*
X125541489Y-67010729D01*
X124968000Y-66896655D01*
X124394511Y-67010729D01*
X123908330Y-67335585D01*
X123893500Y-67357780D01*
X123829927Y-67204302D01*
X123651299Y-67025673D01*
X123417910Y-66929000D01*
X122713750Y-66929000D01*
X122555000Y-67087750D01*
X122301000Y-67087750D01*
X122142250Y-66929000D01*
X121438090Y-66929000D01*
X121204701Y-67025673D01*
X121026073Y-67204302D01*
X120929400Y-67437691D01*
X119061833Y-67437691D01*
X119023433Y-67380222D01*
X118487810Y-67022330D01*
X117856000Y-66896655D01*
X117224190Y-67022330D01*
X116887999Y-67246966D01*
X116870327Y-67204302D01*
X116691699Y-67025673D01*
X116458310Y-66929000D01*
X115601750Y-66929000D01*
X115443000Y-67087750D01*
X115189000Y-67087750D01*
X115030250Y-66929000D01*
X114173690Y-66929000D01*
X113940301Y-67025673D01*
X113761673Y-67204302D01*
X113665000Y-67437691D01*
X111949833Y-67437691D01*
X111911433Y-67380222D01*
X111375810Y-67022330D01*
X110744000Y-66896655D01*
X110112190Y-67022330D01*
X109775999Y-67246966D01*
X109758327Y-67204302D01*
X109579699Y-67025673D01*
X109346310Y-66929000D01*
X108489750Y-66929000D01*
X108331000Y-67087750D01*
X108077000Y-67087750D01*
X107918250Y-66929000D01*
X107061690Y-66929000D01*
X106828301Y-67025673D01*
X106649673Y-67204302D01*
X106553000Y-67437691D01*
X103359000Y-67437691D01*
X103359000Y-64262000D01*
X103213991Y-63532988D01*
X102801038Y-62914962D01*
X102183012Y-62502009D01*
X101454000Y-62357000D01*
X100724988Y-62502009D01*
X100106962Y-62914962D01*
X99694009Y-63532988D01*
X99549000Y-64262000D01*
X99549000Y-66944548D01*
X99310548Y-67183000D01*
X98359000Y-67183000D01*
X98359000Y-64262000D01*
X98213991Y-63532988D01*
X97801038Y-62914962D01*
X97183012Y-62502009D01*
X96454000Y-62357000D01*
X95724988Y-62502009D01*
X95106962Y-62914962D01*
X94694009Y-63532988D01*
X94549000Y-64262000D01*
X94549000Y-67183000D01*
X93359000Y-67183000D01*
X93359000Y-64262000D01*
X93213991Y-63532988D01*
X92801038Y-62914962D01*
X92183012Y-62502009D01*
X91454000Y-62357000D01*
X90724988Y-62502009D01*
X90106962Y-62914962D01*
X89694009Y-63532988D01*
X89549000Y-64262000D01*
X89549000Y-67183000D01*
X71689000Y-67183000D01*
X71689000Y-64595697D01*
X74768708Y-64595697D01*
X75024694Y-65215229D01*
X75498278Y-65689640D01*
X76117362Y-65946707D01*
X76787697Y-65947292D01*
X77407229Y-65691306D01*
X77881640Y-65217722D01*
X78138707Y-64598638D01*
X78138709Y-64595697D01*
X79768708Y-64595697D01*
X80024694Y-65215229D01*
X80498278Y-65689640D01*
X81117362Y-65946707D01*
X81787697Y-65947292D01*
X82407229Y-65691306D01*
X82881640Y-65217722D01*
X83138707Y-64598638D01*
X83138709Y-64595697D01*
X84768708Y-64595697D01*
X85024694Y-65215229D01*
X85498278Y-65689640D01*
X86117362Y-65946707D01*
X86787697Y-65947292D01*
X87407229Y-65691306D01*
X87881640Y-65217722D01*
X88138707Y-64598638D01*
X88139292Y-63928303D01*
X87883306Y-63308771D01*
X87409722Y-62834360D01*
X86790638Y-62577293D01*
X86120303Y-62576708D01*
X85500771Y-62832694D01*
X85026360Y-63306278D01*
X84769293Y-63925362D01*
X84768708Y-64595697D01*
X83138709Y-64595697D01*
X83139292Y-63928303D01*
X82883306Y-63308771D01*
X82409722Y-62834360D01*
X81790638Y-62577293D01*
X81120303Y-62576708D01*
X80500771Y-62832694D01*
X80026360Y-63306278D01*
X79769293Y-63925362D01*
X79768708Y-64595697D01*
X78138709Y-64595697D01*
X78139292Y-63928303D01*
X77883306Y-63308771D01*
X77409722Y-62834360D01*
X76790638Y-62577293D01*
X76120303Y-62576708D01*
X75500771Y-62832694D01*
X75026360Y-63306278D01*
X74769293Y-63925362D01*
X74768708Y-64595697D01*
X71689000Y-64595697D01*
X71689000Y-64262000D01*
X71543991Y-63532988D01*
X71131038Y-62914962D01*
X70513012Y-62502009D01*
X69784000Y-62357000D01*
X69054988Y-62502009D01*
X68436962Y-62914962D01*
X68024009Y-63532988D01*
X67879000Y-64262000D01*
X67879000Y-67066230D01*
X67762231Y-67183000D01*
X61689000Y-67183000D01*
X61689000Y-64595697D01*
X63098708Y-64595697D01*
X63354694Y-65215229D01*
X63828278Y-65689640D01*
X64447362Y-65946707D01*
X65117697Y-65947292D01*
X65737229Y-65691306D01*
X66211640Y-65217722D01*
X66468707Y-64598638D01*
X66469292Y-63928303D01*
X66213306Y-63308771D01*
X65739722Y-62834360D01*
X65120638Y-62577293D01*
X64450303Y-62576708D01*
X63830771Y-62832694D01*
X63356360Y-63306278D01*
X63099293Y-63925362D01*
X63098708Y-64595697D01*
X61689000Y-64595697D01*
X61689000Y-64262000D01*
X61543991Y-63532988D01*
X61131038Y-62914962D01*
X60513012Y-62502009D01*
X59784000Y-62357000D01*
X59054988Y-62502009D01*
X58436962Y-62914962D01*
X58024009Y-63532988D01*
X57879000Y-64262000D01*
X57879000Y-67183000D01*
X51689000Y-67183000D01*
X51689000Y-64595697D01*
X53098708Y-64595697D01*
X53354694Y-65215229D01*
X53828278Y-65689640D01*
X54447362Y-65946707D01*
X55117697Y-65947292D01*
X55737229Y-65691306D01*
X56211640Y-65217722D01*
X56468707Y-64598638D01*
X56469292Y-63928303D01*
X56213306Y-63308771D01*
X55739722Y-62834360D01*
X55120638Y-62577293D01*
X54450303Y-62576708D01*
X53830771Y-62832694D01*
X53356360Y-63306278D01*
X53099293Y-63925362D01*
X53098708Y-64595697D01*
X51689000Y-64595697D01*
X51689000Y-64262000D01*
X51543991Y-63532988D01*
X51131038Y-62914962D01*
X50513012Y-62502009D01*
X49784000Y-62357000D01*
X49054988Y-62502009D01*
X48436962Y-62914962D01*
X48024009Y-63532988D01*
X47879000Y-64262000D01*
X47879000Y-67183000D01*
X38690346Y-67183000D01*
X38675222Y-67102623D01*
X38536150Y-66886499D01*
X38323950Y-66741509D01*
X38072060Y-66690500D01*
X34571940Y-66690500D01*
X34336623Y-66734778D01*
X34120499Y-66873850D01*
X34008060Y-67038410D01*
X34008060Y-66374010D01*
X33849310Y-66215260D01*
X31750000Y-66215260D01*
X31496000Y-66215260D01*
X31476000Y-66215260D01*
X31476000Y-65961260D01*
X31496000Y-65961260D01*
X31496000Y-63861950D01*
X31750000Y-63861950D01*
X31750000Y-65961260D01*
X33849310Y-65961260D01*
X34008060Y-65802510D01*
X34008060Y-65136588D01*
X34033613Y-65198278D01*
X34212241Y-65376907D01*
X34445630Y-65473580D01*
X36036250Y-65473580D01*
X36195000Y-65314830D01*
X36195000Y-63215520D01*
X36449000Y-63215520D01*
X36449000Y-65314830D01*
X36607750Y-65473580D01*
X38198370Y-65473580D01*
X38431759Y-65376907D01*
X38610387Y-65198278D01*
X38707060Y-64964889D01*
X38707060Y-64595697D01*
X43098708Y-64595697D01*
X43354694Y-65215229D01*
X43828278Y-65689640D01*
X44447362Y-65946707D01*
X45117697Y-65947292D01*
X45737229Y-65691306D01*
X46211640Y-65217722D01*
X46468707Y-64598638D01*
X46469292Y-63928303D01*
X46213306Y-63308771D01*
X45739722Y-62834360D01*
X45120638Y-62577293D01*
X44450303Y-62576708D01*
X43830771Y-62832694D01*
X43356360Y-63306278D01*
X43099293Y-63925362D01*
X43098708Y-64595697D01*
X38707060Y-64595697D01*
X38707060Y-63374270D01*
X38548310Y-63215520D01*
X36449000Y-63215520D01*
X36195000Y-63215520D01*
X34095690Y-63215520D01*
X33936940Y-63374270D01*
X33936940Y-64040192D01*
X33911387Y-63978502D01*
X33732759Y-63799873D01*
X33499370Y-63703200D01*
X31908750Y-63703200D01*
X31750000Y-63861950D01*
X31496000Y-63861950D01*
X31337250Y-63703200D01*
X30174000Y-63703200D01*
X30174000Y-61212151D01*
X33936940Y-61212151D01*
X33936940Y-62802770D01*
X34095690Y-62961520D01*
X36195000Y-62961520D01*
X36195000Y-60862210D01*
X36449000Y-60862210D01*
X36449000Y-62961520D01*
X38548310Y-62961520D01*
X38707060Y-62802770D01*
X38707060Y-61212151D01*
X38610387Y-60978762D01*
X38431759Y-60800133D01*
X38198370Y-60703460D01*
X36607750Y-60703460D01*
X36449000Y-60862210D01*
X36195000Y-60862210D01*
X36036250Y-60703460D01*
X34445630Y-60703460D01*
X34212241Y-60800133D01*
X34033613Y-60978762D01*
X33936940Y-61212151D01*
X30174000Y-61212151D01*
X30174000Y-60146000D01*
X43924117Y-60146000D01*
X43779991Y-60289875D01*
X43779991Y-60289875D01*
G37*
X43779991Y-60289875D02*
X43599206Y-60725255D01*
X43598794Y-61196677D01*
X43778820Y-61632372D01*
X44111875Y-61966009D01*
X44547255Y-62146794D01*
X45018677Y-62147206D01*
X45454372Y-61967180D01*
X45788009Y-61634125D01*
X45968794Y-61198745D01*
X45969206Y-60727323D01*
X45789180Y-60291628D01*
X45643806Y-60146000D01*
X48924117Y-60146000D01*
X48779991Y-60289875D01*
X48599206Y-60725255D01*
X48598794Y-61196677D01*
X48778820Y-61632372D01*
X49111875Y-61966009D01*
X49547255Y-62146794D01*
X50018677Y-62147206D01*
X50454372Y-61967180D01*
X50788009Y-61634125D01*
X50968794Y-61198745D01*
X50969206Y-60727323D01*
X50789180Y-60291628D01*
X50643806Y-60146000D01*
X53924117Y-60146000D01*
X53779991Y-60289875D01*
X53599206Y-60725255D01*
X53598794Y-61196677D01*
X53778820Y-61632372D01*
X54111875Y-61966009D01*
X54547255Y-62146794D01*
X55018677Y-62147206D01*
X55454372Y-61967180D01*
X55788009Y-61634125D01*
X55968794Y-61198745D01*
X55969206Y-60727323D01*
X55789180Y-60291628D01*
X55643806Y-60146000D01*
X58924117Y-60146000D01*
X58779991Y-60289875D01*
X58599206Y-60725255D01*
X58598794Y-61196677D01*
X58778820Y-61632372D01*
X59111875Y-61966009D01*
X59547255Y-62146794D01*
X60018677Y-62147206D01*
X60454372Y-61967180D01*
X60788009Y-61634125D01*
X60968794Y-61198745D01*
X60969206Y-60727323D01*
X60789180Y-60291628D01*
X60643806Y-60146000D01*
X63924117Y-60146000D01*
X63779991Y-60289875D01*
X63599206Y-60725255D01*
X63598794Y-61196677D01*
X63778820Y-61632372D01*
X64111875Y-61966009D01*
X64547255Y-62146794D01*
X65018677Y-62147206D01*
X65454372Y-61967180D01*
X65788009Y-61634125D01*
X65968794Y-61198745D01*
X65969206Y-60727323D01*
X65789180Y-60291628D01*
X65643806Y-60146000D01*
X68924117Y-60146000D01*
X68779991Y-60289875D01*
X68599206Y-60725255D01*
X68598794Y-61196677D01*
X68778820Y-61632372D01*
X69111875Y-61966009D01*
X69547255Y-62146794D01*
X70018677Y-62147206D01*
X70454372Y-61967180D01*
X70788009Y-61634125D01*
X70968794Y-61198745D01*
X70969206Y-60727323D01*
X70789180Y-60291628D01*
X70643806Y-60146000D01*
X75594117Y-60146000D01*
X75449991Y-60289875D01*
X75269206Y-60725255D01*
X75268794Y-61196677D01*
X75448820Y-61632372D01*
X75781875Y-61966009D01*
X76217255Y-62146794D01*
X76688677Y-62147206D01*
X77124372Y-61967180D01*
X77458009Y-61634125D01*
X77638794Y-61198745D01*
X77639206Y-60727323D01*
X77459180Y-60291628D01*
X77313806Y-60146000D01*
X80594117Y-60146000D01*
X80449991Y-60289875D01*
X80269206Y-60725255D01*
X80268794Y-61196677D01*
X80448820Y-61632372D01*
X80781875Y-61966009D01*
X81217255Y-62146794D01*
X81688677Y-62147206D01*
X82124372Y-61967180D01*
X82458009Y-61634125D01*
X82638794Y-61198745D01*
X82639206Y-60727323D01*
X82459180Y-60291628D01*
X82313806Y-60146000D01*
X85594117Y-60146000D01*
X85449991Y-60289875D01*
X85269206Y-60725255D01*
X85268794Y-61196677D01*
X85448820Y-61632372D01*
X85781875Y-61966009D01*
X86217255Y-62146794D01*
X86688677Y-62147206D01*
X87124372Y-61967180D01*
X87458009Y-61634125D01*
X87638794Y-61198745D01*
X87639206Y-60727323D01*
X87459180Y-60291628D01*
X87313806Y-60146000D01*
X90594117Y-60146000D01*
X90449991Y-60289875D01*
X90269206Y-60725255D01*
X90268794Y-61196677D01*
X90448820Y-61632372D01*
X90781875Y-61966009D01*
X91217255Y-62146794D01*
X91688677Y-62147206D01*
X92124372Y-61967180D01*
X92458009Y-61634125D01*
X92638794Y-61198745D01*
X92639206Y-60727323D01*
X92459180Y-60291628D01*
X92313806Y-60146000D01*
X95594117Y-60146000D01*
X95449991Y-60289875D01*
X95269206Y-60725255D01*
X95268794Y-61196677D01*
X95448820Y-61632372D01*
X95781875Y-61966009D01*
X96217255Y-62146794D01*
X96688677Y-62147206D01*
X97124372Y-61967180D01*
X97458009Y-61634125D01*
X97638794Y-61198745D01*
X97639206Y-60727323D01*
X97459180Y-60291628D01*
X97313806Y-60146000D01*
X100594117Y-60146000D01*
X100449991Y-60289875D01*
X100269206Y-60725255D01*
X100268794Y-61196677D01*
X100448820Y-61632372D01*
X100781875Y-61966009D01*
X101217255Y-62146794D01*
X101688677Y-62147206D01*
X102124372Y-61967180D01*
X102458009Y-61634125D01*
X102638794Y-61198745D01*
X102639206Y-60727323D01*
X102459180Y-60291628D01*
X102313806Y-60146000D01*
X143383000Y-60146000D01*
X143383000Y-63182914D01*
X143213362Y-63591448D01*
X143212638Y-64420913D01*
X143383000Y-64833220D01*
X143383000Y-74015502D01*
X143141154Y-74256927D01*
X142891794Y-74857453D01*
X142891226Y-75507694D01*
X143139538Y-76108655D01*
X143383000Y-76352542D01*
X143383000Y-77317502D01*
X143141154Y-77558927D01*
X142891794Y-78159453D01*
X142891226Y-78809694D01*
X143139538Y-79410655D01*
X143383000Y-79654542D01*
X143383000Y-79983483D01*
X143297151Y-79926120D01*
X142939406Y-79854960D01*
X141097000Y-78012554D01*
X141097000Y-69699703D01*
X141338526Y-69338234D01*
X141452600Y-68764745D01*
X141452600Y-68395255D01*
X141338526Y-67821766D01*
X141013670Y-67335585D01*
X140527489Y-67010729D01*
X139954000Y-66896655D01*
X139380511Y-67010729D01*
X138894330Y-67335585D01*
X138684000Y-67650366D01*
X138473670Y-67335585D01*
X137987489Y-67010729D01*
X137414000Y-66896655D01*
X136840511Y-67010729D01*
X136354330Y-67335585D01*
X136144000Y-67650366D01*
X135933670Y-67335585D01*
X135447489Y-67010729D01*
X134874000Y-66896655D01*
X134300511Y-67010729D01*
X133814330Y-67335585D01*
X133804757Y-67349913D01*
X133800762Y-67328683D01*
X133661690Y-67112559D01*
X133449490Y-66967569D01*
X133197600Y-66916560D01*
X131470400Y-66916560D01*
X131235083Y-66960838D01*
X131018959Y-67099910D01*
X130873969Y-67312110D01*
X130822960Y-67564000D01*
X130822960Y-69596000D01*
X130867238Y-69831317D01*
X131006310Y-70047441D01*
X131218510Y-70192431D01*
X131470400Y-70243440D01*
X133197600Y-70243440D01*
X133432917Y-70199162D01*
X133649041Y-70060090D01*
X133794031Y-69847890D01*
X133802400Y-69806561D01*
X133814330Y-69824415D01*
X134300511Y-70149271D01*
X134874000Y-70263345D01*
X135447489Y-70149271D01*
X135933670Y-69824415D01*
X136144000Y-69509634D01*
X136354330Y-69824415D01*
X136840511Y-70149271D01*
X137414000Y-70263345D01*
X137987489Y-70149271D01*
X138473670Y-69824415D01*
X138684000Y-69509634D01*
X138811000Y-69699703D01*
X138811000Y-78486000D01*
X138898006Y-78923407D01*
X139145777Y-79294223D01*
X141351073Y-81499519D01*
X141422233Y-81857264D01*
X141733302Y-82322811D01*
X142198849Y-82633880D01*
X142748000Y-82743113D01*
X143297151Y-82633880D01*
X143383000Y-82576517D01*
X143383000Y-84328000D01*
X143393006Y-84377410D01*
X143421447Y-84419035D01*
X143463841Y-84446315D01*
X143510000Y-84455000D01*
X153722000Y-84455000D01*
X153722000Y-92010125D01*
X153509275Y-91954331D01*
X152753605Y-92710000D01*
X153509275Y-93465669D01*
X153722000Y-93409875D01*
X153722000Y-97812518D01*
X153620742Y-97568059D01*
X153378764Y-97498841D01*
X152579605Y-98298000D01*
X153378764Y-99097159D01*
X153620742Y-99027941D01*
X153722000Y-98744003D01*
X153722000Y-124258000D01*
X122578033Y-124258000D01*
X122682000Y-123735321D01*
X122682000Y-122644679D01*
X122578904Y-122126380D01*
X124683034Y-122126380D01*
X124957905Y-122240517D01*
X125331781Y-122240843D01*
X125677322Y-122098068D01*
X125941922Y-121833929D01*
X126085300Y-121488638D01*
X126085626Y-121114762D01*
X125998921Y-120904921D01*
X126092899Y-120678599D01*
X126093225Y-120304723D01*
X125967407Y-120000220D01*
X126065862Y-119763115D01*
X126066188Y-119389239D01*
X125923413Y-119043698D01*
X125659274Y-118779098D01*
X125313983Y-118635720D01*
X124940107Y-118635394D01*
X124663086Y-118749857D01*
X112607578Y-118749857D01*
X112632206Y-118690547D01*
X112632774Y-118040306D01*
X112384462Y-117439345D01*
X111925073Y-116979154D01*
X111324547Y-116729794D01*
X110674306Y-116729226D01*
X110073345Y-116977538D01*
X109613154Y-117436927D01*
X109363794Y-118037453D01*
X109363226Y-118687694D01*
X109611538Y-119288655D01*
X110070927Y-119748846D01*
X110268628Y-119830939D01*
X108807608Y-121291958D01*
X108585000Y-121247679D01*
X108050391Y-121354019D01*
X107597172Y-121656851D01*
X107294340Y-122110070D01*
X107188000Y-122644679D01*
X107188000Y-123735321D01*
X107291967Y-124258000D01*
X104798033Y-124258000D01*
X104902000Y-123735321D01*
X104902000Y-122644679D01*
X104795660Y-122110070D01*
X104492828Y-121656851D01*
X104039609Y-121354019D01*
X103505000Y-121247679D01*
X102970391Y-121354019D01*
X102517172Y-121656851D01*
X102225670Y-122093113D01*
X102207059Y-122030059D01*
X101863026Y-121604370D01*
X101382277Y-121342740D01*
X101308070Y-121327780D01*
X101092000Y-121450280D01*
X101092000Y-123063000D01*
X101112000Y-123063000D01*
X101112000Y-123317000D01*
X101092000Y-123317000D01*
X101092000Y-123337000D01*
X100838000Y-123337000D01*
X100838000Y-123317000D01*
X98552000Y-123317000D01*
X98552000Y-123337000D01*
X98298000Y-123337000D01*
X98298000Y-123317000D01*
X98278000Y-123317000D01*
X98278000Y-123063000D01*
X98298000Y-123063000D01*
X98298000Y-121450280D01*
X98552000Y-121450280D01*
X98552000Y-123063000D01*
X100838000Y-123063000D01*
X100838000Y-121450280D01*
X100621930Y-121327780D01*
X100547723Y-121342740D01*
X100066974Y-121604370D01*
X99722941Y-122030059D01*
X99695000Y-122124723D01*
X99667059Y-122030059D01*
X99323026Y-121604370D01*
X98842277Y-121342740D01*
X98768070Y-121327780D01*
X98552000Y-121450280D01*
X98298000Y-121450280D01*
X98081930Y-121327780D01*
X98007723Y-121342740D01*
X97526974Y-121604370D01*
X97182941Y-122030059D01*
X97164330Y-122093113D01*
X96872828Y-121656851D01*
X96419609Y-121354019D01*
X95936509Y-121257925D01*
X98004934Y-119189500D01*
X99410568Y-119189500D01*
X99451538Y-119288655D01*
X99910927Y-119748846D01*
X100511453Y-119998206D01*
X101161694Y-119998774D01*
X101762655Y-119750462D01*
X102222846Y-119291073D01*
X102472206Y-118690547D01*
X102472774Y-118040306D01*
X102224462Y-117439345D01*
X101765073Y-116979154D01*
X101164547Y-116729794D01*
X100514306Y-116729226D01*
X99913345Y-116977538D01*
X99453154Y-117436927D01*
X99410977Y-117538500D01*
X97663000Y-117538500D01*
X97347094Y-117601337D01*
X97079283Y-117780283D01*
X93567608Y-121291958D01*
X93345000Y-121247679D01*
X92810391Y-121354019D01*
X92357172Y-121656851D01*
X92075000Y-122079150D01*
X91792828Y-121656851D01*
X91339609Y-121354019D01*
X90805000Y-121247679D01*
X90270391Y-121354019D01*
X89817172Y-121656851D01*
X89514340Y-122110070D01*
X89408000Y-122644679D01*
X89408000Y-123735321D01*
X89511967Y-124258000D01*
X30174000Y-124258000D01*
X30174000Y-114802015D01*
X33532641Y-114802015D01*
X33917746Y-115734041D01*
X34630208Y-116447748D01*
X35561561Y-116834479D01*
X36570015Y-116835359D01*
X37502041Y-116450254D01*
X38215748Y-115737792D01*
X38602479Y-114806439D01*
X38602482Y-114802015D01*
X48772641Y-114802015D01*
X49157746Y-115734041D01*
X49870208Y-116447748D01*
X50801561Y-116834479D01*
X51810015Y-116835359D01*
X52742041Y-116450254D01*
X53455748Y-115737792D01*
X53842479Y-114806439D01*
X53842482Y-114802015D01*
X64012641Y-114802015D01*
X64397746Y-115734041D01*
X65110208Y-116447748D01*
X66041561Y-116834479D01*
X67050015Y-116835359D01*
X67982041Y-116450254D01*
X68695748Y-115737792D01*
X69082479Y-114806439D01*
X69082482Y-114802015D01*
X79252641Y-114802015D01*
X79637746Y-115734041D01*
X80350208Y-116447748D01*
X81281561Y-116834479D01*
X82290015Y-116835359D01*
X83222041Y-116450254D01*
X83458544Y-116214163D01*
X99865443Y-116214163D01*
X99964042Y-116480965D01*
X100573582Y-116707401D01*
X101223377Y-116683341D01*
X101711958Y-116480965D01*
X101810557Y-116214163D01*
X100838000Y-115241605D01*
X99865443Y-116214163D01*
X83458544Y-116214163D01*
X83935748Y-115737792D01*
X84322479Y-114806439D01*
X84322486Y-114797582D01*
X99192599Y-114797582D01*
X99216659Y-115447377D01*
X99419035Y-115935958D01*
X99685837Y-116034557D01*
X100658395Y-115062000D01*
X101017605Y-115062000D01*
X101990163Y-116034557D01*
X102256965Y-115935958D01*
X102461380Y-115385694D01*
X109363226Y-115385694D01*
X109611538Y-115986655D01*
X110070927Y-116446846D01*
X110671453Y-116696206D01*
X111321694Y-116696774D01*
X111922655Y-116448462D01*
X112382846Y-115989073D01*
X112632206Y-115388547D01*
X112632774Y-114738306D01*
X112384462Y-114137345D01*
X111925073Y-113677154D01*
X111324547Y-113427794D01*
X110674306Y-113427226D01*
X110073345Y-113675538D01*
X109613154Y-114134927D01*
X109363794Y-114735453D01*
X109363226Y-115385694D01*
X102461380Y-115385694D01*
X102483401Y-115326418D01*
X102459341Y-114676623D01*
X102256965Y-114188042D01*
X101990163Y-114089443D01*
X101017605Y-115062000D01*
X100658395Y-115062000D01*
X99685837Y-114089443D01*
X99419035Y-114188042D01*
X99192599Y-114797582D01*
X84322486Y-114797582D01*
X84323261Y-113909837D01*
X99865443Y-113909837D01*
X100838000Y-114882395D01*
X101810557Y-113909837D01*
X101711958Y-113643035D01*
X101102418Y-113416599D01*
X100452623Y-113440659D01*
X99964042Y-113643035D01*
X99865443Y-113909837D01*
X84323261Y-113909837D01*
X84323359Y-113797985D01*
X83938254Y-112865959D01*
X83225792Y-112152252D01*
X83060686Y-112083694D01*
X99203226Y-112083694D01*
X99451538Y-112684655D01*
X99910927Y-113144846D01*
X100511453Y-113394206D01*
X101161694Y-113394774D01*
X101762655Y-113146462D01*
X102222846Y-112687073D01*
X102472206Y-112086547D01*
X102472208Y-112083694D01*
X109363226Y-112083694D01*
X109611538Y-112684655D01*
X110070927Y-113144846D01*
X110671453Y-113394206D01*
X111321694Y-113394774D01*
X111922655Y-113146462D01*
X112382846Y-112687073D01*
X112632206Y-112086547D01*
X112632774Y-111436306D01*
X112384462Y-110835345D01*
X111925073Y-110375154D01*
X111324547Y-110125794D01*
X110674306Y-110125226D01*
X110073345Y-110373538D01*
X109613154Y-110832927D01*
X109363794Y-111433453D01*
X109363226Y-112083694D01*
X102472208Y-112083694D01*
X102472774Y-111436306D01*
X102224462Y-110835345D01*
X101765073Y-110375154D01*
X101164547Y-110125794D01*
X100514306Y-110125226D01*
X99913345Y-110373538D01*
X99453154Y-110832927D01*
X99203794Y-111433453D01*
X99203226Y-112083694D01*
X83060686Y-112083694D01*
X82294439Y-111765521D01*
X81285985Y-111764641D01*
X80353959Y-112149746D01*
X79640252Y-112862208D01*
X79253521Y-113793561D01*
X79252641Y-114802015D01*
X69082482Y-114802015D01*
X69083359Y-113797985D01*
X68698254Y-112865959D01*
X67985792Y-112152252D01*
X67054439Y-111765521D01*
X66045985Y-111764641D01*
X65113959Y-112149746D01*
X64400252Y-112862208D01*
X64013521Y-113793561D01*
X64012641Y-114802015D01*
X53842482Y-114802015D01*
X53843359Y-113797985D01*
X53458254Y-112865959D01*
X52745792Y-112152252D01*
X51814439Y-111765521D01*
X50805985Y-111764641D01*
X49873959Y-112149746D01*
X49160252Y-112862208D01*
X48773521Y-113793561D01*
X48772641Y-114802015D01*
X38602482Y-114802015D01*
X38603359Y-113797985D01*
X38218254Y-112865959D01*
X37505792Y-112152252D01*
X36574439Y-111765521D01*
X35565985Y-111764641D01*
X34633959Y-112149746D01*
X33920252Y-112862208D01*
X33533521Y-113793561D01*
X33532641Y-114802015D01*
X30174000Y-114802015D01*
X30174000Y-108781694D01*
X99203226Y-108781694D01*
X99451538Y-109382655D01*
X99910927Y-109842846D01*
X100511453Y-110092206D01*
X101161694Y-110092774D01*
X101762655Y-109844462D01*
X102222846Y-109385073D01*
X102472206Y-108784547D01*
X102472208Y-108781694D01*
X109363226Y-108781694D01*
X109611538Y-109382655D01*
X110070927Y-109842846D01*
X110671453Y-110092206D01*
X111321694Y-110092774D01*
X111922655Y-109844462D01*
X112382846Y-109385073D01*
X112632206Y-108784547D01*
X112632774Y-108134306D01*
X112384462Y-107533345D01*
X111925073Y-107073154D01*
X111324547Y-106823794D01*
X110674306Y-106823226D01*
X110073345Y-107071538D01*
X109613154Y-107530927D01*
X109363794Y-108131453D01*
X109363226Y-108781694D01*
X102472208Y-108781694D01*
X102472774Y-108134306D01*
X102224462Y-107533345D01*
X101765073Y-107073154D01*
X101164547Y-106823794D01*
X100514306Y-106823226D01*
X99913345Y-107071538D01*
X99453154Y-107530927D01*
X99203794Y-108131453D01*
X99203226Y-108781694D01*
X30174000Y-108781694D01*
X30174000Y-102106071D01*
X106388090Y-102106071D01*
X106513456Y-102409479D01*
X106513456Y-103493993D01*
X106399319Y-103768864D01*
X106398993Y-104142740D01*
X106541768Y-104488281D01*
X106805907Y-104752881D01*
X107151198Y-104896259D01*
X107525074Y-104896585D01*
X107870615Y-104753810D01*
X108135215Y-104489671D01*
X108278593Y-104144380D01*
X108278919Y-103770504D01*
X108164456Y-103493483D01*
X108164456Y-102356325D01*
X108267690Y-102107711D01*
X108268016Y-101733835D01*
X108125241Y-101388294D01*
X108114759Y-101377793D01*
X116704017Y-101377793D01*
X116818480Y-101654814D01*
X116818480Y-103496180D01*
X116881317Y-103812086D01*
X117060263Y-104079897D01*
X118875555Y-105895188D01*
X118989212Y-106170259D01*
X119253351Y-106434859D01*
X119598642Y-106578237D01*
X119972518Y-106578563D01*
X120318059Y-106435788D01*
X120582659Y-106171649D01*
X120635235Y-106045032D01*
X120785318Y-106045163D01*
X121130859Y-105902388D01*
X121395459Y-105638249D01*
X121538837Y-105292958D01*
X121539163Y-104919082D01*
X121532105Y-104902000D01*
X146652655Y-104902000D01*
X146778330Y-105533810D01*
X147136222Y-106069433D01*
X147671845Y-106427325D01*
X148303655Y-106553000D01*
X148368345Y-106553000D01*
X149000155Y-106427325D01*
X149535778Y-106069433D01*
X149893670Y-105533810D01*
X150019345Y-104902000D01*
X149893670Y-104270190D01*
X149669034Y-103933999D01*
X149711698Y-103916327D01*
X149890327Y-103737699D01*
X149987000Y-103504310D01*
X149987000Y-102647750D01*
X149828250Y-102489000D01*
X148463000Y-102489000D01*
X148463000Y-102509000D01*
X148209000Y-102509000D01*
X148209000Y-102489000D01*
X146843750Y-102489000D01*
X146685000Y-102647750D01*
X146685000Y-103504310D01*
X146781673Y-103737699D01*
X146960302Y-103916327D01*
X147002966Y-103933999D01*
X146778330Y-104270190D01*
X146652655Y-104902000D01*
X121532105Y-104902000D01*
X121396388Y-104573541D01*
X121132249Y-104308941D01*
X120786958Y-104165563D01*
X120659843Y-104165452D01*
X119342541Y-102848149D01*
X119342541Y-101219690D01*
X146685000Y-101219690D01*
X146685000Y-102076250D01*
X146843750Y-102235000D01*
X148209000Y-102235000D01*
X148209000Y-100869750D01*
X148463000Y-100869750D01*
X148463000Y-102235000D01*
X149828250Y-102235000D01*
X149987000Y-102076250D01*
X149987000Y-101219690D01*
X149890327Y-100986301D01*
X149711698Y-100807673D01*
X149478309Y-100711000D01*
X148621750Y-100711000D01*
X148463000Y-100869750D01*
X148209000Y-100869750D01*
X148050250Y-100711000D01*
X147193691Y-100711000D01*
X146960302Y-100807673D01*
X146781673Y-100986301D01*
X146685000Y-101219690D01*
X119342541Y-101219690D01*
X119342541Y-100807191D01*
X119413613Y-100636031D01*
X119413939Y-100262155D01*
X119271164Y-99916614D01*
X119007025Y-99652014D01*
X118661734Y-99508636D01*
X118287858Y-99508310D01*
X117942317Y-99651085D01*
X117677717Y-99915224D01*
X117537965Y-100251782D01*
X117457862Y-100251712D01*
X117112321Y-100394487D01*
X116847721Y-100658626D01*
X116704343Y-101003917D01*
X116704017Y-101377793D01*
X108114759Y-101377793D01*
X107861102Y-101123694D01*
X107515811Y-100980316D01*
X107141935Y-100979990D01*
X106796394Y-101122765D01*
X106531794Y-101386904D01*
X106388416Y-101732195D01*
X106388090Y-102106071D01*
X30174000Y-102106071D01*
X30174000Y-97663000D01*
X32043370Y-97663000D01*
X32043370Y-98563430D01*
X32204982Y-99121906D01*
X32568011Y-99576024D01*
X33077190Y-99856649D01*
X33171168Y-99877540D01*
X33401000Y-99756214D01*
X33401000Y-97663000D01*
X32043370Y-97663000D01*
X30174000Y-97663000D01*
X30174000Y-96508570D01*
X32043370Y-96508570D01*
X32043370Y-97409000D01*
X33401000Y-97409000D01*
X33401000Y-95315786D01*
X33655000Y-95315786D01*
X33655000Y-97409000D01*
X33675000Y-97409000D01*
X33675000Y-97663000D01*
X33655000Y-97663000D01*
X33655000Y-99756214D01*
X33884832Y-99877540D01*
X33978810Y-99856649D01*
X34487989Y-99576024D01*
X34792484Y-99195127D01*
X35018208Y-99532948D01*
X35499857Y-99854775D01*
X36068000Y-99967786D01*
X36636143Y-99854775D01*
X37117792Y-99532948D01*
X37338000Y-99203383D01*
X37558208Y-99532948D01*
X38039857Y-99854775D01*
X38608000Y-99967786D01*
X39176143Y-99854775D01*
X39657792Y-99532948D01*
X39979619Y-99051299D01*
X40092630Y-98483156D01*
X40092630Y-97663000D01*
X47283370Y-97663000D01*
X47283370Y-98563430D01*
X47444982Y-99121906D01*
X47808011Y-99576024D01*
X48317190Y-99856649D01*
X48411168Y-99877540D01*
X48641000Y-99756214D01*
X48641000Y-97663000D01*
X47283370Y-97663000D01*
X40092630Y-97663000D01*
X40092630Y-96588844D01*
X40076663Y-96508570D01*
X47283370Y-96508570D01*
X47283370Y-97409000D01*
X48641000Y-97409000D01*
X48641000Y-95315786D01*
X48895000Y-95315786D01*
X48895000Y-97409000D01*
X48915000Y-97409000D01*
X48915000Y-97663000D01*
X48895000Y-97663000D01*
X48895000Y-99756214D01*
X49124832Y-99877540D01*
X49218810Y-99856649D01*
X49727989Y-99576024D01*
X50032484Y-99195127D01*
X50258208Y-99532948D01*
X50739857Y-99854775D01*
X51308000Y-99967786D01*
X51876143Y-99854775D01*
X52357792Y-99532948D01*
X52578000Y-99203383D01*
X52798208Y-99532948D01*
X53279857Y-99854775D01*
X53848000Y-99967786D01*
X54416143Y-99854775D01*
X54897792Y-99532948D01*
X55219619Y-99051299D01*
X55332630Y-98483156D01*
X55332630Y-97663000D01*
X62523370Y-97663000D01*
X62523370Y-98563430D01*
X62684982Y-99121906D01*
X63048011Y-99576024D01*
X63557190Y-99856649D01*
X63651168Y-99877540D01*
X63881000Y-99756214D01*
X63881000Y-97663000D01*
X62523370Y-97663000D01*
X55332630Y-97663000D01*
X55332630Y-96588844D01*
X55316663Y-96508570D01*
X62523370Y-96508570D01*
X62523370Y-97409000D01*
X63881000Y-97409000D01*
X63881000Y-95315786D01*
X64135000Y-95315786D01*
X64135000Y-97409000D01*
X64155000Y-97409000D01*
X64155000Y-97663000D01*
X64135000Y-97663000D01*
X64135000Y-99756214D01*
X64364832Y-99877540D01*
X64458810Y-99856649D01*
X64967989Y-99576024D01*
X65272484Y-99195127D01*
X65498208Y-99532948D01*
X65979857Y-99854775D01*
X66548000Y-99967786D01*
X67116143Y-99854775D01*
X67597792Y-99532948D01*
X67818000Y-99203383D01*
X68038208Y-99532948D01*
X68519857Y-99854775D01*
X69088000Y-99967786D01*
X69656143Y-99854775D01*
X70137792Y-99532948D01*
X70459619Y-99051299D01*
X70572630Y-98483156D01*
X70572630Y-97663000D01*
X77763370Y-97663000D01*
X77763370Y-98563430D01*
X77924982Y-99121906D01*
X78288011Y-99576024D01*
X78797190Y-99856649D01*
X78891168Y-99877540D01*
X79121000Y-99756214D01*
X79121000Y-97663000D01*
X77763370Y-97663000D01*
X70572630Y-97663000D01*
X70572630Y-96588844D01*
X70556663Y-96508570D01*
X77763370Y-96508570D01*
X77763370Y-97409000D01*
X79121000Y-97409000D01*
X79121000Y-95315786D01*
X79375000Y-95315786D01*
X79375000Y-97409000D01*
X79395000Y-97409000D01*
X79395000Y-97663000D01*
X79375000Y-97663000D01*
X79375000Y-99756214D01*
X79604832Y-99877540D01*
X79698810Y-99856649D01*
X80207989Y-99576024D01*
X80512484Y-99195127D01*
X80738208Y-99532948D01*
X81219857Y-99854775D01*
X81788000Y-99967786D01*
X82356143Y-99854775D01*
X82837792Y-99532948D01*
X83058000Y-99203383D01*
X83278208Y-99532948D01*
X83759857Y-99854775D01*
X84328000Y-99967786D01*
X84896143Y-99854775D01*
X85377792Y-99532948D01*
X85699619Y-99051299D01*
X85812630Y-98483156D01*
X85812630Y-97538000D01*
X145912560Y-97538000D01*
X145912560Y-99058000D01*
X145956838Y-99293317D01*
X146095910Y-99509441D01*
X146308110Y-99654431D01*
X146560000Y-99705440D01*
X148080000Y-99705440D01*
X148315317Y-99661162D01*
X148531441Y-99522090D01*
X148676431Y-99309890D01*
X148713969Y-99124520D01*
X149068764Y-99479934D01*
X149581300Y-99692758D01*
X150136265Y-99693242D01*
X150649172Y-99481313D01*
X150854078Y-99276764D01*
X151600841Y-99276764D01*
X151670059Y-99518742D01*
X152192780Y-99705155D01*
X152747049Y-99677341D01*
X153129941Y-99518742D01*
X153199159Y-99276764D01*
X152400000Y-98477605D01*
X151600841Y-99276764D01*
X150854078Y-99276764D01*
X151041934Y-99089236D01*
X151123391Y-98893066D01*
X151179258Y-99027941D01*
X151421236Y-99097159D01*
X152220395Y-98298000D01*
X151421236Y-97498841D01*
X151179258Y-97568059D01*
X151127618Y-97712862D01*
X151043313Y-97508828D01*
X150854052Y-97319236D01*
X151600841Y-97319236D01*
X152400000Y-98118395D01*
X153199159Y-97319236D01*
X153129941Y-97077258D01*
X152607220Y-96890845D01*
X152052951Y-96918659D01*
X151670059Y-97077258D01*
X151600841Y-97319236D01*
X150854052Y-97319236D01*
X150651236Y-97116066D01*
X150138700Y-96903242D01*
X149583735Y-96902758D01*
X149070828Y-97114687D01*
X148714684Y-97470210D01*
X148683162Y-97302683D01*
X148544090Y-97086559D01*
X148331890Y-96941569D01*
X148080000Y-96890560D01*
X146560000Y-96890560D01*
X146324683Y-96934838D01*
X146108559Y-97073910D01*
X145963569Y-97286110D01*
X145912560Y-97538000D01*
X85812630Y-97538000D01*
X85812630Y-96588844D01*
X85699619Y-96020701D01*
X85377792Y-95539052D01*
X84896143Y-95217225D01*
X84328000Y-95104214D01*
X83759857Y-95217225D01*
X83278208Y-95539052D01*
X83058000Y-95868617D01*
X82837792Y-95539052D01*
X82356143Y-95217225D01*
X81788000Y-95104214D01*
X81219857Y-95217225D01*
X80738208Y-95539052D01*
X80512484Y-95876873D01*
X80207989Y-95495976D01*
X79698810Y-95215351D01*
X79604832Y-95194460D01*
X79375000Y-95315786D01*
X79121000Y-95315786D01*
X78891168Y-95194460D01*
X78797190Y-95215351D01*
X78288011Y-95495976D01*
X77924982Y-95950094D01*
X77763370Y-96508570D01*
X70556663Y-96508570D01*
X70459619Y-96020701D01*
X70137792Y-95539052D01*
X69656143Y-95217225D01*
X69088000Y-95104214D01*
X68519857Y-95217225D01*
X68038208Y-95539052D01*
X67818000Y-95868617D01*
X67597792Y-95539052D01*
X67116143Y-95217225D01*
X66548000Y-95104214D01*
X65979857Y-95217225D01*
X65498208Y-95539052D01*
X65272484Y-95876873D01*
X64967989Y-95495976D01*
X64458810Y-95215351D01*
X64364832Y-95194460D01*
X64135000Y-95315786D01*
X63881000Y-95315786D01*
X63651168Y-95194460D01*
X63557190Y-95215351D01*
X63048011Y-95495976D01*
X62684982Y-95950094D01*
X62523370Y-96508570D01*
X55316663Y-96508570D01*
X55219619Y-96020701D01*
X54897792Y-95539052D01*
X54416143Y-95217225D01*
X53848000Y-95104214D01*
X53279857Y-95217225D01*
X52798208Y-95539052D01*
X52578000Y-95868617D01*
X52357792Y-95539052D01*
X51876143Y-95217225D01*
X51308000Y-95104214D01*
X50739857Y-95217225D01*
X50258208Y-95539052D01*
X50032484Y-95876873D01*
X49727989Y-95495976D01*
X49218810Y-95215351D01*
X49124832Y-95194460D01*
X48895000Y-95315786D01*
X48641000Y-95315786D01*
X48411168Y-95194460D01*
X48317190Y-95215351D01*
X47808011Y-95495976D01*
X47444982Y-95950094D01*
X47283370Y-96508570D01*
X40076663Y-96508570D01*
X39979619Y-96020701D01*
X39657792Y-95539052D01*
X39176143Y-95217225D01*
X38608000Y-95104214D01*
X38039857Y-95217225D01*
X37558208Y-95539052D01*
X37338000Y-95868617D01*
X37117792Y-95539052D01*
X36636143Y-95217225D01*
X36068000Y-95104214D01*
X35499857Y-95217225D01*
X35018208Y-95539052D01*
X34792484Y-95876873D01*
X34487989Y-95495976D01*
X33978810Y-95215351D01*
X33884832Y-95194460D01*
X33655000Y-95315786D01*
X33401000Y-95315786D01*
X33171168Y-95194460D01*
X33077190Y-95215351D01*
X32568011Y-95495976D01*
X32204982Y-95950094D01*
X32043370Y-96508570D01*
X30174000Y-96508570D01*
X30174000Y-94969070D01*
X31837630Y-94969070D01*
X32072947Y-94924792D01*
X32289071Y-94785720D01*
X32434061Y-94573520D01*
X32485070Y-94321630D01*
X32485070Y-93766016D01*
X39663112Y-93766016D01*
X39888658Y-94311877D01*
X40305926Y-94729874D01*
X40851393Y-94956372D01*
X41442016Y-94956888D01*
X41987877Y-94731342D01*
X42405874Y-94314074D01*
X42632372Y-93768607D01*
X42632888Y-93177984D01*
X42407342Y-92632123D01*
X42397607Y-92622370D01*
X44730930Y-92622370D01*
X44730930Y-94321630D01*
X44775208Y-94556947D01*
X44914280Y-94773071D01*
X45126480Y-94918061D01*
X45378370Y-94969070D01*
X47077630Y-94969070D01*
X47312947Y-94924792D01*
X47529071Y-94785720D01*
X47674061Y-94573520D01*
X47725070Y-94321630D01*
X47725070Y-93766016D01*
X54903112Y-93766016D01*
X55128658Y-94311877D01*
X55545926Y-94729874D01*
X56091393Y-94956372D01*
X56682016Y-94956888D01*
X57227877Y-94731342D01*
X57645874Y-94314074D01*
X57872372Y-93768607D01*
X57872888Y-93177984D01*
X57647342Y-92632123D01*
X57635071Y-92619830D01*
X59971450Y-92619830D01*
X59971450Y-94319090D01*
X60015728Y-94554407D01*
X60154800Y-94770531D01*
X60367000Y-94915521D01*
X60618890Y-94966530D01*
X62318150Y-94966530D01*
X62553467Y-94922252D01*
X62769591Y-94783180D01*
X62914581Y-94570980D01*
X62965590Y-94319090D01*
X62965590Y-93763476D01*
X70143632Y-93763476D01*
X70369178Y-94309337D01*
X70786446Y-94727334D01*
X71331913Y-94953832D01*
X71922536Y-94954348D01*
X72468397Y-94728802D01*
X72886394Y-94311534D01*
X72933449Y-94198213D01*
X100037392Y-94198213D01*
X100106857Y-94440397D01*
X100630302Y-94627144D01*
X101185368Y-94599362D01*
X101569143Y-94440397D01*
X101638608Y-94198213D01*
X100838000Y-93397605D01*
X100037392Y-94198213D01*
X72933449Y-94198213D01*
X73112892Y-93766067D01*
X73113408Y-93175444D01*
X73045173Y-93010302D01*
X99428856Y-93010302D01*
X99456638Y-93565368D01*
X99615603Y-93949143D01*
X99857787Y-94018608D01*
X100658395Y-93218000D01*
X101017605Y-93218000D01*
X101818213Y-94018608D01*
X102060397Y-93949143D01*
X102110509Y-93808682D01*
X102192990Y-94008303D01*
X102585630Y-94401629D01*
X103098900Y-94614757D01*
X103654661Y-94615242D01*
X104168303Y-94403010D01*
X104561629Y-94010370D01*
X104647949Y-93802488D01*
X104732990Y-94008303D01*
X105125630Y-94401629D01*
X105638900Y-94614757D01*
X106194661Y-94615242D01*
X106708303Y-94403010D01*
X106888013Y-94223613D01*
X107911392Y-94223613D01*
X107980857Y-94465797D01*
X108504302Y-94652544D01*
X109059368Y-94624762D01*
X109443143Y-94465797D01*
X109512608Y-94223613D01*
X108712000Y-93423005D01*
X107911392Y-94223613D01*
X106888013Y-94223613D01*
X107101629Y-94010370D01*
X107314757Y-93497100D01*
X107314949Y-93277308D01*
X107330638Y-93590768D01*
X107489603Y-93974543D01*
X107731787Y-94044008D01*
X108532395Y-93243400D01*
X107731787Y-92442792D01*
X107489603Y-92512257D01*
X107315190Y-93001131D01*
X107315242Y-92941339D01*
X107103010Y-92427697D01*
X106938787Y-92263187D01*
X107911392Y-92263187D01*
X108712000Y-93063795D01*
X109512608Y-92263187D01*
X109443143Y-92021003D01*
X108919698Y-91834256D01*
X108364632Y-91862038D01*
X107980857Y-92021003D01*
X107911392Y-92263187D01*
X106938787Y-92263187D01*
X106710370Y-92034371D01*
X106197100Y-91821243D01*
X105641339Y-91820758D01*
X105127697Y-92032990D01*
X104734371Y-92425630D01*
X104648051Y-92633512D01*
X104563010Y-92427697D01*
X104170370Y-92034371D01*
X103657100Y-91821243D01*
X103101339Y-91820758D01*
X102587697Y-92032990D01*
X102194371Y-92425630D01*
X102114605Y-92617727D01*
X102060397Y-92486857D01*
X101818213Y-92417392D01*
X101017605Y-93218000D01*
X100658395Y-93218000D01*
X99857787Y-92417392D01*
X99615603Y-92486857D01*
X99428856Y-93010302D01*
X73045173Y-93010302D01*
X72887862Y-92629583D01*
X72470594Y-92211586D01*
X71925127Y-91985088D01*
X71334504Y-91984572D01*
X70788643Y-92210118D01*
X70370646Y-92627386D01*
X70144148Y-93172853D01*
X70143632Y-93763476D01*
X62965590Y-93763476D01*
X62965590Y-92619830D01*
X62921312Y-92384513D01*
X62782240Y-92168389D01*
X62570040Y-92023399D01*
X62318150Y-91972390D01*
X60618890Y-91972390D01*
X60383573Y-92016668D01*
X60167449Y-92155740D01*
X60022459Y-92367940D01*
X59971450Y-92619830D01*
X57635071Y-92619830D01*
X57230074Y-92214126D01*
X56684607Y-91987628D01*
X56093984Y-91987112D01*
X55548123Y-92212658D01*
X55130126Y-92629926D01*
X54903628Y-93175393D01*
X54903112Y-93766016D01*
X47725070Y-93766016D01*
X47725070Y-92622370D01*
X47680792Y-92387053D01*
X47541720Y-92170929D01*
X47329520Y-92025939D01*
X47077630Y-91974930D01*
X45378370Y-91974930D01*
X45143053Y-92019208D01*
X44926929Y-92158280D01*
X44781939Y-92370480D01*
X44730930Y-92622370D01*
X42397607Y-92622370D01*
X41990074Y-92214126D01*
X41444607Y-91987628D01*
X40853984Y-91987112D01*
X40308123Y-92212658D01*
X39890126Y-92629926D01*
X39663628Y-93175393D01*
X39663112Y-93766016D01*
X32485070Y-93766016D01*
X32485070Y-92622370D01*
X32440792Y-92387053D01*
X32301720Y-92170929D01*
X32089520Y-92025939D01*
X31837630Y-91974930D01*
X30174000Y-91974930D01*
X30174000Y-89798163D01*
X85387443Y-89798163D01*
X85486042Y-90064965D01*
X86095582Y-90291401D01*
X86745377Y-90267341D01*
X87233958Y-90064965D01*
X87332557Y-89798163D01*
X88689443Y-89798163D01*
X88788042Y-90064965D01*
X89397582Y-90291401D01*
X90047377Y-90267341D01*
X90535958Y-90064965D01*
X90634557Y-89798163D01*
X91991443Y-89798163D01*
X92090042Y-90064965D01*
X92699582Y-90291401D01*
X93349377Y-90267341D01*
X93837958Y-90064965D01*
X93936557Y-89798163D01*
X92964000Y-88825605D01*
X91991443Y-89798163D01*
X90634557Y-89798163D01*
X89662000Y-88825605D01*
X88689443Y-89798163D01*
X87332557Y-89798163D01*
X86360000Y-88825605D01*
X85387443Y-89798163D01*
X30174000Y-89798163D01*
X30174000Y-87234000D01*
X33286560Y-87234000D01*
X33286560Y-88534000D01*
X33330838Y-88769317D01*
X33469910Y-88985441D01*
X33682110Y-89130431D01*
X33934000Y-89181440D01*
X35234000Y-89181440D01*
X35469317Y-89137162D01*
X35685441Y-88998090D01*
X35830431Y-88785890D01*
X35881440Y-88534000D01*
X35881440Y-88338540D01*
X35993995Y-88610943D01*
X36355155Y-88972735D01*
X36827276Y-89168777D01*
X37338481Y-89169223D01*
X37810943Y-88974005D01*
X38172735Y-88612845D01*
X38368777Y-88140724D01*
X38369223Y-87629519D01*
X38205798Y-87234000D01*
X49034560Y-87234000D01*
X49034560Y-88534000D01*
X49078838Y-88769317D01*
X49217910Y-88985441D01*
X49430110Y-89130431D01*
X49682000Y-89181440D01*
X50982000Y-89181440D01*
X51217317Y-89137162D01*
X51433441Y-88998090D01*
X51578431Y-88785890D01*
X51629440Y-88534000D01*
X51629440Y-88338540D01*
X51741995Y-88610943D01*
X52103155Y-88972735D01*
X52575276Y-89168777D01*
X53086481Y-89169223D01*
X53558943Y-88974005D01*
X53920735Y-88612845D01*
X54116777Y-88140724D01*
X54117223Y-87629519D01*
X53953798Y-87234000D01*
X64234560Y-87234000D01*
X64234560Y-88534000D01*
X64278838Y-88769317D01*
X64417910Y-88985441D01*
X64630110Y-89130431D01*
X64882000Y-89181440D01*
X66182000Y-89181440D01*
X66417317Y-89137162D01*
X66633441Y-88998090D01*
X66778431Y-88785890D01*
X66829440Y-88534000D01*
X66829440Y-88338540D01*
X66941995Y-88610943D01*
X67303155Y-88972735D01*
X67775276Y-89168777D01*
X68286481Y-89169223D01*
X68758943Y-88974005D01*
X69120735Y-88612845D01*
X69216763Y-88381582D01*
X84714599Y-88381582D01*
X84738659Y-89031377D01*
X84941035Y-89519958D01*
X85207837Y-89618557D01*
X86180395Y-88646000D01*
X86539605Y-88646000D01*
X87512163Y-89618557D01*
X87778965Y-89519958D01*
X88005401Y-88910418D01*
X87985820Y-88381582D01*
X88016599Y-88381582D01*
X88040659Y-89031377D01*
X88243035Y-89519958D01*
X88509837Y-89618557D01*
X89482395Y-88646000D01*
X89841605Y-88646000D01*
X90814163Y-89618557D01*
X91080965Y-89519958D01*
X91307401Y-88910418D01*
X91287820Y-88381582D01*
X91318599Y-88381582D01*
X91342659Y-89031377D01*
X91545035Y-89519958D01*
X91811837Y-89618557D01*
X92784395Y-88646000D01*
X93143605Y-88646000D01*
X94116163Y-89618557D01*
X94382965Y-89519958D01*
X94609401Y-88910418D01*
X94585341Y-88260623D01*
X94382965Y-87772042D01*
X94116163Y-87673443D01*
X93143605Y-88646000D01*
X92784395Y-88646000D01*
X91811837Y-87673443D01*
X91545035Y-87772042D01*
X91318599Y-88381582D01*
X91287820Y-88381582D01*
X91283341Y-88260623D01*
X91080965Y-87772042D01*
X90814163Y-87673443D01*
X89841605Y-88646000D01*
X89482395Y-88646000D01*
X88509837Y-87673443D01*
X88243035Y-87772042D01*
X88016599Y-88381582D01*
X87985820Y-88381582D01*
X87981341Y-88260623D01*
X87778965Y-87772042D01*
X87512163Y-87673443D01*
X86539605Y-88646000D01*
X86180395Y-88646000D01*
X85207837Y-87673443D01*
X84941035Y-87772042D01*
X84714599Y-88381582D01*
X69216763Y-88381582D01*
X69316777Y-88140724D01*
X69317223Y-87629519D01*
X69261161Y-87493837D01*
X85387443Y-87493837D01*
X86360000Y-88466395D01*
X87332557Y-87493837D01*
X88689443Y-87493837D01*
X89662000Y-88466395D01*
X90634557Y-87493837D01*
X91991443Y-87493837D01*
X92964000Y-88466395D01*
X93936557Y-87493837D01*
X93837958Y-87227035D01*
X93228418Y-87000599D01*
X92578623Y-87024659D01*
X92090042Y-87227035D01*
X91991443Y-87493837D01*
X90634557Y-87493837D01*
X90535958Y-87227035D01*
X89926418Y-87000599D01*
X89276623Y-87024659D01*
X88788042Y-87227035D01*
X88689443Y-87493837D01*
X87332557Y-87493837D01*
X87233958Y-87227035D01*
X86624418Y-87000599D01*
X85974623Y-87024659D01*
X85486042Y-87227035D01*
X85387443Y-87493837D01*
X69261161Y-87493837D01*
X69122005Y-87157057D01*
X68760845Y-86795265D01*
X68288724Y-86599223D01*
X67777519Y-86598777D01*
X67305057Y-86793995D01*
X66943265Y-87155155D01*
X66829440Y-87429276D01*
X66829440Y-87234000D01*
X66785162Y-86998683D01*
X66646090Y-86782559D01*
X66433890Y-86637569D01*
X66182000Y-86586560D01*
X64882000Y-86586560D01*
X64646683Y-86630838D01*
X64430559Y-86769910D01*
X64285569Y-86982110D01*
X64234560Y-87234000D01*
X53953798Y-87234000D01*
X53922005Y-87157057D01*
X53560845Y-86795265D01*
X53088724Y-86599223D01*
X52577519Y-86598777D01*
X52105057Y-86793995D01*
X51743265Y-87155155D01*
X51629440Y-87429276D01*
X51629440Y-87234000D01*
X51585162Y-86998683D01*
X51446090Y-86782559D01*
X51233890Y-86637569D01*
X50982000Y-86586560D01*
X49682000Y-86586560D01*
X49446683Y-86630838D01*
X49230559Y-86769910D01*
X49085569Y-86982110D01*
X49034560Y-87234000D01*
X38205798Y-87234000D01*
X38174005Y-87157057D01*
X37812845Y-86795265D01*
X37340724Y-86599223D01*
X36829519Y-86598777D01*
X36357057Y-86793995D01*
X35995265Y-87155155D01*
X35881440Y-87429276D01*
X35881440Y-87234000D01*
X35837162Y-86998683D01*
X35698090Y-86782559D01*
X35485890Y-86637569D01*
X35234000Y-86586560D01*
X33934000Y-86586560D01*
X33698683Y-86630838D01*
X33482559Y-86769910D01*
X33337569Y-86982110D01*
X33286560Y-87234000D01*
X30174000Y-87234000D01*
X30174000Y-74384679D01*
X80264000Y-74384679D01*
X80264000Y-75475321D01*
X80370340Y-76009930D01*
X80673172Y-76463149D01*
X81126391Y-76765981D01*
X81661000Y-76872321D01*
X82195609Y-76765981D01*
X82648828Y-76463149D01*
X82931000Y-76040850D01*
X83213172Y-76463149D01*
X83666391Y-76765981D01*
X84201000Y-76872321D01*
X84735609Y-76765981D01*
X85188828Y-76463149D01*
X85471000Y-76040850D01*
X85753172Y-76463149D01*
X86206391Y-76765981D01*
X86637588Y-76851751D01*
X86036306Y-76851226D01*
X85435345Y-77099538D01*
X84975154Y-77558927D01*
X84725794Y-78159453D01*
X84725226Y-78809694D01*
X84973538Y-79410655D01*
X85432927Y-79870846D01*
X86033453Y-80120206D01*
X86683694Y-80120774D01*
X87284655Y-79872462D01*
X87744846Y-79413073D01*
X87994206Y-78812547D01*
X87994774Y-78162306D01*
X87746462Y-77561345D01*
X87287073Y-77101154D01*
X86731367Y-76870405D01*
X86741000Y-76872321D01*
X87275609Y-76765981D01*
X87728828Y-76463149D01*
X88011000Y-76040850D01*
X88293172Y-76463149D01*
X88746391Y-76765981D01*
X89281000Y-76872321D01*
X89293056Y-76869923D01*
X88737345Y-77099538D01*
X88277154Y-77558927D01*
X88027794Y-78159453D01*
X88027226Y-78809694D01*
X88275538Y-79410655D01*
X88734927Y-79870846D01*
X89335453Y-80120206D01*
X89985694Y-80120774D01*
X90586655Y-79872462D01*
X91046846Y-79413073D01*
X91296206Y-78812547D01*
X91296208Y-78809694D01*
X91329226Y-78809694D01*
X91577538Y-79410655D01*
X92036927Y-79870846D01*
X92637453Y-80120206D01*
X93287694Y-80120774D01*
X93888655Y-79872462D01*
X94348846Y-79413073D01*
X94598206Y-78812547D01*
X94598774Y-78162306D01*
X94350462Y-77561345D01*
X93891073Y-77101154D01*
X93290547Y-76851794D01*
X92640306Y-76851226D01*
X92039345Y-77099538D01*
X91579154Y-77558927D01*
X91329794Y-78159453D01*
X91329226Y-78809694D01*
X91296208Y-78809694D01*
X91296774Y-78162306D01*
X91048462Y-77561345D01*
X90589073Y-77101154D01*
X89988547Y-76851794D01*
X89386839Y-76851268D01*
X89815609Y-76765981D01*
X90268828Y-76463149D01*
X90551000Y-76040850D01*
X90833172Y-76463149D01*
X91286391Y-76765981D01*
X91821000Y-76872321D01*
X92355609Y-76765981D01*
X92808828Y-76463149D01*
X93091000Y-76040850D01*
X93373172Y-76463149D01*
X93826391Y-76765981D01*
X94361000Y-76872321D01*
X94895609Y-76765981D01*
X95348828Y-76463149D01*
X95631000Y-76040850D01*
X95913172Y-76463149D01*
X96366391Y-76765981D01*
X96901000Y-76872321D01*
X97435609Y-76765981D01*
X97888828Y-76463149D01*
X98171000Y-76040850D01*
X98453172Y-76463149D01*
X98906391Y-76765981D01*
X99335348Y-76851306D01*
X99244306Y-76851226D01*
X98643345Y-77099538D01*
X98183154Y-77558927D01*
X97933794Y-78159453D01*
X97933226Y-78809694D01*
X98057223Y-79109790D01*
X97859063Y-78911630D01*
X97900206Y-78812547D01*
X97900774Y-78162306D01*
X97652462Y-77561345D01*
X97193073Y-77101154D01*
X96592547Y-76851794D01*
X95942306Y-76851226D01*
X95341345Y-77099538D01*
X94881154Y-77558927D01*
X94631794Y-78159453D01*
X94631226Y-78809694D01*
X94879538Y-79410655D01*
X95338927Y-79870846D01*
X95939453Y-80120206D01*
X96589694Y-80120774D01*
X96691341Y-80078774D01*
X97116900Y-80504333D01*
X97116900Y-87229524D01*
X96592547Y-87011794D01*
X95942306Y-87011226D01*
X95341345Y-87259538D01*
X94881154Y-87718927D01*
X94631794Y-88319453D01*
X94631226Y-88969694D01*
X94879538Y-89570655D01*
X95338927Y-90030846D01*
X95440500Y-90073023D01*
X95440500Y-90652600D01*
X95503337Y-90968506D01*
X95682283Y-91236317D01*
X96825283Y-92379317D01*
X97093094Y-92558263D01*
X97409000Y-92621100D01*
X98501243Y-92621100D01*
X98817149Y-92558263D01*
X99084960Y-92379317D01*
X99226489Y-92237787D01*
X100037392Y-92237787D01*
X100838000Y-93038395D01*
X101638608Y-92237787D01*
X101569143Y-91995603D01*
X101045698Y-91808856D01*
X100490632Y-91836638D01*
X100106857Y-91995603D01*
X100037392Y-92237787D01*
X99226489Y-92237787D01*
X100151714Y-91312562D01*
X100151717Y-91312560D01*
X100293558Y-91100280D01*
X100330663Y-91044749D01*
X100393500Y-90728843D01*
X100393500Y-90073432D01*
X100492655Y-90032462D01*
X100727363Y-89798163D01*
X101897443Y-89798163D01*
X101996042Y-90064965D01*
X102605582Y-90291401D01*
X103255377Y-90267341D01*
X103743958Y-90064965D01*
X103842557Y-89798163D01*
X105199443Y-89798163D01*
X105298042Y-90064965D01*
X105907582Y-90291401D01*
X106557377Y-90267341D01*
X107045958Y-90064965D01*
X107144557Y-89798163D01*
X106172000Y-88825605D01*
X105199443Y-89798163D01*
X103842557Y-89798163D01*
X102870000Y-88825605D01*
X101897443Y-89798163D01*
X100727363Y-89798163D01*
X100952846Y-89573073D01*
X101202206Y-88972547D01*
X101202722Y-88381582D01*
X101224599Y-88381582D01*
X101248659Y-89031377D01*
X101451035Y-89519958D01*
X101717837Y-89618557D01*
X102690395Y-88646000D01*
X103049605Y-88646000D01*
X104022163Y-89618557D01*
X104288965Y-89519958D01*
X104515401Y-88910418D01*
X104495820Y-88381582D01*
X104526599Y-88381582D01*
X104550659Y-89031377D01*
X104753035Y-89519958D01*
X105019837Y-89618557D01*
X105992395Y-88646000D01*
X106351605Y-88646000D01*
X107324163Y-89618557D01*
X107590965Y-89519958D01*
X107817401Y-88910418D01*
X107797820Y-88381582D01*
X107828599Y-88381582D01*
X107852659Y-89031377D01*
X108055035Y-89519958D01*
X108321837Y-89618557D01*
X109294395Y-88646000D01*
X108321837Y-87673443D01*
X108055035Y-87772042D01*
X107828599Y-88381582D01*
X107797820Y-88381582D01*
X107793341Y-88260623D01*
X107590965Y-87772042D01*
X107324163Y-87673443D01*
X106351605Y-88646000D01*
X105992395Y-88646000D01*
X105019837Y-87673443D01*
X104753035Y-87772042D01*
X104526599Y-88381582D01*
X104495820Y-88381582D01*
X104491341Y-88260623D01*
X104288965Y-87772042D01*
X104022163Y-87673443D01*
X103049605Y-88646000D01*
X102690395Y-88646000D01*
X101717837Y-87673443D01*
X101451035Y-87772042D01*
X101224599Y-88381582D01*
X101202722Y-88381582D01*
X101202774Y-88322306D01*
X100954462Y-87721345D01*
X100727351Y-87493837D01*
X101897443Y-87493837D01*
X102870000Y-88466395D01*
X103842557Y-87493837D01*
X105199443Y-87493837D01*
X106172000Y-88466395D01*
X107144557Y-87493837D01*
X107045958Y-87227035D01*
X106436418Y-87000599D01*
X105786623Y-87024659D01*
X105298042Y-87227035D01*
X105199443Y-87493837D01*
X103842557Y-87493837D01*
X103743958Y-87227035D01*
X103134418Y-87000599D01*
X102484623Y-87024659D01*
X101996042Y-87227035D01*
X101897443Y-87493837D01*
X100727351Y-87493837D01*
X100495073Y-87261154D01*
X99894547Y-87011794D01*
X99244306Y-87011226D01*
X98767900Y-87208073D01*
X98767900Y-86485008D01*
X108483224Y-86485008D01*
X108637575Y-86858566D01*
X108886821Y-87108248D01*
X108600042Y-87227035D01*
X108501443Y-87493837D01*
X109474000Y-88466395D01*
X109488143Y-88452253D01*
X109667748Y-88631858D01*
X109653605Y-88646000D01*
X109667748Y-88660142D01*
X109488142Y-88839748D01*
X109474000Y-88825605D01*
X108501443Y-89798163D01*
X108600042Y-90064965D01*
X109209582Y-90291401D01*
X109859377Y-90267341D01*
X110347958Y-90064965D01*
X110426500Y-89852436D01*
X110426500Y-92093526D01*
X110068371Y-92451030D01*
X109988605Y-92643127D01*
X109934397Y-92512257D01*
X109692213Y-92442792D01*
X108891605Y-93243400D01*
X109692213Y-94044008D01*
X109934397Y-93974543D01*
X109984509Y-93834082D01*
X110066990Y-94033703D01*
X110459630Y-94427029D01*
X110972900Y-94640157D01*
X111528661Y-94640642D01*
X112042303Y-94428410D01*
X112435629Y-94035770D01*
X112521949Y-93827888D01*
X112606990Y-94033703D01*
X112999630Y-94427029D01*
X113512900Y-94640157D01*
X114068661Y-94640642D01*
X114260939Y-94561195D01*
X114366412Y-94816459D01*
X114630551Y-95081059D01*
X114975842Y-95224437D01*
X115349718Y-95224763D01*
X115695259Y-95081988D01*
X115959859Y-94817849D01*
X116073634Y-94543849D01*
X116378302Y-94652544D01*
X116933368Y-94624762D01*
X117317143Y-94465797D01*
X117386608Y-94223613D01*
X116586000Y-93423005D01*
X116571858Y-93437148D01*
X116392253Y-93257543D01*
X116406395Y-93243400D01*
X116392253Y-93229258D01*
X116571858Y-93049653D01*
X116586000Y-93063795D01*
X116600143Y-93049653D01*
X116779748Y-93229258D01*
X116765605Y-93243400D01*
X117566213Y-94044008D01*
X117808397Y-93974543D01*
X117858509Y-93834082D01*
X117940990Y-94033703D01*
X118333630Y-94427029D01*
X118846900Y-94640157D01*
X119402661Y-94640642D01*
X119916303Y-94428410D01*
X120309629Y-94035770D01*
X120395949Y-93827888D01*
X120480990Y-94033703D01*
X120873630Y-94427029D01*
X121386900Y-94640157D01*
X121942661Y-94640642D01*
X122456303Y-94428410D01*
X122849629Y-94035770D01*
X123062757Y-93522500D01*
X123062781Y-93494717D01*
X123274990Y-94008303D01*
X123667630Y-94401629D01*
X124180900Y-94614757D01*
X124736661Y-94615242D01*
X125250303Y-94403010D01*
X125643629Y-94010370D01*
X125729949Y-93802488D01*
X125814990Y-94008303D01*
X126207630Y-94401629D01*
X126614225Y-94570462D01*
X126443979Y-94740411D01*
X126288976Y-95113698D01*
X126288845Y-95264565D01*
X124998409Y-95264565D01*
X124723538Y-95150428D01*
X124349662Y-95150102D01*
X124004121Y-95292877D01*
X123739521Y-95557016D01*
X123596143Y-95902307D01*
X123595817Y-96276183D01*
X123738592Y-96621724D01*
X124002731Y-96886324D01*
X124348022Y-97029702D01*
X124721898Y-97030028D01*
X124998919Y-96915565D01*
X128421283Y-96915565D01*
X128737189Y-96852728D01*
X128847061Y-96779314D01*
X128895042Y-96799237D01*
X129268918Y-96799563D01*
X129614459Y-96656788D01*
X129879059Y-96392649D01*
X130022437Y-96047358D01*
X130022763Y-95673482D01*
X129879988Y-95327941D01*
X129871756Y-95319694D01*
X132731226Y-95319694D01*
X132979538Y-95920655D01*
X133438927Y-96380846D01*
X134039453Y-96630206D01*
X134689694Y-96630774D01*
X135290655Y-96382462D01*
X135750846Y-95923073D01*
X136000206Y-95322547D01*
X136000208Y-95319694D01*
X142891226Y-95319694D01*
X143139538Y-95920655D01*
X143598927Y-96380846D01*
X144199453Y-96630206D01*
X144849694Y-96630774D01*
X145450655Y-96382462D01*
X145910846Y-95923073D01*
X146160206Y-95322547D01*
X146160774Y-94672306D01*
X145912462Y-94071345D01*
X145453073Y-93611154D01*
X144852547Y-93361794D01*
X144202306Y-93361226D01*
X143601345Y-93609538D01*
X143141154Y-94068927D01*
X142891794Y-94669453D01*
X142891226Y-95319694D01*
X136000208Y-95319694D01*
X136000774Y-94672306D01*
X135752462Y-94071345D01*
X135293073Y-93611154D01*
X134692547Y-93361794D01*
X134042306Y-93361226D01*
X133441345Y-93609538D01*
X132981154Y-94068927D01*
X132731794Y-94669453D01*
X132731226Y-95319694D01*
X129871756Y-95319694D01*
X129615849Y-95063341D01*
X129270558Y-94919963D01*
X129005701Y-94919732D01*
X129310633Y-94614800D01*
X129816661Y-94615242D01*
X130330303Y-94403010D01*
X130723629Y-94010370D01*
X130936757Y-93497100D01*
X130937242Y-92941339D01*
X130897917Y-92846163D01*
X133393443Y-92846163D01*
X133492042Y-93112965D01*
X134101582Y-93339401D01*
X134751377Y-93315341D01*
X135239958Y-93112965D01*
X135338557Y-92846163D01*
X134366000Y-91873605D01*
X133393443Y-92846163D01*
X130897917Y-92846163D01*
X130725010Y-92427697D01*
X130332370Y-92034371D01*
X129819100Y-91821243D01*
X129263339Y-91820758D01*
X128749697Y-92032990D01*
X128356371Y-92425630D01*
X128270051Y-92633512D01*
X128185010Y-92427697D01*
X127792370Y-92034371D01*
X127279100Y-91821243D01*
X126723339Y-91820758D01*
X126209697Y-92032990D01*
X125816371Y-92425630D01*
X125730051Y-92633512D01*
X125645010Y-92427697D01*
X125252370Y-92034371D01*
X124739100Y-91821243D01*
X124183339Y-91820758D01*
X123669697Y-92032990D01*
X123276371Y-92425630D01*
X123063243Y-92938900D01*
X123063219Y-92966683D01*
X122851010Y-92453097D01*
X122458370Y-92059771D01*
X121945100Y-91846643D01*
X121389339Y-91846158D01*
X120875697Y-92058390D01*
X120482371Y-92451030D01*
X120396051Y-92658912D01*
X120311010Y-92453097D01*
X119918370Y-92059771D01*
X119405100Y-91846643D01*
X118896233Y-91846199D01*
X118579900Y-91529866D01*
X118579900Y-91429582D01*
X132720599Y-91429582D01*
X132744659Y-92079377D01*
X132947035Y-92567958D01*
X133213837Y-92666557D01*
X134186395Y-91694000D01*
X134545605Y-91694000D01*
X135518163Y-92666557D01*
X135784965Y-92567958D01*
X136011401Y-91958418D01*
X135987341Y-91308623D01*
X135784965Y-90820042D01*
X135518163Y-90721443D01*
X134545605Y-91694000D01*
X134186395Y-91694000D01*
X133213837Y-90721443D01*
X132947035Y-90820042D01*
X132720599Y-91429582D01*
X118579900Y-91429582D01*
X118579900Y-90541837D01*
X133393443Y-90541837D01*
X134366000Y-91514395D01*
X135338557Y-90541837D01*
X135239958Y-90275035D01*
X134630418Y-90048599D01*
X133980623Y-90072659D01*
X133492042Y-90275035D01*
X133393443Y-90541837D01*
X118579900Y-90541837D01*
X118579900Y-90083570D01*
X119053453Y-90280206D01*
X119703694Y-90280774D01*
X120304655Y-90032462D01*
X120764846Y-89573073D01*
X121014206Y-88972547D01*
X121014208Y-88969694D01*
X121047226Y-88969694D01*
X121295538Y-89570655D01*
X121754927Y-90030846D01*
X122355453Y-90280206D01*
X123005694Y-90280774D01*
X123606655Y-90032462D01*
X124066846Y-89573073D01*
X124316206Y-88972547D01*
X124316208Y-88969694D01*
X124349226Y-88969694D01*
X124597538Y-89570655D01*
X125056927Y-90030846D01*
X125657453Y-90280206D01*
X126307694Y-90280774D01*
X126908655Y-90032462D01*
X127368846Y-89573073D01*
X127423389Y-89441718D01*
X136524837Y-89441718D01*
X136667612Y-89787259D01*
X136931751Y-90051859D01*
X137208571Y-90166805D01*
X138835295Y-91793529D01*
X138877412Y-91895459D01*
X139141551Y-92160059D01*
X139486842Y-92303437D01*
X139860718Y-92303763D01*
X140206259Y-92160988D01*
X140470859Y-91896849D01*
X140614237Y-91551558D01*
X140614563Y-91177682D01*
X140471788Y-90832141D01*
X140207649Y-90567541D01*
X139862358Y-90424163D01*
X139800743Y-90424109D01*
X138375645Y-88999011D01*
X138323119Y-88871887D01*
X141313000Y-88871887D01*
X141313000Y-88928113D01*
X141422233Y-89477264D01*
X141733302Y-89942811D01*
X142198849Y-90253880D01*
X142748000Y-90363113D01*
X143297151Y-90253880D01*
X143762698Y-89942811D01*
X144018000Y-89560725D01*
X144273302Y-89942811D01*
X144447850Y-90059440D01*
X144202306Y-90059226D01*
X143601345Y-90307538D01*
X143141154Y-90766927D01*
X142891794Y-91367453D01*
X142891226Y-92017694D01*
X143139538Y-92618655D01*
X143598927Y-93078846D01*
X144199453Y-93328206D01*
X144849694Y-93328774D01*
X145450655Y-93080462D01*
X145910846Y-92621073D01*
X146160206Y-92020547D01*
X146160215Y-92010000D01*
X146226560Y-92010000D01*
X146226560Y-93410000D01*
X146270838Y-93645317D01*
X146409910Y-93861441D01*
X146622110Y-94006431D01*
X146874000Y-94057440D01*
X148274000Y-94057440D01*
X148509317Y-94013162D01*
X148725441Y-93874090D01*
X148870431Y-93661890D01*
X148873795Y-93645275D01*
X151818331Y-93645275D01*
X151880169Y-93881042D01*
X152381122Y-94057419D01*
X152911440Y-94028664D01*
X153267831Y-93881042D01*
X153329669Y-93645275D01*
X152574000Y-92889605D01*
X151818331Y-93645275D01*
X148873795Y-93645275D01*
X148921440Y-93410000D01*
X148921440Y-92517122D01*
X151226581Y-92517122D01*
X151255336Y-93047440D01*
X151402958Y-93403831D01*
X151638725Y-93465669D01*
X152394395Y-92710000D01*
X151638725Y-91954331D01*
X151402958Y-92016169D01*
X151226581Y-92517122D01*
X148921440Y-92517122D01*
X148921440Y-92010000D01*
X148877170Y-91774725D01*
X151818331Y-91774725D01*
X152574000Y-92530395D01*
X153329669Y-91774725D01*
X153267831Y-91538958D01*
X152766878Y-91362581D01*
X152236560Y-91391336D01*
X151880169Y-91538958D01*
X151818331Y-91774725D01*
X148877170Y-91774725D01*
X148877162Y-91774683D01*
X148738090Y-91558559D01*
X148525890Y-91413569D01*
X148274000Y-91362560D01*
X146874000Y-91362560D01*
X146638683Y-91406838D01*
X146422559Y-91545910D01*
X146277569Y-91758110D01*
X146226560Y-92010000D01*
X146160215Y-92010000D01*
X146160774Y-91370306D01*
X145912462Y-90769345D01*
X145470667Y-90326778D01*
X145837151Y-90253880D01*
X146302698Y-89942811D01*
X146558000Y-89560725D01*
X146813302Y-89942811D01*
X147278849Y-90253880D01*
X147828000Y-90363113D01*
X148377151Y-90253880D01*
X148842698Y-89942811D01*
X149112986Y-89538297D01*
X149215611Y-89755134D01*
X149630577Y-90131041D01*
X150018961Y-90291904D01*
X150241000Y-90169915D01*
X150241000Y-89027000D01*
X150495000Y-89027000D01*
X150495000Y-90169915D01*
X150717039Y-90291904D01*
X151105423Y-90131041D01*
X151520389Y-89755134D01*
X151759914Y-89249041D01*
X151638629Y-89027000D01*
X150495000Y-89027000D01*
X150241000Y-89027000D01*
X150221000Y-89027000D01*
X150221000Y-88773000D01*
X150241000Y-88773000D01*
X150241000Y-87630085D01*
X150495000Y-87630085D01*
X150495000Y-88773000D01*
X151638629Y-88773000D01*
X151759914Y-88550959D01*
X151520389Y-88044866D01*
X151105423Y-87668959D01*
X150717039Y-87508096D01*
X150495000Y-87630085D01*
X150241000Y-87630085D01*
X150018961Y-87508096D01*
X149630577Y-87668959D01*
X149215611Y-88044866D01*
X149112986Y-88261703D01*
X148842698Y-87857189D01*
X148377151Y-87546120D01*
X147828000Y-87436887D01*
X147278849Y-87546120D01*
X146813302Y-87857189D01*
X146558000Y-88239275D01*
X146302698Y-87857189D01*
X145837151Y-87546120D01*
X145288000Y-87436887D01*
X144738849Y-87546120D01*
X144273302Y-87857189D01*
X144018000Y-88239275D01*
X143762698Y-87857189D01*
X143297151Y-87546120D01*
X142748000Y-87436887D01*
X142198849Y-87546120D01*
X141733302Y-87857189D01*
X141422233Y-88322736D01*
X141313000Y-88871887D01*
X138323119Y-88871887D01*
X138275556Y-88756778D01*
X138361831Y-88721042D01*
X138423669Y-88485275D01*
X137668000Y-87729605D01*
X136943456Y-88454150D01*
X136933141Y-88458412D01*
X136668541Y-88722551D01*
X136525163Y-89067842D01*
X136524837Y-89441718D01*
X127423389Y-89441718D01*
X127618206Y-88972547D01*
X127618774Y-88322306D01*
X127370462Y-87721345D01*
X127006874Y-87357122D01*
X136320581Y-87357122D01*
X136349336Y-87887440D01*
X136496958Y-88243831D01*
X136732725Y-88305669D01*
X137488395Y-87550000D01*
X137847605Y-87550000D01*
X138603275Y-88305669D01*
X138839042Y-88243831D01*
X139015419Y-87742878D01*
X138986664Y-87212560D01*
X138839042Y-86856169D01*
X138603275Y-86794331D01*
X137847605Y-87550000D01*
X137488395Y-87550000D01*
X136732725Y-86794331D01*
X136496958Y-86856169D01*
X136320581Y-87357122D01*
X127006874Y-87357122D01*
X126911073Y-87261154D01*
X126310547Y-87011794D01*
X125660306Y-87011226D01*
X125059345Y-87259538D01*
X124599154Y-87718927D01*
X124349794Y-88319453D01*
X124349226Y-88969694D01*
X124316208Y-88969694D01*
X124316774Y-88322306D01*
X124068462Y-87721345D01*
X123609073Y-87261154D01*
X123008547Y-87011794D01*
X122358306Y-87011226D01*
X121757345Y-87259538D01*
X121297154Y-87718927D01*
X121047794Y-88319453D01*
X121047226Y-88969694D01*
X121014208Y-88969694D01*
X121014774Y-88322306D01*
X120766462Y-87721345D01*
X120307073Y-87261154D01*
X119706547Y-87011794D01*
X119056306Y-87011226D01*
X118525691Y-87230472D01*
X118517063Y-87187094D01*
X118408527Y-87024659D01*
X118338117Y-86919283D01*
X118338114Y-86919281D01*
X118033559Y-86614725D01*
X136912331Y-86614725D01*
X137668000Y-87370395D01*
X138423669Y-86614725D01*
X138361831Y-86378958D01*
X137860878Y-86202581D01*
X137330560Y-86231336D01*
X136974169Y-86378958D01*
X136912331Y-86614725D01*
X118033559Y-86614725D01*
X117640889Y-86222055D01*
X117373078Y-86043109D01*
X117057172Y-85980272D01*
X111964024Y-85980272D01*
X111928765Y-85944951D01*
X111555478Y-85789948D01*
X111151288Y-85789596D01*
X110777730Y-85943947D01*
X110539448Y-86181814D01*
X110515510Y-86157877D01*
X110515576Y-86082592D01*
X110361225Y-85709034D01*
X110075669Y-85422979D01*
X109702382Y-85267976D01*
X109298192Y-85267624D01*
X108924634Y-85421975D01*
X108638579Y-85707531D01*
X108483576Y-86080818D01*
X108483224Y-86485008D01*
X98767900Y-86485008D01*
X98767900Y-81850000D01*
X136320560Y-81850000D01*
X136320560Y-83250000D01*
X136364838Y-83485317D01*
X136503910Y-83701441D01*
X136716110Y-83846431D01*
X136968000Y-83897440D01*
X138368000Y-83897440D01*
X138603317Y-83853162D01*
X138819441Y-83714090D01*
X138964431Y-83501890D01*
X139015440Y-83250000D01*
X139015440Y-81850000D01*
X138971162Y-81614683D01*
X138832090Y-81398559D01*
X138619890Y-81253569D01*
X138368000Y-81202560D01*
X136968000Y-81202560D01*
X136732683Y-81246838D01*
X136516559Y-81385910D01*
X136371569Y-81598110D01*
X136320560Y-81850000D01*
X98767900Y-81850000D01*
X98767900Y-80162405D01*
X98767901Y-80162400D01*
X98716117Y-79902068D01*
X99241453Y-80120206D01*
X99891694Y-80120774D01*
X100492655Y-79872462D01*
X100952846Y-79413073D01*
X101202206Y-78812547D01*
X101202208Y-78809694D01*
X101235226Y-78809694D01*
X101483538Y-79410655D01*
X101942927Y-79870846D01*
X102543453Y-80120206D01*
X103193694Y-80120774D01*
X103794655Y-79872462D01*
X104254846Y-79413073D01*
X104504206Y-78812547D01*
X104504774Y-78162306D01*
X104256462Y-77561345D01*
X103797073Y-77101154D01*
X103196547Y-76851794D01*
X102546306Y-76851226D01*
X101945345Y-77099538D01*
X101485154Y-77558927D01*
X101235794Y-78159453D01*
X101235226Y-78809694D01*
X101202208Y-78809694D01*
X101202774Y-78162306D01*
X100954462Y-77561345D01*
X100495073Y-77101154D01*
X99894547Y-76851794D01*
X99545728Y-76851489D01*
X99975609Y-76765981D01*
X100428828Y-76463149D01*
X100731660Y-76009930D01*
X100838000Y-75475321D01*
X100838000Y-74384679D01*
X102108000Y-74384679D01*
X102108000Y-75475321D01*
X102214340Y-76009930D01*
X102517172Y-76463149D01*
X102970391Y-76765981D01*
X103505000Y-76872321D01*
X104039609Y-76765981D01*
X104492828Y-76463149D01*
X104775000Y-76040850D01*
X105057172Y-76463149D01*
X105510391Y-76765981D01*
X105939348Y-76851306D01*
X105848306Y-76851226D01*
X105247345Y-77099538D01*
X104787154Y-77558927D01*
X104537794Y-78159453D01*
X104537226Y-78809694D01*
X104785538Y-79410655D01*
X105244927Y-79870846D01*
X105845453Y-80120206D01*
X106495694Y-80120774D01*
X107096655Y-79872462D01*
X107556846Y-79413073D01*
X107806206Y-78812547D01*
X107806208Y-78809694D01*
X107839226Y-78809694D01*
X108087538Y-79410655D01*
X108546927Y-79870846D01*
X109147453Y-80120206D01*
X109797694Y-80120774D01*
X110398655Y-79872462D01*
X110858846Y-79413073D01*
X111108206Y-78812547D01*
X111108208Y-78809694D01*
X111141226Y-78809694D01*
X111389538Y-79410655D01*
X111848927Y-79870846D01*
X112449453Y-80120206D01*
X113099694Y-80120774D01*
X113700655Y-79872462D01*
X114160846Y-79413073D01*
X114410206Y-78812547D01*
X114410774Y-78162306D01*
X114162462Y-77561345D01*
X113703073Y-77101154D01*
X113102547Y-76851794D01*
X112452306Y-76851226D01*
X111851345Y-77099538D01*
X111391154Y-77558927D01*
X111141794Y-78159453D01*
X111141226Y-78809694D01*
X111108208Y-78809694D01*
X111108774Y-78162306D01*
X110860462Y-77561345D01*
X110401073Y-77101154D01*
X109800547Y-76851794D01*
X109150306Y-76851226D01*
X108549345Y-77099538D01*
X108089154Y-77558927D01*
X107839794Y-78159453D01*
X107839226Y-78809694D01*
X107806208Y-78809694D01*
X107806774Y-78162306D01*
X107558462Y-77561345D01*
X107099073Y-77101154D01*
X106498547Y-76851794D01*
X106149728Y-76851489D01*
X106579609Y-76765981D01*
X107032828Y-76463149D01*
X107315000Y-76040850D01*
X107597172Y-76463149D01*
X108050391Y-76765981D01*
X108585000Y-76872321D01*
X109119609Y-76765981D01*
X109572828Y-76463149D01*
X109855000Y-76040850D01*
X110137172Y-76463149D01*
X110590391Y-76765981D01*
X111125000Y-76872321D01*
X111659609Y-76765981D01*
X112112828Y-76463149D01*
X112395000Y-76040850D01*
X112677172Y-76463149D01*
X113130391Y-76765981D01*
X113665000Y-76872321D01*
X114199609Y-76765981D01*
X114652828Y-76463149D01*
X114935000Y-76040850D01*
X115217172Y-76463149D01*
X115670391Y-76765981D01*
X116100468Y-76851528D01*
X115754306Y-76851226D01*
X115153345Y-77099538D01*
X114693154Y-77558927D01*
X114443794Y-78159453D01*
X114443226Y-78809694D01*
X114691538Y-79410655D01*
X115150927Y-79870846D01*
X115751453Y-80120206D01*
X116401694Y-80120774D01*
X117002655Y-79872462D01*
X117462846Y-79413073D01*
X117712206Y-78812547D01*
X117712208Y-78809694D01*
X117745226Y-78809694D01*
X117993538Y-79410655D01*
X118452927Y-79870846D01*
X119053453Y-80120206D01*
X119703694Y-80120774D01*
X120304655Y-79872462D01*
X120764846Y-79413073D01*
X121014206Y-78812547D01*
X121014208Y-78809694D01*
X121047226Y-78809694D01*
X121295538Y-79410655D01*
X121754927Y-79870846D01*
X122355453Y-80120206D01*
X123005694Y-80120774D01*
X123606655Y-79872462D01*
X124066846Y-79413073D01*
X124316206Y-78812547D01*
X124316208Y-78809694D01*
X124349226Y-78809694D01*
X124597538Y-79410655D01*
X125056927Y-79870846D01*
X125657453Y-80120206D01*
X126307694Y-80120774D01*
X126908655Y-79872462D01*
X127143363Y-79638163D01*
X133393443Y-79638163D01*
X133492042Y-79904965D01*
X134101582Y-80131401D01*
X134751377Y-80107341D01*
X135239958Y-79904965D01*
X135338557Y-79638163D01*
X134366000Y-78665605D01*
X133393443Y-79638163D01*
X127143363Y-79638163D01*
X127368846Y-79413073D01*
X127618206Y-78812547D01*
X127618722Y-78221582D01*
X132720599Y-78221582D01*
X132744659Y-78871377D01*
X132947035Y-79359958D01*
X133213837Y-79458557D01*
X134186395Y-78486000D01*
X134545605Y-78486000D01*
X135518163Y-79458557D01*
X135784965Y-79359958D01*
X136011401Y-78750418D01*
X135987341Y-78100623D01*
X135784965Y-77612042D01*
X135518163Y-77513443D01*
X134545605Y-78486000D01*
X134186395Y-78486000D01*
X133213837Y-77513443D01*
X132947035Y-77612042D01*
X132720599Y-78221582D01*
X127618722Y-78221582D01*
X127618774Y-78162306D01*
X127370462Y-77561345D01*
X127143351Y-77333837D01*
X133393443Y-77333837D01*
X134366000Y-78306395D01*
X135338557Y-77333837D01*
X135239958Y-77067035D01*
X134630418Y-76840599D01*
X133980623Y-76864659D01*
X133492042Y-77067035D01*
X133393443Y-77333837D01*
X127143351Y-77333837D01*
X126911073Y-77101154D01*
X126310547Y-76851794D01*
X125660306Y-76851226D01*
X125059345Y-77099538D01*
X124599154Y-77558927D01*
X124349794Y-78159453D01*
X124349226Y-78809694D01*
X124316208Y-78809694D01*
X124316774Y-78162306D01*
X124068462Y-77561345D01*
X123609073Y-77101154D01*
X123008547Y-76851794D01*
X122358306Y-76851226D01*
X121757345Y-77099538D01*
X121297154Y-77558927D01*
X121047794Y-78159453D01*
X121047226Y-78809694D01*
X121014208Y-78809694D01*
X121014774Y-78162306D01*
X120766462Y-77561345D01*
X120307073Y-77101154D01*
X119706547Y-76851794D01*
X119056306Y-76851226D01*
X118455345Y-77099538D01*
X117995154Y-77558927D01*
X117745794Y-78159453D01*
X117745226Y-78809694D01*
X117712208Y-78809694D01*
X117712774Y-78162306D01*
X117464462Y-77561345D01*
X117005073Y-77101154D01*
X116404547Y-76851794D01*
X116308618Y-76851710D01*
X116739609Y-76765981D01*
X117192828Y-76463149D01*
X117475000Y-76040850D01*
X117757172Y-76463149D01*
X118210391Y-76765981D01*
X118745000Y-76872321D01*
X119279609Y-76765981D01*
X119732828Y-76463149D01*
X120015000Y-76040850D01*
X120297172Y-76463149D01*
X120750391Y-76765981D01*
X121285000Y-76872321D01*
X121819609Y-76765981D01*
X122272828Y-76463149D01*
X122575660Y-76009930D01*
X122682000Y-75475321D01*
X122682000Y-74384679D01*
X122575660Y-73850070D01*
X122272828Y-73396851D01*
X121819609Y-73094019D01*
X121285000Y-72987679D01*
X120750391Y-73094019D01*
X120297172Y-73396851D01*
X120015000Y-73819150D01*
X119732828Y-73396851D01*
X119279609Y-73094019D01*
X118745000Y-72987679D01*
X118210391Y-73094019D01*
X117757172Y-73396851D01*
X117475000Y-73819150D01*
X117192828Y-73396851D01*
X116739609Y-73094019D01*
X116205000Y-72987679D01*
X115670391Y-73094019D01*
X115217172Y-73396851D01*
X114935000Y-73819150D01*
X114652828Y-73396851D01*
X114199609Y-73094019D01*
X113665000Y-72987679D01*
X113130391Y-73094019D01*
X112677172Y-73396851D01*
X112395000Y-73819150D01*
X112112828Y-73396851D01*
X111659609Y-73094019D01*
X111125000Y-72987679D01*
X110590391Y-73094019D01*
X110137172Y-73396851D01*
X109855000Y-73819150D01*
X109572828Y-73396851D01*
X109119609Y-73094019D01*
X108585000Y-72987679D01*
X108050391Y-73094019D01*
X107597172Y-73396851D01*
X107315000Y-73819150D01*
X107032828Y-73396851D01*
X106579609Y-73094019D01*
X106045000Y-72987679D01*
X105510391Y-73094019D01*
X105057172Y-73396851D01*
X104775000Y-73819150D01*
X104492828Y-73396851D01*
X104039609Y-73094019D01*
X103505000Y-72987679D01*
X102970391Y-73094019D01*
X102517172Y-73396851D01*
X102214340Y-73850070D01*
X102108000Y-74384679D01*
X100838000Y-74384679D01*
X100731660Y-73850070D01*
X100428828Y-73396851D01*
X99975609Y-73094019D01*
X99441000Y-72987679D01*
X98906391Y-73094019D01*
X98453172Y-73396851D01*
X98171000Y-73819150D01*
X97888828Y-73396851D01*
X97435609Y-73094019D01*
X96901000Y-72987679D01*
X96366391Y-73094019D01*
X95913172Y-73396851D01*
X95631000Y-73819150D01*
X95348828Y-73396851D01*
X94895609Y-73094019D01*
X94361000Y-72987679D01*
X93826391Y-73094019D01*
X93373172Y-73396851D01*
X93091000Y-73819150D01*
X92808828Y-73396851D01*
X92355609Y-73094019D01*
X91821000Y-72987679D01*
X91286391Y-73094019D01*
X90833172Y-73396851D01*
X90551000Y-73819150D01*
X90268828Y-73396851D01*
X89815609Y-73094019D01*
X89281000Y-72987679D01*
X88746391Y-73094019D01*
X88293172Y-73396851D01*
X88011000Y-73819150D01*
X87728828Y-73396851D01*
X87275609Y-73094019D01*
X86741000Y-72987679D01*
X86206391Y-73094019D01*
X85753172Y-73396851D01*
X85471000Y-73819150D01*
X85188828Y-73396851D01*
X84735609Y-73094019D01*
X84201000Y-72987679D01*
X83666391Y-73094019D01*
X83213172Y-73396851D01*
X82931000Y-73819150D01*
X82648828Y-73396851D01*
X82195609Y-73094019D01*
X81661000Y-72987679D01*
X81126391Y-73094019D01*
X80673172Y-73396851D01*
X80370340Y-73850070D01*
X80264000Y-74384679D01*
X30174000Y-74384679D01*
X30174000Y-68473320D01*
X31337250Y-68473320D01*
X31496000Y-68314570D01*
X31496000Y-66215260D01*
X31750000Y-66215260D01*
X31750000Y-68314570D01*
X31908750Y-68473320D01*
X33499370Y-68473320D01*
X33732759Y-68376647D01*
X33911387Y-68198018D01*
X33924500Y-68166360D01*
X33924500Y-70838060D01*
X33968778Y-71073377D01*
X34107850Y-71289501D01*
X34320050Y-71434491D01*
X34571940Y-71485500D01*
X38072060Y-71485500D01*
X38307377Y-71441222D01*
X38523501Y-71302150D01*
X38668491Y-71089950D01*
X38688124Y-70993000D01*
X100099624Y-70993000D01*
X100828636Y-70847991D01*
X101446662Y-70435038D01*
X102801038Y-69080662D01*
X102944638Y-68865750D01*
X106553000Y-68865750D01*
X106553000Y-69722309D01*
X106649673Y-69955698D01*
X106828301Y-70134327D01*
X107061690Y-70231000D01*
X107918250Y-70231000D01*
X108077000Y-70072250D01*
X108077000Y-68707000D01*
X106711750Y-68707000D01*
X106553000Y-68865750D01*
X102944638Y-68865750D01*
X103213991Y-68462636D01*
X103253483Y-68264095D01*
X103359000Y-67733624D01*
X103359000Y-67437691D01*
X106553000Y-67437691D01*
X106553000Y-68294250D01*
X106711750Y-68453000D01*
X108077000Y-68453000D01*
X108077000Y-67087750D01*
X108331000Y-67087750D01*
X108331000Y-68453000D01*
X108351000Y-68453000D01*
X108351000Y-68707000D01*
X108331000Y-68707000D01*
X108331000Y-70072250D01*
X108489750Y-70231000D01*
X109346310Y-70231000D01*
X109579699Y-70134327D01*
X109758327Y-69955698D01*
X109775999Y-69913034D01*
X110112190Y-70137670D01*
X110744000Y-70263345D01*
X111375810Y-70137670D01*
X111911433Y-69779778D01*
X112269325Y-69244155D01*
X112344594Y-68865750D01*
X113665000Y-68865750D01*
X113665000Y-69722309D01*
X113761673Y-69955698D01*
X113940301Y-70134327D01*
X114173690Y-70231000D01*
X115030250Y-70231000D01*
X115189000Y-70072250D01*
X115189000Y-68707000D01*
X113823750Y-68707000D01*
X113665000Y-68865750D01*
X112344594Y-68865750D01*
X112395000Y-68612345D01*
X112395000Y-68547655D01*
X112269325Y-67915845D01*
X111949833Y-67437691D01*
X113665000Y-67437691D01*
X113665000Y-68294250D01*
X113823750Y-68453000D01*
X115189000Y-68453000D01*
X115189000Y-67087750D01*
X115443000Y-67087750D01*
X115443000Y-68453000D01*
X115463000Y-68453000D01*
X115463000Y-68707000D01*
X115443000Y-68707000D01*
X115443000Y-70072250D01*
X115601750Y-70231000D01*
X116458310Y-70231000D01*
X116691699Y-70134327D01*
X116870327Y-69955698D01*
X116887999Y-69913034D01*
X117224190Y-70137670D01*
X117856000Y-70263345D01*
X118487810Y-70137670D01*
X119023433Y-69779778D01*
X119381325Y-69244155D01*
X119456594Y-68865750D01*
X120929400Y-68865750D01*
X120929400Y-69722309D01*
X121026073Y-69955698D01*
X121204701Y-70134327D01*
X121438090Y-70231000D01*
X122142250Y-70231000D01*
X122301000Y-70072250D01*
X122301000Y-68707000D01*
X121088150Y-68707000D01*
X120929400Y-68865750D01*
X119456594Y-68865750D01*
X119507000Y-68612345D01*
X119507000Y-68547655D01*
X119381325Y-67915845D01*
X119061833Y-67437691D01*
X120929400Y-67437691D01*
X120929400Y-68294250D01*
X121088150Y-68453000D01*
X122301000Y-68453000D01*
X122301000Y-67087750D01*
X122555000Y-67087750D01*
X122555000Y-68453000D01*
X122575000Y-68453000D01*
X122575000Y-68707000D01*
X122555000Y-68707000D01*
X122555000Y-70072250D01*
X122713750Y-70231000D01*
X123417910Y-70231000D01*
X123651299Y-70134327D01*
X123829927Y-69955698D01*
X123893500Y-69802220D01*
X123908330Y-69824415D01*
X124142500Y-69980883D01*
X124142500Y-73329800D01*
X124205337Y-73645706D01*
X124384283Y-73913517D01*
X126237867Y-75767101D01*
X126237824Y-75817008D01*
X126392175Y-76190566D01*
X126677731Y-76476621D01*
X127051018Y-76631624D01*
X127455208Y-76631976D01*
X127828766Y-76477625D01*
X128114821Y-76192069D01*
X128269824Y-75818782D01*
X128270094Y-75507694D01*
X132731226Y-75507694D01*
X132979538Y-76108655D01*
X133438927Y-76568846D01*
X134039453Y-76818206D01*
X134689694Y-76818774D01*
X135290655Y-76570462D01*
X135750846Y-76111073D01*
X136000206Y-75510547D01*
X136000774Y-74860306D01*
X135752462Y-74259345D01*
X135293073Y-73799154D01*
X134692547Y-73549794D01*
X134042306Y-73549226D01*
X133441345Y-73797538D01*
X132981154Y-74256927D01*
X132731794Y-74857453D01*
X132731226Y-75507694D01*
X128270094Y-75507694D01*
X128270176Y-75414592D01*
X128115825Y-75041034D01*
X127830269Y-74754979D01*
X127456982Y-74599976D01*
X127405565Y-74599931D01*
X125793500Y-72987866D01*
X125793500Y-69980883D01*
X126027670Y-69824415D01*
X126238000Y-69509634D01*
X126448330Y-69824415D01*
X126934511Y-70149271D01*
X127508000Y-70263345D01*
X128081489Y-70149271D01*
X128567670Y-69824415D01*
X128892526Y-69338234D01*
X129006600Y-68764745D01*
X129006600Y-68395255D01*
X128892526Y-67821766D01*
X128567670Y-67335585D01*
X128081489Y-67010729D01*
X127508000Y-66896655D01*
X126934511Y-67010729D01*
X126448330Y-67335585D01*
X126238000Y-67650366D01*
X126027670Y-67335585D01*
X125541489Y-67010729D01*
X124968000Y-66896655D01*
X124394511Y-67010729D01*
X123908330Y-67335585D01*
X123893500Y-67357780D01*
X123829927Y-67204302D01*
X123651299Y-67025673D01*
X123417910Y-66929000D01*
X122713750Y-66929000D01*
X122555000Y-67087750D01*
X122301000Y-67087750D01*
X122142250Y-66929000D01*
X121438090Y-66929000D01*
X121204701Y-67025673D01*
X121026073Y-67204302D01*
X120929400Y-67437691D01*
X119061833Y-67437691D01*
X119023433Y-67380222D01*
X118487810Y-67022330D01*
X117856000Y-66896655D01*
X117224190Y-67022330D01*
X116887999Y-67246966D01*
X116870327Y-67204302D01*
X116691699Y-67025673D01*
X116458310Y-66929000D01*
X115601750Y-66929000D01*
X115443000Y-67087750D01*
X115189000Y-67087750D01*
X115030250Y-66929000D01*
X114173690Y-66929000D01*
X113940301Y-67025673D01*
X113761673Y-67204302D01*
X113665000Y-67437691D01*
X111949833Y-67437691D01*
X111911433Y-67380222D01*
X111375810Y-67022330D01*
X110744000Y-66896655D01*
X110112190Y-67022330D01*
X109775999Y-67246966D01*
X109758327Y-67204302D01*
X109579699Y-67025673D01*
X109346310Y-66929000D01*
X108489750Y-66929000D01*
X108331000Y-67087750D01*
X108077000Y-67087750D01*
X107918250Y-66929000D01*
X107061690Y-66929000D01*
X106828301Y-67025673D01*
X106649673Y-67204302D01*
X106553000Y-67437691D01*
X103359000Y-67437691D01*
X103359000Y-64262000D01*
X103213991Y-63532988D01*
X102801038Y-62914962D01*
X102183012Y-62502009D01*
X101454000Y-62357000D01*
X100724988Y-62502009D01*
X100106962Y-62914962D01*
X99694009Y-63532988D01*
X99549000Y-64262000D01*
X99549000Y-66944548D01*
X99310548Y-67183000D01*
X98359000Y-67183000D01*
X98359000Y-64262000D01*
X98213991Y-63532988D01*
X97801038Y-62914962D01*
X97183012Y-62502009D01*
X96454000Y-62357000D01*
X95724988Y-62502009D01*
X95106962Y-62914962D01*
X94694009Y-63532988D01*
X94549000Y-64262000D01*
X94549000Y-67183000D01*
X93359000Y-67183000D01*
X93359000Y-64262000D01*
X93213991Y-63532988D01*
X92801038Y-62914962D01*
X92183012Y-62502009D01*
X91454000Y-62357000D01*
X90724988Y-62502009D01*
X90106962Y-62914962D01*
X89694009Y-63532988D01*
X89549000Y-64262000D01*
X89549000Y-67183000D01*
X71689000Y-67183000D01*
X71689000Y-64595697D01*
X74768708Y-64595697D01*
X75024694Y-65215229D01*
X75498278Y-65689640D01*
X76117362Y-65946707D01*
X76787697Y-65947292D01*
X77407229Y-65691306D01*
X77881640Y-65217722D01*
X78138707Y-64598638D01*
X78138709Y-64595697D01*
X79768708Y-64595697D01*
X80024694Y-65215229D01*
X80498278Y-65689640D01*
X81117362Y-65946707D01*
X81787697Y-65947292D01*
X82407229Y-65691306D01*
X82881640Y-65217722D01*
X83138707Y-64598638D01*
X83138709Y-64595697D01*
X84768708Y-64595697D01*
X85024694Y-65215229D01*
X85498278Y-65689640D01*
X86117362Y-65946707D01*
X86787697Y-65947292D01*
X87407229Y-65691306D01*
X87881640Y-65217722D01*
X88138707Y-64598638D01*
X88139292Y-63928303D01*
X87883306Y-63308771D01*
X87409722Y-62834360D01*
X86790638Y-62577293D01*
X86120303Y-62576708D01*
X85500771Y-62832694D01*
X85026360Y-63306278D01*
X84769293Y-63925362D01*
X84768708Y-64595697D01*
X83138709Y-64595697D01*
X83139292Y-63928303D01*
X82883306Y-63308771D01*
X82409722Y-62834360D01*
X81790638Y-62577293D01*
X81120303Y-62576708D01*
X80500771Y-62832694D01*
X80026360Y-63306278D01*
X79769293Y-63925362D01*
X79768708Y-64595697D01*
X78138709Y-64595697D01*
X78139292Y-63928303D01*
X77883306Y-63308771D01*
X77409722Y-62834360D01*
X76790638Y-62577293D01*
X76120303Y-62576708D01*
X75500771Y-62832694D01*
X75026360Y-63306278D01*
X74769293Y-63925362D01*
X74768708Y-64595697D01*
X71689000Y-64595697D01*
X71689000Y-64262000D01*
X71543991Y-63532988D01*
X71131038Y-62914962D01*
X70513012Y-62502009D01*
X69784000Y-62357000D01*
X69054988Y-62502009D01*
X68436962Y-62914962D01*
X68024009Y-63532988D01*
X67879000Y-64262000D01*
X67879000Y-67066230D01*
X67762231Y-67183000D01*
X61689000Y-67183000D01*
X61689000Y-64595697D01*
X63098708Y-64595697D01*
X63354694Y-65215229D01*
X63828278Y-65689640D01*
X64447362Y-65946707D01*
X65117697Y-65947292D01*
X65737229Y-65691306D01*
X66211640Y-65217722D01*
X66468707Y-64598638D01*
X66469292Y-63928303D01*
X66213306Y-63308771D01*
X65739722Y-62834360D01*
X65120638Y-62577293D01*
X64450303Y-62576708D01*
X63830771Y-62832694D01*
X63356360Y-63306278D01*
X63099293Y-63925362D01*
X63098708Y-64595697D01*
X61689000Y-64595697D01*
X61689000Y-64262000D01*
X61543991Y-63532988D01*
X61131038Y-62914962D01*
X60513012Y-62502009D01*
X59784000Y-62357000D01*
X59054988Y-62502009D01*
X58436962Y-62914962D01*
X58024009Y-63532988D01*
X57879000Y-64262000D01*
X57879000Y-67183000D01*
X51689000Y-67183000D01*
X51689000Y-64595697D01*
X53098708Y-64595697D01*
X53354694Y-65215229D01*
X53828278Y-65689640D01*
X54447362Y-65946707D01*
X55117697Y-65947292D01*
X55737229Y-65691306D01*
X56211640Y-65217722D01*
X56468707Y-64598638D01*
X56469292Y-63928303D01*
X56213306Y-63308771D01*
X55739722Y-62834360D01*
X55120638Y-62577293D01*
X54450303Y-62576708D01*
X53830771Y-62832694D01*
X53356360Y-63306278D01*
X53099293Y-63925362D01*
X53098708Y-64595697D01*
X51689000Y-64595697D01*
X51689000Y-64262000D01*
X51543991Y-63532988D01*
X51131038Y-62914962D01*
X50513012Y-62502009D01*
X49784000Y-62357000D01*
X49054988Y-62502009D01*
X48436962Y-62914962D01*
X48024009Y-63532988D01*
X47879000Y-64262000D01*
X47879000Y-67183000D01*
X38690346Y-67183000D01*
X38675222Y-67102623D01*
X38536150Y-66886499D01*
X38323950Y-66741509D01*
X38072060Y-66690500D01*
X34571940Y-66690500D01*
X34336623Y-66734778D01*
X34120499Y-66873850D01*
X34008060Y-67038410D01*
X34008060Y-66374010D01*
X33849310Y-66215260D01*
X31750000Y-66215260D01*
X31496000Y-66215260D01*
X31476000Y-66215260D01*
X31476000Y-65961260D01*
X31496000Y-65961260D01*
X31496000Y-63861950D01*
X31750000Y-63861950D01*
X31750000Y-65961260D01*
X33849310Y-65961260D01*
X34008060Y-65802510D01*
X34008060Y-65136588D01*
X34033613Y-65198278D01*
X34212241Y-65376907D01*
X34445630Y-65473580D01*
X36036250Y-65473580D01*
X36195000Y-65314830D01*
X36195000Y-63215520D01*
X36449000Y-63215520D01*
X36449000Y-65314830D01*
X36607750Y-65473580D01*
X38198370Y-65473580D01*
X38431759Y-65376907D01*
X38610387Y-65198278D01*
X38707060Y-64964889D01*
X38707060Y-64595697D01*
X43098708Y-64595697D01*
X43354694Y-65215229D01*
X43828278Y-65689640D01*
X44447362Y-65946707D01*
X45117697Y-65947292D01*
X45737229Y-65691306D01*
X46211640Y-65217722D01*
X46468707Y-64598638D01*
X46469292Y-63928303D01*
X46213306Y-63308771D01*
X45739722Y-62834360D01*
X45120638Y-62577293D01*
X44450303Y-62576708D01*
X43830771Y-62832694D01*
X43356360Y-63306278D01*
X43099293Y-63925362D01*
X43098708Y-64595697D01*
X38707060Y-64595697D01*
X38707060Y-63374270D01*
X38548310Y-63215520D01*
X36449000Y-63215520D01*
X36195000Y-63215520D01*
X34095690Y-63215520D01*
X33936940Y-63374270D01*
X33936940Y-64040192D01*
X33911387Y-63978502D01*
X33732759Y-63799873D01*
X33499370Y-63703200D01*
X31908750Y-63703200D01*
X31750000Y-63861950D01*
X31496000Y-63861950D01*
X31337250Y-63703200D01*
X30174000Y-63703200D01*
X30174000Y-61212151D01*
X33936940Y-61212151D01*
X33936940Y-62802770D01*
X34095690Y-62961520D01*
X36195000Y-62961520D01*
X36195000Y-60862210D01*
X36449000Y-60862210D01*
X36449000Y-62961520D01*
X38548310Y-62961520D01*
X38707060Y-62802770D01*
X38707060Y-61212151D01*
X38610387Y-60978762D01*
X38431759Y-60800133D01*
X38198370Y-60703460D01*
X36607750Y-60703460D01*
X36449000Y-60862210D01*
X36195000Y-60862210D01*
X36036250Y-60703460D01*
X34445630Y-60703460D01*
X34212241Y-60800133D01*
X34033613Y-60978762D01*
X33936940Y-61212151D01*
X30174000Y-61212151D01*
X30174000Y-60146000D01*
X43924117Y-60146000D01*
X43779991Y-60289875D01*
G36*
X114693154Y-87718927D02*
X114443794Y-88319453D01*
X114443226Y-88969694D01*
X114486439Y-89074277D01*
X114315848Y-89329583D01*
X114267896Y-89570655D01*
X114253011Y-89645489D01*
X114253011Y-91922179D01*
X114071100Y-91846643D01*
X113515339Y-91846158D01*
X113001697Y-92058390D01*
X112608371Y-92451030D01*
X112522051Y-92658912D01*
X112437010Y-92453097D01*
X112077500Y-92092959D01*
X112077500Y-90130145D01*
X112511582Y-90291401D01*
X113161377Y-90267341D01*
X113649958Y-90064965D01*
X113748557Y-89798163D01*
X112776000Y-88825605D01*
X112761858Y-88839748D01*
X112582252Y-88660142D01*
X112596395Y-88646000D01*
X112582252Y-88631858D01*
X112761858Y-88452252D01*
X112776000Y-88466395D01*
X112790142Y-88452252D01*
X112969748Y-88631858D01*
X112955605Y-88646000D01*
X113928163Y-89618557D01*
X114194965Y-89519958D01*
X114421401Y-88910418D01*
X114397341Y-88260623D01*
X114194965Y-87772042D01*
X113928164Y-87673444D01*
X113970336Y-87631272D01*
X114780962Y-87631272D01*
X114693154Y-87718927D01*
X114693154Y-87718927D01*
G37*
X114693154Y-87718927D02*
X114443794Y-88319453D01*
X114443226Y-88969694D01*
X114486439Y-89074277D01*
X114315848Y-89329583D01*
X114267896Y-89570655D01*
X114253011Y-89645489D01*
X114253011Y-91922179D01*
X114071100Y-91846643D01*
X113515339Y-91846158D01*
X113001697Y-92058390D01*
X112608371Y-92451030D01*
X112522051Y-92658912D01*
X112437010Y-92453097D01*
X112077500Y-92092959D01*
X112077500Y-90130145D01*
X112511582Y-90291401D01*
X113161377Y-90267341D01*
X113649958Y-90064965D01*
X113748557Y-89798163D01*
X112776000Y-88825605D01*
X112761858Y-88839748D01*
X112582252Y-88660142D01*
X112596395Y-88646000D01*
X112582252Y-88631858D01*
X112761858Y-88452252D01*
X112776000Y-88466395D01*
X112790142Y-88452252D01*
X112969748Y-88631858D01*
X112955605Y-88646000D01*
X113928163Y-89618557D01*
X114194965Y-89519958D01*
X114421401Y-88910418D01*
X114397341Y-88260623D01*
X114194965Y-87772042D01*
X113928164Y-87673444D01*
X113970336Y-87631272D01*
X114780962Y-87631272D01*
X114693154Y-87718927D01*
G36*
X153722000Y-62091431D02*
X153269892Y-61914934D01*
X152440602Y-61931942D01*
X151753435Y-62216576D01*
X151599756Y-62530151D01*
X152898000Y-63828395D01*
X152912143Y-63814253D01*
X153091748Y-63993858D01*
X153077605Y-64008000D01*
X153091748Y-64022143D01*
X152912143Y-64201748D01*
X152898000Y-64187605D01*
X151599756Y-65485849D01*
X151753435Y-65799424D01*
X152526108Y-66101066D01*
X153355398Y-66084058D01*
X153722000Y-65932206D01*
X153722000Y-83439000D01*
X144399000Y-83439000D01*
X144399000Y-82406800D01*
X144738849Y-82633880D01*
X145288000Y-82743113D01*
X145837151Y-82633880D01*
X146302698Y-82322811D01*
X146558000Y-81940725D01*
X146813302Y-82322811D01*
X147278849Y-82633880D01*
X147828000Y-82743113D01*
X148377151Y-82633880D01*
X148842698Y-82322811D01*
X149098000Y-81940725D01*
X149353302Y-82322811D01*
X149818849Y-82633880D01*
X150368000Y-82743113D01*
X150917151Y-82633880D01*
X151382698Y-82322811D01*
X151693767Y-81857264D01*
X151803000Y-81308113D01*
X151803000Y-81251887D01*
X151693767Y-80702736D01*
X151382698Y-80237189D01*
X150917151Y-79926120D01*
X150368000Y-79816887D01*
X149818849Y-79926120D01*
X149353302Y-80237189D01*
X149098000Y-80619275D01*
X148842698Y-80237189D01*
X148377151Y-79926120D01*
X147828000Y-79816887D01*
X147278849Y-79926120D01*
X146813302Y-80237189D01*
X146558000Y-80619275D01*
X146302698Y-80237189D01*
X145837151Y-79926120D01*
X145470051Y-79853099D01*
X145910846Y-79413073D01*
X146160206Y-78812547D01*
X146160774Y-78162306D01*
X145912462Y-77561345D01*
X145453073Y-77101154D01*
X144852547Y-76851794D01*
X144399000Y-76851398D01*
X144399000Y-76818380D01*
X144849694Y-76818774D01*
X145450655Y-76570462D01*
X145910846Y-76111073D01*
X146160206Y-75510547D01*
X146160774Y-74860306D01*
X145912462Y-74259345D01*
X145453073Y-73799154D01*
X144852547Y-73549794D01*
X144399000Y-73549398D01*
X144399000Y-72107040D01*
X147587738Y-72107040D01*
X147817138Y-72662229D01*
X148241537Y-73087370D01*
X148796325Y-73317738D01*
X149397040Y-73318262D01*
X149952229Y-73088862D01*
X150377370Y-72664463D01*
X150607738Y-72109675D01*
X150608262Y-71508960D01*
X150378862Y-70953771D01*
X149954463Y-70528630D01*
X149399675Y-70298262D01*
X148798960Y-70297738D01*
X148243771Y-70527138D01*
X147818630Y-70951537D01*
X147588262Y-71506325D01*
X147587738Y-72107040D01*
X144399000Y-72107040D01*
X144399000Y-65895290D01*
X144926108Y-66101066D01*
X145755398Y-66084058D01*
X146442565Y-65799424D01*
X146596244Y-65485849D01*
X145298000Y-64187605D01*
X145283858Y-64201748D01*
X145104253Y-64022143D01*
X145118395Y-64008000D01*
X145477605Y-64008000D01*
X146775849Y-65306244D01*
X147089424Y-65152565D01*
X147391066Y-64379892D01*
X147375812Y-63636108D01*
X150804934Y-63636108D01*
X150821942Y-64465398D01*
X151106576Y-65152565D01*
X151420151Y-65306244D01*
X152718395Y-64008000D01*
X151420151Y-62709756D01*
X151106576Y-62863435D01*
X150804934Y-63636108D01*
X147375812Y-63636108D01*
X147374058Y-63550602D01*
X147089424Y-62863435D01*
X146775849Y-62709756D01*
X145477605Y-64008000D01*
X145118395Y-64008000D01*
X145104253Y-63993858D01*
X145283858Y-63814253D01*
X145298000Y-63828395D01*
X146596244Y-62530151D01*
X146442565Y-62216576D01*
X145669892Y-61914934D01*
X144840602Y-61931942D01*
X144399000Y-62114860D01*
X144399000Y-60146000D01*
X153722000Y-60146000D01*
X153722000Y-62091431D01*
X153722000Y-62091431D01*
G37*
X153722000Y-62091431D02*
X153269892Y-61914934D01*
X152440602Y-61931942D01*
X151753435Y-62216576D01*
X151599756Y-62530151D01*
X152898000Y-63828395D01*
X152912143Y-63814253D01*
X153091748Y-63993858D01*
X153077605Y-64008000D01*
X153091748Y-64022143D01*
X152912143Y-64201748D01*
X152898000Y-64187605D01*
X151599756Y-65485849D01*
X151753435Y-65799424D01*
X152526108Y-66101066D01*
X153355398Y-66084058D01*
X153722000Y-65932206D01*
X153722000Y-83439000D01*
X144399000Y-83439000D01*
X144399000Y-82406800D01*
X144738849Y-82633880D01*
X145288000Y-82743113D01*
X145837151Y-82633880D01*
X146302698Y-82322811D01*
X146558000Y-81940725D01*
X146813302Y-82322811D01*
X147278849Y-82633880D01*
X147828000Y-82743113D01*
X148377151Y-82633880D01*
X148842698Y-82322811D01*
X149098000Y-81940725D01*
X149353302Y-82322811D01*
X149818849Y-82633880D01*
X150368000Y-82743113D01*
X150917151Y-82633880D01*
X151382698Y-82322811D01*
X151693767Y-81857264D01*
X151803000Y-81308113D01*
X151803000Y-81251887D01*
X151693767Y-80702736D01*
X151382698Y-80237189D01*
X150917151Y-79926120D01*
X150368000Y-79816887D01*
X149818849Y-79926120D01*
X149353302Y-80237189D01*
X149098000Y-80619275D01*
X148842698Y-80237189D01*
X148377151Y-79926120D01*
X147828000Y-79816887D01*
X147278849Y-79926120D01*
X146813302Y-80237189D01*
X146558000Y-80619275D01*
X146302698Y-80237189D01*
X145837151Y-79926120D01*
X145470051Y-79853099D01*
X145910846Y-79413073D01*
X146160206Y-78812547D01*
X146160774Y-78162306D01*
X145912462Y-77561345D01*
X145453073Y-77101154D01*
X144852547Y-76851794D01*
X144399000Y-76851398D01*
X144399000Y-76818380D01*
X144849694Y-76818774D01*
X145450655Y-76570462D01*
X145910846Y-76111073D01*
X146160206Y-75510547D01*
X146160774Y-74860306D01*
X145912462Y-74259345D01*
X145453073Y-73799154D01*
X144852547Y-73549794D01*
X144399000Y-73549398D01*
X144399000Y-72107040D01*
X147587738Y-72107040D01*
X147817138Y-72662229D01*
X148241537Y-73087370D01*
X148796325Y-73317738D01*
X149397040Y-73318262D01*
X149952229Y-73088862D01*
X150377370Y-72664463D01*
X150607738Y-72109675D01*
X150608262Y-71508960D01*
X150378862Y-70953771D01*
X149954463Y-70528630D01*
X149399675Y-70298262D01*
X148798960Y-70297738D01*
X148243771Y-70527138D01*
X147818630Y-70951537D01*
X147588262Y-71506325D01*
X147587738Y-72107040D01*
X144399000Y-72107040D01*
X144399000Y-65895290D01*
X144926108Y-66101066D01*
X145755398Y-66084058D01*
X146442565Y-65799424D01*
X146596244Y-65485849D01*
X145298000Y-64187605D01*
X145283858Y-64201748D01*
X145104253Y-64022143D01*
X145118395Y-64008000D01*
X145477605Y-64008000D01*
X146775849Y-65306244D01*
X147089424Y-65152565D01*
X147391066Y-64379892D01*
X147375812Y-63636108D01*
X150804934Y-63636108D01*
X150821942Y-64465398D01*
X151106576Y-65152565D01*
X151420151Y-65306244D01*
X152718395Y-64008000D01*
X151420151Y-62709756D01*
X151106576Y-62863435D01*
X150804934Y-63636108D01*
X147375812Y-63636108D01*
X147374058Y-63550602D01*
X147089424Y-62863435D01*
X146775849Y-62709756D01*
X145477605Y-64008000D01*
X145118395Y-64008000D01*
X145104253Y-63993858D01*
X145283858Y-63814253D01*
X145298000Y-63828395D01*
X146596244Y-62530151D01*
X146442565Y-62216576D01*
X145669892Y-61914934D01*
X144840602Y-61931942D01*
X144399000Y-62114860D01*
X144399000Y-60146000D01*
X153722000Y-60146000D01*
X153722000Y-62091431D01*
M02*
