M48
;DRILL file {KiCad 4.0.2+dfsg1-stable} date Fri 04 May 2018 04:41:33 PM EDT
;FORMAT={-:-/ absolute / inch / decimal}
FMAT,2
INCH,TZ
T1C0.012
T2C0.028
T3C0.031
T4C0.032
T5C0.035
T6C0.037
T7C0.039
T8C0.040
T9C0.043
T10C0.075
%
G90
G05
M72
T1
X3.856Y-3.5866
X4.2255Y-4.0126
X4.2259Y-4.0928
X4.311Y-3.397
X4.384Y-3.4176
X4.534Y-3.712
X4.6317Y-3.9839
X4.6643Y-3.9547
X4.716Y-4.159
X4.72Y-4.42
X4.748Y-4.138
X4.903Y-3.7831
X4.9262Y-4.7077
X4.927Y-4.7756
X4.9273Y-4.7437
X5.01Y-2.977
X5.012Y-3.7526
X5.082Y-3.774
X5.412Y-3.514
X5.499Y-3.597
T2
X1.22Y-3.68
X1.62Y-3.68
X1.82Y-3.68
X2.22Y-3.68
X2.42Y-3.6799
X2.82Y-3.6799
T3
X1.3616Y-3.46
X1.46Y-3.46
X1.9816Y-3.46
X2.08Y-3.46
X2.58Y-3.46
X2.6784Y-3.46
X3.97Y-3.67
X4.07Y-3.67
X4.17Y-3.67
X4.28Y-3.671
X4.38Y-3.671
X4.48Y-3.671
X4.59Y-3.671
X4.69Y-3.671
X4.79Y-3.671
X4.9Y-3.67
X5.Y-3.67
X5.1Y-3.67
X5.62Y-3.2
X5.62Y-3.5
X5.72Y-3.2
X5.72Y-3.5
X5.8Y-3.87
X5.82Y-3.2
X5.82Y-3.5
X5.9Y-3.87
X5.92Y-3.2
X5.92Y-3.5
X6.Y-3.87
T4
X3.215Y-2.95
X3.315Y-2.95
X3.415Y-2.95
X3.515Y-2.95
X3.575Y-4.85
X3.615Y-2.95
X3.675Y-4.85
X3.715Y-2.95
X3.775Y-4.85
X3.815Y-2.95
X3.875Y-4.85
X3.915Y-2.95
X3.975Y-4.85
X4.075Y-2.95
X4.075Y-4.85
X4.175Y-2.95
X4.275Y-2.95
X4.275Y-4.85
X4.375Y-2.95
X4.375Y-4.85
X4.475Y-2.95
X4.475Y-4.85
X4.575Y-2.95
X4.575Y-4.85
X4.675Y-2.95
X4.675Y-4.85
X4.775Y-2.95
X4.775Y-4.85
T5
X5.42Y-3.25
X5.42Y-3.4469
X5.81Y-3.65
X6.0069Y-3.65
T6
X5.87Y-2.8271
T7
X1.32Y-3.84
X1.42Y-3.84
X1.52Y-3.84
X1.92Y-3.84
X2.02Y-3.84
X2.12Y-3.84
X2.52Y-3.84
X2.62Y-3.84
X2.72Y-3.84
X3.12Y-3.84
X3.22Y-3.84
X3.32Y-3.84
X3.4Y-3.09
X3.4Y-3.49
X3.53Y-3.09
X3.53Y-3.49
X3.66Y-3.09
X3.66Y-3.49
X3.79Y-3.09
X3.79Y-3.49
X3.92Y-3.09
X3.92Y-3.49
X3.97Y-4.27
X3.97Y-4.4
X3.97Y-4.53
X3.97Y-4.66
X4.05Y-3.09
X4.05Y-3.49
X4.18Y-3.09
X4.18Y-3.49
X4.31Y-3.09
X4.31Y-3.49
X4.37Y-4.27
X4.37Y-4.4
X4.37Y-4.53
X4.37Y-4.66
X4.44Y-3.09
X4.44Y-3.49
X4.57Y-3.09
X4.57Y-3.49
X4.7Y-3.09
X4.7Y-3.49
X4.83Y-3.09
X4.83Y-3.49
X4.96Y-3.09
X4.96Y-3.49
X5.29Y-2.96
X5.29Y-3.09
X5.29Y-3.61
X5.29Y-3.74
X5.69Y-2.96
X5.69Y-3.09
X5.69Y-3.61
X5.69Y-3.74
T8
X4.26Y-2.7
X4.36Y-2.7
X4.54Y-2.7
X4.64Y-2.7
X4.82Y-2.7
X4.92Y-2.7
X5.02Y-2.7
X5.21Y-2.7
X5.31Y-2.7
X5.41Y-2.7
X5.51Y-2.7
X5.84Y-4.03
X5.84Y-4.13
T9
X1.7631Y-2.53
X1.96Y-2.53
X2.1569Y-2.53
X2.3537Y-2.53
X2.5506Y-2.53
X2.7474Y-2.53
X3.01Y-2.53
X3.2069Y-2.53
X3.4037Y-2.53
X3.6006Y-2.53
X3.7974Y-2.53
X3.9943Y-2.53
T10
X5.7204Y-2.52
X6.0196Y-2.52
T7
X1.245Y-2.5625G85X1.245Y-2.6412
G05
X1.4693Y-2.4838G85X1.3906Y-2.4838
G05
X1.4693Y-2.72G85X1.3906Y-2.72
G05
T0
M30
