G04 #@! TF.FileFunction,Soldermask,Bot*
%FSLAX46Y46*%
G04 Gerber Fmt 4.6, Leading zero omitted, Abs format (unit mm)*
G04 Created by KiCad (PCBNEW 4.0.2+dfsg1-stable) date Tue 15 May 2018 12:51:25 PM EDT*
%MOMM*%
G01*
G04 APERTURE LIST*
%ADD10C,0.100000*%
%ADD11O,1.924000X2.940000*%
%ADD12C,2.150000*%
%ADD13C,3.300000*%
%ADD14C,2.099260*%
%ADD15R,2.099260X2.099260*%
%ADD16R,1.800000X1.800000*%
%ADD17C,1.800000*%
%ADD18C,1.924000*%
%ADD19C,2.398980*%
%ADD20O,2.000000X2.000000*%
%ADD21C,1.920000*%
%ADD22R,1.920000X1.920000*%
%ADD23R,3.900120X3.900120*%
%ADD24C,2.500000*%
%ADD25C,1.500000*%
%ADD26C,1.700000*%
%ADD27R,1.700000X1.700000*%
%ADD28R,2.432000X2.432000*%
%ADD29O,2.432000X2.432000*%
%ADD30R,2.127200X2.432000*%
%ADD31O,2.127200X2.432000*%
%ADD32O,2.099260X3.900120*%
%ADD33C,4.199840*%
%ADD34C,2.100000*%
G04 APERTURE END LIST*
D10*
D11*
X121285000Y-123190000D03*
X118745000Y-123190000D03*
X116205000Y-123190000D03*
X108585000Y-123190000D03*
X111125000Y-123190000D03*
X113665000Y-123190000D03*
X103505000Y-123190000D03*
X100965000Y-123190000D03*
X98425000Y-123190000D03*
X93345000Y-123190000D03*
X90805000Y-123190000D03*
X121285000Y-74930000D03*
X118745000Y-74930000D03*
X116205000Y-74930000D03*
X113665000Y-74930000D03*
X111125000Y-74930000D03*
X108585000Y-74930000D03*
X106045000Y-74930000D03*
X103505000Y-74930000D03*
X99441000Y-74930000D03*
X96901000Y-74930000D03*
X94361000Y-74930000D03*
X91821000Y-74930000D03*
X89281000Y-74930000D03*
X86741000Y-74930000D03*
X84201000Y-74930000D03*
X81661000Y-74930000D03*
X95885000Y-123190000D03*
D12*
X149098000Y-71808000D03*
D13*
X152898000Y-64008000D03*
X145298000Y-64008000D03*
D14*
X41148000Y-93472000D03*
D15*
X30988000Y-93472000D03*
D16*
X147574000Y-92710000D03*
D17*
X152574000Y-92710000D03*
D16*
X137668000Y-82550000D03*
D17*
X137668000Y-87550000D03*
D14*
X56388520Y-93469460D03*
D15*
X46228520Y-93469460D03*
D14*
X25908000Y-93472000D03*
D15*
X15748000Y-93472000D03*
D18*
X103378000Y-93218000D03*
X105918000Y-93218000D03*
X100838000Y-93218000D03*
X111252000Y-93243400D03*
X113792000Y-93243400D03*
X108712000Y-93243400D03*
X119126000Y-93243400D03*
X121666000Y-93243400D03*
X116586000Y-93243400D03*
X121158000Y-105664000D03*
X123698000Y-105664000D03*
X118618000Y-105664000D03*
D19*
X119380000Y-88646000D03*
X119380000Y-78486000D03*
X122682000Y-88646000D03*
X122682000Y-78486000D03*
X125984000Y-88646000D03*
X125984000Y-78486000D03*
X112776000Y-88646000D03*
X112776000Y-78486000D03*
X109474000Y-88646000D03*
X109474000Y-78486000D03*
X106172000Y-88646000D03*
X106172000Y-78486000D03*
X86360000Y-88646000D03*
X86360000Y-78486000D03*
X144526000Y-75184000D03*
X134366000Y-75184000D03*
X134366000Y-78486000D03*
X144526000Y-78486000D03*
X89662000Y-88646000D03*
X89662000Y-78486000D03*
X92964000Y-88646000D03*
X92964000Y-78486000D03*
X83058000Y-88646000D03*
X83058000Y-78486000D03*
X134366000Y-94996000D03*
X144526000Y-94996000D03*
X144526000Y-91694000D03*
X134366000Y-91694000D03*
D20*
X142748000Y-88900000D03*
X145288000Y-88900000D03*
X147828000Y-88900000D03*
X150368000Y-88900000D03*
X150368000Y-81280000D03*
X147828000Y-81280000D03*
X145288000Y-81280000D03*
X142748000Y-81280000D03*
D21*
X149860000Y-98298000D03*
X152400000Y-98298000D03*
D22*
X147320000Y-98298000D03*
D23*
X36322000Y-69088000D03*
X36322000Y-63088520D03*
X31623000Y-66088260D03*
D24*
X101454000Y-64262000D03*
X96454000Y-64262000D03*
D25*
X101454000Y-60962000D03*
X96454000Y-60962000D03*
D24*
X91454000Y-64262000D03*
X86454000Y-64262000D03*
X81454000Y-64262000D03*
X76454000Y-64262000D03*
D25*
X91454000Y-60962000D03*
X86454000Y-60962000D03*
X81454000Y-60962000D03*
X76454000Y-60962000D03*
D24*
X69784000Y-64262000D03*
X64784000Y-64262000D03*
D25*
X69784000Y-60962000D03*
X64784000Y-60962000D03*
D24*
X59784000Y-64262000D03*
X54784000Y-64262000D03*
X49784000Y-64262000D03*
X44784000Y-64262000D03*
D25*
X59784000Y-60962000D03*
X54784000Y-60962000D03*
X49784000Y-60962000D03*
X44784000Y-60962000D03*
D26*
X52284000Y-87884000D03*
D27*
X49784000Y-87884000D03*
D26*
X37084000Y-87884000D03*
D27*
X34584000Y-87884000D03*
D26*
X21844000Y-87884000D03*
D27*
X19344000Y-87884000D03*
D28*
X115316000Y-68580000D03*
D29*
X117856000Y-68580000D03*
D19*
X116078000Y-78486000D03*
X116078000Y-88646000D03*
X99568000Y-78486000D03*
X99568000Y-88646000D03*
X96266000Y-78486000D03*
X96266000Y-88646000D03*
D30*
X122428000Y-68580000D03*
D31*
X124968000Y-68580000D03*
X127508000Y-68580000D03*
D28*
X108204000Y-68580000D03*
D29*
X110744000Y-68580000D03*
D28*
X148336000Y-102362000D03*
D29*
X148336000Y-104902000D03*
D30*
X132334000Y-68580000D03*
D31*
X134874000Y-68580000D03*
X137414000Y-68580000D03*
X139954000Y-68580000D03*
D32*
X81788000Y-97536000D03*
X84328000Y-97536000D03*
X79248000Y-97536000D03*
D33*
X81788000Y-114300000D03*
D32*
X51308000Y-97536000D03*
X53848000Y-97536000D03*
X48768000Y-97536000D03*
D33*
X51308000Y-114300000D03*
D32*
X36068000Y-97536000D03*
X38608000Y-97536000D03*
X33528000Y-97536000D03*
D33*
X36068000Y-114300000D03*
D32*
X20828000Y-97536000D03*
X23368000Y-97536000D03*
X18288000Y-97536000D03*
D33*
X20828000Y-114300000D03*
D26*
X67524000Y-87884000D03*
D27*
X65024000Y-87884000D03*
D14*
X71120000Y-93472000D03*
D15*
X60960000Y-93472000D03*
D32*
X66548000Y-97536000D03*
X69088000Y-97536000D03*
X64008000Y-97536000D03*
D33*
X66548000Y-114300000D03*
D19*
X102870000Y-88646000D03*
X102870000Y-78486000D03*
X126238000Y-112776000D03*
X116078000Y-112776000D03*
X116078000Y-109474000D03*
X126238000Y-109474000D03*
X126238000Y-119380000D03*
X116078000Y-119380000D03*
X116078000Y-116078000D03*
X126238000Y-116078000D03*
D34*
X133096000Y-113284000D03*
X130556000Y-113284000D03*
X133096000Y-115824000D03*
X130556000Y-115824000D03*
X133096000Y-118364000D03*
X130556000Y-118364000D03*
X133096000Y-120904000D03*
X130556000Y-120904000D03*
M02*
