G04 #@! TF.FileFunction,Legend,Top*
%FSLAX46Y46*%
G04 Gerber Fmt 4.6, Leading zero omitted, Abs format (unit mm)*
G04 Created by KiCad (PCBNEW 4.0.2+dfsg1-stable) date Mon 20 Aug 2018 02:01:52 PM EDT*
%MOMM*%
G01*
G04 APERTURE LIST*
%ADD10C,0.100000*%
%ADD11C,0.200000*%
%ADD12C,0.275000*%
%ADD13C,0.300000*%
%ADD14C,0.150000*%
%ADD15C,0.381000*%
%ADD16C,0.120000*%
%ADD17C,0.254000*%
G04 APERTURE END LIST*
D10*
D11*
X65278000Y-62992000D02*
X67310000Y-60960000D01*
X65278000Y-64516000D02*
X65278000Y-62992000D01*
X62230000Y-61722000D02*
X60706000Y-60198000D01*
X62230000Y-64516000D02*
X62230000Y-61722000D01*
D12*
X65170857Y-76173238D02*
X65170857Y-76539904D01*
X65956571Y-76539904D02*
X64456571Y-76539904D01*
X64456571Y-76016095D01*
X65956571Y-75073238D02*
X65956571Y-75597047D01*
X64456571Y-75597047D01*
X64456571Y-74497047D02*
X64456571Y-74287524D01*
X64528000Y-74182762D01*
X64670857Y-74078000D01*
X64956571Y-74025619D01*
X65456571Y-74025619D01*
X65742286Y-74078000D01*
X65885143Y-74182762D01*
X65956571Y-74287524D01*
X65956571Y-74497047D01*
X65885143Y-74601809D01*
X65742286Y-74706571D01*
X65456571Y-74758952D01*
X64956571Y-74758952D01*
X64670857Y-74706571D01*
X64528000Y-74601809D01*
X64456571Y-74497047D01*
X65528000Y-73606571D02*
X65528000Y-73082762D01*
X65956571Y-73711333D02*
X64456571Y-73344666D01*
X65956571Y-72978000D01*
X64456571Y-72768476D02*
X64456571Y-72139905D01*
X65956571Y-72454190D02*
X64456571Y-72454190D01*
X65885143Y-70987524D02*
X65956571Y-70830381D01*
X65956571Y-70568477D01*
X65885143Y-70463715D01*
X65813714Y-70411334D01*
X65670857Y-70358953D01*
X65528000Y-70358953D01*
X65385143Y-70411334D01*
X65313714Y-70463715D01*
X65242286Y-70568477D01*
X65170857Y-70778000D01*
X65099429Y-70882762D01*
X65028000Y-70935143D01*
X64885143Y-70987524D01*
X64742286Y-70987524D01*
X64599429Y-70935143D01*
X64528000Y-70882762D01*
X64456571Y-70778000D01*
X64456571Y-70516096D01*
X64528000Y-70358953D01*
X64456571Y-69992286D02*
X65956571Y-69730381D01*
X64885143Y-69520858D01*
X65956571Y-69311334D01*
X64456571Y-69049429D01*
X65956571Y-68630381D02*
X64456571Y-68630381D01*
X64456571Y-68263714D02*
X64456571Y-67635143D01*
X65956571Y-67949428D02*
X64456571Y-67949428D01*
X65813714Y-66639905D02*
X65885143Y-66692286D01*
X65956571Y-66849429D01*
X65956571Y-66954191D01*
X65885143Y-67111333D01*
X65742286Y-67216095D01*
X65599429Y-67268476D01*
X65313714Y-67320857D01*
X65099429Y-67320857D01*
X64813714Y-67268476D01*
X64670857Y-67216095D01*
X64528000Y-67111333D01*
X64456571Y-66954191D01*
X64456571Y-66849429D01*
X64528000Y-66692286D01*
X64599429Y-66639905D01*
X65956571Y-66168476D02*
X64456571Y-66168476D01*
X65170857Y-66168476D02*
X65170857Y-65539905D01*
X65956571Y-65539905D02*
X64456571Y-65539905D01*
X61408571Y-75439904D02*
X61408571Y-74811333D01*
X62908571Y-75125618D02*
X61408571Y-75125618D01*
X62122857Y-74444666D02*
X62122857Y-74078000D01*
X62908571Y-73920857D02*
X62908571Y-74444666D01*
X61408571Y-74444666D01*
X61408571Y-73920857D01*
X62908571Y-73449428D02*
X61408571Y-73449428D01*
X62480000Y-73082762D01*
X61408571Y-72716095D01*
X62908571Y-72716095D01*
X62908571Y-72192285D02*
X61408571Y-72192285D01*
X61408571Y-71773238D01*
X61480000Y-71668476D01*
X61551429Y-71616095D01*
X61694286Y-71563714D01*
X61908571Y-71563714D01*
X62051429Y-71616095D01*
X62122857Y-71668476D01*
X62194286Y-71773238D01*
X62194286Y-72192285D01*
X62837143Y-70306571D02*
X62908571Y-70149428D01*
X62908571Y-69887524D01*
X62837143Y-69782762D01*
X62765714Y-69730381D01*
X62622857Y-69678000D01*
X62480000Y-69678000D01*
X62337143Y-69730381D01*
X62265714Y-69782762D01*
X62194286Y-69887524D01*
X62122857Y-70097047D01*
X62051429Y-70201809D01*
X61980000Y-70254190D01*
X61837143Y-70306571D01*
X61694286Y-70306571D01*
X61551429Y-70254190D01*
X61480000Y-70201809D01*
X61408571Y-70097047D01*
X61408571Y-69835143D01*
X61480000Y-69678000D01*
X62122857Y-69206571D02*
X62122857Y-68839905D01*
X62908571Y-68682762D02*
X62908571Y-69206571D01*
X61408571Y-69206571D01*
X61408571Y-68682762D01*
X62908571Y-68211333D02*
X61408571Y-68211333D01*
X62908571Y-67582762D01*
X61408571Y-67582762D01*
X62837143Y-67111333D02*
X62908571Y-66954190D01*
X62908571Y-66692286D01*
X62837143Y-66587524D01*
X62765714Y-66535143D01*
X62622857Y-66482762D01*
X62480000Y-66482762D01*
X62337143Y-66535143D01*
X62265714Y-66587524D01*
X62194286Y-66692286D01*
X62122857Y-66901809D01*
X62051429Y-67006571D01*
X61980000Y-67058952D01*
X61837143Y-67111333D01*
X61694286Y-67111333D01*
X61551429Y-67058952D01*
X61480000Y-67006571D01*
X61408571Y-66901809D01*
X61408571Y-66639905D01*
X61480000Y-66482762D01*
X62122857Y-66011333D02*
X62122857Y-65644667D01*
X62908571Y-65487524D02*
X62908571Y-66011333D01*
X61408571Y-66011333D01*
X61408571Y-65487524D01*
D13*
X149110000Y-74428428D02*
X149038571Y-74556999D01*
X149038571Y-74749856D01*
X149110000Y-74942713D01*
X149252857Y-75071285D01*
X149395714Y-75135570D01*
X149681429Y-75199856D01*
X149895714Y-75199856D01*
X150181429Y-75135570D01*
X150324286Y-75071285D01*
X150467143Y-74942713D01*
X150538571Y-74749856D01*
X150538571Y-74621285D01*
X150467143Y-74428428D01*
X150395714Y-74364142D01*
X149895714Y-74364142D01*
X149895714Y-74621285D01*
X150538571Y-73014142D02*
X149824286Y-73464142D01*
X150538571Y-73785570D02*
X149038571Y-73785570D01*
X149038571Y-73271285D01*
X149110000Y-73142713D01*
X149181429Y-73078428D01*
X149324286Y-73014142D01*
X149538571Y-73014142D01*
X149681429Y-73078428D01*
X149752857Y-73142713D01*
X149824286Y-73271285D01*
X149824286Y-73785570D01*
X149038571Y-72178428D02*
X149038571Y-71921285D01*
X149110000Y-71792713D01*
X149252857Y-71664142D01*
X149538571Y-71599856D01*
X150038571Y-71599856D01*
X150324286Y-71664142D01*
X150467143Y-71792713D01*
X150538571Y-71921285D01*
X150538571Y-72178428D01*
X150467143Y-72306999D01*
X150324286Y-72435570D01*
X150038571Y-72499856D01*
X149538571Y-72499856D01*
X149252857Y-72435570D01*
X149110000Y-72306999D01*
X149038571Y-72178428D01*
X149038571Y-71149856D02*
X150538571Y-70828427D01*
X149467143Y-70571284D01*
X150538571Y-70314142D01*
X149038571Y-69992713D01*
X150538571Y-67806999D02*
X150538571Y-68449856D01*
X149038571Y-68449856D01*
X150538571Y-67356999D02*
X149038571Y-67356999D01*
X149110000Y-66007000D02*
X149038571Y-66135571D01*
X149038571Y-66328428D01*
X149110000Y-66521285D01*
X149252857Y-66649857D01*
X149395714Y-66714142D01*
X149681429Y-66778428D01*
X149895714Y-66778428D01*
X150181429Y-66714142D01*
X150324286Y-66649857D01*
X150467143Y-66521285D01*
X150538571Y-66328428D01*
X150538571Y-66199857D01*
X150467143Y-66007000D01*
X150395714Y-65942714D01*
X149895714Y-65942714D01*
X149895714Y-66199857D01*
X150538571Y-65364142D02*
X149038571Y-65364142D01*
X149752857Y-65364142D02*
X149752857Y-64592714D01*
X150538571Y-64592714D02*
X149038571Y-64592714D01*
X149038571Y-64142714D02*
X149038571Y-63371285D01*
X150538571Y-63756999D02*
X149038571Y-63756999D01*
X150467143Y-62985571D02*
X150538571Y-62792714D01*
X150538571Y-62471285D01*
X150467143Y-62342714D01*
X150395714Y-62278428D01*
X150252857Y-62214143D01*
X150110000Y-62214143D01*
X149967143Y-62278428D01*
X149895714Y-62342714D01*
X149824286Y-62471285D01*
X149752857Y-62728428D01*
X149681429Y-62857000D01*
X149610000Y-62921285D01*
X149467143Y-62985571D01*
X149324286Y-62985571D01*
X149181429Y-62921285D01*
X149110000Y-62857000D01*
X149038571Y-62728428D01*
X149038571Y-62407000D01*
X149110000Y-62214143D01*
X134052571Y-74945857D02*
X134052571Y-74174428D01*
X135552571Y-74560142D02*
X134052571Y-74560142D01*
X134052571Y-73467286D02*
X134052571Y-73210143D01*
X134124000Y-73081571D01*
X134266857Y-72953000D01*
X134552571Y-72888714D01*
X135052571Y-72888714D01*
X135338286Y-72953000D01*
X135481143Y-73081571D01*
X135552571Y-73210143D01*
X135552571Y-73467286D01*
X135481143Y-73595857D01*
X135338286Y-73724428D01*
X135052571Y-73788714D01*
X134552571Y-73788714D01*
X134266857Y-73724428D01*
X134124000Y-73595857D01*
X134052571Y-73467286D01*
X135552571Y-72310142D02*
X134052571Y-72310142D01*
X134052571Y-71795857D01*
X134124000Y-71667285D01*
X134195429Y-71603000D01*
X134338286Y-71538714D01*
X134552571Y-71538714D01*
X134695429Y-71603000D01*
X134766857Y-71667285D01*
X134838286Y-71795857D01*
X134838286Y-72310142D01*
X134052571Y-70960142D02*
X135266857Y-70960142D01*
X135409714Y-70895857D01*
X135481143Y-70831571D01*
X135552571Y-70703000D01*
X135552571Y-70445857D01*
X135481143Y-70317285D01*
X135409714Y-70253000D01*
X135266857Y-70188714D01*
X134052571Y-70188714D01*
X135552571Y-69545856D02*
X134052571Y-69545856D01*
X134052571Y-69031571D01*
X134124000Y-68902999D01*
X134195429Y-68838714D01*
X134338286Y-68774428D01*
X134552571Y-68774428D01*
X134695429Y-68838714D01*
X134766857Y-68902999D01*
X134838286Y-69031571D01*
X134838286Y-69545856D01*
X135552571Y-67167285D02*
X134052571Y-67167285D01*
X134052571Y-66653000D01*
X134124000Y-66524428D01*
X134195429Y-66460143D01*
X134338286Y-66395857D01*
X134552571Y-66395857D01*
X134695429Y-66460143D01*
X134766857Y-66524428D01*
X134838286Y-66653000D01*
X134838286Y-67167285D01*
X134052571Y-65817285D02*
X135266857Y-65817285D01*
X135409714Y-65753000D01*
X135481143Y-65688714D01*
X135552571Y-65560143D01*
X135552571Y-65303000D01*
X135481143Y-65174428D01*
X135409714Y-65110143D01*
X135266857Y-65045857D01*
X134052571Y-65045857D01*
X135552571Y-64402999D02*
X134052571Y-64402999D01*
X135124000Y-63952999D01*
X134052571Y-63502999D01*
X135552571Y-63502999D01*
X135552571Y-62860142D02*
X134052571Y-62860142D01*
X134052571Y-62345857D01*
X134124000Y-62217285D01*
X134195429Y-62153000D01*
X134338286Y-62088714D01*
X134552571Y-62088714D01*
X134695429Y-62153000D01*
X134766857Y-62217285D01*
X134838286Y-62345857D01*
X134838286Y-62860142D01*
X123614571Y-77757142D02*
X122114571Y-77757142D01*
X122114571Y-77435714D01*
X122186000Y-77242857D01*
X122328857Y-77114285D01*
X122471714Y-77050000D01*
X122757429Y-76985714D01*
X122971714Y-76985714D01*
X123257429Y-77050000D01*
X123400286Y-77114285D01*
X123543143Y-77242857D01*
X123614571Y-77435714D01*
X123614571Y-77757142D01*
X122114571Y-76150000D02*
X122114571Y-75892857D01*
X122186000Y-75764285D01*
X122328857Y-75635714D01*
X122614571Y-75571428D01*
X123114571Y-75571428D01*
X123400286Y-75635714D01*
X123543143Y-75764285D01*
X123614571Y-75892857D01*
X123614571Y-76150000D01*
X123543143Y-76278571D01*
X123400286Y-76407142D01*
X123114571Y-76471428D01*
X122614571Y-76471428D01*
X122328857Y-76407142D01*
X122186000Y-76278571D01*
X122114571Y-76150000D01*
X123543143Y-75057142D02*
X123614571Y-74864285D01*
X123614571Y-74542856D01*
X123543143Y-74414285D01*
X123471714Y-74349999D01*
X123328857Y-74285714D01*
X123186000Y-74285714D01*
X123043143Y-74349999D01*
X122971714Y-74414285D01*
X122900286Y-74542856D01*
X122828857Y-74799999D01*
X122757429Y-74928571D01*
X122686000Y-74992856D01*
X122543143Y-75057142D01*
X122400286Y-75057142D01*
X122257429Y-74992856D01*
X122186000Y-74928571D01*
X122114571Y-74799999D01*
X122114571Y-74478571D01*
X122186000Y-74285714D01*
X123614571Y-73707142D02*
X122114571Y-73707142D01*
X123614571Y-73064285D02*
X122114571Y-73064285D01*
X123614571Y-72292857D01*
X122114571Y-72292857D01*
X122186000Y-70942857D02*
X122114571Y-71071428D01*
X122114571Y-71264285D01*
X122186000Y-71457142D01*
X122328857Y-71585714D01*
X122471714Y-71649999D01*
X122757429Y-71714285D01*
X122971714Y-71714285D01*
X123257429Y-71649999D01*
X123400286Y-71585714D01*
X123543143Y-71457142D01*
X123614571Y-71264285D01*
X123614571Y-71135714D01*
X123543143Y-70942857D01*
X123471714Y-70878571D01*
X122971714Y-70878571D01*
X122971714Y-71135714D01*
X123614571Y-69271428D02*
X122114571Y-69271428D01*
X122114571Y-68757143D01*
X122186000Y-68628571D01*
X122257429Y-68564286D01*
X122400286Y-68500000D01*
X122614571Y-68500000D01*
X122757429Y-68564286D01*
X122828857Y-68628571D01*
X122900286Y-68757143D01*
X122900286Y-69271428D01*
X122114571Y-67921428D02*
X123328857Y-67921428D01*
X123471714Y-67857143D01*
X123543143Y-67792857D01*
X123614571Y-67664286D01*
X123614571Y-67407143D01*
X123543143Y-67278571D01*
X123471714Y-67214286D01*
X123328857Y-67150000D01*
X122114571Y-67150000D01*
X123614571Y-66507142D02*
X122114571Y-66507142D01*
X123186000Y-66057142D01*
X122114571Y-65607142D01*
X123614571Y-65607142D01*
X123614571Y-64964285D02*
X122114571Y-64964285D01*
X122114571Y-64450000D01*
X122186000Y-64321428D01*
X122257429Y-64257143D01*
X122400286Y-64192857D01*
X122614571Y-64192857D01*
X122757429Y-64257143D01*
X122828857Y-64321428D01*
X122900286Y-64450000D01*
X122900286Y-64964285D01*
X123614571Y-61878572D02*
X123614571Y-62650000D01*
X123614571Y-62264286D02*
X122114571Y-62264286D01*
X122328857Y-62392857D01*
X122471714Y-62521429D01*
X122543143Y-62650000D01*
X113468371Y-78009946D02*
X111968373Y-78012564D01*
X111967812Y-77691136D01*
X112038904Y-77498155D01*
X112181536Y-77369334D01*
X112324281Y-77304799D01*
X112609883Y-77240015D01*
X112824168Y-77239641D01*
X113109995Y-77303428D01*
X113252964Y-77367464D01*
X113396045Y-77495786D01*
X113467810Y-77688518D01*
X113468371Y-78009946D01*
X111965568Y-76405424D02*
X111965119Y-76148281D01*
X112036324Y-76019585D01*
X112178956Y-75890765D01*
X112464557Y-75825980D01*
X112964556Y-75825108D01*
X113250383Y-75888895D01*
X113393464Y-76017216D01*
X113465117Y-76145663D01*
X113465566Y-76402806D01*
X113394362Y-76531502D01*
X113251730Y-76660322D01*
X112966127Y-76725106D01*
X112466128Y-76725979D01*
X112180302Y-76662192D01*
X112037221Y-76533870D01*
X111965568Y-76405424D01*
X113392230Y-75310074D02*
X113463322Y-75117093D01*
X113462761Y-74795665D01*
X113391108Y-74667218D01*
X113319567Y-74603057D01*
X113176598Y-74539022D01*
X113033741Y-74539271D01*
X112890997Y-74603805D01*
X112819680Y-74668216D01*
X112748477Y-74796911D01*
X112677497Y-75054178D01*
X112606293Y-75182875D01*
X112534976Y-75247284D01*
X112392232Y-75311820D01*
X112249375Y-75312069D01*
X112106406Y-75248032D01*
X112034865Y-75183872D01*
X111963212Y-75055425D01*
X111962651Y-74733998D01*
X112033743Y-74541016D01*
X113461302Y-73959952D02*
X111961304Y-73962570D01*
X113460180Y-73317096D02*
X111960182Y-73319714D01*
X113458834Y-72545669D01*
X111958836Y-72548287D01*
X112027909Y-71198164D02*
X111956704Y-71326860D01*
X111957041Y-71519717D01*
X112028806Y-71712449D01*
X112171887Y-71840771D01*
X112314856Y-71904807D01*
X112600683Y-71968594D01*
X112814968Y-71968220D01*
X113100570Y-71903435D01*
X113243315Y-71838901D01*
X113385947Y-71710080D01*
X113457038Y-71517099D01*
X113456814Y-71388528D01*
X113385049Y-71195796D01*
X113313508Y-71131634D01*
X112813509Y-71132507D01*
X112813958Y-71389650D01*
X113453560Y-69524245D02*
X111953562Y-69526863D01*
X111952665Y-69012578D01*
X112023869Y-68883882D01*
X112095186Y-68819472D01*
X112237931Y-68754937D01*
X112452215Y-68754563D01*
X112595185Y-68818600D01*
X112666725Y-68882760D01*
X112738379Y-69011207D01*
X112739276Y-69525491D01*
X111951206Y-68176865D02*
X113165490Y-68174745D01*
X113308235Y-68110211D01*
X113379552Y-68045800D01*
X113450755Y-67917105D01*
X113450306Y-67659962D01*
X113378654Y-67531515D01*
X113307113Y-67467355D01*
X113164144Y-67403318D01*
X111949860Y-67405438D01*
X113448736Y-66759963D02*
X111948738Y-66762581D01*
X113019380Y-66310711D01*
X111947167Y-65862582D01*
X113447165Y-65859964D01*
X113446043Y-65217108D02*
X111946045Y-65219726D01*
X111945147Y-64705442D01*
X112016352Y-64576745D01*
X112087669Y-64512336D01*
X112230413Y-64447801D01*
X112444698Y-64447427D01*
X112587668Y-64511463D01*
X112659208Y-64575623D01*
X112730861Y-64704071D01*
X112731759Y-65218355D01*
X112084864Y-62905195D02*
X112013323Y-62841034D01*
X111941669Y-62712588D01*
X111941108Y-62391159D01*
X112012313Y-62262464D01*
X112083629Y-62198053D01*
X112226374Y-62133519D01*
X112369231Y-62133270D01*
X112583629Y-62197181D01*
X113442116Y-62967113D01*
X113440657Y-62131400D01*
X103675571Y-72963999D02*
X102175571Y-72963999D01*
X103247000Y-72513999D01*
X102175571Y-72063999D01*
X103675571Y-72063999D01*
X103247000Y-71485428D02*
X103247000Y-70842571D01*
X103675571Y-71614000D02*
X102175571Y-71164000D01*
X103675571Y-70714000D01*
X103675571Y-70263999D02*
X102175571Y-70263999D01*
X103675571Y-69621142D02*
X102175571Y-69621142D01*
X103675571Y-68849714D01*
X102175571Y-68849714D01*
X103675571Y-67178285D02*
X102175571Y-67178285D01*
X102175571Y-66664000D01*
X102247000Y-66535428D01*
X102318429Y-66471143D01*
X102461286Y-66406857D01*
X102675571Y-66406857D01*
X102818429Y-66471143D01*
X102889857Y-66535428D01*
X102961286Y-66664000D01*
X102961286Y-67178285D01*
X102175571Y-65828285D02*
X103389857Y-65828285D01*
X103532714Y-65764000D01*
X103604143Y-65699714D01*
X103675571Y-65571143D01*
X103675571Y-65314000D01*
X103604143Y-65185428D01*
X103532714Y-65121143D01*
X103389857Y-65056857D01*
X102175571Y-65056857D01*
X103675571Y-64413999D02*
X102175571Y-64413999D01*
X103247000Y-63963999D01*
X102175571Y-63513999D01*
X103675571Y-63513999D01*
X103675571Y-62871142D02*
X102175571Y-62871142D01*
X102175571Y-62356857D01*
X102247000Y-62228285D01*
X102318429Y-62164000D01*
X102461286Y-62099714D01*
X102675571Y-62099714D01*
X102818429Y-62164000D01*
X102889857Y-62228285D01*
X102961286Y-62356857D01*
X102961286Y-62871142D01*
X94341143Y-60817428D02*
X94341143Y-59788857D01*
X94912571Y-60303143D02*
X93769714Y-60303143D01*
X94912571Y-58438857D02*
X94912571Y-59210285D01*
X94912571Y-58824571D02*
X93412571Y-58824571D01*
X93626857Y-58953142D01*
X93769714Y-59081714D01*
X93841143Y-59210285D01*
X93555429Y-57924571D02*
X93484000Y-57860285D01*
X93412571Y-57731714D01*
X93412571Y-57410285D01*
X93484000Y-57281714D01*
X93555429Y-57217428D01*
X93698286Y-57153143D01*
X93841143Y-57153143D01*
X94055429Y-57217428D01*
X94912571Y-57988857D01*
X94912571Y-57153143D01*
X93412571Y-56767429D02*
X94912571Y-56317429D01*
X93412571Y-55867429D01*
X94912571Y-54388857D02*
X93412571Y-54388857D01*
X94912571Y-53746000D02*
X93412571Y-53746000D01*
X94912571Y-52974572D01*
X93412571Y-52974572D01*
D11*
X78232000Y-74168000D02*
X78232000Y-120904000D01*
X29972000Y-106172000D02*
X33020000Y-106172000D01*
X29972000Y-103124000D02*
X33020000Y-103124000D01*
X29972000Y-120904000D02*
X29972000Y-85852000D01*
X33020000Y-120904000D02*
X29972000Y-120904000D01*
X33020000Y-85852000D02*
X33020000Y-120904000D01*
X29972000Y-85852000D02*
X33020000Y-85852000D01*
X78232000Y-101092000D02*
X81280000Y-101092000D01*
X78232000Y-99060000D02*
X81280000Y-99060000D01*
X81280000Y-74168000D02*
X78232000Y-74168000D01*
X81280000Y-120904000D02*
X81280000Y-74168000D01*
X78232000Y-120904000D02*
X81280000Y-120904000D01*
D13*
X131508572Y-60051143D02*
X132651429Y-60051143D01*
X124904572Y-60051143D02*
X126047429Y-60051143D01*
X125476000Y-60622571D02*
X125476000Y-59479714D01*
D11*
X158750000Y-61468000D02*
X140970000Y-61468000D01*
X140970000Y-61468000D02*
X140970000Y-59944000D01*
X138430000Y-61468000D02*
X138430000Y-59944000D01*
X130810000Y-59944000D02*
X130810000Y-61468000D01*
X130810000Y-61468000D02*
X138430000Y-61468000D01*
D13*
X136588572Y-60051143D02*
X137731429Y-60051143D01*
X137160000Y-60622571D02*
X137160000Y-59479714D01*
D12*
X34714571Y-58923790D02*
X33214571Y-58923790D01*
X33214571Y-58504743D01*
X33286000Y-58399981D01*
X33357429Y-58347600D01*
X33500286Y-58295219D01*
X33714571Y-58295219D01*
X33857429Y-58347600D01*
X33928857Y-58399981D01*
X34000286Y-58504743D01*
X34000286Y-58923790D01*
X34714571Y-57823790D02*
X33214571Y-57823790D01*
X33928857Y-57823790D02*
X33928857Y-57195219D01*
X34714571Y-57195219D02*
X33214571Y-57195219D01*
X34714571Y-55833314D02*
X33214571Y-55833314D01*
X33214571Y-55414267D01*
X33286000Y-55309505D01*
X33357429Y-55257124D01*
X33500286Y-55204743D01*
X33714571Y-55204743D01*
X33857429Y-55257124D01*
X33928857Y-55309505D01*
X34000286Y-55414267D01*
X34000286Y-55833314D01*
X34714571Y-54104743D02*
X34000286Y-54471409D01*
X34714571Y-54733314D02*
X33214571Y-54733314D01*
X33214571Y-54314267D01*
X33286000Y-54209505D01*
X33357429Y-54157124D01*
X33500286Y-54104743D01*
X33714571Y-54104743D01*
X33857429Y-54157124D01*
X33928857Y-54209505D01*
X34000286Y-54314267D01*
X34000286Y-54733314D01*
X33214571Y-53423790D02*
X33214571Y-53214267D01*
X33286000Y-53109505D01*
X33428857Y-53004743D01*
X33714571Y-52952362D01*
X34214571Y-52952362D01*
X34500286Y-53004743D01*
X34643143Y-53109505D01*
X34714571Y-53214267D01*
X34714571Y-53423790D01*
X34643143Y-53528552D01*
X34500286Y-53633314D01*
X34214571Y-53685695D01*
X33714571Y-53685695D01*
X33428857Y-53633314D01*
X33286000Y-53528552D01*
X33214571Y-53423790D01*
X33928857Y-52114267D02*
X34000286Y-51957124D01*
X34071714Y-51904743D01*
X34214571Y-51852362D01*
X34428857Y-51852362D01*
X34571714Y-51904743D01*
X34643143Y-51957124D01*
X34714571Y-52061886D01*
X34714571Y-52480933D01*
X33214571Y-52480933D01*
X33214571Y-52114267D01*
X33286000Y-52009505D01*
X33357429Y-51957124D01*
X33500286Y-51904743D01*
X33643143Y-51904743D01*
X33786000Y-51957124D01*
X33857429Y-52009505D01*
X33928857Y-52114267D01*
X33928857Y-52480933D01*
X33928857Y-51380933D02*
X33928857Y-51014267D01*
X34714571Y-50857124D02*
X34714571Y-51380933D01*
X33214571Y-51380933D01*
X33214571Y-50857124D01*
D13*
X97551857Y-124745524D02*
X97551857Y-120745524D01*
X97551857Y-122650286D02*
X99180429Y-122650286D01*
X99180429Y-124745524D02*
X99180429Y-120745524D01*
X101080429Y-122840762D02*
X101080429Y-124745524D01*
X100130429Y-120745524D02*
X101080429Y-122840762D01*
X102030429Y-120745524D01*
X102980428Y-124745524D02*
X102980428Y-120745524D01*
X103659000Y-120745524D01*
X104066143Y-120936000D01*
X104337571Y-121316952D01*
X104473286Y-121697905D01*
X104609000Y-122459810D01*
X104609000Y-123031238D01*
X104473286Y-123793143D01*
X104337571Y-124174095D01*
X104066143Y-124555048D01*
X103659000Y-124745524D01*
X102980428Y-124745524D01*
X107459000Y-124745524D02*
X106509000Y-122840762D01*
X105830428Y-124745524D02*
X105830428Y-120745524D01*
X106916143Y-120745524D01*
X107187571Y-120936000D01*
X107323286Y-121126476D01*
X107459000Y-121507429D01*
X107459000Y-122078857D01*
X107323286Y-122459810D01*
X107187571Y-122650286D01*
X106916143Y-122840762D01*
X105830428Y-122840762D01*
X109223286Y-120745524D02*
X109766143Y-120745524D01*
X110037571Y-120936000D01*
X110309000Y-121316952D01*
X110444714Y-122078857D01*
X110444714Y-123412190D01*
X110309000Y-124174095D01*
X110037571Y-124555048D01*
X109766143Y-124745524D01*
X109223286Y-124745524D01*
X108951857Y-124555048D01*
X108680428Y-124174095D01*
X108544714Y-123412190D01*
X108544714Y-122078857D01*
X108680428Y-121316952D01*
X108951857Y-120936000D01*
X109223286Y-120745524D01*
X111666142Y-124745524D02*
X111666142Y-120745524D01*
X112751857Y-120745524D01*
X113023285Y-120936000D01*
X113159000Y-121126476D01*
X113294714Y-121507429D01*
X113294714Y-122078857D01*
X113159000Y-122459810D01*
X113023285Y-122650286D01*
X112751857Y-122840762D01*
X111666142Y-122840762D01*
X115059000Y-120745524D02*
X115601857Y-120745524D01*
X115873285Y-120936000D01*
X116144714Y-121316952D01*
X116280428Y-122078857D01*
X116280428Y-123412190D01*
X116144714Y-124174095D01*
X115873285Y-124555048D01*
X115601857Y-124745524D01*
X115059000Y-124745524D01*
X114787571Y-124555048D01*
X114516142Y-124174095D01*
X114380428Y-123412190D01*
X114380428Y-122078857D01*
X114516142Y-121316952D01*
X114787571Y-120936000D01*
X115059000Y-120745524D01*
X117501856Y-124745524D02*
X117501856Y-120745524D01*
X119130428Y-124745524D01*
X119130428Y-120745524D01*
X120487570Y-124745524D02*
X120487570Y-120745524D01*
X123473285Y-124364571D02*
X123337571Y-124555048D01*
X122930428Y-124745524D01*
X122658999Y-124745524D01*
X122251856Y-124555048D01*
X121980428Y-124174095D01*
X121844713Y-123793143D01*
X121708999Y-123031238D01*
X121708999Y-122459810D01*
X121844713Y-121697905D01*
X121980428Y-121316952D01*
X122251856Y-120936000D01*
X122658999Y-120745524D01*
X122930428Y-120745524D01*
X123337571Y-120936000D01*
X123473285Y-121126476D01*
X124558999Y-124555048D02*
X124966142Y-124745524D01*
X125644713Y-124745524D01*
X125916142Y-124555048D01*
X126051856Y-124364571D01*
X126187571Y-123983619D01*
X126187571Y-123602667D01*
X126051856Y-123221714D01*
X125916142Y-123031238D01*
X125644713Y-122840762D01*
X125101856Y-122650286D01*
X124830428Y-122459810D01*
X124694713Y-122269333D01*
X124558999Y-121888381D01*
X124558999Y-121507429D01*
X124694713Y-121126476D01*
X124830428Y-120936000D01*
X125101856Y-120745524D01*
X125780428Y-120745524D01*
X126187571Y-120936000D01*
X129444714Y-124555048D02*
X129851857Y-124745524D01*
X130530428Y-124745524D01*
X130801857Y-124555048D01*
X130937571Y-124364571D01*
X131073286Y-123983619D01*
X131073286Y-123602667D01*
X130937571Y-123221714D01*
X130801857Y-123031238D01*
X130530428Y-122840762D01*
X129987571Y-122650286D01*
X129716143Y-122459810D01*
X129580428Y-122269333D01*
X129444714Y-121888381D01*
X129444714Y-121507429D01*
X129580428Y-121126476D01*
X129716143Y-120936000D01*
X129987571Y-120745524D01*
X130666143Y-120745524D01*
X131073286Y-120936000D01*
X132294714Y-124745524D02*
X132294714Y-120745524D01*
X132294714Y-122650286D02*
X133923286Y-122650286D01*
X133923286Y-124745524D02*
X133923286Y-120745524D01*
X135280428Y-124745524D02*
X135280428Y-120745524D01*
X136637571Y-122650286D02*
X137587571Y-122650286D01*
X137994714Y-124745524D02*
X136637571Y-124745524D01*
X136637571Y-120745524D01*
X137994714Y-120745524D01*
X140573285Y-124745524D02*
X139216142Y-124745524D01*
X139216142Y-120745524D01*
X141523285Y-124745524D02*
X141523285Y-120745524D01*
X142201857Y-120745524D01*
X142609000Y-120936000D01*
X142880428Y-121316952D01*
X143016143Y-121697905D01*
X143151857Y-122459810D01*
X143151857Y-123031238D01*
X143016143Y-123793143D01*
X142880428Y-124174095D01*
X142609000Y-124555048D01*
X142201857Y-124745524D01*
X141523285Y-124745524D01*
X146137572Y-120745524D02*
X147087572Y-124745524D01*
X148037572Y-120745524D01*
X149530429Y-120745524D02*
X149801857Y-120745524D01*
X150073286Y-120936000D01*
X150209000Y-121126476D01*
X150344714Y-121507429D01*
X150480429Y-122269333D01*
X150480429Y-123221714D01*
X150344714Y-123983619D01*
X150209000Y-124364571D01*
X150073286Y-124555048D01*
X149801857Y-124745524D01*
X149530429Y-124745524D01*
X149259000Y-124555048D01*
X149123286Y-124364571D01*
X148987571Y-123983619D01*
X148851857Y-123221714D01*
X148851857Y-122269333D01*
X148987571Y-121507429D01*
X149123286Y-121126476D01*
X149259000Y-120936000D01*
X149530429Y-120745524D01*
X151701857Y-124364571D02*
X151837572Y-124555048D01*
X151701857Y-124745524D01*
X151566143Y-124555048D01*
X151701857Y-124364571D01*
X151701857Y-124745524D01*
X152787572Y-120745524D02*
X154551858Y-120745524D01*
X153601858Y-122269333D01*
X154009000Y-122269333D01*
X154280429Y-122459810D01*
X154416143Y-122650286D01*
X154551858Y-123031238D01*
X154551858Y-123983619D01*
X154416143Y-124364571D01*
X154280429Y-124555048D01*
X154009000Y-124745524D01*
X153194715Y-124745524D01*
X152923286Y-124555048D01*
X152787572Y-124364571D01*
D11*
X158750000Y-61468000D02*
X158750000Y-59944000D01*
D13*
X146748572Y-60051143D02*
X147891429Y-60051143D01*
X141668572Y-60051143D02*
X142811429Y-60051143D01*
X156400572Y-60051143D02*
X157543429Y-60051143D01*
X156972000Y-60622571D02*
X156972000Y-59479714D01*
X151574572Y-60051143D02*
X152717429Y-60051143D01*
X152146000Y-60622571D02*
X152146000Y-59479714D01*
D11*
X119126000Y-61468000D02*
X126746000Y-61468000D01*
X119126000Y-59944000D02*
X119126000Y-61468000D01*
X126746000Y-61468000D02*
X126746000Y-59944000D01*
D13*
X119824572Y-60051143D02*
X120967429Y-60051143D01*
D11*
X109220000Y-61468000D02*
X116840000Y-61468000D01*
X109220000Y-59944000D02*
X109220000Y-61468000D01*
X116840000Y-61468000D02*
X116840000Y-59944000D01*
D13*
X109918572Y-60051143D02*
X111061429Y-60051143D01*
X114998572Y-60051143D02*
X116141429Y-60051143D01*
X115570000Y-60622571D02*
X115570000Y-59479714D01*
D11*
X106680000Y-61468000D02*
X106680000Y-59944000D01*
X99060000Y-61468000D02*
X106680000Y-61468000D01*
X99060000Y-59944000D02*
X99060000Y-61468000D01*
D13*
X99758572Y-60051143D02*
X100901429Y-60051143D01*
X104838572Y-60051143D02*
X105981429Y-60051143D01*
X105410000Y-60622571D02*
X105410000Y-59479714D01*
D14*
X85666200Y-72124200D02*
X84666200Y-72124200D01*
X84666200Y-73824200D02*
X85666200Y-73824200D01*
X95846000Y-69080000D02*
X95846000Y-68080000D01*
X94146000Y-68080000D02*
X94146000Y-69080000D01*
D15*
X37211000Y-62357000D02*
X53975000Y-62357000D01*
X37211000Y-46355000D02*
X37211000Y-62357000D01*
X53975000Y-46355000D02*
X37211000Y-46355000D01*
X53975000Y-62357000D02*
X53975000Y-46355000D01*
D14*
X26568400Y-60782200D02*
X26568400Y-61290200D01*
X27076400Y-60782200D02*
X27076400Y-61290200D01*
X32156400Y-59766200D02*
X32156400Y-50114200D01*
X21488400Y-59766200D02*
X21488400Y-50114200D01*
X32156400Y-59766200D02*
X21488400Y-59766200D01*
X27838400Y-59766200D02*
X27838400Y-60782200D01*
X25806400Y-59766200D02*
X27838400Y-59766200D01*
X25806400Y-60782200D02*
X25806400Y-59766200D01*
X27838400Y-60782200D02*
X25806400Y-60782200D01*
X38049000Y-101104000D02*
X35349000Y-101104000D01*
X38049000Y-102604000D02*
X35349000Y-102604000D01*
X36549000Y-101704000D02*
X36549000Y-101954000D01*
X36549000Y-101954000D02*
X36699000Y-101804000D01*
X36799000Y-102204000D02*
X36799000Y-101504000D01*
X36449000Y-101854000D02*
X36099000Y-101854000D01*
X36799000Y-101854000D02*
X36449000Y-102204000D01*
X36449000Y-102204000D02*
X36449000Y-101504000D01*
X36449000Y-101504000D02*
X36799000Y-101854000D01*
X35849000Y-98820000D02*
X37049000Y-98820000D01*
X37049000Y-100570000D02*
X35849000Y-100570000D01*
X34849000Y-108954000D02*
X37549000Y-108954000D01*
X34849000Y-107454000D02*
X37549000Y-107454000D01*
X36349000Y-108354000D02*
X36349000Y-108104000D01*
X36349000Y-108104000D02*
X36199000Y-108254000D01*
X36099000Y-107854000D02*
X36099000Y-108554000D01*
X36449000Y-108204000D02*
X36799000Y-108204000D01*
X36099000Y-108204000D02*
X36449000Y-107854000D01*
X36449000Y-107854000D02*
X36449000Y-108554000D01*
X36449000Y-108554000D02*
X36099000Y-108204000D01*
X37049000Y-107047000D02*
X35849000Y-107047000D01*
X35849000Y-105297000D02*
X37049000Y-105297000D01*
D16*
X43202000Y-65968000D02*
X39602000Y-65968000D01*
X43726184Y-66695205D02*
G75*
G03X43202000Y-65968000I-2324184J-1122795D01*
G01*
X43758400Y-68916807D02*
G75*
G02X41402000Y-70418000I-2356400J1098807D01*
G01*
X39045600Y-68916807D02*
G75*
G03X41402000Y-70418000I2356400J1098807D01*
G01*
X39077816Y-66695205D02*
G75*
G02X39602000Y-65968000I2324184J-1122795D01*
G01*
D14*
X35726000Y-67064000D02*
X35726000Y-68064000D01*
X37426000Y-68064000D02*
X37426000Y-67064000D01*
X35701000Y-72990000D02*
X35701000Y-71790000D01*
X37451000Y-71790000D02*
X37451000Y-72990000D01*
X39483000Y-71790000D02*
X39483000Y-72990000D01*
X37733000Y-72990000D02*
X37733000Y-71790000D01*
X34231200Y-76209000D02*
X34231200Y-74939000D01*
X26881200Y-76209000D02*
X26881200Y-74939000D01*
X26881200Y-63999000D02*
X26881200Y-65269000D01*
X34231200Y-63999000D02*
X34231200Y-65269000D01*
X34231200Y-76209000D02*
X26881200Y-76209000D01*
X34231200Y-63999000D02*
X26881200Y-63999000D01*
X34231200Y-74939000D02*
X35166200Y-74939000D01*
X92765880Y-50228500D02*
X83764120Y-50228500D01*
X92765880Y-46728380D02*
X83764120Y-46728380D01*
X83764120Y-46728380D02*
X83764120Y-61229240D01*
X83764120Y-61229240D02*
X92765880Y-61229240D01*
X92765880Y-61229240D02*
X92765880Y-46728380D01*
X130933000Y-52537000D02*
X130933000Y-50737000D01*
X133133000Y-52537000D02*
X130933000Y-52537000D01*
X133133000Y-50737000D02*
X133133000Y-52537000D01*
X135933000Y-52537000D02*
X135933000Y-50737000D01*
X138133000Y-52537000D02*
X135933000Y-52537000D01*
X138133000Y-50737000D02*
X138133000Y-52537000D01*
X140933000Y-52537000D02*
X140933000Y-50737000D01*
X143133000Y-52537000D02*
X140933000Y-52537000D01*
X143133000Y-50737000D02*
X143133000Y-52537000D01*
X145933000Y-52537000D02*
X145933000Y-50737000D01*
X148133000Y-52537000D02*
X145933000Y-52537000D01*
X148133000Y-50737000D02*
X148133000Y-52537000D01*
X150933000Y-52537000D02*
X150933000Y-50737000D01*
X153133000Y-52537000D02*
X150933000Y-52537000D01*
X153133000Y-50737000D02*
X153133000Y-52537000D01*
X155933000Y-52537000D02*
X155933000Y-50737000D01*
X158133000Y-52537000D02*
X155933000Y-52537000D01*
X158133000Y-50737000D02*
X158133000Y-52537000D01*
X129533000Y-50737000D02*
X129533000Y-58826400D01*
X159562200Y-58826400D02*
X159562200Y-50647600D01*
X159533000Y-58837000D02*
X129533000Y-58837000D01*
X159533000Y-50637000D02*
X129533000Y-50637000D01*
X99230000Y-52535000D02*
X99230000Y-50735000D01*
X101430000Y-52535000D02*
X99230000Y-52535000D01*
X101430000Y-50735000D02*
X101430000Y-52535000D01*
X104230000Y-52535000D02*
X104230000Y-50735000D01*
X106430000Y-52535000D02*
X104230000Y-52535000D01*
X106430000Y-50735000D02*
X106430000Y-52535000D01*
X109230000Y-52535000D02*
X109230000Y-50735000D01*
X111430000Y-52535000D02*
X109230000Y-52535000D01*
X111430000Y-50735000D02*
X111430000Y-52535000D01*
X114230000Y-52535000D02*
X114230000Y-50735000D01*
X116430000Y-52535000D02*
X114230000Y-52535000D01*
X116430000Y-50735000D02*
X116430000Y-52535000D01*
X119230000Y-52535000D02*
X119230000Y-50735000D01*
X121430000Y-52535000D02*
X119230000Y-52535000D01*
X121430000Y-50735000D02*
X121430000Y-52535000D01*
X124230000Y-52535000D02*
X124230000Y-50735000D01*
X126430000Y-52535000D02*
X124230000Y-52535000D01*
X126430000Y-50735000D02*
X126430000Y-52535000D01*
X97830000Y-50735000D02*
X97830000Y-58824400D01*
X127859200Y-58824400D02*
X127859200Y-50645600D01*
X127830000Y-58835000D02*
X97830000Y-58835000D01*
X127830000Y-50635000D02*
X97830000Y-50635000D01*
X116993000Y-84233000D02*
X123291000Y-84233000D01*
X116999000Y-84093000D02*
X123285000Y-84093000D01*
X117012000Y-83953000D02*
X119696000Y-83953000D01*
X120588000Y-83953000D02*
X123272000Y-83953000D01*
X117031000Y-83813000D02*
X119486000Y-83813000D01*
X120798000Y-83813000D02*
X123253000Y-83813000D01*
X117057000Y-83673000D02*
X119353000Y-83673000D01*
X120931000Y-83673000D02*
X123227000Y-83673000D01*
X117089000Y-83533000D02*
X119262000Y-83533000D01*
X121022000Y-83533000D02*
X123195000Y-83533000D01*
X117128000Y-83393000D02*
X119200000Y-83393000D01*
X121084000Y-83393000D02*
X123156000Y-83393000D01*
X117174000Y-83253000D02*
X119161000Y-83253000D01*
X121123000Y-83253000D02*
X123110000Y-83253000D01*
X117227000Y-83113000D02*
X119144000Y-83113000D01*
X121140000Y-83113000D02*
X123057000Y-83113000D01*
X117289000Y-82973000D02*
X119146000Y-82973000D01*
X121138000Y-82973000D02*
X122995000Y-82973000D01*
X117359000Y-82833000D02*
X119168000Y-82833000D01*
X121116000Y-82833000D02*
X122925000Y-82833000D01*
X117438000Y-82693000D02*
X119211000Y-82693000D01*
X121073000Y-82693000D02*
X122846000Y-82693000D01*
X117526000Y-82553000D02*
X119279000Y-82553000D01*
X121005000Y-82553000D02*
X122758000Y-82553000D01*
X117626000Y-82413000D02*
X119378000Y-82413000D01*
X120906000Y-82413000D02*
X122658000Y-82413000D01*
X117738000Y-82273000D02*
X119523000Y-82273000D01*
X120761000Y-82273000D02*
X122546000Y-82273000D01*
X117863000Y-82133000D02*
X119762000Y-82133000D01*
X120522000Y-82133000D02*
X122421000Y-82133000D01*
X118006000Y-81993000D02*
X122278000Y-81993000D01*
X118168000Y-81853000D02*
X122116000Y-81853000D01*
X118356000Y-81713000D02*
X121928000Y-81713000D01*
X118579000Y-81573000D02*
X121705000Y-81573000D01*
X118855000Y-81433000D02*
X121429000Y-81433000D01*
X119230000Y-81293000D02*
X121054000Y-81293000D01*
X121142000Y-83058000D02*
G75*
G03X121142000Y-83058000I-1000000J0D01*
G01*
X123329500Y-84308000D02*
G75*
G03X123329500Y-84308000I-3187500J0D01*
G01*
X101753000Y-84233000D02*
X108051000Y-84233000D01*
X101759000Y-84093000D02*
X108045000Y-84093000D01*
X101772000Y-83953000D02*
X104456000Y-83953000D01*
X105348000Y-83953000D02*
X108032000Y-83953000D01*
X101791000Y-83813000D02*
X104246000Y-83813000D01*
X105558000Y-83813000D02*
X108013000Y-83813000D01*
X101817000Y-83673000D02*
X104113000Y-83673000D01*
X105691000Y-83673000D02*
X107987000Y-83673000D01*
X101849000Y-83533000D02*
X104022000Y-83533000D01*
X105782000Y-83533000D02*
X107955000Y-83533000D01*
X101888000Y-83393000D02*
X103960000Y-83393000D01*
X105844000Y-83393000D02*
X107916000Y-83393000D01*
X101934000Y-83253000D02*
X103921000Y-83253000D01*
X105883000Y-83253000D02*
X107870000Y-83253000D01*
X101987000Y-83113000D02*
X103904000Y-83113000D01*
X105900000Y-83113000D02*
X107817000Y-83113000D01*
X102049000Y-82973000D02*
X103906000Y-82973000D01*
X105898000Y-82973000D02*
X107755000Y-82973000D01*
X102119000Y-82833000D02*
X103928000Y-82833000D01*
X105876000Y-82833000D02*
X107685000Y-82833000D01*
X102198000Y-82693000D02*
X103971000Y-82693000D01*
X105833000Y-82693000D02*
X107606000Y-82693000D01*
X102286000Y-82553000D02*
X104039000Y-82553000D01*
X105765000Y-82553000D02*
X107518000Y-82553000D01*
X102386000Y-82413000D02*
X104138000Y-82413000D01*
X105666000Y-82413000D02*
X107418000Y-82413000D01*
X102498000Y-82273000D02*
X104283000Y-82273000D01*
X105521000Y-82273000D02*
X107306000Y-82273000D01*
X102623000Y-82133000D02*
X104522000Y-82133000D01*
X105282000Y-82133000D02*
X107181000Y-82133000D01*
X102766000Y-81993000D02*
X107038000Y-81993000D01*
X102928000Y-81853000D02*
X106876000Y-81853000D01*
X103116000Y-81713000D02*
X106688000Y-81713000D01*
X103339000Y-81573000D02*
X106465000Y-81573000D01*
X103615000Y-81433000D02*
X106189000Y-81433000D01*
X103990000Y-81293000D02*
X105814000Y-81293000D01*
X105902000Y-83058000D02*
G75*
G03X105902000Y-83058000I-1000000J0D01*
G01*
X108089500Y-84308000D02*
G75*
G03X108089500Y-84308000I-3187500J0D01*
G01*
X87021000Y-84233000D02*
X93319000Y-84233000D01*
X87027000Y-84093000D02*
X93313000Y-84093000D01*
X87040000Y-83953000D02*
X89724000Y-83953000D01*
X90616000Y-83953000D02*
X93300000Y-83953000D01*
X87059000Y-83813000D02*
X89514000Y-83813000D01*
X90826000Y-83813000D02*
X93281000Y-83813000D01*
X87085000Y-83673000D02*
X89381000Y-83673000D01*
X90959000Y-83673000D02*
X93255000Y-83673000D01*
X87117000Y-83533000D02*
X89290000Y-83533000D01*
X91050000Y-83533000D02*
X93223000Y-83533000D01*
X87156000Y-83393000D02*
X89228000Y-83393000D01*
X91112000Y-83393000D02*
X93184000Y-83393000D01*
X87202000Y-83253000D02*
X89189000Y-83253000D01*
X91151000Y-83253000D02*
X93138000Y-83253000D01*
X87255000Y-83113000D02*
X89172000Y-83113000D01*
X91168000Y-83113000D02*
X93085000Y-83113000D01*
X87317000Y-82973000D02*
X89174000Y-82973000D01*
X91166000Y-82973000D02*
X93023000Y-82973000D01*
X87387000Y-82833000D02*
X89196000Y-82833000D01*
X91144000Y-82833000D02*
X92953000Y-82833000D01*
X87466000Y-82693000D02*
X89239000Y-82693000D01*
X91101000Y-82693000D02*
X92874000Y-82693000D01*
X87554000Y-82553000D02*
X89307000Y-82553000D01*
X91033000Y-82553000D02*
X92786000Y-82553000D01*
X87654000Y-82413000D02*
X89406000Y-82413000D01*
X90934000Y-82413000D02*
X92686000Y-82413000D01*
X87766000Y-82273000D02*
X89551000Y-82273000D01*
X90789000Y-82273000D02*
X92574000Y-82273000D01*
X87891000Y-82133000D02*
X89790000Y-82133000D01*
X90550000Y-82133000D02*
X92449000Y-82133000D01*
X88034000Y-81993000D02*
X92306000Y-81993000D01*
X88196000Y-81853000D02*
X92144000Y-81853000D01*
X88384000Y-81713000D02*
X91956000Y-81713000D01*
X88607000Y-81573000D02*
X91733000Y-81573000D01*
X88883000Y-81433000D02*
X91457000Y-81433000D01*
X89258000Y-81293000D02*
X91082000Y-81293000D01*
X91170000Y-83058000D02*
G75*
G03X91170000Y-83058000I-1000000J0D01*
G01*
X93357500Y-84308000D02*
G75*
G03X93357500Y-84308000I-3187500J0D01*
G01*
X155956000Y-98425000D02*
X155956000Y-97028000D01*
X153416000Y-98425000D02*
X153416000Y-97028000D01*
X150876000Y-98425000D02*
X150876000Y-97028000D01*
X155930472Y-111506000D02*
G75*
G03X155930472Y-111506000I-2514472J0D01*
G01*
X148082000Y-106934000D02*
X148082000Y-114935000D01*
X148082000Y-114935000D02*
X158750000Y-114935000D01*
X158750000Y-114935000D02*
X158750000Y-106934000D01*
X148082000Y-98425000D02*
X148082000Y-106934000D01*
X148082000Y-106934000D02*
X158750000Y-106934000D01*
X158750000Y-106934000D02*
X158750000Y-98425000D01*
X153416000Y-98425000D02*
X158750000Y-98425000D01*
X153416000Y-98425000D02*
X148082000Y-98425000D01*
X125476000Y-98425000D02*
X125476000Y-97028000D01*
X122936000Y-98425000D02*
X122936000Y-97028000D01*
X120396000Y-98425000D02*
X120396000Y-97028000D01*
X125450472Y-111506000D02*
G75*
G03X125450472Y-111506000I-2514472J0D01*
G01*
X117602000Y-106934000D02*
X117602000Y-114935000D01*
X117602000Y-114935000D02*
X128270000Y-114935000D01*
X128270000Y-114935000D02*
X128270000Y-106934000D01*
X117602000Y-98425000D02*
X117602000Y-106934000D01*
X117602000Y-106934000D02*
X128270000Y-106934000D01*
X128270000Y-106934000D02*
X128270000Y-98425000D01*
X122936000Y-98425000D02*
X128270000Y-98425000D01*
X122936000Y-98425000D02*
X117602000Y-98425000D01*
X110236000Y-98425000D02*
X110236000Y-97028000D01*
X107696000Y-98425000D02*
X107696000Y-97028000D01*
X105156000Y-98425000D02*
X105156000Y-97028000D01*
X110210472Y-111506000D02*
G75*
G03X110210472Y-111506000I-2514472J0D01*
G01*
X102362000Y-106934000D02*
X102362000Y-114935000D01*
X102362000Y-114935000D02*
X113030000Y-114935000D01*
X113030000Y-114935000D02*
X113030000Y-106934000D01*
X102362000Y-98425000D02*
X102362000Y-106934000D01*
X102362000Y-106934000D02*
X113030000Y-106934000D01*
X113030000Y-106934000D02*
X113030000Y-98425000D01*
X107696000Y-98425000D02*
X113030000Y-98425000D01*
X107696000Y-98425000D02*
X102362000Y-98425000D01*
X94996000Y-98425000D02*
X94996000Y-97028000D01*
X92456000Y-98425000D02*
X92456000Y-97028000D01*
X89916000Y-98425000D02*
X89916000Y-97028000D01*
X94970472Y-111506000D02*
G75*
G03X94970472Y-111506000I-2514472J0D01*
G01*
X87122000Y-106934000D02*
X87122000Y-114935000D01*
X87122000Y-114935000D02*
X97790000Y-114935000D01*
X97790000Y-114935000D02*
X97790000Y-106934000D01*
X87122000Y-98425000D02*
X87122000Y-106934000D01*
X87122000Y-106934000D02*
X97790000Y-106934000D01*
X97790000Y-106934000D02*
X97790000Y-98425000D01*
X92456000Y-98425000D02*
X97790000Y-98425000D01*
X92456000Y-98425000D02*
X87122000Y-98425000D01*
X132487000Y-84233000D02*
X138785000Y-84233000D01*
X132493000Y-84093000D02*
X138779000Y-84093000D01*
X132506000Y-83953000D02*
X135190000Y-83953000D01*
X136082000Y-83953000D02*
X138766000Y-83953000D01*
X132525000Y-83813000D02*
X134980000Y-83813000D01*
X136292000Y-83813000D02*
X138747000Y-83813000D01*
X132551000Y-83673000D02*
X134847000Y-83673000D01*
X136425000Y-83673000D02*
X138721000Y-83673000D01*
X132583000Y-83533000D02*
X134756000Y-83533000D01*
X136516000Y-83533000D02*
X138689000Y-83533000D01*
X132622000Y-83393000D02*
X134694000Y-83393000D01*
X136578000Y-83393000D02*
X138650000Y-83393000D01*
X132668000Y-83253000D02*
X134655000Y-83253000D01*
X136617000Y-83253000D02*
X138604000Y-83253000D01*
X132721000Y-83113000D02*
X134638000Y-83113000D01*
X136634000Y-83113000D02*
X138551000Y-83113000D01*
X132783000Y-82973000D02*
X134640000Y-82973000D01*
X136632000Y-82973000D02*
X138489000Y-82973000D01*
X132853000Y-82833000D02*
X134662000Y-82833000D01*
X136610000Y-82833000D02*
X138419000Y-82833000D01*
X132932000Y-82693000D02*
X134705000Y-82693000D01*
X136567000Y-82693000D02*
X138340000Y-82693000D01*
X133020000Y-82553000D02*
X134773000Y-82553000D01*
X136499000Y-82553000D02*
X138252000Y-82553000D01*
X133120000Y-82413000D02*
X134872000Y-82413000D01*
X136400000Y-82413000D02*
X138152000Y-82413000D01*
X133232000Y-82273000D02*
X135017000Y-82273000D01*
X136255000Y-82273000D02*
X138040000Y-82273000D01*
X133357000Y-82133000D02*
X135256000Y-82133000D01*
X136016000Y-82133000D02*
X137915000Y-82133000D01*
X133500000Y-81993000D02*
X137772000Y-81993000D01*
X133662000Y-81853000D02*
X137610000Y-81853000D01*
X133850000Y-81713000D02*
X137422000Y-81713000D01*
X134073000Y-81573000D02*
X137199000Y-81573000D01*
X134349000Y-81433000D02*
X136923000Y-81433000D01*
X134724000Y-81293000D02*
X136548000Y-81293000D01*
X136636000Y-83058000D02*
G75*
G03X136636000Y-83058000I-1000000J0D01*
G01*
X138823500Y-84308000D02*
G75*
G03X138823500Y-84308000I-3187500J0D01*
G01*
X140716000Y-98425000D02*
X140716000Y-97028000D01*
X138176000Y-98425000D02*
X138176000Y-97028000D01*
X135636000Y-98425000D02*
X135636000Y-97028000D01*
X140690472Y-111506000D02*
G75*
G03X140690472Y-111506000I-2514472J0D01*
G01*
X132842000Y-106934000D02*
X132842000Y-114935000D01*
X132842000Y-114935000D02*
X143510000Y-114935000D01*
X143510000Y-114935000D02*
X143510000Y-106934000D01*
X132842000Y-98425000D02*
X132842000Y-106934000D01*
X132842000Y-106934000D02*
X143510000Y-106934000D01*
X143510000Y-106934000D02*
X143510000Y-98425000D01*
X138176000Y-98425000D02*
X143510000Y-98425000D01*
X138176000Y-98425000D02*
X132842000Y-98425000D01*
X74400878Y-66894910D02*
X77100878Y-66894910D01*
X74400878Y-65394910D02*
X77100878Y-65394910D01*
X75900878Y-66294910D02*
X75900878Y-66044910D01*
X75900878Y-66044910D02*
X75750878Y-66194910D01*
X75650878Y-65794910D02*
X75650878Y-66494910D01*
X76000878Y-66144910D02*
X76350878Y-66144910D01*
X75650878Y-66144910D02*
X76000878Y-65794910D01*
X76000878Y-65794910D02*
X76000878Y-66494910D01*
X76000878Y-66494910D02*
X75650878Y-66144910D01*
X74426278Y-69053910D02*
X77126278Y-69053910D01*
X74426278Y-67553910D02*
X77126278Y-67553910D01*
X75926278Y-68453910D02*
X75926278Y-68203910D01*
X75926278Y-68203910D02*
X75776278Y-68353910D01*
X75676278Y-67953910D02*
X75676278Y-68653910D01*
X76026278Y-68303910D02*
X76376278Y-68303910D01*
X75676278Y-68303910D02*
X76026278Y-67953910D01*
X76026278Y-67953910D02*
X76026278Y-68653910D01*
X76026278Y-68653910D02*
X75676278Y-68303910D01*
X74426278Y-71162110D02*
X77126278Y-71162110D01*
X74426278Y-69662110D02*
X77126278Y-69662110D01*
X75926278Y-70562110D02*
X75926278Y-70312110D01*
X75926278Y-70312110D02*
X75776278Y-70462110D01*
X75676278Y-70062110D02*
X75676278Y-70762110D01*
X76026278Y-70412110D02*
X76376278Y-70412110D01*
X75676278Y-70412110D02*
X76026278Y-70062110D01*
X76026278Y-70062110D02*
X76026278Y-70762110D01*
X76026278Y-70762110D02*
X75676278Y-70412110D01*
X159016000Y-93142000D02*
X159016000Y-95842000D01*
X160516000Y-93142000D02*
X160516000Y-95842000D01*
X159616000Y-94642000D02*
X159866000Y-94642000D01*
X159866000Y-94642000D02*
X159716000Y-94492000D01*
X160116000Y-94392000D02*
X159416000Y-94392000D01*
X159766000Y-94742000D02*
X159766000Y-95092000D01*
X159766000Y-94392000D02*
X160116000Y-94742000D01*
X160116000Y-94742000D02*
X159416000Y-94742000D01*
X159416000Y-94742000D02*
X159766000Y-94392000D01*
X128536000Y-93175020D02*
X128536000Y-95875020D01*
X130036000Y-93175020D02*
X130036000Y-95875020D01*
X129136000Y-94675020D02*
X129386000Y-94675020D01*
X129386000Y-94675020D02*
X129236000Y-94525020D01*
X129636000Y-94425020D02*
X128936000Y-94425020D01*
X129286000Y-94775020D02*
X129286000Y-95125020D01*
X129286000Y-94425020D02*
X129636000Y-94775020D01*
X129636000Y-94775020D02*
X128936000Y-94775020D01*
X128936000Y-94775020D02*
X129286000Y-94425020D01*
X113296000Y-93142000D02*
X113296000Y-95842000D01*
X114796000Y-93142000D02*
X114796000Y-95842000D01*
X113896000Y-94642000D02*
X114146000Y-94642000D01*
X114146000Y-94642000D02*
X113996000Y-94492000D01*
X114396000Y-94392000D02*
X113696000Y-94392000D01*
X114046000Y-94742000D02*
X114046000Y-95092000D01*
X114046000Y-94392000D02*
X114396000Y-94742000D01*
X114396000Y-94742000D02*
X113696000Y-94742000D01*
X113696000Y-94742000D02*
X114046000Y-94392000D01*
X98056000Y-93175020D02*
X98056000Y-95875020D01*
X99556000Y-93175020D02*
X99556000Y-95875020D01*
X98656000Y-94675020D02*
X98906000Y-94675020D01*
X98906000Y-94675020D02*
X98756000Y-94525020D01*
X99156000Y-94425020D02*
X98456000Y-94425020D01*
X98806000Y-94775020D02*
X98806000Y-95125020D01*
X98806000Y-94425020D02*
X99156000Y-94775020D01*
X99156000Y-94775020D02*
X98456000Y-94775020D01*
X98456000Y-94775020D02*
X98806000Y-94425020D01*
X143776000Y-93142000D02*
X143776000Y-95842000D01*
X145276000Y-93142000D02*
X145276000Y-95842000D01*
X144376000Y-94642000D02*
X144626000Y-94642000D01*
X144626000Y-94642000D02*
X144476000Y-94492000D01*
X144876000Y-94392000D02*
X144176000Y-94392000D01*
X144526000Y-94742000D02*
X144526000Y-95092000D01*
X144526000Y-94392000D02*
X144876000Y-94742000D01*
X144876000Y-94742000D02*
X144176000Y-94742000D01*
X144176000Y-94742000D02*
X144526000Y-94392000D01*
X71082878Y-65269910D02*
X72282878Y-65269910D01*
X72282878Y-67019910D02*
X71082878Y-67019910D01*
X71108278Y-67428910D02*
X72308278Y-67428910D01*
X72308278Y-69178910D02*
X71108278Y-69178910D01*
X71108278Y-69537110D02*
X72308278Y-69537110D01*
X72308278Y-71287110D02*
X71108278Y-71287110D01*
X160923000Y-95850000D02*
X160923000Y-94650000D01*
X162673000Y-94650000D02*
X162673000Y-95850000D01*
X130443000Y-95866500D02*
X130443000Y-94666500D01*
X132193000Y-94666500D02*
X132193000Y-95866500D01*
X115203000Y-95828400D02*
X115203000Y-94628400D01*
X116953000Y-94628400D02*
X116953000Y-95828400D01*
X99963000Y-95866500D02*
X99963000Y-94666500D01*
X101713000Y-94666500D02*
X101713000Y-95866500D01*
X145683000Y-95850000D02*
X145683000Y-94650000D01*
X147433000Y-94650000D02*
X147433000Y-95850000D01*
D10*
X87843000Y-80745000D02*
X88318000Y-80745000D01*
X88318000Y-80745000D02*
X88643000Y-80445000D01*
X88643000Y-80445000D02*
X89443000Y-80445000D01*
X88168000Y-74195000D02*
X88643000Y-74195000D01*
X88643000Y-74195000D02*
X88643000Y-74645000D01*
X85093000Y-80245000D02*
X85093000Y-80745000D01*
X85093000Y-80745000D02*
X85493000Y-80745000D01*
X85093000Y-74570000D02*
X85093000Y-74195000D01*
X85093000Y-74195000D02*
X85393000Y-74195000D01*
D14*
X58767980Y-110434120D02*
X58668920Y-110733840D01*
X59367420Y-110434120D02*
X59466480Y-110733840D01*
X59966860Y-110434120D02*
X59966860Y-105384600D01*
X59966860Y-105384600D02*
X58168540Y-105384600D01*
X58168540Y-105384600D02*
X58168540Y-110434120D01*
X59966860Y-110434120D02*
X58168540Y-110434120D01*
X57491000Y-70782000D02*
X57491000Y-70332000D01*
X57941000Y-71882000D02*
G75*
G03X57941000Y-71882000I-2950000J0D01*
G01*
X57491000Y-72982000D02*
X57491000Y-73432000D01*
X56040400Y-114565800D02*
X57040400Y-114565800D01*
X57040400Y-112865800D02*
X56040400Y-112865800D01*
D10*
X55846400Y-107505800D02*
X55846400Y-107305800D01*
X55846400Y-107305800D02*
X55146400Y-107305800D01*
X51646400Y-107505800D02*
X51646400Y-107305800D01*
X51646400Y-107305800D02*
X52246400Y-107305800D01*
X52346400Y-112505800D02*
X51646400Y-112505800D01*
X51646400Y-112505800D02*
X51646400Y-112305800D01*
X55546400Y-112505800D02*
X55846400Y-112205800D01*
X55846400Y-112205800D02*
X56546400Y-112205800D01*
D14*
X25488000Y-75684000D02*
X25488000Y-74684000D01*
X23788000Y-74684000D02*
X23788000Y-75684000D01*
X51194400Y-114565800D02*
X52194400Y-114565800D01*
X52194400Y-112865800D02*
X51194400Y-112865800D01*
X55491000Y-75413500D02*
X54491000Y-75413500D01*
X54491000Y-77113500D02*
X55491000Y-77113500D01*
X95719000Y-78097000D02*
X95719000Y-77097000D01*
X94019000Y-77097000D02*
X94019000Y-78097000D01*
X35849000Y-109361000D02*
X37049000Y-109361000D01*
X37049000Y-111111000D02*
X35849000Y-111111000D01*
X35341000Y-114949000D02*
X36541000Y-114949000D01*
X36541000Y-116699000D02*
X35341000Y-116699000D01*
X35896000Y-103138000D02*
X37096000Y-103138000D01*
X37096000Y-104888000D02*
X35896000Y-104888000D01*
X37049000Y-98411000D02*
X35849000Y-98411000D01*
X35849000Y-96661000D02*
X37049000Y-96661000D01*
X23763000Y-70958000D02*
X23763000Y-69758000D01*
X25513000Y-69758000D02*
X25513000Y-70958000D01*
X23430200Y-76209600D02*
X23430200Y-77409600D01*
X21680200Y-77409600D02*
X21680200Y-76209600D01*
X75092000Y-74309000D02*
X76292000Y-74309000D01*
X76292000Y-76059000D02*
X75092000Y-76059000D01*
X75092000Y-76849000D02*
X76292000Y-76849000D01*
X76292000Y-78599000D02*
X75092000Y-78599000D01*
X29323000Y-107604000D02*
X29323000Y-108804000D01*
X27573000Y-108804000D02*
X27573000Y-107604000D01*
X76292000Y-96379000D02*
X75092000Y-96379000D01*
X75092000Y-94629000D02*
X76292000Y-94629000D01*
X76292000Y-93839000D02*
X75092000Y-93839000D01*
X75092000Y-92089000D02*
X76292000Y-92089000D01*
X76292000Y-91299000D02*
X75092000Y-91299000D01*
X75092000Y-89549000D02*
X76292000Y-89549000D01*
X76292000Y-88759000D02*
X75092000Y-88759000D01*
X75092000Y-87009000D02*
X76292000Y-87009000D01*
X75092000Y-101233000D02*
X76292000Y-101233000D01*
X76292000Y-102983000D02*
X75092000Y-102983000D01*
X75092000Y-103773000D02*
X76292000Y-103773000D01*
X76292000Y-105523000D02*
X75092000Y-105523000D01*
X76292000Y-98919000D02*
X75092000Y-98919000D01*
X75092000Y-97169000D02*
X76292000Y-97169000D01*
X36626800Y-114529820D02*
X35925760Y-114529820D01*
X35925760Y-114529820D02*
X35925760Y-114280900D01*
X35925760Y-111730840D02*
X35925760Y-111530180D01*
X35925760Y-111530180D02*
X36626800Y-111530180D01*
X136442640Y-89916000D02*
X136992640Y-89466000D01*
X136992640Y-89466000D02*
X136992640Y-90366000D01*
X136992640Y-90366000D02*
X136442640Y-89916000D01*
X136442640Y-89366000D02*
X136442640Y-90466000D01*
X134893500Y-91666060D02*
X134893500Y-91315540D01*
X134893500Y-88165940D02*
X134893500Y-88516460D01*
X138943080Y-91666060D02*
X138943080Y-91315540D01*
X134442200Y-91666060D02*
X134442200Y-91315540D01*
X134442200Y-88165940D02*
X134442200Y-88516460D01*
X138943080Y-88165940D02*
X138943080Y-88516460D01*
X134442200Y-91666060D02*
X138943080Y-91666060D01*
X134442200Y-88165940D02*
X138943080Y-88165940D01*
X120948640Y-89916000D02*
X121498640Y-89466000D01*
X121498640Y-89466000D02*
X121498640Y-90366000D01*
X121498640Y-90366000D02*
X120948640Y-89916000D01*
X120948640Y-89366000D02*
X120948640Y-90466000D01*
X119399500Y-91666060D02*
X119399500Y-91315540D01*
X119399500Y-88165940D02*
X119399500Y-88516460D01*
X123449080Y-91666060D02*
X123449080Y-91315540D01*
X118948200Y-91666060D02*
X118948200Y-91315540D01*
X118948200Y-88165940D02*
X118948200Y-88516460D01*
X123449080Y-88165940D02*
X123449080Y-88516460D01*
X118948200Y-91666060D02*
X123449080Y-91666060D01*
X118948200Y-88165940D02*
X123449080Y-88165940D01*
X105708640Y-89916000D02*
X106258640Y-89466000D01*
X106258640Y-89466000D02*
X106258640Y-90366000D01*
X106258640Y-90366000D02*
X105708640Y-89916000D01*
X105708640Y-89366000D02*
X105708640Y-90466000D01*
X104159500Y-91666060D02*
X104159500Y-91315540D01*
X104159500Y-88165940D02*
X104159500Y-88516460D01*
X108209080Y-91666060D02*
X108209080Y-91315540D01*
X103708200Y-91666060D02*
X103708200Y-91315540D01*
X103708200Y-88165940D02*
X103708200Y-88516460D01*
X108209080Y-88165940D02*
X108209080Y-88516460D01*
X103708200Y-91666060D02*
X108209080Y-91666060D01*
X103708200Y-88165940D02*
X108209080Y-88165940D01*
X90976640Y-89916000D02*
X91526640Y-89466000D01*
X91526640Y-89466000D02*
X91526640Y-90366000D01*
X91526640Y-90366000D02*
X90976640Y-89916000D01*
X90976640Y-89366000D02*
X90976640Y-90466000D01*
X89427500Y-91666060D02*
X89427500Y-91315540D01*
X89427500Y-88165940D02*
X89427500Y-88516460D01*
X93477080Y-91666060D02*
X93477080Y-91315540D01*
X88976200Y-91666060D02*
X88976200Y-91315540D01*
X88976200Y-88165940D02*
X88976200Y-88516460D01*
X93477080Y-88165940D02*
X93477080Y-88516460D01*
X88976200Y-91666060D02*
X93477080Y-91666060D01*
X88976200Y-88165940D02*
X93477080Y-88165940D01*
X22352000Y-64008000D02*
X22352000Y-61468000D01*
X22072000Y-66828000D02*
X22072000Y-65278000D01*
X22352000Y-64008000D02*
X24892000Y-64008000D01*
X25172000Y-65278000D02*
X25172000Y-66828000D01*
X25172000Y-66828000D02*
X22072000Y-66828000D01*
X24892000Y-64008000D02*
X24892000Y-61468000D01*
X24892000Y-61468000D02*
X22352000Y-61468000D01*
X47409100Y-111506000D02*
X47028100Y-111506000D01*
X48425100Y-111506000D02*
X48044100Y-111506000D01*
X48044100Y-111506000D02*
X47409100Y-111887000D01*
X47409100Y-111887000D02*
X47409100Y-111125000D01*
X47409100Y-111125000D02*
X48044100Y-111506000D01*
X48044100Y-112014000D02*
X48044100Y-110998000D01*
X49726600Y-110606000D02*
X46186600Y-110606000D01*
X49726600Y-112406000D02*
X46186600Y-112406000D01*
X48234600Y-115252500D02*
X48234600Y-115633500D01*
X48234600Y-114236500D02*
X48234600Y-114617500D01*
X48234600Y-114617500D02*
X48615600Y-115252500D01*
X48615600Y-115252500D02*
X47853600Y-115252500D01*
X47853600Y-115252500D02*
X48234600Y-114617500D01*
X48742600Y-114617500D02*
X47726600Y-114617500D01*
X47334600Y-112935000D02*
X47334600Y-116475000D01*
X49134600Y-112935000D02*
X49134600Y-116475000D01*
X84336000Y-64858000D02*
X85336000Y-64858000D01*
X85336000Y-63158000D02*
X84336000Y-63158000D01*
D17*
X74894000Y-48154000D02*
X75144000Y-48154000D01*
X74894000Y-46654000D02*
X74894000Y-48154000D01*
X70394000Y-46654000D02*
X74894000Y-46654000D01*
X70394000Y-48154000D02*
X70394000Y-46654000D01*
X70144000Y-48154000D02*
X70394000Y-48154000D01*
X70144000Y-48654000D02*
X70144000Y-48154000D01*
X70144000Y-58404000D02*
X70144000Y-51404000D01*
X74644000Y-60154000D02*
X70644000Y-60154000D01*
X75144000Y-54154000D02*
X75144000Y-58404000D01*
X75144000Y-48154000D02*
X75144000Y-51404000D01*
X63337000Y-48154000D02*
X63587000Y-48154000D01*
X63337000Y-46654000D02*
X63337000Y-48154000D01*
X58837000Y-46654000D02*
X63337000Y-46654000D01*
X58837000Y-48154000D02*
X58837000Y-46654000D01*
X58587000Y-48154000D02*
X58837000Y-48154000D01*
X58587000Y-48654000D02*
X58587000Y-48154000D01*
X58587000Y-58404000D02*
X58587000Y-51404000D01*
X63087000Y-60154000D02*
X59087000Y-60154000D01*
X63587000Y-54154000D02*
X63587000Y-58404000D01*
X63587000Y-48154000D02*
X63587000Y-51404000D01*
D10*
X87918000Y-71855000D02*
X88393000Y-71855000D01*
X88393000Y-71855000D02*
X88718000Y-71555000D01*
X88718000Y-71555000D02*
X89518000Y-71555000D01*
X88243000Y-65305000D02*
X88718000Y-65305000D01*
X88718000Y-65305000D02*
X88718000Y-65755000D01*
X85168000Y-71355000D02*
X85168000Y-71855000D01*
X85168000Y-71855000D02*
X85568000Y-71855000D01*
X85168000Y-65680000D02*
X85168000Y-65305000D01*
X85168000Y-65305000D02*
X85468000Y-65305000D01*
D17*
X63627000Y-131826000D02*
X63627000Y-125730000D01*
X45339000Y-131826000D02*
X63627000Y-131826000D01*
X45339000Y-125730000D02*
X45339000Y-131826000D01*
X40259000Y-125730000D02*
X45339000Y-125730000D01*
X40259000Y-76962000D02*
X40259000Y-125730000D01*
X50419000Y-76962000D02*
X40259000Y-76962000D01*
X50419000Y-75692000D02*
X50419000Y-76962000D01*
X58547000Y-75692000D02*
X50419000Y-75692000D01*
X58547000Y-76962000D02*
X58547000Y-75692000D01*
X68707000Y-76962000D02*
X58547000Y-76962000D01*
X68707000Y-125730000D02*
X68707000Y-76962000D01*
X63627000Y-125730000D02*
X68707000Y-125730000D01*
D14*
X93608000Y-78470000D02*
X93608000Y-76470000D01*
X91558000Y-76470000D02*
X91558000Y-78470000D01*
X93735000Y-69580000D02*
X93735000Y-67580000D01*
X91685000Y-67580000D02*
X91685000Y-69580000D01*
X86369000Y-85328000D02*
X86369000Y-83328000D01*
X84319000Y-83328000D02*
X84319000Y-85328000D01*
X80128000Y-67072000D02*
X80128000Y-69072000D01*
X82178000Y-69072000D02*
X82178000Y-67072000D01*
X74930000Y-108839000D02*
X72390000Y-108839000D01*
X77750000Y-109119000D02*
X76200000Y-109119000D01*
X74930000Y-108839000D02*
X74930000Y-106299000D01*
X76200000Y-106019000D02*
X77750000Y-106019000D01*
X77750000Y-106019000D02*
X77750000Y-109119000D01*
X74930000Y-106299000D02*
X72390000Y-106299000D01*
X72390000Y-106299000D02*
X72390000Y-108839000D01*
X88206343Y-73331343D02*
X88158724Y-73378962D01*
X88015867Y-73426581D01*
X87920629Y-73426581D01*
X87777771Y-73378962D01*
X87682533Y-73283724D01*
X87634914Y-73188486D01*
X87587295Y-72998010D01*
X87587295Y-72855152D01*
X87634914Y-72664676D01*
X87682533Y-72569438D01*
X87777771Y-72474200D01*
X87920629Y-72426581D01*
X88015867Y-72426581D01*
X88158724Y-72474200D01*
X88206343Y-72521819D01*
X89158724Y-73426581D02*
X88587295Y-73426581D01*
X88873009Y-73426581D02*
X88873009Y-72426581D01*
X88777771Y-72569438D01*
X88682533Y-72664676D01*
X88587295Y-72712295D01*
X89539676Y-72521819D02*
X89587295Y-72474200D01*
X89682533Y-72426581D01*
X89920629Y-72426581D01*
X90015867Y-72474200D01*
X90063486Y-72521819D01*
X90111105Y-72617057D01*
X90111105Y-72712295D01*
X90063486Y-72855152D01*
X89492057Y-73426581D01*
X90111105Y-73426581D01*
X97131143Y-69222857D02*
X97178762Y-69270476D01*
X97226381Y-69413333D01*
X97226381Y-69508571D01*
X97178762Y-69651429D01*
X97083524Y-69746667D01*
X96988286Y-69794286D01*
X96797810Y-69841905D01*
X96654952Y-69841905D01*
X96464476Y-69794286D01*
X96369238Y-69746667D01*
X96274000Y-69651429D01*
X96226381Y-69508571D01*
X96226381Y-69413333D01*
X96274000Y-69270476D01*
X96321619Y-69222857D01*
X97226381Y-68270476D02*
X97226381Y-68841905D01*
X97226381Y-68556191D02*
X96226381Y-68556191D01*
X96369238Y-68651429D01*
X96464476Y-68746667D01*
X96512095Y-68841905D01*
X96226381Y-67365714D02*
X96226381Y-67841905D01*
X96702571Y-67889524D01*
X96654952Y-67841905D01*
X96607333Y-67746667D01*
X96607333Y-67508571D01*
X96654952Y-67413333D01*
X96702571Y-67365714D01*
X96797810Y-67318095D01*
X97035905Y-67318095D01*
X97131143Y-67365714D01*
X97178762Y-67413333D01*
X97226381Y-67508571D01*
X97226381Y-67746667D01*
X97178762Y-67841905D01*
X97131143Y-67889524D01*
X53006667Y-63206381D02*
X53006667Y-63920667D01*
X52959047Y-64063524D01*
X52863809Y-64158762D01*
X52720952Y-64206381D01*
X52625714Y-64206381D01*
X53387619Y-63206381D02*
X54006667Y-63206381D01*
X53673333Y-63587333D01*
X53816191Y-63587333D01*
X53911429Y-63634952D01*
X53959048Y-63682571D01*
X54006667Y-63777810D01*
X54006667Y-64015905D01*
X53959048Y-64111143D01*
X53911429Y-64158762D01*
X53816191Y-64206381D01*
X53530476Y-64206381D01*
X53435238Y-64158762D01*
X53387619Y-64111143D01*
X30630905Y-61209181D02*
X30630905Y-60209181D01*
X31011858Y-60209181D01*
X31107096Y-60256800D01*
X31154715Y-60304419D01*
X31202334Y-60399657D01*
X31202334Y-60542514D01*
X31154715Y-60637752D01*
X31107096Y-60685371D01*
X31011858Y-60732990D01*
X30630905Y-60732990D01*
X31678524Y-61209181D02*
X31869000Y-61209181D01*
X31964239Y-61161562D01*
X32011858Y-61113943D01*
X32107096Y-60971086D01*
X32154715Y-60780610D01*
X32154715Y-60399657D01*
X32107096Y-60304419D01*
X32059477Y-60256800D01*
X31964239Y-60209181D01*
X31773762Y-60209181D01*
X31678524Y-60256800D01*
X31630905Y-60304419D01*
X31583286Y-60399657D01*
X31583286Y-60637752D01*
X31630905Y-60732990D01*
X31678524Y-60780610D01*
X31773762Y-60828229D01*
X31964239Y-60828229D01*
X32059477Y-60780610D01*
X32107096Y-60732990D01*
X32154715Y-60637752D01*
X42949905Y-102306381D02*
X42949905Y-101306381D01*
X43188000Y-101306381D01*
X43330858Y-101354000D01*
X43426096Y-101449238D01*
X43473715Y-101544476D01*
X43521334Y-101734952D01*
X43521334Y-101877810D01*
X43473715Y-102068286D01*
X43426096Y-102163524D01*
X43330858Y-102258762D01*
X43188000Y-102306381D01*
X42949905Y-102306381D01*
X44092762Y-101734952D02*
X43997524Y-101687333D01*
X43949905Y-101639714D01*
X43902286Y-101544476D01*
X43902286Y-101496857D01*
X43949905Y-101401619D01*
X43997524Y-101354000D01*
X44092762Y-101306381D01*
X44283239Y-101306381D01*
X44378477Y-101354000D01*
X44426096Y-101401619D01*
X44473715Y-101496857D01*
X44473715Y-101544476D01*
X44426096Y-101639714D01*
X44378477Y-101687333D01*
X44283239Y-101734952D01*
X44092762Y-101734952D01*
X43997524Y-101782571D01*
X43949905Y-101830190D01*
X43902286Y-101925429D01*
X43902286Y-102115905D01*
X43949905Y-102211143D01*
X43997524Y-102258762D01*
X44092762Y-102306381D01*
X44283239Y-102306381D01*
X44378477Y-102258762D01*
X44426096Y-102211143D01*
X44473715Y-102115905D01*
X44473715Y-101925429D01*
X44426096Y-101830190D01*
X44378477Y-101782571D01*
X44283239Y-101734952D01*
X43299143Y-100147381D02*
X42965809Y-99671190D01*
X42727714Y-100147381D02*
X42727714Y-99147381D01*
X43108667Y-99147381D01*
X43203905Y-99195000D01*
X43251524Y-99242619D01*
X43299143Y-99337857D01*
X43299143Y-99480714D01*
X43251524Y-99575952D01*
X43203905Y-99623571D01*
X43108667Y-99671190D01*
X42727714Y-99671190D01*
X43680095Y-99242619D02*
X43727714Y-99195000D01*
X43822952Y-99147381D01*
X44061048Y-99147381D01*
X44156286Y-99195000D01*
X44203905Y-99242619D01*
X44251524Y-99337857D01*
X44251524Y-99433095D01*
X44203905Y-99575952D01*
X43632476Y-100147381D01*
X44251524Y-100147381D01*
X45108667Y-99147381D02*
X44918190Y-99147381D01*
X44822952Y-99195000D01*
X44775333Y-99242619D01*
X44680095Y-99385476D01*
X44632476Y-99575952D01*
X44632476Y-99956905D01*
X44680095Y-100052143D01*
X44727714Y-100099762D01*
X44822952Y-100147381D01*
X45013429Y-100147381D01*
X45108667Y-100099762D01*
X45156286Y-100052143D01*
X45203905Y-99956905D01*
X45203905Y-99718810D01*
X45156286Y-99623571D01*
X45108667Y-99575952D01*
X45013429Y-99528333D01*
X44822952Y-99528333D01*
X44727714Y-99575952D01*
X44680095Y-99623571D01*
X44632476Y-99718810D01*
X42981714Y-108656381D02*
X42981714Y-107656381D01*
X43219809Y-107656381D01*
X43362667Y-107704000D01*
X43457905Y-107799238D01*
X43505524Y-107894476D01*
X43553143Y-108084952D01*
X43553143Y-108227810D01*
X43505524Y-108418286D01*
X43457905Y-108513524D01*
X43362667Y-108608762D01*
X43219809Y-108656381D01*
X42981714Y-108656381D01*
X44505524Y-108656381D02*
X43934095Y-108656381D01*
X44219809Y-108656381D02*
X44219809Y-107656381D01*
X44124571Y-107799238D01*
X44029333Y-107894476D01*
X43934095Y-107942095D01*
X45362667Y-107989714D02*
X45362667Y-108656381D01*
X45124571Y-107608762D02*
X44886476Y-108323048D01*
X45505524Y-108323048D01*
X43553143Y-106624381D02*
X43219809Y-106148190D01*
X42981714Y-106624381D02*
X42981714Y-105624381D01*
X43362667Y-105624381D01*
X43457905Y-105672000D01*
X43505524Y-105719619D01*
X43553143Y-105814857D01*
X43553143Y-105957714D01*
X43505524Y-106052952D01*
X43457905Y-106100571D01*
X43362667Y-106148190D01*
X42981714Y-106148190D01*
X43886476Y-105624381D02*
X44505524Y-105624381D01*
X44172190Y-106005333D01*
X44315048Y-106005333D01*
X44410286Y-106052952D01*
X44457905Y-106100571D01*
X44505524Y-106195810D01*
X44505524Y-106433905D01*
X44457905Y-106529143D01*
X44410286Y-106576762D01*
X44315048Y-106624381D01*
X44029333Y-106624381D01*
X43934095Y-106576762D01*
X43886476Y-106529143D01*
X44886476Y-105719619D02*
X44934095Y-105672000D01*
X45029333Y-105624381D01*
X45267429Y-105624381D01*
X45362667Y-105672000D01*
X45410286Y-105719619D01*
X45457905Y-105814857D01*
X45457905Y-105910095D01*
X45410286Y-106052952D01*
X44838857Y-106624381D01*
X45457905Y-106624381D01*
X40100381Y-65476381D02*
X39767047Y-65000190D01*
X39528952Y-65476381D02*
X39528952Y-64476381D01*
X39909905Y-64476381D01*
X40005143Y-64524000D01*
X40052762Y-64571619D01*
X40100381Y-64666857D01*
X40100381Y-64809714D01*
X40052762Y-64904952D01*
X40005143Y-64952571D01*
X39909905Y-65000190D01*
X39528952Y-65000190D01*
X40528952Y-64952571D02*
X40862286Y-64952571D01*
X41005143Y-65476381D02*
X40528952Y-65476381D01*
X40528952Y-64476381D01*
X41005143Y-64476381D01*
X41767048Y-64952571D02*
X41433714Y-64952571D01*
X41433714Y-65476381D02*
X41433714Y-64476381D01*
X41909905Y-64476381D01*
X42814667Y-65476381D02*
X42243238Y-65476381D01*
X42528952Y-65476381D02*
X42528952Y-64476381D01*
X42433714Y-64619238D01*
X42338476Y-64714476D01*
X42243238Y-64762095D01*
X36933143Y-64428666D02*
X36980762Y-64476285D01*
X37028381Y-64619142D01*
X37028381Y-64714380D01*
X36980762Y-64857238D01*
X36885524Y-64952476D01*
X36790286Y-65000095D01*
X36599810Y-65047714D01*
X36456952Y-65047714D01*
X36266476Y-65000095D01*
X36171238Y-64952476D01*
X36076000Y-64857238D01*
X36028381Y-64714380D01*
X36028381Y-64619142D01*
X36076000Y-64476285D01*
X36123619Y-64428666D01*
X37028381Y-63476285D02*
X37028381Y-64047714D01*
X37028381Y-63762000D02*
X36028381Y-63762000D01*
X36171238Y-63857238D01*
X36266476Y-63952476D01*
X36314095Y-64047714D01*
X37028381Y-76842857D02*
X36552190Y-77176191D01*
X37028381Y-77414286D02*
X36028381Y-77414286D01*
X36028381Y-77033333D01*
X36076000Y-76938095D01*
X36123619Y-76890476D01*
X36218857Y-76842857D01*
X36361714Y-76842857D01*
X36456952Y-76890476D01*
X36504571Y-76938095D01*
X36552190Y-77033333D01*
X36552190Y-77414286D01*
X37028381Y-75890476D02*
X37028381Y-76461905D01*
X37028381Y-76176191D02*
X36028381Y-76176191D01*
X36171238Y-76271429D01*
X36266476Y-76366667D01*
X36314095Y-76461905D01*
X36456952Y-75319048D02*
X36409333Y-75414286D01*
X36361714Y-75461905D01*
X36266476Y-75509524D01*
X36218857Y-75509524D01*
X36123619Y-75461905D01*
X36076000Y-75414286D01*
X36028381Y-75319048D01*
X36028381Y-75128571D01*
X36076000Y-75033333D01*
X36123619Y-74985714D01*
X36218857Y-74938095D01*
X36266476Y-74938095D01*
X36361714Y-74985714D01*
X36409333Y-75033333D01*
X36456952Y-75128571D01*
X36456952Y-75319048D01*
X36504571Y-75414286D01*
X36552190Y-75461905D01*
X36647429Y-75509524D01*
X36837905Y-75509524D01*
X36933143Y-75461905D01*
X36980762Y-75414286D01*
X37028381Y-75319048D01*
X37028381Y-75128571D01*
X36980762Y-75033333D01*
X36933143Y-74985714D01*
X36837905Y-74938095D01*
X36647429Y-74938095D01*
X36552190Y-74985714D01*
X36504571Y-75033333D01*
X36456952Y-75128571D01*
X39314381Y-76842857D02*
X38838190Y-77176191D01*
X39314381Y-77414286D02*
X38314381Y-77414286D01*
X38314381Y-77033333D01*
X38362000Y-76938095D01*
X38409619Y-76890476D01*
X38504857Y-76842857D01*
X38647714Y-76842857D01*
X38742952Y-76890476D01*
X38790571Y-76938095D01*
X38838190Y-77033333D01*
X38838190Y-77414286D01*
X39314381Y-75890476D02*
X39314381Y-76461905D01*
X39314381Y-76176191D02*
X38314381Y-76176191D01*
X38457238Y-76271429D01*
X38552476Y-76366667D01*
X38600095Y-76461905D01*
X38314381Y-75557143D02*
X38314381Y-74890476D01*
X39314381Y-75319048D01*
X29972095Y-76668381D02*
X29972095Y-77477905D01*
X30019714Y-77573143D01*
X30067333Y-77620762D01*
X30162571Y-77668381D01*
X30353048Y-77668381D01*
X30448286Y-77620762D01*
X30495905Y-77573143D01*
X30543524Y-77477905D01*
X30543524Y-76668381D01*
X31543524Y-77668381D02*
X30972095Y-77668381D01*
X31257809Y-77668381D02*
X31257809Y-76668381D01*
X31162571Y-76811238D01*
X31067333Y-76906476D01*
X30972095Y-76954095D01*
X83034143Y-54277425D02*
X83081762Y-54325044D01*
X83129381Y-54467901D01*
X83129381Y-54563139D01*
X83081762Y-54705997D01*
X82986524Y-54801235D01*
X82891286Y-54848854D01*
X82700810Y-54896473D01*
X82557952Y-54896473D01*
X82367476Y-54848854D01*
X82272238Y-54801235D01*
X82177000Y-54705997D01*
X82129381Y-54563139D01*
X82129381Y-54467901D01*
X82177000Y-54325044D01*
X82224619Y-54277425D01*
X82129381Y-53658378D02*
X82129381Y-53467901D01*
X82177000Y-53372663D01*
X82272238Y-53277425D01*
X82462714Y-53229806D01*
X82796048Y-53229806D01*
X82986524Y-53277425D01*
X83081762Y-53372663D01*
X83129381Y-53467901D01*
X83129381Y-53658378D01*
X83081762Y-53753616D01*
X82986524Y-53848854D01*
X82796048Y-53896473D01*
X82462714Y-53896473D01*
X82272238Y-53848854D01*
X82177000Y-53753616D01*
X82129381Y-53658378D01*
X83129381Y-52801235D02*
X82129381Y-52801235D01*
X83129381Y-52229806D01*
X82129381Y-52229806D01*
X83129381Y-51229806D02*
X83129381Y-51801235D01*
X83129381Y-51515521D02*
X82129381Y-51515521D01*
X82272238Y-51610759D01*
X82367476Y-51705997D01*
X82415095Y-51801235D01*
X159639667Y-59777381D02*
X159639667Y-60491667D01*
X159592047Y-60634524D01*
X159496809Y-60729762D01*
X159353952Y-60777381D01*
X159258714Y-60777381D01*
X160639667Y-60777381D02*
X160068238Y-60777381D01*
X160353952Y-60777381D02*
X160353952Y-59777381D01*
X160258714Y-59920238D01*
X160163476Y-60015476D01*
X160068238Y-60063095D01*
X127602667Y-59775381D02*
X127602667Y-60489667D01*
X127555047Y-60632524D01*
X127459809Y-60727762D01*
X127316952Y-60775381D01*
X127221714Y-60775381D01*
X128031238Y-59870619D02*
X128078857Y-59823000D01*
X128174095Y-59775381D01*
X128412191Y-59775381D01*
X128507429Y-59823000D01*
X128555048Y-59870619D01*
X128602667Y-59965857D01*
X128602667Y-60061095D01*
X128555048Y-60203952D01*
X127983619Y-60775381D01*
X128602667Y-60775381D01*
X123531334Y-87479143D02*
X123483715Y-87526762D01*
X123340858Y-87574381D01*
X123245620Y-87574381D01*
X123102762Y-87526762D01*
X123007524Y-87431524D01*
X122959905Y-87336286D01*
X122912286Y-87145810D01*
X122912286Y-87002952D01*
X122959905Y-86812476D01*
X123007524Y-86717238D01*
X123102762Y-86622000D01*
X123245620Y-86574381D01*
X123340858Y-86574381D01*
X123483715Y-86622000D01*
X123531334Y-86669619D01*
X123864667Y-86574381D02*
X124483715Y-86574381D01*
X124150381Y-86955333D01*
X124293239Y-86955333D01*
X124388477Y-87002952D01*
X124436096Y-87050571D01*
X124483715Y-87145810D01*
X124483715Y-87383905D01*
X124436096Y-87479143D01*
X124388477Y-87526762D01*
X124293239Y-87574381D01*
X124007524Y-87574381D01*
X123912286Y-87526762D01*
X123864667Y-87479143D01*
X108291334Y-87479143D02*
X108243715Y-87526762D01*
X108100858Y-87574381D01*
X108005620Y-87574381D01*
X107862762Y-87526762D01*
X107767524Y-87431524D01*
X107719905Y-87336286D01*
X107672286Y-87145810D01*
X107672286Y-87002952D01*
X107719905Y-86812476D01*
X107767524Y-86717238D01*
X107862762Y-86622000D01*
X108005620Y-86574381D01*
X108100858Y-86574381D01*
X108243715Y-86622000D01*
X108291334Y-86669619D01*
X109148477Y-86907714D02*
X109148477Y-87574381D01*
X108910381Y-86526762D02*
X108672286Y-87241048D01*
X109291334Y-87241048D01*
X94575334Y-85193143D02*
X94527715Y-85240762D01*
X94384858Y-85288381D01*
X94289620Y-85288381D01*
X94146762Y-85240762D01*
X94051524Y-85145524D01*
X94003905Y-85050286D01*
X93956286Y-84859810D01*
X93956286Y-84716952D01*
X94003905Y-84526476D01*
X94051524Y-84431238D01*
X94146762Y-84336000D01*
X94289620Y-84288381D01*
X94384858Y-84288381D01*
X94527715Y-84336000D01*
X94575334Y-84383619D01*
X95480096Y-84288381D02*
X95003905Y-84288381D01*
X94956286Y-84764571D01*
X95003905Y-84716952D01*
X95099143Y-84669333D01*
X95337239Y-84669333D01*
X95432477Y-84716952D01*
X95480096Y-84764571D01*
X95527715Y-84859810D01*
X95527715Y-85097905D01*
X95480096Y-85193143D01*
X95432477Y-85240762D01*
X95337239Y-85288381D01*
X95099143Y-85288381D01*
X95003905Y-85240762D01*
X94956286Y-85193143D01*
X148748762Y-95289619D02*
X148653524Y-95242000D01*
X148558286Y-95146762D01*
X148415429Y-95003905D01*
X148320190Y-94956286D01*
X148224952Y-94956286D01*
X148272571Y-95194381D02*
X148177333Y-95146762D01*
X148082095Y-95051524D01*
X148034476Y-94861048D01*
X148034476Y-94527714D01*
X148082095Y-94337238D01*
X148177333Y-94242000D01*
X148272571Y-94194381D01*
X148463048Y-94194381D01*
X148558286Y-94242000D01*
X148653524Y-94337238D01*
X148701143Y-94527714D01*
X148701143Y-94861048D01*
X148653524Y-95051524D01*
X148558286Y-95146762D01*
X148463048Y-95194381D01*
X148272571Y-95194381D01*
X149605905Y-94194381D02*
X149129714Y-94194381D01*
X149082095Y-94670571D01*
X149129714Y-94622952D01*
X149224952Y-94575333D01*
X149463048Y-94575333D01*
X149558286Y-94622952D01*
X149605905Y-94670571D01*
X149653524Y-94765810D01*
X149653524Y-95003905D01*
X149605905Y-95099143D01*
X149558286Y-95146762D01*
X149463048Y-95194381D01*
X149224952Y-95194381D01*
X149129714Y-95146762D01*
X149082095Y-95099143D01*
X118268762Y-95289619D02*
X118173524Y-95242000D01*
X118078286Y-95146762D01*
X117935429Y-95003905D01*
X117840190Y-94956286D01*
X117744952Y-94956286D01*
X117792571Y-95194381D02*
X117697333Y-95146762D01*
X117602095Y-95051524D01*
X117554476Y-94861048D01*
X117554476Y-94527714D01*
X117602095Y-94337238D01*
X117697333Y-94242000D01*
X117792571Y-94194381D01*
X117983048Y-94194381D01*
X118078286Y-94242000D01*
X118173524Y-94337238D01*
X118221143Y-94527714D01*
X118221143Y-94861048D01*
X118173524Y-95051524D01*
X118078286Y-95146762D01*
X117983048Y-95194381D01*
X117792571Y-95194381D01*
X119078286Y-94194381D02*
X118887809Y-94194381D01*
X118792571Y-94242000D01*
X118744952Y-94289619D01*
X118649714Y-94432476D01*
X118602095Y-94622952D01*
X118602095Y-95003905D01*
X118649714Y-95099143D01*
X118697333Y-95146762D01*
X118792571Y-95194381D01*
X118983048Y-95194381D01*
X119078286Y-95146762D01*
X119125905Y-95099143D01*
X119173524Y-95003905D01*
X119173524Y-94765810D01*
X119125905Y-94670571D01*
X119078286Y-94622952D01*
X118983048Y-94575333D01*
X118792571Y-94575333D01*
X118697333Y-94622952D01*
X118649714Y-94670571D01*
X118602095Y-94765810D01*
X103028762Y-95289619D02*
X102933524Y-95242000D01*
X102838286Y-95146762D01*
X102695429Y-95003905D01*
X102600190Y-94956286D01*
X102504952Y-94956286D01*
X102552571Y-95194381D02*
X102457333Y-95146762D01*
X102362095Y-95051524D01*
X102314476Y-94861048D01*
X102314476Y-94527714D01*
X102362095Y-94337238D01*
X102457333Y-94242000D01*
X102552571Y-94194381D01*
X102743048Y-94194381D01*
X102838286Y-94242000D01*
X102933524Y-94337238D01*
X102981143Y-94527714D01*
X102981143Y-94861048D01*
X102933524Y-95051524D01*
X102838286Y-95146762D01*
X102743048Y-95194381D01*
X102552571Y-95194381D01*
X103314476Y-94194381D02*
X103981143Y-94194381D01*
X103552571Y-95194381D01*
X87788762Y-95289619D02*
X87693524Y-95242000D01*
X87598286Y-95146762D01*
X87455429Y-95003905D01*
X87360190Y-94956286D01*
X87264952Y-94956286D01*
X87312571Y-95194381D02*
X87217333Y-95146762D01*
X87122095Y-95051524D01*
X87074476Y-94861048D01*
X87074476Y-94527714D01*
X87122095Y-94337238D01*
X87217333Y-94242000D01*
X87312571Y-94194381D01*
X87503048Y-94194381D01*
X87598286Y-94242000D01*
X87693524Y-94337238D01*
X87741143Y-94527714D01*
X87741143Y-94861048D01*
X87693524Y-95051524D01*
X87598286Y-95146762D01*
X87503048Y-95194381D01*
X87312571Y-95194381D01*
X88312571Y-94622952D02*
X88217333Y-94575333D01*
X88169714Y-94527714D01*
X88122095Y-94432476D01*
X88122095Y-94384857D01*
X88169714Y-94289619D01*
X88217333Y-94242000D01*
X88312571Y-94194381D01*
X88503048Y-94194381D01*
X88598286Y-94242000D01*
X88645905Y-94289619D01*
X88693524Y-94384857D01*
X88693524Y-94432476D01*
X88645905Y-94527714D01*
X88598286Y-94575333D01*
X88503048Y-94622952D01*
X88312571Y-94622952D01*
X88217333Y-94670571D01*
X88169714Y-94718190D01*
X88122095Y-94813429D01*
X88122095Y-95003905D01*
X88169714Y-95099143D01*
X88217333Y-95146762D01*
X88312571Y-95194381D01*
X88503048Y-95194381D01*
X88598286Y-95146762D01*
X88645905Y-95099143D01*
X88693524Y-95003905D01*
X88693524Y-94813429D01*
X88645905Y-94718190D01*
X88598286Y-94670571D01*
X88503048Y-94622952D01*
X139279334Y-87225143D02*
X139231715Y-87272762D01*
X139088858Y-87320381D01*
X138993620Y-87320381D01*
X138850762Y-87272762D01*
X138755524Y-87177524D01*
X138707905Y-87082286D01*
X138660286Y-86891810D01*
X138660286Y-86748952D01*
X138707905Y-86558476D01*
X138755524Y-86463238D01*
X138850762Y-86368000D01*
X138993620Y-86320381D01*
X139088858Y-86320381D01*
X139231715Y-86368000D01*
X139279334Y-86415619D01*
X140136477Y-86320381D02*
X139946000Y-86320381D01*
X139850762Y-86368000D01*
X139803143Y-86415619D01*
X139707905Y-86558476D01*
X139660286Y-86748952D01*
X139660286Y-87129905D01*
X139707905Y-87225143D01*
X139755524Y-87272762D01*
X139850762Y-87320381D01*
X140041239Y-87320381D01*
X140136477Y-87272762D01*
X140184096Y-87225143D01*
X140231715Y-87129905D01*
X140231715Y-86891810D01*
X140184096Y-86796571D01*
X140136477Y-86748952D01*
X140041239Y-86701333D01*
X139850762Y-86701333D01*
X139755524Y-86748952D01*
X139707905Y-86796571D01*
X139660286Y-86891810D01*
X133508762Y-95289619D02*
X133413524Y-95242000D01*
X133318286Y-95146762D01*
X133175429Y-95003905D01*
X133080190Y-94956286D01*
X132984952Y-94956286D01*
X133032571Y-95194381D02*
X132937333Y-95146762D01*
X132842095Y-95051524D01*
X132794476Y-94861048D01*
X132794476Y-94527714D01*
X132842095Y-94337238D01*
X132937333Y-94242000D01*
X133032571Y-94194381D01*
X133223048Y-94194381D01*
X133318286Y-94242000D01*
X133413524Y-94337238D01*
X133461143Y-94527714D01*
X133461143Y-94861048D01*
X133413524Y-95051524D01*
X133318286Y-95146762D01*
X133223048Y-95194381D01*
X133032571Y-95194381D01*
X133937333Y-95194381D02*
X134127809Y-95194381D01*
X134223048Y-95146762D01*
X134270667Y-95099143D01*
X134365905Y-94956286D01*
X134413524Y-94765810D01*
X134413524Y-94384857D01*
X134365905Y-94289619D01*
X134318286Y-94242000D01*
X134223048Y-94194381D01*
X134032571Y-94194381D01*
X133937333Y-94242000D01*
X133889714Y-94289619D01*
X133842095Y-94384857D01*
X133842095Y-94622952D01*
X133889714Y-94718190D01*
X133937333Y-94765810D01*
X134032571Y-94813429D01*
X134223048Y-94813429D01*
X134318286Y-94765810D01*
X134365905Y-94718190D01*
X134413524Y-94622952D01*
X74699905Y-62428381D02*
X74699905Y-61428381D01*
X74938000Y-61428381D01*
X75080858Y-61476000D01*
X75176096Y-61571238D01*
X75223715Y-61666476D01*
X75271334Y-61856952D01*
X75271334Y-61999810D01*
X75223715Y-62190286D01*
X75176096Y-62285524D01*
X75080858Y-62380762D01*
X74938000Y-62428381D01*
X74699905Y-62428381D01*
X75747524Y-62428381D02*
X75938000Y-62428381D01*
X76033239Y-62380762D01*
X76080858Y-62333143D01*
X76176096Y-62190286D01*
X76223715Y-61999810D01*
X76223715Y-61618857D01*
X76176096Y-61523619D01*
X76128477Y-61476000D01*
X76033239Y-61428381D01*
X75842762Y-61428381D01*
X75747524Y-61476000D01*
X75699905Y-61523619D01*
X75652286Y-61618857D01*
X75652286Y-61856952D01*
X75699905Y-61952190D01*
X75747524Y-61999810D01*
X75842762Y-62047429D01*
X76033239Y-62047429D01*
X76128477Y-61999810D01*
X76176096Y-61952190D01*
X76223715Y-61856952D01*
X74731714Y-63698381D02*
X74731714Y-62698381D01*
X74969809Y-62698381D01*
X75112667Y-62746000D01*
X75207905Y-62841238D01*
X75255524Y-62936476D01*
X75303143Y-63126952D01*
X75303143Y-63269810D01*
X75255524Y-63460286D01*
X75207905Y-63555524D01*
X75112667Y-63650762D01*
X74969809Y-63698381D01*
X74731714Y-63698381D01*
X76255524Y-63698381D02*
X75684095Y-63698381D01*
X75969809Y-63698381D02*
X75969809Y-62698381D01*
X75874571Y-62841238D01*
X75779333Y-62936476D01*
X75684095Y-62984095D01*
X77207905Y-63698381D02*
X76636476Y-63698381D01*
X76922190Y-63698381D02*
X76922190Y-62698381D01*
X76826952Y-62841238D01*
X76731714Y-62936476D01*
X76636476Y-62984095D01*
X74731714Y-64968381D02*
X74731714Y-63968381D01*
X74969809Y-63968381D01*
X75112667Y-64016000D01*
X75207905Y-64111238D01*
X75255524Y-64206476D01*
X75303143Y-64396952D01*
X75303143Y-64539810D01*
X75255524Y-64730286D01*
X75207905Y-64825524D01*
X75112667Y-64920762D01*
X74969809Y-64968381D01*
X74731714Y-64968381D01*
X76255524Y-64968381D02*
X75684095Y-64968381D01*
X75969809Y-64968381D02*
X75969809Y-63968381D01*
X75874571Y-64111238D01*
X75779333Y-64206476D01*
X75684095Y-64254095D01*
X76588857Y-63968381D02*
X77207905Y-63968381D01*
X76874571Y-64349333D01*
X77017429Y-64349333D01*
X77112667Y-64396952D01*
X77160286Y-64444571D01*
X77207905Y-64539810D01*
X77207905Y-64777905D01*
X77160286Y-64873143D01*
X77112667Y-64920762D01*
X77017429Y-64968381D01*
X76731714Y-64968381D01*
X76636476Y-64920762D01*
X76588857Y-64873143D01*
X160218381Y-99512286D02*
X159218381Y-99512286D01*
X159218381Y-99274191D01*
X159266000Y-99131333D01*
X159361238Y-99036095D01*
X159456476Y-98988476D01*
X159646952Y-98940857D01*
X159789810Y-98940857D01*
X159980286Y-98988476D01*
X160075524Y-99036095D01*
X160170762Y-99131333D01*
X160218381Y-99274191D01*
X160218381Y-99512286D01*
X160218381Y-97988476D02*
X160218381Y-98559905D01*
X160218381Y-98274191D02*
X159218381Y-98274191D01*
X159361238Y-98369429D01*
X159456476Y-98464667D01*
X159504095Y-98559905D01*
X159218381Y-97655143D02*
X159218381Y-96988476D01*
X160218381Y-97417048D01*
X129738381Y-99258286D02*
X128738381Y-99258286D01*
X128738381Y-99020191D01*
X128786000Y-98877333D01*
X128881238Y-98782095D01*
X128976476Y-98734476D01*
X129166952Y-98686857D01*
X129309810Y-98686857D01*
X129500286Y-98734476D01*
X129595524Y-98782095D01*
X129690762Y-98877333D01*
X129738381Y-99020191D01*
X129738381Y-99258286D01*
X129738381Y-97734476D02*
X129738381Y-98305905D01*
X129738381Y-98020191D02*
X128738381Y-98020191D01*
X128881238Y-98115429D01*
X128976476Y-98210667D01*
X129024095Y-98305905D01*
X129166952Y-97163048D02*
X129119333Y-97258286D01*
X129071714Y-97305905D01*
X128976476Y-97353524D01*
X128928857Y-97353524D01*
X128833619Y-97305905D01*
X128786000Y-97258286D01*
X128738381Y-97163048D01*
X128738381Y-96972571D01*
X128786000Y-96877333D01*
X128833619Y-96829714D01*
X128928857Y-96782095D01*
X128976476Y-96782095D01*
X129071714Y-96829714D01*
X129119333Y-96877333D01*
X129166952Y-96972571D01*
X129166952Y-97163048D01*
X129214571Y-97258286D01*
X129262190Y-97305905D01*
X129357429Y-97353524D01*
X129547905Y-97353524D01*
X129643143Y-97305905D01*
X129690762Y-97258286D01*
X129738381Y-97163048D01*
X129738381Y-96972571D01*
X129690762Y-96877333D01*
X129643143Y-96829714D01*
X129547905Y-96782095D01*
X129357429Y-96782095D01*
X129262190Y-96829714D01*
X129214571Y-96877333D01*
X129166952Y-96972571D01*
X114498381Y-99258286D02*
X113498381Y-99258286D01*
X113498381Y-99020191D01*
X113546000Y-98877333D01*
X113641238Y-98782095D01*
X113736476Y-98734476D01*
X113926952Y-98686857D01*
X114069810Y-98686857D01*
X114260286Y-98734476D01*
X114355524Y-98782095D01*
X114450762Y-98877333D01*
X114498381Y-99020191D01*
X114498381Y-99258286D01*
X114498381Y-97734476D02*
X114498381Y-98305905D01*
X114498381Y-98020191D02*
X113498381Y-98020191D01*
X113641238Y-98115429D01*
X113736476Y-98210667D01*
X113784095Y-98305905D01*
X114498381Y-97258286D02*
X114498381Y-97067810D01*
X114450762Y-96972571D01*
X114403143Y-96924952D01*
X114260286Y-96829714D01*
X114069810Y-96782095D01*
X113688857Y-96782095D01*
X113593619Y-96829714D01*
X113546000Y-96877333D01*
X113498381Y-96972571D01*
X113498381Y-97163048D01*
X113546000Y-97258286D01*
X113593619Y-97305905D01*
X113688857Y-97353524D01*
X113926952Y-97353524D01*
X114022190Y-97305905D01*
X114069810Y-97258286D01*
X114117429Y-97163048D01*
X114117429Y-96972571D01*
X114069810Y-96877333D01*
X114022190Y-96829714D01*
X113926952Y-96782095D01*
X99258381Y-99512286D02*
X98258381Y-99512286D01*
X98258381Y-99274191D01*
X98306000Y-99131333D01*
X98401238Y-99036095D01*
X98496476Y-98988476D01*
X98686952Y-98940857D01*
X98829810Y-98940857D01*
X99020286Y-98988476D01*
X99115524Y-99036095D01*
X99210762Y-99131333D01*
X99258381Y-99274191D01*
X99258381Y-99512286D01*
X98353619Y-98559905D02*
X98306000Y-98512286D01*
X98258381Y-98417048D01*
X98258381Y-98178952D01*
X98306000Y-98083714D01*
X98353619Y-98036095D01*
X98448857Y-97988476D01*
X98544095Y-97988476D01*
X98686952Y-98036095D01*
X99258381Y-98607524D01*
X99258381Y-97988476D01*
X98258381Y-97369429D02*
X98258381Y-97274190D01*
X98306000Y-97178952D01*
X98353619Y-97131333D01*
X98448857Y-97083714D01*
X98639333Y-97036095D01*
X98877429Y-97036095D01*
X99067905Y-97083714D01*
X99163143Y-97131333D01*
X99210762Y-97178952D01*
X99258381Y-97274190D01*
X99258381Y-97369429D01*
X99210762Y-97464667D01*
X99163143Y-97512286D01*
X99067905Y-97559905D01*
X98877429Y-97607524D01*
X98639333Y-97607524D01*
X98448857Y-97559905D01*
X98353619Y-97512286D01*
X98306000Y-97464667D01*
X98258381Y-97369429D01*
X144978381Y-99258286D02*
X143978381Y-99258286D01*
X143978381Y-99020191D01*
X144026000Y-98877333D01*
X144121238Y-98782095D01*
X144216476Y-98734476D01*
X144406952Y-98686857D01*
X144549810Y-98686857D01*
X144740286Y-98734476D01*
X144835524Y-98782095D01*
X144930762Y-98877333D01*
X144978381Y-99020191D01*
X144978381Y-99258286D01*
X144073619Y-98305905D02*
X144026000Y-98258286D01*
X143978381Y-98163048D01*
X143978381Y-97924952D01*
X144026000Y-97829714D01*
X144073619Y-97782095D01*
X144168857Y-97734476D01*
X144264095Y-97734476D01*
X144406952Y-97782095D01*
X144978381Y-98353524D01*
X144978381Y-97734476D01*
X144978381Y-96782095D02*
X144978381Y-97353524D01*
X144978381Y-97067810D02*
X143978381Y-97067810D01*
X144121238Y-97163048D01*
X144216476Y-97258286D01*
X144264095Y-97353524D01*
X72255143Y-62428381D02*
X71921809Y-61952190D01*
X71683714Y-62428381D02*
X71683714Y-61428381D01*
X72064667Y-61428381D01*
X72159905Y-61476000D01*
X72207524Y-61523619D01*
X72255143Y-61618857D01*
X72255143Y-61761714D01*
X72207524Y-61856952D01*
X72159905Y-61904571D01*
X72064667Y-61952190D01*
X71683714Y-61952190D01*
X72636095Y-61523619D02*
X72683714Y-61476000D01*
X72778952Y-61428381D01*
X73017048Y-61428381D01*
X73112286Y-61476000D01*
X73159905Y-61523619D01*
X73207524Y-61618857D01*
X73207524Y-61714095D01*
X73159905Y-61856952D01*
X72588476Y-62428381D01*
X73207524Y-62428381D01*
X73540857Y-61428381D02*
X74207524Y-61428381D01*
X73778952Y-62428381D01*
X72255143Y-63698381D02*
X71921809Y-63222190D01*
X71683714Y-63698381D02*
X71683714Y-62698381D01*
X72064667Y-62698381D01*
X72159905Y-62746000D01*
X72207524Y-62793619D01*
X72255143Y-62888857D01*
X72255143Y-63031714D01*
X72207524Y-63126952D01*
X72159905Y-63174571D01*
X72064667Y-63222190D01*
X71683714Y-63222190D01*
X72636095Y-62793619D02*
X72683714Y-62746000D01*
X72778952Y-62698381D01*
X73017048Y-62698381D01*
X73112286Y-62746000D01*
X73159905Y-62793619D01*
X73207524Y-62888857D01*
X73207524Y-62984095D01*
X73159905Y-63126952D01*
X72588476Y-63698381D01*
X73207524Y-63698381D01*
X73683714Y-63698381D02*
X73874190Y-63698381D01*
X73969429Y-63650762D01*
X74017048Y-63603143D01*
X74112286Y-63460286D01*
X74159905Y-63269810D01*
X74159905Y-62888857D01*
X74112286Y-62793619D01*
X74064667Y-62746000D01*
X73969429Y-62698381D01*
X73778952Y-62698381D01*
X73683714Y-62746000D01*
X73636095Y-62793619D01*
X73588476Y-62888857D01*
X73588476Y-63126952D01*
X73636095Y-63222190D01*
X73683714Y-63269810D01*
X73778952Y-63317429D01*
X73969429Y-63317429D01*
X74064667Y-63269810D01*
X74112286Y-63222190D01*
X74159905Y-63126952D01*
X72255143Y-64968381D02*
X71921809Y-64492190D01*
X71683714Y-64968381D02*
X71683714Y-63968381D01*
X72064667Y-63968381D01*
X72159905Y-64016000D01*
X72207524Y-64063619D01*
X72255143Y-64158857D01*
X72255143Y-64301714D01*
X72207524Y-64396952D01*
X72159905Y-64444571D01*
X72064667Y-64492190D01*
X71683714Y-64492190D01*
X72588476Y-63968381D02*
X73207524Y-63968381D01*
X72874190Y-64349333D01*
X73017048Y-64349333D01*
X73112286Y-64396952D01*
X73159905Y-64444571D01*
X73207524Y-64539810D01*
X73207524Y-64777905D01*
X73159905Y-64873143D01*
X73112286Y-64920762D01*
X73017048Y-64968381D01*
X72731333Y-64968381D01*
X72636095Y-64920762D01*
X72588476Y-64873143D01*
X74159905Y-64968381D02*
X73588476Y-64968381D01*
X73874190Y-64968381D02*
X73874190Y-63968381D01*
X73778952Y-64111238D01*
X73683714Y-64206476D01*
X73588476Y-64254095D01*
X162250381Y-99702857D02*
X161774190Y-100036191D01*
X162250381Y-100274286D02*
X161250381Y-100274286D01*
X161250381Y-99893333D01*
X161298000Y-99798095D01*
X161345619Y-99750476D01*
X161440857Y-99702857D01*
X161583714Y-99702857D01*
X161678952Y-99750476D01*
X161726571Y-99798095D01*
X161774190Y-99893333D01*
X161774190Y-100274286D01*
X161250381Y-99369524D02*
X161250381Y-98750476D01*
X161631333Y-99083810D01*
X161631333Y-98940952D01*
X161678952Y-98845714D01*
X161726571Y-98798095D01*
X161821810Y-98750476D01*
X162059905Y-98750476D01*
X162155143Y-98798095D01*
X162202762Y-98845714D01*
X162250381Y-98940952D01*
X162250381Y-99226667D01*
X162202762Y-99321905D01*
X162155143Y-99369524D01*
X161250381Y-97845714D02*
X161250381Y-98321905D01*
X161726571Y-98369524D01*
X161678952Y-98321905D01*
X161631333Y-98226667D01*
X161631333Y-97988571D01*
X161678952Y-97893333D01*
X161726571Y-97845714D01*
X161821810Y-97798095D01*
X162059905Y-97798095D01*
X162155143Y-97845714D01*
X162202762Y-97893333D01*
X162250381Y-97988571D01*
X162250381Y-98226667D01*
X162202762Y-98321905D01*
X162155143Y-98369524D01*
X131770381Y-99702857D02*
X131294190Y-100036191D01*
X131770381Y-100274286D02*
X130770381Y-100274286D01*
X130770381Y-99893333D01*
X130818000Y-99798095D01*
X130865619Y-99750476D01*
X130960857Y-99702857D01*
X131103714Y-99702857D01*
X131198952Y-99750476D01*
X131246571Y-99798095D01*
X131294190Y-99893333D01*
X131294190Y-100274286D01*
X130770381Y-99369524D02*
X130770381Y-98750476D01*
X131151333Y-99083810D01*
X131151333Y-98940952D01*
X131198952Y-98845714D01*
X131246571Y-98798095D01*
X131341810Y-98750476D01*
X131579905Y-98750476D01*
X131675143Y-98798095D01*
X131722762Y-98845714D01*
X131770381Y-98940952D01*
X131770381Y-99226667D01*
X131722762Y-99321905D01*
X131675143Y-99369524D01*
X130770381Y-97893333D02*
X130770381Y-98083810D01*
X130818000Y-98179048D01*
X130865619Y-98226667D01*
X131008476Y-98321905D01*
X131198952Y-98369524D01*
X131579905Y-98369524D01*
X131675143Y-98321905D01*
X131722762Y-98274286D01*
X131770381Y-98179048D01*
X131770381Y-97988571D01*
X131722762Y-97893333D01*
X131675143Y-97845714D01*
X131579905Y-97798095D01*
X131341810Y-97798095D01*
X131246571Y-97845714D01*
X131198952Y-97893333D01*
X131151333Y-97988571D01*
X131151333Y-98179048D01*
X131198952Y-98274286D01*
X131246571Y-98321905D01*
X131341810Y-98369524D01*
X116784381Y-99702857D02*
X116308190Y-100036191D01*
X116784381Y-100274286D02*
X115784381Y-100274286D01*
X115784381Y-99893333D01*
X115832000Y-99798095D01*
X115879619Y-99750476D01*
X115974857Y-99702857D01*
X116117714Y-99702857D01*
X116212952Y-99750476D01*
X116260571Y-99798095D01*
X116308190Y-99893333D01*
X116308190Y-100274286D01*
X115784381Y-99369524D02*
X115784381Y-98750476D01*
X116165333Y-99083810D01*
X116165333Y-98940952D01*
X116212952Y-98845714D01*
X116260571Y-98798095D01*
X116355810Y-98750476D01*
X116593905Y-98750476D01*
X116689143Y-98798095D01*
X116736762Y-98845714D01*
X116784381Y-98940952D01*
X116784381Y-99226667D01*
X116736762Y-99321905D01*
X116689143Y-99369524D01*
X115784381Y-98417143D02*
X115784381Y-97750476D01*
X116784381Y-98179048D01*
X101290381Y-99702857D02*
X100814190Y-100036191D01*
X101290381Y-100274286D02*
X100290381Y-100274286D01*
X100290381Y-99893333D01*
X100338000Y-99798095D01*
X100385619Y-99750476D01*
X100480857Y-99702857D01*
X100623714Y-99702857D01*
X100718952Y-99750476D01*
X100766571Y-99798095D01*
X100814190Y-99893333D01*
X100814190Y-100274286D01*
X100290381Y-99369524D02*
X100290381Y-98750476D01*
X100671333Y-99083810D01*
X100671333Y-98940952D01*
X100718952Y-98845714D01*
X100766571Y-98798095D01*
X100861810Y-98750476D01*
X101099905Y-98750476D01*
X101195143Y-98798095D01*
X101242762Y-98845714D01*
X101290381Y-98940952D01*
X101290381Y-99226667D01*
X101242762Y-99321905D01*
X101195143Y-99369524D01*
X100718952Y-98179048D02*
X100671333Y-98274286D01*
X100623714Y-98321905D01*
X100528476Y-98369524D01*
X100480857Y-98369524D01*
X100385619Y-98321905D01*
X100338000Y-98274286D01*
X100290381Y-98179048D01*
X100290381Y-97988571D01*
X100338000Y-97893333D01*
X100385619Y-97845714D01*
X100480857Y-97798095D01*
X100528476Y-97798095D01*
X100623714Y-97845714D01*
X100671333Y-97893333D01*
X100718952Y-97988571D01*
X100718952Y-98179048D01*
X100766571Y-98274286D01*
X100814190Y-98321905D01*
X100909429Y-98369524D01*
X101099905Y-98369524D01*
X101195143Y-98321905D01*
X101242762Y-98274286D01*
X101290381Y-98179048D01*
X101290381Y-97988571D01*
X101242762Y-97893333D01*
X101195143Y-97845714D01*
X101099905Y-97798095D01*
X100909429Y-97798095D01*
X100814190Y-97845714D01*
X100766571Y-97893333D01*
X100718952Y-97988571D01*
X147010381Y-99702857D02*
X146534190Y-100036191D01*
X147010381Y-100274286D02*
X146010381Y-100274286D01*
X146010381Y-99893333D01*
X146058000Y-99798095D01*
X146105619Y-99750476D01*
X146200857Y-99702857D01*
X146343714Y-99702857D01*
X146438952Y-99750476D01*
X146486571Y-99798095D01*
X146534190Y-99893333D01*
X146534190Y-100274286D01*
X146010381Y-99369524D02*
X146010381Y-98750476D01*
X146391333Y-99083810D01*
X146391333Y-98940952D01*
X146438952Y-98845714D01*
X146486571Y-98798095D01*
X146581810Y-98750476D01*
X146819905Y-98750476D01*
X146915143Y-98798095D01*
X146962762Y-98845714D01*
X147010381Y-98940952D01*
X147010381Y-99226667D01*
X146962762Y-99321905D01*
X146915143Y-99369524D01*
X147010381Y-98274286D02*
X147010381Y-98083810D01*
X146962762Y-97988571D01*
X146915143Y-97940952D01*
X146772286Y-97845714D01*
X146581810Y-97798095D01*
X146200857Y-97798095D01*
X146105619Y-97845714D01*
X146058000Y-97893333D01*
X146010381Y-97988571D01*
X146010381Y-98179048D01*
X146058000Y-98274286D01*
X146105619Y-98321905D01*
X146200857Y-98369524D01*
X146438952Y-98369524D01*
X146534190Y-98321905D01*
X146581810Y-98274286D01*
X146629429Y-98179048D01*
X146629429Y-97988571D01*
X146581810Y-97893333D01*
X146534190Y-97845714D01*
X146438952Y-97798095D01*
X82550095Y-74382381D02*
X82550095Y-75191905D01*
X82597714Y-75287143D01*
X82645333Y-75334762D01*
X82740571Y-75382381D01*
X82931048Y-75382381D01*
X83026286Y-75334762D01*
X83073905Y-75287143D01*
X83121524Y-75191905D01*
X83121524Y-74382381D01*
X83502476Y-74382381D02*
X84121524Y-74382381D01*
X83788190Y-74763333D01*
X83931048Y-74763333D01*
X84026286Y-74810952D01*
X84073905Y-74858571D01*
X84121524Y-74953810D01*
X84121524Y-75191905D01*
X84073905Y-75287143D01*
X84026286Y-75334762D01*
X83931048Y-75382381D01*
X83645333Y-75382381D01*
X83550095Y-75334762D01*
X83502476Y-75287143D01*
X56673809Y-106402190D02*
X56673809Y-106878381D01*
X56340476Y-105878381D02*
X56673809Y-106402190D01*
X57007143Y-105878381D01*
X57864286Y-106878381D02*
X57292857Y-106878381D01*
X57578571Y-106878381D02*
X57578571Y-105878381D01*
X57483333Y-106021238D01*
X57388095Y-106116476D01*
X57292857Y-106164095D01*
X55014953Y-68270381D02*
X54538762Y-68270381D01*
X54538762Y-67270381D01*
X55348286Y-67746571D02*
X55681620Y-67746571D01*
X55824477Y-68270381D02*
X55348286Y-68270381D01*
X55348286Y-67270381D01*
X55824477Y-67270381D01*
X56253048Y-68270381D02*
X56253048Y-67270381D01*
X56491143Y-67270381D01*
X56634001Y-67318000D01*
X56729239Y-67413238D01*
X56776858Y-67508476D01*
X56824477Y-67698952D01*
X56824477Y-67841810D01*
X56776858Y-68032286D01*
X56729239Y-68127524D01*
X56634001Y-68222762D01*
X56491143Y-68270381D01*
X56253048Y-68270381D01*
X57776858Y-68270381D02*
X57205429Y-68270381D01*
X57491143Y-68270381D02*
X57491143Y-67270381D01*
X57395905Y-67413238D01*
X57300667Y-67508476D01*
X57205429Y-67556095D01*
X54951334Y-115850943D02*
X54903715Y-115898562D01*
X54760858Y-115946181D01*
X54665620Y-115946181D01*
X54522762Y-115898562D01*
X54427524Y-115803324D01*
X54379905Y-115708086D01*
X54332286Y-115517610D01*
X54332286Y-115374752D01*
X54379905Y-115184276D01*
X54427524Y-115089038D01*
X54522762Y-114993800D01*
X54665620Y-114946181D01*
X54760858Y-114946181D01*
X54903715Y-114993800D01*
X54951334Y-115041419D01*
X55284667Y-114946181D02*
X55951334Y-114946181D01*
X55522762Y-115946181D01*
X52984495Y-105802181D02*
X52984495Y-106611705D01*
X53032114Y-106706943D01*
X53079733Y-106754562D01*
X53174971Y-106802181D01*
X53365448Y-106802181D01*
X53460686Y-106754562D01*
X53508305Y-106706943D01*
X53555924Y-106611705D01*
X53555924Y-105802181D01*
X53984495Y-105897419D02*
X54032114Y-105849800D01*
X54127352Y-105802181D01*
X54365448Y-105802181D01*
X54460686Y-105849800D01*
X54508305Y-105897419D01*
X54555924Y-105992657D01*
X54555924Y-106087895D01*
X54508305Y-106230752D01*
X53936876Y-106802181D01*
X54555924Y-106802181D01*
X24995143Y-78652666D02*
X25042762Y-78700285D01*
X25090381Y-78843142D01*
X25090381Y-78938380D01*
X25042762Y-79081238D01*
X24947524Y-79176476D01*
X24852286Y-79224095D01*
X24661810Y-79271714D01*
X24518952Y-79271714D01*
X24328476Y-79224095D01*
X24233238Y-79176476D01*
X24138000Y-79081238D01*
X24090381Y-78938380D01*
X24090381Y-78843142D01*
X24138000Y-78700285D01*
X24185619Y-78652666D01*
X24185619Y-78271714D02*
X24138000Y-78224095D01*
X24090381Y-78128857D01*
X24090381Y-77890761D01*
X24138000Y-77795523D01*
X24185619Y-77747904D01*
X24280857Y-77700285D01*
X24376095Y-77700285D01*
X24518952Y-77747904D01*
X25090381Y-78319333D01*
X25090381Y-77700285D01*
X52919334Y-115850943D02*
X52871715Y-115898562D01*
X52728858Y-115946181D01*
X52633620Y-115946181D01*
X52490762Y-115898562D01*
X52395524Y-115803324D01*
X52347905Y-115708086D01*
X52300286Y-115517610D01*
X52300286Y-115374752D01*
X52347905Y-115184276D01*
X52395524Y-115089038D01*
X52490762Y-114993800D01*
X52633620Y-114946181D01*
X52728858Y-114946181D01*
X52871715Y-114993800D01*
X52919334Y-115041419D01*
X53490762Y-115374752D02*
X53395524Y-115327133D01*
X53347905Y-115279514D01*
X53300286Y-115184276D01*
X53300286Y-115136657D01*
X53347905Y-115041419D01*
X53395524Y-114993800D01*
X53490762Y-114946181D01*
X53681239Y-114946181D01*
X53776477Y-114993800D01*
X53824096Y-115041419D01*
X53871715Y-115136657D01*
X53871715Y-115184276D01*
X53824096Y-115279514D01*
X53776477Y-115327133D01*
X53681239Y-115374752D01*
X53490762Y-115374752D01*
X53395524Y-115422371D01*
X53347905Y-115469990D01*
X53300286Y-115565229D01*
X53300286Y-115755705D01*
X53347905Y-115850943D01*
X53395524Y-115898562D01*
X53490762Y-115946181D01*
X53681239Y-115946181D01*
X53776477Y-115898562D01*
X53824096Y-115850943D01*
X53871715Y-115755705D01*
X53871715Y-115565229D01*
X53824096Y-115469990D01*
X53776477Y-115422371D01*
X53681239Y-115374752D01*
X54951334Y-78589143D02*
X54903715Y-78636762D01*
X54760858Y-78684381D01*
X54665620Y-78684381D01*
X54522762Y-78636762D01*
X54427524Y-78541524D01*
X54379905Y-78446286D01*
X54332286Y-78255810D01*
X54332286Y-78112952D01*
X54379905Y-77922476D01*
X54427524Y-77827238D01*
X54522762Y-77732000D01*
X54665620Y-77684381D01*
X54760858Y-77684381D01*
X54903715Y-77732000D01*
X54951334Y-77779619D01*
X55427524Y-78684381D02*
X55618000Y-78684381D01*
X55713239Y-78636762D01*
X55760858Y-78589143D01*
X55856096Y-78446286D01*
X55903715Y-78255810D01*
X55903715Y-77874857D01*
X55856096Y-77779619D01*
X55808477Y-77732000D01*
X55713239Y-77684381D01*
X55522762Y-77684381D01*
X55427524Y-77732000D01*
X55379905Y-77779619D01*
X55332286Y-77874857D01*
X55332286Y-78112952D01*
X55379905Y-78208190D01*
X55427524Y-78255810D01*
X55522762Y-78303429D01*
X55713239Y-78303429D01*
X55808477Y-78255810D01*
X55856096Y-78208190D01*
X55903715Y-78112952D01*
X96877143Y-78239857D02*
X96924762Y-78287476D01*
X96972381Y-78430333D01*
X96972381Y-78525571D01*
X96924762Y-78668429D01*
X96829524Y-78763667D01*
X96734286Y-78811286D01*
X96543810Y-78858905D01*
X96400952Y-78858905D01*
X96210476Y-78811286D01*
X96115238Y-78763667D01*
X96020000Y-78668429D01*
X95972381Y-78525571D01*
X95972381Y-78430333D01*
X96020000Y-78287476D01*
X96067619Y-78239857D01*
X96972381Y-77287476D02*
X96972381Y-77858905D01*
X96972381Y-77573191D02*
X95972381Y-77573191D01*
X96115238Y-77668429D01*
X96210476Y-77763667D01*
X96258095Y-77858905D01*
X96972381Y-76335095D02*
X96972381Y-76906524D01*
X96972381Y-76620810D02*
X95972381Y-76620810D01*
X96115238Y-76716048D01*
X96210476Y-76811286D01*
X96258095Y-76906524D01*
X43521334Y-110688381D02*
X43188000Y-110212190D01*
X42949905Y-110688381D02*
X42949905Y-109688381D01*
X43330858Y-109688381D01*
X43426096Y-109736000D01*
X43473715Y-109783619D01*
X43521334Y-109878857D01*
X43521334Y-110021714D01*
X43473715Y-110116952D01*
X43426096Y-110164571D01*
X43330858Y-110212190D01*
X42949905Y-110212190D01*
X43854667Y-109688381D02*
X44521334Y-109688381D01*
X44092762Y-110688381D01*
X43521334Y-116276381D02*
X43188000Y-115800190D01*
X42949905Y-116276381D02*
X42949905Y-115276381D01*
X43330858Y-115276381D01*
X43426096Y-115324000D01*
X43473715Y-115371619D01*
X43521334Y-115466857D01*
X43521334Y-115609714D01*
X43473715Y-115704952D01*
X43426096Y-115752571D01*
X43330858Y-115800190D01*
X42949905Y-115800190D01*
X44092762Y-115704952D02*
X43997524Y-115657333D01*
X43949905Y-115609714D01*
X43902286Y-115514476D01*
X43902286Y-115466857D01*
X43949905Y-115371619D01*
X43997524Y-115324000D01*
X44092762Y-115276381D01*
X44283239Y-115276381D01*
X44378477Y-115324000D01*
X44426096Y-115371619D01*
X44473715Y-115466857D01*
X44473715Y-115514476D01*
X44426096Y-115609714D01*
X44378477Y-115657333D01*
X44283239Y-115704952D01*
X44092762Y-115704952D01*
X43997524Y-115752571D01*
X43949905Y-115800190D01*
X43902286Y-115895429D01*
X43902286Y-116085905D01*
X43949905Y-116181143D01*
X43997524Y-116228762D01*
X44092762Y-116276381D01*
X44283239Y-116276381D01*
X44378477Y-116228762D01*
X44426096Y-116181143D01*
X44473715Y-116085905D01*
X44473715Y-115895429D01*
X44426096Y-115800190D01*
X44378477Y-115752571D01*
X44283239Y-115704952D01*
X43521334Y-104338381D02*
X43188000Y-103862190D01*
X42949905Y-104338381D02*
X42949905Y-103338381D01*
X43330858Y-103338381D01*
X43426096Y-103386000D01*
X43473715Y-103433619D01*
X43521334Y-103528857D01*
X43521334Y-103671714D01*
X43473715Y-103766952D01*
X43426096Y-103814571D01*
X43330858Y-103862190D01*
X42949905Y-103862190D01*
X43997524Y-104338381D02*
X44188000Y-104338381D01*
X44283239Y-104290762D01*
X44330858Y-104243143D01*
X44426096Y-104100286D01*
X44473715Y-103909810D01*
X44473715Y-103528857D01*
X44426096Y-103433619D01*
X44378477Y-103386000D01*
X44283239Y-103338381D01*
X44092762Y-103338381D01*
X43997524Y-103386000D01*
X43949905Y-103433619D01*
X43902286Y-103528857D01*
X43902286Y-103766952D01*
X43949905Y-103862190D01*
X43997524Y-103909810D01*
X44092762Y-103957429D01*
X44283239Y-103957429D01*
X44378477Y-103909810D01*
X44426096Y-103862190D01*
X44473715Y-103766952D01*
X43299143Y-97988381D02*
X42965809Y-97512190D01*
X42727714Y-97988381D02*
X42727714Y-96988381D01*
X43108667Y-96988381D01*
X43203905Y-97036000D01*
X43251524Y-97083619D01*
X43299143Y-97178857D01*
X43299143Y-97321714D01*
X43251524Y-97416952D01*
X43203905Y-97464571D01*
X43108667Y-97512190D01*
X42727714Y-97512190D01*
X44251524Y-97988381D02*
X43680095Y-97988381D01*
X43965809Y-97988381D02*
X43965809Y-96988381D01*
X43870571Y-97131238D01*
X43775333Y-97226476D01*
X43680095Y-97274095D01*
X44870571Y-96988381D02*
X44965810Y-96988381D01*
X45061048Y-97036000D01*
X45108667Y-97083619D01*
X45156286Y-97178857D01*
X45203905Y-97369333D01*
X45203905Y-97607429D01*
X45156286Y-97797905D01*
X45108667Y-97893143D01*
X45061048Y-97940762D01*
X44965810Y-97988381D01*
X44870571Y-97988381D01*
X44775333Y-97940762D01*
X44727714Y-97893143D01*
X44680095Y-97797905D01*
X44632476Y-97607429D01*
X44632476Y-97369333D01*
X44680095Y-97178857D01*
X44727714Y-97083619D01*
X44775333Y-97036000D01*
X44870571Y-96988381D01*
X23312381Y-71000857D02*
X22836190Y-71334191D01*
X23312381Y-71572286D02*
X22312381Y-71572286D01*
X22312381Y-71191333D01*
X22360000Y-71096095D01*
X22407619Y-71048476D01*
X22502857Y-71000857D01*
X22645714Y-71000857D01*
X22740952Y-71048476D01*
X22788571Y-71096095D01*
X22836190Y-71191333D01*
X22836190Y-71572286D01*
X23312381Y-70048476D02*
X23312381Y-70619905D01*
X23312381Y-70334191D02*
X22312381Y-70334191D01*
X22455238Y-70429429D01*
X22550476Y-70524667D01*
X22598095Y-70619905D01*
X22407619Y-69667524D02*
X22360000Y-69619905D01*
X22312381Y-69524667D01*
X22312381Y-69286571D01*
X22360000Y-69191333D01*
X22407619Y-69143714D01*
X22502857Y-69096095D01*
X22598095Y-69096095D01*
X22740952Y-69143714D01*
X23312381Y-69715143D01*
X23312381Y-69096095D01*
X23058381Y-81414857D02*
X22582190Y-81748191D01*
X23058381Y-81986286D02*
X22058381Y-81986286D01*
X22058381Y-81605333D01*
X22106000Y-81510095D01*
X22153619Y-81462476D01*
X22248857Y-81414857D01*
X22391714Y-81414857D01*
X22486952Y-81462476D01*
X22534571Y-81510095D01*
X22582190Y-81605333D01*
X22582190Y-81986286D01*
X23058381Y-80462476D02*
X23058381Y-81033905D01*
X23058381Y-80748191D02*
X22058381Y-80748191D01*
X22201238Y-80843429D01*
X22296476Y-80938667D01*
X22344095Y-81033905D01*
X22058381Y-80129143D02*
X22058381Y-79510095D01*
X22439333Y-79843429D01*
X22439333Y-79700571D01*
X22486952Y-79605333D01*
X22534571Y-79557714D01*
X22629810Y-79510095D01*
X22867905Y-79510095D01*
X22963143Y-79557714D01*
X23010762Y-79605333D01*
X23058381Y-79700571D01*
X23058381Y-79986286D01*
X23010762Y-80081524D01*
X22963143Y-80129143D01*
X72223334Y-76144381D02*
X71890000Y-75668190D01*
X71651905Y-76144381D02*
X71651905Y-75144381D01*
X72032858Y-75144381D01*
X72128096Y-75192000D01*
X72175715Y-75239619D01*
X72223334Y-75334857D01*
X72223334Y-75477714D01*
X72175715Y-75572952D01*
X72128096Y-75620571D01*
X72032858Y-75668190D01*
X71651905Y-75668190D01*
X73080477Y-75477714D02*
X73080477Y-76144381D01*
X72842381Y-75096762D02*
X72604286Y-75811048D01*
X73223334Y-75811048D01*
X72223334Y-78684381D02*
X71890000Y-78208190D01*
X71651905Y-78684381D02*
X71651905Y-77684381D01*
X72032858Y-77684381D01*
X72128096Y-77732000D01*
X72175715Y-77779619D01*
X72223334Y-77874857D01*
X72223334Y-78017714D01*
X72175715Y-78112952D01*
X72128096Y-78160571D01*
X72032858Y-78208190D01*
X71651905Y-78208190D01*
X73128096Y-77684381D02*
X72651905Y-77684381D01*
X72604286Y-78160571D01*
X72651905Y-78112952D01*
X72747143Y-78065333D01*
X72985239Y-78065333D01*
X73080477Y-78112952D01*
X73128096Y-78160571D01*
X73175715Y-78255810D01*
X73175715Y-78493905D01*
X73128096Y-78589143D01*
X73080477Y-78636762D01*
X72985239Y-78684381D01*
X72747143Y-78684381D01*
X72651905Y-78636762D01*
X72604286Y-78589143D01*
X28281334Y-105608381D02*
X27948000Y-105132190D01*
X27709905Y-105608381D02*
X27709905Y-104608381D01*
X28090858Y-104608381D01*
X28186096Y-104656000D01*
X28233715Y-104703619D01*
X28281334Y-104798857D01*
X28281334Y-104941714D01*
X28233715Y-105036952D01*
X28186096Y-105084571D01*
X28090858Y-105132190D01*
X27709905Y-105132190D01*
X29138477Y-104608381D02*
X28948000Y-104608381D01*
X28852762Y-104656000D01*
X28805143Y-104703619D01*
X28709905Y-104846476D01*
X28662286Y-105036952D01*
X28662286Y-105417905D01*
X28709905Y-105513143D01*
X28757524Y-105560762D01*
X28852762Y-105608381D01*
X29043239Y-105608381D01*
X29138477Y-105560762D01*
X29186096Y-105513143D01*
X29233715Y-105417905D01*
X29233715Y-105179810D01*
X29186096Y-105084571D01*
X29138477Y-105036952D01*
X29043239Y-104989333D01*
X28852762Y-104989333D01*
X28757524Y-105036952D01*
X28709905Y-105084571D01*
X28662286Y-105179810D01*
X71159143Y-95956381D02*
X70825809Y-95480190D01*
X70587714Y-95956381D02*
X70587714Y-94956381D01*
X70968667Y-94956381D01*
X71063905Y-95004000D01*
X71111524Y-95051619D01*
X71159143Y-95146857D01*
X71159143Y-95289714D01*
X71111524Y-95384952D01*
X71063905Y-95432571D01*
X70968667Y-95480190D01*
X70587714Y-95480190D01*
X72111524Y-95956381D02*
X71540095Y-95956381D01*
X71825809Y-95956381D02*
X71825809Y-94956381D01*
X71730571Y-95099238D01*
X71635333Y-95194476D01*
X71540095Y-95242095D01*
X73063905Y-95956381D02*
X72492476Y-95956381D01*
X72778190Y-95956381D02*
X72778190Y-94956381D01*
X72682952Y-95099238D01*
X72587714Y-95194476D01*
X72492476Y-95242095D01*
X71239143Y-93416381D02*
X70905809Y-92940190D01*
X70667714Y-93416381D02*
X70667714Y-92416381D01*
X71048667Y-92416381D01*
X71143905Y-92464000D01*
X71191524Y-92511619D01*
X71239143Y-92606857D01*
X71239143Y-92749714D01*
X71191524Y-92844952D01*
X71143905Y-92892571D01*
X71048667Y-92940190D01*
X70667714Y-92940190D01*
X72191524Y-93416381D02*
X71620095Y-93416381D01*
X71905809Y-93416381D02*
X71905809Y-92416381D01*
X71810571Y-92559238D01*
X71715333Y-92654476D01*
X71620095Y-92702095D01*
X73048667Y-92749714D02*
X73048667Y-93416381D01*
X72810571Y-92368762D02*
X72572476Y-93083048D01*
X73191524Y-93083048D01*
X71159143Y-91130381D02*
X70825809Y-90654190D01*
X70587714Y-91130381D02*
X70587714Y-90130381D01*
X70968667Y-90130381D01*
X71063905Y-90178000D01*
X71111524Y-90225619D01*
X71159143Y-90320857D01*
X71159143Y-90463714D01*
X71111524Y-90558952D01*
X71063905Y-90606571D01*
X70968667Y-90654190D01*
X70587714Y-90654190D01*
X72111524Y-91130381D02*
X71540095Y-91130381D01*
X71825809Y-91130381D02*
X71825809Y-90130381D01*
X71730571Y-90273238D01*
X71635333Y-90368476D01*
X71540095Y-90416095D01*
X73016286Y-90130381D02*
X72540095Y-90130381D01*
X72492476Y-90606571D01*
X72540095Y-90558952D01*
X72635333Y-90511333D01*
X72873429Y-90511333D01*
X72968667Y-90558952D01*
X73016286Y-90606571D01*
X73063905Y-90701810D01*
X73063905Y-90939905D01*
X73016286Y-91035143D01*
X72968667Y-91082762D01*
X72873429Y-91130381D01*
X72635333Y-91130381D01*
X72540095Y-91082762D01*
X72492476Y-91035143D01*
X71239143Y-88336381D02*
X70905809Y-87860190D01*
X70667714Y-88336381D02*
X70667714Y-87336381D01*
X71048667Y-87336381D01*
X71143905Y-87384000D01*
X71191524Y-87431619D01*
X71239143Y-87526857D01*
X71239143Y-87669714D01*
X71191524Y-87764952D01*
X71143905Y-87812571D01*
X71048667Y-87860190D01*
X70667714Y-87860190D01*
X72191524Y-88336381D02*
X71620095Y-88336381D01*
X71905809Y-88336381D02*
X71905809Y-87336381D01*
X71810571Y-87479238D01*
X71715333Y-87574476D01*
X71620095Y-87622095D01*
X73048667Y-87336381D02*
X72858190Y-87336381D01*
X72762952Y-87384000D01*
X72715333Y-87431619D01*
X72620095Y-87574476D01*
X72572476Y-87764952D01*
X72572476Y-88145905D01*
X72620095Y-88241143D01*
X72667714Y-88288762D01*
X72762952Y-88336381D01*
X72953429Y-88336381D01*
X73048667Y-88288762D01*
X73096286Y-88241143D01*
X73143905Y-88145905D01*
X73143905Y-87907810D01*
X73096286Y-87812571D01*
X73048667Y-87764952D01*
X72953429Y-87717333D01*
X72762952Y-87717333D01*
X72667714Y-87764952D01*
X72620095Y-87812571D01*
X72572476Y-87907810D01*
X71239143Y-102560381D02*
X70905809Y-102084190D01*
X70667714Y-102560381D02*
X70667714Y-101560381D01*
X71048667Y-101560381D01*
X71143905Y-101608000D01*
X71191524Y-101655619D01*
X71239143Y-101750857D01*
X71239143Y-101893714D01*
X71191524Y-101988952D01*
X71143905Y-102036571D01*
X71048667Y-102084190D01*
X70667714Y-102084190D01*
X71620095Y-101655619D02*
X71667714Y-101608000D01*
X71762952Y-101560381D01*
X72001048Y-101560381D01*
X72096286Y-101608000D01*
X72143905Y-101655619D01*
X72191524Y-101750857D01*
X72191524Y-101846095D01*
X72143905Y-101988952D01*
X71572476Y-102560381D01*
X72191524Y-102560381D01*
X72810571Y-101560381D02*
X72905810Y-101560381D01*
X73001048Y-101608000D01*
X73048667Y-101655619D01*
X73096286Y-101750857D01*
X73143905Y-101941333D01*
X73143905Y-102179429D01*
X73096286Y-102369905D01*
X73048667Y-102465143D01*
X73001048Y-102512762D01*
X72905810Y-102560381D01*
X72810571Y-102560381D01*
X72715333Y-102512762D01*
X72667714Y-102465143D01*
X72620095Y-102369905D01*
X72572476Y-102179429D01*
X72572476Y-101941333D01*
X72620095Y-101750857D01*
X72667714Y-101655619D01*
X72715333Y-101608000D01*
X72810571Y-101560381D01*
X71239143Y-105100381D02*
X70905809Y-104624190D01*
X70667714Y-105100381D02*
X70667714Y-104100381D01*
X71048667Y-104100381D01*
X71143905Y-104148000D01*
X71191524Y-104195619D01*
X71239143Y-104290857D01*
X71239143Y-104433714D01*
X71191524Y-104528952D01*
X71143905Y-104576571D01*
X71048667Y-104624190D01*
X70667714Y-104624190D01*
X71620095Y-104195619D02*
X71667714Y-104148000D01*
X71762952Y-104100381D01*
X72001048Y-104100381D01*
X72096286Y-104148000D01*
X72143905Y-104195619D01*
X72191524Y-104290857D01*
X72191524Y-104386095D01*
X72143905Y-104528952D01*
X71572476Y-105100381D01*
X72191524Y-105100381D01*
X73143905Y-105100381D02*
X72572476Y-105100381D01*
X72858190Y-105100381D02*
X72858190Y-104100381D01*
X72762952Y-104243238D01*
X72667714Y-104338476D01*
X72572476Y-104386095D01*
X71239143Y-98496381D02*
X70905809Y-98020190D01*
X70667714Y-98496381D02*
X70667714Y-97496381D01*
X71048667Y-97496381D01*
X71143905Y-97544000D01*
X71191524Y-97591619D01*
X71239143Y-97686857D01*
X71239143Y-97829714D01*
X71191524Y-97924952D01*
X71143905Y-97972571D01*
X71048667Y-98020190D01*
X70667714Y-98020190D01*
X71620095Y-97591619D02*
X71667714Y-97544000D01*
X71762952Y-97496381D01*
X72001048Y-97496381D01*
X72096286Y-97544000D01*
X72143905Y-97591619D01*
X72191524Y-97686857D01*
X72191524Y-97782095D01*
X72143905Y-97924952D01*
X71572476Y-98496381D01*
X72191524Y-98496381D01*
X72572476Y-97591619D02*
X72620095Y-97544000D01*
X72715333Y-97496381D01*
X72953429Y-97496381D01*
X73048667Y-97544000D01*
X73096286Y-97591619D01*
X73143905Y-97686857D01*
X73143905Y-97782095D01*
X73096286Y-97924952D01*
X72524857Y-98496381D01*
X73143905Y-98496381D01*
X43592762Y-113577619D02*
X43497524Y-113530000D01*
X43402286Y-113434762D01*
X43259429Y-113291905D01*
X43164190Y-113244286D01*
X43068952Y-113244286D01*
X43116571Y-113482381D02*
X43021333Y-113434762D01*
X42926095Y-113339524D01*
X42878476Y-113149048D01*
X42878476Y-112815714D01*
X42926095Y-112625238D01*
X43021333Y-112530000D01*
X43116571Y-112482381D01*
X43307048Y-112482381D01*
X43402286Y-112530000D01*
X43497524Y-112625238D01*
X43545143Y-112815714D01*
X43545143Y-113149048D01*
X43497524Y-113339524D01*
X43402286Y-113434762D01*
X43307048Y-113482381D01*
X43116571Y-113482381D01*
X44497524Y-113482381D02*
X43926095Y-113482381D01*
X44211809Y-113482381D02*
X44211809Y-112482381D01*
X44116571Y-112625238D01*
X44021333Y-112720476D01*
X43926095Y-112768095D01*
X141501905Y-90368381D02*
X141501905Y-89368381D01*
X141740000Y-89368381D01*
X141882858Y-89416000D01*
X141978096Y-89511238D01*
X142025715Y-89606476D01*
X142073334Y-89796952D01*
X142073334Y-89939810D01*
X142025715Y-90130286D01*
X141978096Y-90225524D01*
X141882858Y-90320762D01*
X141740000Y-90368381D01*
X141501905Y-90368381D01*
X142978096Y-89368381D02*
X142501905Y-89368381D01*
X142454286Y-89844571D01*
X142501905Y-89796952D01*
X142597143Y-89749333D01*
X142835239Y-89749333D01*
X142930477Y-89796952D01*
X142978096Y-89844571D01*
X143025715Y-89939810D01*
X143025715Y-90177905D01*
X142978096Y-90273143D01*
X142930477Y-90320762D01*
X142835239Y-90368381D01*
X142597143Y-90368381D01*
X142501905Y-90320762D01*
X142454286Y-90273143D01*
X133180735Y-93268381D02*
X133180735Y-92268381D01*
X133752164Y-93268381D02*
X133323592Y-92696952D01*
X133752164Y-92268381D02*
X133180735Y-92839810D01*
X139504545Y-92932667D02*
X139980736Y-92932667D01*
X139409307Y-93218381D02*
X139742640Y-92218381D01*
X140075974Y-93218381D01*
X126007905Y-90368381D02*
X126007905Y-89368381D01*
X126246000Y-89368381D01*
X126388858Y-89416000D01*
X126484096Y-89511238D01*
X126531715Y-89606476D01*
X126579334Y-89796952D01*
X126579334Y-89939810D01*
X126531715Y-90130286D01*
X126484096Y-90225524D01*
X126388858Y-90320762D01*
X126246000Y-90368381D01*
X126007905Y-90368381D01*
X126960286Y-89463619D02*
X127007905Y-89416000D01*
X127103143Y-89368381D01*
X127341239Y-89368381D01*
X127436477Y-89416000D01*
X127484096Y-89463619D01*
X127531715Y-89558857D01*
X127531715Y-89654095D01*
X127484096Y-89796952D01*
X126912667Y-90368381D01*
X127531715Y-90368381D01*
X117686735Y-93268381D02*
X117686735Y-92268381D01*
X118258164Y-93268381D02*
X117829592Y-92696952D01*
X118258164Y-92268381D02*
X117686735Y-92839810D01*
X124010545Y-92932667D02*
X124486736Y-92932667D01*
X123915307Y-93218381D02*
X124248640Y-92218381D01*
X124581974Y-93218381D01*
X110767905Y-90368381D02*
X110767905Y-89368381D01*
X111006000Y-89368381D01*
X111148858Y-89416000D01*
X111244096Y-89511238D01*
X111291715Y-89606476D01*
X111339334Y-89796952D01*
X111339334Y-89939810D01*
X111291715Y-90130286D01*
X111244096Y-90225524D01*
X111148858Y-90320762D01*
X111006000Y-90368381D01*
X110767905Y-90368381D01*
X111672667Y-89368381D02*
X112291715Y-89368381D01*
X111958381Y-89749333D01*
X112101239Y-89749333D01*
X112196477Y-89796952D01*
X112244096Y-89844571D01*
X112291715Y-89939810D01*
X112291715Y-90177905D01*
X112244096Y-90273143D01*
X112196477Y-90320762D01*
X112101239Y-90368381D01*
X111815524Y-90368381D01*
X111720286Y-90320762D01*
X111672667Y-90273143D01*
X102446735Y-93268381D02*
X102446735Y-92268381D01*
X103018164Y-93268381D02*
X102589592Y-92696952D01*
X103018164Y-92268381D02*
X102446735Y-92839810D01*
X108770545Y-92932667D02*
X109246736Y-92932667D01*
X108675307Y-93218381D02*
X109008640Y-92218381D01*
X109341974Y-93218381D01*
X96035905Y-90368381D02*
X96035905Y-89368381D01*
X96274000Y-89368381D01*
X96416858Y-89416000D01*
X96512096Y-89511238D01*
X96559715Y-89606476D01*
X96607334Y-89796952D01*
X96607334Y-89939810D01*
X96559715Y-90130286D01*
X96512096Y-90225524D01*
X96416858Y-90320762D01*
X96274000Y-90368381D01*
X96035905Y-90368381D01*
X97464477Y-89701714D02*
X97464477Y-90368381D01*
X97226381Y-89320762D02*
X96988286Y-90035048D01*
X97607334Y-90035048D01*
X87714735Y-93268381D02*
X87714735Y-92268381D01*
X88286164Y-93268381D02*
X87857592Y-92696952D01*
X88286164Y-92268381D02*
X87714735Y-92839810D01*
X94038545Y-92932667D02*
X94514736Y-92932667D01*
X93943307Y-93218381D02*
X94276640Y-92218381D01*
X94609974Y-93218381D01*
X23645905Y-122880381D02*
X23645905Y-121880381D01*
X24026858Y-121880381D01*
X24122096Y-121928000D01*
X24169715Y-121975619D01*
X24217334Y-122070857D01*
X24217334Y-122213714D01*
X24169715Y-122308952D01*
X24122096Y-122356571D01*
X24026858Y-122404190D01*
X23645905Y-122404190D01*
X24550667Y-121880381D02*
X25169715Y-121880381D01*
X24836381Y-122261333D01*
X24979239Y-122261333D01*
X25074477Y-122308952D01*
X25122096Y-122356571D01*
X25169715Y-122451810D01*
X25169715Y-122689905D01*
X25122096Y-122785143D01*
X25074477Y-122832762D01*
X24979239Y-122880381D01*
X24693524Y-122880381D01*
X24598286Y-122832762D01*
X24550667Y-122785143D01*
X23645905Y-92120981D02*
X23645905Y-91120981D01*
X24026858Y-91120981D01*
X24122096Y-91168600D01*
X24169715Y-91216219D01*
X24217334Y-91311457D01*
X24217334Y-91454314D01*
X24169715Y-91549552D01*
X24122096Y-91597171D01*
X24026858Y-91644790D01*
X23645905Y-91644790D01*
X25074477Y-91120981D02*
X24884000Y-91120981D01*
X24788762Y-91168600D01*
X24741143Y-91216219D01*
X24645905Y-91359076D01*
X24598286Y-91549552D01*
X24598286Y-91930505D01*
X24645905Y-92025743D01*
X24693524Y-92073362D01*
X24788762Y-92120981D01*
X24979239Y-92120981D01*
X25074477Y-92073362D01*
X25122096Y-92025743D01*
X25169715Y-91930505D01*
X25169715Y-91692410D01*
X25122096Y-91597171D01*
X25074477Y-91549552D01*
X24979239Y-91501933D01*
X24788762Y-91501933D01*
X24693524Y-91549552D01*
X24645905Y-91597171D01*
X24598286Y-91692410D01*
X159535905Y-122880381D02*
X159535905Y-121880381D01*
X159916858Y-121880381D01*
X160012096Y-121928000D01*
X160059715Y-121975619D01*
X160107334Y-122070857D01*
X160107334Y-122213714D01*
X160059715Y-122308952D01*
X160012096Y-122356571D01*
X159916858Y-122404190D01*
X159535905Y-122404190D01*
X160440667Y-121880381D02*
X161107334Y-121880381D01*
X160678762Y-122880381D01*
X159535905Y-73350381D02*
X159535905Y-72350381D01*
X159916858Y-72350381D01*
X160012096Y-72398000D01*
X160059715Y-72445619D01*
X160107334Y-72540857D01*
X160107334Y-72683714D01*
X160059715Y-72778952D01*
X160012096Y-72826571D01*
X159916858Y-72874190D01*
X159535905Y-72874190D01*
X160678762Y-72778952D02*
X160583524Y-72731333D01*
X160535905Y-72683714D01*
X160488286Y-72588476D01*
X160488286Y-72540857D01*
X160535905Y-72445619D01*
X160583524Y-72398000D01*
X160678762Y-72350381D01*
X160869239Y-72350381D01*
X160964477Y-72398000D01*
X161012096Y-72445619D01*
X161059715Y-72540857D01*
X161059715Y-72588476D01*
X161012096Y-72683714D01*
X160964477Y-72731333D01*
X160869239Y-72778952D01*
X160678762Y-72778952D01*
X160583524Y-72826571D01*
X160535905Y-72874190D01*
X160488286Y-72969429D01*
X160488286Y-73159905D01*
X160535905Y-73255143D01*
X160583524Y-73302762D01*
X160678762Y-73350381D01*
X160869239Y-73350381D01*
X160964477Y-73302762D01*
X161012096Y-73255143D01*
X161059715Y-73159905D01*
X161059715Y-72969429D01*
X161012096Y-72874190D01*
X160964477Y-72826571D01*
X160869239Y-72778952D01*
X22737867Y-59980581D02*
X22737867Y-60694867D01*
X22690247Y-60837724D01*
X22595009Y-60932962D01*
X22452152Y-60980581D01*
X22356914Y-60980581D01*
X23214057Y-60980581D02*
X23214057Y-59980581D01*
X23595010Y-59980581D01*
X23690248Y-60028200D01*
X23737867Y-60075819D01*
X23785486Y-60171057D01*
X23785486Y-60313914D01*
X23737867Y-60409152D01*
X23690248Y-60456771D01*
X23595010Y-60504390D01*
X23214057Y-60504390D01*
X24737867Y-60980581D02*
X24166438Y-60980581D01*
X24452152Y-60980581D02*
X24452152Y-59980581D01*
X24356914Y-60123438D01*
X24261676Y-60218676D01*
X24166438Y-60266295D01*
X48283905Y-110180381D02*
X48283905Y-109180381D01*
X48522000Y-109180381D01*
X48664858Y-109228000D01*
X48760096Y-109323238D01*
X48807715Y-109418476D01*
X48855334Y-109608952D01*
X48855334Y-109751810D01*
X48807715Y-109942286D01*
X48760096Y-110037524D01*
X48664858Y-110132762D01*
X48522000Y-110180381D01*
X48283905Y-110180381D01*
X49807715Y-110180381D02*
X49236286Y-110180381D01*
X49522000Y-110180381D02*
X49522000Y-109180381D01*
X49426762Y-109323238D01*
X49331524Y-109418476D01*
X49236286Y-109466095D01*
X49553905Y-117292381D02*
X49553905Y-116292381D01*
X49792000Y-116292381D01*
X49934858Y-116340000D01*
X50030096Y-116435238D01*
X50077715Y-116530476D01*
X50125334Y-116720952D01*
X50125334Y-116863810D01*
X50077715Y-117054286D01*
X50030096Y-117149524D01*
X49934858Y-117244762D01*
X49792000Y-117292381D01*
X49553905Y-117292381D01*
X50982477Y-116292381D02*
X50792000Y-116292381D01*
X50696762Y-116340000D01*
X50649143Y-116387619D01*
X50553905Y-116530476D01*
X50506286Y-116720952D01*
X50506286Y-117101905D01*
X50553905Y-117197143D01*
X50601524Y-117244762D01*
X50696762Y-117292381D01*
X50887239Y-117292381D01*
X50982477Y-117244762D01*
X51030096Y-117197143D01*
X51077715Y-117101905D01*
X51077715Y-116863810D01*
X51030096Y-116768571D01*
X50982477Y-116720952D01*
X50887239Y-116673333D01*
X50696762Y-116673333D01*
X50601524Y-116720952D01*
X50553905Y-116768571D01*
X50506286Y-116863810D01*
X88003143Y-64365143D02*
X87955524Y-64412762D01*
X87812667Y-64460381D01*
X87717429Y-64460381D01*
X87574571Y-64412762D01*
X87479333Y-64317524D01*
X87431714Y-64222286D01*
X87384095Y-64031810D01*
X87384095Y-63888952D01*
X87431714Y-63698476D01*
X87479333Y-63603238D01*
X87574571Y-63508000D01*
X87717429Y-63460381D01*
X87812667Y-63460381D01*
X87955524Y-63508000D01*
X88003143Y-63555619D01*
X88955524Y-64460381D02*
X88384095Y-64460381D01*
X88669809Y-64460381D02*
X88669809Y-63460381D01*
X88574571Y-63603238D01*
X88479333Y-63698476D01*
X88384095Y-63746095D01*
X89812667Y-63460381D02*
X89622190Y-63460381D01*
X89526952Y-63508000D01*
X89479333Y-63555619D01*
X89384095Y-63698476D01*
X89336476Y-63888952D01*
X89336476Y-64269905D01*
X89384095Y-64365143D01*
X89431714Y-64412762D01*
X89526952Y-64460381D01*
X89717429Y-64460381D01*
X89812667Y-64412762D01*
X89860286Y-64365143D01*
X89907905Y-64269905D01*
X89907905Y-64031810D01*
X89860286Y-63936571D01*
X89812667Y-63888952D01*
X89717429Y-63841333D01*
X89526952Y-63841333D01*
X89431714Y-63888952D01*
X89384095Y-63936571D01*
X89336476Y-64031810D01*
X68346381Y-55237333D02*
X69060667Y-55237333D01*
X69203524Y-55284953D01*
X69298762Y-55380191D01*
X69346381Y-55523048D01*
X69346381Y-55618286D01*
X68346381Y-54284952D02*
X68346381Y-54761143D01*
X68822571Y-54808762D01*
X68774952Y-54761143D01*
X68727333Y-54665905D01*
X68727333Y-54427809D01*
X68774952Y-54332571D01*
X68822571Y-54284952D01*
X68917810Y-54237333D01*
X69155905Y-54237333D01*
X69251143Y-54284952D01*
X69298762Y-54332571D01*
X69346381Y-54427809D01*
X69346381Y-54665905D01*
X69298762Y-54761143D01*
X69251143Y-54808762D01*
X56789381Y-55237333D02*
X57503667Y-55237333D01*
X57646524Y-55284953D01*
X57741762Y-55380191D01*
X57789381Y-55523048D01*
X57789381Y-55618286D01*
X56789381Y-54332571D02*
X56789381Y-54523048D01*
X56837000Y-54618286D01*
X56884619Y-54665905D01*
X57027476Y-54761143D01*
X57217952Y-54808762D01*
X57598905Y-54808762D01*
X57694143Y-54761143D01*
X57741762Y-54713524D01*
X57789381Y-54618286D01*
X57789381Y-54427809D01*
X57741762Y-54332571D01*
X57694143Y-54284952D01*
X57598905Y-54237333D01*
X57360810Y-54237333D01*
X57265571Y-54284952D01*
X57217952Y-54332571D01*
X57170333Y-54427809D01*
X57170333Y-54618286D01*
X57217952Y-54713524D01*
X57265571Y-54761143D01*
X57360810Y-54808762D01*
X83058095Y-65238381D02*
X83058095Y-66047905D01*
X83105714Y-66143143D01*
X83153333Y-66190762D01*
X83248571Y-66238381D01*
X83439048Y-66238381D01*
X83534286Y-66190762D01*
X83581905Y-66143143D01*
X83629524Y-66047905D01*
X83629524Y-65238381D01*
X84534286Y-65571714D02*
X84534286Y-66238381D01*
X84296190Y-65190762D02*
X84058095Y-65905048D01*
X84677143Y-65905048D01*
X53746495Y-126376181D02*
X53746495Y-127185705D01*
X53794114Y-127280943D01*
X53841733Y-127328562D01*
X53936971Y-127376181D01*
X54127448Y-127376181D01*
X54222686Y-127328562D01*
X54270305Y-127280943D01*
X54317924Y-127185705D01*
X54317924Y-126376181D01*
X55270305Y-126376181D02*
X54794114Y-126376181D01*
X54746495Y-126852371D01*
X54794114Y-126804752D01*
X54889352Y-126757133D01*
X55127448Y-126757133D01*
X55222686Y-126804752D01*
X55270305Y-126852371D01*
X55317924Y-126947610D01*
X55317924Y-127185705D01*
X55270305Y-127280943D01*
X55222686Y-127328562D01*
X55127448Y-127376181D01*
X54889352Y-127376181D01*
X54794114Y-127328562D01*
X54746495Y-127280943D01*
X92321143Y-73763143D02*
X92273524Y-73810762D01*
X92130667Y-73858381D01*
X92035429Y-73858381D01*
X91892571Y-73810762D01*
X91797333Y-73715524D01*
X91749714Y-73620286D01*
X91702095Y-73429810D01*
X91702095Y-73286952D01*
X91749714Y-73096476D01*
X91797333Y-73001238D01*
X91892571Y-72906000D01*
X92035429Y-72858381D01*
X92130667Y-72858381D01*
X92273524Y-72906000D01*
X92321143Y-72953619D01*
X93273524Y-73858381D02*
X92702095Y-73858381D01*
X92987809Y-73858381D02*
X92987809Y-72858381D01*
X92892571Y-73001238D01*
X92797333Y-73096476D01*
X92702095Y-73144095D01*
X93892571Y-72858381D02*
X93987810Y-72858381D01*
X94083048Y-72906000D01*
X94130667Y-72953619D01*
X94178286Y-73048857D01*
X94225905Y-73239333D01*
X94225905Y-73477429D01*
X94178286Y-73667905D01*
X94130667Y-73763143D01*
X94083048Y-73810762D01*
X93987810Y-73858381D01*
X93892571Y-73858381D01*
X93797333Y-73810762D01*
X93749714Y-73763143D01*
X93702095Y-73667905D01*
X93654476Y-73477429D01*
X93654476Y-73239333D01*
X93702095Y-73048857D01*
X93749714Y-72953619D01*
X93797333Y-72906000D01*
X93892571Y-72858381D01*
X92067143Y-64873143D02*
X92019524Y-64920762D01*
X91876667Y-64968381D01*
X91781429Y-64968381D01*
X91638571Y-64920762D01*
X91543333Y-64825524D01*
X91495714Y-64730286D01*
X91448095Y-64539810D01*
X91448095Y-64396952D01*
X91495714Y-64206476D01*
X91543333Y-64111238D01*
X91638571Y-64016000D01*
X91781429Y-63968381D01*
X91876667Y-63968381D01*
X92019524Y-64016000D01*
X92067143Y-64063619D01*
X93019524Y-64968381D02*
X92448095Y-64968381D01*
X92733809Y-64968381D02*
X92733809Y-63968381D01*
X92638571Y-64111238D01*
X92543333Y-64206476D01*
X92448095Y-64254095D01*
X93352857Y-63968381D02*
X93971905Y-63968381D01*
X93638571Y-64349333D01*
X93781429Y-64349333D01*
X93876667Y-64396952D01*
X93924286Y-64444571D01*
X93971905Y-64539810D01*
X93971905Y-64777905D01*
X93924286Y-64873143D01*
X93876667Y-64920762D01*
X93781429Y-64968381D01*
X93495714Y-64968381D01*
X93400476Y-64920762D01*
X93352857Y-64873143D01*
X83669143Y-84970857D02*
X83716762Y-85018476D01*
X83764381Y-85161333D01*
X83764381Y-85256571D01*
X83716762Y-85399429D01*
X83621524Y-85494667D01*
X83526286Y-85542286D01*
X83335810Y-85589905D01*
X83192952Y-85589905D01*
X83002476Y-85542286D01*
X82907238Y-85494667D01*
X82812000Y-85399429D01*
X82764381Y-85256571D01*
X82764381Y-85161333D01*
X82812000Y-85018476D01*
X82859619Y-84970857D01*
X83764381Y-84018476D02*
X83764381Y-84589905D01*
X83764381Y-84304191D02*
X82764381Y-84304191D01*
X82907238Y-84399429D01*
X83002476Y-84494667D01*
X83050095Y-84589905D01*
X83097714Y-83161333D02*
X83764381Y-83161333D01*
X82716762Y-83399429D02*
X83431048Y-83637524D01*
X83431048Y-83018476D01*
X81383143Y-63888857D02*
X81430762Y-63936476D01*
X81478381Y-64079333D01*
X81478381Y-64174571D01*
X81430762Y-64317429D01*
X81335524Y-64412667D01*
X81240286Y-64460286D01*
X81049810Y-64507905D01*
X80906952Y-64507905D01*
X80716476Y-64460286D01*
X80621238Y-64412667D01*
X80526000Y-64317429D01*
X80478381Y-64174571D01*
X80478381Y-64079333D01*
X80526000Y-63936476D01*
X80573619Y-63888857D01*
X81478381Y-62936476D02*
X81478381Y-63507905D01*
X81478381Y-63222191D02*
X80478381Y-63222191D01*
X80621238Y-63317429D01*
X80716476Y-63412667D01*
X80764095Y-63507905D01*
X80478381Y-62603143D02*
X80478381Y-61936476D01*
X81478381Y-62365048D01*
X74191905Y-110688381D02*
X74191905Y-109688381D01*
X74572858Y-109688381D01*
X74668096Y-109736000D01*
X74715715Y-109783619D01*
X74763334Y-109878857D01*
X74763334Y-110021714D01*
X74715715Y-110116952D01*
X74668096Y-110164571D01*
X74572858Y-110212190D01*
X74191905Y-110212190D01*
X75715715Y-110688381D02*
X75144286Y-110688381D01*
X75430000Y-110688381D02*
X75430000Y-109688381D01*
X75334762Y-109831238D01*
X75239524Y-109926476D01*
X75144286Y-109974095D01*
M02*
