G04 #@! TF.FileFunction,Soldermask,Top*
%FSLAX46Y46*%
G04 Gerber Fmt 4.6, Leading zero omitted, Abs format (unit mm)*
G04 Created by KiCad (PCBNEW 4.0.2+dfsg1-stable) date Mon 20 Aug 2018 02:01:52 PM EDT*
%MOMM*%
G01*
G04 APERTURE LIST*
%ADD10C,0.100000*%
%ADD11O,2.940000X1.924000*%
%ADD12R,1.900000X1.650000*%
%ADD13R,1.650000X1.900000*%
%ADD14C,3.651200*%
%ADD15C,1.924000*%
%ADD16C,2.150000*%
%ADD17C,3.300000*%
%ADD18R,1.598880X1.598880*%
%ADD19R,1.900000X1.700000*%
%ADD20C,1.920000*%
%ADD21R,1.920000X1.920000*%
%ADD22R,1.700000X1.900000*%
%ADD23O,2.000000X2.000000*%
%ADD24R,3.900120X3.900120*%
%ADD25C,2.500000*%
%ADD26C,1.500000*%
%ADD27C,1.700000*%
%ADD28R,1.700000X1.700000*%
%ADD29O,2.099260X3.900120*%
%ADD30C,4.199840*%
%ADD31R,2.600000X1.600000*%
%ADD32R,2.600000X3.900000*%
%ADD33C,1.400760*%
%ADD34O,1.400000X1.900000*%
%ADD35R,1.400000X1.900000*%
%ADD36R,2.000000X1.100000*%
%ADD37R,2.200860X1.200100*%
%ADD38R,3.900120X2.200860*%
%ADD39R,2.432000X2.432000*%
%ADD40O,2.432000X2.432000*%
%ADD41R,1.310000X1.620000*%
%ADD42R,1.620000X1.310000*%
%ADD43C,2.900000*%
%ADD44R,3.200000X2.800000*%
%ADD45R,2.900000X2.800000*%
%ADD46C,1.670000*%
%ADD47R,2.000000X2.400000*%
G04 APERTURE END LIST*
D10*
D11*
X31496000Y-119888000D03*
X31496000Y-117348000D03*
X31496000Y-114808000D03*
X31496000Y-107188000D03*
X31496000Y-109728000D03*
X31496000Y-112268000D03*
X31496000Y-102108000D03*
X31496000Y-99568000D03*
X31496000Y-97028000D03*
X31496000Y-91948000D03*
X31496000Y-89408000D03*
X79756000Y-119888000D03*
X79756000Y-117348000D03*
X79756000Y-114808000D03*
X79756000Y-112268000D03*
X79756000Y-109728000D03*
X79756000Y-107188000D03*
X79756000Y-104648000D03*
X79756000Y-102108000D03*
X79756000Y-98044000D03*
X79756000Y-95504000D03*
X79756000Y-92964000D03*
X79756000Y-90424000D03*
X79756000Y-87884000D03*
X79756000Y-85344000D03*
X79756000Y-82804000D03*
X79756000Y-80264000D03*
X31496000Y-94488000D03*
X79756000Y-77724000D03*
X79756000Y-75184000D03*
X31496000Y-86868000D03*
D12*
X83916200Y-72974200D03*
X86416200Y-72974200D03*
D13*
X94996000Y-67330000D03*
X94996000Y-69830000D03*
D14*
X51943000Y-51943000D03*
X39243000Y-51943000D03*
D15*
X48133000Y-54483000D03*
X46101000Y-54483000D03*
X44069000Y-54483000D03*
X42037000Y-54483000D03*
X49149000Y-56261000D03*
X47117000Y-56261000D03*
X45085000Y-56261000D03*
X43053000Y-56261000D03*
D16*
X26822400Y-62486200D03*
D17*
X30622400Y-54686200D03*
X23022400Y-54686200D03*
D18*
X35399980Y-101854000D03*
X37498020Y-101854000D03*
D19*
X37799000Y-99695000D03*
X35099000Y-99695000D03*
D18*
X37498020Y-108204000D03*
X35399980Y-108204000D03*
D19*
X35099000Y-106172000D03*
X37799000Y-106172000D03*
D20*
X41402000Y-67818000D03*
X38862000Y-67818000D03*
D21*
X43942000Y-67818000D03*
D13*
X36576000Y-68814000D03*
X36576000Y-66314000D03*
D22*
X36576000Y-71040000D03*
X36576000Y-73740000D03*
X38608000Y-73740000D03*
X38608000Y-71040000D03*
D23*
X34366200Y-73914000D03*
X34366200Y-71374000D03*
X34366200Y-68834000D03*
X34366200Y-66294000D03*
X26746200Y-66294000D03*
X26746200Y-68834000D03*
X26746200Y-71374000D03*
X26746200Y-73914000D03*
D24*
X88265000Y-60429140D03*
X88265000Y-54429660D03*
X83566000Y-57429400D03*
D25*
X157033000Y-54737000D03*
X152033000Y-54737000D03*
D26*
X157033000Y-51437000D03*
X152033000Y-51437000D03*
D25*
X147033000Y-54737000D03*
X142033000Y-54737000D03*
X137033000Y-54737000D03*
X132033000Y-54737000D03*
D26*
X147033000Y-51437000D03*
X142033000Y-51437000D03*
X137033000Y-51437000D03*
X132033000Y-51437000D03*
D25*
X125330000Y-54735000D03*
X120330000Y-54735000D03*
D26*
X125330000Y-51435000D03*
X120330000Y-51435000D03*
D25*
X115330000Y-54735000D03*
X110330000Y-54735000D03*
X105330000Y-54735000D03*
X100330000Y-54735000D03*
D26*
X115330000Y-51435000D03*
X110330000Y-51435000D03*
X105330000Y-51435000D03*
X100330000Y-51435000D03*
D27*
X120142000Y-83058000D03*
D28*
X120142000Y-85558000D03*
D27*
X104902000Y-83058000D03*
D28*
X104902000Y-85558000D03*
D27*
X90170000Y-83058000D03*
D28*
X90170000Y-85558000D03*
D29*
X153416000Y-94742000D03*
X155956000Y-94742000D03*
X150876000Y-94742000D03*
D30*
X153416000Y-111506000D03*
D29*
X122936000Y-94742000D03*
X125476000Y-94742000D03*
X120396000Y-94742000D03*
D30*
X122936000Y-111506000D03*
D29*
X107696000Y-94742000D03*
X110236000Y-94742000D03*
X105156000Y-94742000D03*
D30*
X107696000Y-111506000D03*
D29*
X92456000Y-94742000D03*
X94996000Y-94742000D03*
X89916000Y-94742000D03*
D30*
X92456000Y-111506000D03*
D27*
X135636000Y-83058000D03*
D28*
X135636000Y-85558000D03*
D29*
X138176000Y-94742000D03*
X140716000Y-94742000D03*
X135636000Y-94742000D03*
D30*
X138176000Y-111506000D03*
D18*
X77049898Y-66144910D03*
X74951858Y-66144910D03*
X77075298Y-68303910D03*
X74977258Y-68303910D03*
X77075298Y-70412110D03*
X74977258Y-70412110D03*
X159766000Y-95791020D03*
X159766000Y-93692980D03*
X129286000Y-95824040D03*
X129286000Y-93726000D03*
X114046000Y-95791020D03*
X114046000Y-93692980D03*
X98806000Y-95824040D03*
X98806000Y-93726000D03*
X144526000Y-95791020D03*
X144526000Y-93692980D03*
D19*
X73032878Y-66144910D03*
X70332878Y-66144910D03*
X73058278Y-68303910D03*
X70358278Y-68303910D03*
X73058278Y-70412110D03*
X70358278Y-70412110D03*
D22*
X161798000Y-93900000D03*
X161798000Y-96600000D03*
X131318000Y-93916500D03*
X131318000Y-96616500D03*
X116078000Y-93878400D03*
X116078000Y-96578400D03*
X100838000Y-93916500D03*
X100838000Y-96616500D03*
X146558000Y-93900000D03*
X146558000Y-96600000D03*
D31*
X89968000Y-75170000D03*
X89968000Y-77470000D03*
X89968000Y-79770000D03*
D32*
X83768000Y-77470000D03*
D33*
X58318400Y-111683800D03*
X59817000Y-111683800D03*
D34*
X56896000Y-71882000D03*
D35*
X55626000Y-71882000D03*
D34*
X54356000Y-71882000D03*
X53086000Y-71882000D03*
D12*
X57790400Y-113715800D03*
X55290400Y-113715800D03*
D36*
X56211400Y-109270800D03*
X56211400Y-110540800D03*
X56211400Y-108000800D03*
X56211400Y-111810800D03*
X51281400Y-108000800D03*
X51281400Y-109270800D03*
X51281400Y-110540800D03*
X51281400Y-111810800D03*
D13*
X24638000Y-73934000D03*
X24638000Y-76434000D03*
D12*
X52944400Y-113715800D03*
X50444400Y-113715800D03*
X53741000Y-76263500D03*
X56241000Y-76263500D03*
D13*
X94869000Y-76347000D03*
X94869000Y-78847000D03*
D19*
X37799000Y-110236000D03*
X35099000Y-110236000D03*
X37291000Y-115824000D03*
X34591000Y-115824000D03*
X37846000Y-104013000D03*
X35146000Y-104013000D03*
X35099000Y-97536000D03*
X37799000Y-97536000D03*
D22*
X24638000Y-69008000D03*
X24638000Y-71708000D03*
X22555200Y-78159600D03*
X22555200Y-75459600D03*
D19*
X77042000Y-75184000D03*
X74342000Y-75184000D03*
X77042000Y-77724000D03*
X74342000Y-77724000D03*
D22*
X28448000Y-109554000D03*
X28448000Y-106854000D03*
D19*
X74342000Y-95504000D03*
X77042000Y-95504000D03*
X74342000Y-92964000D03*
X77042000Y-92964000D03*
X74342000Y-90424000D03*
X77042000Y-90424000D03*
X74342000Y-87884000D03*
X77042000Y-87884000D03*
X77042000Y-102108000D03*
X74342000Y-102108000D03*
X77042000Y-104648000D03*
X74342000Y-104648000D03*
X74342000Y-98044000D03*
X77042000Y-98044000D03*
D37*
X38077140Y-113980000D03*
X38077140Y-112080000D03*
X35074860Y-113030000D03*
D38*
X134193280Y-89916000D03*
X139192000Y-89916000D03*
X118699280Y-89916000D03*
X123698000Y-89916000D03*
X103459280Y-89916000D03*
X108458000Y-89916000D03*
X88727280Y-89916000D03*
X93726000Y-89916000D03*
D39*
X23622000Y-65278000D03*
D40*
X23622000Y-62738000D03*
D41*
X49361600Y-111506000D03*
X46091600Y-111506000D03*
D42*
X48234600Y-113300000D03*
X48234600Y-116570000D03*
D10*
G36*
X115316000Y-102830736D02*
X117133264Y-104648000D01*
X115316000Y-106465264D01*
X113498736Y-104648000D01*
X115316000Y-102830736D01*
X115316000Y-102830736D01*
G37*
D43*
X101173864Y-118790136D03*
D12*
X86086000Y-64008000D03*
X83586000Y-64008000D03*
D15*
X72644000Y-51404000D03*
X72644000Y-57404000D03*
D44*
X69344000Y-50104000D03*
X75944000Y-52804000D03*
D45*
X76244000Y-59804000D03*
X69044000Y-59804000D03*
D15*
X61087000Y-51404000D03*
X61087000Y-57404000D03*
D44*
X57787000Y-50104000D03*
X64387000Y-52804000D03*
D45*
X64687000Y-59804000D03*
X57487000Y-59804000D03*
D31*
X90043000Y-66280000D03*
X90043000Y-68580000D03*
X90043000Y-70880000D03*
D32*
X83843000Y-68580000D03*
D46*
X67183000Y-124206000D03*
X67183000Y-121666000D03*
X67183000Y-119126000D03*
X67183000Y-116586000D03*
X67183000Y-114046000D03*
X67183000Y-111506000D03*
X67183000Y-108966000D03*
X67183000Y-106426000D03*
X67183000Y-103886000D03*
X67183000Y-101346000D03*
X67183000Y-98806000D03*
X67183000Y-96266000D03*
X67183000Y-93726000D03*
X67183000Y-91186000D03*
X67183000Y-88646000D03*
X67183000Y-86106000D03*
X67183000Y-81026000D03*
X67183000Y-83566000D03*
X67183000Y-78486000D03*
X41783000Y-103886000D03*
X41783000Y-98806000D03*
X41783000Y-106426000D03*
X41783000Y-93726000D03*
X41783000Y-101346000D03*
X41783000Y-96266000D03*
X41783000Y-88646000D03*
X41783000Y-81026000D03*
X41783000Y-91186000D03*
X41783000Y-86106000D03*
X41783000Y-78486000D03*
X41783000Y-83566000D03*
X41783000Y-116586000D03*
X41783000Y-114046000D03*
X41783000Y-119126000D03*
X41783000Y-121666000D03*
X41783000Y-124206000D03*
X41783000Y-108966000D03*
X41783000Y-111506000D03*
D47*
X92583000Y-75470000D03*
X92583000Y-79470000D03*
X92710000Y-66580000D03*
X92710000Y-70580000D03*
X85344000Y-82328000D03*
X85344000Y-86328000D03*
X81153000Y-70072000D03*
X81153000Y-66072000D03*
D39*
X76200000Y-107569000D03*
D40*
X73660000Y-107569000D03*
M02*
