M48
;DRILL file {KiCad 4.0.2+dfsg1-stable} date Mon 20 Aug 2018 02:03:09 PM EDT
;FORMAT={-:-/ absolute / inch / decimal}
FMAT,2
INCH,TZ
T1C0.012
T2C0.016
T3C0.024
T4C0.030
T5C0.031
T6C0.032
T7C0.035
T8C0.037
T9C0.039
T10C0.039
T11C0.040
T12C0.043
T13C0.046
T14C0.059
T15C0.075
T16C0.106
T17C0.128
%
G90
G05
M72
T1
X1.38Y-3.78
X1.536Y-4.637
X1.55Y-4.195
X1.5744Y-2.8473
X1.702Y-4.626
X1.9583Y-2.6128
X1.9848Y-2.5857
X2.0129Y-2.5604
X2.038Y-2.532
X2.042Y-2.7
X2.0461Y-2.4945
X2.069Y-2.6696
X2.0739Y-2.4677
X2.0949Y-2.6421
X2.1217Y-2.6153
X2.131Y-4.423
X2.149Y-2.589
X2.188Y-2.583
X2.274Y-4.252
X2.54Y-2.569
X2.5467Y-2.4333
X2.586Y-2.569
X2.699Y-2.688
X2.7358Y-3.2416
X2.7374Y-3.197
X2.862Y-3.005
X2.879Y-3.227
X2.899Y-2.387
X2.914Y-3.944
X2.92Y-3.39
X3.129Y-2.82
X3.135Y-2.601
X3.148Y-2.458
X3.2119Y-2.9269
X3.273Y-2.582
X3.291Y-2.47
X3.292Y-3.7231
X3.3185Y-3.6852
X3.3192Y-3.6473
X3.3231Y-3.6096
X3.3299Y-3.7214
X3.4022Y-2.8202
X3.4704Y-2.7906
T2
X1.868Y-2.702
X1.997Y-2.744
T3
X2.296Y-4.397
X2.355Y-4.397
T4
X1.645Y-3.09
X1.645Y-3.19
X1.645Y-3.29
X1.645Y-3.39
X1.645Y-3.49
X1.645Y-3.59
X1.645Y-3.69
X1.645Y-3.79
X1.645Y-3.89
X1.645Y-3.99
X1.645Y-4.09
X1.645Y-4.19
X1.645Y-4.29
X1.645Y-4.39
X1.645Y-4.49
X1.645Y-4.59
X1.645Y-4.69
X1.645Y-4.79
X1.645Y-4.89
X2.09Y-2.83
X2.14Y-2.83
X2.19Y-2.83
X2.24Y-2.83
X2.645Y-3.09
X2.645Y-3.19
X2.645Y-3.29
X2.645Y-3.39
X2.645Y-3.49
X2.645Y-3.59
X2.645Y-3.69
X2.645Y-3.79
X2.645Y-3.89
X2.645Y-3.99
X2.645Y-4.09
X2.645Y-4.19
X2.645Y-4.29
X2.645Y-4.39
X2.645Y-4.49
X2.645Y-4.59
X2.645Y-4.69
X2.645Y-4.79
X2.645Y-4.89
T5
X1.053Y-2.61
X1.053Y-2.71
X1.053Y-2.81
X1.053Y-2.91
X1.353Y-2.61
X1.353Y-2.71
X1.353Y-2.81
X1.353Y-2.91
X1.53Y-2.67
X1.63Y-2.67
X1.73Y-2.67
X3.55Y-3.27
X3.55Y-3.3684
X4.13Y-3.27
X4.13Y-3.3684
X4.73Y-3.27
X4.73Y-3.3684
X5.34Y-3.27
X5.34Y-3.3684
T6
X1.24Y-3.42
X1.24Y-3.52
X1.24Y-3.62
X1.24Y-3.72
X1.24Y-3.82
X1.24Y-3.92
X1.24Y-4.02
X1.24Y-4.22
X1.24Y-4.32
X1.24Y-4.42
X1.24Y-4.52
X1.24Y-4.62
X1.24Y-4.72
X3.14Y-2.96
X3.14Y-3.06
X3.14Y-3.16
X3.14Y-3.26
X3.14Y-3.36
X3.14Y-3.46
X3.14Y-3.56
X3.14Y-3.66
X3.14Y-3.76
X3.14Y-3.86
X3.14Y-4.02
X3.14Y-4.12
X3.14Y-4.22
X3.14Y-4.32
X3.14Y-4.42
X3.14Y-4.52
X3.14Y-4.62
X3.14Y-4.72
T7
X1.655Y-2.145
X1.695Y-2.215
X1.735Y-2.145
X1.775Y-2.215
X1.815Y-2.145
X1.855Y-2.215
X1.895Y-2.145
X1.935Y-2.215
T8
X1.056Y-2.4601
T9
X2.405Y-2.0238
X2.405Y-2.26
X2.86Y-2.0238
X2.86Y-2.26
T10
X3.54Y-3.73
X3.64Y-3.73
X3.74Y-3.73
X4.14Y-3.73
X4.24Y-3.73
X4.34Y-3.73
X4.74Y-3.73
X4.84Y-3.73
X4.94Y-3.73
X5.34Y-3.73
X5.44Y-3.73
X5.54Y-3.73
X5.94Y-3.73
X6.04Y-3.73
X6.14Y-3.73
T11
X0.93Y-2.47
X0.93Y-2.57
X2.9Y-4.235
X3.Y-4.235
T12
X3.95Y-2.1549
X4.1469Y-2.1549
X4.3437Y-2.1549
X4.5406Y-2.1549
X4.7374Y-2.1549
X4.9343Y-2.1549
X5.1981Y-2.155
X5.395Y-2.155
X5.5919Y-2.155
X5.7887Y-2.155
X5.9856Y-2.155
X6.1824Y-2.155
T13
X4.54Y-4.12
T14
X3.9832Y-4.6768
T15
X0.9064Y-2.153
X1.2056Y-2.153
T16
X0.96Y-3.62
X0.96Y-4.82
X6.31Y-2.87
X6.31Y-4.82
T17
X1.545Y-2.045
X2.045Y-2.045
T10
X3.29Y-2.2216G85X3.29Y-2.3003
G05
X3.5143Y-2.1429G85X3.4356Y-2.1429
G05
X3.5143Y-2.3791G85X3.4356Y-2.3791
G05
T0
M30
