G04 #@! TF.FileFunction,Copper,L2,Bot,Signal*
%FSLAX46Y46*%
G04 Gerber Fmt 4.6, Leading zero omitted, Abs format (unit mm)*
G04 Created by KiCad (PCBNEW 4.0.2+dfsg1-stable) date Mon 20 Aug 2018 02:01:52 PM EDT*
%MOMM*%
G01*
G04 APERTURE LIST*
%ADD10C,0.100000*%
%ADD11O,2.540000X1.524000*%
%ADD12C,3.251200*%
%ADD13C,1.524000*%
%ADD14C,1.750000*%
%ADD15C,2.900000*%
%ADD16C,1.520000*%
%ADD17R,1.520000X1.520000*%
%ADD18O,1.600000X1.600000*%
%ADD19R,3.500120X3.500120*%
%ADD20C,2.100000*%
%ADD21C,1.300000*%
%ADD22R,1.300000X1.300000*%
%ADD23O,1.699260X3.500120*%
%ADD24C,1.000760*%
%ADD25O,1.000000X1.500000*%
%ADD26R,1.000000X1.500000*%
%ADD27R,2.032000X2.032000*%
%ADD28O,2.032000X2.032000*%
%ADD29C,2.500000*%
%ADD30C,1.270000*%
%ADD31C,0.762000*%
%ADD32C,0.600000*%
%ADD33C,0.609600*%
%ADD34C,0.635000*%
%ADD35C,0.381000*%
%ADD36C,1.524000*%
%ADD37C,0.254000*%
G04 APERTURE END LIST*
D10*
D11*
X31496000Y-119888000D03*
X31496000Y-117348000D03*
X31496000Y-114808000D03*
X31496000Y-107188000D03*
X31496000Y-109728000D03*
X31496000Y-112268000D03*
X31496000Y-102108000D03*
X31496000Y-99568000D03*
X31496000Y-97028000D03*
X31496000Y-91948000D03*
X31496000Y-89408000D03*
X79756000Y-119888000D03*
X79756000Y-117348000D03*
X79756000Y-114808000D03*
X79756000Y-112268000D03*
X79756000Y-109728000D03*
X79756000Y-107188000D03*
X79756000Y-104648000D03*
X79756000Y-102108000D03*
X79756000Y-98044000D03*
X79756000Y-95504000D03*
X79756000Y-92964000D03*
X79756000Y-90424000D03*
X79756000Y-87884000D03*
X79756000Y-85344000D03*
X79756000Y-82804000D03*
X79756000Y-80264000D03*
X31496000Y-94488000D03*
X79756000Y-77724000D03*
X79756000Y-75184000D03*
X31496000Y-86868000D03*
D12*
X51943000Y-51943000D03*
X39243000Y-51943000D03*
D13*
X48133000Y-54483000D03*
X46101000Y-54483000D03*
X44069000Y-54483000D03*
X42037000Y-54483000D03*
X49149000Y-56261000D03*
X47117000Y-56261000D03*
X45085000Y-56261000D03*
X43053000Y-56261000D03*
D14*
X26822400Y-62486200D03*
D15*
X30622400Y-54686200D03*
X23022400Y-54686200D03*
D16*
X41402000Y-67818000D03*
X38862000Y-67818000D03*
D17*
X43942000Y-67818000D03*
D18*
X34366200Y-73914000D03*
X34366200Y-71374000D03*
X34366200Y-68834000D03*
X34366200Y-66294000D03*
X26746200Y-66294000D03*
X26746200Y-68834000D03*
X26746200Y-71374000D03*
X26746200Y-73914000D03*
D19*
X88265000Y-60429140D03*
X88265000Y-54429660D03*
X83566000Y-57429400D03*
D20*
X157033000Y-54737000D03*
X152033000Y-54737000D03*
X147033000Y-54737000D03*
X142033000Y-54737000D03*
X137033000Y-54737000D03*
X132033000Y-54737000D03*
X125330000Y-54735000D03*
X120330000Y-54735000D03*
X115330000Y-54735000D03*
X110330000Y-54735000D03*
X105330000Y-54735000D03*
X100330000Y-54735000D03*
D21*
X120142000Y-83058000D03*
D22*
X120142000Y-85558000D03*
D21*
X104902000Y-83058000D03*
D22*
X104902000Y-85558000D03*
D21*
X90170000Y-83058000D03*
D22*
X90170000Y-85558000D03*
D23*
X153416000Y-94742000D03*
X155956000Y-94742000D03*
X150876000Y-94742000D03*
X122936000Y-94742000D03*
X125476000Y-94742000D03*
X120396000Y-94742000D03*
X107696000Y-94742000D03*
X110236000Y-94742000D03*
X105156000Y-94742000D03*
X92456000Y-94742000D03*
X94996000Y-94742000D03*
X89916000Y-94742000D03*
D21*
X135636000Y-83058000D03*
D22*
X135636000Y-85558000D03*
D23*
X138176000Y-94742000D03*
X140716000Y-94742000D03*
X135636000Y-94742000D03*
D24*
X58318400Y-111683800D03*
X59817000Y-111683800D03*
D25*
X56896000Y-71882000D03*
D26*
X55626000Y-71882000D03*
D25*
X54356000Y-71882000D03*
X53086000Y-71882000D03*
D27*
X23622000Y-65278000D03*
D28*
X23622000Y-62738000D03*
D10*
G36*
X115316000Y-103113578D02*
X116850422Y-104648000D01*
X115316000Y-106182422D01*
X113781578Y-104648000D01*
X115316000Y-103113578D01*
X115316000Y-103113578D01*
G37*
D29*
X101173864Y-118790136D03*
D13*
X72644000Y-51404000D03*
X72644000Y-57404000D03*
X61087000Y-51404000D03*
X61087000Y-57404000D03*
D30*
X67183000Y-124206000D03*
X67183000Y-121666000D03*
X67183000Y-119126000D03*
X67183000Y-116586000D03*
X67183000Y-114046000D03*
X67183000Y-111506000D03*
X67183000Y-108966000D03*
X67183000Y-106426000D03*
X67183000Y-103886000D03*
X67183000Y-101346000D03*
X67183000Y-98806000D03*
X67183000Y-96266000D03*
X67183000Y-93726000D03*
X67183000Y-91186000D03*
X67183000Y-88646000D03*
X67183000Y-86106000D03*
X67183000Y-81026000D03*
X67183000Y-83566000D03*
X67183000Y-78486000D03*
X41783000Y-103886000D03*
X41783000Y-98806000D03*
X41783000Y-106426000D03*
X41783000Y-93726000D03*
X41783000Y-101346000D03*
X41783000Y-96266000D03*
X41783000Y-88646000D03*
X41783000Y-81026000D03*
X41783000Y-91186000D03*
X41783000Y-86106000D03*
X41783000Y-78486000D03*
X41783000Y-83566000D03*
X41783000Y-116586000D03*
X41783000Y-114046000D03*
X41783000Y-119126000D03*
X41783000Y-121666000D03*
X41783000Y-124206000D03*
X41783000Y-108966000D03*
X41783000Y-111506000D03*
D27*
X76200000Y-107569000D03*
D28*
X73660000Y-107569000D03*
D31*
X74168000Y-86106000D03*
X35052000Y-96012000D03*
X68554600Y-68275200D03*
X79629000Y-66065400D03*
X83591400Y-62738000D03*
X88149400Y-70880000D03*
X86416200Y-71633400D03*
X39370000Y-106553000D03*
X39990450Y-72322657D03*
X54127400Y-112344200D03*
X57759600Y-108000800D03*
X79959200Y-62433200D03*
X83134200Y-65582800D03*
X81581773Y-74342542D03*
X79476600Y-71628000D03*
D32*
X47447200Y-68630800D03*
X50723800Y-69697600D03*
D31*
X73126600Y-81965800D03*
X72694800Y-76327000D03*
X65684400Y-65252600D03*
X73634600Y-60629800D03*
X74015600Y-100177600D03*
X64516000Y-65252600D03*
X64687000Y-61805000D03*
D33*
X43230800Y-117500400D03*
X39014400Y-117779800D03*
D31*
X83617729Y-94567277D03*
X84289340Y-93603342D03*
X84308330Y-92641517D03*
X84407218Y-91684601D03*
X84578743Y-94523471D03*
X69488666Y-82335840D03*
X55575200Y-65608200D03*
X52677165Y-62678698D03*
X53211540Y-67108262D03*
X51128059Y-65033576D03*
X49740254Y-66364796D03*
X51866800Y-68580000D03*
X52552258Y-67808844D03*
X50413048Y-65677180D03*
X69529795Y-81203617D03*
X54584600Y-65760600D03*
X51971460Y-63361078D03*
X53891266Y-66427499D03*
X51765200Y-64312800D03*
D34*
X83134200Y-65582800D02*
X83108800Y-65582800D01*
X83108800Y-65582800D02*
X79959200Y-62433200D01*
D35*
X81581773Y-73803727D02*
X81581773Y-74342542D01*
X81581773Y-73733173D02*
X81581773Y-73803727D01*
X79476600Y-71628000D02*
X81581773Y-73733173D01*
D34*
X50723800Y-69697600D02*
X48514000Y-69697600D01*
X48514000Y-69697600D02*
X47447200Y-68630800D01*
D36*
X90170000Y-85558000D02*
X90170000Y-87732000D01*
X90170000Y-87732000D02*
X87376000Y-90526000D01*
X87376000Y-90526000D02*
X87376000Y-98628793D01*
X87376000Y-98628793D02*
X89331207Y-100584000D01*
X89331207Y-100584000D02*
X103124000Y-100584000D01*
X120142000Y-85558000D02*
X120142000Y-87732000D01*
X120142000Y-87732000D02*
X118304945Y-89569055D01*
X118304945Y-89569055D02*
X118304945Y-100270945D01*
X118304945Y-100270945D02*
X118618000Y-100584000D01*
X103124000Y-100584000D02*
X118618000Y-100584000D01*
X104902000Y-85558000D02*
X104902000Y-87732000D01*
X104902000Y-87732000D02*
X103124000Y-89510000D01*
X103124000Y-89510000D02*
X103124000Y-100584000D01*
X118618000Y-100584000D02*
X132398856Y-100584000D01*
X132398856Y-100584000D02*
X133632855Y-99350001D01*
X133632855Y-99350001D02*
X133632855Y-89735145D01*
X133632855Y-89735145D02*
X135636000Y-87732000D01*
X135636000Y-87732000D02*
X135636000Y-85558000D01*
D35*
X72694800Y-76327000D02*
X72694800Y-76865815D01*
X72694800Y-76865815D02*
X68580000Y-80980615D01*
X68580000Y-80980615D02*
X68580000Y-82575400D01*
X68580000Y-82575400D02*
X69392800Y-83388200D01*
X69392800Y-83388200D02*
X69767722Y-83388200D01*
X69767722Y-83388200D02*
X71190122Y-81965800D01*
X71190122Y-81965800D02*
X73126600Y-81965800D01*
X73634600Y-60629800D02*
X70307200Y-60629800D01*
X70307200Y-60629800D02*
X65684400Y-65252600D01*
X79756000Y-102108000D02*
X75946000Y-102108000D01*
X75946000Y-102108000D02*
X74015600Y-100177600D01*
X64687000Y-61805000D02*
X64687000Y-65081600D01*
X64687000Y-65081600D02*
X64516000Y-65252600D01*
X39014400Y-117779800D02*
X42951400Y-117779800D01*
X42951400Y-117779800D02*
X43230800Y-117500400D01*
X83236730Y-94948276D02*
X83617729Y-94567277D01*
X82681006Y-95504000D02*
X83236730Y-94948276D01*
X79756000Y-95504000D02*
X82681006Y-95504000D01*
X81407000Y-92964000D02*
X82046342Y-93603342D01*
X82046342Y-93603342D02*
X83750525Y-93603342D01*
X83750525Y-93603342D02*
X84289340Y-93603342D01*
X79756000Y-92964000D02*
X81407000Y-92964000D01*
X82481517Y-92641517D02*
X83769515Y-92641517D01*
X80264000Y-90424000D02*
X82481517Y-92641517D01*
X79756000Y-90424000D02*
X80264000Y-90424000D01*
X83769515Y-92641517D02*
X84308330Y-92641517D01*
X80264000Y-87884000D02*
X84064601Y-91684601D01*
X79756000Y-87884000D02*
X80264000Y-87884000D01*
X84064601Y-91684601D02*
X84407218Y-91684601D01*
X81407000Y-98044000D02*
X84578743Y-94872257D01*
X79756000Y-98044000D02*
X81407000Y-98044000D01*
X84578743Y-94872257D02*
X84578743Y-94523471D01*
X32004000Y-112268000D02*
X31496000Y-112268000D01*
X80924400Y-79019400D02*
X81416510Y-78527290D01*
X81416510Y-76336510D02*
X80264000Y-75184000D01*
X77901800Y-79019400D02*
X80924400Y-79019400D01*
X69488666Y-82335840D02*
X73428713Y-78395793D01*
X73428713Y-78395793D02*
X77278193Y-78395793D01*
X77278193Y-78395793D02*
X77901800Y-79019400D01*
X81416510Y-78527290D02*
X81416510Y-76336510D01*
X80264000Y-75184000D02*
X79756000Y-75184000D01*
X52677165Y-62678698D02*
X55575200Y-65576733D01*
X55575200Y-65576733D02*
X55575200Y-65608200D01*
X53202745Y-67108262D02*
X53211540Y-67108262D01*
X51128059Y-65033576D02*
X53202745Y-67108262D01*
X49740254Y-66453454D02*
X49740254Y-66364796D01*
X51866800Y-68580000D02*
X49740254Y-66453454D01*
X52544712Y-67808844D02*
X52552258Y-67808844D01*
X50413048Y-65677180D02*
X52544712Y-67808844D01*
X69910794Y-80822618D02*
X69529795Y-81203617D01*
X73009412Y-77724000D02*
X69910794Y-80822618D01*
X79756000Y-77724000D02*
X73009412Y-77724000D01*
X79756000Y-77724000D02*
X78280353Y-77724000D01*
X51971460Y-63361078D02*
X52185078Y-63361078D01*
X52185078Y-63361078D02*
X54584600Y-65760600D01*
X53879899Y-66427499D02*
X53891266Y-66427499D01*
X51765200Y-64312800D02*
X53879899Y-66427499D01*
D34*
X72644000Y-51404000D02*
X72644000Y-57404000D01*
X61087000Y-51404000D02*
X61087000Y-57404000D01*
D37*
G36*
X32385000Y-53527509D02*
X32100249Y-53387956D01*
X30802005Y-54686200D01*
X32100249Y-55984444D01*
X32385000Y-55844891D01*
X32385000Y-67945000D01*
X32395006Y-67994410D01*
X32422197Y-68034803D01*
X32955898Y-68568504D01*
X32903087Y-68834000D01*
X33012320Y-69383151D01*
X33323389Y-69848698D01*
X33727903Y-70118986D01*
X33511066Y-70221611D01*
X33135159Y-70636577D01*
X32974296Y-71024961D01*
X33096285Y-71247000D01*
X34239200Y-71247000D01*
X34239200Y-71227000D01*
X34493200Y-71227000D01*
X34493200Y-71247000D01*
X34513200Y-71247000D01*
X34513200Y-71501000D01*
X34493200Y-71501000D01*
X34493200Y-73787000D01*
X34513200Y-73787000D01*
X34513200Y-74041000D01*
X34493200Y-74041000D01*
X34493200Y-74061000D01*
X34239200Y-74061000D01*
X34239200Y-74041000D01*
X34219200Y-74041000D01*
X34219200Y-73787000D01*
X34239200Y-73787000D01*
X34239200Y-71501000D01*
X33096285Y-71501000D01*
X33042856Y-71598250D01*
X29045803Y-67601197D01*
X29003789Y-67573334D01*
X28956000Y-67564000D01*
X27406925Y-67564000D01*
X27789011Y-67308698D01*
X28100080Y-66843151D01*
X28209313Y-66294000D01*
X28100080Y-65744849D01*
X27789011Y-65279302D01*
X27323464Y-64968233D01*
X26774313Y-64859000D01*
X26718087Y-64859000D01*
X26168936Y-64968233D01*
X25703389Y-65279302D01*
X25392320Y-65744849D01*
X25285440Y-66282171D01*
X25285440Y-64262000D01*
X25241162Y-64026683D01*
X25102090Y-63810559D01*
X24939052Y-63699160D01*
X25028385Y-63602818D01*
X25227975Y-63120944D01*
X25108836Y-62865000D01*
X23749000Y-62865000D01*
X23749000Y-62885000D01*
X23495000Y-62885000D01*
X23495000Y-62865000D01*
X22135164Y-62865000D01*
X22016025Y-63120944D01*
X22215615Y-63602818D01*
X22306097Y-63700398D01*
X22154559Y-63797910D01*
X22009569Y-64010110D01*
X21958560Y-64262000D01*
X21958560Y-66294000D01*
X22002838Y-66529317D01*
X22141910Y-66745441D01*
X22354110Y-66890431D01*
X22606000Y-66941440D01*
X24638000Y-66941440D01*
X24873317Y-66897162D01*
X25089441Y-66758090D01*
X25234431Y-66545890D01*
X25284253Y-66299862D01*
X25392320Y-66843151D01*
X25703389Y-67308698D01*
X26085475Y-67564000D01*
X21792000Y-67564000D01*
X21792000Y-62785240D01*
X25312138Y-62785240D01*
X25541538Y-63340429D01*
X25965937Y-63765570D01*
X26520725Y-63995938D01*
X27121440Y-63996462D01*
X27676629Y-63767062D01*
X28101770Y-63342663D01*
X28332138Y-62787875D01*
X28332662Y-62187160D01*
X28103262Y-61631971D01*
X27678863Y-61206830D01*
X27124075Y-60976462D01*
X26523360Y-60975938D01*
X25968171Y-61205338D01*
X25543030Y-61629737D01*
X25312662Y-62184525D01*
X25312138Y-62785240D01*
X21792000Y-62785240D01*
X21792000Y-62355056D01*
X22016025Y-62355056D01*
X22135164Y-62611000D01*
X23495000Y-62611000D01*
X23495000Y-61250633D01*
X23749000Y-61250633D01*
X23749000Y-62611000D01*
X25108836Y-62611000D01*
X25227975Y-62355056D01*
X25028385Y-61873182D01*
X24590379Y-61400812D01*
X24004946Y-61132017D01*
X23749000Y-61250633D01*
X23495000Y-61250633D01*
X23239054Y-61132017D01*
X22653621Y-61400812D01*
X22215615Y-61873182D01*
X22016025Y-62355056D01*
X21792000Y-62355056D01*
X21792000Y-56302482D01*
X21877835Y-56477624D01*
X22650508Y-56779266D01*
X23479798Y-56762258D01*
X24166965Y-56477624D01*
X24320644Y-56164049D01*
X29324156Y-56164049D01*
X29477835Y-56477624D01*
X30250508Y-56779266D01*
X31079798Y-56762258D01*
X31766965Y-56477624D01*
X31920644Y-56164049D01*
X30622400Y-54865805D01*
X29324156Y-56164049D01*
X24320644Y-56164049D01*
X23022400Y-54865805D01*
X23008258Y-54879948D01*
X22828653Y-54700343D01*
X22842795Y-54686200D01*
X23202005Y-54686200D01*
X24500249Y-55984444D01*
X24813824Y-55830765D01*
X25115466Y-55058092D01*
X25100212Y-54314308D01*
X28529334Y-54314308D01*
X28546342Y-55143598D01*
X28830976Y-55830765D01*
X29144551Y-55984444D01*
X30442795Y-54686200D01*
X29144551Y-53387956D01*
X28830976Y-53541635D01*
X28529334Y-54314308D01*
X25100212Y-54314308D01*
X25098458Y-54228802D01*
X24813824Y-53541635D01*
X24500249Y-53387956D01*
X23202005Y-54686200D01*
X22842795Y-54686200D01*
X22828653Y-54672058D01*
X23008258Y-54492453D01*
X23022400Y-54506595D01*
X24320644Y-53208351D01*
X29324156Y-53208351D01*
X30622400Y-54506595D01*
X31920644Y-53208351D01*
X31766965Y-52894776D01*
X30994292Y-52593134D01*
X30165002Y-52610142D01*
X29477835Y-52894776D01*
X29324156Y-53208351D01*
X24320644Y-53208351D01*
X24166965Y-52894776D01*
X23394292Y-52593134D01*
X22565002Y-52610142D01*
X21877835Y-52894776D01*
X21792000Y-53069918D01*
X21792000Y-50748000D01*
X32385000Y-50748000D01*
X32385000Y-53527509D01*
X32385000Y-53527509D01*
G37*
X32385000Y-53527509D02*
X32100249Y-53387956D01*
X30802005Y-54686200D01*
X32100249Y-55984444D01*
X32385000Y-55844891D01*
X32385000Y-67945000D01*
X32395006Y-67994410D01*
X32422197Y-68034803D01*
X32955898Y-68568504D01*
X32903087Y-68834000D01*
X33012320Y-69383151D01*
X33323389Y-69848698D01*
X33727903Y-70118986D01*
X33511066Y-70221611D01*
X33135159Y-70636577D01*
X32974296Y-71024961D01*
X33096285Y-71247000D01*
X34239200Y-71247000D01*
X34239200Y-71227000D01*
X34493200Y-71227000D01*
X34493200Y-71247000D01*
X34513200Y-71247000D01*
X34513200Y-71501000D01*
X34493200Y-71501000D01*
X34493200Y-73787000D01*
X34513200Y-73787000D01*
X34513200Y-74041000D01*
X34493200Y-74041000D01*
X34493200Y-74061000D01*
X34239200Y-74061000D01*
X34239200Y-74041000D01*
X34219200Y-74041000D01*
X34219200Y-73787000D01*
X34239200Y-73787000D01*
X34239200Y-71501000D01*
X33096285Y-71501000D01*
X33042856Y-71598250D01*
X29045803Y-67601197D01*
X29003789Y-67573334D01*
X28956000Y-67564000D01*
X27406925Y-67564000D01*
X27789011Y-67308698D01*
X28100080Y-66843151D01*
X28209313Y-66294000D01*
X28100080Y-65744849D01*
X27789011Y-65279302D01*
X27323464Y-64968233D01*
X26774313Y-64859000D01*
X26718087Y-64859000D01*
X26168936Y-64968233D01*
X25703389Y-65279302D01*
X25392320Y-65744849D01*
X25285440Y-66282171D01*
X25285440Y-64262000D01*
X25241162Y-64026683D01*
X25102090Y-63810559D01*
X24939052Y-63699160D01*
X25028385Y-63602818D01*
X25227975Y-63120944D01*
X25108836Y-62865000D01*
X23749000Y-62865000D01*
X23749000Y-62885000D01*
X23495000Y-62885000D01*
X23495000Y-62865000D01*
X22135164Y-62865000D01*
X22016025Y-63120944D01*
X22215615Y-63602818D01*
X22306097Y-63700398D01*
X22154559Y-63797910D01*
X22009569Y-64010110D01*
X21958560Y-64262000D01*
X21958560Y-66294000D01*
X22002838Y-66529317D01*
X22141910Y-66745441D01*
X22354110Y-66890431D01*
X22606000Y-66941440D01*
X24638000Y-66941440D01*
X24873317Y-66897162D01*
X25089441Y-66758090D01*
X25234431Y-66545890D01*
X25284253Y-66299862D01*
X25392320Y-66843151D01*
X25703389Y-67308698D01*
X26085475Y-67564000D01*
X21792000Y-67564000D01*
X21792000Y-62785240D01*
X25312138Y-62785240D01*
X25541538Y-63340429D01*
X25965937Y-63765570D01*
X26520725Y-63995938D01*
X27121440Y-63996462D01*
X27676629Y-63767062D01*
X28101770Y-63342663D01*
X28332138Y-62787875D01*
X28332662Y-62187160D01*
X28103262Y-61631971D01*
X27678863Y-61206830D01*
X27124075Y-60976462D01*
X26523360Y-60975938D01*
X25968171Y-61205338D01*
X25543030Y-61629737D01*
X25312662Y-62184525D01*
X25312138Y-62785240D01*
X21792000Y-62785240D01*
X21792000Y-62355056D01*
X22016025Y-62355056D01*
X22135164Y-62611000D01*
X23495000Y-62611000D01*
X23495000Y-61250633D01*
X23749000Y-61250633D01*
X23749000Y-62611000D01*
X25108836Y-62611000D01*
X25227975Y-62355056D01*
X25028385Y-61873182D01*
X24590379Y-61400812D01*
X24004946Y-61132017D01*
X23749000Y-61250633D01*
X23495000Y-61250633D01*
X23239054Y-61132017D01*
X22653621Y-61400812D01*
X22215615Y-61873182D01*
X22016025Y-62355056D01*
X21792000Y-62355056D01*
X21792000Y-56302482D01*
X21877835Y-56477624D01*
X22650508Y-56779266D01*
X23479798Y-56762258D01*
X24166965Y-56477624D01*
X24320644Y-56164049D01*
X29324156Y-56164049D01*
X29477835Y-56477624D01*
X30250508Y-56779266D01*
X31079798Y-56762258D01*
X31766965Y-56477624D01*
X31920644Y-56164049D01*
X30622400Y-54865805D01*
X29324156Y-56164049D01*
X24320644Y-56164049D01*
X23022400Y-54865805D01*
X23008258Y-54879948D01*
X22828653Y-54700343D01*
X22842795Y-54686200D01*
X23202005Y-54686200D01*
X24500249Y-55984444D01*
X24813824Y-55830765D01*
X25115466Y-55058092D01*
X25100212Y-54314308D01*
X28529334Y-54314308D01*
X28546342Y-55143598D01*
X28830976Y-55830765D01*
X29144551Y-55984444D01*
X30442795Y-54686200D01*
X29144551Y-53387956D01*
X28830976Y-53541635D01*
X28529334Y-54314308D01*
X25100212Y-54314308D01*
X25098458Y-54228802D01*
X24813824Y-53541635D01*
X24500249Y-53387956D01*
X23202005Y-54686200D01*
X22842795Y-54686200D01*
X22828653Y-54672058D01*
X23008258Y-54492453D01*
X23022400Y-54506595D01*
X24320644Y-53208351D01*
X29324156Y-53208351D01*
X30622400Y-54506595D01*
X31920644Y-53208351D01*
X31766965Y-52894776D01*
X30994292Y-52593134D01*
X30165002Y-52610142D01*
X29477835Y-52894776D01*
X29324156Y-53208351D01*
X24320644Y-53208351D01*
X24166965Y-52894776D01*
X23394292Y-52593134D01*
X22565002Y-52610142D01*
X21877835Y-52894776D01*
X21792000Y-53069918D01*
X21792000Y-50748000D01*
X32385000Y-50748000D01*
X32385000Y-53527509D01*
G36*
X99325991Y-50762875D02*
X99145206Y-51198255D01*
X99144794Y-51669677D01*
X99324820Y-52105372D01*
X99657875Y-52439009D01*
X100093255Y-52619794D01*
X100564677Y-52620206D01*
X101000372Y-52440180D01*
X101334009Y-52107125D01*
X101514794Y-51671745D01*
X101515206Y-51200323D01*
X101335180Y-50764628D01*
X101318581Y-50748000D01*
X104340892Y-50748000D01*
X104325991Y-50762875D01*
X104145206Y-51198255D01*
X104144794Y-51669677D01*
X104324820Y-52105372D01*
X104657875Y-52439009D01*
X105093255Y-52619794D01*
X105564677Y-52620206D01*
X106000372Y-52440180D01*
X106334009Y-52107125D01*
X106514794Y-51671745D01*
X106515206Y-51200323D01*
X106335180Y-50764628D01*
X106318581Y-50748000D01*
X109340892Y-50748000D01*
X109325991Y-50762875D01*
X109145206Y-51198255D01*
X109144794Y-51669677D01*
X109324820Y-52105372D01*
X109657875Y-52439009D01*
X110093255Y-52619794D01*
X110564677Y-52620206D01*
X111000372Y-52440180D01*
X111334009Y-52107125D01*
X111514794Y-51671745D01*
X111515206Y-51200323D01*
X111335180Y-50764628D01*
X111318581Y-50748000D01*
X114340892Y-50748000D01*
X114325991Y-50762875D01*
X114145206Y-51198255D01*
X114144794Y-51669677D01*
X114324820Y-52105372D01*
X114657875Y-52439009D01*
X115093255Y-52619794D01*
X115564677Y-52620206D01*
X116000372Y-52440180D01*
X116334009Y-52107125D01*
X116514794Y-51671745D01*
X116515206Y-51200323D01*
X116335180Y-50764628D01*
X116318581Y-50748000D01*
X119340892Y-50748000D01*
X119325991Y-50762875D01*
X119145206Y-51198255D01*
X119144794Y-51669677D01*
X119324820Y-52105372D01*
X119657875Y-52439009D01*
X120093255Y-52619794D01*
X120564677Y-52620206D01*
X121000372Y-52440180D01*
X121334009Y-52107125D01*
X121514794Y-51671745D01*
X121515206Y-51200323D01*
X121335180Y-50764628D01*
X121318581Y-50748000D01*
X124340892Y-50748000D01*
X124325991Y-50762875D01*
X124145206Y-51198255D01*
X124144794Y-51669677D01*
X124324820Y-52105372D01*
X124657875Y-52439009D01*
X125093255Y-52619794D01*
X125564677Y-52620206D01*
X126000372Y-52440180D01*
X126334009Y-52107125D01*
X126514794Y-51671745D01*
X126515206Y-51200323D01*
X126335180Y-50764628D01*
X126318581Y-50748000D01*
X131045895Y-50748000D01*
X131028991Y-50764875D01*
X130848206Y-51200255D01*
X130847794Y-51671677D01*
X131027820Y-52107372D01*
X131360875Y-52441009D01*
X131796255Y-52621794D01*
X132267677Y-52622206D01*
X132703372Y-52442180D01*
X133037009Y-52109125D01*
X133217794Y-51673745D01*
X133218206Y-51202323D01*
X133038180Y-50766628D01*
X133019584Y-50748000D01*
X136045895Y-50748000D01*
X136028991Y-50764875D01*
X135848206Y-51200255D01*
X135847794Y-51671677D01*
X136027820Y-52107372D01*
X136360875Y-52441009D01*
X136796255Y-52621794D01*
X137267677Y-52622206D01*
X137703372Y-52442180D01*
X138037009Y-52109125D01*
X138217794Y-51673745D01*
X138218206Y-51202323D01*
X138038180Y-50766628D01*
X138019584Y-50748000D01*
X141045895Y-50748000D01*
X141028991Y-50764875D01*
X140848206Y-51200255D01*
X140847794Y-51671677D01*
X141027820Y-52107372D01*
X141360875Y-52441009D01*
X141796255Y-52621794D01*
X142267677Y-52622206D01*
X142703372Y-52442180D01*
X143037009Y-52109125D01*
X143217794Y-51673745D01*
X143218206Y-51202323D01*
X143038180Y-50766628D01*
X143019584Y-50748000D01*
X146045895Y-50748000D01*
X146028991Y-50764875D01*
X145848206Y-51200255D01*
X145847794Y-51671677D01*
X146027820Y-52107372D01*
X146360875Y-52441009D01*
X146796255Y-52621794D01*
X147267677Y-52622206D01*
X147703372Y-52442180D01*
X148037009Y-52109125D01*
X148217794Y-51673745D01*
X148218206Y-51202323D01*
X148038180Y-50766628D01*
X148019584Y-50748000D01*
X151045895Y-50748000D01*
X151028991Y-50764875D01*
X150848206Y-51200255D01*
X150847794Y-51671677D01*
X151027820Y-52107372D01*
X151360875Y-52441009D01*
X151796255Y-52621794D01*
X152267677Y-52622206D01*
X152703372Y-52442180D01*
X153037009Y-52109125D01*
X153217794Y-51673745D01*
X153218206Y-51202323D01*
X153038180Y-50766628D01*
X153019584Y-50748000D01*
X156045895Y-50748000D01*
X156028991Y-50764875D01*
X155848206Y-51200255D01*
X155847794Y-51671677D01*
X156027820Y-52107372D01*
X156360875Y-52441009D01*
X156796255Y-52621794D01*
X157267677Y-52622206D01*
X157703372Y-52442180D01*
X158037009Y-52109125D01*
X158217794Y-51673745D01*
X158218206Y-51202323D01*
X158038180Y-50766628D01*
X158019584Y-50748000D01*
X159893000Y-50748000D01*
X159893000Y-58801000D01*
X104267000Y-58801000D01*
X104217590Y-58811006D01*
X104177197Y-58838197D01*
X99769394Y-63246000D01*
X86868000Y-63246000D01*
X86868000Y-62814200D01*
X87979250Y-62814200D01*
X88138000Y-62655450D01*
X88138000Y-60556140D01*
X88392000Y-60556140D01*
X88392000Y-62655450D01*
X88550750Y-62814200D01*
X90141370Y-62814200D01*
X90374759Y-62717527D01*
X90553387Y-62538898D01*
X90650060Y-62305509D01*
X90650060Y-60714890D01*
X90491310Y-60556140D01*
X88392000Y-60556140D01*
X88138000Y-60556140D01*
X88118000Y-60556140D01*
X88118000Y-60302140D01*
X88138000Y-60302140D01*
X88138000Y-58202830D01*
X88392000Y-58202830D01*
X88392000Y-60302140D01*
X90491310Y-60302140D01*
X90650060Y-60143390D01*
X90650060Y-58552771D01*
X90553387Y-58319382D01*
X90374759Y-58140753D01*
X90141370Y-58044080D01*
X88550750Y-58044080D01*
X88392000Y-58202830D01*
X88138000Y-58202830D01*
X87979250Y-58044080D01*
X86868000Y-58044080D01*
X86868000Y-57912000D01*
X95631000Y-57912000D01*
X95680410Y-57901994D01*
X95720803Y-57874803D01*
X98006803Y-55588803D01*
X98034666Y-55546789D01*
X98044000Y-55499000D01*
X98044000Y-55068697D01*
X98644708Y-55068697D01*
X98900694Y-55688229D01*
X99374278Y-56162640D01*
X99993362Y-56419707D01*
X100663697Y-56420292D01*
X101283229Y-56164306D01*
X101524252Y-55923703D01*
X104320902Y-55923703D01*
X104425687Y-56195745D01*
X105053526Y-56430619D01*
X105723456Y-56407349D01*
X106234313Y-56195745D01*
X106339098Y-55923703D01*
X105330000Y-54914605D01*
X104320902Y-55923703D01*
X101524252Y-55923703D01*
X101757640Y-55690722D01*
X102014707Y-55071638D01*
X102015242Y-54458526D01*
X103634381Y-54458526D01*
X103657651Y-55128456D01*
X103869255Y-55639313D01*
X104141297Y-55744098D01*
X105150395Y-54735000D01*
X105509605Y-54735000D01*
X106518703Y-55744098D01*
X106790745Y-55639313D01*
X107004211Y-55068697D01*
X108644708Y-55068697D01*
X108900694Y-55688229D01*
X109374278Y-56162640D01*
X109993362Y-56419707D01*
X110663697Y-56420292D01*
X111283229Y-56164306D01*
X111524252Y-55923703D01*
X114320902Y-55923703D01*
X114425687Y-56195745D01*
X115053526Y-56430619D01*
X115723456Y-56407349D01*
X116234313Y-56195745D01*
X116339098Y-55923703D01*
X115330000Y-54914605D01*
X114320902Y-55923703D01*
X111524252Y-55923703D01*
X111757640Y-55690722D01*
X112014707Y-55071638D01*
X112015242Y-54458526D01*
X113634381Y-54458526D01*
X113657651Y-55128456D01*
X113869255Y-55639313D01*
X114141297Y-55744098D01*
X115150395Y-54735000D01*
X115509605Y-54735000D01*
X116518703Y-55744098D01*
X116790745Y-55639313D01*
X117004211Y-55068697D01*
X118644708Y-55068697D01*
X118900694Y-55688229D01*
X119374278Y-56162640D01*
X119993362Y-56419707D01*
X120663697Y-56420292D01*
X121283229Y-56164306D01*
X121524252Y-55923703D01*
X124320902Y-55923703D01*
X124425687Y-56195745D01*
X125053526Y-56430619D01*
X125723456Y-56407349D01*
X126234313Y-56195745D01*
X126338327Y-55925703D01*
X131023902Y-55925703D01*
X131128687Y-56197745D01*
X131756526Y-56432619D01*
X132426456Y-56409349D01*
X132937313Y-56197745D01*
X133042098Y-55925703D01*
X132033000Y-54916605D01*
X131023902Y-55925703D01*
X126338327Y-55925703D01*
X126339098Y-55923703D01*
X125330000Y-54914605D01*
X124320902Y-55923703D01*
X121524252Y-55923703D01*
X121757640Y-55690722D01*
X122014707Y-55071638D01*
X122015242Y-54458526D01*
X123634381Y-54458526D01*
X123657651Y-55128456D01*
X123869255Y-55639313D01*
X124141297Y-55744098D01*
X125150395Y-54735000D01*
X125509605Y-54735000D01*
X126518703Y-55744098D01*
X126790745Y-55639313D01*
X127025619Y-55011474D01*
X127006482Y-54460526D01*
X130337381Y-54460526D01*
X130360651Y-55130456D01*
X130572255Y-55641313D01*
X130844297Y-55746098D01*
X131853395Y-54737000D01*
X132212605Y-54737000D01*
X133221703Y-55746098D01*
X133493745Y-55641313D01*
X133707211Y-55070697D01*
X135347708Y-55070697D01*
X135603694Y-55690229D01*
X136077278Y-56164640D01*
X136696362Y-56421707D01*
X137366697Y-56422292D01*
X137986229Y-56166306D01*
X138460640Y-55692722D01*
X138717707Y-55073638D01*
X138717709Y-55070697D01*
X140347708Y-55070697D01*
X140603694Y-55690229D01*
X141077278Y-56164640D01*
X141696362Y-56421707D01*
X142366697Y-56422292D01*
X142986229Y-56166306D01*
X143460640Y-55692722D01*
X143717707Y-55073638D01*
X143717709Y-55070697D01*
X145347708Y-55070697D01*
X145603694Y-55690229D01*
X146077278Y-56164640D01*
X146696362Y-56421707D01*
X147366697Y-56422292D01*
X147986229Y-56166306D01*
X148227252Y-55925703D01*
X151023902Y-55925703D01*
X151128687Y-56197745D01*
X151756526Y-56432619D01*
X152426456Y-56409349D01*
X152937313Y-56197745D01*
X153042098Y-55925703D01*
X156023902Y-55925703D01*
X156128687Y-56197745D01*
X156756526Y-56432619D01*
X157426456Y-56409349D01*
X157937313Y-56197745D01*
X158042098Y-55925703D01*
X157033000Y-54916605D01*
X156023902Y-55925703D01*
X153042098Y-55925703D01*
X152033000Y-54916605D01*
X151023902Y-55925703D01*
X148227252Y-55925703D01*
X148460640Y-55692722D01*
X148717707Y-55073638D01*
X148718242Y-54460526D01*
X150337381Y-54460526D01*
X150360651Y-55130456D01*
X150572255Y-55641313D01*
X150844297Y-55746098D01*
X151853395Y-54737000D01*
X152212605Y-54737000D01*
X153221703Y-55746098D01*
X153493745Y-55641313D01*
X153728619Y-55013474D01*
X153709413Y-54460526D01*
X155337381Y-54460526D01*
X155360651Y-55130456D01*
X155572255Y-55641313D01*
X155844297Y-55746098D01*
X156853395Y-54737000D01*
X157212605Y-54737000D01*
X158221703Y-55746098D01*
X158493745Y-55641313D01*
X158728619Y-55013474D01*
X158705349Y-54343544D01*
X158493745Y-53832687D01*
X158221703Y-53727902D01*
X157212605Y-54737000D01*
X156853395Y-54737000D01*
X155844297Y-53727902D01*
X155572255Y-53832687D01*
X155337381Y-54460526D01*
X153709413Y-54460526D01*
X153705349Y-54343544D01*
X153493745Y-53832687D01*
X153221703Y-53727902D01*
X152212605Y-54737000D01*
X151853395Y-54737000D01*
X150844297Y-53727902D01*
X150572255Y-53832687D01*
X150337381Y-54460526D01*
X148718242Y-54460526D01*
X148718292Y-54403303D01*
X148462306Y-53783771D01*
X148227243Y-53548297D01*
X151023902Y-53548297D01*
X152033000Y-54557395D01*
X153042098Y-53548297D01*
X156023902Y-53548297D01*
X157033000Y-54557395D01*
X158042098Y-53548297D01*
X157937313Y-53276255D01*
X157309474Y-53041381D01*
X156639544Y-53064651D01*
X156128687Y-53276255D01*
X156023902Y-53548297D01*
X153042098Y-53548297D01*
X152937313Y-53276255D01*
X152309474Y-53041381D01*
X151639544Y-53064651D01*
X151128687Y-53276255D01*
X151023902Y-53548297D01*
X148227243Y-53548297D01*
X147988722Y-53309360D01*
X147369638Y-53052293D01*
X146699303Y-53051708D01*
X146079771Y-53307694D01*
X145605360Y-53781278D01*
X145348293Y-54400362D01*
X145347708Y-55070697D01*
X143717709Y-55070697D01*
X143718292Y-54403303D01*
X143462306Y-53783771D01*
X142988722Y-53309360D01*
X142369638Y-53052293D01*
X141699303Y-53051708D01*
X141079771Y-53307694D01*
X140605360Y-53781278D01*
X140348293Y-54400362D01*
X140347708Y-55070697D01*
X138717709Y-55070697D01*
X138718292Y-54403303D01*
X138462306Y-53783771D01*
X137988722Y-53309360D01*
X137369638Y-53052293D01*
X136699303Y-53051708D01*
X136079771Y-53307694D01*
X135605360Y-53781278D01*
X135348293Y-54400362D01*
X135347708Y-55070697D01*
X133707211Y-55070697D01*
X133728619Y-55013474D01*
X133705349Y-54343544D01*
X133493745Y-53832687D01*
X133221703Y-53727902D01*
X132212605Y-54737000D01*
X131853395Y-54737000D01*
X130844297Y-53727902D01*
X130572255Y-53832687D01*
X130337381Y-54460526D01*
X127006482Y-54460526D01*
X127002349Y-54341544D01*
X126790745Y-53830687D01*
X126518703Y-53725902D01*
X125509605Y-54735000D01*
X125150395Y-54735000D01*
X124141297Y-53725902D01*
X123869255Y-53830687D01*
X123634381Y-54458526D01*
X122015242Y-54458526D01*
X122015292Y-54401303D01*
X121759306Y-53781771D01*
X121524243Y-53546297D01*
X124320902Y-53546297D01*
X125330000Y-54555395D01*
X126337098Y-53548297D01*
X131023902Y-53548297D01*
X132033000Y-54557395D01*
X133042098Y-53548297D01*
X132937313Y-53276255D01*
X132309474Y-53041381D01*
X131639544Y-53064651D01*
X131128687Y-53276255D01*
X131023902Y-53548297D01*
X126337098Y-53548297D01*
X126339098Y-53546297D01*
X126234313Y-53274255D01*
X125606474Y-53039381D01*
X124936544Y-53062651D01*
X124425687Y-53274255D01*
X124320902Y-53546297D01*
X121524243Y-53546297D01*
X121285722Y-53307360D01*
X120666638Y-53050293D01*
X119996303Y-53049708D01*
X119376771Y-53305694D01*
X118902360Y-53779278D01*
X118645293Y-54398362D01*
X118644708Y-55068697D01*
X117004211Y-55068697D01*
X117025619Y-55011474D01*
X117002349Y-54341544D01*
X116790745Y-53830687D01*
X116518703Y-53725902D01*
X115509605Y-54735000D01*
X115150395Y-54735000D01*
X114141297Y-53725902D01*
X113869255Y-53830687D01*
X113634381Y-54458526D01*
X112015242Y-54458526D01*
X112015292Y-54401303D01*
X111759306Y-53781771D01*
X111524243Y-53546297D01*
X114320902Y-53546297D01*
X115330000Y-54555395D01*
X116339098Y-53546297D01*
X116234313Y-53274255D01*
X115606474Y-53039381D01*
X114936544Y-53062651D01*
X114425687Y-53274255D01*
X114320902Y-53546297D01*
X111524243Y-53546297D01*
X111285722Y-53307360D01*
X110666638Y-53050293D01*
X109996303Y-53049708D01*
X109376771Y-53305694D01*
X108902360Y-53779278D01*
X108645293Y-54398362D01*
X108644708Y-55068697D01*
X107004211Y-55068697D01*
X107025619Y-55011474D01*
X107002349Y-54341544D01*
X106790745Y-53830687D01*
X106518703Y-53725902D01*
X105509605Y-54735000D01*
X105150395Y-54735000D01*
X104141297Y-53725902D01*
X103869255Y-53830687D01*
X103634381Y-54458526D01*
X102015242Y-54458526D01*
X102015292Y-54401303D01*
X101759306Y-53781771D01*
X101524243Y-53546297D01*
X104320902Y-53546297D01*
X105330000Y-54555395D01*
X106339098Y-53546297D01*
X106234313Y-53274255D01*
X105606474Y-53039381D01*
X104936544Y-53062651D01*
X104425687Y-53274255D01*
X104320902Y-53546297D01*
X101524243Y-53546297D01*
X101285722Y-53307360D01*
X100666638Y-53050293D01*
X99996303Y-53049708D01*
X99376771Y-53305694D01*
X98902360Y-53779278D01*
X98645293Y-54398362D01*
X98644708Y-55068697D01*
X98044000Y-55068697D01*
X98044000Y-50748000D01*
X99340892Y-50748000D01*
X99325991Y-50762875D01*
X99325991Y-50762875D01*
G37*
X99325991Y-50762875D02*
X99145206Y-51198255D01*
X99144794Y-51669677D01*
X99324820Y-52105372D01*
X99657875Y-52439009D01*
X100093255Y-52619794D01*
X100564677Y-52620206D01*
X101000372Y-52440180D01*
X101334009Y-52107125D01*
X101514794Y-51671745D01*
X101515206Y-51200323D01*
X101335180Y-50764628D01*
X101318581Y-50748000D01*
X104340892Y-50748000D01*
X104325991Y-50762875D01*
X104145206Y-51198255D01*
X104144794Y-51669677D01*
X104324820Y-52105372D01*
X104657875Y-52439009D01*
X105093255Y-52619794D01*
X105564677Y-52620206D01*
X106000372Y-52440180D01*
X106334009Y-52107125D01*
X106514794Y-51671745D01*
X106515206Y-51200323D01*
X106335180Y-50764628D01*
X106318581Y-50748000D01*
X109340892Y-50748000D01*
X109325991Y-50762875D01*
X109145206Y-51198255D01*
X109144794Y-51669677D01*
X109324820Y-52105372D01*
X109657875Y-52439009D01*
X110093255Y-52619794D01*
X110564677Y-52620206D01*
X111000372Y-52440180D01*
X111334009Y-52107125D01*
X111514794Y-51671745D01*
X111515206Y-51200323D01*
X111335180Y-50764628D01*
X111318581Y-50748000D01*
X114340892Y-50748000D01*
X114325991Y-50762875D01*
X114145206Y-51198255D01*
X114144794Y-51669677D01*
X114324820Y-52105372D01*
X114657875Y-52439009D01*
X115093255Y-52619794D01*
X115564677Y-52620206D01*
X116000372Y-52440180D01*
X116334009Y-52107125D01*
X116514794Y-51671745D01*
X116515206Y-51200323D01*
X116335180Y-50764628D01*
X116318581Y-50748000D01*
X119340892Y-50748000D01*
X119325991Y-50762875D01*
X119145206Y-51198255D01*
X119144794Y-51669677D01*
X119324820Y-52105372D01*
X119657875Y-52439009D01*
X120093255Y-52619794D01*
X120564677Y-52620206D01*
X121000372Y-52440180D01*
X121334009Y-52107125D01*
X121514794Y-51671745D01*
X121515206Y-51200323D01*
X121335180Y-50764628D01*
X121318581Y-50748000D01*
X124340892Y-50748000D01*
X124325991Y-50762875D01*
X124145206Y-51198255D01*
X124144794Y-51669677D01*
X124324820Y-52105372D01*
X124657875Y-52439009D01*
X125093255Y-52619794D01*
X125564677Y-52620206D01*
X126000372Y-52440180D01*
X126334009Y-52107125D01*
X126514794Y-51671745D01*
X126515206Y-51200323D01*
X126335180Y-50764628D01*
X126318581Y-50748000D01*
X131045895Y-50748000D01*
X131028991Y-50764875D01*
X130848206Y-51200255D01*
X130847794Y-51671677D01*
X131027820Y-52107372D01*
X131360875Y-52441009D01*
X131796255Y-52621794D01*
X132267677Y-52622206D01*
X132703372Y-52442180D01*
X133037009Y-52109125D01*
X133217794Y-51673745D01*
X133218206Y-51202323D01*
X133038180Y-50766628D01*
X133019584Y-50748000D01*
X136045895Y-50748000D01*
X136028991Y-50764875D01*
X135848206Y-51200255D01*
X135847794Y-51671677D01*
X136027820Y-52107372D01*
X136360875Y-52441009D01*
X136796255Y-52621794D01*
X137267677Y-52622206D01*
X137703372Y-52442180D01*
X138037009Y-52109125D01*
X138217794Y-51673745D01*
X138218206Y-51202323D01*
X138038180Y-50766628D01*
X138019584Y-50748000D01*
X141045895Y-50748000D01*
X141028991Y-50764875D01*
X140848206Y-51200255D01*
X140847794Y-51671677D01*
X141027820Y-52107372D01*
X141360875Y-52441009D01*
X141796255Y-52621794D01*
X142267677Y-52622206D01*
X142703372Y-52442180D01*
X143037009Y-52109125D01*
X143217794Y-51673745D01*
X143218206Y-51202323D01*
X143038180Y-50766628D01*
X143019584Y-50748000D01*
X146045895Y-50748000D01*
X146028991Y-50764875D01*
X145848206Y-51200255D01*
X145847794Y-51671677D01*
X146027820Y-52107372D01*
X146360875Y-52441009D01*
X146796255Y-52621794D01*
X147267677Y-52622206D01*
X147703372Y-52442180D01*
X148037009Y-52109125D01*
X148217794Y-51673745D01*
X148218206Y-51202323D01*
X148038180Y-50766628D01*
X148019584Y-50748000D01*
X151045895Y-50748000D01*
X151028991Y-50764875D01*
X150848206Y-51200255D01*
X150847794Y-51671677D01*
X151027820Y-52107372D01*
X151360875Y-52441009D01*
X151796255Y-52621794D01*
X152267677Y-52622206D01*
X152703372Y-52442180D01*
X153037009Y-52109125D01*
X153217794Y-51673745D01*
X153218206Y-51202323D01*
X153038180Y-50766628D01*
X153019584Y-50748000D01*
X156045895Y-50748000D01*
X156028991Y-50764875D01*
X155848206Y-51200255D01*
X155847794Y-51671677D01*
X156027820Y-52107372D01*
X156360875Y-52441009D01*
X156796255Y-52621794D01*
X157267677Y-52622206D01*
X157703372Y-52442180D01*
X158037009Y-52109125D01*
X158217794Y-51673745D01*
X158218206Y-51202323D01*
X158038180Y-50766628D01*
X158019584Y-50748000D01*
X159893000Y-50748000D01*
X159893000Y-58801000D01*
X104267000Y-58801000D01*
X104217590Y-58811006D01*
X104177197Y-58838197D01*
X99769394Y-63246000D01*
X86868000Y-63246000D01*
X86868000Y-62814200D01*
X87979250Y-62814200D01*
X88138000Y-62655450D01*
X88138000Y-60556140D01*
X88392000Y-60556140D01*
X88392000Y-62655450D01*
X88550750Y-62814200D01*
X90141370Y-62814200D01*
X90374759Y-62717527D01*
X90553387Y-62538898D01*
X90650060Y-62305509D01*
X90650060Y-60714890D01*
X90491310Y-60556140D01*
X88392000Y-60556140D01*
X88138000Y-60556140D01*
X88118000Y-60556140D01*
X88118000Y-60302140D01*
X88138000Y-60302140D01*
X88138000Y-58202830D01*
X88392000Y-58202830D01*
X88392000Y-60302140D01*
X90491310Y-60302140D01*
X90650060Y-60143390D01*
X90650060Y-58552771D01*
X90553387Y-58319382D01*
X90374759Y-58140753D01*
X90141370Y-58044080D01*
X88550750Y-58044080D01*
X88392000Y-58202830D01*
X88138000Y-58202830D01*
X87979250Y-58044080D01*
X86868000Y-58044080D01*
X86868000Y-57912000D01*
X95631000Y-57912000D01*
X95680410Y-57901994D01*
X95720803Y-57874803D01*
X98006803Y-55588803D01*
X98034666Y-55546789D01*
X98044000Y-55499000D01*
X98044000Y-55068697D01*
X98644708Y-55068697D01*
X98900694Y-55688229D01*
X99374278Y-56162640D01*
X99993362Y-56419707D01*
X100663697Y-56420292D01*
X101283229Y-56164306D01*
X101524252Y-55923703D01*
X104320902Y-55923703D01*
X104425687Y-56195745D01*
X105053526Y-56430619D01*
X105723456Y-56407349D01*
X106234313Y-56195745D01*
X106339098Y-55923703D01*
X105330000Y-54914605D01*
X104320902Y-55923703D01*
X101524252Y-55923703D01*
X101757640Y-55690722D01*
X102014707Y-55071638D01*
X102015242Y-54458526D01*
X103634381Y-54458526D01*
X103657651Y-55128456D01*
X103869255Y-55639313D01*
X104141297Y-55744098D01*
X105150395Y-54735000D01*
X105509605Y-54735000D01*
X106518703Y-55744098D01*
X106790745Y-55639313D01*
X107004211Y-55068697D01*
X108644708Y-55068697D01*
X108900694Y-55688229D01*
X109374278Y-56162640D01*
X109993362Y-56419707D01*
X110663697Y-56420292D01*
X111283229Y-56164306D01*
X111524252Y-55923703D01*
X114320902Y-55923703D01*
X114425687Y-56195745D01*
X115053526Y-56430619D01*
X115723456Y-56407349D01*
X116234313Y-56195745D01*
X116339098Y-55923703D01*
X115330000Y-54914605D01*
X114320902Y-55923703D01*
X111524252Y-55923703D01*
X111757640Y-55690722D01*
X112014707Y-55071638D01*
X112015242Y-54458526D01*
X113634381Y-54458526D01*
X113657651Y-55128456D01*
X113869255Y-55639313D01*
X114141297Y-55744098D01*
X115150395Y-54735000D01*
X115509605Y-54735000D01*
X116518703Y-55744098D01*
X116790745Y-55639313D01*
X117004211Y-55068697D01*
X118644708Y-55068697D01*
X118900694Y-55688229D01*
X119374278Y-56162640D01*
X119993362Y-56419707D01*
X120663697Y-56420292D01*
X121283229Y-56164306D01*
X121524252Y-55923703D01*
X124320902Y-55923703D01*
X124425687Y-56195745D01*
X125053526Y-56430619D01*
X125723456Y-56407349D01*
X126234313Y-56195745D01*
X126338327Y-55925703D01*
X131023902Y-55925703D01*
X131128687Y-56197745D01*
X131756526Y-56432619D01*
X132426456Y-56409349D01*
X132937313Y-56197745D01*
X133042098Y-55925703D01*
X132033000Y-54916605D01*
X131023902Y-55925703D01*
X126338327Y-55925703D01*
X126339098Y-55923703D01*
X125330000Y-54914605D01*
X124320902Y-55923703D01*
X121524252Y-55923703D01*
X121757640Y-55690722D01*
X122014707Y-55071638D01*
X122015242Y-54458526D01*
X123634381Y-54458526D01*
X123657651Y-55128456D01*
X123869255Y-55639313D01*
X124141297Y-55744098D01*
X125150395Y-54735000D01*
X125509605Y-54735000D01*
X126518703Y-55744098D01*
X126790745Y-55639313D01*
X127025619Y-55011474D01*
X127006482Y-54460526D01*
X130337381Y-54460526D01*
X130360651Y-55130456D01*
X130572255Y-55641313D01*
X130844297Y-55746098D01*
X131853395Y-54737000D01*
X132212605Y-54737000D01*
X133221703Y-55746098D01*
X133493745Y-55641313D01*
X133707211Y-55070697D01*
X135347708Y-55070697D01*
X135603694Y-55690229D01*
X136077278Y-56164640D01*
X136696362Y-56421707D01*
X137366697Y-56422292D01*
X137986229Y-56166306D01*
X138460640Y-55692722D01*
X138717707Y-55073638D01*
X138717709Y-55070697D01*
X140347708Y-55070697D01*
X140603694Y-55690229D01*
X141077278Y-56164640D01*
X141696362Y-56421707D01*
X142366697Y-56422292D01*
X142986229Y-56166306D01*
X143460640Y-55692722D01*
X143717707Y-55073638D01*
X143717709Y-55070697D01*
X145347708Y-55070697D01*
X145603694Y-55690229D01*
X146077278Y-56164640D01*
X146696362Y-56421707D01*
X147366697Y-56422292D01*
X147986229Y-56166306D01*
X148227252Y-55925703D01*
X151023902Y-55925703D01*
X151128687Y-56197745D01*
X151756526Y-56432619D01*
X152426456Y-56409349D01*
X152937313Y-56197745D01*
X153042098Y-55925703D01*
X156023902Y-55925703D01*
X156128687Y-56197745D01*
X156756526Y-56432619D01*
X157426456Y-56409349D01*
X157937313Y-56197745D01*
X158042098Y-55925703D01*
X157033000Y-54916605D01*
X156023902Y-55925703D01*
X153042098Y-55925703D01*
X152033000Y-54916605D01*
X151023902Y-55925703D01*
X148227252Y-55925703D01*
X148460640Y-55692722D01*
X148717707Y-55073638D01*
X148718242Y-54460526D01*
X150337381Y-54460526D01*
X150360651Y-55130456D01*
X150572255Y-55641313D01*
X150844297Y-55746098D01*
X151853395Y-54737000D01*
X152212605Y-54737000D01*
X153221703Y-55746098D01*
X153493745Y-55641313D01*
X153728619Y-55013474D01*
X153709413Y-54460526D01*
X155337381Y-54460526D01*
X155360651Y-55130456D01*
X155572255Y-55641313D01*
X155844297Y-55746098D01*
X156853395Y-54737000D01*
X157212605Y-54737000D01*
X158221703Y-55746098D01*
X158493745Y-55641313D01*
X158728619Y-55013474D01*
X158705349Y-54343544D01*
X158493745Y-53832687D01*
X158221703Y-53727902D01*
X157212605Y-54737000D01*
X156853395Y-54737000D01*
X155844297Y-53727902D01*
X155572255Y-53832687D01*
X155337381Y-54460526D01*
X153709413Y-54460526D01*
X153705349Y-54343544D01*
X153493745Y-53832687D01*
X153221703Y-53727902D01*
X152212605Y-54737000D01*
X151853395Y-54737000D01*
X150844297Y-53727902D01*
X150572255Y-53832687D01*
X150337381Y-54460526D01*
X148718242Y-54460526D01*
X148718292Y-54403303D01*
X148462306Y-53783771D01*
X148227243Y-53548297D01*
X151023902Y-53548297D01*
X152033000Y-54557395D01*
X153042098Y-53548297D01*
X156023902Y-53548297D01*
X157033000Y-54557395D01*
X158042098Y-53548297D01*
X157937313Y-53276255D01*
X157309474Y-53041381D01*
X156639544Y-53064651D01*
X156128687Y-53276255D01*
X156023902Y-53548297D01*
X153042098Y-53548297D01*
X152937313Y-53276255D01*
X152309474Y-53041381D01*
X151639544Y-53064651D01*
X151128687Y-53276255D01*
X151023902Y-53548297D01*
X148227243Y-53548297D01*
X147988722Y-53309360D01*
X147369638Y-53052293D01*
X146699303Y-53051708D01*
X146079771Y-53307694D01*
X145605360Y-53781278D01*
X145348293Y-54400362D01*
X145347708Y-55070697D01*
X143717709Y-55070697D01*
X143718292Y-54403303D01*
X143462306Y-53783771D01*
X142988722Y-53309360D01*
X142369638Y-53052293D01*
X141699303Y-53051708D01*
X141079771Y-53307694D01*
X140605360Y-53781278D01*
X140348293Y-54400362D01*
X140347708Y-55070697D01*
X138717709Y-55070697D01*
X138718292Y-54403303D01*
X138462306Y-53783771D01*
X137988722Y-53309360D01*
X137369638Y-53052293D01*
X136699303Y-53051708D01*
X136079771Y-53307694D01*
X135605360Y-53781278D01*
X135348293Y-54400362D01*
X135347708Y-55070697D01*
X133707211Y-55070697D01*
X133728619Y-55013474D01*
X133705349Y-54343544D01*
X133493745Y-53832687D01*
X133221703Y-53727902D01*
X132212605Y-54737000D01*
X131853395Y-54737000D01*
X130844297Y-53727902D01*
X130572255Y-53832687D01*
X130337381Y-54460526D01*
X127006482Y-54460526D01*
X127002349Y-54341544D01*
X126790745Y-53830687D01*
X126518703Y-53725902D01*
X125509605Y-54735000D01*
X125150395Y-54735000D01*
X124141297Y-53725902D01*
X123869255Y-53830687D01*
X123634381Y-54458526D01*
X122015242Y-54458526D01*
X122015292Y-54401303D01*
X121759306Y-53781771D01*
X121524243Y-53546297D01*
X124320902Y-53546297D01*
X125330000Y-54555395D01*
X126337098Y-53548297D01*
X131023902Y-53548297D01*
X132033000Y-54557395D01*
X133042098Y-53548297D01*
X132937313Y-53276255D01*
X132309474Y-53041381D01*
X131639544Y-53064651D01*
X131128687Y-53276255D01*
X131023902Y-53548297D01*
X126337098Y-53548297D01*
X126339098Y-53546297D01*
X126234313Y-53274255D01*
X125606474Y-53039381D01*
X124936544Y-53062651D01*
X124425687Y-53274255D01*
X124320902Y-53546297D01*
X121524243Y-53546297D01*
X121285722Y-53307360D01*
X120666638Y-53050293D01*
X119996303Y-53049708D01*
X119376771Y-53305694D01*
X118902360Y-53779278D01*
X118645293Y-54398362D01*
X118644708Y-55068697D01*
X117004211Y-55068697D01*
X117025619Y-55011474D01*
X117002349Y-54341544D01*
X116790745Y-53830687D01*
X116518703Y-53725902D01*
X115509605Y-54735000D01*
X115150395Y-54735000D01*
X114141297Y-53725902D01*
X113869255Y-53830687D01*
X113634381Y-54458526D01*
X112015242Y-54458526D01*
X112015292Y-54401303D01*
X111759306Y-53781771D01*
X111524243Y-53546297D01*
X114320902Y-53546297D01*
X115330000Y-54555395D01*
X116339098Y-53546297D01*
X116234313Y-53274255D01*
X115606474Y-53039381D01*
X114936544Y-53062651D01*
X114425687Y-53274255D01*
X114320902Y-53546297D01*
X111524243Y-53546297D01*
X111285722Y-53307360D01*
X110666638Y-53050293D01*
X109996303Y-53049708D01*
X109376771Y-53305694D01*
X108902360Y-53779278D01*
X108645293Y-54398362D01*
X108644708Y-55068697D01*
X107004211Y-55068697D01*
X107025619Y-55011474D01*
X107002349Y-54341544D01*
X106790745Y-53830687D01*
X106518703Y-53725902D01*
X105509605Y-54735000D01*
X105150395Y-54735000D01*
X104141297Y-53725902D01*
X103869255Y-53830687D01*
X103634381Y-54458526D01*
X102015242Y-54458526D01*
X102015292Y-54401303D01*
X101759306Y-53781771D01*
X101524243Y-53546297D01*
X104320902Y-53546297D01*
X105330000Y-54555395D01*
X106339098Y-53546297D01*
X106234313Y-53274255D01*
X105606474Y-53039381D01*
X104936544Y-53062651D01*
X104425687Y-53274255D01*
X104320902Y-53546297D01*
X101524243Y-53546297D01*
X101285722Y-53307360D01*
X100666638Y-53050293D01*
X99996303Y-53049708D01*
X99376771Y-53305694D01*
X98902360Y-53779278D01*
X98645293Y-54398362D01*
X98644708Y-55068697D01*
X98044000Y-55068697D01*
X98044000Y-50748000D01*
X99340892Y-50748000D01*
X99325991Y-50762875D01*
G36*
X73919952Y-50540043D02*
X73919954Y-50540046D01*
X74150295Y-50693954D01*
X74422000Y-50748000D01*
X96901000Y-50748000D01*
X96901000Y-54811394D01*
X94943394Y-56769000D01*
X90251748Y-56769000D01*
X90374759Y-56718047D01*
X90553387Y-56539418D01*
X90650060Y-56306029D01*
X90650060Y-54715410D01*
X90491310Y-54556660D01*
X88392000Y-54556660D01*
X88392000Y-54576660D01*
X88138000Y-54576660D01*
X88138000Y-54556660D01*
X86038690Y-54556660D01*
X85879940Y-54715410D01*
X85879940Y-55381332D01*
X85854387Y-55319642D01*
X85675759Y-55141013D01*
X85442370Y-55044340D01*
X83851750Y-55044340D01*
X83693000Y-55203090D01*
X83693000Y-57302400D01*
X83713000Y-57302400D01*
X83713000Y-57556400D01*
X83693000Y-57556400D01*
X83693000Y-59655710D01*
X83851750Y-59814460D01*
X85442370Y-59814460D01*
X85675759Y-59717787D01*
X85725000Y-59668546D01*
X85725000Y-64135000D01*
X85735006Y-64184410D01*
X85763447Y-64226035D01*
X85805841Y-64253315D01*
X85852000Y-64262000D01*
X100076000Y-64262000D01*
X100125410Y-64251994D01*
X100165803Y-64224803D01*
X104573606Y-59817000D01*
X160782000Y-59817000D01*
X160831410Y-59806994D01*
X160873035Y-59778553D01*
X160900315Y-59736159D01*
X160909000Y-59690000D01*
X160909000Y-50748000D01*
X162612000Y-50748000D01*
X162612000Y-127560000D01*
X21792000Y-127560000D01*
X21792000Y-125094133D01*
X41074472Y-125094133D01*
X41128303Y-125323179D01*
X41605664Y-125488681D01*
X42110023Y-125458906D01*
X42437697Y-125323179D01*
X42491528Y-125094133D01*
X41783000Y-124385605D01*
X41074472Y-125094133D01*
X21792000Y-125094133D01*
X21792000Y-122821109D01*
X22398657Y-122821109D01*
X22700218Y-123550943D01*
X23258120Y-124109819D01*
X23987427Y-124412654D01*
X24777109Y-124413343D01*
X25506943Y-124111782D01*
X25590206Y-124028664D01*
X40500319Y-124028664D01*
X40530094Y-124533023D01*
X40665821Y-124860697D01*
X40894867Y-124914528D01*
X41603395Y-124206000D01*
X41962605Y-124206000D01*
X42671133Y-124914528D01*
X42900179Y-124860697D01*
X43065681Y-124383336D01*
X43035906Y-123878977D01*
X42900179Y-123551303D01*
X42671133Y-123497472D01*
X41962605Y-124206000D01*
X41603395Y-124206000D01*
X40894867Y-123497472D01*
X40665821Y-123551303D01*
X40500319Y-124028664D01*
X25590206Y-124028664D01*
X26065819Y-123553880D01*
X26368654Y-122824573D01*
X26369343Y-122034891D01*
X26067782Y-121305057D01*
X25509880Y-120746181D01*
X24780573Y-120443346D01*
X23990891Y-120442657D01*
X23261057Y-120744218D01*
X22702181Y-121302120D01*
X22399346Y-122031427D01*
X22398657Y-122821109D01*
X21792000Y-122821109D01*
X21792000Y-107188000D01*
X29553679Y-107188000D01*
X29660019Y-107722609D01*
X29962851Y-108175828D01*
X30385150Y-108458000D01*
X29962851Y-108740172D01*
X29660019Y-109193391D01*
X29553679Y-109728000D01*
X29660019Y-110262609D01*
X29962851Y-110715828D01*
X30385150Y-110998000D01*
X29962851Y-111280172D01*
X29660019Y-111733391D01*
X29553679Y-112268000D01*
X29660019Y-112802609D01*
X29962851Y-113255828D01*
X30385150Y-113538000D01*
X29962851Y-113820172D01*
X29660019Y-114273391D01*
X29553679Y-114808000D01*
X29660019Y-115342609D01*
X29962851Y-115795828D01*
X30385150Y-116078000D01*
X29962851Y-116360172D01*
X29660019Y-116813391D01*
X29553679Y-117348000D01*
X29660019Y-117882609D01*
X29962851Y-118335828D01*
X30385150Y-118618000D01*
X29962851Y-118900172D01*
X29660019Y-119353391D01*
X29553679Y-119888000D01*
X29660019Y-120422609D01*
X29962851Y-120875828D01*
X30416070Y-121178660D01*
X30950679Y-121285000D01*
X32041321Y-121285000D01*
X32575930Y-121178660D01*
X33029149Y-120875828D01*
X33331981Y-120422609D01*
X33438321Y-119888000D01*
X33331981Y-119353391D01*
X33029149Y-118900172D01*
X32606850Y-118618000D01*
X33029149Y-118335828D01*
X33276315Y-117965918D01*
X38074437Y-117965918D01*
X38217212Y-118311459D01*
X38481351Y-118576059D01*
X38826642Y-118719437D01*
X39200518Y-118719763D01*
X39477539Y-118605300D01*
X40624078Y-118605300D01*
X40513221Y-118872273D01*
X40512780Y-119377510D01*
X40705718Y-119844458D01*
X41062663Y-120202026D01*
X41529273Y-120395779D01*
X41531488Y-120395781D01*
X41064542Y-120588718D01*
X40706974Y-120945663D01*
X40513221Y-121412273D01*
X40512780Y-121917510D01*
X40705718Y-122384458D01*
X41062663Y-122742026D01*
X41529273Y-122935779D01*
X41746071Y-122935968D01*
X41455977Y-122953094D01*
X41128303Y-123088821D01*
X41074472Y-123317867D01*
X41783000Y-124026395D01*
X42491528Y-123317867D01*
X42437697Y-123088821D01*
X41997453Y-122936188D01*
X42034510Y-122936220D01*
X42501458Y-122743282D01*
X42859026Y-122386337D01*
X43052779Y-121919727D01*
X43053220Y-121414490D01*
X42860282Y-120947542D01*
X42503337Y-120589974D01*
X42036727Y-120396221D01*
X42034512Y-120396219D01*
X42501458Y-120203282D01*
X42859026Y-119846337D01*
X43052779Y-119379727D01*
X43053220Y-118874490D01*
X42941994Y-118605300D01*
X42951400Y-118605300D01*
X43267306Y-118542463D01*
X43425280Y-118436908D01*
X43762459Y-118297588D01*
X44027059Y-118033449D01*
X44170437Y-117688158D01*
X44170763Y-117314282D01*
X44027988Y-116968741D01*
X43763849Y-116704141D01*
X43418558Y-116560763D01*
X43053023Y-116560444D01*
X43053220Y-116334490D01*
X42860282Y-115867542D01*
X42503337Y-115509974D01*
X42036727Y-115316221D01*
X42034512Y-115316219D01*
X42501458Y-115123282D01*
X42859026Y-114766337D01*
X43052779Y-114299727D01*
X43053220Y-113794490D01*
X42860282Y-113327542D01*
X42503337Y-112969974D01*
X42036727Y-112776221D01*
X42034512Y-112776219D01*
X42501458Y-112583282D01*
X42859026Y-112226337D01*
X42990940Y-111908650D01*
X57182824Y-111908650D01*
X57355311Y-112326101D01*
X57674419Y-112645767D01*
X58091568Y-112818982D01*
X58543250Y-112819376D01*
X58960701Y-112646889D01*
X59067606Y-112540170D01*
X59173019Y-112645767D01*
X59590168Y-112818982D01*
X60041850Y-112819376D01*
X60459301Y-112646889D01*
X60778967Y-112327781D01*
X60952182Y-111910632D01*
X60952576Y-111458950D01*
X60780089Y-111041499D01*
X60460981Y-110721833D01*
X60043832Y-110548618D01*
X59592150Y-110548224D01*
X59174699Y-110720711D01*
X59067794Y-110827430D01*
X58962381Y-110721833D01*
X58545232Y-110548618D01*
X58093550Y-110548224D01*
X57676099Y-110720711D01*
X57356433Y-111039819D01*
X57183218Y-111456968D01*
X57182824Y-111908650D01*
X42990940Y-111908650D01*
X43052779Y-111759727D01*
X43053220Y-111254490D01*
X42860282Y-110787542D01*
X42503337Y-110429974D01*
X42036727Y-110236221D01*
X41819929Y-110236032D01*
X42110023Y-110218906D01*
X42437697Y-110083179D01*
X42491528Y-109854133D01*
X41783000Y-109145605D01*
X41074472Y-109854133D01*
X41128303Y-110083179D01*
X41568547Y-110235812D01*
X41531490Y-110235780D01*
X41064542Y-110428718D01*
X40706974Y-110785663D01*
X40513221Y-111252273D01*
X40512780Y-111757510D01*
X40705718Y-112224458D01*
X41062663Y-112582026D01*
X41529273Y-112775779D01*
X41531488Y-112775781D01*
X41064542Y-112968718D01*
X40706974Y-113325663D01*
X40513221Y-113792273D01*
X40512780Y-114297510D01*
X40705718Y-114764458D01*
X41062663Y-115122026D01*
X41529273Y-115315779D01*
X41531488Y-115315781D01*
X41064542Y-115508718D01*
X40706974Y-115865663D01*
X40513221Y-116332273D01*
X40512780Y-116837510D01*
X40561036Y-116954300D01*
X39477029Y-116954300D01*
X39202158Y-116840163D01*
X38828282Y-116839837D01*
X38482741Y-116982612D01*
X38218141Y-117246751D01*
X38074763Y-117592042D01*
X38074437Y-117965918D01*
X33276315Y-117965918D01*
X33331981Y-117882609D01*
X33438321Y-117348000D01*
X33331981Y-116813391D01*
X33029149Y-116360172D01*
X32606850Y-116078000D01*
X33029149Y-115795828D01*
X33331981Y-115342609D01*
X33438321Y-114808000D01*
X33331981Y-114273391D01*
X33029149Y-113820172D01*
X32606850Y-113538000D01*
X33029149Y-113255828D01*
X33331981Y-112802609D01*
X33438321Y-112268000D01*
X33331981Y-111733391D01*
X33029149Y-111280172D01*
X32606850Y-110998000D01*
X33029149Y-110715828D01*
X33331981Y-110262609D01*
X33438321Y-109728000D01*
X33331981Y-109193391D01*
X33061551Y-108788664D01*
X40500319Y-108788664D01*
X40530094Y-109293023D01*
X40665821Y-109620697D01*
X40894867Y-109674528D01*
X41603395Y-108966000D01*
X41962605Y-108966000D01*
X42671133Y-109674528D01*
X42900179Y-109620697D01*
X43065681Y-109143336D01*
X43035906Y-108638977D01*
X42900179Y-108311303D01*
X42671133Y-108257472D01*
X41962605Y-108966000D01*
X41603395Y-108966000D01*
X40894867Y-108257472D01*
X40665821Y-108311303D01*
X40500319Y-108788664D01*
X33061551Y-108788664D01*
X33029149Y-108740172D01*
X32606850Y-108458000D01*
X33029149Y-108175828D01*
X33331981Y-107722609D01*
X33438321Y-107188000D01*
X33331981Y-106653391D01*
X33029149Y-106200172D01*
X32575930Y-105897340D01*
X32041321Y-105791000D01*
X30950679Y-105791000D01*
X30416070Y-105897340D01*
X29962851Y-106200172D01*
X29660019Y-106653391D01*
X29553679Y-107188000D01*
X21792000Y-107188000D01*
X21792000Y-102108000D01*
X29553679Y-102108000D01*
X29660019Y-102642609D01*
X29962851Y-103095828D01*
X30416070Y-103398660D01*
X30950679Y-103505000D01*
X32041321Y-103505000D01*
X32575930Y-103398660D01*
X33029149Y-103095828D01*
X33331981Y-102642609D01*
X33438321Y-102108000D01*
X33331981Y-101573391D01*
X33029149Y-101120172D01*
X32592887Y-100828670D01*
X32655941Y-100810059D01*
X33081630Y-100466026D01*
X33343260Y-99985277D01*
X33358220Y-99911070D01*
X33235720Y-99695000D01*
X31623000Y-99695000D01*
X31623000Y-99715000D01*
X31369000Y-99715000D01*
X31369000Y-99695000D01*
X29756280Y-99695000D01*
X29633780Y-99911070D01*
X29648740Y-99985277D01*
X29910370Y-100466026D01*
X30336059Y-100810059D01*
X30399113Y-100828670D01*
X29962851Y-101120172D01*
X29660019Y-101573391D01*
X29553679Y-102108000D01*
X21792000Y-102108000D01*
X21792000Y-97371070D01*
X29633780Y-97371070D01*
X29648740Y-97445277D01*
X29910370Y-97926026D01*
X30336059Y-98270059D01*
X30430723Y-98298000D01*
X30336059Y-98325941D01*
X29910370Y-98669974D01*
X29648740Y-99150723D01*
X29633780Y-99224930D01*
X29756280Y-99441000D01*
X31369000Y-99441000D01*
X31369000Y-97155000D01*
X31623000Y-97155000D01*
X31623000Y-99441000D01*
X33235720Y-99441000D01*
X33358220Y-99224930D01*
X33343260Y-99150723D01*
X33081630Y-98669974D01*
X32655941Y-98325941D01*
X32561277Y-98298000D01*
X32655941Y-98270059D01*
X33081630Y-97926026D01*
X33343260Y-97445277D01*
X33358220Y-97371070D01*
X33235720Y-97155000D01*
X31623000Y-97155000D01*
X31369000Y-97155000D01*
X29756280Y-97155000D01*
X29633780Y-97371070D01*
X21792000Y-97371070D01*
X21792000Y-92341109D01*
X22398657Y-92341109D01*
X22700218Y-93070943D01*
X23258120Y-93629819D01*
X23987427Y-93932654D01*
X24777109Y-93933343D01*
X25506943Y-93631782D01*
X26065819Y-93073880D01*
X26368654Y-92344573D01*
X26369343Y-91554891D01*
X26067782Y-90825057D01*
X25509880Y-90266181D01*
X24780573Y-89963346D01*
X23990891Y-89962657D01*
X23261057Y-90264218D01*
X22702181Y-90822120D01*
X22399346Y-91551427D01*
X22398657Y-92341109D01*
X21792000Y-92341109D01*
X21792000Y-86868000D01*
X29553679Y-86868000D01*
X29660019Y-87402609D01*
X29962851Y-87855828D01*
X30385150Y-88138000D01*
X29962851Y-88420172D01*
X29660019Y-88873391D01*
X29553679Y-89408000D01*
X29660019Y-89942609D01*
X29962851Y-90395828D01*
X30385150Y-90678000D01*
X29962851Y-90960172D01*
X29660019Y-91413391D01*
X29553679Y-91948000D01*
X29660019Y-92482609D01*
X29962851Y-92935828D01*
X30385150Y-93218000D01*
X29962851Y-93500172D01*
X29660019Y-93953391D01*
X29553679Y-94488000D01*
X29660019Y-95022609D01*
X29962851Y-95475828D01*
X30399113Y-95767330D01*
X30336059Y-95785941D01*
X29910370Y-96129974D01*
X29648740Y-96610723D01*
X29633780Y-96684930D01*
X29756280Y-96901000D01*
X31369000Y-96901000D01*
X31369000Y-96881000D01*
X31623000Y-96881000D01*
X31623000Y-96901000D01*
X33235720Y-96901000D01*
X33358220Y-96684930D01*
X33343260Y-96610723D01*
X33081630Y-96129974D01*
X32655941Y-95785941D01*
X32592887Y-95767330D01*
X33029149Y-95475828D01*
X33331981Y-95022609D01*
X33438321Y-94488000D01*
X33331981Y-93953391D01*
X33029149Y-93500172D01*
X32606850Y-93218000D01*
X33029149Y-92935828D01*
X33331981Y-92482609D01*
X33438321Y-91948000D01*
X33331981Y-91413391D01*
X33029149Y-90960172D01*
X32606850Y-90678000D01*
X33029149Y-90395828D01*
X33331981Y-89942609D01*
X33438321Y-89408000D01*
X33331981Y-88873391D01*
X33029149Y-88420172D01*
X32606850Y-88138000D01*
X33029149Y-87855828D01*
X33331981Y-87402609D01*
X33438321Y-86868000D01*
X33331981Y-86333391D01*
X33029149Y-85880172D01*
X32575930Y-85577340D01*
X32041321Y-85471000D01*
X30950679Y-85471000D01*
X30416070Y-85577340D01*
X29962851Y-85880172D01*
X29660019Y-86333391D01*
X29553679Y-86868000D01*
X21792000Y-86868000D01*
X21792000Y-78737510D01*
X40512780Y-78737510D01*
X40705718Y-79204458D01*
X41062663Y-79562026D01*
X41529273Y-79755779D01*
X41531488Y-79755781D01*
X41064542Y-79948718D01*
X40706974Y-80305663D01*
X40513221Y-80772273D01*
X40512780Y-81277510D01*
X40705718Y-81744458D01*
X41062663Y-82102026D01*
X41529273Y-82295779D01*
X41531488Y-82295781D01*
X41064542Y-82488718D01*
X40706974Y-82845663D01*
X40513221Y-83312273D01*
X40512780Y-83817510D01*
X40705718Y-84284458D01*
X41062663Y-84642026D01*
X41529273Y-84835779D01*
X41531488Y-84835781D01*
X41064542Y-85028718D01*
X40706974Y-85385663D01*
X40513221Y-85852273D01*
X40512780Y-86357510D01*
X40705718Y-86824458D01*
X41062663Y-87182026D01*
X41529273Y-87375779D01*
X41531488Y-87375781D01*
X41064542Y-87568718D01*
X40706974Y-87925663D01*
X40513221Y-88392273D01*
X40512780Y-88897510D01*
X40705718Y-89364458D01*
X41062663Y-89722026D01*
X41529273Y-89915779D01*
X41531488Y-89915781D01*
X41064542Y-90108718D01*
X40706974Y-90465663D01*
X40513221Y-90932273D01*
X40512780Y-91437510D01*
X40705718Y-91904458D01*
X41062663Y-92262026D01*
X41529273Y-92455779D01*
X41531488Y-92455781D01*
X41064542Y-92648718D01*
X40706974Y-93005663D01*
X40513221Y-93472273D01*
X40512780Y-93977510D01*
X40705718Y-94444458D01*
X41062663Y-94802026D01*
X41529273Y-94995779D01*
X41531488Y-94995781D01*
X41064542Y-95188718D01*
X40706974Y-95545663D01*
X40513221Y-96012273D01*
X40512780Y-96517510D01*
X40705718Y-96984458D01*
X41062663Y-97342026D01*
X41529273Y-97535779D01*
X41531488Y-97535781D01*
X41064542Y-97728718D01*
X40706974Y-98085663D01*
X40513221Y-98552273D01*
X40512780Y-99057510D01*
X40705718Y-99524458D01*
X41062663Y-99882026D01*
X41529273Y-100075779D01*
X41531488Y-100075781D01*
X41064542Y-100268718D01*
X40706974Y-100625663D01*
X40513221Y-101092273D01*
X40512780Y-101597510D01*
X40705718Y-102064458D01*
X41062663Y-102422026D01*
X41529273Y-102615779D01*
X41531488Y-102615781D01*
X41064542Y-102808718D01*
X40706974Y-103165663D01*
X40513221Y-103632273D01*
X40512780Y-104137510D01*
X40705718Y-104604458D01*
X41062663Y-104962026D01*
X41529273Y-105155779D01*
X41531488Y-105155781D01*
X41064542Y-105348718D01*
X40706974Y-105705663D01*
X40513221Y-106172273D01*
X40512780Y-106677510D01*
X40705718Y-107144458D01*
X41062663Y-107502026D01*
X41529273Y-107695779D01*
X41746071Y-107695968D01*
X41455977Y-107713094D01*
X41128303Y-107848821D01*
X41074472Y-108077867D01*
X41783000Y-108786395D01*
X42491528Y-108077867D01*
X42437697Y-107848821D01*
X41997453Y-107696188D01*
X42034510Y-107696220D01*
X42501458Y-107503282D01*
X42859026Y-107146337D01*
X43052779Y-106679727D01*
X43053220Y-106174490D01*
X42860282Y-105707542D01*
X42503337Y-105349974D01*
X42036727Y-105156221D01*
X42034512Y-105156219D01*
X42501458Y-104963282D01*
X42859026Y-104606337D01*
X43052779Y-104139727D01*
X43053220Y-103634490D01*
X42860282Y-103167542D01*
X42503337Y-102809974D01*
X42036727Y-102616221D01*
X42034512Y-102616219D01*
X42501458Y-102423282D01*
X42859026Y-102066337D01*
X43052779Y-101599727D01*
X43053220Y-101094490D01*
X42860282Y-100627542D01*
X42503337Y-100269974D01*
X42036727Y-100076221D01*
X42034512Y-100076219D01*
X42501458Y-99883282D01*
X42859026Y-99526337D01*
X43052779Y-99059727D01*
X43053220Y-98554490D01*
X42860282Y-98087542D01*
X42503337Y-97729974D01*
X42036727Y-97536221D01*
X42034512Y-97536219D01*
X42501458Y-97343282D01*
X42859026Y-96986337D01*
X43052779Y-96519727D01*
X43053220Y-96014490D01*
X42860282Y-95547542D01*
X42503337Y-95189974D01*
X42036727Y-94996221D01*
X42034512Y-94996219D01*
X42501458Y-94803282D01*
X42859026Y-94446337D01*
X43052779Y-93979727D01*
X43052780Y-93977510D01*
X65912780Y-93977510D01*
X66105718Y-94444458D01*
X66462663Y-94802026D01*
X66929273Y-94995779D01*
X66931488Y-94995781D01*
X66464542Y-95188718D01*
X66106974Y-95545663D01*
X65913221Y-96012273D01*
X65912780Y-96517510D01*
X66105718Y-96984458D01*
X66462663Y-97342026D01*
X66929273Y-97535779D01*
X66931488Y-97535781D01*
X66464542Y-97728718D01*
X66106974Y-98085663D01*
X65913221Y-98552273D01*
X65912780Y-99057510D01*
X66105718Y-99524458D01*
X66462663Y-99882026D01*
X66929273Y-100075779D01*
X66931488Y-100075781D01*
X66464542Y-100268718D01*
X66106974Y-100625663D01*
X65913221Y-101092273D01*
X65912780Y-101597510D01*
X66105718Y-102064458D01*
X66462663Y-102422026D01*
X66929273Y-102615779D01*
X66931488Y-102615781D01*
X66464542Y-102808718D01*
X66106974Y-103165663D01*
X65913221Y-103632273D01*
X65912780Y-104137510D01*
X66105718Y-104604458D01*
X66462663Y-104962026D01*
X66929273Y-105155779D01*
X66931488Y-105155781D01*
X66464542Y-105348718D01*
X66106974Y-105705663D01*
X65913221Y-106172273D01*
X65912780Y-106677510D01*
X66105718Y-107144458D01*
X66462663Y-107502026D01*
X66929273Y-107695779D01*
X66931488Y-107695781D01*
X66464542Y-107888718D01*
X66106974Y-108245663D01*
X65913221Y-108712273D01*
X65912780Y-109217510D01*
X66105718Y-109684458D01*
X66462663Y-110042026D01*
X66929273Y-110235779D01*
X66931488Y-110235781D01*
X66464542Y-110428718D01*
X66106974Y-110785663D01*
X65913221Y-111252273D01*
X65912780Y-111757510D01*
X66105718Y-112224458D01*
X66462663Y-112582026D01*
X66929273Y-112775779D01*
X66931488Y-112775781D01*
X66464542Y-112968718D01*
X66106974Y-113325663D01*
X65913221Y-113792273D01*
X65912780Y-114297510D01*
X66105718Y-114764458D01*
X66462663Y-115122026D01*
X66929273Y-115315779D01*
X66931488Y-115315781D01*
X66464542Y-115508718D01*
X66106974Y-115865663D01*
X65913221Y-116332273D01*
X65912780Y-116837510D01*
X66105718Y-117304458D01*
X66462663Y-117662026D01*
X66929273Y-117855779D01*
X66931488Y-117855781D01*
X66464542Y-118048718D01*
X66106974Y-118405663D01*
X65913221Y-118872273D01*
X65912780Y-119377510D01*
X66105718Y-119844458D01*
X66462663Y-120202026D01*
X66929273Y-120395779D01*
X66931488Y-120395781D01*
X66464542Y-120588718D01*
X66106974Y-120945663D01*
X65913221Y-121412273D01*
X65912780Y-121917510D01*
X66105718Y-122384458D01*
X66462663Y-122742026D01*
X66929273Y-122935779D01*
X66931488Y-122935781D01*
X66464542Y-123128718D01*
X66106974Y-123485663D01*
X65913221Y-123952273D01*
X65912780Y-124457510D01*
X66105718Y-124924458D01*
X66462663Y-125282026D01*
X66929273Y-125475779D01*
X67434510Y-125476220D01*
X67901458Y-125283282D01*
X68259026Y-124926337D01*
X68452779Y-124459727D01*
X68453220Y-123954490D01*
X68260282Y-123487542D01*
X67903337Y-123129974D01*
X67436727Y-122936221D01*
X67434512Y-122936219D01*
X67713101Y-122821109D01*
X158288657Y-122821109D01*
X158590218Y-123550943D01*
X159148120Y-124109819D01*
X159877427Y-124412654D01*
X160667109Y-124413343D01*
X161396943Y-124111782D01*
X161955819Y-123553880D01*
X162258654Y-122824573D01*
X162259343Y-122034891D01*
X161957782Y-121305057D01*
X161399880Y-120746181D01*
X160670573Y-120443346D01*
X159880891Y-120442657D01*
X159151057Y-120744218D01*
X158592181Y-121302120D01*
X158289346Y-122031427D01*
X158288657Y-122821109D01*
X67713101Y-122821109D01*
X67901458Y-122743282D01*
X68259026Y-122386337D01*
X68452779Y-121919727D01*
X68453220Y-121414490D01*
X68260282Y-120947542D01*
X67903337Y-120589974D01*
X67436727Y-120396221D01*
X67434512Y-120396219D01*
X67901458Y-120203282D01*
X68259026Y-119846337D01*
X68452779Y-119379727D01*
X68453220Y-118874490D01*
X68260282Y-118407542D01*
X67903337Y-118049974D01*
X67436727Y-117856221D01*
X67434512Y-117856219D01*
X67901458Y-117663282D01*
X68259026Y-117306337D01*
X68452779Y-116839727D01*
X68453220Y-116334490D01*
X68260282Y-115867542D01*
X67903337Y-115509974D01*
X67436727Y-115316221D01*
X67434512Y-115316219D01*
X67901458Y-115123282D01*
X68259026Y-114766337D01*
X68452779Y-114299727D01*
X68453220Y-113794490D01*
X68260282Y-113327542D01*
X67903337Y-112969974D01*
X67436727Y-112776221D01*
X67434512Y-112776219D01*
X67901458Y-112583282D01*
X68259026Y-112226337D01*
X68452779Y-111759727D01*
X68453220Y-111254490D01*
X68260282Y-110787542D01*
X67903337Y-110429974D01*
X67436727Y-110236221D01*
X67434512Y-110236219D01*
X67901458Y-110043282D01*
X68259026Y-109686337D01*
X68452779Y-109219727D01*
X68453220Y-108714490D01*
X68260282Y-108247542D01*
X67965202Y-107951946D01*
X72054017Y-107951946D01*
X72322812Y-108537379D01*
X72795182Y-108975385D01*
X73277056Y-109174975D01*
X73533000Y-109055836D01*
X73533000Y-107696000D01*
X72172633Y-107696000D01*
X72054017Y-107951946D01*
X67965202Y-107951946D01*
X67903337Y-107889974D01*
X67436727Y-107696221D01*
X67434512Y-107696219D01*
X67901458Y-107503282D01*
X68219239Y-107186054D01*
X72054017Y-107186054D01*
X72172633Y-107442000D01*
X73533000Y-107442000D01*
X73533000Y-106082164D01*
X73277056Y-105963025D01*
X72795182Y-106162615D01*
X72322812Y-106600621D01*
X72054017Y-107186054D01*
X68219239Y-107186054D01*
X68259026Y-107146337D01*
X68452779Y-106679727D01*
X68453220Y-106174490D01*
X68260282Y-105707542D01*
X67903337Y-105349974D01*
X67436727Y-105156221D01*
X67434512Y-105156219D01*
X67901458Y-104963282D01*
X68259026Y-104606337D01*
X68452779Y-104139727D01*
X68453220Y-103634490D01*
X68260282Y-103167542D01*
X67903337Y-102809974D01*
X67436727Y-102616221D01*
X67434512Y-102616219D01*
X67901458Y-102423282D01*
X68259026Y-102066337D01*
X68452779Y-101599727D01*
X68453220Y-101094490D01*
X68260282Y-100627542D01*
X68011982Y-100378808D01*
X72999424Y-100378808D01*
X73153775Y-100752366D01*
X73439331Y-101038421D01*
X73812618Y-101193424D01*
X73864035Y-101193469D01*
X75362283Y-102691717D01*
X75630094Y-102870663D01*
X75946000Y-102933501D01*
X75946005Y-102933500D01*
X78114387Y-102933500D01*
X78222851Y-103095828D01*
X78645150Y-103378000D01*
X78222851Y-103660172D01*
X77920019Y-104113391D01*
X77813679Y-104648000D01*
X77920019Y-105182609D01*
X78222851Y-105635828D01*
X78645150Y-105918000D01*
X78222851Y-106200172D01*
X77920019Y-106653391D01*
X77863440Y-106937834D01*
X77863440Y-106553000D01*
X77819162Y-106317683D01*
X77680090Y-106101559D01*
X77467890Y-105956569D01*
X77216000Y-105905560D01*
X75184000Y-105905560D01*
X74948683Y-105949838D01*
X74732559Y-106088910D01*
X74621160Y-106251948D01*
X74524818Y-106162615D01*
X74042944Y-105963025D01*
X73787000Y-106082164D01*
X73787000Y-107442000D01*
X73807000Y-107442000D01*
X73807000Y-107696000D01*
X73787000Y-107696000D01*
X73787000Y-109055836D01*
X74042944Y-109174975D01*
X74524818Y-108975385D01*
X74622398Y-108884903D01*
X74719910Y-109036441D01*
X74932110Y-109181431D01*
X75184000Y-109232440D01*
X77216000Y-109232440D01*
X77451317Y-109188162D01*
X77667441Y-109049090D01*
X77812431Y-108836890D01*
X77863440Y-108585000D01*
X77863440Y-107438166D01*
X77920019Y-107722609D01*
X78222851Y-108175828D01*
X78645150Y-108458000D01*
X78222851Y-108740172D01*
X77920019Y-109193391D01*
X77813679Y-109728000D01*
X77920019Y-110262609D01*
X78222851Y-110715828D01*
X78645150Y-110998000D01*
X78222851Y-111280172D01*
X77920019Y-111733391D01*
X77813679Y-112268000D01*
X77920019Y-112802609D01*
X78222851Y-113255828D01*
X78645150Y-113538000D01*
X78222851Y-113820172D01*
X77920019Y-114273391D01*
X77813679Y-114808000D01*
X77920019Y-115342609D01*
X78222851Y-115795828D01*
X78645150Y-116078000D01*
X78222851Y-116360172D01*
X77920019Y-116813391D01*
X77813679Y-117348000D01*
X77920019Y-117882609D01*
X78222851Y-118335828D01*
X78645150Y-118618000D01*
X78222851Y-118900172D01*
X77920019Y-119353391D01*
X77813679Y-119888000D01*
X77920019Y-120422609D01*
X78222851Y-120875828D01*
X78676070Y-121178660D01*
X79210679Y-121285000D01*
X80301321Y-121285000D01*
X80835930Y-121178660D01*
X81289149Y-120875828D01*
X81591981Y-120422609D01*
X81698321Y-119888000D01*
X81591981Y-119353391D01*
X81465061Y-119163441D01*
X99288538Y-119163441D01*
X99574907Y-119856508D01*
X100104703Y-120387229D01*
X100797269Y-120674808D01*
X101547169Y-120675462D01*
X102240236Y-120389093D01*
X102770957Y-119859297D01*
X103058536Y-119166731D01*
X103059190Y-118416831D01*
X102772821Y-117723764D01*
X102243025Y-117193043D01*
X101550459Y-116905464D01*
X100800559Y-116904810D01*
X100107492Y-117191179D01*
X99576771Y-117720975D01*
X99289192Y-118413541D01*
X99288538Y-119163441D01*
X81465061Y-119163441D01*
X81289149Y-118900172D01*
X80866850Y-118618000D01*
X81289149Y-118335828D01*
X81591981Y-117882609D01*
X81698321Y-117348000D01*
X81591981Y-116813391D01*
X81289149Y-116360172D01*
X80866850Y-116078000D01*
X81289149Y-115795828D01*
X81591981Y-115342609D01*
X81698321Y-114808000D01*
X81591981Y-114273391D01*
X81289149Y-113820172D01*
X80866850Y-113538000D01*
X81289149Y-113255828D01*
X81591981Y-112802609D01*
X81698321Y-112268000D01*
X81646607Y-112008015D01*
X89920641Y-112008015D01*
X90305746Y-112940041D01*
X91018208Y-113653748D01*
X91949561Y-114040479D01*
X92958015Y-114041359D01*
X93890041Y-113656254D01*
X94603748Y-112943792D01*
X94990479Y-112012439D01*
X94990482Y-112008015D01*
X105160641Y-112008015D01*
X105545746Y-112940041D01*
X106258208Y-113653748D01*
X107189561Y-114040479D01*
X108198015Y-114041359D01*
X109130041Y-113656254D01*
X109843748Y-112943792D01*
X110230479Y-112012439D01*
X110230482Y-112008015D01*
X120400641Y-112008015D01*
X120785746Y-112940041D01*
X121498208Y-113653748D01*
X122429561Y-114040479D01*
X123438015Y-114041359D01*
X124370041Y-113656254D01*
X125083748Y-112943792D01*
X125470479Y-112012439D01*
X125470482Y-112008015D01*
X135640641Y-112008015D01*
X136025746Y-112940041D01*
X136738208Y-113653748D01*
X137669561Y-114040479D01*
X138678015Y-114041359D01*
X139610041Y-113656254D01*
X140323748Y-112943792D01*
X140710479Y-112012439D01*
X140710482Y-112008015D01*
X150880641Y-112008015D01*
X151265746Y-112940041D01*
X151978208Y-113653748D01*
X152909561Y-114040479D01*
X153918015Y-114041359D01*
X154850041Y-113656254D01*
X155563748Y-112943792D01*
X155950479Y-112012439D01*
X155951359Y-111003985D01*
X155566254Y-110071959D01*
X154853792Y-109358252D01*
X153922439Y-108971521D01*
X152913985Y-108970641D01*
X151981959Y-109355746D01*
X151268252Y-110068208D01*
X150881521Y-110999561D01*
X150880641Y-112008015D01*
X140710482Y-112008015D01*
X140711359Y-111003985D01*
X140326254Y-110071959D01*
X139613792Y-109358252D01*
X138682439Y-108971521D01*
X137673985Y-108970641D01*
X136741959Y-109355746D01*
X136028252Y-110068208D01*
X135641521Y-110999561D01*
X135640641Y-112008015D01*
X125470482Y-112008015D01*
X125471359Y-111003985D01*
X125086254Y-110071959D01*
X124373792Y-109358252D01*
X123442439Y-108971521D01*
X122433985Y-108970641D01*
X121501959Y-109355746D01*
X120788252Y-110068208D01*
X120401521Y-110999561D01*
X120400641Y-112008015D01*
X110230482Y-112008015D01*
X110231359Y-111003985D01*
X109846254Y-110071959D01*
X109133792Y-109358252D01*
X108202439Y-108971521D01*
X107193985Y-108970641D01*
X106261959Y-109355746D01*
X105548252Y-110068208D01*
X105161521Y-110999561D01*
X105160641Y-112008015D01*
X94990482Y-112008015D01*
X94991359Y-111003985D01*
X94606254Y-110071959D01*
X93893792Y-109358252D01*
X92962439Y-108971521D01*
X91953985Y-108970641D01*
X91021959Y-109355746D01*
X90308252Y-110068208D01*
X89921521Y-110999561D01*
X89920641Y-112008015D01*
X81646607Y-112008015D01*
X81591981Y-111733391D01*
X81289149Y-111280172D01*
X80866850Y-110998000D01*
X81289149Y-110715828D01*
X81591981Y-110262609D01*
X81698321Y-109728000D01*
X81591981Y-109193391D01*
X81289149Y-108740172D01*
X80866850Y-108458000D01*
X81289149Y-108175828D01*
X81591981Y-107722609D01*
X81698321Y-107188000D01*
X81591981Y-106653391D01*
X81289149Y-106200172D01*
X80866850Y-105918000D01*
X80980931Y-105841773D01*
X114301832Y-105841773D01*
X114301832Y-106066279D01*
X114777673Y-106542121D01*
X114956302Y-106720749D01*
X115189691Y-106817422D01*
X115442310Y-106817421D01*
X115675699Y-106720748D01*
X116330168Y-106066279D01*
X116330168Y-105841773D01*
X115316000Y-104827605D01*
X114301832Y-105841773D01*
X80980931Y-105841773D01*
X81289149Y-105635828D01*
X81591981Y-105182609D01*
X81673196Y-104774309D01*
X113146578Y-104774309D01*
X113243251Y-105007698D01*
X113421879Y-105186327D01*
X113897721Y-105662168D01*
X114122227Y-105662168D01*
X115136395Y-104648000D01*
X115495605Y-104648000D01*
X116509773Y-105662168D01*
X116734279Y-105662168D01*
X117388748Y-105007699D01*
X117485421Y-104774310D01*
X117485422Y-104521691D01*
X117388749Y-104288302D01*
X117210121Y-104109673D01*
X116734279Y-103633832D01*
X116509773Y-103633832D01*
X115495605Y-104648000D01*
X115136395Y-104648000D01*
X114122227Y-103633832D01*
X113897721Y-103633832D01*
X113243252Y-104288301D01*
X113146579Y-104521690D01*
X113146578Y-104774309D01*
X81673196Y-104774309D01*
X81698321Y-104648000D01*
X81591981Y-104113391D01*
X81289149Y-103660172D01*
X80866850Y-103378000D01*
X81088764Y-103229721D01*
X114301832Y-103229721D01*
X114301832Y-103454227D01*
X115316000Y-104468395D01*
X116330168Y-103454227D01*
X116330168Y-103229721D01*
X115854327Y-102753879D01*
X115675698Y-102575251D01*
X115442309Y-102478578D01*
X115189690Y-102478579D01*
X114956301Y-102575252D01*
X114301832Y-103229721D01*
X81088764Y-103229721D01*
X81289149Y-103095828D01*
X81591981Y-102642609D01*
X81698321Y-102108000D01*
X81591981Y-101573391D01*
X81289149Y-101120172D01*
X80835930Y-100817340D01*
X80301321Y-100711000D01*
X79210679Y-100711000D01*
X78676070Y-100817340D01*
X78222851Y-101120172D01*
X78114387Y-101282500D01*
X76287934Y-101282500D01*
X75031733Y-100026299D01*
X75031776Y-99976392D01*
X74877425Y-99602834D01*
X74591869Y-99316779D01*
X74218582Y-99161776D01*
X73814392Y-99161424D01*
X73440834Y-99315775D01*
X73154779Y-99601331D01*
X72999776Y-99974618D01*
X72999424Y-100378808D01*
X68011982Y-100378808D01*
X67903337Y-100269974D01*
X67436727Y-100076221D01*
X67434512Y-100076219D01*
X67901458Y-99883282D01*
X68259026Y-99526337D01*
X68452779Y-99059727D01*
X68453220Y-98554490D01*
X68260282Y-98087542D01*
X67903337Y-97729974D01*
X67436727Y-97536221D01*
X67434512Y-97536219D01*
X67901458Y-97343282D01*
X68259026Y-96986337D01*
X68452779Y-96519727D01*
X68453220Y-96014490D01*
X68260282Y-95547542D01*
X67903337Y-95189974D01*
X67436727Y-94996221D01*
X67434512Y-94996219D01*
X67901458Y-94803282D01*
X68259026Y-94446337D01*
X68452779Y-93979727D01*
X68453220Y-93474490D01*
X68260282Y-93007542D01*
X67903337Y-92649974D01*
X67436727Y-92456221D01*
X67219929Y-92456032D01*
X67510023Y-92438906D01*
X67837697Y-92303179D01*
X67891528Y-92074133D01*
X67183000Y-91365605D01*
X66474472Y-92074133D01*
X66528303Y-92303179D01*
X66968547Y-92455812D01*
X66931490Y-92455780D01*
X66464542Y-92648718D01*
X66106974Y-93005663D01*
X65913221Y-93472273D01*
X65912780Y-93977510D01*
X43052780Y-93977510D01*
X43053220Y-93474490D01*
X42860282Y-93007542D01*
X42503337Y-92649974D01*
X42036727Y-92456221D01*
X42034512Y-92456219D01*
X42501458Y-92263282D01*
X42859026Y-91906337D01*
X43052779Y-91439727D01*
X43053155Y-91008664D01*
X65900319Y-91008664D01*
X65930094Y-91513023D01*
X66065821Y-91840697D01*
X66294867Y-91894528D01*
X67003395Y-91186000D01*
X67362605Y-91186000D01*
X68071133Y-91894528D01*
X68300179Y-91840697D01*
X68465681Y-91363336D01*
X68435906Y-90858977D01*
X68300179Y-90531303D01*
X68071133Y-90477472D01*
X67362605Y-91186000D01*
X67003395Y-91186000D01*
X66294867Y-90477472D01*
X66065821Y-90531303D01*
X65900319Y-91008664D01*
X43053155Y-91008664D01*
X43053220Y-90934490D01*
X42860282Y-90467542D01*
X42503337Y-90109974D01*
X42036727Y-89916221D01*
X42034512Y-89916219D01*
X42501458Y-89723282D01*
X42859026Y-89366337D01*
X43052779Y-88899727D01*
X43053220Y-88394490D01*
X42860282Y-87927542D01*
X42503337Y-87569974D01*
X42036727Y-87376221D01*
X42034512Y-87376219D01*
X42501458Y-87183282D01*
X42859026Y-86826337D01*
X43052779Y-86359727D01*
X43053220Y-85854490D01*
X42860282Y-85387542D01*
X42503337Y-85029974D01*
X42036727Y-84836221D01*
X42034512Y-84836219D01*
X42501458Y-84643282D01*
X42859026Y-84286337D01*
X43052779Y-83819727D01*
X43053220Y-83314490D01*
X42860282Y-82847542D01*
X42503337Y-82489974D01*
X42036727Y-82296221D01*
X42034512Y-82296219D01*
X42501458Y-82103282D01*
X42859026Y-81746337D01*
X43052779Y-81279727D01*
X43053220Y-80774490D01*
X42860282Y-80307542D01*
X42503337Y-79949974D01*
X42036727Y-79756221D01*
X42034512Y-79756219D01*
X42501458Y-79563282D01*
X42859026Y-79206337D01*
X43052779Y-78739727D01*
X43052780Y-78737510D01*
X65912780Y-78737510D01*
X66105718Y-79204458D01*
X66462663Y-79562026D01*
X66929273Y-79755779D01*
X66931488Y-79755781D01*
X66464542Y-79948718D01*
X66106974Y-80305663D01*
X65913221Y-80772273D01*
X65912780Y-81277510D01*
X66105718Y-81744458D01*
X66462663Y-82102026D01*
X66929273Y-82295779D01*
X66931488Y-82295781D01*
X66464542Y-82488718D01*
X66106974Y-82845663D01*
X65913221Y-83312273D01*
X65912780Y-83817510D01*
X66105718Y-84284458D01*
X66462663Y-84642026D01*
X66929273Y-84835779D01*
X66931488Y-84835781D01*
X66464542Y-85028718D01*
X66106974Y-85385663D01*
X65913221Y-85852273D01*
X65912780Y-86357510D01*
X66105718Y-86824458D01*
X66462663Y-87182026D01*
X66929273Y-87375779D01*
X66931488Y-87375781D01*
X66464542Y-87568718D01*
X66106974Y-87925663D01*
X65913221Y-88392273D01*
X65912780Y-88897510D01*
X66105718Y-89364458D01*
X66462663Y-89722026D01*
X66929273Y-89915779D01*
X67146071Y-89915968D01*
X66855977Y-89933094D01*
X66528303Y-90068821D01*
X66474472Y-90297867D01*
X67183000Y-91006395D01*
X67891528Y-90297867D01*
X67837697Y-90068821D01*
X67397453Y-89916188D01*
X67434510Y-89916220D01*
X67901458Y-89723282D01*
X68259026Y-89366337D01*
X68452779Y-88899727D01*
X68453220Y-88394490D01*
X68260282Y-87927542D01*
X67903337Y-87569974D01*
X67436727Y-87376221D01*
X67434512Y-87376219D01*
X67901458Y-87183282D01*
X68259026Y-86826337D01*
X68452779Y-86359727D01*
X68453220Y-85854490D01*
X68260282Y-85387542D01*
X68216816Y-85344000D01*
X77813679Y-85344000D01*
X77920019Y-85878609D01*
X78222851Y-86331828D01*
X78645150Y-86614000D01*
X78222851Y-86896172D01*
X77920019Y-87349391D01*
X77813679Y-87884000D01*
X77920019Y-88418609D01*
X78222851Y-88871828D01*
X78645150Y-89154000D01*
X78222851Y-89436172D01*
X77920019Y-89889391D01*
X77813679Y-90424000D01*
X77920019Y-90958609D01*
X78222851Y-91411828D01*
X78645150Y-91694000D01*
X78222851Y-91976172D01*
X77920019Y-92429391D01*
X77813679Y-92964000D01*
X77920019Y-93498609D01*
X78222851Y-93951828D01*
X78645150Y-94234000D01*
X78222851Y-94516172D01*
X77920019Y-94969391D01*
X77813679Y-95504000D01*
X77920019Y-96038609D01*
X78222851Y-96491828D01*
X78645150Y-96774000D01*
X78222851Y-97056172D01*
X77920019Y-97509391D01*
X77813679Y-98044000D01*
X77920019Y-98578609D01*
X78222851Y-99031828D01*
X78676070Y-99334660D01*
X79210679Y-99441000D01*
X80301321Y-99441000D01*
X80835930Y-99334660D01*
X81289149Y-99031828D01*
X81397613Y-98869500D01*
X81407000Y-98869500D01*
X81722906Y-98806663D01*
X81990717Y-98627717D01*
X85162460Y-95455974D01*
X85322215Y-95216884D01*
X85439564Y-95099740D01*
X85594567Y-94726453D01*
X85594919Y-94322263D01*
X85440568Y-93948705D01*
X85303187Y-93811084D01*
X85305164Y-93806324D01*
X85305516Y-93402134D01*
X85199322Y-93145126D01*
X85324154Y-92844499D01*
X85324506Y-92440309D01*
X85255525Y-92273362D01*
X85268039Y-92260870D01*
X85423042Y-91887583D01*
X85423394Y-91483393D01*
X85269043Y-91109835D01*
X84983487Y-90823780D01*
X84610200Y-90668777D01*
X84215867Y-90668434D01*
X84073434Y-90526000D01*
X85979000Y-90526000D01*
X85979000Y-98628793D01*
X86085340Y-99163402D01*
X86388172Y-99616621D01*
X88343379Y-101571828D01*
X88796598Y-101874660D01*
X89331207Y-101981000D01*
X132398856Y-101981000D01*
X132933465Y-101874660D01*
X133386684Y-101571828D01*
X134620683Y-100337829D01*
X134923515Y-99884610D01*
X135029855Y-99350001D01*
X135029855Y-96977039D01*
X135185190Y-97062649D01*
X135279168Y-97083540D01*
X135509000Y-96962214D01*
X135509000Y-94869000D01*
X135489000Y-94869000D01*
X135489000Y-94615000D01*
X135509000Y-94615000D01*
X135509000Y-92521786D01*
X135763000Y-92521786D01*
X135763000Y-94615000D01*
X135783000Y-94615000D01*
X135783000Y-94869000D01*
X135763000Y-94869000D01*
X135763000Y-96962214D01*
X135992832Y-97083540D01*
X136086810Y-97062649D01*
X136595989Y-96782024D01*
X136900484Y-96401127D01*
X137126208Y-96738948D01*
X137607857Y-97060775D01*
X138176000Y-97173786D01*
X138744143Y-97060775D01*
X139225792Y-96738948D01*
X139446000Y-96409383D01*
X139666208Y-96738948D01*
X140147857Y-97060775D01*
X140716000Y-97173786D01*
X141284143Y-97060775D01*
X141765792Y-96738948D01*
X142087619Y-96257299D01*
X142200630Y-95689156D01*
X142200630Y-94869000D01*
X149391370Y-94869000D01*
X149391370Y-95769430D01*
X149552982Y-96327906D01*
X149916011Y-96782024D01*
X150425190Y-97062649D01*
X150519168Y-97083540D01*
X150749000Y-96962214D01*
X150749000Y-94869000D01*
X149391370Y-94869000D01*
X142200630Y-94869000D01*
X142200630Y-93794844D01*
X142184663Y-93714570D01*
X149391370Y-93714570D01*
X149391370Y-94615000D01*
X150749000Y-94615000D01*
X150749000Y-92521786D01*
X151003000Y-92521786D01*
X151003000Y-94615000D01*
X151023000Y-94615000D01*
X151023000Y-94869000D01*
X151003000Y-94869000D01*
X151003000Y-96962214D01*
X151232832Y-97083540D01*
X151326810Y-97062649D01*
X151835989Y-96782024D01*
X152140484Y-96401127D01*
X152366208Y-96738948D01*
X152847857Y-97060775D01*
X153416000Y-97173786D01*
X153984143Y-97060775D01*
X154465792Y-96738948D01*
X154686000Y-96409383D01*
X154906208Y-96738948D01*
X155387857Y-97060775D01*
X155956000Y-97173786D01*
X156524143Y-97060775D01*
X157005792Y-96738948D01*
X157327619Y-96257299D01*
X157440630Y-95689156D01*
X157440630Y-93794844D01*
X157327619Y-93226701D01*
X157005792Y-92745052D01*
X156524143Y-92423225D01*
X155956000Y-92310214D01*
X155387857Y-92423225D01*
X154906208Y-92745052D01*
X154686000Y-93074617D01*
X154465792Y-92745052D01*
X153984143Y-92423225D01*
X153416000Y-92310214D01*
X152847857Y-92423225D01*
X152366208Y-92745052D01*
X152140484Y-93082873D01*
X151835989Y-92701976D01*
X151326810Y-92421351D01*
X151232832Y-92400460D01*
X151003000Y-92521786D01*
X150749000Y-92521786D01*
X150519168Y-92400460D01*
X150425190Y-92421351D01*
X149916011Y-92701976D01*
X149552982Y-93156094D01*
X149391370Y-93714570D01*
X142184663Y-93714570D01*
X142087619Y-93226701D01*
X141765792Y-92745052D01*
X141284143Y-92423225D01*
X140716000Y-92310214D01*
X140147857Y-92423225D01*
X139666208Y-92745052D01*
X139446000Y-93074617D01*
X139225792Y-92745052D01*
X138744143Y-92423225D01*
X138176000Y-92310214D01*
X137607857Y-92423225D01*
X137126208Y-92745052D01*
X136900484Y-93082873D01*
X136595989Y-92701976D01*
X136086810Y-92421351D01*
X135992832Y-92400460D01*
X135763000Y-92521786D01*
X135509000Y-92521786D01*
X135279168Y-92400460D01*
X135185190Y-92421351D01*
X135029855Y-92506961D01*
X135029855Y-90313801D01*
X136623828Y-88719828D01*
X136926660Y-88266609D01*
X137033000Y-87732000D01*
X137033000Y-85558000D01*
X136933440Y-85057476D01*
X136933440Y-84908000D01*
X136889162Y-84672683D01*
X136750090Y-84456559D01*
X136537890Y-84311569D01*
X136286000Y-84260560D01*
X136136524Y-84260560D01*
X136127802Y-84258825D01*
X136299729Y-84187611D01*
X136355410Y-83957016D01*
X135636000Y-83237605D01*
X134916590Y-83957016D01*
X134972271Y-84187611D01*
X135165017Y-84254684D01*
X135135476Y-84260560D01*
X134986000Y-84260560D01*
X134750683Y-84304838D01*
X134534559Y-84443910D01*
X134389569Y-84656110D01*
X134338560Y-84908000D01*
X134338560Y-85057476D01*
X134239000Y-85558000D01*
X134239000Y-87153344D01*
X132645027Y-88747317D01*
X132342195Y-89200536D01*
X132235855Y-89735145D01*
X132235855Y-98771345D01*
X131820200Y-99187000D01*
X119701945Y-99187000D01*
X119701945Y-96928589D01*
X119945190Y-97062649D01*
X120039168Y-97083540D01*
X120269000Y-96962214D01*
X120269000Y-94869000D01*
X120249000Y-94869000D01*
X120249000Y-94615000D01*
X120269000Y-94615000D01*
X120269000Y-92521786D01*
X120523000Y-92521786D01*
X120523000Y-94615000D01*
X120543000Y-94615000D01*
X120543000Y-94869000D01*
X120523000Y-94869000D01*
X120523000Y-96962214D01*
X120752832Y-97083540D01*
X120846810Y-97062649D01*
X121355989Y-96782024D01*
X121660484Y-96401127D01*
X121886208Y-96738948D01*
X122367857Y-97060775D01*
X122936000Y-97173786D01*
X123504143Y-97060775D01*
X123985792Y-96738948D01*
X124206000Y-96409383D01*
X124426208Y-96738948D01*
X124907857Y-97060775D01*
X125476000Y-97173786D01*
X126044143Y-97060775D01*
X126525792Y-96738948D01*
X126847619Y-96257299D01*
X126960630Y-95689156D01*
X126960630Y-93794844D01*
X126847619Y-93226701D01*
X126525792Y-92745052D01*
X126044143Y-92423225D01*
X125476000Y-92310214D01*
X124907857Y-92423225D01*
X124426208Y-92745052D01*
X124206000Y-93074617D01*
X123985792Y-92745052D01*
X123504143Y-92423225D01*
X122936000Y-92310214D01*
X122367857Y-92423225D01*
X121886208Y-92745052D01*
X121660484Y-93082873D01*
X121355989Y-92701976D01*
X120846810Y-92421351D01*
X120752832Y-92400460D01*
X120523000Y-92521786D01*
X120269000Y-92521786D01*
X120039168Y-92400460D01*
X119945190Y-92421351D01*
X119701945Y-92555411D01*
X119701945Y-90147711D01*
X121129828Y-88719828D01*
X121432660Y-88266609D01*
X121539000Y-87732000D01*
X121539000Y-85558000D01*
X121439440Y-85057476D01*
X121439440Y-84908000D01*
X121395162Y-84672683D01*
X121256090Y-84456559D01*
X121043890Y-84311569D01*
X120792000Y-84260560D01*
X120642524Y-84260560D01*
X120633802Y-84258825D01*
X120805729Y-84187611D01*
X120861410Y-83957016D01*
X120142000Y-83237605D01*
X119422590Y-83957016D01*
X119478271Y-84187611D01*
X119671017Y-84254684D01*
X119641476Y-84260560D01*
X119492000Y-84260560D01*
X119256683Y-84304838D01*
X119040559Y-84443910D01*
X118895569Y-84656110D01*
X118844560Y-84908000D01*
X118844560Y-85057476D01*
X118745000Y-85558000D01*
X118745000Y-87153344D01*
X117317117Y-88581227D01*
X117014285Y-89034446D01*
X116907945Y-89569055D01*
X116907945Y-99187000D01*
X104521000Y-99187000D01*
X104521000Y-96961136D01*
X104705190Y-97062649D01*
X104799168Y-97083540D01*
X105029000Y-96962214D01*
X105029000Y-94869000D01*
X105009000Y-94869000D01*
X105009000Y-94615000D01*
X105029000Y-94615000D01*
X105029000Y-92521786D01*
X105283000Y-92521786D01*
X105283000Y-94615000D01*
X105303000Y-94615000D01*
X105303000Y-94869000D01*
X105283000Y-94869000D01*
X105283000Y-96962214D01*
X105512832Y-97083540D01*
X105606810Y-97062649D01*
X106115989Y-96782024D01*
X106420484Y-96401127D01*
X106646208Y-96738948D01*
X107127857Y-97060775D01*
X107696000Y-97173786D01*
X108264143Y-97060775D01*
X108745792Y-96738948D01*
X108966000Y-96409383D01*
X109186208Y-96738948D01*
X109667857Y-97060775D01*
X110236000Y-97173786D01*
X110804143Y-97060775D01*
X111285792Y-96738948D01*
X111607619Y-96257299D01*
X111720630Y-95689156D01*
X111720630Y-93794844D01*
X111607619Y-93226701D01*
X111285792Y-92745052D01*
X110804143Y-92423225D01*
X110236000Y-92310214D01*
X109667857Y-92423225D01*
X109186208Y-92745052D01*
X108966000Y-93074617D01*
X108745792Y-92745052D01*
X108264143Y-92423225D01*
X107696000Y-92310214D01*
X107127857Y-92423225D01*
X106646208Y-92745052D01*
X106420484Y-93082873D01*
X106115989Y-92701976D01*
X105606810Y-92421351D01*
X105512832Y-92400460D01*
X105283000Y-92521786D01*
X105029000Y-92521786D01*
X104799168Y-92400460D01*
X104705190Y-92421351D01*
X104521000Y-92522864D01*
X104521000Y-90088656D01*
X105889828Y-88719828D01*
X106192660Y-88266609D01*
X106299000Y-87732000D01*
X106299000Y-85558000D01*
X106199440Y-85057476D01*
X106199440Y-84908000D01*
X106155162Y-84672683D01*
X106016090Y-84456559D01*
X105803890Y-84311569D01*
X105552000Y-84260560D01*
X105402524Y-84260560D01*
X105393802Y-84258825D01*
X105565729Y-84187611D01*
X105621410Y-83957016D01*
X104902000Y-83237605D01*
X104182590Y-83957016D01*
X104238271Y-84187611D01*
X104431017Y-84254684D01*
X104401476Y-84260560D01*
X104252000Y-84260560D01*
X104016683Y-84304838D01*
X103800559Y-84443910D01*
X103655569Y-84656110D01*
X103604560Y-84908000D01*
X103604560Y-85057476D01*
X103505000Y-85558000D01*
X103505000Y-87153344D01*
X102136172Y-88522172D01*
X101833340Y-88975391D01*
X101727000Y-89510000D01*
X101727000Y-99187000D01*
X89909863Y-99187000D01*
X88773000Y-98050137D01*
X88773000Y-96553093D01*
X88956011Y-96782024D01*
X89465190Y-97062649D01*
X89559168Y-97083540D01*
X89789000Y-96962214D01*
X89789000Y-94869000D01*
X89769000Y-94869000D01*
X89769000Y-94615000D01*
X89789000Y-94615000D01*
X89789000Y-92521786D01*
X90043000Y-92521786D01*
X90043000Y-94615000D01*
X90063000Y-94615000D01*
X90063000Y-94869000D01*
X90043000Y-94869000D01*
X90043000Y-96962214D01*
X90272832Y-97083540D01*
X90366810Y-97062649D01*
X90875989Y-96782024D01*
X91180484Y-96401127D01*
X91406208Y-96738948D01*
X91887857Y-97060775D01*
X92456000Y-97173786D01*
X93024143Y-97060775D01*
X93505792Y-96738948D01*
X93726000Y-96409383D01*
X93946208Y-96738948D01*
X94427857Y-97060775D01*
X94996000Y-97173786D01*
X95564143Y-97060775D01*
X96045792Y-96738948D01*
X96367619Y-96257299D01*
X96480630Y-95689156D01*
X96480630Y-93794844D01*
X96367619Y-93226701D01*
X96045792Y-92745052D01*
X95564143Y-92423225D01*
X94996000Y-92310214D01*
X94427857Y-92423225D01*
X93946208Y-92745052D01*
X93726000Y-93074617D01*
X93505792Y-92745052D01*
X93024143Y-92423225D01*
X92456000Y-92310214D01*
X91887857Y-92423225D01*
X91406208Y-92745052D01*
X91180484Y-93082873D01*
X90875989Y-92701976D01*
X90366810Y-92421351D01*
X90272832Y-92400460D01*
X90043000Y-92521786D01*
X89789000Y-92521786D01*
X89559168Y-92400460D01*
X89465190Y-92421351D01*
X88956011Y-92701976D01*
X88773000Y-92930907D01*
X88773000Y-91104656D01*
X91157828Y-88719828D01*
X91460660Y-88266609D01*
X91567000Y-87732000D01*
X91567000Y-85558000D01*
X91467440Y-85057476D01*
X91467440Y-84908000D01*
X91423162Y-84672683D01*
X91284090Y-84456559D01*
X91071890Y-84311569D01*
X90820000Y-84260560D01*
X90670524Y-84260560D01*
X90661802Y-84258825D01*
X90833729Y-84187611D01*
X90889410Y-83957016D01*
X90170000Y-83237605D01*
X89450590Y-83957016D01*
X89506271Y-84187611D01*
X89699017Y-84254684D01*
X89669476Y-84260560D01*
X89520000Y-84260560D01*
X89284683Y-84304838D01*
X89068559Y-84443910D01*
X88923569Y-84656110D01*
X88872560Y-84908000D01*
X88872560Y-85057476D01*
X88773000Y-85558000D01*
X88773000Y-87153344D01*
X86388172Y-89538172D01*
X86085340Y-89991391D01*
X85979000Y-90526000D01*
X84073434Y-90526000D01*
X81654042Y-88106608D01*
X81698321Y-87884000D01*
X81591981Y-87349391D01*
X81289149Y-86896172D01*
X80866850Y-86614000D01*
X81289149Y-86331828D01*
X81591981Y-85878609D01*
X81698321Y-85344000D01*
X81591981Y-84809391D01*
X81289149Y-84356172D01*
X80852887Y-84064670D01*
X80915941Y-84046059D01*
X81341630Y-83702026D01*
X81603260Y-83221277D01*
X81618220Y-83147070D01*
X81495720Y-82931000D01*
X79883000Y-82931000D01*
X79883000Y-82951000D01*
X79629000Y-82951000D01*
X79629000Y-82931000D01*
X78016280Y-82931000D01*
X77893780Y-83147070D01*
X77908740Y-83221277D01*
X78170370Y-83702026D01*
X78596059Y-84046059D01*
X78659113Y-84064670D01*
X78222851Y-84356172D01*
X77920019Y-84809391D01*
X77813679Y-85344000D01*
X68216816Y-85344000D01*
X67903337Y-85029974D01*
X67436727Y-84836221D01*
X67434512Y-84836219D01*
X67901458Y-84643282D01*
X68259026Y-84286337D01*
X68452779Y-83819727D01*
X68452957Y-83615790D01*
X68809081Y-83971914D01*
X68809083Y-83971917D01*
X69076895Y-84150863D01*
X69392800Y-84213701D01*
X69392805Y-84213700D01*
X69767722Y-84213700D01*
X70083628Y-84150863D01*
X70351439Y-83971917D01*
X71532055Y-82791300D01*
X72515072Y-82791300D01*
X72550331Y-82826621D01*
X72923618Y-82981624D01*
X73327808Y-82981976D01*
X73581680Y-82877078D01*
X88872378Y-82877078D01*
X88901917Y-83387428D01*
X89040389Y-83721729D01*
X89270984Y-83777410D01*
X89990395Y-83058000D01*
X90349605Y-83058000D01*
X91069016Y-83777410D01*
X91299611Y-83721729D01*
X91467622Y-83238922D01*
X91446679Y-82877078D01*
X103604378Y-82877078D01*
X103633917Y-83387428D01*
X103772389Y-83721729D01*
X104002984Y-83777410D01*
X104722395Y-83058000D01*
X105081605Y-83058000D01*
X105801016Y-83777410D01*
X106031611Y-83721729D01*
X106199622Y-83238922D01*
X106178679Y-82877078D01*
X118844378Y-82877078D01*
X118873917Y-83387428D01*
X119012389Y-83721729D01*
X119242984Y-83777410D01*
X119962395Y-83058000D01*
X120321605Y-83058000D01*
X121041016Y-83777410D01*
X121271611Y-83721729D01*
X121439622Y-83238922D01*
X121418679Y-82877078D01*
X134338378Y-82877078D01*
X134367917Y-83387428D01*
X134506389Y-83721729D01*
X134736984Y-83777410D01*
X135456395Y-83058000D01*
X135815605Y-83058000D01*
X136535016Y-83777410D01*
X136765611Y-83721729D01*
X136933622Y-83238922D01*
X136904083Y-82728572D01*
X136765611Y-82394271D01*
X136535016Y-82338590D01*
X135815605Y-83058000D01*
X135456395Y-83058000D01*
X134736984Y-82338590D01*
X134506389Y-82394271D01*
X134338378Y-82877078D01*
X121418679Y-82877078D01*
X121410083Y-82728572D01*
X121271611Y-82394271D01*
X121041016Y-82338590D01*
X120321605Y-83058000D01*
X119962395Y-83058000D01*
X119242984Y-82338590D01*
X119012389Y-82394271D01*
X118844378Y-82877078D01*
X106178679Y-82877078D01*
X106170083Y-82728572D01*
X106031611Y-82394271D01*
X105801016Y-82338590D01*
X105081605Y-83058000D01*
X104722395Y-83058000D01*
X104002984Y-82338590D01*
X103772389Y-82394271D01*
X103604378Y-82877078D01*
X91446679Y-82877078D01*
X91438083Y-82728572D01*
X91299611Y-82394271D01*
X91069016Y-82338590D01*
X90349605Y-83058000D01*
X89990395Y-83058000D01*
X89270984Y-82338590D01*
X89040389Y-82394271D01*
X88872378Y-82877078D01*
X73581680Y-82877078D01*
X73701366Y-82827625D01*
X73987421Y-82542069D01*
X74142424Y-82168782D01*
X74142776Y-81764592D01*
X73988425Y-81391034D01*
X73702869Y-81104979D01*
X73329582Y-80949976D01*
X72925392Y-80949624D01*
X72551834Y-81103975D01*
X72515446Y-81140300D01*
X71851640Y-81140300D01*
X73770647Y-79221293D01*
X76936259Y-79221293D01*
X77318081Y-79603114D01*
X77318083Y-79603117D01*
X77585895Y-79782063D01*
X77897224Y-79843990D01*
X77813679Y-80264000D01*
X77920019Y-80798609D01*
X78222851Y-81251828D01*
X78659113Y-81543330D01*
X78596059Y-81561941D01*
X78170370Y-81905974D01*
X77908740Y-82386723D01*
X77893780Y-82460930D01*
X78016280Y-82677000D01*
X79629000Y-82677000D01*
X79629000Y-82657000D01*
X79883000Y-82657000D01*
X79883000Y-82677000D01*
X81495720Y-82677000D01*
X81618220Y-82460930D01*
X81603260Y-82386723D01*
X81479322Y-82158984D01*
X89450590Y-82158984D01*
X90170000Y-82878395D01*
X90889410Y-82158984D01*
X104182590Y-82158984D01*
X104902000Y-82878395D01*
X105621410Y-82158984D01*
X119422590Y-82158984D01*
X120142000Y-82878395D01*
X120861410Y-82158984D01*
X134916590Y-82158984D01*
X135636000Y-82878395D01*
X136355410Y-82158984D01*
X136299729Y-81928389D01*
X135816922Y-81760378D01*
X135306572Y-81789917D01*
X134972271Y-81928389D01*
X134916590Y-82158984D01*
X120861410Y-82158984D01*
X120805729Y-81928389D01*
X120322922Y-81760378D01*
X119812572Y-81789917D01*
X119478271Y-81928389D01*
X119422590Y-82158984D01*
X105621410Y-82158984D01*
X105565729Y-81928389D01*
X105082922Y-81760378D01*
X104572572Y-81789917D01*
X104238271Y-81928389D01*
X104182590Y-82158984D01*
X90889410Y-82158984D01*
X90833729Y-81928389D01*
X90350922Y-81760378D01*
X89840572Y-81789917D01*
X89506271Y-81928389D01*
X89450590Y-82158984D01*
X81479322Y-82158984D01*
X81341630Y-81905974D01*
X80915941Y-81561941D01*
X80852887Y-81543330D01*
X81289149Y-81251828D01*
X81591981Y-80798609D01*
X81698321Y-80264000D01*
X81591981Y-79729391D01*
X81507765Y-79603352D01*
X81508117Y-79603117D01*
X82000224Y-79111009D01*
X82000227Y-79111007D01*
X82179173Y-78843195D01*
X82200195Y-78737510D01*
X82242011Y-78527290D01*
X82242010Y-78527285D01*
X82242010Y-76336510D01*
X82195593Y-76103152D01*
X82179173Y-76020604D01*
X82107497Y-75913334D01*
X82000227Y-75752793D01*
X82000224Y-75752791D01*
X81654042Y-75406608D01*
X81663588Y-75358614D01*
X81782981Y-75358718D01*
X82156539Y-75204367D01*
X82442594Y-74918811D01*
X82597597Y-74545524D01*
X82597949Y-74141334D01*
X82443598Y-73767776D01*
X82406829Y-73730943D01*
X82358470Y-73487822D01*
X82344436Y-73417267D01*
X82260140Y-73291109D01*
X158288657Y-73291109D01*
X158590218Y-74020943D01*
X159148120Y-74579819D01*
X159877427Y-74882654D01*
X160667109Y-74883343D01*
X161396943Y-74581782D01*
X161955819Y-74023880D01*
X162258654Y-73294573D01*
X162259343Y-72504891D01*
X161957782Y-71775057D01*
X161399880Y-71216181D01*
X160670573Y-70913346D01*
X159880891Y-70912657D01*
X159151057Y-71214218D01*
X158592181Y-71772120D01*
X158289346Y-72501427D01*
X158288657Y-73291109D01*
X82260140Y-73291109D01*
X82165490Y-73149456D01*
X80492733Y-71476699D01*
X80492776Y-71426792D01*
X80338425Y-71053234D01*
X80052869Y-70767179D01*
X79679582Y-70612176D01*
X79275392Y-70611824D01*
X78901834Y-70766175D01*
X78615779Y-71051731D01*
X78460776Y-71425018D01*
X78460424Y-71829208D01*
X78614775Y-72202766D01*
X78900331Y-72488821D01*
X79273618Y-72643824D01*
X79325035Y-72643869D01*
X80509594Y-73828428D01*
X80301321Y-73787000D01*
X79210679Y-73787000D01*
X78676070Y-73893340D01*
X78222851Y-74196172D01*
X77920019Y-74649391D01*
X77813679Y-75184000D01*
X77920019Y-75718609D01*
X78222851Y-76171828D01*
X78645150Y-76454000D01*
X78222851Y-76736172D01*
X78114387Y-76898500D01*
X73557601Y-76898500D01*
X73710624Y-76529982D01*
X73710976Y-76125792D01*
X73556625Y-75752234D01*
X73271069Y-75466179D01*
X72897782Y-75311176D01*
X72493592Y-75310824D01*
X72120034Y-75465175D01*
X71833979Y-75750731D01*
X71678976Y-76124018D01*
X71678624Y-76528208D01*
X71733109Y-76660072D01*
X68173037Y-80220144D01*
X67903337Y-79949974D01*
X67436727Y-79756221D01*
X67434512Y-79756219D01*
X67901458Y-79563282D01*
X68259026Y-79206337D01*
X68452779Y-78739727D01*
X68453220Y-78234490D01*
X68260282Y-77767542D01*
X67903337Y-77409974D01*
X67436727Y-77216221D01*
X66931490Y-77215780D01*
X66464542Y-77408718D01*
X66106974Y-77765663D01*
X65913221Y-78232273D01*
X65912780Y-78737510D01*
X43052780Y-78737510D01*
X43053220Y-78234490D01*
X42860282Y-77767542D01*
X42503337Y-77409974D01*
X42036727Y-77216221D01*
X41531490Y-77215780D01*
X41064542Y-77408718D01*
X40706974Y-77765663D01*
X40513221Y-78232273D01*
X40512780Y-78737510D01*
X21792000Y-78737510D01*
X21792000Y-68326000D01*
X25384135Y-68326000D01*
X25283087Y-68834000D01*
X25392320Y-69383151D01*
X25703389Y-69848698D01*
X26085475Y-70104000D01*
X25703389Y-70359302D01*
X25392320Y-70824849D01*
X25283087Y-71374000D01*
X25392320Y-71923151D01*
X25703389Y-72388698D01*
X26085475Y-72644000D01*
X25703389Y-72899302D01*
X25392320Y-73364849D01*
X25283087Y-73914000D01*
X25392320Y-74463151D01*
X25703389Y-74928698D01*
X26168936Y-75239767D01*
X26718087Y-75349000D01*
X26774313Y-75349000D01*
X27323464Y-75239767D01*
X27789011Y-74928698D01*
X28100080Y-74463151D01*
X28209313Y-73914000D01*
X28100080Y-73364849D01*
X27789011Y-72899302D01*
X27406925Y-72644000D01*
X27789011Y-72388698D01*
X28100080Y-71923151D01*
X28209313Y-71374000D01*
X28100080Y-70824849D01*
X27789011Y-70359302D01*
X27406925Y-70104000D01*
X27789011Y-69848698D01*
X28100080Y-69383151D01*
X28209313Y-68834000D01*
X28131574Y-68443180D01*
X32004000Y-72315606D01*
X32004000Y-76073000D01*
X32014006Y-76122410D01*
X32042447Y-76164035D01*
X32084841Y-76191315D01*
X32131000Y-76200000D01*
X36322000Y-76200000D01*
X36371410Y-76189994D01*
X36413035Y-76161553D01*
X36440315Y-76119159D01*
X36449000Y-76073000D01*
X36449000Y-71604866D01*
X51951000Y-71604866D01*
X51951000Y-72159134D01*
X52037397Y-72593480D01*
X52283434Y-72961700D01*
X52651654Y-73207737D01*
X53086000Y-73294134D01*
X53520346Y-73207737D01*
X53728102Y-73068919D01*
X53969840Y-73213586D01*
X54054126Y-73226119D01*
X54229000Y-73099954D01*
X54229000Y-72009000D01*
X54221000Y-72009000D01*
X54221000Y-71755000D01*
X54229000Y-71755000D01*
X54229000Y-71132000D01*
X54478560Y-71132000D01*
X54478560Y-72632000D01*
X54483000Y-72655597D01*
X54483000Y-73099954D01*
X54657874Y-73226119D01*
X54742160Y-73213586D01*
X54800919Y-73178422D01*
X54874110Y-73228431D01*
X55126000Y-73279440D01*
X56126000Y-73279440D01*
X56361317Y-73235162D01*
X56433339Y-73188817D01*
X56461654Y-73207737D01*
X56896000Y-73294134D01*
X57330346Y-73207737D01*
X57698566Y-72961700D01*
X57944603Y-72593480D01*
X58031000Y-72159134D01*
X58031000Y-71604866D01*
X57944603Y-71170520D01*
X57698566Y-70802300D01*
X57330346Y-70556263D01*
X56896000Y-70469866D01*
X56461654Y-70556263D01*
X56434617Y-70574329D01*
X56377890Y-70535569D01*
X56126000Y-70484560D01*
X55126000Y-70484560D01*
X54890683Y-70528838D01*
X54801742Y-70586070D01*
X54742160Y-70550414D01*
X54657874Y-70537881D01*
X54483000Y-70664046D01*
X54483000Y-71110075D01*
X54478560Y-71132000D01*
X54229000Y-71132000D01*
X54229000Y-70664046D01*
X54054126Y-70537881D01*
X53969840Y-70550414D01*
X53728102Y-70695081D01*
X53520346Y-70556263D01*
X53086000Y-70469866D01*
X52651654Y-70556263D01*
X52283434Y-70802300D01*
X52037397Y-71170520D01*
X51951000Y-71604866D01*
X36449000Y-71604866D01*
X36449000Y-70104000D01*
X36438994Y-70054590D01*
X36411803Y-70014197D01*
X35730147Y-69332541D01*
X35829313Y-68834000D01*
X35821907Y-68796764D01*
X38062841Y-68796764D01*
X38132059Y-69038742D01*
X38654780Y-69225155D01*
X39209049Y-69197341D01*
X39591941Y-69038742D01*
X39661159Y-68796764D01*
X38862000Y-67997605D01*
X38062841Y-68796764D01*
X35821907Y-68796764D01*
X35720080Y-68284849D01*
X35409011Y-67819302D01*
X35096937Y-67610780D01*
X37454845Y-67610780D01*
X37482659Y-68165049D01*
X37641258Y-68547941D01*
X37883236Y-68617159D01*
X38682395Y-67818000D01*
X39041605Y-67818000D01*
X39840764Y-68617159D01*
X40082742Y-68547941D01*
X40134382Y-68403138D01*
X40218687Y-68607172D01*
X40610764Y-68999934D01*
X41123300Y-69212758D01*
X41678265Y-69213242D01*
X42191172Y-69001313D01*
X42547316Y-68645790D01*
X42578838Y-68813317D01*
X42717910Y-69029441D01*
X42930110Y-69174431D01*
X43182000Y-69225440D01*
X44702000Y-69225440D01*
X44937317Y-69181162D01*
X45153441Y-69042090D01*
X45298431Y-68829890D01*
X45338747Y-68630800D01*
X46494700Y-68630800D01*
X46512123Y-68718391D01*
X46512038Y-68815967D01*
X46549628Y-68906943D01*
X46567205Y-68995306D01*
X46616821Y-69069561D01*
X46654083Y-69159743D01*
X46723628Y-69229410D01*
X46773681Y-69304319D01*
X47840481Y-70371119D01*
X48149494Y-70577595D01*
X48514000Y-70650100D01*
X50723800Y-70650100D01*
X50811391Y-70632677D01*
X50908967Y-70632762D01*
X50999943Y-70595172D01*
X51088306Y-70577595D01*
X51162561Y-70527979D01*
X51252743Y-70490717D01*
X51322410Y-70421172D01*
X51397319Y-70371119D01*
X51446935Y-70296864D01*
X51515992Y-70227927D01*
X51553742Y-70137016D01*
X51603795Y-70062106D01*
X51621218Y-69974517D01*
X51658638Y-69884399D01*
X51658724Y-69785962D01*
X51676300Y-69697600D01*
X51658877Y-69610009D01*
X51658891Y-69593778D01*
X51663818Y-69595824D01*
X52068008Y-69596176D01*
X52441566Y-69441825D01*
X52727621Y-69156269D01*
X52882624Y-68782982D01*
X52882634Y-68771649D01*
X53127024Y-68670669D01*
X53413079Y-68385113D01*
X53543807Y-68070285D01*
X53786306Y-67970087D01*
X54072361Y-67684531D01*
X54188921Y-67403824D01*
X54466032Y-67289324D01*
X54752087Y-67003768D01*
X54858880Y-66746583D01*
X55159366Y-66622425D01*
X55220764Y-66561134D01*
X55372218Y-66624024D01*
X55776408Y-66624376D01*
X56149966Y-66470025D01*
X56436021Y-66184469D01*
X56591024Y-65811182D01*
X56591335Y-65453808D01*
X63499824Y-65453808D01*
X63654175Y-65827366D01*
X63939731Y-66113421D01*
X64313018Y-66268424D01*
X64717208Y-66268776D01*
X65090766Y-66114425D01*
X65099966Y-66105241D01*
X65108131Y-66113421D01*
X65481418Y-66268424D01*
X65885608Y-66268776D01*
X66259166Y-66114425D01*
X66545221Y-65828869D01*
X66700224Y-65455582D01*
X66700269Y-65404165D01*
X69470025Y-62634408D01*
X78943024Y-62634408D01*
X79097375Y-63007966D01*
X79382931Y-63294021D01*
X79536929Y-63357967D01*
X82227203Y-66048241D01*
X82272375Y-66157566D01*
X82557931Y-66443621D01*
X82931218Y-66598624D01*
X83335408Y-66598976D01*
X83708966Y-66444625D01*
X83995021Y-66159069D01*
X84150024Y-65785782D01*
X84150376Y-65381592D01*
X83996025Y-65008034D01*
X83710469Y-64721979D01*
X83513035Y-64639997D01*
X80884082Y-62011044D01*
X80821025Y-61858434D01*
X80535469Y-61572379D01*
X80162182Y-61417376D01*
X79757992Y-61417024D01*
X79384434Y-61571375D01*
X79098379Y-61856931D01*
X78943376Y-62230218D01*
X78943024Y-62634408D01*
X69470025Y-62634408D01*
X70649133Y-61455300D01*
X73023072Y-61455300D01*
X73058331Y-61490621D01*
X73431618Y-61645624D01*
X73835808Y-61645976D01*
X74209366Y-61491625D01*
X74495421Y-61206069D01*
X74650424Y-60832782D01*
X74650776Y-60428592D01*
X74496425Y-60055034D01*
X74210869Y-59768979D01*
X73837582Y-59613976D01*
X73433392Y-59613624D01*
X73059834Y-59767975D01*
X73023446Y-59804300D01*
X70307200Y-59804300D01*
X69991295Y-59867137D01*
X69723483Y-60046083D01*
X69723481Y-60046086D01*
X65533099Y-64236467D01*
X65512500Y-64236450D01*
X65512500Y-62416528D01*
X65547821Y-62381269D01*
X65702824Y-62007982D01*
X65703176Y-61603792D01*
X65548825Y-61230234D01*
X65263269Y-60944179D01*
X64889982Y-60789176D01*
X64485792Y-60788824D01*
X64112234Y-60943175D01*
X63826179Y-61228731D01*
X63671176Y-61602018D01*
X63670824Y-62006208D01*
X63825175Y-62379766D01*
X63861500Y-62416154D01*
X63861500Y-64470370D01*
X63655179Y-64676331D01*
X63500176Y-65049618D01*
X63499824Y-65453808D01*
X56591335Y-65453808D01*
X56591376Y-65406992D01*
X56437025Y-65033434D01*
X56151469Y-64747379D01*
X55778182Y-64592376D01*
X55758259Y-64592359D01*
X53693298Y-62527397D01*
X53693341Y-62477490D01*
X53538990Y-62103932D01*
X53253434Y-61817877D01*
X52880147Y-61662874D01*
X52475957Y-61662522D01*
X52102399Y-61816873D01*
X51816344Y-62102429D01*
X51704354Y-62372131D01*
X51396694Y-62499253D01*
X51110639Y-62784809D01*
X50955636Y-63158096D01*
X50955284Y-63562286D01*
X50991391Y-63649671D01*
X50904379Y-63736531D01*
X50758943Y-64086778D01*
X50553293Y-64171751D01*
X50267238Y-64457307D01*
X50176611Y-64675560D01*
X49838282Y-64815355D01*
X49552227Y-65100911D01*
X49430796Y-65393348D01*
X49165488Y-65502971D01*
X48879433Y-65788527D01*
X48724430Y-66161814D01*
X48724078Y-66566004D01*
X48878429Y-66939562D01*
X49163985Y-67225617D01*
X49473509Y-67354143D01*
X50850667Y-68731301D01*
X50850640Y-68762710D01*
X50812162Y-68762676D01*
X50723800Y-68745100D01*
X48908538Y-68745100D01*
X48120719Y-67957281D01*
X48046464Y-67907665D01*
X47977527Y-67838608D01*
X47886616Y-67800858D01*
X47811706Y-67750805D01*
X47724117Y-67733382D01*
X47633999Y-67695962D01*
X47535562Y-67695876D01*
X47447200Y-67678300D01*
X47359609Y-67695723D01*
X47262033Y-67695638D01*
X47171057Y-67733228D01*
X47082694Y-67750805D01*
X47008439Y-67800421D01*
X46918257Y-67837683D01*
X46848590Y-67907228D01*
X46773681Y-67957281D01*
X46724065Y-68031536D01*
X46655008Y-68100473D01*
X46617258Y-68191384D01*
X46567205Y-68266294D01*
X46549782Y-68353883D01*
X46512362Y-68444001D01*
X46512276Y-68542438D01*
X46494700Y-68630800D01*
X45338747Y-68630800D01*
X45349440Y-68578000D01*
X45349440Y-67058000D01*
X45305162Y-66822683D01*
X45166090Y-66606559D01*
X44953890Y-66461569D01*
X44702000Y-66410560D01*
X43182000Y-66410560D01*
X42946683Y-66454838D01*
X42730559Y-66593910D01*
X42585569Y-66806110D01*
X42548031Y-66991480D01*
X42193236Y-66636066D01*
X41680700Y-66423242D01*
X41125735Y-66422758D01*
X40612828Y-66634687D01*
X40220066Y-67026764D01*
X40138609Y-67222934D01*
X40082742Y-67088059D01*
X39840764Y-67018841D01*
X39041605Y-67818000D01*
X38682395Y-67818000D01*
X37883236Y-67018841D01*
X37641258Y-67088059D01*
X37454845Y-67610780D01*
X35096937Y-67610780D01*
X35004497Y-67549014D01*
X35221334Y-67446389D01*
X35597241Y-67031423D01*
X35676842Y-66839236D01*
X38062841Y-66839236D01*
X38862000Y-67638395D01*
X39661159Y-66839236D01*
X39591941Y-66597258D01*
X39069220Y-66410845D01*
X38514951Y-66438659D01*
X38132059Y-66597258D01*
X38062841Y-66839236D01*
X35676842Y-66839236D01*
X35758104Y-66643039D01*
X35636115Y-66421000D01*
X34493200Y-66421000D01*
X34493200Y-66441000D01*
X34239200Y-66441000D01*
X34239200Y-66421000D01*
X34219200Y-66421000D01*
X34219200Y-66167000D01*
X34239200Y-66167000D01*
X34239200Y-65023371D01*
X34493200Y-65023371D01*
X34493200Y-66167000D01*
X35636115Y-66167000D01*
X35758104Y-65944961D01*
X35597241Y-65556577D01*
X35221334Y-65141611D01*
X34715241Y-64902086D01*
X34493200Y-65023371D01*
X34239200Y-65023371D01*
X34017159Y-64902086D01*
X33511066Y-65141611D01*
X33401000Y-65263114D01*
X33401000Y-54759661D01*
X40639758Y-54759661D01*
X40851990Y-55273303D01*
X41244630Y-55666629D01*
X41707369Y-55858775D01*
X41656243Y-55981900D01*
X41655758Y-56537661D01*
X41867990Y-57051303D01*
X42260630Y-57444629D01*
X42773900Y-57657757D01*
X43329661Y-57658242D01*
X43843303Y-57446010D01*
X44069049Y-57220658D01*
X44292630Y-57444629D01*
X44805900Y-57657757D01*
X45361661Y-57658242D01*
X45875303Y-57446010D01*
X46101049Y-57220658D01*
X46324630Y-57444629D01*
X46837900Y-57657757D01*
X47393661Y-57658242D01*
X47907303Y-57446010D01*
X48133049Y-57220658D01*
X48356630Y-57444629D01*
X48869900Y-57657757D01*
X49425661Y-57658242D01*
X49939303Y-57446010D01*
X50332629Y-57053370D01*
X50545757Y-56540100D01*
X50546242Y-55984339D01*
X50334010Y-55470697D01*
X49941370Y-55077371D01*
X49478631Y-54885225D01*
X49529757Y-54762100D01*
X49530242Y-54206339D01*
X49318010Y-53692697D01*
X48925370Y-53299371D01*
X48412100Y-53086243D01*
X47856339Y-53085758D01*
X47342697Y-53297990D01*
X47116951Y-53523342D01*
X46893370Y-53299371D01*
X46380100Y-53086243D01*
X45824339Y-53085758D01*
X45310697Y-53297990D01*
X44917371Y-53690630D01*
X44829601Y-53902004D01*
X44248605Y-54483000D01*
X44262748Y-54497143D01*
X44083143Y-54676748D01*
X44069000Y-54662605D01*
X44054858Y-54676748D01*
X43875253Y-54497143D01*
X43889395Y-54483000D01*
X43308560Y-53902165D01*
X43222010Y-53692697D01*
X43032432Y-53502787D01*
X43268392Y-53502787D01*
X44069000Y-54303395D01*
X44869608Y-53502787D01*
X44800143Y-53260603D01*
X44276698Y-53073856D01*
X43721632Y-53101638D01*
X43337857Y-53260603D01*
X43268392Y-53502787D01*
X43032432Y-53502787D01*
X42829370Y-53299371D01*
X42316100Y-53086243D01*
X41760339Y-53085758D01*
X41246697Y-53297990D01*
X40853371Y-53690630D01*
X40640243Y-54203900D01*
X40639758Y-54759661D01*
X33401000Y-54759661D01*
X33401000Y-52390688D01*
X36982008Y-52390688D01*
X37325439Y-53221854D01*
X37960801Y-53858326D01*
X38791366Y-54203207D01*
X39690688Y-54203992D01*
X40521854Y-53860561D01*
X41158326Y-53225199D01*
X41503207Y-52394634D01*
X41503210Y-52390688D01*
X49682008Y-52390688D01*
X50025439Y-53221854D01*
X50660801Y-53858326D01*
X51491366Y-54203207D01*
X52390688Y-54203992D01*
X53221854Y-53860561D01*
X53858326Y-53225199D01*
X54203207Y-52394634D01*
X54203830Y-51680661D01*
X59689758Y-51680661D01*
X59901990Y-52194303D01*
X60134500Y-52427219D01*
X60134500Y-56380904D01*
X59903371Y-56611630D01*
X59690243Y-57124900D01*
X59689758Y-57680661D01*
X59901990Y-58194303D01*
X60294630Y-58587629D01*
X60807900Y-58800757D01*
X61363661Y-58801242D01*
X61877303Y-58589010D01*
X62270629Y-58196370D01*
X62483757Y-57683100D01*
X62484242Y-57127339D01*
X62272010Y-56613697D01*
X62039500Y-56380781D01*
X62039500Y-52427096D01*
X62270629Y-52196370D01*
X62483757Y-51683100D01*
X62483759Y-51680661D01*
X71246758Y-51680661D01*
X71458990Y-52194303D01*
X71691500Y-52427219D01*
X71691500Y-56380904D01*
X71460371Y-56611630D01*
X71247243Y-57124900D01*
X71246758Y-57680661D01*
X71458990Y-58194303D01*
X71851630Y-58587629D01*
X72364900Y-58800757D01*
X72920661Y-58801242D01*
X73434303Y-58589010D01*
X73827629Y-58196370D01*
X74027448Y-57715150D01*
X81180940Y-57715150D01*
X81180940Y-59305769D01*
X81277613Y-59539158D01*
X81456241Y-59717787D01*
X81689630Y-59814460D01*
X83280250Y-59814460D01*
X83439000Y-59655710D01*
X83439000Y-57556400D01*
X81339690Y-57556400D01*
X81180940Y-57715150D01*
X74027448Y-57715150D01*
X74040757Y-57683100D01*
X74041242Y-57127339D01*
X73829010Y-56613697D01*
X73596500Y-56380781D01*
X73596500Y-55553031D01*
X81180940Y-55553031D01*
X81180940Y-57143650D01*
X81339690Y-57302400D01*
X83439000Y-57302400D01*
X83439000Y-55203090D01*
X83280250Y-55044340D01*
X81689630Y-55044340D01*
X81456241Y-55141013D01*
X81277613Y-55319642D01*
X81180940Y-55553031D01*
X73596500Y-55553031D01*
X73596500Y-52553291D01*
X85879940Y-52553291D01*
X85879940Y-54143910D01*
X86038690Y-54302660D01*
X88138000Y-54302660D01*
X88138000Y-52203350D01*
X88392000Y-52203350D01*
X88392000Y-54302660D01*
X90491310Y-54302660D01*
X90650060Y-54143910D01*
X90650060Y-52553291D01*
X90553387Y-52319902D01*
X90374759Y-52141273D01*
X90141370Y-52044600D01*
X88550750Y-52044600D01*
X88392000Y-52203350D01*
X88138000Y-52203350D01*
X87979250Y-52044600D01*
X86388630Y-52044600D01*
X86155241Y-52141273D01*
X85976613Y-52319902D01*
X85879940Y-52553291D01*
X73596500Y-52553291D01*
X73596500Y-52427096D01*
X73827629Y-52196370D01*
X74040757Y-51683100D01*
X74041242Y-51127339D01*
X73829010Y-50613697D01*
X73436370Y-50220371D01*
X72923100Y-50007243D01*
X72367339Y-50006758D01*
X71853697Y-50218990D01*
X71460371Y-50611630D01*
X71247243Y-51124900D01*
X71246758Y-51680661D01*
X62483759Y-51680661D01*
X62484242Y-51127339D01*
X62272010Y-50613697D01*
X61879370Y-50220371D01*
X61366100Y-50007243D01*
X60810339Y-50006758D01*
X60296697Y-50218990D01*
X59903371Y-50611630D01*
X59690243Y-51124900D01*
X59689758Y-51680661D01*
X54203830Y-51680661D01*
X54203992Y-51495312D01*
X53860561Y-50664146D01*
X53225199Y-50027674D01*
X52394634Y-49682793D01*
X51495312Y-49682008D01*
X50664146Y-50025439D01*
X50027674Y-50660801D01*
X49682793Y-51491366D01*
X49682008Y-52390688D01*
X41503210Y-52390688D01*
X41503992Y-51495312D01*
X41160561Y-50664146D01*
X40525199Y-50027674D01*
X39694634Y-49682793D01*
X38795312Y-49682008D01*
X37964146Y-50025439D01*
X37327674Y-50660801D01*
X36982793Y-51491366D01*
X36982008Y-52390688D01*
X33401000Y-52390688D01*
X33401000Y-50748000D01*
X35560000Y-50748000D01*
X35831705Y-50693954D01*
X36062046Y-50540046D01*
X36062047Y-50540045D01*
X37378091Y-49224000D01*
X72603908Y-49224000D01*
X73919952Y-50540043D01*
X73919952Y-50540043D01*
G37*
X73919952Y-50540043D02*
X73919954Y-50540046D01*
X74150295Y-50693954D01*
X74422000Y-50748000D01*
X96901000Y-50748000D01*
X96901000Y-54811394D01*
X94943394Y-56769000D01*
X90251748Y-56769000D01*
X90374759Y-56718047D01*
X90553387Y-56539418D01*
X90650060Y-56306029D01*
X90650060Y-54715410D01*
X90491310Y-54556660D01*
X88392000Y-54556660D01*
X88392000Y-54576660D01*
X88138000Y-54576660D01*
X88138000Y-54556660D01*
X86038690Y-54556660D01*
X85879940Y-54715410D01*
X85879940Y-55381332D01*
X85854387Y-55319642D01*
X85675759Y-55141013D01*
X85442370Y-55044340D01*
X83851750Y-55044340D01*
X83693000Y-55203090D01*
X83693000Y-57302400D01*
X83713000Y-57302400D01*
X83713000Y-57556400D01*
X83693000Y-57556400D01*
X83693000Y-59655710D01*
X83851750Y-59814460D01*
X85442370Y-59814460D01*
X85675759Y-59717787D01*
X85725000Y-59668546D01*
X85725000Y-64135000D01*
X85735006Y-64184410D01*
X85763447Y-64226035D01*
X85805841Y-64253315D01*
X85852000Y-64262000D01*
X100076000Y-64262000D01*
X100125410Y-64251994D01*
X100165803Y-64224803D01*
X104573606Y-59817000D01*
X160782000Y-59817000D01*
X160831410Y-59806994D01*
X160873035Y-59778553D01*
X160900315Y-59736159D01*
X160909000Y-59690000D01*
X160909000Y-50748000D01*
X162612000Y-50748000D01*
X162612000Y-127560000D01*
X21792000Y-127560000D01*
X21792000Y-125094133D01*
X41074472Y-125094133D01*
X41128303Y-125323179D01*
X41605664Y-125488681D01*
X42110023Y-125458906D01*
X42437697Y-125323179D01*
X42491528Y-125094133D01*
X41783000Y-124385605D01*
X41074472Y-125094133D01*
X21792000Y-125094133D01*
X21792000Y-122821109D01*
X22398657Y-122821109D01*
X22700218Y-123550943D01*
X23258120Y-124109819D01*
X23987427Y-124412654D01*
X24777109Y-124413343D01*
X25506943Y-124111782D01*
X25590206Y-124028664D01*
X40500319Y-124028664D01*
X40530094Y-124533023D01*
X40665821Y-124860697D01*
X40894867Y-124914528D01*
X41603395Y-124206000D01*
X41962605Y-124206000D01*
X42671133Y-124914528D01*
X42900179Y-124860697D01*
X43065681Y-124383336D01*
X43035906Y-123878977D01*
X42900179Y-123551303D01*
X42671133Y-123497472D01*
X41962605Y-124206000D01*
X41603395Y-124206000D01*
X40894867Y-123497472D01*
X40665821Y-123551303D01*
X40500319Y-124028664D01*
X25590206Y-124028664D01*
X26065819Y-123553880D01*
X26368654Y-122824573D01*
X26369343Y-122034891D01*
X26067782Y-121305057D01*
X25509880Y-120746181D01*
X24780573Y-120443346D01*
X23990891Y-120442657D01*
X23261057Y-120744218D01*
X22702181Y-121302120D01*
X22399346Y-122031427D01*
X22398657Y-122821109D01*
X21792000Y-122821109D01*
X21792000Y-107188000D01*
X29553679Y-107188000D01*
X29660019Y-107722609D01*
X29962851Y-108175828D01*
X30385150Y-108458000D01*
X29962851Y-108740172D01*
X29660019Y-109193391D01*
X29553679Y-109728000D01*
X29660019Y-110262609D01*
X29962851Y-110715828D01*
X30385150Y-110998000D01*
X29962851Y-111280172D01*
X29660019Y-111733391D01*
X29553679Y-112268000D01*
X29660019Y-112802609D01*
X29962851Y-113255828D01*
X30385150Y-113538000D01*
X29962851Y-113820172D01*
X29660019Y-114273391D01*
X29553679Y-114808000D01*
X29660019Y-115342609D01*
X29962851Y-115795828D01*
X30385150Y-116078000D01*
X29962851Y-116360172D01*
X29660019Y-116813391D01*
X29553679Y-117348000D01*
X29660019Y-117882609D01*
X29962851Y-118335828D01*
X30385150Y-118618000D01*
X29962851Y-118900172D01*
X29660019Y-119353391D01*
X29553679Y-119888000D01*
X29660019Y-120422609D01*
X29962851Y-120875828D01*
X30416070Y-121178660D01*
X30950679Y-121285000D01*
X32041321Y-121285000D01*
X32575930Y-121178660D01*
X33029149Y-120875828D01*
X33331981Y-120422609D01*
X33438321Y-119888000D01*
X33331981Y-119353391D01*
X33029149Y-118900172D01*
X32606850Y-118618000D01*
X33029149Y-118335828D01*
X33276315Y-117965918D01*
X38074437Y-117965918D01*
X38217212Y-118311459D01*
X38481351Y-118576059D01*
X38826642Y-118719437D01*
X39200518Y-118719763D01*
X39477539Y-118605300D01*
X40624078Y-118605300D01*
X40513221Y-118872273D01*
X40512780Y-119377510D01*
X40705718Y-119844458D01*
X41062663Y-120202026D01*
X41529273Y-120395779D01*
X41531488Y-120395781D01*
X41064542Y-120588718D01*
X40706974Y-120945663D01*
X40513221Y-121412273D01*
X40512780Y-121917510D01*
X40705718Y-122384458D01*
X41062663Y-122742026D01*
X41529273Y-122935779D01*
X41746071Y-122935968D01*
X41455977Y-122953094D01*
X41128303Y-123088821D01*
X41074472Y-123317867D01*
X41783000Y-124026395D01*
X42491528Y-123317867D01*
X42437697Y-123088821D01*
X41997453Y-122936188D01*
X42034510Y-122936220D01*
X42501458Y-122743282D01*
X42859026Y-122386337D01*
X43052779Y-121919727D01*
X43053220Y-121414490D01*
X42860282Y-120947542D01*
X42503337Y-120589974D01*
X42036727Y-120396221D01*
X42034512Y-120396219D01*
X42501458Y-120203282D01*
X42859026Y-119846337D01*
X43052779Y-119379727D01*
X43053220Y-118874490D01*
X42941994Y-118605300D01*
X42951400Y-118605300D01*
X43267306Y-118542463D01*
X43425280Y-118436908D01*
X43762459Y-118297588D01*
X44027059Y-118033449D01*
X44170437Y-117688158D01*
X44170763Y-117314282D01*
X44027988Y-116968741D01*
X43763849Y-116704141D01*
X43418558Y-116560763D01*
X43053023Y-116560444D01*
X43053220Y-116334490D01*
X42860282Y-115867542D01*
X42503337Y-115509974D01*
X42036727Y-115316221D01*
X42034512Y-115316219D01*
X42501458Y-115123282D01*
X42859026Y-114766337D01*
X43052779Y-114299727D01*
X43053220Y-113794490D01*
X42860282Y-113327542D01*
X42503337Y-112969974D01*
X42036727Y-112776221D01*
X42034512Y-112776219D01*
X42501458Y-112583282D01*
X42859026Y-112226337D01*
X42990940Y-111908650D01*
X57182824Y-111908650D01*
X57355311Y-112326101D01*
X57674419Y-112645767D01*
X58091568Y-112818982D01*
X58543250Y-112819376D01*
X58960701Y-112646889D01*
X59067606Y-112540170D01*
X59173019Y-112645767D01*
X59590168Y-112818982D01*
X60041850Y-112819376D01*
X60459301Y-112646889D01*
X60778967Y-112327781D01*
X60952182Y-111910632D01*
X60952576Y-111458950D01*
X60780089Y-111041499D01*
X60460981Y-110721833D01*
X60043832Y-110548618D01*
X59592150Y-110548224D01*
X59174699Y-110720711D01*
X59067794Y-110827430D01*
X58962381Y-110721833D01*
X58545232Y-110548618D01*
X58093550Y-110548224D01*
X57676099Y-110720711D01*
X57356433Y-111039819D01*
X57183218Y-111456968D01*
X57182824Y-111908650D01*
X42990940Y-111908650D01*
X43052779Y-111759727D01*
X43053220Y-111254490D01*
X42860282Y-110787542D01*
X42503337Y-110429974D01*
X42036727Y-110236221D01*
X41819929Y-110236032D01*
X42110023Y-110218906D01*
X42437697Y-110083179D01*
X42491528Y-109854133D01*
X41783000Y-109145605D01*
X41074472Y-109854133D01*
X41128303Y-110083179D01*
X41568547Y-110235812D01*
X41531490Y-110235780D01*
X41064542Y-110428718D01*
X40706974Y-110785663D01*
X40513221Y-111252273D01*
X40512780Y-111757510D01*
X40705718Y-112224458D01*
X41062663Y-112582026D01*
X41529273Y-112775779D01*
X41531488Y-112775781D01*
X41064542Y-112968718D01*
X40706974Y-113325663D01*
X40513221Y-113792273D01*
X40512780Y-114297510D01*
X40705718Y-114764458D01*
X41062663Y-115122026D01*
X41529273Y-115315779D01*
X41531488Y-115315781D01*
X41064542Y-115508718D01*
X40706974Y-115865663D01*
X40513221Y-116332273D01*
X40512780Y-116837510D01*
X40561036Y-116954300D01*
X39477029Y-116954300D01*
X39202158Y-116840163D01*
X38828282Y-116839837D01*
X38482741Y-116982612D01*
X38218141Y-117246751D01*
X38074763Y-117592042D01*
X38074437Y-117965918D01*
X33276315Y-117965918D01*
X33331981Y-117882609D01*
X33438321Y-117348000D01*
X33331981Y-116813391D01*
X33029149Y-116360172D01*
X32606850Y-116078000D01*
X33029149Y-115795828D01*
X33331981Y-115342609D01*
X33438321Y-114808000D01*
X33331981Y-114273391D01*
X33029149Y-113820172D01*
X32606850Y-113538000D01*
X33029149Y-113255828D01*
X33331981Y-112802609D01*
X33438321Y-112268000D01*
X33331981Y-111733391D01*
X33029149Y-111280172D01*
X32606850Y-110998000D01*
X33029149Y-110715828D01*
X33331981Y-110262609D01*
X33438321Y-109728000D01*
X33331981Y-109193391D01*
X33061551Y-108788664D01*
X40500319Y-108788664D01*
X40530094Y-109293023D01*
X40665821Y-109620697D01*
X40894867Y-109674528D01*
X41603395Y-108966000D01*
X41962605Y-108966000D01*
X42671133Y-109674528D01*
X42900179Y-109620697D01*
X43065681Y-109143336D01*
X43035906Y-108638977D01*
X42900179Y-108311303D01*
X42671133Y-108257472D01*
X41962605Y-108966000D01*
X41603395Y-108966000D01*
X40894867Y-108257472D01*
X40665821Y-108311303D01*
X40500319Y-108788664D01*
X33061551Y-108788664D01*
X33029149Y-108740172D01*
X32606850Y-108458000D01*
X33029149Y-108175828D01*
X33331981Y-107722609D01*
X33438321Y-107188000D01*
X33331981Y-106653391D01*
X33029149Y-106200172D01*
X32575930Y-105897340D01*
X32041321Y-105791000D01*
X30950679Y-105791000D01*
X30416070Y-105897340D01*
X29962851Y-106200172D01*
X29660019Y-106653391D01*
X29553679Y-107188000D01*
X21792000Y-107188000D01*
X21792000Y-102108000D01*
X29553679Y-102108000D01*
X29660019Y-102642609D01*
X29962851Y-103095828D01*
X30416070Y-103398660D01*
X30950679Y-103505000D01*
X32041321Y-103505000D01*
X32575930Y-103398660D01*
X33029149Y-103095828D01*
X33331981Y-102642609D01*
X33438321Y-102108000D01*
X33331981Y-101573391D01*
X33029149Y-101120172D01*
X32592887Y-100828670D01*
X32655941Y-100810059D01*
X33081630Y-100466026D01*
X33343260Y-99985277D01*
X33358220Y-99911070D01*
X33235720Y-99695000D01*
X31623000Y-99695000D01*
X31623000Y-99715000D01*
X31369000Y-99715000D01*
X31369000Y-99695000D01*
X29756280Y-99695000D01*
X29633780Y-99911070D01*
X29648740Y-99985277D01*
X29910370Y-100466026D01*
X30336059Y-100810059D01*
X30399113Y-100828670D01*
X29962851Y-101120172D01*
X29660019Y-101573391D01*
X29553679Y-102108000D01*
X21792000Y-102108000D01*
X21792000Y-97371070D01*
X29633780Y-97371070D01*
X29648740Y-97445277D01*
X29910370Y-97926026D01*
X30336059Y-98270059D01*
X30430723Y-98298000D01*
X30336059Y-98325941D01*
X29910370Y-98669974D01*
X29648740Y-99150723D01*
X29633780Y-99224930D01*
X29756280Y-99441000D01*
X31369000Y-99441000D01*
X31369000Y-97155000D01*
X31623000Y-97155000D01*
X31623000Y-99441000D01*
X33235720Y-99441000D01*
X33358220Y-99224930D01*
X33343260Y-99150723D01*
X33081630Y-98669974D01*
X32655941Y-98325941D01*
X32561277Y-98298000D01*
X32655941Y-98270059D01*
X33081630Y-97926026D01*
X33343260Y-97445277D01*
X33358220Y-97371070D01*
X33235720Y-97155000D01*
X31623000Y-97155000D01*
X31369000Y-97155000D01*
X29756280Y-97155000D01*
X29633780Y-97371070D01*
X21792000Y-97371070D01*
X21792000Y-92341109D01*
X22398657Y-92341109D01*
X22700218Y-93070943D01*
X23258120Y-93629819D01*
X23987427Y-93932654D01*
X24777109Y-93933343D01*
X25506943Y-93631782D01*
X26065819Y-93073880D01*
X26368654Y-92344573D01*
X26369343Y-91554891D01*
X26067782Y-90825057D01*
X25509880Y-90266181D01*
X24780573Y-89963346D01*
X23990891Y-89962657D01*
X23261057Y-90264218D01*
X22702181Y-90822120D01*
X22399346Y-91551427D01*
X22398657Y-92341109D01*
X21792000Y-92341109D01*
X21792000Y-86868000D01*
X29553679Y-86868000D01*
X29660019Y-87402609D01*
X29962851Y-87855828D01*
X30385150Y-88138000D01*
X29962851Y-88420172D01*
X29660019Y-88873391D01*
X29553679Y-89408000D01*
X29660019Y-89942609D01*
X29962851Y-90395828D01*
X30385150Y-90678000D01*
X29962851Y-90960172D01*
X29660019Y-91413391D01*
X29553679Y-91948000D01*
X29660019Y-92482609D01*
X29962851Y-92935828D01*
X30385150Y-93218000D01*
X29962851Y-93500172D01*
X29660019Y-93953391D01*
X29553679Y-94488000D01*
X29660019Y-95022609D01*
X29962851Y-95475828D01*
X30399113Y-95767330D01*
X30336059Y-95785941D01*
X29910370Y-96129974D01*
X29648740Y-96610723D01*
X29633780Y-96684930D01*
X29756280Y-96901000D01*
X31369000Y-96901000D01*
X31369000Y-96881000D01*
X31623000Y-96881000D01*
X31623000Y-96901000D01*
X33235720Y-96901000D01*
X33358220Y-96684930D01*
X33343260Y-96610723D01*
X33081630Y-96129974D01*
X32655941Y-95785941D01*
X32592887Y-95767330D01*
X33029149Y-95475828D01*
X33331981Y-95022609D01*
X33438321Y-94488000D01*
X33331981Y-93953391D01*
X33029149Y-93500172D01*
X32606850Y-93218000D01*
X33029149Y-92935828D01*
X33331981Y-92482609D01*
X33438321Y-91948000D01*
X33331981Y-91413391D01*
X33029149Y-90960172D01*
X32606850Y-90678000D01*
X33029149Y-90395828D01*
X33331981Y-89942609D01*
X33438321Y-89408000D01*
X33331981Y-88873391D01*
X33029149Y-88420172D01*
X32606850Y-88138000D01*
X33029149Y-87855828D01*
X33331981Y-87402609D01*
X33438321Y-86868000D01*
X33331981Y-86333391D01*
X33029149Y-85880172D01*
X32575930Y-85577340D01*
X32041321Y-85471000D01*
X30950679Y-85471000D01*
X30416070Y-85577340D01*
X29962851Y-85880172D01*
X29660019Y-86333391D01*
X29553679Y-86868000D01*
X21792000Y-86868000D01*
X21792000Y-78737510D01*
X40512780Y-78737510D01*
X40705718Y-79204458D01*
X41062663Y-79562026D01*
X41529273Y-79755779D01*
X41531488Y-79755781D01*
X41064542Y-79948718D01*
X40706974Y-80305663D01*
X40513221Y-80772273D01*
X40512780Y-81277510D01*
X40705718Y-81744458D01*
X41062663Y-82102026D01*
X41529273Y-82295779D01*
X41531488Y-82295781D01*
X41064542Y-82488718D01*
X40706974Y-82845663D01*
X40513221Y-83312273D01*
X40512780Y-83817510D01*
X40705718Y-84284458D01*
X41062663Y-84642026D01*
X41529273Y-84835779D01*
X41531488Y-84835781D01*
X41064542Y-85028718D01*
X40706974Y-85385663D01*
X40513221Y-85852273D01*
X40512780Y-86357510D01*
X40705718Y-86824458D01*
X41062663Y-87182026D01*
X41529273Y-87375779D01*
X41531488Y-87375781D01*
X41064542Y-87568718D01*
X40706974Y-87925663D01*
X40513221Y-88392273D01*
X40512780Y-88897510D01*
X40705718Y-89364458D01*
X41062663Y-89722026D01*
X41529273Y-89915779D01*
X41531488Y-89915781D01*
X41064542Y-90108718D01*
X40706974Y-90465663D01*
X40513221Y-90932273D01*
X40512780Y-91437510D01*
X40705718Y-91904458D01*
X41062663Y-92262026D01*
X41529273Y-92455779D01*
X41531488Y-92455781D01*
X41064542Y-92648718D01*
X40706974Y-93005663D01*
X40513221Y-93472273D01*
X40512780Y-93977510D01*
X40705718Y-94444458D01*
X41062663Y-94802026D01*
X41529273Y-94995779D01*
X41531488Y-94995781D01*
X41064542Y-95188718D01*
X40706974Y-95545663D01*
X40513221Y-96012273D01*
X40512780Y-96517510D01*
X40705718Y-96984458D01*
X41062663Y-97342026D01*
X41529273Y-97535779D01*
X41531488Y-97535781D01*
X41064542Y-97728718D01*
X40706974Y-98085663D01*
X40513221Y-98552273D01*
X40512780Y-99057510D01*
X40705718Y-99524458D01*
X41062663Y-99882026D01*
X41529273Y-100075779D01*
X41531488Y-100075781D01*
X41064542Y-100268718D01*
X40706974Y-100625663D01*
X40513221Y-101092273D01*
X40512780Y-101597510D01*
X40705718Y-102064458D01*
X41062663Y-102422026D01*
X41529273Y-102615779D01*
X41531488Y-102615781D01*
X41064542Y-102808718D01*
X40706974Y-103165663D01*
X40513221Y-103632273D01*
X40512780Y-104137510D01*
X40705718Y-104604458D01*
X41062663Y-104962026D01*
X41529273Y-105155779D01*
X41531488Y-105155781D01*
X41064542Y-105348718D01*
X40706974Y-105705663D01*
X40513221Y-106172273D01*
X40512780Y-106677510D01*
X40705718Y-107144458D01*
X41062663Y-107502026D01*
X41529273Y-107695779D01*
X41746071Y-107695968D01*
X41455977Y-107713094D01*
X41128303Y-107848821D01*
X41074472Y-108077867D01*
X41783000Y-108786395D01*
X42491528Y-108077867D01*
X42437697Y-107848821D01*
X41997453Y-107696188D01*
X42034510Y-107696220D01*
X42501458Y-107503282D01*
X42859026Y-107146337D01*
X43052779Y-106679727D01*
X43053220Y-106174490D01*
X42860282Y-105707542D01*
X42503337Y-105349974D01*
X42036727Y-105156221D01*
X42034512Y-105156219D01*
X42501458Y-104963282D01*
X42859026Y-104606337D01*
X43052779Y-104139727D01*
X43053220Y-103634490D01*
X42860282Y-103167542D01*
X42503337Y-102809974D01*
X42036727Y-102616221D01*
X42034512Y-102616219D01*
X42501458Y-102423282D01*
X42859026Y-102066337D01*
X43052779Y-101599727D01*
X43053220Y-101094490D01*
X42860282Y-100627542D01*
X42503337Y-100269974D01*
X42036727Y-100076221D01*
X42034512Y-100076219D01*
X42501458Y-99883282D01*
X42859026Y-99526337D01*
X43052779Y-99059727D01*
X43053220Y-98554490D01*
X42860282Y-98087542D01*
X42503337Y-97729974D01*
X42036727Y-97536221D01*
X42034512Y-97536219D01*
X42501458Y-97343282D01*
X42859026Y-96986337D01*
X43052779Y-96519727D01*
X43053220Y-96014490D01*
X42860282Y-95547542D01*
X42503337Y-95189974D01*
X42036727Y-94996221D01*
X42034512Y-94996219D01*
X42501458Y-94803282D01*
X42859026Y-94446337D01*
X43052779Y-93979727D01*
X43052780Y-93977510D01*
X65912780Y-93977510D01*
X66105718Y-94444458D01*
X66462663Y-94802026D01*
X66929273Y-94995779D01*
X66931488Y-94995781D01*
X66464542Y-95188718D01*
X66106974Y-95545663D01*
X65913221Y-96012273D01*
X65912780Y-96517510D01*
X66105718Y-96984458D01*
X66462663Y-97342026D01*
X66929273Y-97535779D01*
X66931488Y-97535781D01*
X66464542Y-97728718D01*
X66106974Y-98085663D01*
X65913221Y-98552273D01*
X65912780Y-99057510D01*
X66105718Y-99524458D01*
X66462663Y-99882026D01*
X66929273Y-100075779D01*
X66931488Y-100075781D01*
X66464542Y-100268718D01*
X66106974Y-100625663D01*
X65913221Y-101092273D01*
X65912780Y-101597510D01*
X66105718Y-102064458D01*
X66462663Y-102422026D01*
X66929273Y-102615779D01*
X66931488Y-102615781D01*
X66464542Y-102808718D01*
X66106974Y-103165663D01*
X65913221Y-103632273D01*
X65912780Y-104137510D01*
X66105718Y-104604458D01*
X66462663Y-104962026D01*
X66929273Y-105155779D01*
X66931488Y-105155781D01*
X66464542Y-105348718D01*
X66106974Y-105705663D01*
X65913221Y-106172273D01*
X65912780Y-106677510D01*
X66105718Y-107144458D01*
X66462663Y-107502026D01*
X66929273Y-107695779D01*
X66931488Y-107695781D01*
X66464542Y-107888718D01*
X66106974Y-108245663D01*
X65913221Y-108712273D01*
X65912780Y-109217510D01*
X66105718Y-109684458D01*
X66462663Y-110042026D01*
X66929273Y-110235779D01*
X66931488Y-110235781D01*
X66464542Y-110428718D01*
X66106974Y-110785663D01*
X65913221Y-111252273D01*
X65912780Y-111757510D01*
X66105718Y-112224458D01*
X66462663Y-112582026D01*
X66929273Y-112775779D01*
X66931488Y-112775781D01*
X66464542Y-112968718D01*
X66106974Y-113325663D01*
X65913221Y-113792273D01*
X65912780Y-114297510D01*
X66105718Y-114764458D01*
X66462663Y-115122026D01*
X66929273Y-115315779D01*
X66931488Y-115315781D01*
X66464542Y-115508718D01*
X66106974Y-115865663D01*
X65913221Y-116332273D01*
X65912780Y-116837510D01*
X66105718Y-117304458D01*
X66462663Y-117662026D01*
X66929273Y-117855779D01*
X66931488Y-117855781D01*
X66464542Y-118048718D01*
X66106974Y-118405663D01*
X65913221Y-118872273D01*
X65912780Y-119377510D01*
X66105718Y-119844458D01*
X66462663Y-120202026D01*
X66929273Y-120395779D01*
X66931488Y-120395781D01*
X66464542Y-120588718D01*
X66106974Y-120945663D01*
X65913221Y-121412273D01*
X65912780Y-121917510D01*
X66105718Y-122384458D01*
X66462663Y-122742026D01*
X66929273Y-122935779D01*
X66931488Y-122935781D01*
X66464542Y-123128718D01*
X66106974Y-123485663D01*
X65913221Y-123952273D01*
X65912780Y-124457510D01*
X66105718Y-124924458D01*
X66462663Y-125282026D01*
X66929273Y-125475779D01*
X67434510Y-125476220D01*
X67901458Y-125283282D01*
X68259026Y-124926337D01*
X68452779Y-124459727D01*
X68453220Y-123954490D01*
X68260282Y-123487542D01*
X67903337Y-123129974D01*
X67436727Y-122936221D01*
X67434512Y-122936219D01*
X67713101Y-122821109D01*
X158288657Y-122821109D01*
X158590218Y-123550943D01*
X159148120Y-124109819D01*
X159877427Y-124412654D01*
X160667109Y-124413343D01*
X161396943Y-124111782D01*
X161955819Y-123553880D01*
X162258654Y-122824573D01*
X162259343Y-122034891D01*
X161957782Y-121305057D01*
X161399880Y-120746181D01*
X160670573Y-120443346D01*
X159880891Y-120442657D01*
X159151057Y-120744218D01*
X158592181Y-121302120D01*
X158289346Y-122031427D01*
X158288657Y-122821109D01*
X67713101Y-122821109D01*
X67901458Y-122743282D01*
X68259026Y-122386337D01*
X68452779Y-121919727D01*
X68453220Y-121414490D01*
X68260282Y-120947542D01*
X67903337Y-120589974D01*
X67436727Y-120396221D01*
X67434512Y-120396219D01*
X67901458Y-120203282D01*
X68259026Y-119846337D01*
X68452779Y-119379727D01*
X68453220Y-118874490D01*
X68260282Y-118407542D01*
X67903337Y-118049974D01*
X67436727Y-117856221D01*
X67434512Y-117856219D01*
X67901458Y-117663282D01*
X68259026Y-117306337D01*
X68452779Y-116839727D01*
X68453220Y-116334490D01*
X68260282Y-115867542D01*
X67903337Y-115509974D01*
X67436727Y-115316221D01*
X67434512Y-115316219D01*
X67901458Y-115123282D01*
X68259026Y-114766337D01*
X68452779Y-114299727D01*
X68453220Y-113794490D01*
X68260282Y-113327542D01*
X67903337Y-112969974D01*
X67436727Y-112776221D01*
X67434512Y-112776219D01*
X67901458Y-112583282D01*
X68259026Y-112226337D01*
X68452779Y-111759727D01*
X68453220Y-111254490D01*
X68260282Y-110787542D01*
X67903337Y-110429974D01*
X67436727Y-110236221D01*
X67434512Y-110236219D01*
X67901458Y-110043282D01*
X68259026Y-109686337D01*
X68452779Y-109219727D01*
X68453220Y-108714490D01*
X68260282Y-108247542D01*
X67965202Y-107951946D01*
X72054017Y-107951946D01*
X72322812Y-108537379D01*
X72795182Y-108975385D01*
X73277056Y-109174975D01*
X73533000Y-109055836D01*
X73533000Y-107696000D01*
X72172633Y-107696000D01*
X72054017Y-107951946D01*
X67965202Y-107951946D01*
X67903337Y-107889974D01*
X67436727Y-107696221D01*
X67434512Y-107696219D01*
X67901458Y-107503282D01*
X68219239Y-107186054D01*
X72054017Y-107186054D01*
X72172633Y-107442000D01*
X73533000Y-107442000D01*
X73533000Y-106082164D01*
X73277056Y-105963025D01*
X72795182Y-106162615D01*
X72322812Y-106600621D01*
X72054017Y-107186054D01*
X68219239Y-107186054D01*
X68259026Y-107146337D01*
X68452779Y-106679727D01*
X68453220Y-106174490D01*
X68260282Y-105707542D01*
X67903337Y-105349974D01*
X67436727Y-105156221D01*
X67434512Y-105156219D01*
X67901458Y-104963282D01*
X68259026Y-104606337D01*
X68452779Y-104139727D01*
X68453220Y-103634490D01*
X68260282Y-103167542D01*
X67903337Y-102809974D01*
X67436727Y-102616221D01*
X67434512Y-102616219D01*
X67901458Y-102423282D01*
X68259026Y-102066337D01*
X68452779Y-101599727D01*
X68453220Y-101094490D01*
X68260282Y-100627542D01*
X68011982Y-100378808D01*
X72999424Y-100378808D01*
X73153775Y-100752366D01*
X73439331Y-101038421D01*
X73812618Y-101193424D01*
X73864035Y-101193469D01*
X75362283Y-102691717D01*
X75630094Y-102870663D01*
X75946000Y-102933501D01*
X75946005Y-102933500D01*
X78114387Y-102933500D01*
X78222851Y-103095828D01*
X78645150Y-103378000D01*
X78222851Y-103660172D01*
X77920019Y-104113391D01*
X77813679Y-104648000D01*
X77920019Y-105182609D01*
X78222851Y-105635828D01*
X78645150Y-105918000D01*
X78222851Y-106200172D01*
X77920019Y-106653391D01*
X77863440Y-106937834D01*
X77863440Y-106553000D01*
X77819162Y-106317683D01*
X77680090Y-106101559D01*
X77467890Y-105956569D01*
X77216000Y-105905560D01*
X75184000Y-105905560D01*
X74948683Y-105949838D01*
X74732559Y-106088910D01*
X74621160Y-106251948D01*
X74524818Y-106162615D01*
X74042944Y-105963025D01*
X73787000Y-106082164D01*
X73787000Y-107442000D01*
X73807000Y-107442000D01*
X73807000Y-107696000D01*
X73787000Y-107696000D01*
X73787000Y-109055836D01*
X74042944Y-109174975D01*
X74524818Y-108975385D01*
X74622398Y-108884903D01*
X74719910Y-109036441D01*
X74932110Y-109181431D01*
X75184000Y-109232440D01*
X77216000Y-109232440D01*
X77451317Y-109188162D01*
X77667441Y-109049090D01*
X77812431Y-108836890D01*
X77863440Y-108585000D01*
X77863440Y-107438166D01*
X77920019Y-107722609D01*
X78222851Y-108175828D01*
X78645150Y-108458000D01*
X78222851Y-108740172D01*
X77920019Y-109193391D01*
X77813679Y-109728000D01*
X77920019Y-110262609D01*
X78222851Y-110715828D01*
X78645150Y-110998000D01*
X78222851Y-111280172D01*
X77920019Y-111733391D01*
X77813679Y-112268000D01*
X77920019Y-112802609D01*
X78222851Y-113255828D01*
X78645150Y-113538000D01*
X78222851Y-113820172D01*
X77920019Y-114273391D01*
X77813679Y-114808000D01*
X77920019Y-115342609D01*
X78222851Y-115795828D01*
X78645150Y-116078000D01*
X78222851Y-116360172D01*
X77920019Y-116813391D01*
X77813679Y-117348000D01*
X77920019Y-117882609D01*
X78222851Y-118335828D01*
X78645150Y-118618000D01*
X78222851Y-118900172D01*
X77920019Y-119353391D01*
X77813679Y-119888000D01*
X77920019Y-120422609D01*
X78222851Y-120875828D01*
X78676070Y-121178660D01*
X79210679Y-121285000D01*
X80301321Y-121285000D01*
X80835930Y-121178660D01*
X81289149Y-120875828D01*
X81591981Y-120422609D01*
X81698321Y-119888000D01*
X81591981Y-119353391D01*
X81465061Y-119163441D01*
X99288538Y-119163441D01*
X99574907Y-119856508D01*
X100104703Y-120387229D01*
X100797269Y-120674808D01*
X101547169Y-120675462D01*
X102240236Y-120389093D01*
X102770957Y-119859297D01*
X103058536Y-119166731D01*
X103059190Y-118416831D01*
X102772821Y-117723764D01*
X102243025Y-117193043D01*
X101550459Y-116905464D01*
X100800559Y-116904810D01*
X100107492Y-117191179D01*
X99576771Y-117720975D01*
X99289192Y-118413541D01*
X99288538Y-119163441D01*
X81465061Y-119163441D01*
X81289149Y-118900172D01*
X80866850Y-118618000D01*
X81289149Y-118335828D01*
X81591981Y-117882609D01*
X81698321Y-117348000D01*
X81591981Y-116813391D01*
X81289149Y-116360172D01*
X80866850Y-116078000D01*
X81289149Y-115795828D01*
X81591981Y-115342609D01*
X81698321Y-114808000D01*
X81591981Y-114273391D01*
X81289149Y-113820172D01*
X80866850Y-113538000D01*
X81289149Y-113255828D01*
X81591981Y-112802609D01*
X81698321Y-112268000D01*
X81646607Y-112008015D01*
X89920641Y-112008015D01*
X90305746Y-112940041D01*
X91018208Y-113653748D01*
X91949561Y-114040479D01*
X92958015Y-114041359D01*
X93890041Y-113656254D01*
X94603748Y-112943792D01*
X94990479Y-112012439D01*
X94990482Y-112008015D01*
X105160641Y-112008015D01*
X105545746Y-112940041D01*
X106258208Y-113653748D01*
X107189561Y-114040479D01*
X108198015Y-114041359D01*
X109130041Y-113656254D01*
X109843748Y-112943792D01*
X110230479Y-112012439D01*
X110230482Y-112008015D01*
X120400641Y-112008015D01*
X120785746Y-112940041D01*
X121498208Y-113653748D01*
X122429561Y-114040479D01*
X123438015Y-114041359D01*
X124370041Y-113656254D01*
X125083748Y-112943792D01*
X125470479Y-112012439D01*
X125470482Y-112008015D01*
X135640641Y-112008015D01*
X136025746Y-112940041D01*
X136738208Y-113653748D01*
X137669561Y-114040479D01*
X138678015Y-114041359D01*
X139610041Y-113656254D01*
X140323748Y-112943792D01*
X140710479Y-112012439D01*
X140710482Y-112008015D01*
X150880641Y-112008015D01*
X151265746Y-112940041D01*
X151978208Y-113653748D01*
X152909561Y-114040479D01*
X153918015Y-114041359D01*
X154850041Y-113656254D01*
X155563748Y-112943792D01*
X155950479Y-112012439D01*
X155951359Y-111003985D01*
X155566254Y-110071959D01*
X154853792Y-109358252D01*
X153922439Y-108971521D01*
X152913985Y-108970641D01*
X151981959Y-109355746D01*
X151268252Y-110068208D01*
X150881521Y-110999561D01*
X150880641Y-112008015D01*
X140710482Y-112008015D01*
X140711359Y-111003985D01*
X140326254Y-110071959D01*
X139613792Y-109358252D01*
X138682439Y-108971521D01*
X137673985Y-108970641D01*
X136741959Y-109355746D01*
X136028252Y-110068208D01*
X135641521Y-110999561D01*
X135640641Y-112008015D01*
X125470482Y-112008015D01*
X125471359Y-111003985D01*
X125086254Y-110071959D01*
X124373792Y-109358252D01*
X123442439Y-108971521D01*
X122433985Y-108970641D01*
X121501959Y-109355746D01*
X120788252Y-110068208D01*
X120401521Y-110999561D01*
X120400641Y-112008015D01*
X110230482Y-112008015D01*
X110231359Y-111003985D01*
X109846254Y-110071959D01*
X109133792Y-109358252D01*
X108202439Y-108971521D01*
X107193985Y-108970641D01*
X106261959Y-109355746D01*
X105548252Y-110068208D01*
X105161521Y-110999561D01*
X105160641Y-112008015D01*
X94990482Y-112008015D01*
X94991359Y-111003985D01*
X94606254Y-110071959D01*
X93893792Y-109358252D01*
X92962439Y-108971521D01*
X91953985Y-108970641D01*
X91021959Y-109355746D01*
X90308252Y-110068208D01*
X89921521Y-110999561D01*
X89920641Y-112008015D01*
X81646607Y-112008015D01*
X81591981Y-111733391D01*
X81289149Y-111280172D01*
X80866850Y-110998000D01*
X81289149Y-110715828D01*
X81591981Y-110262609D01*
X81698321Y-109728000D01*
X81591981Y-109193391D01*
X81289149Y-108740172D01*
X80866850Y-108458000D01*
X81289149Y-108175828D01*
X81591981Y-107722609D01*
X81698321Y-107188000D01*
X81591981Y-106653391D01*
X81289149Y-106200172D01*
X80866850Y-105918000D01*
X80980931Y-105841773D01*
X114301832Y-105841773D01*
X114301832Y-106066279D01*
X114777673Y-106542121D01*
X114956302Y-106720749D01*
X115189691Y-106817422D01*
X115442310Y-106817421D01*
X115675699Y-106720748D01*
X116330168Y-106066279D01*
X116330168Y-105841773D01*
X115316000Y-104827605D01*
X114301832Y-105841773D01*
X80980931Y-105841773D01*
X81289149Y-105635828D01*
X81591981Y-105182609D01*
X81673196Y-104774309D01*
X113146578Y-104774309D01*
X113243251Y-105007698D01*
X113421879Y-105186327D01*
X113897721Y-105662168D01*
X114122227Y-105662168D01*
X115136395Y-104648000D01*
X115495605Y-104648000D01*
X116509773Y-105662168D01*
X116734279Y-105662168D01*
X117388748Y-105007699D01*
X117485421Y-104774310D01*
X117485422Y-104521691D01*
X117388749Y-104288302D01*
X117210121Y-104109673D01*
X116734279Y-103633832D01*
X116509773Y-103633832D01*
X115495605Y-104648000D01*
X115136395Y-104648000D01*
X114122227Y-103633832D01*
X113897721Y-103633832D01*
X113243252Y-104288301D01*
X113146579Y-104521690D01*
X113146578Y-104774309D01*
X81673196Y-104774309D01*
X81698321Y-104648000D01*
X81591981Y-104113391D01*
X81289149Y-103660172D01*
X80866850Y-103378000D01*
X81088764Y-103229721D01*
X114301832Y-103229721D01*
X114301832Y-103454227D01*
X115316000Y-104468395D01*
X116330168Y-103454227D01*
X116330168Y-103229721D01*
X115854327Y-102753879D01*
X115675698Y-102575251D01*
X115442309Y-102478578D01*
X115189690Y-102478579D01*
X114956301Y-102575252D01*
X114301832Y-103229721D01*
X81088764Y-103229721D01*
X81289149Y-103095828D01*
X81591981Y-102642609D01*
X81698321Y-102108000D01*
X81591981Y-101573391D01*
X81289149Y-101120172D01*
X80835930Y-100817340D01*
X80301321Y-100711000D01*
X79210679Y-100711000D01*
X78676070Y-100817340D01*
X78222851Y-101120172D01*
X78114387Y-101282500D01*
X76287934Y-101282500D01*
X75031733Y-100026299D01*
X75031776Y-99976392D01*
X74877425Y-99602834D01*
X74591869Y-99316779D01*
X74218582Y-99161776D01*
X73814392Y-99161424D01*
X73440834Y-99315775D01*
X73154779Y-99601331D01*
X72999776Y-99974618D01*
X72999424Y-100378808D01*
X68011982Y-100378808D01*
X67903337Y-100269974D01*
X67436727Y-100076221D01*
X67434512Y-100076219D01*
X67901458Y-99883282D01*
X68259026Y-99526337D01*
X68452779Y-99059727D01*
X68453220Y-98554490D01*
X68260282Y-98087542D01*
X67903337Y-97729974D01*
X67436727Y-97536221D01*
X67434512Y-97536219D01*
X67901458Y-97343282D01*
X68259026Y-96986337D01*
X68452779Y-96519727D01*
X68453220Y-96014490D01*
X68260282Y-95547542D01*
X67903337Y-95189974D01*
X67436727Y-94996221D01*
X67434512Y-94996219D01*
X67901458Y-94803282D01*
X68259026Y-94446337D01*
X68452779Y-93979727D01*
X68453220Y-93474490D01*
X68260282Y-93007542D01*
X67903337Y-92649974D01*
X67436727Y-92456221D01*
X67219929Y-92456032D01*
X67510023Y-92438906D01*
X67837697Y-92303179D01*
X67891528Y-92074133D01*
X67183000Y-91365605D01*
X66474472Y-92074133D01*
X66528303Y-92303179D01*
X66968547Y-92455812D01*
X66931490Y-92455780D01*
X66464542Y-92648718D01*
X66106974Y-93005663D01*
X65913221Y-93472273D01*
X65912780Y-93977510D01*
X43052780Y-93977510D01*
X43053220Y-93474490D01*
X42860282Y-93007542D01*
X42503337Y-92649974D01*
X42036727Y-92456221D01*
X42034512Y-92456219D01*
X42501458Y-92263282D01*
X42859026Y-91906337D01*
X43052779Y-91439727D01*
X43053155Y-91008664D01*
X65900319Y-91008664D01*
X65930094Y-91513023D01*
X66065821Y-91840697D01*
X66294867Y-91894528D01*
X67003395Y-91186000D01*
X67362605Y-91186000D01*
X68071133Y-91894528D01*
X68300179Y-91840697D01*
X68465681Y-91363336D01*
X68435906Y-90858977D01*
X68300179Y-90531303D01*
X68071133Y-90477472D01*
X67362605Y-91186000D01*
X67003395Y-91186000D01*
X66294867Y-90477472D01*
X66065821Y-90531303D01*
X65900319Y-91008664D01*
X43053155Y-91008664D01*
X43053220Y-90934490D01*
X42860282Y-90467542D01*
X42503337Y-90109974D01*
X42036727Y-89916221D01*
X42034512Y-89916219D01*
X42501458Y-89723282D01*
X42859026Y-89366337D01*
X43052779Y-88899727D01*
X43053220Y-88394490D01*
X42860282Y-87927542D01*
X42503337Y-87569974D01*
X42036727Y-87376221D01*
X42034512Y-87376219D01*
X42501458Y-87183282D01*
X42859026Y-86826337D01*
X43052779Y-86359727D01*
X43053220Y-85854490D01*
X42860282Y-85387542D01*
X42503337Y-85029974D01*
X42036727Y-84836221D01*
X42034512Y-84836219D01*
X42501458Y-84643282D01*
X42859026Y-84286337D01*
X43052779Y-83819727D01*
X43053220Y-83314490D01*
X42860282Y-82847542D01*
X42503337Y-82489974D01*
X42036727Y-82296221D01*
X42034512Y-82296219D01*
X42501458Y-82103282D01*
X42859026Y-81746337D01*
X43052779Y-81279727D01*
X43053220Y-80774490D01*
X42860282Y-80307542D01*
X42503337Y-79949974D01*
X42036727Y-79756221D01*
X42034512Y-79756219D01*
X42501458Y-79563282D01*
X42859026Y-79206337D01*
X43052779Y-78739727D01*
X43052780Y-78737510D01*
X65912780Y-78737510D01*
X66105718Y-79204458D01*
X66462663Y-79562026D01*
X66929273Y-79755779D01*
X66931488Y-79755781D01*
X66464542Y-79948718D01*
X66106974Y-80305663D01*
X65913221Y-80772273D01*
X65912780Y-81277510D01*
X66105718Y-81744458D01*
X66462663Y-82102026D01*
X66929273Y-82295779D01*
X66931488Y-82295781D01*
X66464542Y-82488718D01*
X66106974Y-82845663D01*
X65913221Y-83312273D01*
X65912780Y-83817510D01*
X66105718Y-84284458D01*
X66462663Y-84642026D01*
X66929273Y-84835779D01*
X66931488Y-84835781D01*
X66464542Y-85028718D01*
X66106974Y-85385663D01*
X65913221Y-85852273D01*
X65912780Y-86357510D01*
X66105718Y-86824458D01*
X66462663Y-87182026D01*
X66929273Y-87375779D01*
X66931488Y-87375781D01*
X66464542Y-87568718D01*
X66106974Y-87925663D01*
X65913221Y-88392273D01*
X65912780Y-88897510D01*
X66105718Y-89364458D01*
X66462663Y-89722026D01*
X66929273Y-89915779D01*
X67146071Y-89915968D01*
X66855977Y-89933094D01*
X66528303Y-90068821D01*
X66474472Y-90297867D01*
X67183000Y-91006395D01*
X67891528Y-90297867D01*
X67837697Y-90068821D01*
X67397453Y-89916188D01*
X67434510Y-89916220D01*
X67901458Y-89723282D01*
X68259026Y-89366337D01*
X68452779Y-88899727D01*
X68453220Y-88394490D01*
X68260282Y-87927542D01*
X67903337Y-87569974D01*
X67436727Y-87376221D01*
X67434512Y-87376219D01*
X67901458Y-87183282D01*
X68259026Y-86826337D01*
X68452779Y-86359727D01*
X68453220Y-85854490D01*
X68260282Y-85387542D01*
X68216816Y-85344000D01*
X77813679Y-85344000D01*
X77920019Y-85878609D01*
X78222851Y-86331828D01*
X78645150Y-86614000D01*
X78222851Y-86896172D01*
X77920019Y-87349391D01*
X77813679Y-87884000D01*
X77920019Y-88418609D01*
X78222851Y-88871828D01*
X78645150Y-89154000D01*
X78222851Y-89436172D01*
X77920019Y-89889391D01*
X77813679Y-90424000D01*
X77920019Y-90958609D01*
X78222851Y-91411828D01*
X78645150Y-91694000D01*
X78222851Y-91976172D01*
X77920019Y-92429391D01*
X77813679Y-92964000D01*
X77920019Y-93498609D01*
X78222851Y-93951828D01*
X78645150Y-94234000D01*
X78222851Y-94516172D01*
X77920019Y-94969391D01*
X77813679Y-95504000D01*
X77920019Y-96038609D01*
X78222851Y-96491828D01*
X78645150Y-96774000D01*
X78222851Y-97056172D01*
X77920019Y-97509391D01*
X77813679Y-98044000D01*
X77920019Y-98578609D01*
X78222851Y-99031828D01*
X78676070Y-99334660D01*
X79210679Y-99441000D01*
X80301321Y-99441000D01*
X80835930Y-99334660D01*
X81289149Y-99031828D01*
X81397613Y-98869500D01*
X81407000Y-98869500D01*
X81722906Y-98806663D01*
X81990717Y-98627717D01*
X85162460Y-95455974D01*
X85322215Y-95216884D01*
X85439564Y-95099740D01*
X85594567Y-94726453D01*
X85594919Y-94322263D01*
X85440568Y-93948705D01*
X85303187Y-93811084D01*
X85305164Y-93806324D01*
X85305516Y-93402134D01*
X85199322Y-93145126D01*
X85324154Y-92844499D01*
X85324506Y-92440309D01*
X85255525Y-92273362D01*
X85268039Y-92260870D01*
X85423042Y-91887583D01*
X85423394Y-91483393D01*
X85269043Y-91109835D01*
X84983487Y-90823780D01*
X84610200Y-90668777D01*
X84215867Y-90668434D01*
X84073434Y-90526000D01*
X85979000Y-90526000D01*
X85979000Y-98628793D01*
X86085340Y-99163402D01*
X86388172Y-99616621D01*
X88343379Y-101571828D01*
X88796598Y-101874660D01*
X89331207Y-101981000D01*
X132398856Y-101981000D01*
X132933465Y-101874660D01*
X133386684Y-101571828D01*
X134620683Y-100337829D01*
X134923515Y-99884610D01*
X135029855Y-99350001D01*
X135029855Y-96977039D01*
X135185190Y-97062649D01*
X135279168Y-97083540D01*
X135509000Y-96962214D01*
X135509000Y-94869000D01*
X135489000Y-94869000D01*
X135489000Y-94615000D01*
X135509000Y-94615000D01*
X135509000Y-92521786D01*
X135763000Y-92521786D01*
X135763000Y-94615000D01*
X135783000Y-94615000D01*
X135783000Y-94869000D01*
X135763000Y-94869000D01*
X135763000Y-96962214D01*
X135992832Y-97083540D01*
X136086810Y-97062649D01*
X136595989Y-96782024D01*
X136900484Y-96401127D01*
X137126208Y-96738948D01*
X137607857Y-97060775D01*
X138176000Y-97173786D01*
X138744143Y-97060775D01*
X139225792Y-96738948D01*
X139446000Y-96409383D01*
X139666208Y-96738948D01*
X140147857Y-97060775D01*
X140716000Y-97173786D01*
X141284143Y-97060775D01*
X141765792Y-96738948D01*
X142087619Y-96257299D01*
X142200630Y-95689156D01*
X142200630Y-94869000D01*
X149391370Y-94869000D01*
X149391370Y-95769430D01*
X149552982Y-96327906D01*
X149916011Y-96782024D01*
X150425190Y-97062649D01*
X150519168Y-97083540D01*
X150749000Y-96962214D01*
X150749000Y-94869000D01*
X149391370Y-94869000D01*
X142200630Y-94869000D01*
X142200630Y-93794844D01*
X142184663Y-93714570D01*
X149391370Y-93714570D01*
X149391370Y-94615000D01*
X150749000Y-94615000D01*
X150749000Y-92521786D01*
X151003000Y-92521786D01*
X151003000Y-94615000D01*
X151023000Y-94615000D01*
X151023000Y-94869000D01*
X151003000Y-94869000D01*
X151003000Y-96962214D01*
X151232832Y-97083540D01*
X151326810Y-97062649D01*
X151835989Y-96782024D01*
X152140484Y-96401127D01*
X152366208Y-96738948D01*
X152847857Y-97060775D01*
X153416000Y-97173786D01*
X153984143Y-97060775D01*
X154465792Y-96738948D01*
X154686000Y-96409383D01*
X154906208Y-96738948D01*
X155387857Y-97060775D01*
X155956000Y-97173786D01*
X156524143Y-97060775D01*
X157005792Y-96738948D01*
X157327619Y-96257299D01*
X157440630Y-95689156D01*
X157440630Y-93794844D01*
X157327619Y-93226701D01*
X157005792Y-92745052D01*
X156524143Y-92423225D01*
X155956000Y-92310214D01*
X155387857Y-92423225D01*
X154906208Y-92745052D01*
X154686000Y-93074617D01*
X154465792Y-92745052D01*
X153984143Y-92423225D01*
X153416000Y-92310214D01*
X152847857Y-92423225D01*
X152366208Y-92745052D01*
X152140484Y-93082873D01*
X151835989Y-92701976D01*
X151326810Y-92421351D01*
X151232832Y-92400460D01*
X151003000Y-92521786D01*
X150749000Y-92521786D01*
X150519168Y-92400460D01*
X150425190Y-92421351D01*
X149916011Y-92701976D01*
X149552982Y-93156094D01*
X149391370Y-93714570D01*
X142184663Y-93714570D01*
X142087619Y-93226701D01*
X141765792Y-92745052D01*
X141284143Y-92423225D01*
X140716000Y-92310214D01*
X140147857Y-92423225D01*
X139666208Y-92745052D01*
X139446000Y-93074617D01*
X139225792Y-92745052D01*
X138744143Y-92423225D01*
X138176000Y-92310214D01*
X137607857Y-92423225D01*
X137126208Y-92745052D01*
X136900484Y-93082873D01*
X136595989Y-92701976D01*
X136086810Y-92421351D01*
X135992832Y-92400460D01*
X135763000Y-92521786D01*
X135509000Y-92521786D01*
X135279168Y-92400460D01*
X135185190Y-92421351D01*
X135029855Y-92506961D01*
X135029855Y-90313801D01*
X136623828Y-88719828D01*
X136926660Y-88266609D01*
X137033000Y-87732000D01*
X137033000Y-85558000D01*
X136933440Y-85057476D01*
X136933440Y-84908000D01*
X136889162Y-84672683D01*
X136750090Y-84456559D01*
X136537890Y-84311569D01*
X136286000Y-84260560D01*
X136136524Y-84260560D01*
X136127802Y-84258825D01*
X136299729Y-84187611D01*
X136355410Y-83957016D01*
X135636000Y-83237605D01*
X134916590Y-83957016D01*
X134972271Y-84187611D01*
X135165017Y-84254684D01*
X135135476Y-84260560D01*
X134986000Y-84260560D01*
X134750683Y-84304838D01*
X134534559Y-84443910D01*
X134389569Y-84656110D01*
X134338560Y-84908000D01*
X134338560Y-85057476D01*
X134239000Y-85558000D01*
X134239000Y-87153344D01*
X132645027Y-88747317D01*
X132342195Y-89200536D01*
X132235855Y-89735145D01*
X132235855Y-98771345D01*
X131820200Y-99187000D01*
X119701945Y-99187000D01*
X119701945Y-96928589D01*
X119945190Y-97062649D01*
X120039168Y-97083540D01*
X120269000Y-96962214D01*
X120269000Y-94869000D01*
X120249000Y-94869000D01*
X120249000Y-94615000D01*
X120269000Y-94615000D01*
X120269000Y-92521786D01*
X120523000Y-92521786D01*
X120523000Y-94615000D01*
X120543000Y-94615000D01*
X120543000Y-94869000D01*
X120523000Y-94869000D01*
X120523000Y-96962214D01*
X120752832Y-97083540D01*
X120846810Y-97062649D01*
X121355989Y-96782024D01*
X121660484Y-96401127D01*
X121886208Y-96738948D01*
X122367857Y-97060775D01*
X122936000Y-97173786D01*
X123504143Y-97060775D01*
X123985792Y-96738948D01*
X124206000Y-96409383D01*
X124426208Y-96738948D01*
X124907857Y-97060775D01*
X125476000Y-97173786D01*
X126044143Y-97060775D01*
X126525792Y-96738948D01*
X126847619Y-96257299D01*
X126960630Y-95689156D01*
X126960630Y-93794844D01*
X126847619Y-93226701D01*
X126525792Y-92745052D01*
X126044143Y-92423225D01*
X125476000Y-92310214D01*
X124907857Y-92423225D01*
X124426208Y-92745052D01*
X124206000Y-93074617D01*
X123985792Y-92745052D01*
X123504143Y-92423225D01*
X122936000Y-92310214D01*
X122367857Y-92423225D01*
X121886208Y-92745052D01*
X121660484Y-93082873D01*
X121355989Y-92701976D01*
X120846810Y-92421351D01*
X120752832Y-92400460D01*
X120523000Y-92521786D01*
X120269000Y-92521786D01*
X120039168Y-92400460D01*
X119945190Y-92421351D01*
X119701945Y-92555411D01*
X119701945Y-90147711D01*
X121129828Y-88719828D01*
X121432660Y-88266609D01*
X121539000Y-87732000D01*
X121539000Y-85558000D01*
X121439440Y-85057476D01*
X121439440Y-84908000D01*
X121395162Y-84672683D01*
X121256090Y-84456559D01*
X121043890Y-84311569D01*
X120792000Y-84260560D01*
X120642524Y-84260560D01*
X120633802Y-84258825D01*
X120805729Y-84187611D01*
X120861410Y-83957016D01*
X120142000Y-83237605D01*
X119422590Y-83957016D01*
X119478271Y-84187611D01*
X119671017Y-84254684D01*
X119641476Y-84260560D01*
X119492000Y-84260560D01*
X119256683Y-84304838D01*
X119040559Y-84443910D01*
X118895569Y-84656110D01*
X118844560Y-84908000D01*
X118844560Y-85057476D01*
X118745000Y-85558000D01*
X118745000Y-87153344D01*
X117317117Y-88581227D01*
X117014285Y-89034446D01*
X116907945Y-89569055D01*
X116907945Y-99187000D01*
X104521000Y-99187000D01*
X104521000Y-96961136D01*
X104705190Y-97062649D01*
X104799168Y-97083540D01*
X105029000Y-96962214D01*
X105029000Y-94869000D01*
X105009000Y-94869000D01*
X105009000Y-94615000D01*
X105029000Y-94615000D01*
X105029000Y-92521786D01*
X105283000Y-92521786D01*
X105283000Y-94615000D01*
X105303000Y-94615000D01*
X105303000Y-94869000D01*
X105283000Y-94869000D01*
X105283000Y-96962214D01*
X105512832Y-97083540D01*
X105606810Y-97062649D01*
X106115989Y-96782024D01*
X106420484Y-96401127D01*
X106646208Y-96738948D01*
X107127857Y-97060775D01*
X107696000Y-97173786D01*
X108264143Y-97060775D01*
X108745792Y-96738948D01*
X108966000Y-96409383D01*
X109186208Y-96738948D01*
X109667857Y-97060775D01*
X110236000Y-97173786D01*
X110804143Y-97060775D01*
X111285792Y-96738948D01*
X111607619Y-96257299D01*
X111720630Y-95689156D01*
X111720630Y-93794844D01*
X111607619Y-93226701D01*
X111285792Y-92745052D01*
X110804143Y-92423225D01*
X110236000Y-92310214D01*
X109667857Y-92423225D01*
X109186208Y-92745052D01*
X108966000Y-93074617D01*
X108745792Y-92745052D01*
X108264143Y-92423225D01*
X107696000Y-92310214D01*
X107127857Y-92423225D01*
X106646208Y-92745052D01*
X106420484Y-93082873D01*
X106115989Y-92701976D01*
X105606810Y-92421351D01*
X105512832Y-92400460D01*
X105283000Y-92521786D01*
X105029000Y-92521786D01*
X104799168Y-92400460D01*
X104705190Y-92421351D01*
X104521000Y-92522864D01*
X104521000Y-90088656D01*
X105889828Y-88719828D01*
X106192660Y-88266609D01*
X106299000Y-87732000D01*
X106299000Y-85558000D01*
X106199440Y-85057476D01*
X106199440Y-84908000D01*
X106155162Y-84672683D01*
X106016090Y-84456559D01*
X105803890Y-84311569D01*
X105552000Y-84260560D01*
X105402524Y-84260560D01*
X105393802Y-84258825D01*
X105565729Y-84187611D01*
X105621410Y-83957016D01*
X104902000Y-83237605D01*
X104182590Y-83957016D01*
X104238271Y-84187611D01*
X104431017Y-84254684D01*
X104401476Y-84260560D01*
X104252000Y-84260560D01*
X104016683Y-84304838D01*
X103800559Y-84443910D01*
X103655569Y-84656110D01*
X103604560Y-84908000D01*
X103604560Y-85057476D01*
X103505000Y-85558000D01*
X103505000Y-87153344D01*
X102136172Y-88522172D01*
X101833340Y-88975391D01*
X101727000Y-89510000D01*
X101727000Y-99187000D01*
X89909863Y-99187000D01*
X88773000Y-98050137D01*
X88773000Y-96553093D01*
X88956011Y-96782024D01*
X89465190Y-97062649D01*
X89559168Y-97083540D01*
X89789000Y-96962214D01*
X89789000Y-94869000D01*
X89769000Y-94869000D01*
X89769000Y-94615000D01*
X89789000Y-94615000D01*
X89789000Y-92521786D01*
X90043000Y-92521786D01*
X90043000Y-94615000D01*
X90063000Y-94615000D01*
X90063000Y-94869000D01*
X90043000Y-94869000D01*
X90043000Y-96962214D01*
X90272832Y-97083540D01*
X90366810Y-97062649D01*
X90875989Y-96782024D01*
X91180484Y-96401127D01*
X91406208Y-96738948D01*
X91887857Y-97060775D01*
X92456000Y-97173786D01*
X93024143Y-97060775D01*
X93505792Y-96738948D01*
X93726000Y-96409383D01*
X93946208Y-96738948D01*
X94427857Y-97060775D01*
X94996000Y-97173786D01*
X95564143Y-97060775D01*
X96045792Y-96738948D01*
X96367619Y-96257299D01*
X96480630Y-95689156D01*
X96480630Y-93794844D01*
X96367619Y-93226701D01*
X96045792Y-92745052D01*
X95564143Y-92423225D01*
X94996000Y-92310214D01*
X94427857Y-92423225D01*
X93946208Y-92745052D01*
X93726000Y-93074617D01*
X93505792Y-92745052D01*
X93024143Y-92423225D01*
X92456000Y-92310214D01*
X91887857Y-92423225D01*
X91406208Y-92745052D01*
X91180484Y-93082873D01*
X90875989Y-92701976D01*
X90366810Y-92421351D01*
X90272832Y-92400460D01*
X90043000Y-92521786D01*
X89789000Y-92521786D01*
X89559168Y-92400460D01*
X89465190Y-92421351D01*
X88956011Y-92701976D01*
X88773000Y-92930907D01*
X88773000Y-91104656D01*
X91157828Y-88719828D01*
X91460660Y-88266609D01*
X91567000Y-87732000D01*
X91567000Y-85558000D01*
X91467440Y-85057476D01*
X91467440Y-84908000D01*
X91423162Y-84672683D01*
X91284090Y-84456559D01*
X91071890Y-84311569D01*
X90820000Y-84260560D01*
X90670524Y-84260560D01*
X90661802Y-84258825D01*
X90833729Y-84187611D01*
X90889410Y-83957016D01*
X90170000Y-83237605D01*
X89450590Y-83957016D01*
X89506271Y-84187611D01*
X89699017Y-84254684D01*
X89669476Y-84260560D01*
X89520000Y-84260560D01*
X89284683Y-84304838D01*
X89068559Y-84443910D01*
X88923569Y-84656110D01*
X88872560Y-84908000D01*
X88872560Y-85057476D01*
X88773000Y-85558000D01*
X88773000Y-87153344D01*
X86388172Y-89538172D01*
X86085340Y-89991391D01*
X85979000Y-90526000D01*
X84073434Y-90526000D01*
X81654042Y-88106608D01*
X81698321Y-87884000D01*
X81591981Y-87349391D01*
X81289149Y-86896172D01*
X80866850Y-86614000D01*
X81289149Y-86331828D01*
X81591981Y-85878609D01*
X81698321Y-85344000D01*
X81591981Y-84809391D01*
X81289149Y-84356172D01*
X80852887Y-84064670D01*
X80915941Y-84046059D01*
X81341630Y-83702026D01*
X81603260Y-83221277D01*
X81618220Y-83147070D01*
X81495720Y-82931000D01*
X79883000Y-82931000D01*
X79883000Y-82951000D01*
X79629000Y-82951000D01*
X79629000Y-82931000D01*
X78016280Y-82931000D01*
X77893780Y-83147070D01*
X77908740Y-83221277D01*
X78170370Y-83702026D01*
X78596059Y-84046059D01*
X78659113Y-84064670D01*
X78222851Y-84356172D01*
X77920019Y-84809391D01*
X77813679Y-85344000D01*
X68216816Y-85344000D01*
X67903337Y-85029974D01*
X67436727Y-84836221D01*
X67434512Y-84836219D01*
X67901458Y-84643282D01*
X68259026Y-84286337D01*
X68452779Y-83819727D01*
X68452957Y-83615790D01*
X68809081Y-83971914D01*
X68809083Y-83971917D01*
X69076895Y-84150863D01*
X69392800Y-84213701D01*
X69392805Y-84213700D01*
X69767722Y-84213700D01*
X70083628Y-84150863D01*
X70351439Y-83971917D01*
X71532055Y-82791300D01*
X72515072Y-82791300D01*
X72550331Y-82826621D01*
X72923618Y-82981624D01*
X73327808Y-82981976D01*
X73581680Y-82877078D01*
X88872378Y-82877078D01*
X88901917Y-83387428D01*
X89040389Y-83721729D01*
X89270984Y-83777410D01*
X89990395Y-83058000D01*
X90349605Y-83058000D01*
X91069016Y-83777410D01*
X91299611Y-83721729D01*
X91467622Y-83238922D01*
X91446679Y-82877078D01*
X103604378Y-82877078D01*
X103633917Y-83387428D01*
X103772389Y-83721729D01*
X104002984Y-83777410D01*
X104722395Y-83058000D01*
X105081605Y-83058000D01*
X105801016Y-83777410D01*
X106031611Y-83721729D01*
X106199622Y-83238922D01*
X106178679Y-82877078D01*
X118844378Y-82877078D01*
X118873917Y-83387428D01*
X119012389Y-83721729D01*
X119242984Y-83777410D01*
X119962395Y-83058000D01*
X120321605Y-83058000D01*
X121041016Y-83777410D01*
X121271611Y-83721729D01*
X121439622Y-83238922D01*
X121418679Y-82877078D01*
X134338378Y-82877078D01*
X134367917Y-83387428D01*
X134506389Y-83721729D01*
X134736984Y-83777410D01*
X135456395Y-83058000D01*
X135815605Y-83058000D01*
X136535016Y-83777410D01*
X136765611Y-83721729D01*
X136933622Y-83238922D01*
X136904083Y-82728572D01*
X136765611Y-82394271D01*
X136535016Y-82338590D01*
X135815605Y-83058000D01*
X135456395Y-83058000D01*
X134736984Y-82338590D01*
X134506389Y-82394271D01*
X134338378Y-82877078D01*
X121418679Y-82877078D01*
X121410083Y-82728572D01*
X121271611Y-82394271D01*
X121041016Y-82338590D01*
X120321605Y-83058000D01*
X119962395Y-83058000D01*
X119242984Y-82338590D01*
X119012389Y-82394271D01*
X118844378Y-82877078D01*
X106178679Y-82877078D01*
X106170083Y-82728572D01*
X106031611Y-82394271D01*
X105801016Y-82338590D01*
X105081605Y-83058000D01*
X104722395Y-83058000D01*
X104002984Y-82338590D01*
X103772389Y-82394271D01*
X103604378Y-82877078D01*
X91446679Y-82877078D01*
X91438083Y-82728572D01*
X91299611Y-82394271D01*
X91069016Y-82338590D01*
X90349605Y-83058000D01*
X89990395Y-83058000D01*
X89270984Y-82338590D01*
X89040389Y-82394271D01*
X88872378Y-82877078D01*
X73581680Y-82877078D01*
X73701366Y-82827625D01*
X73987421Y-82542069D01*
X74142424Y-82168782D01*
X74142776Y-81764592D01*
X73988425Y-81391034D01*
X73702869Y-81104979D01*
X73329582Y-80949976D01*
X72925392Y-80949624D01*
X72551834Y-81103975D01*
X72515446Y-81140300D01*
X71851640Y-81140300D01*
X73770647Y-79221293D01*
X76936259Y-79221293D01*
X77318081Y-79603114D01*
X77318083Y-79603117D01*
X77585895Y-79782063D01*
X77897224Y-79843990D01*
X77813679Y-80264000D01*
X77920019Y-80798609D01*
X78222851Y-81251828D01*
X78659113Y-81543330D01*
X78596059Y-81561941D01*
X78170370Y-81905974D01*
X77908740Y-82386723D01*
X77893780Y-82460930D01*
X78016280Y-82677000D01*
X79629000Y-82677000D01*
X79629000Y-82657000D01*
X79883000Y-82657000D01*
X79883000Y-82677000D01*
X81495720Y-82677000D01*
X81618220Y-82460930D01*
X81603260Y-82386723D01*
X81479322Y-82158984D01*
X89450590Y-82158984D01*
X90170000Y-82878395D01*
X90889410Y-82158984D01*
X104182590Y-82158984D01*
X104902000Y-82878395D01*
X105621410Y-82158984D01*
X119422590Y-82158984D01*
X120142000Y-82878395D01*
X120861410Y-82158984D01*
X134916590Y-82158984D01*
X135636000Y-82878395D01*
X136355410Y-82158984D01*
X136299729Y-81928389D01*
X135816922Y-81760378D01*
X135306572Y-81789917D01*
X134972271Y-81928389D01*
X134916590Y-82158984D01*
X120861410Y-82158984D01*
X120805729Y-81928389D01*
X120322922Y-81760378D01*
X119812572Y-81789917D01*
X119478271Y-81928389D01*
X119422590Y-82158984D01*
X105621410Y-82158984D01*
X105565729Y-81928389D01*
X105082922Y-81760378D01*
X104572572Y-81789917D01*
X104238271Y-81928389D01*
X104182590Y-82158984D01*
X90889410Y-82158984D01*
X90833729Y-81928389D01*
X90350922Y-81760378D01*
X89840572Y-81789917D01*
X89506271Y-81928389D01*
X89450590Y-82158984D01*
X81479322Y-82158984D01*
X81341630Y-81905974D01*
X80915941Y-81561941D01*
X80852887Y-81543330D01*
X81289149Y-81251828D01*
X81591981Y-80798609D01*
X81698321Y-80264000D01*
X81591981Y-79729391D01*
X81507765Y-79603352D01*
X81508117Y-79603117D01*
X82000224Y-79111009D01*
X82000227Y-79111007D01*
X82179173Y-78843195D01*
X82200195Y-78737510D01*
X82242011Y-78527290D01*
X82242010Y-78527285D01*
X82242010Y-76336510D01*
X82195593Y-76103152D01*
X82179173Y-76020604D01*
X82107497Y-75913334D01*
X82000227Y-75752793D01*
X82000224Y-75752791D01*
X81654042Y-75406608D01*
X81663588Y-75358614D01*
X81782981Y-75358718D01*
X82156539Y-75204367D01*
X82442594Y-74918811D01*
X82597597Y-74545524D01*
X82597949Y-74141334D01*
X82443598Y-73767776D01*
X82406829Y-73730943D01*
X82358470Y-73487822D01*
X82344436Y-73417267D01*
X82260140Y-73291109D01*
X158288657Y-73291109D01*
X158590218Y-74020943D01*
X159148120Y-74579819D01*
X159877427Y-74882654D01*
X160667109Y-74883343D01*
X161396943Y-74581782D01*
X161955819Y-74023880D01*
X162258654Y-73294573D01*
X162259343Y-72504891D01*
X161957782Y-71775057D01*
X161399880Y-71216181D01*
X160670573Y-70913346D01*
X159880891Y-70912657D01*
X159151057Y-71214218D01*
X158592181Y-71772120D01*
X158289346Y-72501427D01*
X158288657Y-73291109D01*
X82260140Y-73291109D01*
X82165490Y-73149456D01*
X80492733Y-71476699D01*
X80492776Y-71426792D01*
X80338425Y-71053234D01*
X80052869Y-70767179D01*
X79679582Y-70612176D01*
X79275392Y-70611824D01*
X78901834Y-70766175D01*
X78615779Y-71051731D01*
X78460776Y-71425018D01*
X78460424Y-71829208D01*
X78614775Y-72202766D01*
X78900331Y-72488821D01*
X79273618Y-72643824D01*
X79325035Y-72643869D01*
X80509594Y-73828428D01*
X80301321Y-73787000D01*
X79210679Y-73787000D01*
X78676070Y-73893340D01*
X78222851Y-74196172D01*
X77920019Y-74649391D01*
X77813679Y-75184000D01*
X77920019Y-75718609D01*
X78222851Y-76171828D01*
X78645150Y-76454000D01*
X78222851Y-76736172D01*
X78114387Y-76898500D01*
X73557601Y-76898500D01*
X73710624Y-76529982D01*
X73710976Y-76125792D01*
X73556625Y-75752234D01*
X73271069Y-75466179D01*
X72897782Y-75311176D01*
X72493592Y-75310824D01*
X72120034Y-75465175D01*
X71833979Y-75750731D01*
X71678976Y-76124018D01*
X71678624Y-76528208D01*
X71733109Y-76660072D01*
X68173037Y-80220144D01*
X67903337Y-79949974D01*
X67436727Y-79756221D01*
X67434512Y-79756219D01*
X67901458Y-79563282D01*
X68259026Y-79206337D01*
X68452779Y-78739727D01*
X68453220Y-78234490D01*
X68260282Y-77767542D01*
X67903337Y-77409974D01*
X67436727Y-77216221D01*
X66931490Y-77215780D01*
X66464542Y-77408718D01*
X66106974Y-77765663D01*
X65913221Y-78232273D01*
X65912780Y-78737510D01*
X43052780Y-78737510D01*
X43053220Y-78234490D01*
X42860282Y-77767542D01*
X42503337Y-77409974D01*
X42036727Y-77216221D01*
X41531490Y-77215780D01*
X41064542Y-77408718D01*
X40706974Y-77765663D01*
X40513221Y-78232273D01*
X40512780Y-78737510D01*
X21792000Y-78737510D01*
X21792000Y-68326000D01*
X25384135Y-68326000D01*
X25283087Y-68834000D01*
X25392320Y-69383151D01*
X25703389Y-69848698D01*
X26085475Y-70104000D01*
X25703389Y-70359302D01*
X25392320Y-70824849D01*
X25283087Y-71374000D01*
X25392320Y-71923151D01*
X25703389Y-72388698D01*
X26085475Y-72644000D01*
X25703389Y-72899302D01*
X25392320Y-73364849D01*
X25283087Y-73914000D01*
X25392320Y-74463151D01*
X25703389Y-74928698D01*
X26168936Y-75239767D01*
X26718087Y-75349000D01*
X26774313Y-75349000D01*
X27323464Y-75239767D01*
X27789011Y-74928698D01*
X28100080Y-74463151D01*
X28209313Y-73914000D01*
X28100080Y-73364849D01*
X27789011Y-72899302D01*
X27406925Y-72644000D01*
X27789011Y-72388698D01*
X28100080Y-71923151D01*
X28209313Y-71374000D01*
X28100080Y-70824849D01*
X27789011Y-70359302D01*
X27406925Y-70104000D01*
X27789011Y-69848698D01*
X28100080Y-69383151D01*
X28209313Y-68834000D01*
X28131574Y-68443180D01*
X32004000Y-72315606D01*
X32004000Y-76073000D01*
X32014006Y-76122410D01*
X32042447Y-76164035D01*
X32084841Y-76191315D01*
X32131000Y-76200000D01*
X36322000Y-76200000D01*
X36371410Y-76189994D01*
X36413035Y-76161553D01*
X36440315Y-76119159D01*
X36449000Y-76073000D01*
X36449000Y-71604866D01*
X51951000Y-71604866D01*
X51951000Y-72159134D01*
X52037397Y-72593480D01*
X52283434Y-72961700D01*
X52651654Y-73207737D01*
X53086000Y-73294134D01*
X53520346Y-73207737D01*
X53728102Y-73068919D01*
X53969840Y-73213586D01*
X54054126Y-73226119D01*
X54229000Y-73099954D01*
X54229000Y-72009000D01*
X54221000Y-72009000D01*
X54221000Y-71755000D01*
X54229000Y-71755000D01*
X54229000Y-71132000D01*
X54478560Y-71132000D01*
X54478560Y-72632000D01*
X54483000Y-72655597D01*
X54483000Y-73099954D01*
X54657874Y-73226119D01*
X54742160Y-73213586D01*
X54800919Y-73178422D01*
X54874110Y-73228431D01*
X55126000Y-73279440D01*
X56126000Y-73279440D01*
X56361317Y-73235162D01*
X56433339Y-73188817D01*
X56461654Y-73207737D01*
X56896000Y-73294134D01*
X57330346Y-73207737D01*
X57698566Y-72961700D01*
X57944603Y-72593480D01*
X58031000Y-72159134D01*
X58031000Y-71604866D01*
X57944603Y-71170520D01*
X57698566Y-70802300D01*
X57330346Y-70556263D01*
X56896000Y-70469866D01*
X56461654Y-70556263D01*
X56434617Y-70574329D01*
X56377890Y-70535569D01*
X56126000Y-70484560D01*
X55126000Y-70484560D01*
X54890683Y-70528838D01*
X54801742Y-70586070D01*
X54742160Y-70550414D01*
X54657874Y-70537881D01*
X54483000Y-70664046D01*
X54483000Y-71110075D01*
X54478560Y-71132000D01*
X54229000Y-71132000D01*
X54229000Y-70664046D01*
X54054126Y-70537881D01*
X53969840Y-70550414D01*
X53728102Y-70695081D01*
X53520346Y-70556263D01*
X53086000Y-70469866D01*
X52651654Y-70556263D01*
X52283434Y-70802300D01*
X52037397Y-71170520D01*
X51951000Y-71604866D01*
X36449000Y-71604866D01*
X36449000Y-70104000D01*
X36438994Y-70054590D01*
X36411803Y-70014197D01*
X35730147Y-69332541D01*
X35829313Y-68834000D01*
X35821907Y-68796764D01*
X38062841Y-68796764D01*
X38132059Y-69038742D01*
X38654780Y-69225155D01*
X39209049Y-69197341D01*
X39591941Y-69038742D01*
X39661159Y-68796764D01*
X38862000Y-67997605D01*
X38062841Y-68796764D01*
X35821907Y-68796764D01*
X35720080Y-68284849D01*
X35409011Y-67819302D01*
X35096937Y-67610780D01*
X37454845Y-67610780D01*
X37482659Y-68165049D01*
X37641258Y-68547941D01*
X37883236Y-68617159D01*
X38682395Y-67818000D01*
X39041605Y-67818000D01*
X39840764Y-68617159D01*
X40082742Y-68547941D01*
X40134382Y-68403138D01*
X40218687Y-68607172D01*
X40610764Y-68999934D01*
X41123300Y-69212758D01*
X41678265Y-69213242D01*
X42191172Y-69001313D01*
X42547316Y-68645790D01*
X42578838Y-68813317D01*
X42717910Y-69029441D01*
X42930110Y-69174431D01*
X43182000Y-69225440D01*
X44702000Y-69225440D01*
X44937317Y-69181162D01*
X45153441Y-69042090D01*
X45298431Y-68829890D01*
X45338747Y-68630800D01*
X46494700Y-68630800D01*
X46512123Y-68718391D01*
X46512038Y-68815967D01*
X46549628Y-68906943D01*
X46567205Y-68995306D01*
X46616821Y-69069561D01*
X46654083Y-69159743D01*
X46723628Y-69229410D01*
X46773681Y-69304319D01*
X47840481Y-70371119D01*
X48149494Y-70577595D01*
X48514000Y-70650100D01*
X50723800Y-70650100D01*
X50811391Y-70632677D01*
X50908967Y-70632762D01*
X50999943Y-70595172D01*
X51088306Y-70577595D01*
X51162561Y-70527979D01*
X51252743Y-70490717D01*
X51322410Y-70421172D01*
X51397319Y-70371119D01*
X51446935Y-70296864D01*
X51515992Y-70227927D01*
X51553742Y-70137016D01*
X51603795Y-70062106D01*
X51621218Y-69974517D01*
X51658638Y-69884399D01*
X51658724Y-69785962D01*
X51676300Y-69697600D01*
X51658877Y-69610009D01*
X51658891Y-69593778D01*
X51663818Y-69595824D01*
X52068008Y-69596176D01*
X52441566Y-69441825D01*
X52727621Y-69156269D01*
X52882624Y-68782982D01*
X52882634Y-68771649D01*
X53127024Y-68670669D01*
X53413079Y-68385113D01*
X53543807Y-68070285D01*
X53786306Y-67970087D01*
X54072361Y-67684531D01*
X54188921Y-67403824D01*
X54466032Y-67289324D01*
X54752087Y-67003768D01*
X54858880Y-66746583D01*
X55159366Y-66622425D01*
X55220764Y-66561134D01*
X55372218Y-66624024D01*
X55776408Y-66624376D01*
X56149966Y-66470025D01*
X56436021Y-66184469D01*
X56591024Y-65811182D01*
X56591335Y-65453808D01*
X63499824Y-65453808D01*
X63654175Y-65827366D01*
X63939731Y-66113421D01*
X64313018Y-66268424D01*
X64717208Y-66268776D01*
X65090766Y-66114425D01*
X65099966Y-66105241D01*
X65108131Y-66113421D01*
X65481418Y-66268424D01*
X65885608Y-66268776D01*
X66259166Y-66114425D01*
X66545221Y-65828869D01*
X66700224Y-65455582D01*
X66700269Y-65404165D01*
X69470025Y-62634408D01*
X78943024Y-62634408D01*
X79097375Y-63007966D01*
X79382931Y-63294021D01*
X79536929Y-63357967D01*
X82227203Y-66048241D01*
X82272375Y-66157566D01*
X82557931Y-66443621D01*
X82931218Y-66598624D01*
X83335408Y-66598976D01*
X83708966Y-66444625D01*
X83995021Y-66159069D01*
X84150024Y-65785782D01*
X84150376Y-65381592D01*
X83996025Y-65008034D01*
X83710469Y-64721979D01*
X83513035Y-64639997D01*
X80884082Y-62011044D01*
X80821025Y-61858434D01*
X80535469Y-61572379D01*
X80162182Y-61417376D01*
X79757992Y-61417024D01*
X79384434Y-61571375D01*
X79098379Y-61856931D01*
X78943376Y-62230218D01*
X78943024Y-62634408D01*
X69470025Y-62634408D01*
X70649133Y-61455300D01*
X73023072Y-61455300D01*
X73058331Y-61490621D01*
X73431618Y-61645624D01*
X73835808Y-61645976D01*
X74209366Y-61491625D01*
X74495421Y-61206069D01*
X74650424Y-60832782D01*
X74650776Y-60428592D01*
X74496425Y-60055034D01*
X74210869Y-59768979D01*
X73837582Y-59613976D01*
X73433392Y-59613624D01*
X73059834Y-59767975D01*
X73023446Y-59804300D01*
X70307200Y-59804300D01*
X69991295Y-59867137D01*
X69723483Y-60046083D01*
X69723481Y-60046086D01*
X65533099Y-64236467D01*
X65512500Y-64236450D01*
X65512500Y-62416528D01*
X65547821Y-62381269D01*
X65702824Y-62007982D01*
X65703176Y-61603792D01*
X65548825Y-61230234D01*
X65263269Y-60944179D01*
X64889982Y-60789176D01*
X64485792Y-60788824D01*
X64112234Y-60943175D01*
X63826179Y-61228731D01*
X63671176Y-61602018D01*
X63670824Y-62006208D01*
X63825175Y-62379766D01*
X63861500Y-62416154D01*
X63861500Y-64470370D01*
X63655179Y-64676331D01*
X63500176Y-65049618D01*
X63499824Y-65453808D01*
X56591335Y-65453808D01*
X56591376Y-65406992D01*
X56437025Y-65033434D01*
X56151469Y-64747379D01*
X55778182Y-64592376D01*
X55758259Y-64592359D01*
X53693298Y-62527397D01*
X53693341Y-62477490D01*
X53538990Y-62103932D01*
X53253434Y-61817877D01*
X52880147Y-61662874D01*
X52475957Y-61662522D01*
X52102399Y-61816873D01*
X51816344Y-62102429D01*
X51704354Y-62372131D01*
X51396694Y-62499253D01*
X51110639Y-62784809D01*
X50955636Y-63158096D01*
X50955284Y-63562286D01*
X50991391Y-63649671D01*
X50904379Y-63736531D01*
X50758943Y-64086778D01*
X50553293Y-64171751D01*
X50267238Y-64457307D01*
X50176611Y-64675560D01*
X49838282Y-64815355D01*
X49552227Y-65100911D01*
X49430796Y-65393348D01*
X49165488Y-65502971D01*
X48879433Y-65788527D01*
X48724430Y-66161814D01*
X48724078Y-66566004D01*
X48878429Y-66939562D01*
X49163985Y-67225617D01*
X49473509Y-67354143D01*
X50850667Y-68731301D01*
X50850640Y-68762710D01*
X50812162Y-68762676D01*
X50723800Y-68745100D01*
X48908538Y-68745100D01*
X48120719Y-67957281D01*
X48046464Y-67907665D01*
X47977527Y-67838608D01*
X47886616Y-67800858D01*
X47811706Y-67750805D01*
X47724117Y-67733382D01*
X47633999Y-67695962D01*
X47535562Y-67695876D01*
X47447200Y-67678300D01*
X47359609Y-67695723D01*
X47262033Y-67695638D01*
X47171057Y-67733228D01*
X47082694Y-67750805D01*
X47008439Y-67800421D01*
X46918257Y-67837683D01*
X46848590Y-67907228D01*
X46773681Y-67957281D01*
X46724065Y-68031536D01*
X46655008Y-68100473D01*
X46617258Y-68191384D01*
X46567205Y-68266294D01*
X46549782Y-68353883D01*
X46512362Y-68444001D01*
X46512276Y-68542438D01*
X46494700Y-68630800D01*
X45338747Y-68630800D01*
X45349440Y-68578000D01*
X45349440Y-67058000D01*
X45305162Y-66822683D01*
X45166090Y-66606559D01*
X44953890Y-66461569D01*
X44702000Y-66410560D01*
X43182000Y-66410560D01*
X42946683Y-66454838D01*
X42730559Y-66593910D01*
X42585569Y-66806110D01*
X42548031Y-66991480D01*
X42193236Y-66636066D01*
X41680700Y-66423242D01*
X41125735Y-66422758D01*
X40612828Y-66634687D01*
X40220066Y-67026764D01*
X40138609Y-67222934D01*
X40082742Y-67088059D01*
X39840764Y-67018841D01*
X39041605Y-67818000D01*
X38682395Y-67818000D01*
X37883236Y-67018841D01*
X37641258Y-67088059D01*
X37454845Y-67610780D01*
X35096937Y-67610780D01*
X35004497Y-67549014D01*
X35221334Y-67446389D01*
X35597241Y-67031423D01*
X35676842Y-66839236D01*
X38062841Y-66839236D01*
X38862000Y-67638395D01*
X39661159Y-66839236D01*
X39591941Y-66597258D01*
X39069220Y-66410845D01*
X38514951Y-66438659D01*
X38132059Y-66597258D01*
X38062841Y-66839236D01*
X35676842Y-66839236D01*
X35758104Y-66643039D01*
X35636115Y-66421000D01*
X34493200Y-66421000D01*
X34493200Y-66441000D01*
X34239200Y-66441000D01*
X34239200Y-66421000D01*
X34219200Y-66421000D01*
X34219200Y-66167000D01*
X34239200Y-66167000D01*
X34239200Y-65023371D01*
X34493200Y-65023371D01*
X34493200Y-66167000D01*
X35636115Y-66167000D01*
X35758104Y-65944961D01*
X35597241Y-65556577D01*
X35221334Y-65141611D01*
X34715241Y-64902086D01*
X34493200Y-65023371D01*
X34239200Y-65023371D01*
X34017159Y-64902086D01*
X33511066Y-65141611D01*
X33401000Y-65263114D01*
X33401000Y-54759661D01*
X40639758Y-54759661D01*
X40851990Y-55273303D01*
X41244630Y-55666629D01*
X41707369Y-55858775D01*
X41656243Y-55981900D01*
X41655758Y-56537661D01*
X41867990Y-57051303D01*
X42260630Y-57444629D01*
X42773900Y-57657757D01*
X43329661Y-57658242D01*
X43843303Y-57446010D01*
X44069049Y-57220658D01*
X44292630Y-57444629D01*
X44805900Y-57657757D01*
X45361661Y-57658242D01*
X45875303Y-57446010D01*
X46101049Y-57220658D01*
X46324630Y-57444629D01*
X46837900Y-57657757D01*
X47393661Y-57658242D01*
X47907303Y-57446010D01*
X48133049Y-57220658D01*
X48356630Y-57444629D01*
X48869900Y-57657757D01*
X49425661Y-57658242D01*
X49939303Y-57446010D01*
X50332629Y-57053370D01*
X50545757Y-56540100D01*
X50546242Y-55984339D01*
X50334010Y-55470697D01*
X49941370Y-55077371D01*
X49478631Y-54885225D01*
X49529757Y-54762100D01*
X49530242Y-54206339D01*
X49318010Y-53692697D01*
X48925370Y-53299371D01*
X48412100Y-53086243D01*
X47856339Y-53085758D01*
X47342697Y-53297990D01*
X47116951Y-53523342D01*
X46893370Y-53299371D01*
X46380100Y-53086243D01*
X45824339Y-53085758D01*
X45310697Y-53297990D01*
X44917371Y-53690630D01*
X44829601Y-53902004D01*
X44248605Y-54483000D01*
X44262748Y-54497143D01*
X44083143Y-54676748D01*
X44069000Y-54662605D01*
X44054858Y-54676748D01*
X43875253Y-54497143D01*
X43889395Y-54483000D01*
X43308560Y-53902165D01*
X43222010Y-53692697D01*
X43032432Y-53502787D01*
X43268392Y-53502787D01*
X44069000Y-54303395D01*
X44869608Y-53502787D01*
X44800143Y-53260603D01*
X44276698Y-53073856D01*
X43721632Y-53101638D01*
X43337857Y-53260603D01*
X43268392Y-53502787D01*
X43032432Y-53502787D01*
X42829370Y-53299371D01*
X42316100Y-53086243D01*
X41760339Y-53085758D01*
X41246697Y-53297990D01*
X40853371Y-53690630D01*
X40640243Y-54203900D01*
X40639758Y-54759661D01*
X33401000Y-54759661D01*
X33401000Y-52390688D01*
X36982008Y-52390688D01*
X37325439Y-53221854D01*
X37960801Y-53858326D01*
X38791366Y-54203207D01*
X39690688Y-54203992D01*
X40521854Y-53860561D01*
X41158326Y-53225199D01*
X41503207Y-52394634D01*
X41503210Y-52390688D01*
X49682008Y-52390688D01*
X50025439Y-53221854D01*
X50660801Y-53858326D01*
X51491366Y-54203207D01*
X52390688Y-54203992D01*
X53221854Y-53860561D01*
X53858326Y-53225199D01*
X54203207Y-52394634D01*
X54203830Y-51680661D01*
X59689758Y-51680661D01*
X59901990Y-52194303D01*
X60134500Y-52427219D01*
X60134500Y-56380904D01*
X59903371Y-56611630D01*
X59690243Y-57124900D01*
X59689758Y-57680661D01*
X59901990Y-58194303D01*
X60294630Y-58587629D01*
X60807900Y-58800757D01*
X61363661Y-58801242D01*
X61877303Y-58589010D01*
X62270629Y-58196370D01*
X62483757Y-57683100D01*
X62484242Y-57127339D01*
X62272010Y-56613697D01*
X62039500Y-56380781D01*
X62039500Y-52427096D01*
X62270629Y-52196370D01*
X62483757Y-51683100D01*
X62483759Y-51680661D01*
X71246758Y-51680661D01*
X71458990Y-52194303D01*
X71691500Y-52427219D01*
X71691500Y-56380904D01*
X71460371Y-56611630D01*
X71247243Y-57124900D01*
X71246758Y-57680661D01*
X71458990Y-58194303D01*
X71851630Y-58587629D01*
X72364900Y-58800757D01*
X72920661Y-58801242D01*
X73434303Y-58589010D01*
X73827629Y-58196370D01*
X74027448Y-57715150D01*
X81180940Y-57715150D01*
X81180940Y-59305769D01*
X81277613Y-59539158D01*
X81456241Y-59717787D01*
X81689630Y-59814460D01*
X83280250Y-59814460D01*
X83439000Y-59655710D01*
X83439000Y-57556400D01*
X81339690Y-57556400D01*
X81180940Y-57715150D01*
X74027448Y-57715150D01*
X74040757Y-57683100D01*
X74041242Y-57127339D01*
X73829010Y-56613697D01*
X73596500Y-56380781D01*
X73596500Y-55553031D01*
X81180940Y-55553031D01*
X81180940Y-57143650D01*
X81339690Y-57302400D01*
X83439000Y-57302400D01*
X83439000Y-55203090D01*
X83280250Y-55044340D01*
X81689630Y-55044340D01*
X81456241Y-55141013D01*
X81277613Y-55319642D01*
X81180940Y-55553031D01*
X73596500Y-55553031D01*
X73596500Y-52553291D01*
X85879940Y-52553291D01*
X85879940Y-54143910D01*
X86038690Y-54302660D01*
X88138000Y-54302660D01*
X88138000Y-52203350D01*
X88392000Y-52203350D01*
X88392000Y-54302660D01*
X90491310Y-54302660D01*
X90650060Y-54143910D01*
X90650060Y-52553291D01*
X90553387Y-52319902D01*
X90374759Y-52141273D01*
X90141370Y-52044600D01*
X88550750Y-52044600D01*
X88392000Y-52203350D01*
X88138000Y-52203350D01*
X87979250Y-52044600D01*
X86388630Y-52044600D01*
X86155241Y-52141273D01*
X85976613Y-52319902D01*
X85879940Y-52553291D01*
X73596500Y-52553291D01*
X73596500Y-52427096D01*
X73827629Y-52196370D01*
X74040757Y-51683100D01*
X74041242Y-51127339D01*
X73829010Y-50613697D01*
X73436370Y-50220371D01*
X72923100Y-50007243D01*
X72367339Y-50006758D01*
X71853697Y-50218990D01*
X71460371Y-50611630D01*
X71247243Y-51124900D01*
X71246758Y-51680661D01*
X62483759Y-51680661D01*
X62484242Y-51127339D01*
X62272010Y-50613697D01*
X61879370Y-50220371D01*
X61366100Y-50007243D01*
X60810339Y-50006758D01*
X60296697Y-50218990D01*
X59903371Y-50611630D01*
X59690243Y-51124900D01*
X59689758Y-51680661D01*
X54203830Y-51680661D01*
X54203992Y-51495312D01*
X53860561Y-50664146D01*
X53225199Y-50027674D01*
X52394634Y-49682793D01*
X51495312Y-49682008D01*
X50664146Y-50025439D01*
X50027674Y-50660801D01*
X49682793Y-51491366D01*
X49682008Y-52390688D01*
X41503210Y-52390688D01*
X41503992Y-51495312D01*
X41160561Y-50664146D01*
X40525199Y-50027674D01*
X39694634Y-49682793D01*
X38795312Y-49682008D01*
X37964146Y-50025439D01*
X37327674Y-50660801D01*
X36982793Y-51491366D01*
X36982008Y-52390688D01*
X33401000Y-52390688D01*
X33401000Y-50748000D01*
X35560000Y-50748000D01*
X35831705Y-50693954D01*
X36062046Y-50540046D01*
X36062047Y-50540045D01*
X37378091Y-49224000D01*
X72603908Y-49224000D01*
X73919952Y-50540043D01*
M02*
