G04 #@! TF.FileFunction,Copper,L1,Top,Signal*
%FSLAX46Y46*%
G04 Gerber Fmt 4.6, Leading zero omitted, Abs format (unit mm)*
G04 Created by KiCad (PCBNEW 4.0.2+dfsg1-stable) date Thu 23 Aug 2018 11:31:01 AM EDT*
%MOMM*%
G01*
G04 APERTURE LIST*
%ADD10C,0.100000*%
%ADD11R,1.300000X1.500000*%
%ADD12R,1.500000X1.300000*%
%ADD13R,1.500000X1.250000*%
%ADD14C,1.300000*%
%ADD15R,1.300000X1.300000*%
%ADD16R,1.250000X1.500000*%
%ADD17R,2.200000X1.200000*%
%ADD18R,2.200000X3.500000*%
%ADD19C,1.800000*%
%ADD20C,1.900000*%
%ADD21C,3.500000*%
%ADD22C,3.251200*%
%ADD23C,1.524000*%
%ADD24C,0.762000*%
%ADD25C,0.381000*%
%ADD26C,1.270000*%
%ADD27C,0.762000*%
%ADD28C,0.254000*%
G04 APERTURE END LIST*
D10*
D11*
X67310000Y-130128000D03*
X67310000Y-127428000D03*
D12*
X117326400Y-56388000D03*
X114626400Y-56388000D03*
X112094000Y-56388000D03*
X109394000Y-56388000D03*
D13*
X78484929Y-121110373D03*
X75984929Y-121110373D03*
D14*
X74734929Y-116538373D03*
D15*
X77234929Y-116538373D03*
D16*
X89934929Y-118804373D03*
X89934929Y-116304373D03*
D11*
X62738000Y-130128000D03*
X62738000Y-127428000D03*
X65024000Y-130128000D03*
X65024000Y-127428000D03*
X73914000Y-130128000D03*
X73914000Y-127428000D03*
X71628000Y-127428000D03*
X71628000Y-130128000D03*
D17*
X81044929Y-120108373D03*
X81044929Y-117808373D03*
X81044929Y-115508373D03*
D18*
X87244929Y-117808373D03*
D19*
X122174000Y-53594000D03*
X119634000Y-53594000D03*
X117094000Y-53594000D03*
X114554000Y-53594000D03*
X112014000Y-53594000D03*
X109474000Y-53594000D03*
X106934000Y-53594000D03*
X104394000Y-53594000D03*
X101854000Y-53594000D03*
X99314000Y-53594000D03*
X96774000Y-53594000D03*
X94234000Y-53594000D03*
X91694000Y-53594000D03*
X89154000Y-53594000D03*
X86614000Y-53594000D03*
X84074000Y-53594000D03*
X81534000Y-53594000D03*
X78994000Y-53594000D03*
X76454000Y-53594000D03*
X73914000Y-53594000D03*
D11*
X87884000Y-135970000D03*
X87884000Y-133270000D03*
D12*
X99394000Y-144780000D03*
X96694000Y-144780000D03*
D11*
X108204000Y-133270000D03*
X108204000Y-135970000D03*
D12*
X96694000Y-124460000D03*
X99394000Y-124460000D03*
D20*
X105044000Y-132120000D03*
X105044000Y-137120000D03*
X90544000Y-132120000D03*
X90544000Y-134620000D03*
X90544000Y-137120000D03*
D21*
X98044000Y-140170000D03*
X98044000Y-129070000D03*
D12*
X85499993Y-122982401D03*
X82799993Y-122982401D03*
D22*
X75692000Y-143941800D03*
X62992000Y-143941800D03*
D23*
X71882000Y-141401800D03*
X69850000Y-141401800D03*
X67818000Y-141401800D03*
X65786000Y-141401800D03*
X72898000Y-139623800D03*
X70866000Y-139623800D03*
X68834000Y-139623800D03*
X66802000Y-139623800D03*
D24*
X85496400Y-135712200D03*
X86106000Y-138480800D03*
X71602600Y-131800600D03*
X67284600Y-125933200D03*
X77139800Y-131724400D03*
X75666600Y-130276600D03*
X76536205Y-133433924D03*
X74726800Y-131622800D03*
X84836000Y-104470200D03*
X82626200Y-102235000D03*
X87884000Y-131826000D03*
X94996000Y-144780000D03*
X108204000Y-137668000D03*
X101092000Y-124460000D03*
D25*
X101447600Y-132080000D02*
X103649499Y-132080000D01*
X86106000Y-138480800D02*
X86106000Y-136321800D01*
X86106000Y-136321800D02*
X85496400Y-135712200D01*
X71628000Y-130128000D02*
X71628000Y-131775200D01*
X71628000Y-131775200D02*
X71602600Y-131800600D01*
X67310000Y-127428000D02*
X65024000Y-127428000D01*
X62738000Y-127428000D02*
X65024000Y-127428000D01*
X67310000Y-127428000D02*
X67310000Y-125958600D01*
X67310000Y-125958600D02*
X67284600Y-125933200D01*
D26*
X90544000Y-134620000D02*
X90567015Y-134643015D01*
X90567015Y-134643015D02*
X96511706Y-134643015D01*
X96511706Y-134643015D02*
X98989562Y-137120871D01*
X98989562Y-137120871D02*
X105043129Y-137120871D01*
X105043129Y-137120871D02*
X105044000Y-137120000D01*
X77352427Y-146511113D02*
X100565889Y-146511113D01*
X100565889Y-146511113D02*
X105044000Y-142033002D01*
X105044000Y-142033002D02*
X105044000Y-138463502D01*
X105044000Y-138463502D02*
X105044000Y-137120000D01*
X78484929Y-133605071D02*
X78484929Y-145378611D01*
X78484929Y-145378611D02*
X77352427Y-146511113D01*
X77352427Y-146511113D02*
X69817683Y-146511113D01*
X69817683Y-146511113D02*
X65786000Y-142479430D01*
X65786000Y-142479430D02*
X65786000Y-141401800D01*
D27*
X78484929Y-133693418D02*
X78484929Y-133605071D01*
D26*
X81044929Y-120108373D02*
X79486929Y-120108373D01*
X79486929Y-120108373D02*
X78484929Y-121110373D01*
X78484929Y-133605071D02*
X78484929Y-122986800D01*
X78484929Y-122986800D02*
X78484929Y-121110373D01*
X82799993Y-122982401D02*
X80779993Y-122982401D01*
X80779993Y-122982401D02*
X80775594Y-122986800D01*
X80775594Y-122986800D02*
X78484929Y-122986800D01*
X85499993Y-122982401D02*
X85499993Y-133485993D01*
X85499993Y-133485993D02*
X87884000Y-135870000D01*
X87884000Y-135870000D02*
X87884000Y-135970000D01*
X87970702Y-118782538D02*
X89408000Y-118782538D01*
D27*
X117326400Y-92799902D02*
X91343764Y-118782538D01*
D26*
X89408000Y-118782538D02*
X89913094Y-118782538D01*
D27*
X117326400Y-56388000D02*
X117326400Y-92799902D01*
X91343764Y-118782538D02*
X89408000Y-118782538D01*
X119634000Y-53594000D02*
X119634000Y-54080400D01*
X119634000Y-54080400D02*
X117326400Y-56388000D01*
D26*
X87884000Y-135970000D02*
X87884000Y-138873002D01*
X87884000Y-138873002D02*
X91870998Y-142860000D01*
X91870998Y-142860000D02*
X97374000Y-142860000D01*
X97374000Y-142860000D02*
X99294000Y-144780000D01*
X99294000Y-144780000D02*
X99394000Y-144780000D01*
X104996599Y-126484999D02*
X108204000Y-129692400D01*
X108204000Y-129692400D02*
X108204000Y-133270000D01*
X96694000Y-124460000D02*
X96794000Y-124460000D01*
X96794000Y-124460000D02*
X98818999Y-126484999D01*
X98818999Y-126484999D02*
X104996599Y-126484999D01*
X89934929Y-118804373D02*
X91038373Y-118804373D01*
X91038373Y-118804373D02*
X96694000Y-124460000D01*
X85499993Y-122982401D02*
X85499993Y-121062401D01*
X85499993Y-121062401D02*
X87198200Y-119364194D01*
X87198200Y-119364194D02*
X87198200Y-117855102D01*
X87198200Y-117855102D02*
X87244929Y-117808373D01*
X87244929Y-117808373D02*
X87244929Y-118056765D01*
X87244929Y-118056765D02*
X87970702Y-118782538D01*
X89913094Y-118782538D02*
X89934929Y-118804373D01*
X77234929Y-116538373D02*
X78504929Y-117808373D01*
X78504929Y-117808373D02*
X81044929Y-117808373D01*
X81044929Y-117808373D02*
X87244929Y-117808373D01*
D25*
X75666600Y-130276600D02*
X75692000Y-130276600D01*
X75692000Y-130276600D02*
X77139800Y-131724400D01*
X70866000Y-139623800D02*
X67310000Y-136067800D01*
X67310000Y-136067800D02*
X67310000Y-130128000D01*
X68834000Y-139623800D02*
X65024000Y-135813800D01*
X65024000Y-135813800D02*
X65024000Y-130128000D01*
X74726800Y-131622800D02*
X76536205Y-133432205D01*
X76536205Y-133432205D02*
X76536205Y-133433924D01*
X66802000Y-139623800D02*
X62738000Y-135559800D01*
X62738000Y-135559800D02*
X62738000Y-130128000D01*
X106934000Y-53594000D02*
X105099035Y-55428965D01*
X105099035Y-55428965D02*
X103399053Y-55428965D01*
X103399053Y-55428965D02*
X84428116Y-74399902D01*
X84428116Y-103277884D02*
X69879417Y-117826583D01*
X84428116Y-74399902D02*
X84428116Y-103277884D01*
X73533000Y-141401800D02*
X71882000Y-141401800D01*
X69879417Y-117826583D02*
X69879417Y-134014417D01*
X69879417Y-134014417D02*
X74218800Y-138353800D01*
X74218800Y-138353800D02*
X74218800Y-140716000D01*
X74218800Y-140716000D02*
X73533000Y-141401800D01*
X72898000Y-139623800D02*
X72898000Y-138546170D01*
X72898000Y-138546170D02*
X69019695Y-134667865D01*
X69019695Y-134667865D02*
X69019695Y-117416305D01*
X83823191Y-102612809D02*
X83823191Y-74164809D01*
X69019695Y-117416305D02*
X83823191Y-102612809D01*
X83823191Y-74164809D02*
X103494001Y-54493999D01*
X103494001Y-54493999D02*
X104394000Y-53594000D01*
X104394000Y-53594000D02*
X101854000Y-53594000D01*
X71628000Y-127428000D02*
X71628000Y-117678200D01*
X84836000Y-104470200D02*
X71628000Y-117678200D01*
X83174001Y-101664326D02*
X82626200Y-102212127D01*
X82626200Y-102212127D02*
X82626200Y-102235000D01*
X71628000Y-127428000D02*
X73914000Y-127428000D01*
X83174001Y-54493999D02*
X83174001Y-101664326D01*
X84074000Y-53594000D02*
X83174001Y-54493999D01*
X87884000Y-133270000D02*
X87884000Y-131826000D01*
D27*
X96694000Y-144780000D02*
X94996000Y-144780000D01*
X108204000Y-135970000D02*
X108204000Y-137668000D01*
D25*
X99394000Y-124460000D02*
X101092000Y-124460000D01*
X112094000Y-56388000D02*
X114626400Y-56388000D01*
X114554000Y-53594000D02*
X114554000Y-56315600D01*
X114554000Y-56315600D02*
X114626400Y-56388000D01*
X69850000Y-141401800D02*
X71755000Y-143306800D01*
X73918252Y-135411652D02*
X73918252Y-130132252D01*
X71755000Y-143306800D02*
X73152000Y-143306800D01*
X73152000Y-143306800D02*
X75793600Y-140665200D01*
X75793600Y-140665200D02*
X75793600Y-137287000D01*
X75793600Y-137287000D02*
X73918252Y-135411652D01*
X73918252Y-130132252D02*
X73914000Y-130128000D01*
D28*
G36*
X134672000Y-146610000D02*
X102263054Y-146610000D01*
X105942023Y-142931030D01*
X105942026Y-142931028D01*
X106217327Y-142519010D01*
X106314000Y-142033002D01*
X106314000Y-138091790D01*
X106386914Y-138019003D01*
X106628724Y-137436659D01*
X106629275Y-136806107D01*
X106388481Y-136223343D01*
X105943003Y-135777086D01*
X105360659Y-135535276D01*
X104730107Y-135534725D01*
X104147343Y-135775519D01*
X104071859Y-135850871D01*
X99515613Y-135850871D01*
X97409732Y-133744989D01*
X96997714Y-133469688D01*
X96511706Y-133373014D01*
X96511701Y-133373015D01*
X91538765Y-133373015D01*
X91535529Y-133369774D01*
X91886914Y-133019003D01*
X92128724Y-132436659D01*
X92129035Y-132080000D01*
X100622100Y-132080000D01*
X100684937Y-132395905D01*
X100863883Y-132663717D01*
X101131695Y-132842663D01*
X101447600Y-132905500D01*
X103649499Y-132905500D01*
X103653279Y-132904748D01*
X103699519Y-133016657D01*
X104144997Y-133462914D01*
X104727341Y-133704724D01*
X105357893Y-133705275D01*
X105940657Y-133464481D01*
X106386914Y-133019003D01*
X106628724Y-132436659D01*
X106629275Y-131806107D01*
X106388481Y-131223343D01*
X105943003Y-130777086D01*
X105360659Y-130535276D01*
X104730107Y-130534725D01*
X104147343Y-130775519D01*
X103701086Y-131220997D01*
X103684300Y-131261422D01*
X103649499Y-131254500D01*
X101447600Y-131254500D01*
X101131695Y-131317337D01*
X100863883Y-131496283D01*
X100684937Y-131764095D01*
X100622100Y-132080000D01*
X92129035Y-132080000D01*
X92129275Y-131806107D01*
X91888481Y-131223343D01*
X91443003Y-130777086D01*
X91412760Y-130764528D01*
X96529077Y-130764528D01*
X96719364Y-131109271D01*
X97600591Y-131460956D01*
X98549323Y-131448641D01*
X99368636Y-131109271D01*
X99558923Y-130764528D01*
X98044000Y-129249605D01*
X96529077Y-130764528D01*
X91412760Y-130764528D01*
X90860659Y-130535276D01*
X90230107Y-130534725D01*
X89647343Y-130775519D01*
X89201086Y-131220997D01*
X88959276Y-131803341D01*
X88959068Y-132041896D01*
X88899848Y-132001433D01*
X88900176Y-131624792D01*
X88745825Y-131251234D01*
X88460269Y-130965179D01*
X88086982Y-130810176D01*
X87682792Y-130809824D01*
X87309234Y-130964175D01*
X87023179Y-131249731D01*
X86868176Y-131623018D01*
X86867847Y-132001029D01*
X86782559Y-132055910D01*
X86769993Y-132074301D01*
X86769993Y-128626591D01*
X95653044Y-128626591D01*
X95665359Y-129575323D01*
X96004729Y-130394636D01*
X96349472Y-130584923D01*
X97864395Y-129070000D01*
X96349472Y-127555077D01*
X96004729Y-127745364D01*
X95653044Y-128626591D01*
X86769993Y-128626591D01*
X86769993Y-123996152D01*
X86846424Y-123884291D01*
X86897433Y-123632401D01*
X86897433Y-122332401D01*
X86853155Y-122097084D01*
X86769993Y-121967847D01*
X86769993Y-121588453D01*
X88096223Y-120262222D01*
X88096226Y-120262220D01*
X88133916Y-120205813D01*
X88344929Y-120205813D01*
X88580246Y-120161535D01*
X88749632Y-120052538D01*
X88914222Y-120052538D01*
X89058039Y-120150804D01*
X89309929Y-120201813D01*
X90559929Y-120201813D01*
X90627118Y-120189170D01*
X95296560Y-124858611D01*
X95296560Y-125110000D01*
X95340838Y-125345317D01*
X95479910Y-125561441D01*
X95692110Y-125706431D01*
X95944000Y-125757440D01*
X96295388Y-125757440D01*
X97319919Y-126781971D01*
X96719364Y-127030729D01*
X96529077Y-127375472D01*
X98044000Y-128890395D01*
X98058143Y-128876253D01*
X98237748Y-129055858D01*
X98223605Y-129070000D01*
X99738528Y-130584923D01*
X100083271Y-130394636D01*
X100434956Y-129513409D01*
X100422641Y-128564677D01*
X100087262Y-127754999D01*
X104470547Y-127754999D01*
X106934000Y-130218452D01*
X106934000Y-132384497D01*
X106906560Y-132520000D01*
X106906560Y-134020000D01*
X106950838Y-134255317D01*
X107089910Y-134471441D01*
X107302110Y-134616431D01*
X107315197Y-134619081D01*
X107102559Y-134755910D01*
X106957569Y-134968110D01*
X106906560Y-135220000D01*
X106906560Y-136720000D01*
X106950838Y-136955317D01*
X107089910Y-137171441D01*
X107188000Y-137238463D01*
X107188000Y-137667113D01*
X107187824Y-137869208D01*
X107342175Y-138242766D01*
X107627731Y-138528821D01*
X108001018Y-138683824D01*
X108405208Y-138684176D01*
X108778766Y-138529825D01*
X109064821Y-138244269D01*
X109219824Y-137870982D01*
X109220176Y-137466792D01*
X109220000Y-137466366D01*
X109220000Y-137239070D01*
X109305441Y-137184090D01*
X109450431Y-136971890D01*
X109501440Y-136720000D01*
X109501440Y-135220000D01*
X109457162Y-134984683D01*
X109318090Y-134768559D01*
X109105890Y-134623569D01*
X109092803Y-134620919D01*
X109305441Y-134484090D01*
X109450431Y-134271890D01*
X109501440Y-134020000D01*
X109501440Y-132520000D01*
X109474000Y-132374169D01*
X109474000Y-129692405D01*
X109474001Y-129692400D01*
X109377327Y-129206392D01*
X109102026Y-128794374D01*
X105894625Y-125586973D01*
X105482607Y-125311672D01*
X104996599Y-125214998D01*
X104996594Y-125214999D01*
X101773779Y-125214999D01*
X101952821Y-125036269D01*
X102107824Y-124662982D01*
X102108176Y-124258792D01*
X101953825Y-123885234D01*
X101668269Y-123599179D01*
X101294982Y-123444176D01*
X100890792Y-123443824D01*
X100710810Y-123518191D01*
X100608090Y-123358559D01*
X100395890Y-123213569D01*
X100144000Y-123162560D01*
X98644000Y-123162560D01*
X98408683Y-123206838D01*
X98192559Y-123345910D01*
X98047569Y-123558110D01*
X98044919Y-123571197D01*
X97908090Y-123358559D01*
X97695890Y-123213569D01*
X97444000Y-123162560D01*
X97192611Y-123162560D01*
X92796597Y-118766545D01*
X118044820Y-93518323D01*
X118265061Y-93188709D01*
X118265062Y-93188708D01*
X118342400Y-92799902D01*
X118342400Y-57621418D01*
X118527841Y-57502090D01*
X118672831Y-57289890D01*
X118723840Y-57038000D01*
X118723840Y-56427400D01*
X120081112Y-55070128D01*
X120502371Y-54896068D01*
X120724668Y-54674159D01*
X121273446Y-54674159D01*
X121359852Y-54930643D01*
X121933336Y-55140458D01*
X122543460Y-55114839D01*
X122988148Y-54930643D01*
X123074554Y-54674159D01*
X122174000Y-53773605D01*
X121273446Y-54674159D01*
X120724668Y-54674159D01*
X120934551Y-54464643D01*
X120943203Y-54443806D01*
X121093841Y-54494554D01*
X121994395Y-53594000D01*
X122353605Y-53594000D01*
X123254159Y-54494554D01*
X123510643Y-54408148D01*
X123720458Y-53834664D01*
X123694839Y-53224540D01*
X123510643Y-52779852D01*
X123254159Y-52693446D01*
X122353605Y-53594000D01*
X121994395Y-53594000D01*
X121093841Y-52693446D01*
X120943673Y-52744035D01*
X120936068Y-52725629D01*
X120724650Y-52513841D01*
X121273446Y-52513841D01*
X122174000Y-53414395D01*
X123074554Y-52513841D01*
X122988148Y-52257357D01*
X122414664Y-52047542D01*
X121804540Y-52073161D01*
X121359852Y-52257357D01*
X121273446Y-52513841D01*
X120724650Y-52513841D01*
X120504643Y-52293449D01*
X119940670Y-52059267D01*
X119330009Y-52058735D01*
X118765629Y-52291932D01*
X118363677Y-52693182D01*
X117964643Y-52293449D01*
X117400670Y-52059267D01*
X116790009Y-52058735D01*
X116225629Y-52291932D01*
X115823677Y-52693182D01*
X115424643Y-52293449D01*
X114860670Y-52059267D01*
X114250009Y-52058735D01*
X113685629Y-52291932D01*
X113283677Y-52693182D01*
X112884643Y-52293449D01*
X112320670Y-52059267D01*
X111710009Y-52058735D01*
X111145629Y-52291932D01*
X110743677Y-52693182D01*
X110344643Y-52293449D01*
X109780670Y-52059267D01*
X109170009Y-52058735D01*
X108605629Y-52291932D01*
X108203677Y-52693182D01*
X107804643Y-52293449D01*
X107240670Y-52059267D01*
X106630009Y-52058735D01*
X106065629Y-52291932D01*
X105663677Y-52693182D01*
X105264643Y-52293449D01*
X104700670Y-52059267D01*
X104090009Y-52058735D01*
X103525629Y-52291932D01*
X103123677Y-52693182D01*
X102724643Y-52293449D01*
X102160670Y-52059267D01*
X101550009Y-52058735D01*
X100985629Y-52291932D01*
X100583677Y-52693182D01*
X100184643Y-52293449D01*
X99620670Y-52059267D01*
X99010009Y-52058735D01*
X98445629Y-52291932D01*
X98043677Y-52693182D01*
X97644643Y-52293449D01*
X97080670Y-52059267D01*
X96470009Y-52058735D01*
X95905629Y-52291932D01*
X95503677Y-52693182D01*
X95104643Y-52293449D01*
X94540670Y-52059267D01*
X93930009Y-52058735D01*
X93365629Y-52291932D01*
X92963677Y-52693182D01*
X92564643Y-52293449D01*
X92000670Y-52059267D01*
X91390009Y-52058735D01*
X90825629Y-52291932D01*
X90423677Y-52693182D01*
X90024643Y-52293449D01*
X89460670Y-52059267D01*
X88850009Y-52058735D01*
X88285629Y-52291932D01*
X87883677Y-52693182D01*
X87484643Y-52293449D01*
X86920670Y-52059267D01*
X86310009Y-52058735D01*
X85745629Y-52291932D01*
X85343677Y-52693182D01*
X84944643Y-52293449D01*
X84380670Y-52059267D01*
X83770009Y-52058735D01*
X83205629Y-52291932D01*
X82803677Y-52693182D01*
X82404643Y-52293449D01*
X81840670Y-52059267D01*
X81230009Y-52058735D01*
X80665629Y-52291932D01*
X80263677Y-52693182D01*
X79864643Y-52293449D01*
X79300670Y-52059267D01*
X78690009Y-52058735D01*
X78125629Y-52291932D01*
X77723677Y-52693182D01*
X77324643Y-52293449D01*
X76760670Y-52059267D01*
X76150009Y-52058735D01*
X75585629Y-52291932D01*
X75153449Y-52723357D01*
X75144797Y-52744194D01*
X74994159Y-52693446D01*
X74093605Y-53594000D01*
X74994159Y-54494554D01*
X75144327Y-54443965D01*
X75151932Y-54462371D01*
X75583357Y-54894551D01*
X76147330Y-55128733D01*
X76757991Y-55129265D01*
X77322371Y-54896068D01*
X77724323Y-54494818D01*
X78123357Y-54894551D01*
X78687330Y-55128733D01*
X79297991Y-55129265D01*
X79862371Y-54896068D01*
X80264323Y-54494818D01*
X80663357Y-54894551D01*
X81227330Y-55128733D01*
X81837991Y-55129265D01*
X82348501Y-54918327D01*
X82348501Y-101250429D01*
X82051434Y-101373175D01*
X81765379Y-101658731D01*
X81610376Y-102032018D01*
X81610024Y-102436208D01*
X81764375Y-102809766D01*
X82049931Y-103095821D01*
X82136711Y-103131855D01*
X68435978Y-116832588D01*
X68257032Y-117100399D01*
X68257032Y-117100400D01*
X68194195Y-117416305D01*
X68194195Y-126087687D01*
X68086310Y-126043000D01*
X67595750Y-126043000D01*
X67437000Y-126201750D01*
X67437000Y-127301000D01*
X67457000Y-127301000D01*
X67457000Y-127555000D01*
X67437000Y-127555000D01*
X67437000Y-127575000D01*
X67183000Y-127575000D01*
X67183000Y-127555000D01*
X66183750Y-127555000D01*
X66167000Y-127571750D01*
X66150250Y-127555000D01*
X65151000Y-127555000D01*
X65151000Y-127575000D01*
X64897000Y-127575000D01*
X64897000Y-127555000D01*
X63897750Y-127555000D01*
X63881000Y-127571750D01*
X63864250Y-127555000D01*
X62865000Y-127555000D01*
X62865000Y-127575000D01*
X62611000Y-127575000D01*
X62611000Y-127555000D01*
X61611750Y-127555000D01*
X61453000Y-127713750D01*
X61453000Y-128304309D01*
X61549673Y-128537698D01*
X61728301Y-128716327D01*
X61864287Y-128772654D01*
X61852683Y-128774838D01*
X61636559Y-128913910D01*
X61491569Y-129126110D01*
X61440560Y-129378000D01*
X61440560Y-130878000D01*
X61484838Y-131113317D01*
X61623910Y-131329441D01*
X61836110Y-131474431D01*
X61912500Y-131489900D01*
X61912500Y-135559800D01*
X61975337Y-135875706D01*
X62154283Y-136143517D01*
X65405200Y-139394434D01*
X65404758Y-139900461D01*
X65456748Y-140026288D01*
X64995697Y-140216790D01*
X64602371Y-140609430D01*
X64389243Y-141122700D01*
X64388758Y-141678461D01*
X64516000Y-141986411D01*
X64516000Y-142268697D01*
X64274199Y-142026474D01*
X63443634Y-141681593D01*
X62544312Y-141680808D01*
X61713146Y-142024239D01*
X61416000Y-142320867D01*
X61416000Y-126551691D01*
X61453000Y-126551691D01*
X61453000Y-127142250D01*
X61611750Y-127301000D01*
X62611000Y-127301000D01*
X62611000Y-126201750D01*
X62865000Y-126201750D01*
X62865000Y-127301000D01*
X63864250Y-127301000D01*
X63881000Y-127284250D01*
X63897750Y-127301000D01*
X64897000Y-127301000D01*
X64897000Y-126201750D01*
X65151000Y-126201750D01*
X65151000Y-127301000D01*
X66150250Y-127301000D01*
X66167000Y-127284250D01*
X66183750Y-127301000D01*
X67183000Y-127301000D01*
X67183000Y-126201750D01*
X67024250Y-126043000D01*
X66533690Y-126043000D01*
X66300301Y-126139673D01*
X66167000Y-126272975D01*
X66033699Y-126139673D01*
X65800310Y-126043000D01*
X65309750Y-126043000D01*
X65151000Y-126201750D01*
X64897000Y-126201750D01*
X64738250Y-126043000D01*
X64247690Y-126043000D01*
X64014301Y-126139673D01*
X63881000Y-126272975D01*
X63747699Y-126139673D01*
X63514310Y-126043000D01*
X63023750Y-126043000D01*
X62865000Y-126201750D01*
X62611000Y-126201750D01*
X62452250Y-126043000D01*
X61961690Y-126043000D01*
X61728301Y-126139673D01*
X61549673Y-126318302D01*
X61453000Y-126551691D01*
X61416000Y-126551691D01*
X61416000Y-54674159D01*
X73013446Y-54674159D01*
X73099852Y-54930643D01*
X73673336Y-55140458D01*
X74283460Y-55114839D01*
X74728148Y-54930643D01*
X74814554Y-54674159D01*
X73914000Y-53773605D01*
X73013446Y-54674159D01*
X61416000Y-54674159D01*
X61416000Y-53353336D01*
X72367542Y-53353336D01*
X72393161Y-53963460D01*
X72577357Y-54408148D01*
X72833841Y-54494554D01*
X73734395Y-53594000D01*
X72833841Y-52693446D01*
X72577357Y-52779852D01*
X72367542Y-53353336D01*
X61416000Y-53353336D01*
X61416000Y-52513841D01*
X73013446Y-52513841D01*
X73914000Y-53414395D01*
X74814554Y-52513841D01*
X74728148Y-52257357D01*
X74154664Y-52047542D01*
X73544540Y-52073161D01*
X73099852Y-52257357D01*
X73013446Y-52513841D01*
X61416000Y-52513841D01*
X61416000Y-51002000D01*
X134672000Y-51002000D01*
X134672000Y-146610000D01*
X134672000Y-146610000D01*
G37*
X134672000Y-146610000D02*
X102263054Y-146610000D01*
X105942023Y-142931030D01*
X105942026Y-142931028D01*
X106217327Y-142519010D01*
X106314000Y-142033002D01*
X106314000Y-138091790D01*
X106386914Y-138019003D01*
X106628724Y-137436659D01*
X106629275Y-136806107D01*
X106388481Y-136223343D01*
X105943003Y-135777086D01*
X105360659Y-135535276D01*
X104730107Y-135534725D01*
X104147343Y-135775519D01*
X104071859Y-135850871D01*
X99515613Y-135850871D01*
X97409732Y-133744989D01*
X96997714Y-133469688D01*
X96511706Y-133373014D01*
X96511701Y-133373015D01*
X91538765Y-133373015D01*
X91535529Y-133369774D01*
X91886914Y-133019003D01*
X92128724Y-132436659D01*
X92129035Y-132080000D01*
X100622100Y-132080000D01*
X100684937Y-132395905D01*
X100863883Y-132663717D01*
X101131695Y-132842663D01*
X101447600Y-132905500D01*
X103649499Y-132905500D01*
X103653279Y-132904748D01*
X103699519Y-133016657D01*
X104144997Y-133462914D01*
X104727341Y-133704724D01*
X105357893Y-133705275D01*
X105940657Y-133464481D01*
X106386914Y-133019003D01*
X106628724Y-132436659D01*
X106629275Y-131806107D01*
X106388481Y-131223343D01*
X105943003Y-130777086D01*
X105360659Y-130535276D01*
X104730107Y-130534725D01*
X104147343Y-130775519D01*
X103701086Y-131220997D01*
X103684300Y-131261422D01*
X103649499Y-131254500D01*
X101447600Y-131254500D01*
X101131695Y-131317337D01*
X100863883Y-131496283D01*
X100684937Y-131764095D01*
X100622100Y-132080000D01*
X92129035Y-132080000D01*
X92129275Y-131806107D01*
X91888481Y-131223343D01*
X91443003Y-130777086D01*
X91412760Y-130764528D01*
X96529077Y-130764528D01*
X96719364Y-131109271D01*
X97600591Y-131460956D01*
X98549323Y-131448641D01*
X99368636Y-131109271D01*
X99558923Y-130764528D01*
X98044000Y-129249605D01*
X96529077Y-130764528D01*
X91412760Y-130764528D01*
X90860659Y-130535276D01*
X90230107Y-130534725D01*
X89647343Y-130775519D01*
X89201086Y-131220997D01*
X88959276Y-131803341D01*
X88959068Y-132041896D01*
X88899848Y-132001433D01*
X88900176Y-131624792D01*
X88745825Y-131251234D01*
X88460269Y-130965179D01*
X88086982Y-130810176D01*
X87682792Y-130809824D01*
X87309234Y-130964175D01*
X87023179Y-131249731D01*
X86868176Y-131623018D01*
X86867847Y-132001029D01*
X86782559Y-132055910D01*
X86769993Y-132074301D01*
X86769993Y-128626591D01*
X95653044Y-128626591D01*
X95665359Y-129575323D01*
X96004729Y-130394636D01*
X96349472Y-130584923D01*
X97864395Y-129070000D01*
X96349472Y-127555077D01*
X96004729Y-127745364D01*
X95653044Y-128626591D01*
X86769993Y-128626591D01*
X86769993Y-123996152D01*
X86846424Y-123884291D01*
X86897433Y-123632401D01*
X86897433Y-122332401D01*
X86853155Y-122097084D01*
X86769993Y-121967847D01*
X86769993Y-121588453D01*
X88096223Y-120262222D01*
X88096226Y-120262220D01*
X88133916Y-120205813D01*
X88344929Y-120205813D01*
X88580246Y-120161535D01*
X88749632Y-120052538D01*
X88914222Y-120052538D01*
X89058039Y-120150804D01*
X89309929Y-120201813D01*
X90559929Y-120201813D01*
X90627118Y-120189170D01*
X95296560Y-124858611D01*
X95296560Y-125110000D01*
X95340838Y-125345317D01*
X95479910Y-125561441D01*
X95692110Y-125706431D01*
X95944000Y-125757440D01*
X96295388Y-125757440D01*
X97319919Y-126781971D01*
X96719364Y-127030729D01*
X96529077Y-127375472D01*
X98044000Y-128890395D01*
X98058143Y-128876253D01*
X98237748Y-129055858D01*
X98223605Y-129070000D01*
X99738528Y-130584923D01*
X100083271Y-130394636D01*
X100434956Y-129513409D01*
X100422641Y-128564677D01*
X100087262Y-127754999D01*
X104470547Y-127754999D01*
X106934000Y-130218452D01*
X106934000Y-132384497D01*
X106906560Y-132520000D01*
X106906560Y-134020000D01*
X106950838Y-134255317D01*
X107089910Y-134471441D01*
X107302110Y-134616431D01*
X107315197Y-134619081D01*
X107102559Y-134755910D01*
X106957569Y-134968110D01*
X106906560Y-135220000D01*
X106906560Y-136720000D01*
X106950838Y-136955317D01*
X107089910Y-137171441D01*
X107188000Y-137238463D01*
X107188000Y-137667113D01*
X107187824Y-137869208D01*
X107342175Y-138242766D01*
X107627731Y-138528821D01*
X108001018Y-138683824D01*
X108405208Y-138684176D01*
X108778766Y-138529825D01*
X109064821Y-138244269D01*
X109219824Y-137870982D01*
X109220176Y-137466792D01*
X109220000Y-137466366D01*
X109220000Y-137239070D01*
X109305441Y-137184090D01*
X109450431Y-136971890D01*
X109501440Y-136720000D01*
X109501440Y-135220000D01*
X109457162Y-134984683D01*
X109318090Y-134768559D01*
X109105890Y-134623569D01*
X109092803Y-134620919D01*
X109305441Y-134484090D01*
X109450431Y-134271890D01*
X109501440Y-134020000D01*
X109501440Y-132520000D01*
X109474000Y-132374169D01*
X109474000Y-129692405D01*
X109474001Y-129692400D01*
X109377327Y-129206392D01*
X109102026Y-128794374D01*
X105894625Y-125586973D01*
X105482607Y-125311672D01*
X104996599Y-125214998D01*
X104996594Y-125214999D01*
X101773779Y-125214999D01*
X101952821Y-125036269D01*
X102107824Y-124662982D01*
X102108176Y-124258792D01*
X101953825Y-123885234D01*
X101668269Y-123599179D01*
X101294982Y-123444176D01*
X100890792Y-123443824D01*
X100710810Y-123518191D01*
X100608090Y-123358559D01*
X100395890Y-123213569D01*
X100144000Y-123162560D01*
X98644000Y-123162560D01*
X98408683Y-123206838D01*
X98192559Y-123345910D01*
X98047569Y-123558110D01*
X98044919Y-123571197D01*
X97908090Y-123358559D01*
X97695890Y-123213569D01*
X97444000Y-123162560D01*
X97192611Y-123162560D01*
X92796597Y-118766545D01*
X118044820Y-93518323D01*
X118265061Y-93188709D01*
X118265062Y-93188708D01*
X118342400Y-92799902D01*
X118342400Y-57621418D01*
X118527841Y-57502090D01*
X118672831Y-57289890D01*
X118723840Y-57038000D01*
X118723840Y-56427400D01*
X120081112Y-55070128D01*
X120502371Y-54896068D01*
X120724668Y-54674159D01*
X121273446Y-54674159D01*
X121359852Y-54930643D01*
X121933336Y-55140458D01*
X122543460Y-55114839D01*
X122988148Y-54930643D01*
X123074554Y-54674159D01*
X122174000Y-53773605D01*
X121273446Y-54674159D01*
X120724668Y-54674159D01*
X120934551Y-54464643D01*
X120943203Y-54443806D01*
X121093841Y-54494554D01*
X121994395Y-53594000D01*
X122353605Y-53594000D01*
X123254159Y-54494554D01*
X123510643Y-54408148D01*
X123720458Y-53834664D01*
X123694839Y-53224540D01*
X123510643Y-52779852D01*
X123254159Y-52693446D01*
X122353605Y-53594000D01*
X121994395Y-53594000D01*
X121093841Y-52693446D01*
X120943673Y-52744035D01*
X120936068Y-52725629D01*
X120724650Y-52513841D01*
X121273446Y-52513841D01*
X122174000Y-53414395D01*
X123074554Y-52513841D01*
X122988148Y-52257357D01*
X122414664Y-52047542D01*
X121804540Y-52073161D01*
X121359852Y-52257357D01*
X121273446Y-52513841D01*
X120724650Y-52513841D01*
X120504643Y-52293449D01*
X119940670Y-52059267D01*
X119330009Y-52058735D01*
X118765629Y-52291932D01*
X118363677Y-52693182D01*
X117964643Y-52293449D01*
X117400670Y-52059267D01*
X116790009Y-52058735D01*
X116225629Y-52291932D01*
X115823677Y-52693182D01*
X115424643Y-52293449D01*
X114860670Y-52059267D01*
X114250009Y-52058735D01*
X113685629Y-52291932D01*
X113283677Y-52693182D01*
X112884643Y-52293449D01*
X112320670Y-52059267D01*
X111710009Y-52058735D01*
X111145629Y-52291932D01*
X110743677Y-52693182D01*
X110344643Y-52293449D01*
X109780670Y-52059267D01*
X109170009Y-52058735D01*
X108605629Y-52291932D01*
X108203677Y-52693182D01*
X107804643Y-52293449D01*
X107240670Y-52059267D01*
X106630009Y-52058735D01*
X106065629Y-52291932D01*
X105663677Y-52693182D01*
X105264643Y-52293449D01*
X104700670Y-52059267D01*
X104090009Y-52058735D01*
X103525629Y-52291932D01*
X103123677Y-52693182D01*
X102724643Y-52293449D01*
X102160670Y-52059267D01*
X101550009Y-52058735D01*
X100985629Y-52291932D01*
X100583677Y-52693182D01*
X100184643Y-52293449D01*
X99620670Y-52059267D01*
X99010009Y-52058735D01*
X98445629Y-52291932D01*
X98043677Y-52693182D01*
X97644643Y-52293449D01*
X97080670Y-52059267D01*
X96470009Y-52058735D01*
X95905629Y-52291932D01*
X95503677Y-52693182D01*
X95104643Y-52293449D01*
X94540670Y-52059267D01*
X93930009Y-52058735D01*
X93365629Y-52291932D01*
X92963677Y-52693182D01*
X92564643Y-52293449D01*
X92000670Y-52059267D01*
X91390009Y-52058735D01*
X90825629Y-52291932D01*
X90423677Y-52693182D01*
X90024643Y-52293449D01*
X89460670Y-52059267D01*
X88850009Y-52058735D01*
X88285629Y-52291932D01*
X87883677Y-52693182D01*
X87484643Y-52293449D01*
X86920670Y-52059267D01*
X86310009Y-52058735D01*
X85745629Y-52291932D01*
X85343677Y-52693182D01*
X84944643Y-52293449D01*
X84380670Y-52059267D01*
X83770009Y-52058735D01*
X83205629Y-52291932D01*
X82803677Y-52693182D01*
X82404643Y-52293449D01*
X81840670Y-52059267D01*
X81230009Y-52058735D01*
X80665629Y-52291932D01*
X80263677Y-52693182D01*
X79864643Y-52293449D01*
X79300670Y-52059267D01*
X78690009Y-52058735D01*
X78125629Y-52291932D01*
X77723677Y-52693182D01*
X77324643Y-52293449D01*
X76760670Y-52059267D01*
X76150009Y-52058735D01*
X75585629Y-52291932D01*
X75153449Y-52723357D01*
X75144797Y-52744194D01*
X74994159Y-52693446D01*
X74093605Y-53594000D01*
X74994159Y-54494554D01*
X75144327Y-54443965D01*
X75151932Y-54462371D01*
X75583357Y-54894551D01*
X76147330Y-55128733D01*
X76757991Y-55129265D01*
X77322371Y-54896068D01*
X77724323Y-54494818D01*
X78123357Y-54894551D01*
X78687330Y-55128733D01*
X79297991Y-55129265D01*
X79862371Y-54896068D01*
X80264323Y-54494818D01*
X80663357Y-54894551D01*
X81227330Y-55128733D01*
X81837991Y-55129265D01*
X82348501Y-54918327D01*
X82348501Y-101250429D01*
X82051434Y-101373175D01*
X81765379Y-101658731D01*
X81610376Y-102032018D01*
X81610024Y-102436208D01*
X81764375Y-102809766D01*
X82049931Y-103095821D01*
X82136711Y-103131855D01*
X68435978Y-116832588D01*
X68257032Y-117100399D01*
X68257032Y-117100400D01*
X68194195Y-117416305D01*
X68194195Y-126087687D01*
X68086310Y-126043000D01*
X67595750Y-126043000D01*
X67437000Y-126201750D01*
X67437000Y-127301000D01*
X67457000Y-127301000D01*
X67457000Y-127555000D01*
X67437000Y-127555000D01*
X67437000Y-127575000D01*
X67183000Y-127575000D01*
X67183000Y-127555000D01*
X66183750Y-127555000D01*
X66167000Y-127571750D01*
X66150250Y-127555000D01*
X65151000Y-127555000D01*
X65151000Y-127575000D01*
X64897000Y-127575000D01*
X64897000Y-127555000D01*
X63897750Y-127555000D01*
X63881000Y-127571750D01*
X63864250Y-127555000D01*
X62865000Y-127555000D01*
X62865000Y-127575000D01*
X62611000Y-127575000D01*
X62611000Y-127555000D01*
X61611750Y-127555000D01*
X61453000Y-127713750D01*
X61453000Y-128304309D01*
X61549673Y-128537698D01*
X61728301Y-128716327D01*
X61864287Y-128772654D01*
X61852683Y-128774838D01*
X61636559Y-128913910D01*
X61491569Y-129126110D01*
X61440560Y-129378000D01*
X61440560Y-130878000D01*
X61484838Y-131113317D01*
X61623910Y-131329441D01*
X61836110Y-131474431D01*
X61912500Y-131489900D01*
X61912500Y-135559800D01*
X61975337Y-135875706D01*
X62154283Y-136143517D01*
X65405200Y-139394434D01*
X65404758Y-139900461D01*
X65456748Y-140026288D01*
X64995697Y-140216790D01*
X64602371Y-140609430D01*
X64389243Y-141122700D01*
X64388758Y-141678461D01*
X64516000Y-141986411D01*
X64516000Y-142268697D01*
X64274199Y-142026474D01*
X63443634Y-141681593D01*
X62544312Y-141680808D01*
X61713146Y-142024239D01*
X61416000Y-142320867D01*
X61416000Y-126551691D01*
X61453000Y-126551691D01*
X61453000Y-127142250D01*
X61611750Y-127301000D01*
X62611000Y-127301000D01*
X62611000Y-126201750D01*
X62865000Y-126201750D01*
X62865000Y-127301000D01*
X63864250Y-127301000D01*
X63881000Y-127284250D01*
X63897750Y-127301000D01*
X64897000Y-127301000D01*
X64897000Y-126201750D01*
X65151000Y-126201750D01*
X65151000Y-127301000D01*
X66150250Y-127301000D01*
X66167000Y-127284250D01*
X66183750Y-127301000D01*
X67183000Y-127301000D01*
X67183000Y-126201750D01*
X67024250Y-126043000D01*
X66533690Y-126043000D01*
X66300301Y-126139673D01*
X66167000Y-126272975D01*
X66033699Y-126139673D01*
X65800310Y-126043000D01*
X65309750Y-126043000D01*
X65151000Y-126201750D01*
X64897000Y-126201750D01*
X64738250Y-126043000D01*
X64247690Y-126043000D01*
X64014301Y-126139673D01*
X63881000Y-126272975D01*
X63747699Y-126139673D01*
X63514310Y-126043000D01*
X63023750Y-126043000D01*
X62865000Y-126201750D01*
X62611000Y-126201750D01*
X62452250Y-126043000D01*
X61961690Y-126043000D01*
X61728301Y-126139673D01*
X61549673Y-126318302D01*
X61453000Y-126551691D01*
X61416000Y-126551691D01*
X61416000Y-54674159D01*
X73013446Y-54674159D01*
X73099852Y-54930643D01*
X73673336Y-55140458D01*
X74283460Y-55114839D01*
X74728148Y-54930643D01*
X74814554Y-54674159D01*
X73914000Y-53773605D01*
X73013446Y-54674159D01*
X61416000Y-54674159D01*
X61416000Y-53353336D01*
X72367542Y-53353336D01*
X72393161Y-53963460D01*
X72577357Y-54408148D01*
X72833841Y-54494554D01*
X73734395Y-53594000D01*
X72833841Y-52693446D01*
X72577357Y-52779852D01*
X72367542Y-53353336D01*
X61416000Y-53353336D01*
X61416000Y-52513841D01*
X73013446Y-52513841D01*
X73914000Y-53414395D01*
X74814554Y-52513841D01*
X74728148Y-52257357D01*
X74154664Y-52047542D01*
X73544540Y-52073161D01*
X73099852Y-52257357D01*
X73013446Y-52513841D01*
X61416000Y-52513841D01*
X61416000Y-51002000D01*
X134672000Y-51002000D01*
X134672000Y-146610000D01*
G36*
X68011748Y-141387658D02*
X67997605Y-141401800D01*
X68578440Y-141982635D01*
X68664990Y-142192103D01*
X69057630Y-142585429D01*
X69570900Y-142798557D01*
X70079767Y-142799001D01*
X71171283Y-143890517D01*
X71439095Y-144069463D01*
X71755000Y-144132301D01*
X71755005Y-144132300D01*
X73152000Y-144132300D01*
X73431281Y-144076748D01*
X73431008Y-144389488D01*
X73774439Y-145220654D01*
X73794862Y-145241113D01*
X70343734Y-145241113D01*
X67899110Y-142796489D01*
X68165368Y-142783162D01*
X68549143Y-142624197D01*
X68618608Y-142382013D01*
X67818000Y-141581405D01*
X67803858Y-141595548D01*
X67624253Y-141415943D01*
X67638395Y-141401800D01*
X67624253Y-141387658D01*
X67803858Y-141208053D01*
X67818000Y-141222195D01*
X67832143Y-141208053D01*
X68011748Y-141387658D01*
X68011748Y-141387658D01*
G37*
X68011748Y-141387658D02*
X67997605Y-141401800D01*
X68578440Y-141982635D01*
X68664990Y-142192103D01*
X69057630Y-142585429D01*
X69570900Y-142798557D01*
X70079767Y-142799001D01*
X71171283Y-143890517D01*
X71439095Y-144069463D01*
X71755000Y-144132301D01*
X71755005Y-144132300D01*
X73152000Y-144132300D01*
X73431281Y-144076748D01*
X73431008Y-144389488D01*
X73774439Y-145220654D01*
X73794862Y-145241113D01*
X70343734Y-145241113D01*
X67899110Y-142796489D01*
X68165368Y-142783162D01*
X68549143Y-142624197D01*
X68618608Y-142382013D01*
X67818000Y-141581405D01*
X67803858Y-141595548D01*
X67624253Y-141415943D01*
X67638395Y-141401800D01*
X67624253Y-141387658D01*
X67803858Y-141208053D01*
X67818000Y-141222195D01*
X67832143Y-141208053D01*
X68011748Y-141387658D01*
G36*
X84229993Y-123996955D02*
X84229993Y-133485988D01*
X84229992Y-133485993D01*
X84326666Y-133972001D01*
X84601967Y-134384019D01*
X86586560Y-136368612D01*
X86586560Y-136720000D01*
X86614000Y-136865831D01*
X86614000Y-138872997D01*
X86613999Y-138873002D01*
X86710673Y-139359010D01*
X86985974Y-139771028D01*
X90972970Y-143758023D01*
X90972972Y-143758026D01*
X91214155Y-143919179D01*
X91384990Y-144033327D01*
X91870998Y-144130001D01*
X91871003Y-144130000D01*
X94209039Y-144130000D01*
X94135179Y-144203731D01*
X93980176Y-144577018D01*
X93979824Y-144981208D01*
X94087215Y-145241113D01*
X79754929Y-145241113D01*
X79754929Y-124256800D01*
X80775589Y-124256800D01*
X80775594Y-124256801D01*
X80797714Y-124252401D01*
X81914490Y-124252401D01*
X82049993Y-124279841D01*
X83549993Y-124279841D01*
X83785310Y-124235563D01*
X84001434Y-124096491D01*
X84146424Y-123884291D01*
X84149074Y-123871204D01*
X84229993Y-123996955D01*
X84229993Y-123996955D01*
G37*
X84229993Y-123996955D02*
X84229993Y-133485988D01*
X84229992Y-133485993D01*
X84326666Y-133972001D01*
X84601967Y-134384019D01*
X86586560Y-136368612D01*
X86586560Y-136720000D01*
X86614000Y-136865831D01*
X86614000Y-138872997D01*
X86613999Y-138873002D01*
X86710673Y-139359010D01*
X86985974Y-139771028D01*
X90972970Y-143758023D01*
X90972972Y-143758026D01*
X91214155Y-143919179D01*
X91384990Y-144033327D01*
X91870998Y-144130001D01*
X91871003Y-144130000D01*
X94209039Y-144130000D01*
X94135179Y-144203731D01*
X93980176Y-144577018D01*
X93979824Y-144981208D01*
X94087215Y-145241113D01*
X79754929Y-145241113D01*
X79754929Y-124256800D01*
X80775589Y-124256800D01*
X80775594Y-124256801D01*
X80797714Y-124252401D01*
X81914490Y-124252401D01*
X82049993Y-124279841D01*
X83549993Y-124279841D01*
X83785310Y-124235563D01*
X84001434Y-124096491D01*
X84146424Y-123884291D01*
X84149074Y-123871204D01*
X84229993Y-123996955D01*
G36*
X97859830Y-137787190D02*
X97538677Y-137791359D01*
X96719364Y-138130729D01*
X96529077Y-138475472D01*
X98044000Y-139990395D01*
X99558923Y-138475472D01*
X99512226Y-138390871D01*
X103774000Y-138390871D01*
X103774000Y-141506951D01*
X100791440Y-144489510D01*
X100791440Y-144130000D01*
X100747162Y-143894683D01*
X100608090Y-143678559D01*
X100395890Y-143533569D01*
X100144000Y-143482560D01*
X99792612Y-143482560D01*
X98768081Y-142458029D01*
X99368636Y-142209271D01*
X99558923Y-141864528D01*
X98044000Y-140349605D01*
X98029858Y-140363748D01*
X97850253Y-140184143D01*
X97864395Y-140170000D01*
X98223605Y-140170000D01*
X99738528Y-141684923D01*
X100083271Y-141494636D01*
X100434956Y-140613409D01*
X100422641Y-139664677D01*
X100083271Y-138845364D01*
X99738528Y-138655077D01*
X98223605Y-140170000D01*
X97864395Y-140170000D01*
X96349472Y-138655077D01*
X96004729Y-138845364D01*
X95653044Y-139726591D01*
X95665359Y-140675323D01*
X96004729Y-141494636D01*
X96177500Y-141590000D01*
X92397049Y-141590000D01*
X89154000Y-138346950D01*
X89154000Y-137906493D01*
X89199519Y-138016657D01*
X89644997Y-138462914D01*
X90227341Y-138704724D01*
X90857893Y-138705275D01*
X91440657Y-138464481D01*
X91886914Y-138019003D01*
X92128724Y-137436659D01*
X92129275Y-136806107D01*
X91888481Y-136223343D01*
X91578695Y-135913015D01*
X95985654Y-135913015D01*
X97859830Y-137787190D01*
X97859830Y-137787190D01*
G37*
X97859830Y-137787190D02*
X97538677Y-137791359D01*
X96719364Y-138130729D01*
X96529077Y-138475472D01*
X98044000Y-139990395D01*
X99558923Y-138475472D01*
X99512226Y-138390871D01*
X103774000Y-138390871D01*
X103774000Y-141506951D01*
X100791440Y-144489510D01*
X100791440Y-144130000D01*
X100747162Y-143894683D01*
X100608090Y-143678559D01*
X100395890Y-143533569D01*
X100144000Y-143482560D01*
X99792612Y-143482560D01*
X98768081Y-142458029D01*
X99368636Y-142209271D01*
X99558923Y-141864528D01*
X98044000Y-140349605D01*
X98029858Y-140363748D01*
X97850253Y-140184143D01*
X97864395Y-140170000D01*
X98223605Y-140170000D01*
X99738528Y-141684923D01*
X100083271Y-141494636D01*
X100434956Y-140613409D01*
X100422641Y-139664677D01*
X100083271Y-138845364D01*
X99738528Y-138655077D01*
X98223605Y-140170000D01*
X97864395Y-140170000D01*
X96349472Y-138655077D01*
X96004729Y-138845364D01*
X95653044Y-139726591D01*
X95665359Y-140675323D01*
X96004729Y-141494636D01*
X96177500Y-141590000D01*
X92397049Y-141590000D01*
X89154000Y-138346950D01*
X89154000Y-137906493D01*
X89199519Y-138016657D01*
X89644997Y-138462914D01*
X90227341Y-138704724D01*
X90857893Y-138705275D01*
X91440657Y-138464481D01*
X91886914Y-138019003D01*
X92128724Y-137436659D01*
X92129275Y-136806107D01*
X91888481Y-136223343D01*
X91578695Y-135913015D01*
X95985654Y-135913015D01*
X97859830Y-137787190D01*
G36*
X71755000Y-130001000D02*
X71775000Y-130001000D01*
X71775000Y-130255000D01*
X71755000Y-130255000D01*
X71755000Y-131354250D01*
X71913750Y-131513000D01*
X72404310Y-131513000D01*
X72637699Y-131416327D01*
X72770417Y-131283608D01*
X72799910Y-131329441D01*
X73012110Y-131474431D01*
X73092752Y-131490761D01*
X73092752Y-135411652D01*
X73155589Y-135727558D01*
X73334535Y-135995369D01*
X74968100Y-137628933D01*
X74968100Y-138017895D01*
X74868750Y-137869208D01*
X74802517Y-137770083D01*
X74802514Y-137770081D01*
X70704917Y-133672483D01*
X70704917Y-131452205D01*
X70851690Y-131513000D01*
X71342250Y-131513000D01*
X71501000Y-131354250D01*
X71501000Y-130255000D01*
X71481000Y-130255000D01*
X71481000Y-130001000D01*
X71501000Y-130001000D01*
X71501000Y-129981000D01*
X71755000Y-129981000D01*
X71755000Y-130001000D01*
X71755000Y-130001000D01*
G37*
X71755000Y-130001000D02*
X71775000Y-130001000D01*
X71775000Y-130255000D01*
X71755000Y-130255000D01*
X71755000Y-131354250D01*
X71913750Y-131513000D01*
X72404310Y-131513000D01*
X72637699Y-131416327D01*
X72770417Y-131283608D01*
X72799910Y-131329441D01*
X73012110Y-131474431D01*
X73092752Y-131490761D01*
X73092752Y-135411652D01*
X73155589Y-135727558D01*
X73334535Y-135995369D01*
X74968100Y-137628933D01*
X74968100Y-138017895D01*
X74868750Y-137869208D01*
X74802517Y-137770083D01*
X74802514Y-137770081D01*
X70704917Y-133672483D01*
X70704917Y-131452205D01*
X70851690Y-131513000D01*
X71342250Y-131513000D01*
X71501000Y-131354250D01*
X71501000Y-130255000D01*
X71481000Y-130255000D01*
X71481000Y-130001000D01*
X71501000Y-130001000D01*
X71501000Y-129981000D01*
X71755000Y-129981000D01*
X71755000Y-130001000D01*
G36*
X108603357Y-54894551D02*
X109105358Y-55103000D01*
X108517691Y-55103000D01*
X108284302Y-55199673D01*
X108105673Y-55378301D01*
X108009000Y-55611690D01*
X108009000Y-56102250D01*
X108167750Y-56261000D01*
X109267000Y-56261000D01*
X109267000Y-56241000D01*
X109521000Y-56241000D01*
X109521000Y-56261000D01*
X109541000Y-56261000D01*
X109541000Y-56515000D01*
X109521000Y-56515000D01*
X109521000Y-57514250D01*
X109679750Y-57673000D01*
X110270309Y-57673000D01*
X110503698Y-57576327D01*
X110682327Y-57397699D01*
X110738654Y-57261713D01*
X110740838Y-57273317D01*
X110879910Y-57489441D01*
X111092110Y-57634431D01*
X111344000Y-57685440D01*
X112844000Y-57685440D01*
X113079317Y-57641162D01*
X113295441Y-57502090D01*
X113359820Y-57407869D01*
X113412310Y-57489441D01*
X113624510Y-57634431D01*
X113876400Y-57685440D01*
X115376400Y-57685440D01*
X115611717Y-57641162D01*
X115827841Y-57502090D01*
X115972831Y-57289890D01*
X115975481Y-57276803D01*
X116112310Y-57489441D01*
X116310400Y-57624790D01*
X116310400Y-92379061D01*
X91135725Y-117553737D01*
X91038373Y-117534372D01*
X91038368Y-117534373D01*
X90977955Y-117534373D01*
X91098256Y-117414071D01*
X91194929Y-117180682D01*
X91194929Y-116590123D01*
X91036179Y-116431373D01*
X90061929Y-116431373D01*
X90061929Y-116451373D01*
X89807929Y-116451373D01*
X89807929Y-116431373D01*
X89787929Y-116431373D01*
X89787929Y-116177373D01*
X89807929Y-116177373D01*
X89807929Y-115078123D01*
X90061929Y-115078123D01*
X90061929Y-116177373D01*
X91036179Y-116177373D01*
X91194929Y-116018623D01*
X91194929Y-115428064D01*
X91098256Y-115194675D01*
X90919628Y-115016046D01*
X90686239Y-114919373D01*
X90220679Y-114919373D01*
X90061929Y-115078123D01*
X89807929Y-115078123D01*
X89649179Y-114919373D01*
X89183619Y-114919373D01*
X88950230Y-115016046D01*
X88771602Y-115194675D01*
X88674929Y-115428064D01*
X88674929Y-115515312D01*
X88596819Y-115461942D01*
X88344929Y-115410933D01*
X86144929Y-115410933D01*
X85909612Y-115455211D01*
X85693488Y-115594283D01*
X85548498Y-115806483D01*
X85497489Y-116058373D01*
X85497489Y-116538373D01*
X82612954Y-116538373D01*
X82683256Y-116468071D01*
X82779929Y-116234682D01*
X82779929Y-115794123D01*
X82621179Y-115635373D01*
X81171929Y-115635373D01*
X81171929Y-115655373D01*
X80917929Y-115655373D01*
X80917929Y-115635373D01*
X79468679Y-115635373D01*
X79309929Y-115794123D01*
X79309929Y-116234682D01*
X79406602Y-116468071D01*
X79476904Y-116538373D01*
X79030980Y-116538373D01*
X78532369Y-116039761D01*
X78532369Y-115888373D01*
X78488091Y-115653056D01*
X78349019Y-115436932D01*
X78136819Y-115291942D01*
X77884929Y-115240933D01*
X76584929Y-115240933D01*
X76349612Y-115285211D01*
X76133488Y-115424283D01*
X75988498Y-115636483D01*
X75937489Y-115888373D01*
X75937489Y-116050758D01*
X75864540Y-115874644D01*
X75633945Y-115818963D01*
X74914534Y-116538373D01*
X75633945Y-117257783D01*
X75864540Y-117202102D01*
X75937489Y-116992471D01*
X75937489Y-117188373D01*
X75981767Y-117423690D01*
X76120839Y-117639814D01*
X76333039Y-117784804D01*
X76584929Y-117835813D01*
X76736317Y-117835813D01*
X77606901Y-118706396D01*
X77606903Y-118706399D01*
X78018921Y-118981700D01*
X78504929Y-119078373D01*
X78786416Y-119078373D01*
X78588903Y-119210347D01*
X77961317Y-119837933D01*
X77734929Y-119837933D01*
X77499612Y-119882211D01*
X77283488Y-120021283D01*
X77236960Y-120089379D01*
X77094627Y-119947046D01*
X76861238Y-119850373D01*
X76270679Y-119850373D01*
X76111929Y-120009123D01*
X76111929Y-120983373D01*
X76131929Y-120983373D01*
X76131929Y-121237373D01*
X76111929Y-121237373D01*
X76111929Y-122211623D01*
X76270679Y-122370373D01*
X76861238Y-122370373D01*
X77094627Y-122273700D01*
X77214929Y-122153399D01*
X77214929Y-130632096D01*
X76682755Y-130099921D01*
X76682776Y-130075392D01*
X76528425Y-129701834D01*
X76242869Y-129415779D01*
X75869582Y-129260776D01*
X75465392Y-129260424D01*
X75209232Y-129366267D01*
X75167162Y-129142683D01*
X75028090Y-128926559D01*
X74815890Y-128781569D01*
X74802803Y-128778919D01*
X75015441Y-128642090D01*
X75160431Y-128429890D01*
X75211440Y-128178000D01*
X75211440Y-126678000D01*
X75167162Y-126442683D01*
X75028090Y-126226559D01*
X74815890Y-126081569D01*
X74564000Y-126030560D01*
X73264000Y-126030560D01*
X73028683Y-126074838D01*
X72812559Y-126213910D01*
X72772076Y-126273159D01*
X72742090Y-126226559D01*
X72529890Y-126081569D01*
X72453500Y-126066100D01*
X72453500Y-121396123D01*
X74599929Y-121396123D01*
X74599929Y-121861683D01*
X74696602Y-122095072D01*
X74875231Y-122273700D01*
X75108620Y-122370373D01*
X75699179Y-122370373D01*
X75857929Y-122211623D01*
X75857929Y-121237373D01*
X74758679Y-121237373D01*
X74599929Y-121396123D01*
X72453500Y-121396123D01*
X72453500Y-120359063D01*
X74599929Y-120359063D01*
X74599929Y-120824623D01*
X74758679Y-120983373D01*
X75857929Y-120983373D01*
X75857929Y-120009123D01*
X75699179Y-119850373D01*
X75108620Y-119850373D01*
X74875231Y-119947046D01*
X74696602Y-120125674D01*
X74599929Y-120359063D01*
X72453500Y-120359063D01*
X72453500Y-118020134D01*
X73036245Y-117437389D01*
X74015519Y-117437389D01*
X74071200Y-117667984D01*
X74554007Y-117835995D01*
X75064357Y-117806456D01*
X75398658Y-117667984D01*
X75454339Y-117437389D01*
X74734929Y-116717978D01*
X74015519Y-117437389D01*
X73036245Y-117437389D01*
X73507554Y-116966080D01*
X73605318Y-117202102D01*
X73835913Y-117257783D01*
X74555324Y-116538373D01*
X74541181Y-116524231D01*
X74720787Y-116344625D01*
X74734929Y-116358768D01*
X75454339Y-115639357D01*
X75398658Y-115408762D01*
X75151040Y-115322594D01*
X75691569Y-114782064D01*
X79309929Y-114782064D01*
X79309929Y-115222623D01*
X79468679Y-115381373D01*
X80917929Y-115381373D01*
X80917929Y-114432123D01*
X81171929Y-114432123D01*
X81171929Y-115381373D01*
X82621179Y-115381373D01*
X82779929Y-115222623D01*
X82779929Y-114782064D01*
X82683256Y-114548675D01*
X82504628Y-114370046D01*
X82271239Y-114273373D01*
X81330679Y-114273373D01*
X81171929Y-114432123D01*
X80917929Y-114432123D01*
X80759179Y-114273373D01*
X79818619Y-114273373D01*
X79585230Y-114370046D01*
X79406602Y-114548675D01*
X79309929Y-114782064D01*
X75691569Y-114782064D01*
X84987300Y-105486333D01*
X85037208Y-105486376D01*
X85410766Y-105332025D01*
X85696821Y-105046469D01*
X85851824Y-104673182D01*
X85852176Y-104268992D01*
X85697825Y-103895434D01*
X85412269Y-103609379D01*
X85204813Y-103523235D01*
X85253616Y-103277884D01*
X85253616Y-74741836D01*
X103321701Y-56673750D01*
X108009000Y-56673750D01*
X108009000Y-57164310D01*
X108105673Y-57397699D01*
X108284302Y-57576327D01*
X108517691Y-57673000D01*
X109108250Y-57673000D01*
X109267000Y-57514250D01*
X109267000Y-56515000D01*
X108167750Y-56515000D01*
X108009000Y-56673750D01*
X103321701Y-56673750D01*
X103740986Y-56254465D01*
X105099035Y-56254465D01*
X105414941Y-56191628D01*
X105682752Y-56012682D01*
X106584489Y-55110944D01*
X106627330Y-55128733D01*
X107237991Y-55129265D01*
X107802371Y-54896068D01*
X108204323Y-54494818D01*
X108603357Y-54894551D01*
X108603357Y-54894551D01*
G37*
X108603357Y-54894551D02*
X109105358Y-55103000D01*
X108517691Y-55103000D01*
X108284302Y-55199673D01*
X108105673Y-55378301D01*
X108009000Y-55611690D01*
X108009000Y-56102250D01*
X108167750Y-56261000D01*
X109267000Y-56261000D01*
X109267000Y-56241000D01*
X109521000Y-56241000D01*
X109521000Y-56261000D01*
X109541000Y-56261000D01*
X109541000Y-56515000D01*
X109521000Y-56515000D01*
X109521000Y-57514250D01*
X109679750Y-57673000D01*
X110270309Y-57673000D01*
X110503698Y-57576327D01*
X110682327Y-57397699D01*
X110738654Y-57261713D01*
X110740838Y-57273317D01*
X110879910Y-57489441D01*
X111092110Y-57634431D01*
X111344000Y-57685440D01*
X112844000Y-57685440D01*
X113079317Y-57641162D01*
X113295441Y-57502090D01*
X113359820Y-57407869D01*
X113412310Y-57489441D01*
X113624510Y-57634431D01*
X113876400Y-57685440D01*
X115376400Y-57685440D01*
X115611717Y-57641162D01*
X115827841Y-57502090D01*
X115972831Y-57289890D01*
X115975481Y-57276803D01*
X116112310Y-57489441D01*
X116310400Y-57624790D01*
X116310400Y-92379061D01*
X91135725Y-117553737D01*
X91038373Y-117534372D01*
X91038368Y-117534373D01*
X90977955Y-117534373D01*
X91098256Y-117414071D01*
X91194929Y-117180682D01*
X91194929Y-116590123D01*
X91036179Y-116431373D01*
X90061929Y-116431373D01*
X90061929Y-116451373D01*
X89807929Y-116451373D01*
X89807929Y-116431373D01*
X89787929Y-116431373D01*
X89787929Y-116177373D01*
X89807929Y-116177373D01*
X89807929Y-115078123D01*
X90061929Y-115078123D01*
X90061929Y-116177373D01*
X91036179Y-116177373D01*
X91194929Y-116018623D01*
X91194929Y-115428064D01*
X91098256Y-115194675D01*
X90919628Y-115016046D01*
X90686239Y-114919373D01*
X90220679Y-114919373D01*
X90061929Y-115078123D01*
X89807929Y-115078123D01*
X89649179Y-114919373D01*
X89183619Y-114919373D01*
X88950230Y-115016046D01*
X88771602Y-115194675D01*
X88674929Y-115428064D01*
X88674929Y-115515312D01*
X88596819Y-115461942D01*
X88344929Y-115410933D01*
X86144929Y-115410933D01*
X85909612Y-115455211D01*
X85693488Y-115594283D01*
X85548498Y-115806483D01*
X85497489Y-116058373D01*
X85497489Y-116538373D01*
X82612954Y-116538373D01*
X82683256Y-116468071D01*
X82779929Y-116234682D01*
X82779929Y-115794123D01*
X82621179Y-115635373D01*
X81171929Y-115635373D01*
X81171929Y-115655373D01*
X80917929Y-115655373D01*
X80917929Y-115635373D01*
X79468679Y-115635373D01*
X79309929Y-115794123D01*
X79309929Y-116234682D01*
X79406602Y-116468071D01*
X79476904Y-116538373D01*
X79030980Y-116538373D01*
X78532369Y-116039761D01*
X78532369Y-115888373D01*
X78488091Y-115653056D01*
X78349019Y-115436932D01*
X78136819Y-115291942D01*
X77884929Y-115240933D01*
X76584929Y-115240933D01*
X76349612Y-115285211D01*
X76133488Y-115424283D01*
X75988498Y-115636483D01*
X75937489Y-115888373D01*
X75937489Y-116050758D01*
X75864540Y-115874644D01*
X75633945Y-115818963D01*
X74914534Y-116538373D01*
X75633945Y-117257783D01*
X75864540Y-117202102D01*
X75937489Y-116992471D01*
X75937489Y-117188373D01*
X75981767Y-117423690D01*
X76120839Y-117639814D01*
X76333039Y-117784804D01*
X76584929Y-117835813D01*
X76736317Y-117835813D01*
X77606901Y-118706396D01*
X77606903Y-118706399D01*
X78018921Y-118981700D01*
X78504929Y-119078373D01*
X78786416Y-119078373D01*
X78588903Y-119210347D01*
X77961317Y-119837933D01*
X77734929Y-119837933D01*
X77499612Y-119882211D01*
X77283488Y-120021283D01*
X77236960Y-120089379D01*
X77094627Y-119947046D01*
X76861238Y-119850373D01*
X76270679Y-119850373D01*
X76111929Y-120009123D01*
X76111929Y-120983373D01*
X76131929Y-120983373D01*
X76131929Y-121237373D01*
X76111929Y-121237373D01*
X76111929Y-122211623D01*
X76270679Y-122370373D01*
X76861238Y-122370373D01*
X77094627Y-122273700D01*
X77214929Y-122153399D01*
X77214929Y-130632096D01*
X76682755Y-130099921D01*
X76682776Y-130075392D01*
X76528425Y-129701834D01*
X76242869Y-129415779D01*
X75869582Y-129260776D01*
X75465392Y-129260424D01*
X75209232Y-129366267D01*
X75167162Y-129142683D01*
X75028090Y-128926559D01*
X74815890Y-128781569D01*
X74802803Y-128778919D01*
X75015441Y-128642090D01*
X75160431Y-128429890D01*
X75211440Y-128178000D01*
X75211440Y-126678000D01*
X75167162Y-126442683D01*
X75028090Y-126226559D01*
X74815890Y-126081569D01*
X74564000Y-126030560D01*
X73264000Y-126030560D01*
X73028683Y-126074838D01*
X72812559Y-126213910D01*
X72772076Y-126273159D01*
X72742090Y-126226559D01*
X72529890Y-126081569D01*
X72453500Y-126066100D01*
X72453500Y-121396123D01*
X74599929Y-121396123D01*
X74599929Y-121861683D01*
X74696602Y-122095072D01*
X74875231Y-122273700D01*
X75108620Y-122370373D01*
X75699179Y-122370373D01*
X75857929Y-122211623D01*
X75857929Y-121237373D01*
X74758679Y-121237373D01*
X74599929Y-121396123D01*
X72453500Y-121396123D01*
X72453500Y-120359063D01*
X74599929Y-120359063D01*
X74599929Y-120824623D01*
X74758679Y-120983373D01*
X75857929Y-120983373D01*
X75857929Y-120009123D01*
X75699179Y-119850373D01*
X75108620Y-119850373D01*
X74875231Y-119947046D01*
X74696602Y-120125674D01*
X74599929Y-120359063D01*
X72453500Y-120359063D01*
X72453500Y-118020134D01*
X73036245Y-117437389D01*
X74015519Y-117437389D01*
X74071200Y-117667984D01*
X74554007Y-117835995D01*
X75064357Y-117806456D01*
X75398658Y-117667984D01*
X75454339Y-117437389D01*
X74734929Y-116717978D01*
X74015519Y-117437389D01*
X73036245Y-117437389D01*
X73507554Y-116966080D01*
X73605318Y-117202102D01*
X73835913Y-117257783D01*
X74555324Y-116538373D01*
X74541181Y-116524231D01*
X74720787Y-116344625D01*
X74734929Y-116358768D01*
X75454339Y-115639357D01*
X75398658Y-115408762D01*
X75151040Y-115322594D01*
X75691569Y-114782064D01*
X79309929Y-114782064D01*
X79309929Y-115222623D01*
X79468679Y-115381373D01*
X80917929Y-115381373D01*
X80917929Y-114432123D01*
X81171929Y-114432123D01*
X81171929Y-115381373D01*
X82621179Y-115381373D01*
X82779929Y-115222623D01*
X82779929Y-114782064D01*
X82683256Y-114548675D01*
X82504628Y-114370046D01*
X82271239Y-114273373D01*
X81330679Y-114273373D01*
X81171929Y-114432123D01*
X80917929Y-114432123D01*
X80759179Y-114273373D01*
X79818619Y-114273373D01*
X79585230Y-114370046D01*
X79406602Y-114548675D01*
X79309929Y-114782064D01*
X75691569Y-114782064D01*
X84987300Y-105486333D01*
X85037208Y-105486376D01*
X85410766Y-105332025D01*
X85696821Y-105046469D01*
X85851824Y-104673182D01*
X85852176Y-104268992D01*
X85697825Y-103895434D01*
X85412269Y-103609379D01*
X85204813Y-103523235D01*
X85253616Y-103277884D01*
X85253616Y-74741836D01*
X103321701Y-56673750D01*
X108009000Y-56673750D01*
X108009000Y-57164310D01*
X108105673Y-57397699D01*
X108284302Y-57576327D01*
X108517691Y-57673000D01*
X109108250Y-57673000D01*
X109267000Y-57514250D01*
X109267000Y-56515000D01*
X108167750Y-56515000D01*
X108009000Y-56673750D01*
X103321701Y-56673750D01*
X103740986Y-56254465D01*
X105099035Y-56254465D01*
X105414941Y-56191628D01*
X105682752Y-56012682D01*
X106584489Y-55110944D01*
X106627330Y-55128733D01*
X107237991Y-55129265D01*
X107802371Y-54896068D01*
X108204323Y-54494818D01*
X108603357Y-54894551D01*
M02*
