M48
;DRILL file {KiCad 4.0.2+dfsg1-stable} date Thu 23 Aug 2018 11:31:03 AM EDT
;FORMAT={-:-/ absolute / inch / decimal}
FMAT,2
INCH,TZ
T1C0.012
T2C0.031
T3C0.035
T4C0.039
T5C0.104
T6C0.128
%
G90
G05
M72
T1
X2.649Y-4.958
X2.819Y-5.189
X2.942Y-5.182
X2.979Y-5.129
X3.0132Y-5.2533
X3.037Y-5.186
X3.253Y-4.025
X3.34Y-4.113
X3.366Y-5.343
X3.39Y-5.452
X3.46Y-5.19
X3.74Y-5.7
X3.98Y-4.9
X4.26Y-5.42
T2
X2.9423Y-4.5881
X3.0407Y-4.5881
T3
X2.59Y-5.567
X2.63Y-5.497
X2.67Y-5.567
X2.71Y-5.497
X2.75Y-5.567
X2.79Y-5.497
X2.83Y-5.567
X2.87Y-5.497
T4
X2.91Y-2.11
X3.01Y-2.11
X3.11Y-2.11
X3.21Y-2.11
X3.31Y-2.11
X3.41Y-2.11
X3.51Y-2.11
X3.5647Y-5.2016
X3.5647Y-5.3
X3.5647Y-5.3984
X3.61Y-2.11
X3.71Y-2.11
X3.81Y-2.11
X3.91Y-2.11
X4.01Y-2.11
X4.11Y-2.11
X4.1356Y-5.2016
X4.1356Y-5.3984
X4.21Y-2.11
X4.31Y-2.11
X4.41Y-2.11
X4.51Y-2.11
X4.61Y-2.11
X4.71Y-2.11
X4.81Y-2.11
T5
X3.86Y-5.0815
X3.86Y-5.5185
T6
X2.48Y-5.667
X2.98Y-5.667
T0
M30
