G04 #@! TF.FileFunction,Copper,L2,Bot,Signal*
%FSLAX46Y46*%
G04 Gerber Fmt 4.6, Leading zero omitted, Abs format (unit mm)*
G04 Created by KiCad (PCBNEW 4.0.2+dfsg1-stable) date Thu 23 Aug 2018 11:31:02 AM EDT*
%MOMM*%
G01*
G04 APERTURE LIST*
%ADD10C,0.100000*%
%ADD11C,1.300000*%
%ADD12R,1.300000X1.300000*%
%ADD13C,1.800000*%
%ADD14R,1.198880X1.198880*%
%ADD15C,1.900000*%
%ADD16C,3.500000*%
%ADD17C,3.251200*%
%ADD18C,1.524000*%
%ADD19C,0.762000*%
%ADD20C,0.381000*%
%ADD21C,0.762000*%
%ADD22C,0.254000*%
G04 APERTURE END LIST*
D10*
D11*
X74734929Y-116538373D03*
D12*
X77234929Y-116538373D03*
D13*
X122174000Y-53594000D03*
X119634000Y-53594000D03*
X117094000Y-53594000D03*
X114554000Y-53594000D03*
X112014000Y-53594000D03*
X109474000Y-53594000D03*
X106934000Y-53594000D03*
X104394000Y-53594000D03*
X101854000Y-53594000D03*
X99314000Y-53594000D03*
X96774000Y-53594000D03*
X94234000Y-53594000D03*
X91694000Y-53594000D03*
X89154000Y-53594000D03*
X86614000Y-53594000D03*
X84074000Y-53594000D03*
X81534000Y-53594000D03*
X78994000Y-53594000D03*
X76454000Y-53594000D03*
X73914000Y-53594000D03*
D14*
X87884000Y-133570980D03*
X87884000Y-135669020D03*
X96994980Y-144780000D03*
X99093020Y-144780000D03*
X108204000Y-133570980D03*
X108204000Y-135669020D03*
X99126040Y-124460000D03*
X97028000Y-124460000D03*
D15*
X105044000Y-132120000D03*
X105044000Y-137120000D03*
X90544000Y-132120000D03*
X90544000Y-134620000D03*
X90544000Y-137120000D03*
D16*
X98044000Y-140170000D03*
X98044000Y-129070000D03*
D17*
X75692000Y-143941800D03*
X62992000Y-143941800D03*
D18*
X71882000Y-141401800D03*
X69850000Y-141401800D03*
X67818000Y-141401800D03*
X65786000Y-141401800D03*
X72898000Y-139623800D03*
X70866000Y-139623800D03*
X68834000Y-139623800D03*
X66802000Y-139623800D03*
D19*
X85496400Y-135712200D03*
X86106000Y-138480800D03*
X71602600Y-131800600D03*
X67284600Y-125933200D03*
X77139800Y-131724400D03*
X75666600Y-130276600D03*
X76536205Y-133433924D03*
X74726800Y-131622800D03*
X84836000Y-104470200D03*
X82626200Y-102235000D03*
X87884000Y-131826000D03*
X94996000Y-144780000D03*
X108204000Y-137668000D03*
X101092000Y-124460000D03*
D20*
X85496400Y-135712200D02*
X87840820Y-135712200D01*
X87840820Y-135712200D02*
X87884000Y-135669020D01*
X98044000Y-140170000D02*
X87795200Y-140170000D01*
X87795200Y-140170000D02*
X86106000Y-138480800D01*
X87884000Y-135669020D02*
X86733380Y-135669020D01*
X77139800Y-131724400D02*
X76980902Y-131724400D01*
X76980902Y-131724400D02*
X70866000Y-137839302D01*
X70866000Y-137839302D02*
X70866000Y-139623800D01*
X105044000Y-132120000D02*
X93049149Y-132120000D01*
X93049149Y-132120000D02*
X91188404Y-130259255D01*
X91188404Y-130259255D02*
X75683945Y-130259255D01*
X75683945Y-130259255D02*
X75666600Y-130276600D01*
X89361000Y-130937000D02*
X89594001Y-131170001D01*
X69595999Y-137895423D02*
X76554422Y-130937000D01*
X69595999Y-138861801D02*
X69595999Y-137895423D01*
X89594001Y-131170001D02*
X90544000Y-132120000D01*
X76554422Y-130937000D02*
X89361000Y-130937000D01*
X68834000Y-139623800D02*
X69595999Y-138861801D01*
X76917204Y-133814923D02*
X76536205Y-133433924D01*
X80222281Y-137120000D02*
X76917204Y-133814923D01*
X90544000Y-137120000D02*
X80222281Y-137120000D01*
X74726800Y-131622800D02*
X66802000Y-139547600D01*
X66802000Y-139547600D02*
X66802000Y-139623800D01*
X90250000Y-137414000D02*
X90544000Y-137120000D01*
X82626200Y-102235000D02*
X82626200Y-102260400D01*
X82626200Y-102260400D02*
X84836000Y-104470200D01*
X87884000Y-131826000D02*
X87884000Y-133570980D01*
D21*
X94996000Y-144780000D02*
X96994980Y-144780000D01*
X109728000Y-136568264D02*
X109728000Y-133733540D01*
X109728000Y-133733540D02*
X109565440Y-133570980D01*
X109565440Y-133570980D02*
X108204000Y-133570980D01*
X108204000Y-137668000D02*
X108628264Y-137668000D01*
X108628264Y-137668000D02*
X109728000Y-136568264D01*
D20*
X101092000Y-124460000D02*
X99126040Y-124460000D01*
D22*
G36*
X134672000Y-146610000D02*
X61416000Y-146610000D01*
X61416000Y-145562812D01*
X61709801Y-145857126D01*
X62540366Y-146202007D01*
X63439688Y-146202792D01*
X64270854Y-145859361D01*
X64907326Y-145223999D01*
X65252207Y-144393434D01*
X65252210Y-144389488D01*
X73431008Y-144389488D01*
X73774439Y-145220654D01*
X74409801Y-145857126D01*
X75240366Y-146202007D01*
X76139688Y-146202792D01*
X76970854Y-145859361D01*
X77607326Y-145223999D01*
X77708141Y-144981208D01*
X93979824Y-144981208D01*
X94134175Y-145354766D01*
X94419731Y-145640821D01*
X94793018Y-145795824D01*
X95197208Y-145796176D01*
X95197634Y-145796000D01*
X95909005Y-145796000D01*
X95931450Y-145830881D01*
X96143650Y-145975871D01*
X96395540Y-146026880D01*
X97594420Y-146026880D01*
X97829737Y-145982602D01*
X98045861Y-145843530D01*
X98051456Y-145835341D01*
X98133882Y-145917767D01*
X98367271Y-146014440D01*
X98807270Y-146014440D01*
X98966020Y-145855690D01*
X98966020Y-144907000D01*
X99220020Y-144907000D01*
X99220020Y-145855690D01*
X99378770Y-146014440D01*
X99818769Y-146014440D01*
X100052158Y-145917767D01*
X100230787Y-145739139D01*
X100327460Y-145505750D01*
X100327460Y-145065750D01*
X100168710Y-144907000D01*
X99220020Y-144907000D01*
X98966020Y-144907000D01*
X98946020Y-144907000D01*
X98946020Y-144653000D01*
X98966020Y-144653000D01*
X98966020Y-143704310D01*
X99220020Y-143704310D01*
X99220020Y-144653000D01*
X100168710Y-144653000D01*
X100327460Y-144494250D01*
X100327460Y-144054250D01*
X100230787Y-143820861D01*
X100052158Y-143642233D01*
X99818769Y-143545560D01*
X99378770Y-143545560D01*
X99220020Y-143704310D01*
X98966020Y-143704310D01*
X98807270Y-143545560D01*
X98367271Y-143545560D01*
X98133882Y-143642233D01*
X98051669Y-143724445D01*
X97846310Y-143584129D01*
X97594420Y-143533120D01*
X96395540Y-143533120D01*
X96160223Y-143577398D01*
X95944099Y-143716470D01*
X95911623Y-143764000D01*
X94996887Y-143764000D01*
X94794792Y-143763824D01*
X94421234Y-143918175D01*
X94135179Y-144203731D01*
X93980176Y-144577018D01*
X93979824Y-144981208D01*
X77708141Y-144981208D01*
X77952207Y-144393434D01*
X77952992Y-143494112D01*
X77609561Y-142662946D01*
X76974199Y-142026474D01*
X76584191Y-141864528D01*
X96529077Y-141864528D01*
X96719364Y-142209271D01*
X97600591Y-142560956D01*
X98549323Y-142548641D01*
X99368636Y-142209271D01*
X99558923Y-141864528D01*
X98044000Y-140349605D01*
X96529077Y-141864528D01*
X76584191Y-141864528D01*
X76143634Y-141681593D01*
X75244312Y-141680808D01*
X74413146Y-142024239D01*
X73776674Y-142659601D01*
X73431793Y-143490166D01*
X73431008Y-144389488D01*
X65252210Y-144389488D01*
X65252992Y-143494112D01*
X64909561Y-142662946D01*
X64274199Y-142026474D01*
X63443634Y-141681593D01*
X62544312Y-141680808D01*
X61713146Y-142024239D01*
X61416000Y-142320867D01*
X61416000Y-141678461D01*
X64388758Y-141678461D01*
X64600990Y-142192103D01*
X64993630Y-142585429D01*
X65506900Y-142798557D01*
X66062661Y-142799042D01*
X66576303Y-142586810D01*
X66781457Y-142382013D01*
X67017392Y-142382013D01*
X67086857Y-142624197D01*
X67610302Y-142810944D01*
X68165368Y-142783162D01*
X68549143Y-142624197D01*
X68618608Y-142382013D01*
X67818000Y-141581405D01*
X67017392Y-142382013D01*
X66781457Y-142382013D01*
X66969629Y-142194170D01*
X67057399Y-141982796D01*
X67638395Y-141401800D01*
X67624253Y-141387658D01*
X67803858Y-141208053D01*
X67818000Y-141222195D01*
X67832143Y-141208053D01*
X68011748Y-141387658D01*
X67997605Y-141401800D01*
X68578440Y-141982635D01*
X68664990Y-142192103D01*
X69057630Y-142585429D01*
X69570900Y-142798557D01*
X70126661Y-142799042D01*
X70640303Y-142586810D01*
X70866049Y-142361458D01*
X71089630Y-142585429D01*
X71602900Y-142798557D01*
X72158661Y-142799042D01*
X72672303Y-142586810D01*
X73065629Y-142194170D01*
X73278757Y-141680900D01*
X73279242Y-141125139D01*
X73227252Y-140999312D01*
X73688303Y-140808810D01*
X74081629Y-140416170D01*
X74294757Y-139902900D01*
X74294910Y-139726591D01*
X95653044Y-139726591D01*
X95665359Y-140675323D01*
X96004729Y-141494636D01*
X96349472Y-141684923D01*
X97864395Y-140170000D01*
X98223605Y-140170000D01*
X99738528Y-141684923D01*
X100083271Y-141494636D01*
X100434956Y-140613409D01*
X100422641Y-139664677D01*
X100083271Y-138845364D01*
X99738528Y-138655077D01*
X98223605Y-140170000D01*
X97864395Y-140170000D01*
X96349472Y-138655077D01*
X96004729Y-138845364D01*
X95653044Y-139726591D01*
X74294910Y-139726591D01*
X74295242Y-139347139D01*
X74083010Y-138833497D01*
X73690370Y-138440171D01*
X73177100Y-138227043D01*
X72621339Y-138226558D01*
X72107697Y-138438790D01*
X71881951Y-138664142D01*
X71691500Y-138473359D01*
X71691500Y-138181236D01*
X75769130Y-134103605D01*
X75959936Y-134294745D01*
X76333223Y-134449748D01*
X76384640Y-134449793D01*
X79638562Y-137703714D01*
X79638564Y-137703717D01*
X79769730Y-137791359D01*
X79906376Y-137882663D01*
X80222281Y-137945501D01*
X80222286Y-137945500D01*
X89170117Y-137945500D01*
X89199519Y-138016657D01*
X89644997Y-138462914D01*
X90227341Y-138704724D01*
X90857893Y-138705275D01*
X91414056Y-138475472D01*
X96529077Y-138475472D01*
X98044000Y-139990395D01*
X99558923Y-138475472D01*
X99368636Y-138130729D01*
X98487409Y-137779044D01*
X97538677Y-137791359D01*
X96719364Y-138130729D01*
X96529077Y-138475472D01*
X91414056Y-138475472D01*
X91440657Y-138464481D01*
X91886914Y-138019003D01*
X92128724Y-137436659D01*
X92128726Y-137433893D01*
X103458725Y-137433893D01*
X103699519Y-138016657D01*
X104144997Y-138462914D01*
X104727341Y-138704724D01*
X105357893Y-138705275D01*
X105940657Y-138464481D01*
X106386914Y-138019003D01*
X106628724Y-137436659D01*
X106629275Y-136806107D01*
X106388481Y-136223343D01*
X105943003Y-135777086D01*
X105360659Y-135535276D01*
X104730107Y-135534725D01*
X104147343Y-135775519D01*
X103701086Y-136220997D01*
X103459276Y-136803341D01*
X103458725Y-137433893D01*
X92128726Y-137433893D01*
X92129275Y-136806107D01*
X91888481Y-136223343D01*
X91535529Y-135869774D01*
X91886914Y-135519003D01*
X92128724Y-134936659D01*
X92129275Y-134306107D01*
X91888481Y-133723343D01*
X91535529Y-133369774D01*
X91886914Y-133019003D01*
X92128724Y-132436659D01*
X92128785Y-132367070D01*
X92465432Y-132703717D01*
X92733244Y-132882663D01*
X93049149Y-132945501D01*
X93049154Y-132945500D01*
X103670117Y-132945500D01*
X103699519Y-133016657D01*
X104144997Y-133462914D01*
X104727341Y-133704724D01*
X105357893Y-133705275D01*
X105940657Y-133464481D01*
X106386914Y-133019003D01*
X106406622Y-132971540D01*
X106957120Y-132971540D01*
X106957120Y-134170420D01*
X107001398Y-134405737D01*
X107140470Y-134621861D01*
X107148659Y-134627456D01*
X107066233Y-134709882D01*
X106969560Y-134943271D01*
X106969560Y-135383270D01*
X107128310Y-135542020D01*
X108077000Y-135542020D01*
X108077000Y-135522020D01*
X108331000Y-135522020D01*
X108331000Y-135542020D01*
X108351000Y-135542020D01*
X108351000Y-135796020D01*
X108331000Y-135796020D01*
X108331000Y-135816020D01*
X108077000Y-135816020D01*
X108077000Y-135796020D01*
X107128310Y-135796020D01*
X106969560Y-135954770D01*
X106969560Y-136394769D01*
X107066233Y-136628158D01*
X107244861Y-136806787D01*
X107478250Y-136903460D01*
X107531779Y-136903460D01*
X107343179Y-137091731D01*
X107188176Y-137465018D01*
X107187824Y-137869208D01*
X107342175Y-138242766D01*
X107627731Y-138528821D01*
X108001018Y-138683824D01*
X108405208Y-138684176D01*
X108405634Y-138684000D01*
X108628264Y-138684000D01*
X108952564Y-138619493D01*
X109017071Y-138606662D01*
X109346684Y-138386420D01*
X110446421Y-137286684D01*
X110666662Y-136957071D01*
X110744000Y-136568264D01*
X110744000Y-133733540D01*
X110690481Y-133464481D01*
X110666662Y-133344733D01*
X110446421Y-133015120D01*
X110283860Y-132852560D01*
X109954247Y-132632318D01*
X109889740Y-132619487D01*
X109565440Y-132554980D01*
X109289975Y-132554980D01*
X109267530Y-132520099D01*
X109055330Y-132375109D01*
X108803440Y-132324100D01*
X107604560Y-132324100D01*
X107369243Y-132368378D01*
X107153119Y-132507450D01*
X107008129Y-132719650D01*
X106957120Y-132971540D01*
X106406622Y-132971540D01*
X106628724Y-132436659D01*
X106629275Y-131806107D01*
X106388481Y-131223343D01*
X105943003Y-130777086D01*
X105360659Y-130535276D01*
X104730107Y-130534725D01*
X104147343Y-130775519D01*
X103701086Y-131220997D01*
X103670565Y-131294500D01*
X98921453Y-131294500D01*
X99368636Y-131109271D01*
X99558923Y-130764528D01*
X98044000Y-129249605D01*
X96529077Y-130764528D01*
X96719364Y-131109271D01*
X97183498Y-131294500D01*
X93391083Y-131294500D01*
X91772121Y-129675538D01*
X91504310Y-129496592D01*
X91188404Y-129433755D01*
X76260814Y-129433755D01*
X76242869Y-129415779D01*
X75869582Y-129260776D01*
X75465392Y-129260424D01*
X75091834Y-129414775D01*
X74805779Y-129700331D01*
X74650776Y-130073618D01*
X74650424Y-130477808D01*
X74703714Y-130606779D01*
X74525592Y-130606624D01*
X74152034Y-130760975D01*
X73865979Y-131046531D01*
X73710976Y-131419818D01*
X73710931Y-131471236D01*
X66955233Y-138226933D01*
X66525339Y-138226558D01*
X66011697Y-138438790D01*
X65618371Y-138831430D01*
X65405243Y-139344700D01*
X65404758Y-139900461D01*
X65456748Y-140026288D01*
X64995697Y-140216790D01*
X64602371Y-140609430D01*
X64389243Y-141122700D01*
X64388758Y-141678461D01*
X61416000Y-141678461D01*
X61416000Y-128626591D01*
X95653044Y-128626591D01*
X95665359Y-129575323D01*
X96004729Y-130394636D01*
X96349472Y-130584923D01*
X97864395Y-129070000D01*
X98223605Y-129070000D01*
X99738528Y-130584923D01*
X100083271Y-130394636D01*
X100434956Y-129513409D01*
X100422641Y-128564677D01*
X100083271Y-127745364D01*
X99738528Y-127555077D01*
X98223605Y-129070000D01*
X97864395Y-129070000D01*
X96349472Y-127555077D01*
X96004729Y-127745364D01*
X95653044Y-128626591D01*
X61416000Y-128626591D01*
X61416000Y-127375472D01*
X96529077Y-127375472D01*
X98044000Y-128890395D01*
X99558923Y-127375472D01*
X99368636Y-127030729D01*
X98487409Y-126679044D01*
X97538677Y-126691359D01*
X96719364Y-127030729D01*
X96529077Y-127375472D01*
X61416000Y-127375472D01*
X61416000Y-124745750D01*
X95793560Y-124745750D01*
X95793560Y-125185750D01*
X95890233Y-125419139D01*
X96068862Y-125597767D01*
X96302251Y-125694440D01*
X96742250Y-125694440D01*
X96901000Y-125535690D01*
X96901000Y-124587000D01*
X95952310Y-124587000D01*
X95793560Y-124745750D01*
X61416000Y-124745750D01*
X61416000Y-123734250D01*
X95793560Y-123734250D01*
X95793560Y-124174250D01*
X95952310Y-124333000D01*
X96901000Y-124333000D01*
X96901000Y-123384310D01*
X97155000Y-123384310D01*
X97155000Y-124333000D01*
X97175000Y-124333000D01*
X97175000Y-124587000D01*
X97155000Y-124587000D01*
X97155000Y-125535690D01*
X97313750Y-125694440D01*
X97753749Y-125694440D01*
X97987138Y-125597767D01*
X98069351Y-125515555D01*
X98274710Y-125655871D01*
X98526600Y-125706880D01*
X99725480Y-125706880D01*
X99960797Y-125662602D01*
X100176921Y-125523530D01*
X100321911Y-125311330D01*
X100327142Y-125285500D01*
X100480472Y-125285500D01*
X100515731Y-125320821D01*
X100889018Y-125475824D01*
X101293208Y-125476176D01*
X101666766Y-125321825D01*
X101952821Y-125036269D01*
X102107824Y-124662982D01*
X102108176Y-124258792D01*
X101953825Y-123885234D01*
X101668269Y-123599179D01*
X101294982Y-123444176D01*
X100890792Y-123443824D01*
X100517234Y-123598175D01*
X100480846Y-123634500D01*
X100330384Y-123634500D01*
X100328642Y-123625243D01*
X100189570Y-123409119D01*
X99977370Y-123264129D01*
X99725480Y-123213120D01*
X98526600Y-123213120D01*
X98291283Y-123257398D01*
X98075159Y-123396470D01*
X98069564Y-123404659D01*
X97987138Y-123322233D01*
X97753749Y-123225560D01*
X97313750Y-123225560D01*
X97155000Y-123384310D01*
X96901000Y-123384310D01*
X96742250Y-123225560D01*
X96302251Y-123225560D01*
X96068862Y-123322233D01*
X95890233Y-123500861D01*
X95793560Y-123734250D01*
X61416000Y-123734250D01*
X61416000Y-117437389D01*
X74015519Y-117437389D01*
X74071200Y-117667984D01*
X74554007Y-117835995D01*
X75064357Y-117806456D01*
X75398658Y-117667984D01*
X75454339Y-117437389D01*
X74734929Y-116717978D01*
X74015519Y-117437389D01*
X61416000Y-117437389D01*
X61416000Y-116357451D01*
X73437307Y-116357451D01*
X73466846Y-116867801D01*
X73605318Y-117202102D01*
X73835913Y-117257783D01*
X74555324Y-116538373D01*
X74914534Y-116538373D01*
X75633945Y-117257783D01*
X75864540Y-117202102D01*
X75937489Y-116992471D01*
X75937489Y-117188373D01*
X75981767Y-117423690D01*
X76120839Y-117639814D01*
X76333039Y-117784804D01*
X76584929Y-117835813D01*
X77884929Y-117835813D01*
X78120246Y-117791535D01*
X78336370Y-117652463D01*
X78481360Y-117440263D01*
X78532369Y-117188373D01*
X78532369Y-115888373D01*
X78488091Y-115653056D01*
X78349019Y-115436932D01*
X78136819Y-115291942D01*
X77884929Y-115240933D01*
X76584929Y-115240933D01*
X76349612Y-115285211D01*
X76133488Y-115424283D01*
X75988498Y-115636483D01*
X75937489Y-115888373D01*
X75937489Y-116050758D01*
X75864540Y-115874644D01*
X75633945Y-115818963D01*
X74914534Y-116538373D01*
X74555324Y-116538373D01*
X73835913Y-115818963D01*
X73605318Y-115874644D01*
X73437307Y-116357451D01*
X61416000Y-116357451D01*
X61416000Y-115639357D01*
X74015519Y-115639357D01*
X74734929Y-116358768D01*
X75454339Y-115639357D01*
X75398658Y-115408762D01*
X74915851Y-115240751D01*
X74405501Y-115270290D01*
X74071200Y-115408762D01*
X74015519Y-115639357D01*
X61416000Y-115639357D01*
X61416000Y-102436208D01*
X81610024Y-102436208D01*
X81764375Y-102809766D01*
X82049931Y-103095821D01*
X82423218Y-103250824D01*
X82449213Y-103250847D01*
X83819867Y-104621501D01*
X83819824Y-104671408D01*
X83974175Y-105044966D01*
X84259731Y-105331021D01*
X84633018Y-105486024D01*
X85037208Y-105486376D01*
X85410766Y-105332025D01*
X85696821Y-105046469D01*
X85851824Y-104673182D01*
X85852176Y-104268992D01*
X85697825Y-103895434D01*
X85412269Y-103609379D01*
X85038982Y-103454376D01*
X84987565Y-103454331D01*
X83642310Y-102109076D01*
X83642376Y-102033792D01*
X83488025Y-101660234D01*
X83202469Y-101374179D01*
X82829182Y-101219176D01*
X82424992Y-101218824D01*
X82051434Y-101373175D01*
X81765379Y-101658731D01*
X81610376Y-102032018D01*
X81610024Y-102436208D01*
X61416000Y-102436208D01*
X61416000Y-54674159D01*
X73013446Y-54674159D01*
X73099852Y-54930643D01*
X73673336Y-55140458D01*
X74283460Y-55114839D01*
X74728148Y-54930643D01*
X74814554Y-54674159D01*
X73914000Y-53773605D01*
X73013446Y-54674159D01*
X61416000Y-54674159D01*
X61416000Y-53353336D01*
X72367542Y-53353336D01*
X72393161Y-53963460D01*
X72577357Y-54408148D01*
X72833841Y-54494554D01*
X73734395Y-53594000D01*
X74093605Y-53594000D01*
X74994159Y-54494554D01*
X75144327Y-54443965D01*
X75151932Y-54462371D01*
X75583357Y-54894551D01*
X76147330Y-55128733D01*
X76757991Y-55129265D01*
X77322371Y-54896068D01*
X77724323Y-54494818D01*
X78123357Y-54894551D01*
X78687330Y-55128733D01*
X79297991Y-55129265D01*
X79862371Y-54896068D01*
X80264323Y-54494818D01*
X80663357Y-54894551D01*
X81227330Y-55128733D01*
X81837991Y-55129265D01*
X82402371Y-54896068D01*
X82804323Y-54494818D01*
X83203357Y-54894551D01*
X83767330Y-55128733D01*
X84377991Y-55129265D01*
X84942371Y-54896068D01*
X85344323Y-54494818D01*
X85743357Y-54894551D01*
X86307330Y-55128733D01*
X86917991Y-55129265D01*
X87482371Y-54896068D01*
X87884323Y-54494818D01*
X88283357Y-54894551D01*
X88847330Y-55128733D01*
X89457991Y-55129265D01*
X90022371Y-54896068D01*
X90424323Y-54494818D01*
X90823357Y-54894551D01*
X91387330Y-55128733D01*
X91997991Y-55129265D01*
X92562371Y-54896068D01*
X92964323Y-54494818D01*
X93363357Y-54894551D01*
X93927330Y-55128733D01*
X94537991Y-55129265D01*
X95102371Y-54896068D01*
X95504323Y-54494818D01*
X95903357Y-54894551D01*
X96467330Y-55128733D01*
X97077991Y-55129265D01*
X97642371Y-54896068D01*
X98044323Y-54494818D01*
X98443357Y-54894551D01*
X99007330Y-55128733D01*
X99617991Y-55129265D01*
X100182371Y-54896068D01*
X100584323Y-54494818D01*
X100983357Y-54894551D01*
X101547330Y-55128733D01*
X102157991Y-55129265D01*
X102722371Y-54896068D01*
X103124323Y-54494818D01*
X103523357Y-54894551D01*
X104087330Y-55128733D01*
X104697991Y-55129265D01*
X105262371Y-54896068D01*
X105664323Y-54494818D01*
X106063357Y-54894551D01*
X106627330Y-55128733D01*
X107237991Y-55129265D01*
X107802371Y-54896068D01*
X108204323Y-54494818D01*
X108603357Y-54894551D01*
X109167330Y-55128733D01*
X109777991Y-55129265D01*
X110342371Y-54896068D01*
X110744323Y-54494818D01*
X111143357Y-54894551D01*
X111707330Y-55128733D01*
X112317991Y-55129265D01*
X112882371Y-54896068D01*
X113284323Y-54494818D01*
X113683357Y-54894551D01*
X114247330Y-55128733D01*
X114857991Y-55129265D01*
X115422371Y-54896068D01*
X115824323Y-54494818D01*
X116223357Y-54894551D01*
X116787330Y-55128733D01*
X117397991Y-55129265D01*
X117962371Y-54896068D01*
X118364323Y-54494818D01*
X118763357Y-54894551D01*
X119327330Y-55128733D01*
X119937991Y-55129265D01*
X120502371Y-54896068D01*
X120724668Y-54674159D01*
X121273446Y-54674159D01*
X121359852Y-54930643D01*
X121933336Y-55140458D01*
X122543460Y-55114839D01*
X122988148Y-54930643D01*
X123074554Y-54674159D01*
X122174000Y-53773605D01*
X121273446Y-54674159D01*
X120724668Y-54674159D01*
X120934551Y-54464643D01*
X120943203Y-54443806D01*
X121093841Y-54494554D01*
X121994395Y-53594000D01*
X122353605Y-53594000D01*
X123254159Y-54494554D01*
X123510643Y-54408148D01*
X123720458Y-53834664D01*
X123694839Y-53224540D01*
X123510643Y-52779852D01*
X123254159Y-52693446D01*
X122353605Y-53594000D01*
X121994395Y-53594000D01*
X121093841Y-52693446D01*
X120943673Y-52744035D01*
X120936068Y-52725629D01*
X120724650Y-52513841D01*
X121273446Y-52513841D01*
X122174000Y-53414395D01*
X123074554Y-52513841D01*
X122988148Y-52257357D01*
X122414664Y-52047542D01*
X121804540Y-52073161D01*
X121359852Y-52257357D01*
X121273446Y-52513841D01*
X120724650Y-52513841D01*
X120504643Y-52293449D01*
X119940670Y-52059267D01*
X119330009Y-52058735D01*
X118765629Y-52291932D01*
X118363677Y-52693182D01*
X117964643Y-52293449D01*
X117400670Y-52059267D01*
X116790009Y-52058735D01*
X116225629Y-52291932D01*
X115823677Y-52693182D01*
X115424643Y-52293449D01*
X114860670Y-52059267D01*
X114250009Y-52058735D01*
X113685629Y-52291932D01*
X113283677Y-52693182D01*
X112884643Y-52293449D01*
X112320670Y-52059267D01*
X111710009Y-52058735D01*
X111145629Y-52291932D01*
X110743677Y-52693182D01*
X110344643Y-52293449D01*
X109780670Y-52059267D01*
X109170009Y-52058735D01*
X108605629Y-52291932D01*
X108203677Y-52693182D01*
X107804643Y-52293449D01*
X107240670Y-52059267D01*
X106630009Y-52058735D01*
X106065629Y-52291932D01*
X105663677Y-52693182D01*
X105264643Y-52293449D01*
X104700670Y-52059267D01*
X104090009Y-52058735D01*
X103525629Y-52291932D01*
X103123677Y-52693182D01*
X102724643Y-52293449D01*
X102160670Y-52059267D01*
X101550009Y-52058735D01*
X100985629Y-52291932D01*
X100583677Y-52693182D01*
X100184643Y-52293449D01*
X99620670Y-52059267D01*
X99010009Y-52058735D01*
X98445629Y-52291932D01*
X98043677Y-52693182D01*
X97644643Y-52293449D01*
X97080670Y-52059267D01*
X96470009Y-52058735D01*
X95905629Y-52291932D01*
X95503677Y-52693182D01*
X95104643Y-52293449D01*
X94540670Y-52059267D01*
X93930009Y-52058735D01*
X93365629Y-52291932D01*
X92963677Y-52693182D01*
X92564643Y-52293449D01*
X92000670Y-52059267D01*
X91390009Y-52058735D01*
X90825629Y-52291932D01*
X90423677Y-52693182D01*
X90024643Y-52293449D01*
X89460670Y-52059267D01*
X88850009Y-52058735D01*
X88285629Y-52291932D01*
X87883677Y-52693182D01*
X87484643Y-52293449D01*
X86920670Y-52059267D01*
X86310009Y-52058735D01*
X85745629Y-52291932D01*
X85343677Y-52693182D01*
X84944643Y-52293449D01*
X84380670Y-52059267D01*
X83770009Y-52058735D01*
X83205629Y-52291932D01*
X82803677Y-52693182D01*
X82404643Y-52293449D01*
X81840670Y-52059267D01*
X81230009Y-52058735D01*
X80665629Y-52291932D01*
X80263677Y-52693182D01*
X79864643Y-52293449D01*
X79300670Y-52059267D01*
X78690009Y-52058735D01*
X78125629Y-52291932D01*
X77723677Y-52693182D01*
X77324643Y-52293449D01*
X76760670Y-52059267D01*
X76150009Y-52058735D01*
X75585629Y-52291932D01*
X75153449Y-52723357D01*
X75144797Y-52744194D01*
X74994159Y-52693446D01*
X74093605Y-53594000D01*
X73734395Y-53594000D01*
X72833841Y-52693446D01*
X72577357Y-52779852D01*
X72367542Y-53353336D01*
X61416000Y-53353336D01*
X61416000Y-52513841D01*
X73013446Y-52513841D01*
X73914000Y-53414395D01*
X74814554Y-52513841D01*
X74728148Y-52257357D01*
X74154664Y-52047542D01*
X73544540Y-52073161D01*
X73099852Y-52257357D01*
X73013446Y-52513841D01*
X61416000Y-52513841D01*
X61416000Y-51002000D01*
X134672000Y-51002000D01*
X134672000Y-146610000D01*
X134672000Y-146610000D01*
G37*
X134672000Y-146610000D02*
X61416000Y-146610000D01*
X61416000Y-145562812D01*
X61709801Y-145857126D01*
X62540366Y-146202007D01*
X63439688Y-146202792D01*
X64270854Y-145859361D01*
X64907326Y-145223999D01*
X65252207Y-144393434D01*
X65252210Y-144389488D01*
X73431008Y-144389488D01*
X73774439Y-145220654D01*
X74409801Y-145857126D01*
X75240366Y-146202007D01*
X76139688Y-146202792D01*
X76970854Y-145859361D01*
X77607326Y-145223999D01*
X77708141Y-144981208D01*
X93979824Y-144981208D01*
X94134175Y-145354766D01*
X94419731Y-145640821D01*
X94793018Y-145795824D01*
X95197208Y-145796176D01*
X95197634Y-145796000D01*
X95909005Y-145796000D01*
X95931450Y-145830881D01*
X96143650Y-145975871D01*
X96395540Y-146026880D01*
X97594420Y-146026880D01*
X97829737Y-145982602D01*
X98045861Y-145843530D01*
X98051456Y-145835341D01*
X98133882Y-145917767D01*
X98367271Y-146014440D01*
X98807270Y-146014440D01*
X98966020Y-145855690D01*
X98966020Y-144907000D01*
X99220020Y-144907000D01*
X99220020Y-145855690D01*
X99378770Y-146014440D01*
X99818769Y-146014440D01*
X100052158Y-145917767D01*
X100230787Y-145739139D01*
X100327460Y-145505750D01*
X100327460Y-145065750D01*
X100168710Y-144907000D01*
X99220020Y-144907000D01*
X98966020Y-144907000D01*
X98946020Y-144907000D01*
X98946020Y-144653000D01*
X98966020Y-144653000D01*
X98966020Y-143704310D01*
X99220020Y-143704310D01*
X99220020Y-144653000D01*
X100168710Y-144653000D01*
X100327460Y-144494250D01*
X100327460Y-144054250D01*
X100230787Y-143820861D01*
X100052158Y-143642233D01*
X99818769Y-143545560D01*
X99378770Y-143545560D01*
X99220020Y-143704310D01*
X98966020Y-143704310D01*
X98807270Y-143545560D01*
X98367271Y-143545560D01*
X98133882Y-143642233D01*
X98051669Y-143724445D01*
X97846310Y-143584129D01*
X97594420Y-143533120D01*
X96395540Y-143533120D01*
X96160223Y-143577398D01*
X95944099Y-143716470D01*
X95911623Y-143764000D01*
X94996887Y-143764000D01*
X94794792Y-143763824D01*
X94421234Y-143918175D01*
X94135179Y-144203731D01*
X93980176Y-144577018D01*
X93979824Y-144981208D01*
X77708141Y-144981208D01*
X77952207Y-144393434D01*
X77952992Y-143494112D01*
X77609561Y-142662946D01*
X76974199Y-142026474D01*
X76584191Y-141864528D01*
X96529077Y-141864528D01*
X96719364Y-142209271D01*
X97600591Y-142560956D01*
X98549323Y-142548641D01*
X99368636Y-142209271D01*
X99558923Y-141864528D01*
X98044000Y-140349605D01*
X96529077Y-141864528D01*
X76584191Y-141864528D01*
X76143634Y-141681593D01*
X75244312Y-141680808D01*
X74413146Y-142024239D01*
X73776674Y-142659601D01*
X73431793Y-143490166D01*
X73431008Y-144389488D01*
X65252210Y-144389488D01*
X65252992Y-143494112D01*
X64909561Y-142662946D01*
X64274199Y-142026474D01*
X63443634Y-141681593D01*
X62544312Y-141680808D01*
X61713146Y-142024239D01*
X61416000Y-142320867D01*
X61416000Y-141678461D01*
X64388758Y-141678461D01*
X64600990Y-142192103D01*
X64993630Y-142585429D01*
X65506900Y-142798557D01*
X66062661Y-142799042D01*
X66576303Y-142586810D01*
X66781457Y-142382013D01*
X67017392Y-142382013D01*
X67086857Y-142624197D01*
X67610302Y-142810944D01*
X68165368Y-142783162D01*
X68549143Y-142624197D01*
X68618608Y-142382013D01*
X67818000Y-141581405D01*
X67017392Y-142382013D01*
X66781457Y-142382013D01*
X66969629Y-142194170D01*
X67057399Y-141982796D01*
X67638395Y-141401800D01*
X67624253Y-141387658D01*
X67803858Y-141208053D01*
X67818000Y-141222195D01*
X67832143Y-141208053D01*
X68011748Y-141387658D01*
X67997605Y-141401800D01*
X68578440Y-141982635D01*
X68664990Y-142192103D01*
X69057630Y-142585429D01*
X69570900Y-142798557D01*
X70126661Y-142799042D01*
X70640303Y-142586810D01*
X70866049Y-142361458D01*
X71089630Y-142585429D01*
X71602900Y-142798557D01*
X72158661Y-142799042D01*
X72672303Y-142586810D01*
X73065629Y-142194170D01*
X73278757Y-141680900D01*
X73279242Y-141125139D01*
X73227252Y-140999312D01*
X73688303Y-140808810D01*
X74081629Y-140416170D01*
X74294757Y-139902900D01*
X74294910Y-139726591D01*
X95653044Y-139726591D01*
X95665359Y-140675323D01*
X96004729Y-141494636D01*
X96349472Y-141684923D01*
X97864395Y-140170000D01*
X98223605Y-140170000D01*
X99738528Y-141684923D01*
X100083271Y-141494636D01*
X100434956Y-140613409D01*
X100422641Y-139664677D01*
X100083271Y-138845364D01*
X99738528Y-138655077D01*
X98223605Y-140170000D01*
X97864395Y-140170000D01*
X96349472Y-138655077D01*
X96004729Y-138845364D01*
X95653044Y-139726591D01*
X74294910Y-139726591D01*
X74295242Y-139347139D01*
X74083010Y-138833497D01*
X73690370Y-138440171D01*
X73177100Y-138227043D01*
X72621339Y-138226558D01*
X72107697Y-138438790D01*
X71881951Y-138664142D01*
X71691500Y-138473359D01*
X71691500Y-138181236D01*
X75769130Y-134103605D01*
X75959936Y-134294745D01*
X76333223Y-134449748D01*
X76384640Y-134449793D01*
X79638562Y-137703714D01*
X79638564Y-137703717D01*
X79769730Y-137791359D01*
X79906376Y-137882663D01*
X80222281Y-137945501D01*
X80222286Y-137945500D01*
X89170117Y-137945500D01*
X89199519Y-138016657D01*
X89644997Y-138462914D01*
X90227341Y-138704724D01*
X90857893Y-138705275D01*
X91414056Y-138475472D01*
X96529077Y-138475472D01*
X98044000Y-139990395D01*
X99558923Y-138475472D01*
X99368636Y-138130729D01*
X98487409Y-137779044D01*
X97538677Y-137791359D01*
X96719364Y-138130729D01*
X96529077Y-138475472D01*
X91414056Y-138475472D01*
X91440657Y-138464481D01*
X91886914Y-138019003D01*
X92128724Y-137436659D01*
X92128726Y-137433893D01*
X103458725Y-137433893D01*
X103699519Y-138016657D01*
X104144997Y-138462914D01*
X104727341Y-138704724D01*
X105357893Y-138705275D01*
X105940657Y-138464481D01*
X106386914Y-138019003D01*
X106628724Y-137436659D01*
X106629275Y-136806107D01*
X106388481Y-136223343D01*
X105943003Y-135777086D01*
X105360659Y-135535276D01*
X104730107Y-135534725D01*
X104147343Y-135775519D01*
X103701086Y-136220997D01*
X103459276Y-136803341D01*
X103458725Y-137433893D01*
X92128726Y-137433893D01*
X92129275Y-136806107D01*
X91888481Y-136223343D01*
X91535529Y-135869774D01*
X91886914Y-135519003D01*
X92128724Y-134936659D01*
X92129275Y-134306107D01*
X91888481Y-133723343D01*
X91535529Y-133369774D01*
X91886914Y-133019003D01*
X92128724Y-132436659D01*
X92128785Y-132367070D01*
X92465432Y-132703717D01*
X92733244Y-132882663D01*
X93049149Y-132945501D01*
X93049154Y-132945500D01*
X103670117Y-132945500D01*
X103699519Y-133016657D01*
X104144997Y-133462914D01*
X104727341Y-133704724D01*
X105357893Y-133705275D01*
X105940657Y-133464481D01*
X106386914Y-133019003D01*
X106406622Y-132971540D01*
X106957120Y-132971540D01*
X106957120Y-134170420D01*
X107001398Y-134405737D01*
X107140470Y-134621861D01*
X107148659Y-134627456D01*
X107066233Y-134709882D01*
X106969560Y-134943271D01*
X106969560Y-135383270D01*
X107128310Y-135542020D01*
X108077000Y-135542020D01*
X108077000Y-135522020D01*
X108331000Y-135522020D01*
X108331000Y-135542020D01*
X108351000Y-135542020D01*
X108351000Y-135796020D01*
X108331000Y-135796020D01*
X108331000Y-135816020D01*
X108077000Y-135816020D01*
X108077000Y-135796020D01*
X107128310Y-135796020D01*
X106969560Y-135954770D01*
X106969560Y-136394769D01*
X107066233Y-136628158D01*
X107244861Y-136806787D01*
X107478250Y-136903460D01*
X107531779Y-136903460D01*
X107343179Y-137091731D01*
X107188176Y-137465018D01*
X107187824Y-137869208D01*
X107342175Y-138242766D01*
X107627731Y-138528821D01*
X108001018Y-138683824D01*
X108405208Y-138684176D01*
X108405634Y-138684000D01*
X108628264Y-138684000D01*
X108952564Y-138619493D01*
X109017071Y-138606662D01*
X109346684Y-138386420D01*
X110446421Y-137286684D01*
X110666662Y-136957071D01*
X110744000Y-136568264D01*
X110744000Y-133733540D01*
X110690481Y-133464481D01*
X110666662Y-133344733D01*
X110446421Y-133015120D01*
X110283860Y-132852560D01*
X109954247Y-132632318D01*
X109889740Y-132619487D01*
X109565440Y-132554980D01*
X109289975Y-132554980D01*
X109267530Y-132520099D01*
X109055330Y-132375109D01*
X108803440Y-132324100D01*
X107604560Y-132324100D01*
X107369243Y-132368378D01*
X107153119Y-132507450D01*
X107008129Y-132719650D01*
X106957120Y-132971540D01*
X106406622Y-132971540D01*
X106628724Y-132436659D01*
X106629275Y-131806107D01*
X106388481Y-131223343D01*
X105943003Y-130777086D01*
X105360659Y-130535276D01*
X104730107Y-130534725D01*
X104147343Y-130775519D01*
X103701086Y-131220997D01*
X103670565Y-131294500D01*
X98921453Y-131294500D01*
X99368636Y-131109271D01*
X99558923Y-130764528D01*
X98044000Y-129249605D01*
X96529077Y-130764528D01*
X96719364Y-131109271D01*
X97183498Y-131294500D01*
X93391083Y-131294500D01*
X91772121Y-129675538D01*
X91504310Y-129496592D01*
X91188404Y-129433755D01*
X76260814Y-129433755D01*
X76242869Y-129415779D01*
X75869582Y-129260776D01*
X75465392Y-129260424D01*
X75091834Y-129414775D01*
X74805779Y-129700331D01*
X74650776Y-130073618D01*
X74650424Y-130477808D01*
X74703714Y-130606779D01*
X74525592Y-130606624D01*
X74152034Y-130760975D01*
X73865979Y-131046531D01*
X73710976Y-131419818D01*
X73710931Y-131471236D01*
X66955233Y-138226933D01*
X66525339Y-138226558D01*
X66011697Y-138438790D01*
X65618371Y-138831430D01*
X65405243Y-139344700D01*
X65404758Y-139900461D01*
X65456748Y-140026288D01*
X64995697Y-140216790D01*
X64602371Y-140609430D01*
X64389243Y-141122700D01*
X64388758Y-141678461D01*
X61416000Y-141678461D01*
X61416000Y-128626591D01*
X95653044Y-128626591D01*
X95665359Y-129575323D01*
X96004729Y-130394636D01*
X96349472Y-130584923D01*
X97864395Y-129070000D01*
X98223605Y-129070000D01*
X99738528Y-130584923D01*
X100083271Y-130394636D01*
X100434956Y-129513409D01*
X100422641Y-128564677D01*
X100083271Y-127745364D01*
X99738528Y-127555077D01*
X98223605Y-129070000D01*
X97864395Y-129070000D01*
X96349472Y-127555077D01*
X96004729Y-127745364D01*
X95653044Y-128626591D01*
X61416000Y-128626591D01*
X61416000Y-127375472D01*
X96529077Y-127375472D01*
X98044000Y-128890395D01*
X99558923Y-127375472D01*
X99368636Y-127030729D01*
X98487409Y-126679044D01*
X97538677Y-126691359D01*
X96719364Y-127030729D01*
X96529077Y-127375472D01*
X61416000Y-127375472D01*
X61416000Y-124745750D01*
X95793560Y-124745750D01*
X95793560Y-125185750D01*
X95890233Y-125419139D01*
X96068862Y-125597767D01*
X96302251Y-125694440D01*
X96742250Y-125694440D01*
X96901000Y-125535690D01*
X96901000Y-124587000D01*
X95952310Y-124587000D01*
X95793560Y-124745750D01*
X61416000Y-124745750D01*
X61416000Y-123734250D01*
X95793560Y-123734250D01*
X95793560Y-124174250D01*
X95952310Y-124333000D01*
X96901000Y-124333000D01*
X96901000Y-123384310D01*
X97155000Y-123384310D01*
X97155000Y-124333000D01*
X97175000Y-124333000D01*
X97175000Y-124587000D01*
X97155000Y-124587000D01*
X97155000Y-125535690D01*
X97313750Y-125694440D01*
X97753749Y-125694440D01*
X97987138Y-125597767D01*
X98069351Y-125515555D01*
X98274710Y-125655871D01*
X98526600Y-125706880D01*
X99725480Y-125706880D01*
X99960797Y-125662602D01*
X100176921Y-125523530D01*
X100321911Y-125311330D01*
X100327142Y-125285500D01*
X100480472Y-125285500D01*
X100515731Y-125320821D01*
X100889018Y-125475824D01*
X101293208Y-125476176D01*
X101666766Y-125321825D01*
X101952821Y-125036269D01*
X102107824Y-124662982D01*
X102108176Y-124258792D01*
X101953825Y-123885234D01*
X101668269Y-123599179D01*
X101294982Y-123444176D01*
X100890792Y-123443824D01*
X100517234Y-123598175D01*
X100480846Y-123634500D01*
X100330384Y-123634500D01*
X100328642Y-123625243D01*
X100189570Y-123409119D01*
X99977370Y-123264129D01*
X99725480Y-123213120D01*
X98526600Y-123213120D01*
X98291283Y-123257398D01*
X98075159Y-123396470D01*
X98069564Y-123404659D01*
X97987138Y-123322233D01*
X97753749Y-123225560D01*
X97313750Y-123225560D01*
X97155000Y-123384310D01*
X96901000Y-123384310D01*
X96742250Y-123225560D01*
X96302251Y-123225560D01*
X96068862Y-123322233D01*
X95890233Y-123500861D01*
X95793560Y-123734250D01*
X61416000Y-123734250D01*
X61416000Y-117437389D01*
X74015519Y-117437389D01*
X74071200Y-117667984D01*
X74554007Y-117835995D01*
X75064357Y-117806456D01*
X75398658Y-117667984D01*
X75454339Y-117437389D01*
X74734929Y-116717978D01*
X74015519Y-117437389D01*
X61416000Y-117437389D01*
X61416000Y-116357451D01*
X73437307Y-116357451D01*
X73466846Y-116867801D01*
X73605318Y-117202102D01*
X73835913Y-117257783D01*
X74555324Y-116538373D01*
X74914534Y-116538373D01*
X75633945Y-117257783D01*
X75864540Y-117202102D01*
X75937489Y-116992471D01*
X75937489Y-117188373D01*
X75981767Y-117423690D01*
X76120839Y-117639814D01*
X76333039Y-117784804D01*
X76584929Y-117835813D01*
X77884929Y-117835813D01*
X78120246Y-117791535D01*
X78336370Y-117652463D01*
X78481360Y-117440263D01*
X78532369Y-117188373D01*
X78532369Y-115888373D01*
X78488091Y-115653056D01*
X78349019Y-115436932D01*
X78136819Y-115291942D01*
X77884929Y-115240933D01*
X76584929Y-115240933D01*
X76349612Y-115285211D01*
X76133488Y-115424283D01*
X75988498Y-115636483D01*
X75937489Y-115888373D01*
X75937489Y-116050758D01*
X75864540Y-115874644D01*
X75633945Y-115818963D01*
X74914534Y-116538373D01*
X74555324Y-116538373D01*
X73835913Y-115818963D01*
X73605318Y-115874644D01*
X73437307Y-116357451D01*
X61416000Y-116357451D01*
X61416000Y-115639357D01*
X74015519Y-115639357D01*
X74734929Y-116358768D01*
X75454339Y-115639357D01*
X75398658Y-115408762D01*
X74915851Y-115240751D01*
X74405501Y-115270290D01*
X74071200Y-115408762D01*
X74015519Y-115639357D01*
X61416000Y-115639357D01*
X61416000Y-102436208D01*
X81610024Y-102436208D01*
X81764375Y-102809766D01*
X82049931Y-103095821D01*
X82423218Y-103250824D01*
X82449213Y-103250847D01*
X83819867Y-104621501D01*
X83819824Y-104671408D01*
X83974175Y-105044966D01*
X84259731Y-105331021D01*
X84633018Y-105486024D01*
X85037208Y-105486376D01*
X85410766Y-105332025D01*
X85696821Y-105046469D01*
X85851824Y-104673182D01*
X85852176Y-104268992D01*
X85697825Y-103895434D01*
X85412269Y-103609379D01*
X85038982Y-103454376D01*
X84987565Y-103454331D01*
X83642310Y-102109076D01*
X83642376Y-102033792D01*
X83488025Y-101660234D01*
X83202469Y-101374179D01*
X82829182Y-101219176D01*
X82424992Y-101218824D01*
X82051434Y-101373175D01*
X81765379Y-101658731D01*
X81610376Y-102032018D01*
X81610024Y-102436208D01*
X61416000Y-102436208D01*
X61416000Y-54674159D01*
X73013446Y-54674159D01*
X73099852Y-54930643D01*
X73673336Y-55140458D01*
X74283460Y-55114839D01*
X74728148Y-54930643D01*
X74814554Y-54674159D01*
X73914000Y-53773605D01*
X73013446Y-54674159D01*
X61416000Y-54674159D01*
X61416000Y-53353336D01*
X72367542Y-53353336D01*
X72393161Y-53963460D01*
X72577357Y-54408148D01*
X72833841Y-54494554D01*
X73734395Y-53594000D01*
X74093605Y-53594000D01*
X74994159Y-54494554D01*
X75144327Y-54443965D01*
X75151932Y-54462371D01*
X75583357Y-54894551D01*
X76147330Y-55128733D01*
X76757991Y-55129265D01*
X77322371Y-54896068D01*
X77724323Y-54494818D01*
X78123357Y-54894551D01*
X78687330Y-55128733D01*
X79297991Y-55129265D01*
X79862371Y-54896068D01*
X80264323Y-54494818D01*
X80663357Y-54894551D01*
X81227330Y-55128733D01*
X81837991Y-55129265D01*
X82402371Y-54896068D01*
X82804323Y-54494818D01*
X83203357Y-54894551D01*
X83767330Y-55128733D01*
X84377991Y-55129265D01*
X84942371Y-54896068D01*
X85344323Y-54494818D01*
X85743357Y-54894551D01*
X86307330Y-55128733D01*
X86917991Y-55129265D01*
X87482371Y-54896068D01*
X87884323Y-54494818D01*
X88283357Y-54894551D01*
X88847330Y-55128733D01*
X89457991Y-55129265D01*
X90022371Y-54896068D01*
X90424323Y-54494818D01*
X90823357Y-54894551D01*
X91387330Y-55128733D01*
X91997991Y-55129265D01*
X92562371Y-54896068D01*
X92964323Y-54494818D01*
X93363357Y-54894551D01*
X93927330Y-55128733D01*
X94537991Y-55129265D01*
X95102371Y-54896068D01*
X95504323Y-54494818D01*
X95903357Y-54894551D01*
X96467330Y-55128733D01*
X97077991Y-55129265D01*
X97642371Y-54896068D01*
X98044323Y-54494818D01*
X98443357Y-54894551D01*
X99007330Y-55128733D01*
X99617991Y-55129265D01*
X100182371Y-54896068D01*
X100584323Y-54494818D01*
X100983357Y-54894551D01*
X101547330Y-55128733D01*
X102157991Y-55129265D01*
X102722371Y-54896068D01*
X103124323Y-54494818D01*
X103523357Y-54894551D01*
X104087330Y-55128733D01*
X104697991Y-55129265D01*
X105262371Y-54896068D01*
X105664323Y-54494818D01*
X106063357Y-54894551D01*
X106627330Y-55128733D01*
X107237991Y-55129265D01*
X107802371Y-54896068D01*
X108204323Y-54494818D01*
X108603357Y-54894551D01*
X109167330Y-55128733D01*
X109777991Y-55129265D01*
X110342371Y-54896068D01*
X110744323Y-54494818D01*
X111143357Y-54894551D01*
X111707330Y-55128733D01*
X112317991Y-55129265D01*
X112882371Y-54896068D01*
X113284323Y-54494818D01*
X113683357Y-54894551D01*
X114247330Y-55128733D01*
X114857991Y-55129265D01*
X115422371Y-54896068D01*
X115824323Y-54494818D01*
X116223357Y-54894551D01*
X116787330Y-55128733D01*
X117397991Y-55129265D01*
X117962371Y-54896068D01*
X118364323Y-54494818D01*
X118763357Y-54894551D01*
X119327330Y-55128733D01*
X119937991Y-55129265D01*
X120502371Y-54896068D01*
X120724668Y-54674159D01*
X121273446Y-54674159D01*
X121359852Y-54930643D01*
X121933336Y-55140458D01*
X122543460Y-55114839D01*
X122988148Y-54930643D01*
X123074554Y-54674159D01*
X122174000Y-53773605D01*
X121273446Y-54674159D01*
X120724668Y-54674159D01*
X120934551Y-54464643D01*
X120943203Y-54443806D01*
X121093841Y-54494554D01*
X121994395Y-53594000D01*
X122353605Y-53594000D01*
X123254159Y-54494554D01*
X123510643Y-54408148D01*
X123720458Y-53834664D01*
X123694839Y-53224540D01*
X123510643Y-52779852D01*
X123254159Y-52693446D01*
X122353605Y-53594000D01*
X121994395Y-53594000D01*
X121093841Y-52693446D01*
X120943673Y-52744035D01*
X120936068Y-52725629D01*
X120724650Y-52513841D01*
X121273446Y-52513841D01*
X122174000Y-53414395D01*
X123074554Y-52513841D01*
X122988148Y-52257357D01*
X122414664Y-52047542D01*
X121804540Y-52073161D01*
X121359852Y-52257357D01*
X121273446Y-52513841D01*
X120724650Y-52513841D01*
X120504643Y-52293449D01*
X119940670Y-52059267D01*
X119330009Y-52058735D01*
X118765629Y-52291932D01*
X118363677Y-52693182D01*
X117964643Y-52293449D01*
X117400670Y-52059267D01*
X116790009Y-52058735D01*
X116225629Y-52291932D01*
X115823677Y-52693182D01*
X115424643Y-52293449D01*
X114860670Y-52059267D01*
X114250009Y-52058735D01*
X113685629Y-52291932D01*
X113283677Y-52693182D01*
X112884643Y-52293449D01*
X112320670Y-52059267D01*
X111710009Y-52058735D01*
X111145629Y-52291932D01*
X110743677Y-52693182D01*
X110344643Y-52293449D01*
X109780670Y-52059267D01*
X109170009Y-52058735D01*
X108605629Y-52291932D01*
X108203677Y-52693182D01*
X107804643Y-52293449D01*
X107240670Y-52059267D01*
X106630009Y-52058735D01*
X106065629Y-52291932D01*
X105663677Y-52693182D01*
X105264643Y-52293449D01*
X104700670Y-52059267D01*
X104090009Y-52058735D01*
X103525629Y-52291932D01*
X103123677Y-52693182D01*
X102724643Y-52293449D01*
X102160670Y-52059267D01*
X101550009Y-52058735D01*
X100985629Y-52291932D01*
X100583677Y-52693182D01*
X100184643Y-52293449D01*
X99620670Y-52059267D01*
X99010009Y-52058735D01*
X98445629Y-52291932D01*
X98043677Y-52693182D01*
X97644643Y-52293449D01*
X97080670Y-52059267D01*
X96470009Y-52058735D01*
X95905629Y-52291932D01*
X95503677Y-52693182D01*
X95104643Y-52293449D01*
X94540670Y-52059267D01*
X93930009Y-52058735D01*
X93365629Y-52291932D01*
X92963677Y-52693182D01*
X92564643Y-52293449D01*
X92000670Y-52059267D01*
X91390009Y-52058735D01*
X90825629Y-52291932D01*
X90423677Y-52693182D01*
X90024643Y-52293449D01*
X89460670Y-52059267D01*
X88850009Y-52058735D01*
X88285629Y-52291932D01*
X87883677Y-52693182D01*
X87484643Y-52293449D01*
X86920670Y-52059267D01*
X86310009Y-52058735D01*
X85745629Y-52291932D01*
X85343677Y-52693182D01*
X84944643Y-52293449D01*
X84380670Y-52059267D01*
X83770009Y-52058735D01*
X83205629Y-52291932D01*
X82803677Y-52693182D01*
X82404643Y-52293449D01*
X81840670Y-52059267D01*
X81230009Y-52058735D01*
X80665629Y-52291932D01*
X80263677Y-52693182D01*
X79864643Y-52293449D01*
X79300670Y-52059267D01*
X78690009Y-52058735D01*
X78125629Y-52291932D01*
X77723677Y-52693182D01*
X77324643Y-52293449D01*
X76760670Y-52059267D01*
X76150009Y-52058735D01*
X75585629Y-52291932D01*
X75153449Y-52723357D01*
X75144797Y-52744194D01*
X74994159Y-52693446D01*
X74093605Y-53594000D01*
X73734395Y-53594000D01*
X72833841Y-52693446D01*
X72577357Y-52779852D01*
X72367542Y-53353336D01*
X61416000Y-53353336D01*
X61416000Y-52513841D01*
X73013446Y-52513841D01*
X73914000Y-53414395D01*
X74814554Y-52513841D01*
X74728148Y-52257357D01*
X74154664Y-52047542D01*
X73544540Y-52073161D01*
X73099852Y-52257357D01*
X73013446Y-52513841D01*
X61416000Y-52513841D01*
X61416000Y-51002000D01*
X134672000Y-51002000D01*
X134672000Y-146610000D01*
G36*
X86867824Y-132027208D02*
X87017289Y-132388940D01*
X86833119Y-132507450D01*
X86688129Y-132719650D01*
X86637120Y-132971540D01*
X86637120Y-134170420D01*
X86681398Y-134405737D01*
X86820470Y-134621861D01*
X86828659Y-134627456D01*
X86746233Y-134709882D01*
X86649560Y-134943271D01*
X86649560Y-135383270D01*
X86808310Y-135542020D01*
X87757000Y-135542020D01*
X87757000Y-135522020D01*
X88011000Y-135522020D01*
X88011000Y-135542020D01*
X88959690Y-135542020D01*
X89118440Y-135383270D01*
X89118440Y-135320432D01*
X89199519Y-135516657D01*
X89552471Y-135870226D01*
X89201086Y-136220997D01*
X89170565Y-136294500D01*
X89118440Y-136294500D01*
X89118440Y-135954770D01*
X88959690Y-135796020D01*
X88011000Y-135796020D01*
X88011000Y-135816020D01*
X87757000Y-135816020D01*
X87757000Y-135796020D01*
X86808310Y-135796020D01*
X86649560Y-135954770D01*
X86649560Y-136294500D01*
X80564214Y-136294500D01*
X77552338Y-133282623D01*
X77552381Y-133232716D01*
X77398030Y-132859158D01*
X77279601Y-132740523D01*
X77341008Y-132740576D01*
X77714566Y-132586225D01*
X78000621Y-132300669D01*
X78155624Y-131927382D01*
X78155768Y-131762500D01*
X86868055Y-131762500D01*
X86867824Y-132027208D01*
X86867824Y-132027208D01*
G37*
X86867824Y-132027208D02*
X87017289Y-132388940D01*
X86833119Y-132507450D01*
X86688129Y-132719650D01*
X86637120Y-132971540D01*
X86637120Y-134170420D01*
X86681398Y-134405737D01*
X86820470Y-134621861D01*
X86828659Y-134627456D01*
X86746233Y-134709882D01*
X86649560Y-134943271D01*
X86649560Y-135383270D01*
X86808310Y-135542020D01*
X87757000Y-135542020D01*
X87757000Y-135522020D01*
X88011000Y-135522020D01*
X88011000Y-135542020D01*
X88959690Y-135542020D01*
X89118440Y-135383270D01*
X89118440Y-135320432D01*
X89199519Y-135516657D01*
X89552471Y-135870226D01*
X89201086Y-136220997D01*
X89170565Y-136294500D01*
X89118440Y-136294500D01*
X89118440Y-135954770D01*
X88959690Y-135796020D01*
X88011000Y-135796020D01*
X88011000Y-135816020D01*
X87757000Y-135816020D01*
X87757000Y-135796020D01*
X86808310Y-135796020D01*
X86649560Y-135954770D01*
X86649560Y-136294500D01*
X80564214Y-136294500D01*
X77552338Y-133282623D01*
X77552381Y-133232716D01*
X77398030Y-132859158D01*
X77279601Y-132740523D01*
X77341008Y-132740576D01*
X77714566Y-132586225D01*
X78000621Y-132300669D01*
X78155624Y-131927382D01*
X78155768Y-131762500D01*
X86868055Y-131762500D01*
X86867824Y-132027208D01*
M02*
