G04 #@! TF.FileFunction,Legend,Top*
%FSLAX46Y46*%
G04 Gerber Fmt 4.6, Leading zero omitted, Abs format (unit mm)*
G04 Created by KiCad (PCBNEW 4.0.2+dfsg1-stable) date Thu 23 Aug 2018 11:31:02 AM EDT*
%MOMM*%
G01*
G04 APERTURE LIST*
%ADD10C,0.100000*%
%ADD11C,0.254000*%
%ADD12C,0.150000*%
G04 APERTURE END LIST*
D10*
D11*
X68100000Y-102000000D02*
G75*
G03X68100000Y-102000000I-3100000J0D01*
G01*
X134154000Y-102000000D02*
G75*
G03X134154000Y-102000000I-3100000J0D01*
G01*
D12*
X68185000Y-128178000D02*
X68185000Y-129378000D01*
X66435000Y-129378000D02*
X66435000Y-128178000D01*
X115376400Y-55513000D02*
X116576400Y-55513000D01*
X116576400Y-57263000D02*
X115376400Y-57263000D01*
X110144000Y-55513000D02*
X111344000Y-55513000D01*
X111344000Y-57263000D02*
X110144000Y-57263000D01*
X76734929Y-121960373D02*
X77734929Y-121960373D01*
X77734929Y-120260373D02*
X76734929Y-120260373D01*
X75909929Y-119687373D02*
X75909929Y-113389373D01*
X75769929Y-119681373D02*
X75769929Y-113395373D01*
X75629929Y-119668373D02*
X75629929Y-116984373D01*
X75629929Y-116092373D02*
X75629929Y-113408373D01*
X75489929Y-119649373D02*
X75489929Y-117194373D01*
X75489929Y-115882373D02*
X75489929Y-113427373D01*
X75349929Y-119623373D02*
X75349929Y-117327373D01*
X75349929Y-115749373D02*
X75349929Y-113453373D01*
X75209929Y-119591373D02*
X75209929Y-117418373D01*
X75209929Y-115658373D02*
X75209929Y-113485373D01*
X75069929Y-119552373D02*
X75069929Y-117480373D01*
X75069929Y-115596373D02*
X75069929Y-113524373D01*
X74929929Y-119506373D02*
X74929929Y-117519373D01*
X74929929Y-115557373D02*
X74929929Y-113570373D01*
X74789929Y-119453373D02*
X74789929Y-117536373D01*
X74789929Y-115540373D02*
X74789929Y-113623373D01*
X74649929Y-119391373D02*
X74649929Y-117534373D01*
X74649929Y-115542373D02*
X74649929Y-113685373D01*
X74509929Y-119321373D02*
X74509929Y-117512373D01*
X74509929Y-115564373D02*
X74509929Y-113755373D01*
X74369929Y-119242373D02*
X74369929Y-117469373D01*
X74369929Y-115607373D02*
X74369929Y-113834373D01*
X74229929Y-119154373D02*
X74229929Y-117401373D01*
X74229929Y-115675373D02*
X74229929Y-113922373D01*
X74089929Y-119054373D02*
X74089929Y-117302373D01*
X74089929Y-115774373D02*
X74089929Y-114022373D01*
X73949929Y-118942373D02*
X73949929Y-117157373D01*
X73949929Y-115919373D02*
X73949929Y-114134373D01*
X73809929Y-118817373D02*
X73809929Y-116918373D01*
X73809929Y-116158373D02*
X73809929Y-114259373D01*
X73669929Y-118674373D02*
X73669929Y-114402373D01*
X73529929Y-118512373D02*
X73529929Y-114564373D01*
X73389929Y-118324373D02*
X73389929Y-114752373D01*
X73249929Y-118101373D02*
X73249929Y-114975373D01*
X73109929Y-117825373D02*
X73109929Y-115251373D01*
X72969929Y-117450373D02*
X72969929Y-115626373D01*
X75734929Y-116538373D02*
G75*
G03X75734929Y-116538373I-1000000J0D01*
G01*
X79172429Y-116538373D02*
G75*
G03X79172429Y-116538373I-3187500J0D01*
G01*
X89084929Y-117054373D02*
X89084929Y-118054373D01*
X90784929Y-118054373D02*
X90784929Y-117054373D01*
X63613000Y-128178000D02*
X63613000Y-129378000D01*
X61863000Y-129378000D02*
X61863000Y-128178000D01*
X65899000Y-128178000D02*
X65899000Y-129378000D01*
X64149000Y-129378000D02*
X64149000Y-128178000D01*
X74789000Y-128178000D02*
X74789000Y-129378000D01*
X73039000Y-129378000D02*
X73039000Y-128178000D01*
X70753000Y-129378000D02*
X70753000Y-128178000D01*
X72503000Y-128178000D02*
X72503000Y-129378000D01*
D10*
X83169929Y-114533373D02*
X82694929Y-114533373D01*
X82694929Y-114533373D02*
X82369929Y-114833373D01*
X82369929Y-114833373D02*
X81569929Y-114833373D01*
X82844929Y-121083373D02*
X82369929Y-121083373D01*
X82369929Y-121083373D02*
X82369929Y-120633373D01*
X85919929Y-115033373D02*
X85919929Y-114533373D01*
X85919929Y-114533373D02*
X85519929Y-114533373D01*
X85919929Y-120708373D02*
X85919929Y-121083373D01*
X85919929Y-121083373D02*
X85619929Y-121083373D01*
D12*
X88759000Y-134020000D02*
X88759000Y-135220000D01*
X87009000Y-135220000D02*
X87009000Y-134020000D01*
X97444000Y-143905000D02*
X98644000Y-143905000D01*
X98644000Y-145655000D02*
X97444000Y-145655000D01*
X107329000Y-135220000D02*
X107329000Y-134020000D01*
X109079000Y-134020000D02*
X109079000Y-135220000D01*
X98644000Y-125335000D02*
X97444000Y-125335000D01*
X97444000Y-123585000D02*
X98644000Y-123585000D01*
X83549993Y-122107401D02*
X84749993Y-122107401D01*
X84749993Y-123857401D02*
X83549993Y-123857401D01*
X64643047Y-101763581D02*
X64643047Y-102001676D01*
X64404952Y-101906438D02*
X64643047Y-102001676D01*
X64881143Y-101906438D01*
X64500190Y-102192152D02*
X64643047Y-102001676D01*
X64785905Y-102192152D01*
X65404952Y-101763581D02*
X65404952Y-102001676D01*
X65166857Y-101906438D02*
X65404952Y-102001676D01*
X65643048Y-101906438D01*
X65262095Y-102192152D02*
X65404952Y-102001676D01*
X65547810Y-102192152D01*
X130657647Y-101788981D02*
X130657647Y-102027076D01*
X130419552Y-101931838D02*
X130657647Y-102027076D01*
X130895743Y-101931838D01*
X130514790Y-102217552D02*
X130657647Y-102027076D01*
X130800505Y-102217552D01*
X131419552Y-101788981D02*
X131419552Y-102027076D01*
X131181457Y-101931838D02*
X131419552Y-102027076D01*
X131657648Y-101931838D01*
X131276695Y-102217552D02*
X131419552Y-102027076D01*
X131562410Y-102217552D01*
X67762381Y-125642666D02*
X67286190Y-125976000D01*
X67762381Y-126214095D02*
X66762381Y-126214095D01*
X66762381Y-125833142D01*
X66810000Y-125737904D01*
X66857619Y-125690285D01*
X66952857Y-125642666D01*
X67095714Y-125642666D01*
X67190952Y-125690285D01*
X67238571Y-125737904D01*
X67286190Y-125833142D01*
X67286190Y-126214095D01*
X66762381Y-124737904D02*
X66762381Y-125214095D01*
X67238571Y-125261714D01*
X67190952Y-125214095D01*
X67143333Y-125118857D01*
X67143333Y-124880761D01*
X67190952Y-124785523D01*
X67238571Y-124737904D01*
X67333810Y-124690285D01*
X67571905Y-124690285D01*
X67667143Y-124737904D01*
X67714762Y-124785523D01*
X67762381Y-124880761D01*
X67762381Y-125118857D01*
X67714762Y-125214095D01*
X67667143Y-125261714D01*
X115435143Y-58618381D02*
X115101809Y-58142190D01*
X114863714Y-58618381D02*
X114863714Y-57618381D01*
X115244667Y-57618381D01*
X115339905Y-57666000D01*
X115387524Y-57713619D01*
X115435143Y-57808857D01*
X115435143Y-57951714D01*
X115387524Y-58046952D01*
X115339905Y-58094571D01*
X115244667Y-58142190D01*
X114863714Y-58142190D01*
X116387524Y-58618381D02*
X115816095Y-58618381D01*
X116101809Y-58618381D02*
X116101809Y-57618381D01*
X116006571Y-57761238D01*
X115911333Y-57856476D01*
X115816095Y-57904095D01*
X117006571Y-57618381D02*
X117101810Y-57618381D01*
X117197048Y-57666000D01*
X117244667Y-57713619D01*
X117292286Y-57808857D01*
X117339905Y-57999333D01*
X117339905Y-58237429D01*
X117292286Y-58427905D01*
X117244667Y-58523143D01*
X117197048Y-58570762D01*
X117101810Y-58618381D01*
X117006571Y-58618381D01*
X116911333Y-58570762D01*
X116863714Y-58523143D01*
X116816095Y-58427905D01*
X116768476Y-58237429D01*
X116768476Y-57999333D01*
X116816095Y-57808857D01*
X116863714Y-57713619D01*
X116911333Y-57666000D01*
X117006571Y-57618381D01*
X110101143Y-58618381D02*
X109767809Y-58142190D01*
X109529714Y-58618381D02*
X109529714Y-57618381D01*
X109910667Y-57618381D01*
X110005905Y-57666000D01*
X110053524Y-57713619D01*
X110101143Y-57808857D01*
X110101143Y-57951714D01*
X110053524Y-58046952D01*
X110005905Y-58094571D01*
X109910667Y-58142190D01*
X109529714Y-58142190D01*
X111053524Y-58618381D02*
X110482095Y-58618381D01*
X110767809Y-58618381D02*
X110767809Y-57618381D01*
X110672571Y-57761238D01*
X110577333Y-57856476D01*
X110482095Y-57904095D01*
X112005905Y-58618381D02*
X111434476Y-58618381D01*
X111720190Y-58618381D02*
X111720190Y-57618381D01*
X111624952Y-57761238D01*
X111529714Y-57856476D01*
X111434476Y-57904095D01*
X73512263Y-121467516D02*
X73464644Y-121515135D01*
X73321787Y-121562754D01*
X73226549Y-121562754D01*
X73083691Y-121515135D01*
X72988453Y-121419897D01*
X72940834Y-121324659D01*
X72893215Y-121134183D01*
X72893215Y-120991325D01*
X72940834Y-120800849D01*
X72988453Y-120705611D01*
X73083691Y-120610373D01*
X73226549Y-120562754D01*
X73321787Y-120562754D01*
X73464644Y-120610373D01*
X73512263Y-120657992D01*
X73893215Y-120657992D02*
X73940834Y-120610373D01*
X74036072Y-120562754D01*
X74274168Y-120562754D01*
X74369406Y-120610373D01*
X74417025Y-120657992D01*
X74464644Y-120753230D01*
X74464644Y-120848468D01*
X74417025Y-120991325D01*
X73845596Y-121562754D01*
X74464644Y-121562754D01*
X71988263Y-114355516D02*
X71940644Y-114403135D01*
X71797787Y-114450754D01*
X71702549Y-114450754D01*
X71559691Y-114403135D01*
X71464453Y-114307897D01*
X71416834Y-114212659D01*
X71369215Y-114022183D01*
X71369215Y-113879325D01*
X71416834Y-113688849D01*
X71464453Y-113593611D01*
X71559691Y-113498373D01*
X71702549Y-113450754D01*
X71797787Y-113450754D01*
X71940644Y-113498373D01*
X71988263Y-113545992D01*
X72321596Y-113450754D02*
X72940644Y-113450754D01*
X72607310Y-113831706D01*
X72750168Y-113831706D01*
X72845406Y-113879325D01*
X72893025Y-113926944D01*
X72940644Y-114022183D01*
X72940644Y-114260278D01*
X72893025Y-114355516D01*
X72845406Y-114403135D01*
X72750168Y-114450754D01*
X72464453Y-114450754D01*
X72369215Y-114403135D01*
X72321596Y-114355516D01*
X90292072Y-114399039D02*
X90339691Y-114446658D01*
X90387310Y-114589515D01*
X90387310Y-114684753D01*
X90339691Y-114827611D01*
X90244453Y-114922849D01*
X90149215Y-114970468D01*
X89958739Y-115018087D01*
X89815881Y-115018087D01*
X89625405Y-114970468D01*
X89530167Y-114922849D01*
X89434929Y-114827611D01*
X89387310Y-114684753D01*
X89387310Y-114589515D01*
X89434929Y-114446658D01*
X89482548Y-114399039D01*
X89720643Y-113541896D02*
X90387310Y-113541896D01*
X89339691Y-113779992D02*
X90053977Y-114018087D01*
X90053977Y-113399039D01*
X63190381Y-125642666D02*
X62714190Y-125976000D01*
X63190381Y-126214095D02*
X62190381Y-126214095D01*
X62190381Y-125833142D01*
X62238000Y-125737904D01*
X62285619Y-125690285D01*
X62380857Y-125642666D01*
X62523714Y-125642666D01*
X62618952Y-125690285D01*
X62666571Y-125737904D01*
X62714190Y-125833142D01*
X62714190Y-126214095D01*
X63190381Y-124690285D02*
X63190381Y-125261714D01*
X63190381Y-124976000D02*
X62190381Y-124976000D01*
X62333238Y-125071238D01*
X62428476Y-125166476D01*
X62476095Y-125261714D01*
X65476381Y-125388666D02*
X65000190Y-125722000D01*
X65476381Y-125960095D02*
X64476381Y-125960095D01*
X64476381Y-125579142D01*
X64524000Y-125483904D01*
X64571619Y-125436285D01*
X64666857Y-125388666D01*
X64809714Y-125388666D01*
X64904952Y-125436285D01*
X64952571Y-125483904D01*
X65000190Y-125579142D01*
X65000190Y-125960095D01*
X64571619Y-125007714D02*
X64524000Y-124960095D01*
X64476381Y-124864857D01*
X64476381Y-124626761D01*
X64524000Y-124531523D01*
X64571619Y-124483904D01*
X64666857Y-124436285D01*
X64762095Y-124436285D01*
X64904952Y-124483904D01*
X65476381Y-125055333D01*
X65476381Y-124436285D01*
X74366381Y-125388666D02*
X73890190Y-125722000D01*
X74366381Y-125960095D02*
X73366381Y-125960095D01*
X73366381Y-125579142D01*
X73414000Y-125483904D01*
X73461619Y-125436285D01*
X73556857Y-125388666D01*
X73699714Y-125388666D01*
X73794952Y-125436285D01*
X73842571Y-125483904D01*
X73890190Y-125579142D01*
X73890190Y-125960095D01*
X73366381Y-125055333D02*
X73366381Y-124436285D01*
X73747333Y-124769619D01*
X73747333Y-124626761D01*
X73794952Y-124531523D01*
X73842571Y-124483904D01*
X73937810Y-124436285D01*
X74175905Y-124436285D01*
X74271143Y-124483904D01*
X74318762Y-124531523D01*
X74366381Y-124626761D01*
X74366381Y-124912476D01*
X74318762Y-125007714D01*
X74271143Y-125055333D01*
X72080381Y-125388666D02*
X71604190Y-125722000D01*
X72080381Y-125960095D02*
X71080381Y-125960095D01*
X71080381Y-125579142D01*
X71128000Y-125483904D01*
X71175619Y-125436285D01*
X71270857Y-125388666D01*
X71413714Y-125388666D01*
X71508952Y-125436285D01*
X71556571Y-125483904D01*
X71604190Y-125579142D01*
X71604190Y-125960095D01*
X71413714Y-124531523D02*
X72080381Y-124531523D01*
X71032762Y-124769619D02*
X71747048Y-125007714D01*
X71747048Y-124388666D01*
X83388088Y-112782782D02*
X83388088Y-113592306D01*
X83435707Y-113687544D01*
X83483326Y-113735163D01*
X83578564Y-113782782D01*
X83769041Y-113782782D01*
X83864279Y-113735163D01*
X83911898Y-113687544D01*
X83959517Y-113592306D01*
X83959517Y-112782782D01*
X84959517Y-113782782D02*
X84388088Y-113782782D01*
X84673802Y-113782782D02*
X84673802Y-112782782D01*
X84578564Y-112925639D01*
X84483326Y-113020877D01*
X84388088Y-113068496D01*
X88336381Y-138088666D02*
X87860190Y-138422000D01*
X88336381Y-138660095D02*
X87336381Y-138660095D01*
X87336381Y-138279142D01*
X87384000Y-138183904D01*
X87431619Y-138136285D01*
X87526857Y-138088666D01*
X87669714Y-138088666D01*
X87764952Y-138136285D01*
X87812571Y-138183904D01*
X87860190Y-138279142D01*
X87860190Y-138660095D01*
X87336381Y-137231523D02*
X87336381Y-137422000D01*
X87384000Y-137517238D01*
X87431619Y-137564857D01*
X87574476Y-137660095D01*
X87764952Y-137707714D01*
X88145905Y-137707714D01*
X88241143Y-137660095D01*
X88288762Y-137612476D01*
X88336381Y-137517238D01*
X88336381Y-137326761D01*
X88288762Y-137231523D01*
X88241143Y-137183904D01*
X88145905Y-137136285D01*
X87907810Y-137136285D01*
X87812571Y-137183904D01*
X87764952Y-137231523D01*
X87717333Y-137326761D01*
X87717333Y-137517238D01*
X87764952Y-137612476D01*
X87812571Y-137660095D01*
X87907810Y-137707714D01*
X101179334Y-145232381D02*
X100846000Y-144756190D01*
X100607905Y-145232381D02*
X100607905Y-144232381D01*
X100988858Y-144232381D01*
X101084096Y-144280000D01*
X101131715Y-144327619D01*
X101179334Y-144422857D01*
X101179334Y-144565714D01*
X101131715Y-144660952D01*
X101084096Y-144708571D01*
X100988858Y-144756190D01*
X100607905Y-144756190D01*
X101512667Y-144232381D02*
X102179334Y-144232381D01*
X101750762Y-145232381D01*
X108656381Y-131484666D02*
X108180190Y-131818000D01*
X108656381Y-132056095D02*
X107656381Y-132056095D01*
X107656381Y-131675142D01*
X107704000Y-131579904D01*
X107751619Y-131532285D01*
X107846857Y-131484666D01*
X107989714Y-131484666D01*
X108084952Y-131532285D01*
X108132571Y-131579904D01*
X108180190Y-131675142D01*
X108180190Y-132056095D01*
X108084952Y-130913238D02*
X108037333Y-131008476D01*
X107989714Y-131056095D01*
X107894476Y-131103714D01*
X107846857Y-131103714D01*
X107751619Y-131056095D01*
X107704000Y-131008476D01*
X107656381Y-130913238D01*
X107656381Y-130722761D01*
X107704000Y-130627523D01*
X107751619Y-130579904D01*
X107846857Y-130532285D01*
X107894476Y-130532285D01*
X107989714Y-130579904D01*
X108037333Y-130627523D01*
X108084952Y-130722761D01*
X108084952Y-130913238D01*
X108132571Y-131008476D01*
X108180190Y-131056095D01*
X108275429Y-131103714D01*
X108465905Y-131103714D01*
X108561143Y-131056095D01*
X108608762Y-131008476D01*
X108656381Y-130913238D01*
X108656381Y-130722761D01*
X108608762Y-130627523D01*
X108561143Y-130579904D01*
X108465905Y-130532285D01*
X108275429Y-130532285D01*
X108180190Y-130579904D01*
X108132571Y-130627523D01*
X108084952Y-130722761D01*
X94575334Y-124912381D02*
X94242000Y-124436190D01*
X94003905Y-124912381D02*
X94003905Y-123912381D01*
X94384858Y-123912381D01*
X94480096Y-123960000D01*
X94527715Y-124007619D01*
X94575334Y-124102857D01*
X94575334Y-124245714D01*
X94527715Y-124340952D01*
X94480096Y-124388571D01*
X94384858Y-124436190D01*
X94003905Y-124436190D01*
X95051524Y-124912381D02*
X95242000Y-124912381D01*
X95337239Y-124864762D01*
X95384858Y-124817143D01*
X95480096Y-124674286D01*
X95527715Y-124483810D01*
X95527715Y-124102857D01*
X95480096Y-124007619D01*
X95432477Y-123960000D01*
X95337239Y-123912381D01*
X95146762Y-123912381D01*
X95051524Y-123960000D01*
X95003905Y-124007619D01*
X94956286Y-124102857D01*
X94956286Y-124340952D01*
X95003905Y-124436190D01*
X95051524Y-124483810D01*
X95146762Y-124531429D01*
X95337239Y-124531429D01*
X95432477Y-124483810D01*
X95480096Y-124436190D01*
X95527715Y-124340952D01*
X83507136Y-125534782D02*
X83173802Y-125058591D01*
X82935707Y-125534782D02*
X82935707Y-124534782D01*
X83316660Y-124534782D01*
X83411898Y-124582401D01*
X83459517Y-124630020D01*
X83507136Y-124725258D01*
X83507136Y-124868115D01*
X83459517Y-124963353D01*
X83411898Y-125010972D01*
X83316660Y-125058591D01*
X82935707Y-125058591D01*
X84459517Y-125534782D02*
X83888088Y-125534782D01*
X84173802Y-125534782D02*
X84173802Y-124534782D01*
X84078564Y-124677639D01*
X83983326Y-124772877D01*
X83888088Y-124820496D01*
X84840469Y-124630020D02*
X84888088Y-124582401D01*
X84983326Y-124534782D01*
X85221422Y-124534782D01*
X85316660Y-124582401D01*
X85364279Y-124630020D01*
X85411898Y-124725258D01*
X85411898Y-124820496D01*
X85364279Y-124963353D01*
X84792850Y-125534782D01*
X85411898Y-125534782D01*
M02*
